<?xml version="1.0" encoding="UTF-8" standalone="no"?>
<!-- Created with Inkscape (http://www.inkscape.org/) -->

<svg
   xmlns:dc="http://purl.org/dc/elements/1.1/"
   xmlns:cc="http://creativecommons.org/ns#"
   xmlns:rdf="http://www.w3.org/1999/02/22-rdf-syntax-ns#"
   xmlns:svg="http://www.w3.org/2000/svg"
   xmlns="http://www.w3.org/2000/svg"
   xmlns:xlink="http://www.w3.org/1999/xlink"
   xmlns:sodipodi="http://sodipodi.sourceforge.net/DTD/sodipodi-0.dtd"
   xmlns:inkscape="http://www.inkscape.org/namespaces/inkscape"
   width="330.00003"
   height="165.00002"
   id="svg4136"
   version="1.1"
   inkscape:version="0.48.4 r9939"
   sodipodi:docname="welcome-illustration.svg"
   inkscape:export-filename="/Users/saman/work_repos/openstreetmap-website/app/assets/images/sign-up-illustration.png"
   inkscape:export-xdpi="90"
   inkscape:export-ydpi="90">
  <defs
     id="defs4138">
    <linearGradient
       inkscape:collect="always"
       id="linearGradient9009">
      <stop
         style="stop-color:#ffffff;stop-opacity:1;"
         offset="0"
         id="stop9011" />
      <stop
         style="stop-color:#ffffff;stop-opacity:0;"
         offset="1"
         id="stop9013" />
    </linearGradient>
    <linearGradient
       id="linearGradient8284"
       inkscape:collect="always">
      <stop
         id="stop8286"
         offset="0"
         style="stop-color:#b2dbea;stop-opacity:1" />
      <stop
         id="stop8288"
         offset="1"
         style="stop-color:#93b8e0;stop-opacity:0" />
    </linearGradient>
    <linearGradient
       id="linearGradient7767">
      <stop
         style="stop-color:#b2dbea;stop-opacity:1"
         offset="0"
         id="stop7769" />
      <stop
         style="stop-color:#7092ff;stop-opacity:1"
         offset="1"
         id="stop7771" />
    </linearGradient>
    <linearGradient
       inkscape:collect="always"
       id="linearGradient7009">
      <stop
         style="stop-color:#f4f4ff;stop-opacity:1"
         offset="0"
         id="stop7011" />
      <stop
         style="stop-color:#f4f4ff;stop-opacity:0;"
         offset="1"
         id="stop7013" />
    </linearGradient>
    <clipPath
       clipPathUnits="userSpaceOnUse"
       id="clipPath7691">
      <path
         sodipodi:open="true"
         sodipodi:end="6.2831853"
         sodipodi:start="3.1415927"
         transform="matrix(1.4545455,0,0,1.4545455,-622.81822,-83.09091)"
         d="M 1126,118.99999 A 110,110 0 0 1 1346,119"
         sodipodi:ry="110"
         sodipodi:rx="110"
         sodipodi:cy="119"
         sodipodi:cx="1236"
         id="path7693"
         style="color:#000000;fill:#c5c5d7;fill-opacity:1;fill-rule:nonzero;stroke:none;stroke-width:4;marker:none;visibility:visible;display:inline;overflow:visible;enable-background:accumulate"
         sodipodi:type="arc" />
    </clipPath>
    <clipPath
       clipPathUnits="userSpaceOnUse"
       id="clipPath7755">
      <path
         inkscape:connector-curvature="0"
         style="color:#000000;fill:#adadc6;fill-opacity:1;fill-rule:nonzero;stroke:none;stroke-width:4;marker:none;visibility:visible;display:inline;overflow:visible;enable-background:accumulate"
         d="m 1230.4688,792.26843 c 13.3096,49.6722 -20.4537,112.82556 -47.6876,150.09372 l 152.2188,0 c 0,-68.85715 -43.5157,-127.53233 -104.5312,-150.09372 z"
         id="path7757"
         sodipodi:nodetypes="cccc" />
    </clipPath>
    <clipPath
       clipPathUnits="userSpaceOnUse"
       id="clipPath8573">
      <path
         sodipodi:type="arc"
         style="color:#000000;fill:#000000;fill-opacity:1;fill-rule:nonzero;stroke:none;stroke-width:4;marker:none;visibility:visible;display:inline;overflow:visible;enable-background:accumulate"
         id="path8575"
         sodipodi:cx="1236"
         sodipodi:cy="119"
         sodipodi:rx="110"
         sodipodi:ry="110"
         d="M 1126,118.99999 A 110,110 0 0 1 1346,119"
         transform="matrix(1.4545455,0,0,1.4545455,-611.81823,-534.09093)"
         sodipodi:start="3.1415927"
         sodipodi:end="6.2831853"
         sodipodi:open="true" />
    </clipPath>
    <clipPath
       clipPathUnits="userSpaceOnUse"
       id="clipPath8675">
      <path
         style="font-size:medium;font-style:normal;font-variant:normal;font-weight:normal;font-stretch:normal;text-indent:0;text-align:start;text-decoration:none;line-height:normal;letter-spacing:normal;word-spacing:normal;text-transform:none;direction:ltr;block-progression:tb;writing-mode:lr-tb;text-anchor:start;baseline-shift:baseline;color:#000000;fill:url(#linearGradient8679);fill-opacity:1;fill-rule:nonzero;stroke:none;stroke-width:5.81818199;marker:none;visibility:visible;display:inline;overflow:visible;enable-background:accumulate;font-family:Sans;-inkscape-font-specification:Sans"
         d="m 1190.4062,-388.15627 a 12.0012,12.0012 0 0 0 -10.0312,4.96875 c -23.0888,31.04416 -73.5,61.84375 -73.5,61.84375 a 12.007739,12.007739 0 0 0 -0.8125,0.5625 12.007739,12.007739 0 0 0 -0.1875,0.125 l -13.875,7.90625 a 4.0175701,4.0175701 0 1 0 4,6.96875 l 5.2188,-2.96875 a 12.007739,12.007739 0 0 0 17.9062,8.0625 c 0,0 52.3016,-30.24185 80.5,-68.15625 a 12.0012,12.0012 0 0 0 -9.2188,-19.3125 z"
         id="path8677"
         inkscape:connector-curvature="0" />
    </clipPath>
    <linearGradient
       inkscape:collect="always"
       xlink:href="#linearGradient8284"
       id="linearGradient8679"
       gradientUnits="userSpaceOnUse"
       x1="1086"
       y1="139"
       x2="1125.7982"
       y2="99.201767"
       gradientTransform="translate(11.000003,-451.00002)" />
    <clipPath
       clipPathUnits="userSpaceOnUse"
       id="clipPath8987">
      <flowRoot
         xml:space="preserve"
         id="flowRoot8989"
         style="font-size:30px;font-style:normal;font-variant:normal;font-weight:bold;font-stretch:normal;text-indent:0;text-align:start;text-decoration:none;line-height:125%;letter-spacing:0px;word-spacing:0px;text-transform:none;direction:ltr;block-progression:tb;writing-mode:lr-tb;text-anchor:start;baseline-shift:baseline;opacity:0.25;color:#000000;fill:#ffffff;fill-opacity:1;fill-rule:nonzero;stroke:none;stroke-width:4;marker:none;visibility:visible;display:inline;overflow:visible;enable-background:accumulate;font-family:Menlo;-inkscape-font-specification:Menlo Bold"
         transform="translate(-173.25,451.00002)"
         clip-path="none"><flowRegion
           id="flowRegion8991"><rect
             id="rect8993"
             width="580"
             height="303"
             x="1021"
             y="-529"
             style="font-style:normal;font-variant:normal;font-weight:bold;font-stretch:normal;fill:#ffffff;stroke:none;font-family:Menlo;-inkscape-font-specification:Menlo Bold" /></flowRegion><flowPara
           id="flowPara8995">101010101010100011</flowPara><flowPara
           id="flowPara8997">100010101010011010</flowPara><flowPara
           id="flowPara8999">101010101001010110</flowPara><flowPara
           id="flowPara9001">010111010000011010</flowPara><flowPara
           id="flowPara9003">000101010000110001</flowPara><flowPara
           id="flowPara9005">101010110010101101</flowPara><flowPara
           id="flowPara9007">101010111010101011</flowPara></flowRoot>    </clipPath>
    <linearGradient
       inkscape:collect="always"
       xlink:href="#linearGradient9009"
       id="linearGradient9015"
       x1="1184"
       y1="-405.00003"
       x2="1184"
       y2="-533.03516"
       gradientUnits="userSpaceOnUse" />
    <linearGradient
       inkscape:collect="always"
       xlink:href="#linearGradient9009"
       id="linearGradient9023"
       gradientUnits="userSpaceOnUse"
       x1="1184"
       y1="-405.00003"
       x2="1184"
       y2="-533.03516" />
    <linearGradient
       inkscape:collect="always"
       xlink:href="#linearGradient9009"
       id="linearGradient9025"
       gradientUnits="userSpaceOnUse"
       x1="1184"
       y1="-405.00003"
       x2="1184"
       y2="-533.03516" />
    <linearGradient
       inkscape:collect="always"
       xlink:href="#linearGradient9009"
       id="linearGradient9027"
       gradientUnits="userSpaceOnUse"
       x1="1184"
       y1="-405.00003"
       x2="1184"
       y2="-533.03516" />
    <linearGradient
       inkscape:collect="always"
       xlink:href="#linearGradient9009"
       id="linearGradient9029"
       gradientUnits="userSpaceOnUse"
       x1="1184"
       y1="-405.00003"
       x2="1184"
       y2="-533.03516" />
    <linearGradient
       inkscape:collect="always"
       xlink:href="#linearGradient9009"
       id="linearGradient9031"
       gradientUnits="userSpaceOnUse"
       x1="1184"
       y1="-405.00003"
       x2="1184"
       y2="-533.03516" />
    <linearGradient
       inkscape:collect="always"
       xlink:href="#linearGradient9009"
       id="linearGradient9033"
       gradientUnits="userSpaceOnUse"
       x1="1184"
       y1="-405.00003"
       x2="1184"
       y2="-533.03516" />
    <linearGradient
       inkscape:collect="always"
       xlink:href="#linearGradient9009"
       id="linearGradient9035"
       gradientUnits="userSpaceOnUse"
       x1="1184"
       y1="-405.00003"
       x2="1184"
       y2="-533.03516" />
    <linearGradient
       inkscape:collect="always"
       xlink:href="#linearGradient7872-8"
       id="linearGradient7878-9"
       x1="1097"
       y1="942.36218"
       x2="1097"
       y2="802.62952"
       gradientUnits="userSpaceOnUse"
       gradientTransform="translate(-50,0)" />
    <linearGradient
       inkscape:collect="always"
       id="linearGradient7872-8">
      <stop
         style="stop-color:#cbeea7;stop-opacity:1;"
         offset="0"
         id="stop7874-3" />
      <stop
         style="stop-color:#cee8c1;stop-opacity:1"
         offset="1"
         id="stop7876-8" />
    </linearGradient>
    <linearGradient
       inkscape:collect="always"
       xlink:href="#linearGradient7872-80"
       id="linearGradient7878-1"
       x1="1097"
       y1="942.36218"
       x2="1097"
       y2="802.62952"
       gradientUnits="userSpaceOnUse"
       gradientTransform="translate(-870,-742.36218)" />
    <linearGradient
       inkscape:collect="always"
       id="linearGradient7872-80">
      <stop
         style="stop-color:#cbeea7;stop-opacity:1;"
         offset="0"
         id="stop7874-6" />
      <stop
         style="stop-color:#cee8c1;stop-opacity:1"
         offset="1"
         id="stop7876-6" />
    </linearGradient>
    <linearGradient
       inkscape:collect="always"
       xlink:href="#linearGradient7872-8-5"
       id="linearGradient7878-9-6"
       x1="1097"
       y1="942.36218"
       x2="1097"
       y2="802.62952"
       gradientUnits="userSpaceOnUse"
       gradientTransform="translate(-870,-742.36218)" />
    <linearGradient
       inkscape:collect="always"
       id="linearGradient7872-8-5">
      <stop
         style="stop-color:#cbeea7;stop-opacity:1;"
         offset="0"
         id="stop7874-3-7" />
      <stop
         style="stop-color:#cee8c1;stop-opacity:1"
         offset="1"
         id="stop7876-8-7" />
    </linearGradient>
    <linearGradient
       inkscape:collect="always"
       xlink:href="#linearGradient7009"
       id="linearGradient9564"
       gradientUnits="userSpaceOnUse"
       gradientTransform="translate(-50,852.36218)"
       x1="1177.2046"
       y1="110.20067"
       x2="1151.0864"
       y2="155.43863" />
    <linearGradient
       inkscape:collect="always"
       xlink:href="#linearGradient7767"
       id="linearGradient9566"
       gradientUnits="userSpaceOnUse"
       gradientTransform="translate(-50,852.36218)"
       x1="1200"
       y1="-30"
       x2="1200"
       y2="90" />
    <linearGradient
       inkscape:collect="always"
       xlink:href="#linearGradient8284"
       id="linearGradient9568"
       gradientUnits="userSpaceOnUse"
       gradientTransform="translate(-50,852.36218)"
       x1="1086"
       y1="139"
       x2="1125.7982"
       y2="99.201767" />
    <filter
       inkscape:collect="always"
       id="filter13004"
       x="-0.15676734"
       width="1.3135347"
       y="-0.31353468"
       height="1.6270694"
       color-interpolation-filters="sRGB">
      <feGaussianBlur
         inkscape:collect="always"
         stdDeviation="1.3063945"
         id="feGaussianBlur13006" />
    </filter>
    <linearGradient
       inkscape:collect="always"
       xlink:href="#linearGradient7872-8-9"
       id="linearGradient7878-9-9"
       x1="1097"
       y1="942.36218"
       x2="1097"
       y2="802.62952"
       gradientUnits="userSpaceOnUse"
       gradientTransform="translate(-870,-742.36218)" />
    <linearGradient
       inkscape:collect="always"
       id="linearGradient7872-8-9">
      <stop
         style="stop-color:#cbeea7;stop-opacity:1;"
         offset="0"
         id="stop7874-3-4" />
      <stop
         style="stop-color:#cee8c1;stop-opacity:1"
         offset="1"
         id="stop7876-8-3" />
    </linearGradient>
    <linearGradient
       inkscape:collect="always"
       id="linearGradient7872-8-2">
      <stop
         style="stop-color:#cbeea7;stop-opacity:1;"
         offset="0"
         id="stop7874-3-3" />
      <stop
         style="stop-color:#cee8c1;stop-opacity:1"
         offset="1"
         id="stop7876-8-6" />
    </linearGradient>
    <linearGradient
       y2="802.62952"
       x2="1097"
       y1="942.36218"
       x1="1097"
       gradientTransform="translate(-1205,-787.20593)"
       gradientUnits="userSpaceOnUse"
       id="linearGradient13058"
       xlink:href="#linearGradient7872-8-2"
       inkscape:collect="always" />
    <clipPath
       clipPathUnits="userSpaceOnUse"
       id="clipPath7755-6">
      <path
         inkscape:connector-curvature="0"
         style="color:#000000;fill:#adadc6;fill-opacity:1;fill-rule:nonzero;stroke:none;stroke-width:4;marker:none;visibility:visible;display:inline;overflow:visible;enable-background:accumulate"
         d="m 1230.4688,792.26843 c 13.3096,49.6722 -20.4537,112.82556 -47.6876,150.09372 l 152.2188,0 c 0,-68.85715 -43.5157,-127.53233 -104.5312,-150.09372 z"
         id="path7757-0"
         sodipodi:nodetypes="cccc" />
    </clipPath>
    <clipPath
       clipPathUnits="userSpaceOnUse"
       id="clipPath7691-1">
      <path
         sodipodi:open="true"
         sodipodi:end="6.2831853"
         sodipodi:start="3.1415927"
         transform="matrix(1.4545455,0,0,1.4545455,-622.81822,-83.09091)"
         d="M 1126,118.99999 A 110,110 0 0 1 1346,119"
         sodipodi:ry="110"
         sodipodi:rx="110"
         sodipodi:cy="119"
         sodipodi:cx="1236"
         id="path7693-7"
         style="color:#000000;fill:#c5c5d7;fill-opacity:1;fill-rule:nonzero;stroke:none;stroke-width:4;marker:none;visibility:visible;display:inline;overflow:visible;enable-background:accumulate"
         sodipodi:type="arc" />
    </clipPath>
    <linearGradient
       inkscape:collect="always"
       xlink:href="#linearGradient9009-1"
       id="linearGradient9015-1"
       x1="1184"
       y1="-405.00003"
       x2="1184"
       y2="-533.03516"
       gradientUnits="userSpaceOnUse" />
    <linearGradient
       inkscape:collect="always"
       id="linearGradient9009-1">
      <stop
         style="stop-color:#ffffff;stop-opacity:1;"
         offset="0"
         id="stop9011-6" />
      <stop
         style="stop-color:#ffffff;stop-opacity:0;"
         offset="1"
         id="stop9013-9" />
    </linearGradient>
    <clipPath
       clipPathUnits="userSpaceOnUse"
       id="clipPath8573-0">
      <path
         sodipodi:type="arc"
         style="color:#000000;fill:#000000;fill-opacity:1;fill-rule:nonzero;stroke:none;stroke-width:4;marker:none;visibility:visible;display:inline;overflow:visible;enable-background:accumulate"
         id="path8575-7"
         sodipodi:cx="1236"
         sodipodi:cy="119"
         sodipodi:rx="110"
         sodipodi:ry="110"
         d="M 1126,118.99999 A 110,110 0 0 1 1346,119"
         transform="matrix(1.4545455,0,0,1.4545455,-611.81823,-534.09093)"
         sodipodi:start="3.1415927"
         sodipodi:end="6.2831853"
         sodipodi:open="true" />
    </clipPath>
    <linearGradient
       inkscape:collect="always"
       xlink:href="#linearGradient9009-1"
       id="linearGradient9023-5"
       gradientUnits="userSpaceOnUse"
       x1="1184"
       y1="-405.00003"
       x2="1184"
       y2="-533.03516" />
    <linearGradient
       inkscape:collect="always"
       xlink:href="#linearGradient9009-1"
       id="linearGradient9025-9"
       gradientUnits="userSpaceOnUse"
       x1="1184"
       y1="-405.00003"
       x2="1184"
       y2="-533.03516" />
    <linearGradient
       inkscape:collect="always"
       xlink:href="#linearGradient9009-1"
       id="linearGradient9027-7"
       gradientUnits="userSpaceOnUse"
       x1="1184"
       y1="-405.00003"
       x2="1184"
       y2="-533.03516" />
    <linearGradient
       inkscape:collect="always"
       xlink:href="#linearGradient9009-1"
       id="linearGradient9029-0"
       gradientUnits="userSpaceOnUse"
       x1="1184"
       y1="-405.00003"
       x2="1184"
       y2="-533.03516" />
    <linearGradient
       inkscape:collect="always"
       xlink:href="#linearGradient9009-1"
       id="linearGradient9031-3"
       gradientUnits="userSpaceOnUse"
       x1="1184"
       y1="-405.00003"
       x2="1184"
       y2="-533.03516" />
    <linearGradient
       inkscape:collect="always"
       xlink:href="#linearGradient9009-1"
       id="linearGradient9033-7"
       gradientUnits="userSpaceOnUse"
       x1="1184"
       y1="-405.00003"
       x2="1184"
       y2="-533.03516" />
    <linearGradient
       inkscape:collect="always"
       xlink:href="#linearGradient9009-1"
       id="linearGradient9035-5"
       gradientUnits="userSpaceOnUse"
       x1="1184"
       y1="-405.00003"
       x2="1184"
       y2="-533.03516" />
    <linearGradient
       inkscape:collect="always"
       xlink:href="#linearGradient7767-4"
       id="linearGradient7773-2"
       x1="1225.6875"
       y1="36.5"
       x2="1225.6875"
       y2="119"
       gradientUnits="userSpaceOnUse" />
    <linearGradient
       id="linearGradient7767-4">
      <stop
         style="stop-color:#b2dbea;stop-opacity:1"
         offset="0"
         id="stop7769-5" />
      <stop
         style="stop-color:#7092ff;stop-opacity:1"
         offset="1"
         id="stop7771-9" />
    </linearGradient>
    <linearGradient
       id="linearGradient7767-4-1">
      <stop
         style="stop-color:#b2dbea;stop-opacity:1"
         offset="0"
         id="stop7769-5-1" />
      <stop
         style="stop-color:#7092ff;stop-opacity:1"
         offset="1"
         id="stop7771-9-8" />
    </linearGradient>
    <linearGradient
       inkscape:collect="always"
       xlink:href="#linearGradient9009-1-9"
       id="linearGradient9015-1-5"
       x1="1184"
       y1="-405.00003"
       x2="1184"
       y2="-533.03516"
       gradientUnits="userSpaceOnUse" />
    <linearGradient
       inkscape:collect="always"
       id="linearGradient9009-1-9">
      <stop
         style="stop-color:#ffffff;stop-opacity:1;"
         offset="0"
         id="stop9011-6-0" />
      <stop
         style="stop-color:#ffffff;stop-opacity:0;"
         offset="1"
         id="stop9013-9-3" />
    </linearGradient>
    <clipPath
       clipPathUnits="userSpaceOnUse"
       id="clipPath8573-0-1">
      <path
         sodipodi:type="arc"
         style="color:#000000;fill:#000000;fill-opacity:1;fill-rule:nonzero;stroke:none;stroke-width:4;marker:none;visibility:visible;display:inline;overflow:visible;enable-background:accumulate"
         id="path8575-7-3"
         sodipodi:cx="1236"
         sodipodi:cy="119"
         sodipodi:rx="110"
         sodipodi:ry="110"
         d="M 1126,118.99999 A 110,110 0 0 1 1346,119"
         transform="matrix(1.4545455,0,0,1.4545455,-611.81823,-534.09093)"
         sodipodi:start="3.1415927"
         sodipodi:end="6.2831853"
         sodipodi:open="true" />
    </clipPath>
    <linearGradient
       inkscape:collect="always"
       xlink:href="#linearGradient9009-1-9"
       id="linearGradient9023-5-2"
       gradientUnits="userSpaceOnUse"
       x1="1184"
       y1="-405.00003"
       x2="1184"
       y2="-533.03516" />
    <linearGradient
       inkscape:collect="always"
       xlink:href="#linearGradient9009-1-9"
       id="linearGradient9025-9-4"
       gradientUnits="userSpaceOnUse"
       x1="1184"
       y1="-405.00003"
       x2="1184"
       y2="-533.03516" />
    <linearGradient
       inkscape:collect="always"
       xlink:href="#linearGradient9009-1-9"
       id="linearGradient9027-7-3"
       gradientUnits="userSpaceOnUse"
       x1="1184"
       y1="-405.00003"
       x2="1184"
       y2="-533.03516" />
    <linearGradient
       inkscape:collect="always"
       xlink:href="#linearGradient9009-1-9"
       id="linearGradient9029-0-0"
       gradientUnits="userSpaceOnUse"
       x1="1184"
       y1="-405.00003"
       x2="1184"
       y2="-533.03516" />
    <linearGradient
       inkscape:collect="always"
       xlink:href="#linearGradient9009-1-9"
       id="linearGradient9031-3-0"
       gradientUnits="userSpaceOnUse"
       x1="1184"
       y1="-405.00003"
       x2="1184"
       y2="-533.03516" />
    <linearGradient
       inkscape:collect="always"
       xlink:href="#linearGradient9009-1-9"
       id="linearGradient9033-7-0"
       gradientUnits="userSpaceOnUse"
       x1="1184"
       y1="-405.00003"
       x2="1184"
       y2="-533.03516" />
    <linearGradient
       inkscape:collect="always"
       xlink:href="#linearGradient9009-1-9"
       id="linearGradient9035-5-1"
       gradientUnits="userSpaceOnUse"
       x1="1184"
       y1="-405.00003"
       x2="1184"
       y2="-533.03516" />
    <clipPath
       clipPathUnits="userSpaceOnUse"
       id="clipPath7691-1-5">
      <path
         sodipodi:open="true"
         sodipodi:end="6.2831853"
         sodipodi:start="3.1415927"
         transform="matrix(1.4545455,0,0,1.4545455,-622.81822,-83.09091)"
         d="M 1126,118.99999 A 110,110 0 0 1 1346,119"
         sodipodi:ry="110"
         sodipodi:rx="110"
         sodipodi:cy="119"
         sodipodi:cx="1236"
         id="path7693-7-8"
         style="color:#000000;fill:#c5c5d7;fill-opacity:1;fill-rule:nonzero;stroke:none;stroke-width:4;marker:none;visibility:visible;display:inline;overflow:visible;enable-background:accumulate"
         sodipodi:type="arc" />
    </clipPath>
    <clipPath
       clipPathUnits="userSpaceOnUse"
       id="clipPath7755-6-7">
      <path
         inkscape:connector-curvature="0"
         style="color:#000000;fill:#adadc6;fill-opacity:1;fill-rule:nonzero;stroke:none;stroke-width:4;marker:none;visibility:visible;display:inline;overflow:visible;enable-background:accumulate"
         d="m 1230.4688,792.26843 c 13.3096,49.6722 -20.4537,112.82556 -47.6876,150.09372 l 152.2188,0 c 0,-68.85715 -43.5157,-127.53233 -104.5312,-150.09372 z"
         id="path7757-0-7"
         sodipodi:nodetypes="cccc" />
    </clipPath>
    <linearGradient
       inkscape:collect="always"
       xlink:href="#linearGradient7767-2"
       id="linearGradient7773-0"
       x1="1225.6875"
       y1="36.5"
       x2="1225.6875"
       y2="119"
       gradientUnits="userSpaceOnUse" />
    <linearGradient
       id="linearGradient7767-2">
      <stop
         style="stop-color:#b2dbea;stop-opacity:1"
         offset="0"
         id="stop7769-1" />
      <stop
         style="stop-color:#7092ff;stop-opacity:1"
         offset="1"
         id="stop7771-5" />
    </linearGradient>
    <linearGradient
       inkscape:collect="always"
       xlink:href="#linearGradient9009-4"
       id="linearGradient9015-4"
       x1="1184"
       y1="-405.00003"
       x2="1184"
       y2="-533.03516"
       gradientUnits="userSpaceOnUse" />
    <linearGradient
       inkscape:collect="always"
       id="linearGradient9009-4">
      <stop
         style="stop-color:#ffffff;stop-opacity:1;"
         offset="0"
         id="stop9011-5" />
      <stop
         style="stop-color:#ffffff;stop-opacity:0;"
         offset="1"
         id="stop9013-7" />
    </linearGradient>
    <clipPath
       clipPathUnits="userSpaceOnUse"
       id="clipPath8573-8">
      <path
         sodipodi:type="arc"
         style="color:#000000;fill:#000000;fill-opacity:1;fill-rule:nonzero;stroke:none;stroke-width:4;marker:none;visibility:visible;display:inline;overflow:visible;enable-background:accumulate"
         id="path8575-5"
         sodipodi:cx="1236"
         sodipodi:cy="119"
         sodipodi:rx="110"
         sodipodi:ry="110"
         d="M 1126,118.99999 A 110,110 0 0 1 1346,119"
         transform="matrix(1.4545455,0,0,1.4545455,-611.81823,-534.09093)"
         sodipodi:start="3.1415927"
         sodipodi:end="6.2831853"
         sodipodi:open="true" />
    </clipPath>
    <linearGradient
       inkscape:collect="always"
       xlink:href="#linearGradient9009-4"
       id="linearGradient9021"
       gradientUnits="userSpaceOnUse"
       x1="1184"
       y1="-405.00003"
       x2="1184"
       y2="-533.03516" />
    <linearGradient
       inkscape:collect="always"
       xlink:href="#linearGradient9009-4"
       id="linearGradient9019"
       gradientUnits="userSpaceOnUse"
       x1="1184"
       y1="-405.00003"
       x2="1184"
       y2="-533.03516" />
    <linearGradient
       inkscape:collect="always"
       xlink:href="#linearGradient9009-4"
       id="linearGradient9023-3"
       gradientUnits="userSpaceOnUse"
       x1="1184"
       y1="-405.00003"
       x2="1184"
       y2="-533.03516" />
    <linearGradient
       inkscape:collect="always"
       xlink:href="#linearGradient9009-4"
       id="linearGradient9025-5"
       gradientUnits="userSpaceOnUse"
       x1="1184"
       y1="-405.00003"
       x2="1184"
       y2="-533.03516" />
    <linearGradient
       inkscape:collect="always"
       xlink:href="#linearGradient9009-4"
       id="linearGradient9027-5"
       gradientUnits="userSpaceOnUse"
       x1="1184"
       y1="-405.00003"
       x2="1184"
       y2="-533.03516" />
    <linearGradient
       inkscape:collect="always"
       xlink:href="#linearGradient9009-4"
       id="linearGradient9029-7"
       gradientUnits="userSpaceOnUse"
       x1="1184"
       y1="-405.00003"
       x2="1184"
       y2="-533.03516" />
    <linearGradient
       inkscape:collect="always"
       xlink:href="#linearGradient9009-4"
       id="linearGradient9031-7"
       gradientUnits="userSpaceOnUse"
       x1="1184"
       y1="-405.00003"
       x2="1184"
       y2="-533.03516" />
    <linearGradient
       inkscape:collect="always"
       xlink:href="#linearGradient9009-4"
       id="linearGradient9033-0"
       gradientUnits="userSpaceOnUse"
       x1="1184"
       y1="-405.00003"
       x2="1184"
       y2="-533.03516" />
    <linearGradient
       inkscape:collect="always"
       xlink:href="#linearGradient9009-4"
       id="linearGradient9035-1"
       gradientUnits="userSpaceOnUse"
       x1="1184"
       y1="-405.00003"
       x2="1184"
       y2="-533.03516" />
    <clipPath
       clipPathUnits="userSpaceOnUse"
       id="clipPath7691-3">
      <path
         sodipodi:open="true"
         sodipodi:end="6.2831853"
         sodipodi:start="3.1415927"
         transform="matrix(1.4545455,0,0,1.4545455,-622.81822,-83.09091)"
         d="M 1126,118.99999 A 110,110 0 0 1 1346,119"
         sodipodi:ry="110"
         sodipodi:rx="110"
         sodipodi:cy="119"
         sodipodi:cx="1236"
         id="path7693-5"
         style="color:#000000;fill:#c5c5d7;fill-opacity:1;fill-rule:nonzero;stroke:none;stroke-width:4;marker:none;visibility:visible;display:inline;overflow:visible;enable-background:accumulate"
         sodipodi:type="arc" />
    </clipPath>
    <filter
       inkscape:collect="always"
       id="filter7759-1"
       color-interpolation-filters="sRGB">
      <feGaussianBlur
         inkscape:collect="always"
         stdDeviation="5.8125"
         id="feGaussianBlur7761-6" />
    </filter>
    <linearGradient
       inkscape:collect="always"
       xlink:href="#linearGradient7872-3"
       id="linearGradient7878-19"
       x1="1097"
       y1="942.36218"
       x2="1097"
       y2="802.62952"
       gradientUnits="userSpaceOnUse"
       gradientTransform="translate(-790,-742.36218)" />
    <linearGradient
       inkscape:collect="always"
       id="linearGradient7872-3">
      <stop
         style="stop-color:#cbeea7;stop-opacity:1;"
         offset="0"
         id="stop7874-9" />
      <stop
         style="stop-color:#cee8c1;stop-opacity:1"
         offset="1"
         id="stop7876-7" />
    </linearGradient>
    <linearGradient
       inkscape:collect="always"
       xlink:href="#linearGradient7872-09"
       id="linearGradient7878-93"
       x1="1097"
       y1="942.36218"
       x2="1097"
       y2="802.62952"
       gradientUnits="userSpaceOnUse"
       gradientTransform="translate(30,0)" />
    <linearGradient
       inkscape:collect="always"
       id="linearGradient7872-09">
      <stop
         style="stop-color:#cbeea7;stop-opacity:1;"
         offset="0"
         id="stop7874-8" />
      <stop
         style="stop-color:#cee8c1;stop-opacity:1"
         offset="1"
         id="stop7876-9" />
    </linearGradient>
    <linearGradient
       inkscape:collect="always"
       xlink:href="#linearGradient7872-10-4"
       id="linearGradient7878-5-6"
       x1="1097"
       y1="942.36218"
       x2="1097"
       y2="802.62952"
       gradientUnits="userSpaceOnUse"
       gradientTransform="translate(30,0)" />
    <linearGradient
       inkscape:collect="always"
       id="linearGradient7872-10-4">
      <stop
         style="stop-color:#cbeea7;stop-opacity:1;"
         offset="0"
         id="stop7874-2-4" />
      <stop
         style="stop-color:#cee8c1;stop-opacity:1"
         offset="1"
         id="stop7876-5-1" />
    </linearGradient>
    <linearGradient
       inkscape:collect="always"
       xlink:href="#linearGradient7775-9"
       id="linearGradient7781-5"
       x1="1224.2188"
       y1="789.35889"
       x2="1224.2188"
       y2="942.36212"
       gradientUnits="userSpaceOnUse"
       gradientTransform="translate(30,0)" />
    <linearGradient
       inkscape:collect="always"
       id="linearGradient7775-9">
      <stop
         style="stop-color:#222222;stop-opacity:1"
         offset="0"
         id="stop7777-8" />
      <stop
         style="stop-color:#adadc6;stop-opacity:0;"
         offset="1"
         id="stop7779-49" />
    </linearGradient>
    <linearGradient
       y2="942.36212"
       x2="1224.2188"
       y1="789.35889"
       x1="1224.2188"
       gradientTransform="translate(30,0)"
       gradientUnits="userSpaceOnUse"
       id="linearGradient14425"
       xlink:href="#linearGradient7775-9"
       inkscape:collect="always" />
    <radialGradient
       inkscape:collect="always"
       xlink:href="#linearGradient14931"
       id="radialGradient14929"
       cx="1218.1995"
       cy="124.60332"
       fx="1218.1995"
       fy="124.60332"
       r="110"
       gradientTransform="matrix(8.9292362e-8,-1.09375,1.0937499,1.4609618e-6,1099.715,1451.4055)"
       gradientUnits="userSpaceOnUse" />
    <linearGradient
       id="linearGradient14931">
      <stop
         id="stop14933"
         offset="0"
         style="stop-color:#ccf1ff;stop-opacity:0;" />
      <stop
         style="stop-color:#ccf1ff;stop-opacity:0;"
         offset="0.85714281"
         id="stop14937" />
      <stop
         id="stop14935"
         offset="1"
         style="stop-color:#789afb;stop-opacity:1" />
    </linearGradient>
    <radialGradient
       r="110"
       fy="124.60332"
       fx="1218.1995"
       cy="124.60332"
       cx="1218.1995"
       gradientTransform="matrix(8.9292362e-8,-1.09375,1.0937499,1.4609618e-6,1099.715,1451.4055)"
       gradientUnits="userSpaceOnUse"
       id="radialGradient14955"
       xlink:href="#linearGradient14931"
       inkscape:collect="always" />
  </defs>
  <sodipodi:namedview
     id="base"
     pagecolor="#ffffff"
     bordercolor="#666666"
     borderopacity="1.0"
     inkscape:pageopacity="0.0"
     inkscape:pageshadow="2"
     inkscape:zoom="1.358502"
     inkscape:cx="165.00002"
     inkscape:cy="82.500008"
     inkscape:document-units="px"
     inkscape:current-layer="layer1"
     showgrid="false"
     inkscape:window-width="1524"
     inkscape:window-height="817"
     inkscape:window-x="72"
     inkscape:window-y="30"
     inkscape:window-maximized="0"
     borderlayer="false"
     inkscape:showpageshadow="false"
     inkscape:snap-bbox="true"
     showguides="true"
     inkscape:guide-bbox="true"
     inkscape:object-paths="false"
     inkscape:object-nodes="false"
     inkscape:snap-nodes="true"
     fit-margin-top="0"
     fit-margin-left="0"
     fit-margin-right="0"
     fit-margin-bottom="0">
    <inkscape:grid
       type="xygrid"
       id="grid4228"
       empspacing="5"
       visible="true"
       enabled="true"
       snapvisiblegridlinesonly="true"
       originx="-220.00005px"
       originy="-69.999979px" />
    <sodipodi:guide
       orientation="0,1"
       position="302.99995,409.00002"
       id="guide6331" />
  </sodipodi:namedview>
  <metadata
     id="metadata4141">
    <rdf:RDF>
      <cc:Work
         rdf:about="">
        <dc:format>image/svg+xml</dc:format>
        <dc:type
           rdf:resource="http://purl.org/dc/dcmitype/StillImage" />
        <dc:title></dc:title>
      </cc:Work>
    </rdf:RDF>
  </metadata>
  <g
     inkscape:label="Layer 1"
     inkscape:groupmode="layer"
     id="layer1"
     transform="translate(-1040,-777.36218)">
    <g
       transform="translate(-3.0000006e-6,5.0000006e-7)"
       id="g14241">
      <path
         sodipodi:open="true"
         sodipodi:end="6.2831853"
         sodipodi:start="3.1415927"
         transform="matrix(1.4545455,0,0,1.4545455,-592.81822,769.27127)"
         d="M 1126,118.99999 C 1126,58.248672 1175.2487,8.9999972 1236,9 c 60.7513,2.8e-6 110,49.248679 110,110"
         sodipodi:ry="110"
         sodipodi:rx="110"
         sodipodi:cy="119"
         sodipodi:cx="1236"
         id="path7176"
         style="color:#000000;fill:url(#linearGradient7773-0);fill-opacity:1;fill-rule:nonzero;stroke:none;stroke-width:4;marker:none;visibility:visible;display:inline;overflow:visible;enable-background:accumulate"
         sodipodi:type="arc" />
      <flowRoot
         clip-path="url(#clipPath8573-8)"
         transform="translate(19,1303.3622)"
         style="font-size:30px;font-style:normal;font-variant:normal;font-weight:bold;font-stretch:normal;text-indent:0;text-align:start;text-decoration:none;line-height:125%;letter-spacing:0px;word-spacing:0px;text-transform:none;direction:ltr;block-progression:tb;writing-mode:lr-tb;text-anchor:start;baseline-shift:baseline;opacity:0.25;color:#000000;fill:url(#linearGradient9015-4);fill-opacity:1;fill-rule:nonzero;stroke:none;stroke-width:4;marker:none;visibility:visible;display:inline;overflow:visible;enable-background:accumulate;font-family:Menlo;-inkscape-font-specification:Menlo Bold"
         id="flowRoot8523"
         xml:space="preserve"><flowRegion
           style="fill:url(#linearGradient9021);fill-opacity:1"
           id="flowRegion8525"><rect
             style="font-style:normal;font-variant:normal;font-weight:bold;font-stretch:normal;fill:url(#linearGradient9019);fill-opacity:1;stroke:none;font-family:Menlo;-inkscape-font-specification:Menlo Bold"
             y="-529"
             x="1021"
             height="303"
             width="580"
             id="rect8527" /></flowRegion><flowPara
           style="fill:url(#linearGradient9023-3);fill-opacity:1"
           id="flowPara8529">101010101010100011</flowPara><flowPara
           style="fill:url(#linearGradient9025-5);fill-opacity:1"
           id="flowPara8531">100010101010011010</flowPara><flowPara
           style="fill:url(#linearGradient9027-5);fill-opacity:1"
           id="flowPara8533">101010101001010110</flowPara><flowPara
           style="fill:url(#linearGradient9029-7);fill-opacity:1"
           id="flowPara8535">010111010101011010</flowPara><flowPara
           style="fill:url(#linearGradient9031-7);fill-opacity:1"
           id="flowPara8537">000101010000110001</flowPara><flowPara
           style="fill:url(#linearGradient9033-0);fill-opacity:1"
           id="flowPara8617">101010110010101101</flowPara><flowPara
           style="fill:url(#linearGradient9035-1);fill-opacity:1"
           id="flowPara8619">101010111010101011</flowPara></flowRoot>      <path
         sodipodi:nodetypes="cccccccccccccccccccccccccccccccccccccccccccccccccccccccccccccccccccccccccccccccccccccccccccccccscccccccccccccccccccccccccccccccccsccccccc"
         inkscape:connector-curvature="0"
         clip-path="url(#clipPath7691-3)"
         id="path7591"
         transform="translate(30,852.36218)"
         d="m 1174,-70 c -6.4317,0.0395 -12.7696,0.4728 -19,1.25 l 0,8.75 5,5 10,0 z m 40.25,4.84375 -0.031,0.15625 7.7812,9 5,0 3,-4 0,-0.28125 c -1.2872,-0.4713 -2.5726,-0.93607 -3.875,-1.375 -0.041,-0.0138 -0.084,-0.01755 -0.125,-0.03125 -1.2576,-0.42471 -2.5104,-0.82436 -3.7812,-1.21875 -1.1271,-0.34978 -2.2683,-0.70623 -3.4063,-1.03125 -0.1871,-0.0531 -0.3752,-0.10379 -0.5625,-0.15625 -1.079,-0.30374 -2.1607,-0.59432 -3.25,-0.875 -0.2478,-0.0638 -0.5017,-0.1249 -0.75,-0.1875 z m -95,5.15625 c -39.4401,14.6674 -71.5429,44.43079 -89.25,82.28125 L 1030,35 l 15,15 0,10 5,0 5,5 0,5 -5,5 0,15 105,0 -10,-10 -20,0 -5,-5 0,-5 -40,-25 -10,0 -10,10 -10,0 0,-15 -5,-5 5,-5 0,-5 -5,0 -10,0 10,-20 15,-5 0,15 5,0 5,-5 0,-10 25,-30 5,0 40,-15 0,-10 -5,-5 z m 91.75,5 6,8 7,0 -8,-8 z m 33.5,0.84375 -2.375,4.15625 -12.125,0 -5.7812,10 5.7812,10 -10,0.3125 -4.4375,4.6875 0,5 8.6563,5 10.7812,0 8.6562,-15 6.3438,0 10,8 1.3438,5 3.6562,0 0,-8 5,3 5,2 5,0 6,-6 -9,-10 -2.125,1 c -0.029,-0.0234 -0.064,-0.0392 -0.094,-0.0625 -0.3359,-0.26835 -0.6619,-0.54681 -1,-0.8125 -0.8033,-0.63134 -1.6219,-1.25882 -2.4374,-1.875 -0.2074,-0.1566 -0.417,-0.31314 -0.625,-0.46875 -0.9966,-0.74524 -1.9858,-1.46514 -3,-2.1875 -0.031,-0.0218 -0.063,-0.0408 -0.094,-0.0625 -0.1103,-0.0784 -0.2332,-0.14058 -0.3438,-0.21875 -0.9382,-0.66399 -1.8596,-1.35587 -2.8124,-2 -0.1442,-0.0974 -0.2931,-0.18434 -0.4376,-0.28125 -0.9169,-0.61558 -1.8508,-1.21555 -2.7812,-1.8125 -0.3292,-0.21107 -0.6691,-0.41628 -1,-0.625 -1.2672,-0.79993 -2.5216,-1.57877 -3.8125,-2.34375 -1.0622,-0.62947 -2.1409,-1.23835 -3.2187,-1.84375 -0.538,-0.302 -1.0834,-0.6103 -1.625,-0.90625 -0.1142,-0.0623 -0.2296,-0.12545 -0.3438,-0.1875 -0.9035,-0.49081 -1.8049,-0.9637 -2.7188,-1.4375 -1.3366,-0.69309 -2.6725,-1.3751 -4.0312,-2.03125 z M 1283,-30 l -3,10 5,5 10,0 0,10 -15,0 0,5 -10,0 -10,-10 -20,0 -5,0 -10,0 -5,5 0,10 -5,0 -10,20 0,5 5,5 0,15 20,20 20,0 5,-5 10,0 10,10 0,10 3.3438,5 56.6562,0 c 0,-44.18275 -17.9207,-84.17069 -46.875,-113.125 -0.6292,-0.62919 -1.2668,-1.25631 -1.9062,-1.875 z m -78,-20 3,5 5,0 -3,-5 z"
         style="opacity:0.25;color:#000000;fill:#222222;fill-opacity:1;fill-rule:nonzero;stroke:none;stroke-width:4;marker:none;visibility:visible;display:inline;overflow:visible;filter:url(#filter7759-1);enable-background:accumulate" />
      <path
         inkscape:connector-curvature="0"
         id="path7176-41"
         transform="translate(820,742.36218)"
         d="M 424.25,44.84375 424.21875,45 432,54 l 5,0 3,-4 0,-0.28125 c -1.2873,-0.4713 -2.5726,-0.93607 -3.875,-1.375 -0.041,-0.0138 -0.084,-0.01755 -0.125,-0.03125 -1.2576,-0.42471 -2.51045,-0.82436 -3.78125,-1.21875 -1.1271,-0.34978 -2.26825,-0.70623 -3.40625,-1.03125 -0.1871,-0.0531 -0.3752,-0.10379 -0.5625,-0.15625 -1.079,-0.30374 -2.1607,-0.59432 -3.25,-0.875 -0.2478,-0.0638 -0.5018,-0.1249 -0.75,-0.1875 z M 421,55 l 6,8 7,0 -8,-8 -5,0 z M 454.5,55.875 452.125,60 442.53125,60 440,60 434.21875,70 440,80 430,80.3125 425.5625,85 l 0,5 8.65625,5 7.34375,0 3.4375,0 8.65625,-15 6.34375,0 10,8 1.34375,5 3.65625,0 0,-8 5,3 5,2 5,0 5,5 10,0 0,10 -15,0 0,5 -10,0 -10,-10 -20,0 -5,0 -4.375,0 -5.625,0 -5,5 0,10 -5,0 -10,20 0,5 5,5 0,10.9375 0,4.0625 20,20 20,0 5,-5 10,0 10,10 0,10 3.34375,5 51.65625,0 5,0 c 0,-51.43766 -24.2837,-97.1986 -62,-126.46875 -0.1548,-0.11296 -0.32195,-0.23072 -0.46875,-0.34375 -0.018,-0.014 -0.0445,-0.01725 -0.0625,-0.03125 -0.7174,-0.55233 -1.42915,-1.11612 -2.15625,-1.65625 -0.053,-0.0397 -0.10255,-0.0854 -0.15625,-0.125 -0.06,-0.0444 -0.13,-0.0771 -0.1875,-0.125 -0.023,-0.0187 -0.0425,-0.0403 -0.0625,-0.0625 -0.023,-0.0174 -0.0395,-0.0451 -0.0625,-0.0625 -0.7324,-0.5397 -1.47745,-1.07211 -2.21875,-1.59375 -0.019,-0.0133 -0.0445,-0.01795 -0.0625,-0.03125 -0.7603,-0.5345 -1.51065,-1.06633 -2.28125,-1.59375 -0.8253,-0.56504 -1.6633,-1.10637 -2.5,-1.65625 -1.673,-1.09976 -3.37775,-2.18082 -5.09375,-3.21875 -0.858,-0.51897 -1.72545,-1.02804 -2.59375,-1.53125 -0.8686,-0.50321 -1.744,-1.0092 -2.625,-1.5 -0.8811,-0.49079 -1.76755,-0.96639 -2.65625,-1.4375 -0.8887,-0.47111 -1.75755,-0.92024 -2.65625,-1.375 C 456.27855,56.74322 455.387,56.3035 454.5,55.875 z M 415,60 l 3,5 5,0 -3,-5 -5,0 z"
         style="color:#000000;fill:url(#linearGradient7878-19);fill-opacity:1;fill-rule:nonzero;stroke:none;stroke-width:4;marker:none;visibility:visible;display:inline;overflow:visible;enable-background:accumulate" />
      <path
         id="path7176-3-8-6"
         d="m 1285,897.36218 -15,15 -20,0 10,10 20,0 5,-5 10,0 10,10 0,10 5,0 10,-10 15.9688,0 0,-15 -25.9688,-15 -25,0 z"
         style="opacity:0.15;color:#000000;fill:#9ed184;fill-opacity:1;fill-rule:nonzero;stroke:none;stroke-width:4;marker:none;visibility:visible;display:inline;overflow:visible;enable-background:accumulate"
         inkscape:connector-curvature="0" />
      <path
         sodipodi:nodetypes="ccccccccccccccccccccccccccccccccccccc"
         id="path7176-4"
         d="m 1149.25,792.36218 c -39.4401,14.6674 -71.5429,44.43079 -89.25,82.28125 l 0,12.71875 15,15 0,10 5,0 5,5 0,5 -5,5 0,15.00002 105,0 -10,-10.00002 -20,0 -5,-5 0,-5 -40,-25 -10,0 -10,10 -10,0 0,-15 -5,-5 5,-5 0,-5 -5,0 -10,0 10,-20 15,-5 0,15 5,0 5,-5 0,-10 25,-30 5,0 40,-15 0,-10 -5,-5 z"
         style="color:#000000;fill:url(#linearGradient7878-93);fill-opacity:1;fill-rule:nonzero;stroke:none;stroke-width:4;marker:none;visibility:visible;display:inline;overflow:visible;enable-background:accumulate"
         inkscape:connector-curvature="0" />
      <path
         id="path7176-9"
         d="m 1204,782.36218 c -6.4317,0.0395 -12.7696,0.4728 -19,1.25 l 0,8.75 5,5 10,0 4,-15 z"
         style="color:#000000;fill:url(#linearGradient7878-5-6);fill-opacity:1;fill-rule:nonzero;stroke:none;stroke-width:4;marker:none;visibility:visible;display:inline;overflow:visible;enable-background:accumulate"
         inkscape:connector-curvature="0" />
      <path
         sodipodi:nodetypes="cccccc"
         inkscape:connector-curvature="0"
         id="path9199"
         d="m 1100,927.36218 5,0 15,5 0,10 -30,0 z"
         style="opacity:0.15;color:#000000;fill:#9ed184;fill-opacity:1;fill-rule:nonzero;stroke:none;stroke-width:4;marker:none;visibility:visible;display:inline;overflow:visible;enable-background:accumulate" />
      <path
         id="path7176-4-2"
         d="m 1130,909.86218 0,7.5 10,5 0,10 -10,10 55,0 -10,-10 -20,0 -5,-5 0,-5 -20,-12.5 z"
         style="opacity:0.15;color:#000000;fill:#9ed184;fill-opacity:1;fill-rule:nonzero;stroke:none;stroke-width:4;marker:none;visibility:visible;display:inline;overflow:visible;enable-background:accumulate"
         inkscape:connector-curvature="0" />
      <path
         id="path7176-4-7"
         d="m 1149.25,792.36218 c -5.8774,2.18576 -11.5968,4.72945 -17.125,7.5625 l 12.875,7.4375 0,9.375 25,-9.375 0,-10 -5,-5 -15.75,0 z"
         style="opacity:0.15;color:#000000;fill:#9ed184;fill-opacity:1;fill-rule:nonzero;stroke:none;stroke-width:4;marker:none;visibility:visible;display:inline;overflow:visible;enable-background:accumulate"
         inkscape:connector-curvature="0" />
      <path
         id="path7176-4-76"
         d="m 1115,810.08093 c -13.1826,8.9817 -24.9493,19.86488 -34.9063,32.28125 l 14.9063,0 20,-20 0,-12.28125 z"
         style="opacity:0.15;color:#000000;fill:#9ed184;fill-opacity:1;fill-rule:nonzero;stroke:none;stroke-width:4;marker:none;visibility:visible;display:inline;overflow:visible;enable-background:accumulate"
         inkscape:connector-curvature="0" />
      <path
         sodipodi:nodetypes="cccc"
         id="path7176-2"
         d="m 1260.4688,792.26843 c 13.3096,49.6722 -0.4537,112.82556 -27.6876,150.09372 l 132.2188,0 c 0,-68.85715 -43.5157,-127.53233 -104.5312,-150.09372 z"
         style="opacity:0.25;color:#000000;fill:url(#linearGradient14425);fill-opacity:1;fill-rule:nonzero;stroke:none;stroke-width:4;marker:none;visibility:visible;display:inline;overflow:visible;enable-background:accumulate"
         inkscape:connector-curvature="0" />
    </g>
    <path
       inkscape:connector-curvature="0"
       style="opacity:0.15;color:#000000;fill:#9ed184;fill-opacity:1;fill-rule:nonzero;stroke:none;stroke-width:4;marker:none;visibility:visible;display:inline;overflow:visible;enable-background:accumulate"
       d="m 1205,897.36218 -15,15 -20,0 10,10 20,0 5,-5 10,0 10,10 0,10 5,0 10,-10 15.9688,0 0,-15 -25.9688,-15 -25,0 z"
       id="path7176-3-8" />
    <path
       style="opacity:0.5;color:#000000;fill:none;stroke:#222222;stroke-width:4;stroke-linecap:round;stroke-linejoin:round;stroke-miterlimit:4;stroke-opacity:1;stroke-dasharray:none;stroke-dashoffset:0;marker:none;visibility:visible;display:inline;overflow:visible;enable-background:accumulate"
       d="m 1142,882.36218 c 0,0 3,2 8,2 5,0 8,-2 8,-2"
       id="path8488"
       inkscape:connector-curvature="0"
       sodipodi:nodetypes="csc" />
    <path
       transform="matrix(2,0,0,2,-1441,832.36218)"
       d="m 1305,17.5 c 0,1.380712 -1.1193,2.5 -2.5,2.5 -1.3807,0 -2.5,-1.119288 -2.5,-2.5 0,-1.380712 1.1193,-2.5 2.5,-2.5 1.3807,0 2.5,1.119288 2.5,2.5 z"
       sodipodi:ry="2.5"
       sodipodi:rx="2.5"
       sodipodi:cy="17.5"
       sodipodi:cx="1302.5"
       id="path8131-0"
       style="opacity:0.5;color:#000000;fill:#222222;fill-opacity:1;stroke:none;stroke-width:8;marker:none;visibility:visible;display:inline;overflow:visible;enable-background:accumulate"
       sodipodi:type="arc" />
    <path
       transform="matrix(2,0,0,2,-1467,832.36218)"
       d="m 1305,17.5 c 0,1.380712 -1.1193,2.5 -2.5,2.5 -1.3807,0 -2.5,-1.119288 -2.5,-2.5 0,-1.380712 1.1193,-2.5 2.5,-2.5 1.3807,0 2.5,1.119288 2.5,2.5 z"
       sodipodi:ry="2.5"
       sodipodi:rx="2.5"
       sodipodi:cy="17.5"
       sodipodi:cx="1302.5"
       id="path8157-4"
       style="opacity:0.5;color:#000000;fill:#222222;fill-opacity:1;stroke:none;stroke-width:8;marker:none;visibility:visible;display:inline;overflow:visible;enable-background:accumulate"
       sodipodi:type="arc" />
    <path
       sodipodi:open="true"
       sodipodi:end="6.2831853"
       sodipodi:start="3.1415927"
       transform="matrix(1.5000002,0,0,1.5,-649.00018,763.86218)"
       d="M 1126,118.99999 C 1126,58.248672 1175.2487,8.9999972 1236,9 c 60.7513,2.8e-6 110,49.248679 110,110"
       sodipodi:ry="110"
       sodipodi:rx="110"
       sodipodi:cy="119"
       sodipodi:cx="1236"
       id="path7176-1"
       style="color:#000000;fill:url(#radialGradient14955);fill-opacity:1;fill-rule:nonzero;stroke:none;stroke-width:4;marker:none;visibility:visible;display:inline;overflow:visible;enable-background:accumulate"
       sodipodi:type="arc" />
  </g>
  <g
     inkscape:groupmode="layer"
     id="layer2"
     inkscape:label="blahh"
     style="display:none"
     sodipodi:insensitive="true"
     transform="translate(-1040,75)">
    <image
       y="-104.56463"
       x="967.5"
       id="image7297"
       xlink:href="file:///Users/saman/Desktop/Screen%20Shot%202013-07-30%20at%204.21.02%20PM.png"
       height="361.12924"
       width="381"
       style="opacity:0.25" />
  </g>
</svg>
