<svg width="44" height="44" viewBox="0 0 44 44" xmlns="http://www.w3.org/2000/svg" fill="currentColor" class="apple-logo">
  <rect width="44" height="44" />
  <path d="M22.2227 14.3846C23.0547 14.3846 24.0977 13.8048 24.7188 13.0318 25.2813 12.3312 25.6914 11.3528 25.6914 10.3744 25.6914 10.2416 25.6797 10.1087 25.6563 10 24.7305 10.0362 23.6172 10.6402 22.9492 11.4495 22.4219 12.0655 21.9414 13.0318 21.9414 14.0223 21.9414 14.1672 21.9648 14.3121 21.9766 14.3605 22.0352 14.3725 22.1289 14.3846 22.2227 14.3846ZM19.293 29C20.4297 29 20.9336 28.2149 22.3516 28.2149 23.793 28.2149 24.1094 28.9758 25.375 28.9758 26.6172 28.9758 27.4492 27.7921 28.2344 26.6325 29.1133 25.3039 29.4766 23.9994 29.5 23.939 29.418 23.9148 27.0391 22.9123 27.0391 20.0979 27.0391 17.658 28.9141 16.5588 29.0195 16.4743 27.7773 14.6383 25.8906 14.59 25.375 14.59 23.9805 14.59 22.8438 15.4596 22.1289 15.4596 21.3555 15.4596 20.3359 14.6383 19.1289 14.6383 16.832 14.6383 14.5 16.595 14.5 20.2912 14.5 22.5861 15.3672 25.014 16.4336 26.5842 17.3477 27.9129 18.1445 29 19.293 29Z"/>
</svg>