<svg xmlns="http://www.w3.org/2000/svg" width="36" height="36" viewBox="0 0 36 36"><defs><style>.a{fill:#191717;}.b{fill:#fff;fill-rule:evenodd;}</style></defs><rect class="a" width="36" height="36"/><path class="b" d="M18,4a14,14,0,0,0-4.41,27.23c.7.13.93-.3.93-.66V28.23c-3.88.85-4.66-1.86-4.66-1.86a3.78,3.78,0,0,0-1.57-2.05c-1.26-.87.11-.85.11-.85a2.92,2.92,0,0,1,2.13,1.45,3,3,0,0,0,4,1.17h0a3,3,0,0,1,.89-1.87c-3.11-.35-6.37-1.55-6.37-6.91a5.43,5.43,0,0,1,1.43-3.72,5.06,5.06,0,0,1,.14-3.73s1.17-.37,3.85,1.43a13.2,13.2,0,0,1,7,0c2.67-1.85,3.85-1.46,3.85-1.46a5.09,5.09,0,0,1,.14,3.74,5.44,5.44,0,0,1,1.44,3.72c0,5.36-3.28,6.52-6.38,6.89a3.37,3.37,0,0,1,.94,2.56v3.83c0,.45.26.81.93.67A14,14,0,0,0,18,4Z"/></svg>