<svg xmlns="http://www.w3.org/2000/svg" xmlns:xlink="http://www.w3.org/1999/xlink" width="256" height="256">
  <style><![CDATA[.B{opacity:.387}.C{fill:#ceeeab}.D{fill-opacity:1}.E{stroke:none}.F{fill:none}.G{stroke-linejoin:round}.H{stroke-linecap:round}.I{stroke:#6d7f42}.J{opacity:.039}.K{fill:#2d3335}]]></style>
  <defs>
    <linearGradient id="A" xlink:href="#As">
      <stop offset="0"/>
      <stop offset="1" stop-opacity="0"/>
    </linearGradient>
    <linearGradient xlink:href="#C" id="B" x1="94.25" y1="-94.672" x2="9" y2="-179.969"/>
    <linearGradient id="C" xlink:href="#As">
      <stop offset="0"/>
      <stop offset="1" stop-opacity="0"/>
    </linearGradient>
    <linearGradient xlink:href="#C" id="D" x1="50.75" y1="-114.437" x2="35.75" y2="-30.437"/>
    <linearGradient xlink:href="#C" id="E" x1="77.625" y1="-163.125" x2="115.25" y2="-74.625"/>
    <linearGradient xlink:href="#C" id="F" x1="56.5" y1="-50.437" x2="125.719" y2="7.063"/>
    <linearGradient xlink:href="#C" id="G" x1="35" y1="-163.297" x2="180.75" y2="-146.797"/>
    <linearGradient xlink:href="#C" id="H" x1="57" y1="-141.109" x2="179" y2="-41.609"/>
    <linearGradient xlink:href="#C" id="I" x1="156" y1="-26.5" x2="208.25" y2="39.75"/>
    <linearGradient xlink:href="#C" id="J" x1="142.75" y1="-169.297" x2="235" y2="-77.297"/>
    <linearGradient xlink:href="#L" id="K" x1="214.25" y1="-161.359" x2="166.5" y2="-113.719"/>
    <linearGradient id="L" xlink:href="#As">
      <stop offset="0" stop-color="#fff"/>
      <stop offset="1" stop-color="#fff" stop-opacity="0"/>
    </linearGradient>
    <linearGradient xlink:href="#L" id="M" x1="53.25" y1="-126.5" x2="57.656" y2="-62.469"/>
    <linearGradient xlink:href="#L" id="N" x1="39.5" y1="6.625" x2="75.719" y2="-17.125"/>
    <linearGradient xlink:href="#L" id="O" x1="102" y1="-162.344" x2="85.313" y2="-121.437"/>
    <linearGradient xlink:href="#L" id="P" x1="117.75" y1="-78.094" x2="63.5" y2="-14.75"/>
    <linearGradient xlink:href="#L" id="Q" x1="180.687" y1="-125.125" x2="133.937" y2="-60.75"/>
    <linearGradient xlink:href="#L" id="R" x1="170.75" y1="-23.5" x2="130.219" y2="33.375"/>
    <linearGradient y2="-5.656" x2="181.75" y1="-76" x1="213.5" id="S" xlink:href="#L"/>
    <linearGradient xlink:href="#A" id="T" x1="210.172" y1="62.064" x2="9" y2="-223.253"/>
    <clipPath id="U">
      <path d="M9 12.25s7.5 13 11.75 27.75S27 65.5 27 65.5s-5.5 12.75-8.25 24.75-5.75 23-5.75 23 5.75 16 9.25 30S26 167.5 26 167.5s-4 10.25-7.5 24.25-5 30.75-5 30.75 9.25-2 28.5 1.25 32.25 6 32.25 6 12.75-2.75 24-6.25 16.25-6.5 16.25-6.5 5.5.5 22.5 6.25 29.25 8.5 29.25 8.5l26-5.75c13-3 26.5-8 26.5-8s-.75-5 4.25-24.5 8.75-28 8.75-28-.5-4.5-3.75-19.75S218 116 218 116s1.75-10.5 6.75-23.75L235 65.5s-4.75-15.25-7.5-29.75S219.25 10 219.25 10 195 19 187.5 20.5s-21 5.25-21 5.25-9.75-4.25-22-8.5-29.75-5.5-29.75-5.5-3.25 3.5-22 8-27.5 5.75-27.5 5.75-18.5-9-31.5-11.5-24-2-24.75-1.75z" class="C D E"/>
    </clipPath>
    <clipPath id="V">
      <path d="M9 12.25s7.5 13 11.75 27.75S27 65.5 27 65.5s-5.5 12.75-8.25 24.75-5.75 23-5.75 23 5.75 16 9.25 30S26 167.5 26 167.5s-4 10.25-7.5 24.25-5 30.75-5 30.75 9.25-2 28.5 1.25 32.25 6 32.25 6 12.75-2.75 24-6.25 16.25-6.5 16.25-6.5 5.5.5 22.5 6.25 29.25 8.5 29.25 8.5l26-5.75c13-3 26.5-8 26.5-8s-.75-5 4.25-24.5 8.75-28 8.75-28-.5-4.5-3.75-19.75S218 116 218 116s1.75-10.5 6.75-23.75L235 65.5s-4.75-15.25-7.5-29.75S219.25 10 219.25 10 195 19 187.5 20.5s-21 5.25-21 5.25-9.75-4.25-22-8.5-29.75-5.5-29.75-5.5-3.25 3.5-22 8-27.5 5.75-27.5 5.75-18.5-9-31.5-11.5-24-2-24.75-1.75z" class="C D E"/>
    </clipPath>
    <clipPath id="W">
      <path d="M9 12.25s7.5 13 11.75 27.75S27 65.5 27 65.5s-5.5 12.75-8.25 24.75-5.75 23-5.75 23 5.75 16 9.25 30S26 167.5 26 167.5s-4 10.25-7.5 24.25-5 30.75-5 30.75 9.25-2 28.5 1.25 32.25 6 32.25 6 12.75-2.75 24-6.25 16.25-6.5 16.25-6.5 5.5.5 22.5 6.25 29.25 8.5 29.25 8.5l26-5.75c13-3 26.5-8 26.5-8s-.75-5 4.25-24.5 8.75-28 8.75-28-.5-4.5-3.75-19.75S218 116 218 116s1.75-10.5 6.75-23.75L235 65.5s-4.75-15.25-7.5-29.75S219.25 10 219.25 10 195 19 187.5 20.5s-21 5.25-21 5.25-9.75-4.25-22-8.5-29.75-5.5-29.75-5.5-3.25 3.5-22 8-27.5 5.75-27.5 5.75-18.5-9-31.5-11.5-24-2-24.75-1.75z" class="C D E"/>
    </clipPath>
    <linearGradient id="X" xlink:href="#As">
      <stop offset="0" stop-color="#2d3335"/>
      <stop offset=".5" stop-color="#4c464a"/>
      <stop offset="1" stop-color="#384042"/>
    </linearGradient>
    <linearGradient id="Y" x1="1.538" y1="242.464" x2="17.286" y2="258.212" xlink:href="#As">
      <stop offset="0" stop-color="#f9e295"/>
      <stop offset=".125" stop-color="#f7dd84"/>
      <stop offset=".206" stop-color="#fff"/>
      <stop offset=".301" stop-color="#f4ce51"/>
      <stop offset=".341" stop-color="#f9e7aa"/>
      <stop offset="1" stop-color="#efbb0e"/>
    </linearGradient>
    <linearGradient id="Z" gradientTransform="matrix(-1.9685436,-1.9685436,-1.742074,1.742074,596.18632,167.51089)" x1="123" y1="150.375" x2="133" y2="150.375" xlink:href="#As">
      <stop offset="0" stop-color="#2d3335"/>
      <stop offset=".5" stop-color="#4c464a"/>
      <stop offset="1" stop-color="#384042"/>
    </linearGradient>
    <linearGradient id="a" x1="67.484" y1="176.517" x2="83.233" y2="192.266" xlink:href="#As">
      <stop offset="0" stop-color="#f9e295"/>
      <stop offset=".125" stop-color="#f7dd84"/>
      <stop offset=".206" stop-color="#fff"/>
      <stop offset=".301" stop-color="#f4ce51"/>
      <stop offset=".341" stop-color="#f9e7aa"/>
      <stop offset="1" stop-color="#efbb0e"/>
    </linearGradient>
    <linearGradient xlink:href="#X" id="b" gradientTransform="matrix(-0.98427179,-0.98427179,-0.98427179,0.98427179,384.91194,126.81168)" x1="123" y1="150.375" x2="133" y2="150.375"/>
    <linearGradient xlink:href="#X" id="c" x1="126.679" y1="133.071" x2="120.65" y2="144.759"/>
    <radialGradient id="d" gradientTransform="matrix(1.005214,1.0052137,1.0052137,-1.005214,-40.83796,43.253296)" cx="128" cy="86" fx="128" fy="86" r="47" xlink:href="#As">
      <stop offset="0" stop-color="#d0e9f2" stop-opacity="0"/>
      <stop offset=".839" stop-color="#d0e9f2" stop-opacity="0"/>
      <stop offset=".943" stop-color="#d0e9f2" stop-opacity=".282"/>
      <stop offset="1" stop-color="#d0e9f2"/>
    </radialGradient>
    <linearGradient y2="150.375" x2="133" y1="167.727" x1="108.003" gradientTransform="matrix(-1.9685436,-1.9685436,-1.742074,1.742074,596.18632,167.51089)" id="e" xlink:href="#A"/>
    <radialGradient id="f" cx="159.613" cy="72.588" fx="159.613" fy="72.588" r="38.417" gradientTransform="matrix(1.2124778,0,0,0.83914635,-46.348455,24.528408)" xlink:href="#As">
      <stop offset="0" stop-color="#fff"/>
      <stop offset=".5" stop-color="#fff" stop-opacity=".931"/>
      <stop offset="1" stop-color="#fff" stop-opacity="0"/>
    </radialGradient>
    <radialGradient r="38.417" fy="72.588" fx="159.613" cy="72.588" cx="159.613" gradientTransform="matrix(1.2124778,0,0,0.83914635,-45.919787,25.814437)" id="g" xlink:href="#As">
      <stop offset="0" stop-color="#fff"/>
      <stop offset="1" stop-color="#fff" stop-opacity="0"/>
    </radialGradient>
    <linearGradient id="h" x1="126.643" y1="19.815" x2="179.961" y2="127.196" xlink:href="#As">
      <stop offset="0" stop-color="#fff"/>
      <stop offset="1" stop-color="#fff" stop-opacity="0"/>
    </linearGradient>
    <linearGradient gradientTransform="matrix(-0.50295302,0.19839946,0.19720153,-0.43253662,276.15635,123.41729)" y2="137.196" x2="179.961" y1="29.815" x1="126.643" id="i" xlink:href="#As">
      <stop offset="0" stop-color="#fff"/>
      <stop offset="1" stop-color="#fff" stop-opacity="0"/>
    </linearGradient>
    <filter id="j" x="-.048" y="-.048" width="1.096" height="1.096">
      <feGaussianBlur stdDeviation="4.287"/>
    </filter>
    <clipPath id="k">
      <path d="M9 12.25s7.5 13 11.75 27.75S27 65.5 27 65.5s-5.5 12.75-8.25 24.75-5.75 23-5.75 23 5.75 16 9.25 30S26 167.5 26 167.5s-4 10.25-7.5 24.25-5 30.75-5 30.75 9.25-2 28.5 1.25 32.25 6 32.25 6 12.75-2.75 24-6.25 16.25-6.5 16.25-6.5 5.5.5 22.5 6.25 29.25 8.5 29.25 8.5l26-5.75c13-3 26.5-8 26.5-8s-.75-5 4.25-24.5 8.75-28 8.75-28-.5-4.5-3.75-19.75S218 116 218 116s1.75-10.5 6.75-23.75L235 65.5s-4.75-15.25-7.5-29.75S219.25 10 219.25 10 195 19 187.5 20.5s-21 5.25-21 5.25-9.75-4.25-22-8.5-29.75-5.5-29.75-5.5-3.25 3.5-22 8-27.5 5.75-27.5 5.75-18.5-9-31.5-11.5-24-2-24.75-1.75z" class="C D E"/>
    </clipPath>
    <clipPath id="l">
      <path d="M9 12.25s7.5 13 11.75 27.75S27 65.5 27 65.5s-5.5 12.75-8.25 24.75-5.75 23-5.75 23 5.75 16 9.25 30S26 167.5 26 167.5s-4 10.25-7.5 24.25-5 30.75-5 30.75 9.25-2 28.5 1.25 32.25 6 32.25 6 12.75-2.75 24-6.25 16.25-6.5 16.25-6.5 5.5.5 22.5 6.25 29.25 8.5 29.25 8.5l26-5.75c13-3 26.5-8 26.5-8s-.75-5 4.25-24.5 8.75-28 8.75-28-.5-4.5-3.75-19.75S218 116 218 116s1.75-10.5 6.75-23.75L235 65.5s-4.75-15.25-7.5-29.75S219.25 10 219.25 10 195 19 187.5 20.5s-21 5.25-21 5.25-9.75-4.25-22-8.5-29.75-5.5-29.75-5.5-3.25 3.5-22 8-27.5 5.75-27.5 5.75-18.5-9-31.5-11.5-24-2-24.75-1.75z" class="C D E"/>
    </clipPath>
    <clipPath id="m">
      <path d="M9 12.25s7.5 13 11.75 27.75S27 65.5 27 65.5s-5.5 12.75-8.25 24.75-5.75 23-5.75 23 5.75 16 9.25 30S26 167.5 26 167.5s-4 10.25-7.5 24.25-5 30.75-5 30.75 9.25-2 28.5 1.25 32.25 6 32.25 6 12.75-2.75 24-6.25 16.25-6.5 16.25-6.5 5.5.5 22.5 6.25 29.25 8.5 29.25 8.5l26-5.75c13-3 26.5-8 26.5-8s-.75-5 4.25-24.5 8.75-28 8.75-28-.5-4.5-3.75-19.75S218 116 218 116s1.75-10.5 6.75-23.75L235 65.5s-4.75-15.25-7.5-29.75S219.25 10 219.25 10 195 19 187.5 20.5s-21 5.25-21 5.25-9.75-4.25-22-8.5-29.75-5.5-29.75-5.5-3.25 3.5-22 8-27.5 5.75-27.5 5.75-18.5-9-31.5-11.5-24-2-24.75-1.75z" class="C D E"/>
    </clipPath>
    <linearGradient id="n" x1="210.172" y1="264.064" x2="9" y2="-21.253" xlink:href="#As">
      <stop offset="0"/>
      <stop offset="1" stop-opacity="0"/>
    </linearGradient>
    <linearGradient xlink:href="#p" id="o" x1="214.25" y1="-161.359" x2="166.5" y2="-113.719"/>
    <linearGradient id="p" xlink:href="#As">
      <stop offset="0" stop-color="#fff"/>
      <stop offset="1" stop-color="#fff" stop-opacity="0"/>
    </linearGradient>
    <linearGradient xlink:href="#p" id="q" x1="53.25" y1="-126.5" x2="57.656" y2="-62.469"/>
    <linearGradient xlink:href="#p" id="r" x1="39.5" y1="6.625" x2="75.719" y2="-17.125"/>
    <linearGradient xlink:href="#p" id="s" x1="102" y1="-162.344" x2="85.313" y2="-121.437"/>
    <linearGradient xlink:href="#p" id="t" x1="117.75" y1="-78.094" x2="63.5" y2="-14.75"/>
    <linearGradient xlink:href="#p" id="u" x1="180.687" y1="-125.125" x2="133.937" y2="-60.75"/>
    <linearGradient xlink:href="#p" id="v" x1="170.75" y1="-23.5" x2="130.219" y2="33.375"/>
    <linearGradient y2="-5.656" x2="181.75" y1="-76" x1="213.5" id="w" xlink:href="#p"/>
    <linearGradient xlink:href="#y" id="x" x1="94.25" y1="-94.672" x2="9" y2="-179.969"/>
    <linearGradient id="y" xlink:href="#As">
      <stop offset="0"/>
      <stop offset="1" stop-opacity="0"/>
    </linearGradient>
    <linearGradient xlink:href="#y" id="z" x1="50.75" y1="-114.437" x2="35.75" y2="-30.437"/>
    <linearGradient xlink:href="#y" id="AA" x1="77.625" y1="-163.125" x2="115.25" y2="-74.625"/>
    <linearGradient xlink:href="#y" id="AB" x1="56.5" y1="-50.437" x2="125.719" y2="7.063"/>
    <linearGradient xlink:href="#y" id="AC" x1="35" y1="-163.297" x2="180.75" y2="-146.797"/>
    <linearGradient xlink:href="#y" id="AD" x1="57" y1="-141.109" x2="179" y2="-41.609"/>
    <linearGradient xlink:href="#y" id="AE" x1="156" y1="-26.5" x2="208.25" y2="39.75"/>
    <linearGradient xlink:href="#y" id="AF" x1="142.75" y1="-169.297" x2="235" y2="-77.297"/>
    <clipPath id="AG">
      <path d="M123.623 141.062c20.832 20.243 54.607 19.289 75.439-2.132s20.832-55.196 0-75.439-54.607-19.289-75.439 2.132-20.832 55.196 0 75.439z" fill="url(#AH)" class="D E"/>
    </clipPath>
    <radialGradient id="AH" gradientTransform="matrix(0.80254238,0.77986154,0.80254238,-0.82522321,-10.401684,73.423363)" cx="128" cy="86" fx="128" fy="86" r="47" xlink:href="#As">
      <stop offset="0" stop-color="#d0e9f2" stop-opacity="0"/>
      <stop offset=".839" stop-color="#d0e9f2" stop-opacity="0"/>
      <stop offset=".943" stop-color="#d0e9f2" stop-opacity=".282"/>
      <stop offset="1" stop-color="#d0e9f2"/>
    </radialGradient>
    <filter id="AI" x="-.071" y="-.071" width="1.141" height="1.141">
      <feGaussianBlur stdDeviation="6.311"/>
    </filter>
    <filter id="AJ" x="-.047" y="-.049" width="1.095" height="1.097">
      <feGaussianBlur stdDeviation="4.458"/>
    </filter>
    <linearGradient id="AK" x1="122" y1="245.448" x2="122" y2="4.302" xlink:href="#As">
      <stop offset="0"/>
      <stop offset="1" stop-opacity="0"/>
    </linearGradient>
    <clipPath id="AL">
      <path d="M9 22.578s7.5 12.393 11.75 26.8S27 74.373 27 74.373s-5.5 13.195-8.25 25.417S13 123.255 13 123.255s5.75 15.535 9.25 29.252S26 176.453 26 176.453s-4 10.574-7.5 24.857-5 31.154-5 31.154 9.25-2.748 28.5-1.055 32.25 3.392 32.25 3.392 12.75-3.781 24-8.191 16.25-7.814 16.25-7.814 5.5.055 22.5 4.43 29.25 6.134 29.25 6.134l26-7.853c13-4.051 26.5-10.143 26.5-10.143s-.75-4.939 4.25-24.844 8.75-28.708 8.75-28.708-.514-4.455-3.75-19.447c-1.75-8.108-2.25-4.068-2.25-4.068s16.264-26.155 16.5-40.334C242.5 78.943 235 57.55 235 57.55s-4.75-14.866-7.5-29.143-8.25-25.083-8.25-25.083S195 14.285 187.5 16.392s-21 6.948-21 6.948-9.75-3.461-22-6.721-29.75-3.094-29.75-3.094-3.25 3.763-22 9.779-27.5 7.974-27.5 7.974-18.5-7.504-31.5-8.952-24-.059-24.75.252z" fill="url(#AM)" class="D E J"/>
    </clipPath>
    <linearGradient id="AM" x1="210.172" y1="258.122" x2="9" y2="-10.925" xlink:href="#As">
      <stop offset="0"/>
      <stop offset="1" stop-opacity="0"/>
    </linearGradient>
    <path id="AN"
          d="M174.281 35.875c-17.599 0-35.192 6.639-48.719 19.906-.167.163-.334.303-.5.469-22.056 22.056-26.209 55.251-12.469 81.5l-2.281 1.625a72.07 72.07 0 0 0 8.094 12.125l-13.312 13.344c-1.341-.586-2.789-1.033-4.562-1.375l-2.844 2.844c-1.109-.484-2.138-.816-3.062-.875L30.5 229.563c-.037 1.101.226 2.187.656 3.281l-.531.531-1.094 1.094c.715 3.738 2.01 6.823 5.469 10.281s6.42 4.63 10.281 5.469l1.094-1.094.719-.719c1.088.462 2.13.786 3.094.844l64.125-64.125c-.243-.975-.62-1.935-1.031-2.906l3-3c-.25-1.732-.677-3.198-1.312-4.594l13.281-13.281a72.07 72.07 0 0 0 12.125 8.094l1.625-2.281c26.249 13.74 59.444 9.587 81.5-12.469.166-.166.305-.333.469-.5 26.694-27.217 26.549-70.92-.469-97.937-13.59-13.59-31.407-20.375-49.219-20.375zm-.5 3.281h.313c.949.018 1.895.065 2.844.125a65.85 65.85 0 0 1 2.875.25l.281.031.281.031c.146.017.292.045.438.063.896.11 1.795.228 2.688.375.619.102 1.227.224 1.844.344l1.031.188c.724.152 1.436.323 2.156.5l.938.219c.073.019.146.043.219.063.956.253 1.897.516 2.844.813.072.023.146.04.219.063a67.71 67.71 0 0 1 2.844.969c.053.019.103.043.156.063.955.352 1.902.728 2.844 1.125.052.022.105.041.156.063.942.4 1.885.836 2.813 1.281.042.02.083.042.125.063.935.451 1.862.91 2.781 1.406.033.018.061.045.094.063.927.503 1.841 1.013 2.75 1.563.032.019.062.043.094.063a68.23 68.23 0 0 1 2.688 1.719c.549.369 1.084.77 1.625 1.156l1.094.781c.019.014.044.017.063.031.878.655 1.74 1.36 2.594 2.063a70.63 70.63 0 0 1 5.063 4.594 70.62 70.62 0 0 1 4.563 5.031c.009.011.022.02.031.031.703.854 1.407 1.715 2.063 2.594.283.379.539.773.813 1.156l1.094 1.563c.016.024.046.038.063.063.598.89 1.167 1.778 1.719 2.688.019.032.043.062.063.094.546.903 1.063 1.829 1.563 2.75.018.033.045.061.063.094.498.921.954 1.844 1.406 2.781.02.042.042.083.063.125.446.93.88 1.868 1.281 2.813.022.051.041.105.063.156A67.98 67.98 0 0 1 236.5 84c.019.053.043.104.063.156.348.948.666 1.885.969 2.844.023.072.04.147.063.219.294.941.561 1.894.813 2.844.019.074.043.145.063.219.081.31.143.627.219.938l.5 2.156c.072.342.121.688.188 1.031l.344 1.844c.147.893.265 1.791.375 2.688.018.146.046.291.063.438l.031.281.031.281c.102.956.19 1.917.25 2.875.059.942.107 1.9.125 2.844.002.104-.002.208 0 .313.015 1.053.004 2.104-.031 3.156-.032.931-.085 1.853-.156 2.781l-.031.375c-.076.918-.166 1.835-.281 2.75a65.2 65.2 0 0 1-.437 2.875c-.014.082-.017.168-.031.25l-.062.375c-.165.908-.358 1.817-.562 2.719l-.094.406c-.208.889-.441 1.775-.687 2.656-.164.587-.35 1.167-.531 1.75l-.531 1.688a63.25 63.25 0 0 1-.937 2.563l-.187.469c-.045.112-.08.231-.125.344a62.9 62.9 0 0 1-1.125 2.594 63.45 63.45 0 0 1-1.187 2.438c-.081.158-.168.311-.25.469L232.062 139l-.281.5c-.199.339-.419.664-.625 1-.362.591-.742 1.168-1.125 1.75-.005.007.005.024 0 .031-.491.746-1.006 1.488-1.531 2.219-.457.636-.954 1.251-1.437 1.875-.197.254-.361.529-.562.781l-.406.5c-.164.201-.334.395-.5.594-.557.667-1.131 1.318-1.719 1.969-.606.671-1.235 1.347-1.875 2-.161.164-.306.337-.469.5-21.13 21.13-52.259 24.495-77.187 11.156l.125-.187c-3.704-1.897-7.262-4.14-10.625-6.781-.539-.423-1.065-.87-1.594-1.312l-1.531-1.312-.281-.25c-.822-.748-1.612-1.518-2.406-2.312s-1.565-1.585-2.313-2.406l-.25-.281c-.45-.504-.882-1.017-1.312-1.531l-1.312-1.594c-2.641-3.363-4.885-6.921-6.781-10.625l-.187.125c-13.339-24.929-9.974-56.057 11.156-77.188.163-.163.336-.308.5-.469a68.23 68.23 0 0 1 2-1.875c.651-.588 1.302-1.162 1.969-1.719l.813-.687c.343-.277.715-.512 1.063-.781.624-.483 1.239-.98 1.875-1.437a65.36 65.36 0 0 1 2.25-1.531l1.75-1.125 1.344-.812c.681-.395 1.371-.757 2.063-1.125l.531-.281c.945-.491 1.881-.966 2.844-1.406a62.89 62.89 0 0 1 2.594-1.125c.153-.062.316-.096.469-.156.968-.384 1.925-.759 2.906-1.094.56-.191 1.123-.356 1.688-.531l1.75-.531c.881-.246 1.768-.48 2.656-.687.071-.017.148-.015.219-.031l1.25-.281 2.031-.406c.082-.014.168-.017.25-.031.951-.164 1.919-.317 2.875-.437a64.69 64.69 0 0 1 5.906-.469 65.09 65.09 0 0 1 3.156-.031h0z"/>
    <path id="AO"
          d="M110.75 5.5l-4.25 7c-.75 9-2.25 13.75-8.5 16.5s-12.25 3.5-11 7.5 13 9.25 14.25 13 8.25 1.75 11 7 2 15.25-3.75 17.25-17.5.5-20.25 9.5-4.75 10.5-9 12.75-7.25 10.5-3.5 16.5 12.25-1.25 15-6.5S98 97.25 98 97.25h23.75l59-1.75 3.25-3.75s3.25 4 2.75 8.75-3.75 14.75.25 17.25 19.5-2 24-7-4.75-28.25-10.5-29.5-18.5-1.75-17-7 11.75 4.5 17.25 3.25 16.75-21 12-25.25-24.25-5.25-25.75-8 21-8 22.25-11-2.5-7.25-6.25-8.5S189 41 182 40.5s-20 5.75-17.25 11.5-6 11-14.5 6.5-24.75-13-21.75-24S150 15.75 150 15.75L110.75 5.5zM97.188 112.719c-1.595.146-4.469 4.688-4.937 7.031-.5 2.5-3.25 6.75-3.5 12.25s4.75 6.75 8.75 6.5 2.75-6.75 2-15c-.25 0-.5-10.25-2-10.75-.094-.031-.206-.041-.312-.031h0zm92.719 51.656c-6.335.295-6.625 7.469-7.406 8.875-1.25 2.25 2.25 13.75 2 18s-4.75 5.25-9.5 9.75.5 16 11.25 31l44.75 1.25-1-35s4.75-4.25-20.75-24.25c-9.562-7.5-15.542-9.802-19.344-9.625zM39.938 180.906c-4.029-.103-8.281 5.719-9.687 7.594-1.5 2-6.25 5-17 9.5l-14.5 34.25 53 4.25s1.75-11-4.25-15.75S30.25 215 29.25 207.5s9.25-10 13.75-14.25S45 182 40.75 181c-.266-.062-.544-.087-.812-.094h0z"/>
    <path id="AP" d="M122.75 62.25c6.25.5 12.25-2.25 10.75-6.5s-12.5-7.25-13.25-3 2 10.5 2.5 9.5z"/>
    <path id="AQ" d="M108.75 46.75c-8.5-5.5-8.5-7.25-7-8s10.25 5 12.75 8-2.25 2-5.75 0z"/>
    <path id="AR" d="M15.75 151.25c33-2.5 38.25-3.5 36.25-10.25s-8.75-23.5-23-22.5-22.75-6.75-22.75-6.75"/>
    <path id="AS" d="M17.5 177.25c18.25-10 28.75-8.5 35-11.5s13.25-5.75 15.75-9.5 5.75-11.5 5.75-18-3.5-36 3.25-43.5 17.25-26 26-23.25 12.25 9.75 22 9.5S147 77 149.5 68.75s-15.75-16-16-23 5.5-14.25 20.25-17 23.5-11.5 23.5-11.5"/>
    <path id="AT" d="M14.5 161c15.25-1.5 22.25 3.5 31.5 1.75s13.25-3 17.75-5.75 6-3.75 6.25-6.5 1-12.5-3-22S54.5 97 58.75 89.75 64 68.25 74.5 65.25 95.5 59 102.25 64s12.75 14.25 20 14.5S134 77 136.75 74s4.5-10.25 1.75-13.75-15.5-5.5-17.25-9.5-10.75-17-.25-26.75 36.25-8.25 36.25-8.25"/>
    <path id="AU" d="M21.25 159c13.75 1 21.5 4.25 33.5-.5s13.5-5.25 13.75-8.75-.25-15.75-3-20-13-13.75-15.75-24.25.25-41 8.5-48.25 32-7.25 37.5-10.5 5.25-16.75 13-24.5 27-12.25 27-12.25"/>
    <path id="AV" d="M9.75 214c19-12.5 36-1.25 49-4s38.25-37.25 46-37 5.5-11.75 8.5-13.25 5.5 6 11.75 8 24.5-2.75 23.5-5.75-7-7.75-5.5-8.5 8.5 5 12.75 3.5 43.75-1 48.5-13.5 21.5-13.5 21.5-13.5"/>
    <path id="AW" d="M77.5 233.5c13.5-11.5 23.25-25 28.5-27s12.75-3.75 15.75-8 2.5-10.75 5.25-12 3.75 5.75 8.75 6 36.75-5 42.75-11.75 32.25-12.5 32.5-14.5-1-4.75.25-5.5 24.75-6 24.75-6"/>
    <path id="AX" d="M168.75 236c9-13.75 20.5-41 29.5-42s10.25-2.5 12.5-4.25 17 2.25 17 2.25"/>
    <path id="AY" d="M57.75 20l-8.5 28.25 18 6.25L75 90.75 54 113l9 10.5L51 135l.5 4.5L71.75 164l14-6.75 20.5 18.5L95.75 204l10.25 8.5-2.75 13"/>
    <path id="AZ" d="M105.75 212.25l12.5-27.75 11-7 27.5 15.75 20.5-3.75-.25-15.75-10.25-6 12.75-26.25 5.75-3.75 38.75-10"/>
    <path id="Aa" d="M219.25-182s-24.25 9-31.75 10.5-21 5.25-21 5.25c4.924-1.358 11.437 45.392 14.25 52.25l-.062.281c11.808-4.074 51.21-4.768 54.313-12.781 0 0-4.75-15.25-7.5-29.75S219.25-182 219.25-182z"/>
    <path id="Ab" d="M27-126.5s-5.5 12.75-8.25 24.75-5.75 23-5.75 23l50.625 16.281 15.781-58.906L27-126.5z"/>
    <path id="Ac" d="M26-24.5S22-14.25 18.5-.25s-5 30.75-5 30.75.147-.045.438-.094c2.034-.338 11.219-1.5 28.063 1.344 19.25 3.25 32.25 6 32.25 6l1.469-52.5-.75.125L26-24.5z"/>
    <path id="Ad" d="M114.75-180.25s-3.25 3.5-22 8-27.5 5.75-27.5 5.75c5.182 14.704 12.03 29.27 14.25 44.75l-.094.313 48.031-3.937 1.125.25c-3.362-13.323-7.796-54.592-13.812-55.125z"/>
    <path id="Ae" d="M117.594-78.094L63.969-62.375l-.344-.094L63.5-62l12.25 46.5-.031.75 49.469-8.875.531.188.031-.062-8.25-54.25.094-.344h0z"/>
    <path id="Af" d="M128.563-125.125l.688 2.375-11.656 44.656.094-.031L169.5-60.75l11.188-52.969-1 .375-51.125-11.781h0z"/>
    <path id="Ag" d="M125.531-23.5L114.5 25s5.5.5 22.5 6.25l6.125 2.031L148.75 35c10.617 3.199 17.5 4.75 17.5 4.75l12.719-45.406-1.531.563L125.531-23.5z"/>
    <path id="Ah" d="M218-76c-15.666 6.288-31.698 11.15-48.062 15.406l-.437-.156 9.5 55-.031.094c17.839-6.36 35.381-13.387 52.781-20.844 0 0-.5-4.5-3.75-19.75S218-76 218-76z"/>
    <path id="Ai" d="M13.719-179.969c-1.106-.003-1.972.032-2.719.063l-1.156.063c-.029.002-.066-.002-.094 0l-.75.094s7.5 13 11.75 27.75S27-126.5 27-126.5l51.469 5.125.938-.062.094-.312c-2.22-15.48-9.068-30.046-14.25-44.75 0 0-18.5-9-31.5-11.5l-3-.531-1.75-.281-.687-.094c-1.306-.182-2.588-.34-3.812-.469-.735-.077-1.395-.128-2.094-.187l-2-.156-2.781-.156c-1.456-.063-2.769-.091-3.906-.094h0z"/>
    <path id="Aj" d="M13-78.75s5.75 16 9.25 30S26-24.5 26-24.5l48.969 9.875.75-.125.031-.75L63.5-62l.125-.469L13-78.75z"/>
    <path id="Ak" d="M127.438-125.375l-47.969 4h-.062L63.625-62.469l.344.094 53.625-15.719 11.656-44.656c-.224-.633-.453-1.447-.687-2.375l-1.125-.25h0z"/>
    <path id="Al" d="M125.188-23.625L75.719-14.75l-1.469 52.5S87 35 98.25 31.5 114.5 25 114.5 25l11.219-48.437-.531-.187z"/>
    <path id="Am" d="M114.75-180.25c6.016.533 10.45 41.802 13.813 55.125l51.125 11.781c.305-.13.643-.252 1-.375l.063-.281c-2.813-6.858-9.326-53.608-14.25-52.25l-1.719-.719c-3.316-1.395-11.094-4.594-20.281-7.781-12.25-4.25-29.75-5.5-29.75-5.5z"/>
    <path id="An" d="M117.688-78.125l-.094.031-.094.344 8.25 53.25-.219 1 51.906 18.406 1.531-.562.031-.094-9.5-55-51.812-17.375h0z"/>
    <path id="Ao" d="M231.75-26.5c-17.4 7.457-34.942 14.484-52.781 20.844L166.25 39.75l26-5.75c13-3 26.5-8 26.5-8S218 21 223 1.5s8.75-28 8.75-28z"/>
    <path id="Ap" d="M235-126.5c-3.102 8.014-42.505 8.707-54.312 12.781L169.5-60.75l.438.156C186.302-64.85 202.334-69.712 218-76c0 0 1.75-10.5 6.75-23.75L235-126.5z"/>
    <path id="Aq" d="M9 12.25s7.5 13 11.75 27.75S27 65.5 27 65.5s-5.5 12.75-8.25 24.75-5.75 23-5.75 23 5.75 16 9.25 30S26 167.5 26 167.5s-4 10.25-7.5 24.25-5 30.75-5 30.75 9.25-2 28.5 1.25 32.25 6 32.25 6 12.75-2.75 24-6.25 16.25-6.5 16.25-6.5 5.5.5 22.5 6.25 29.25 8.5 29.25 8.5l26-5.75c13-3 26.5-8 26.5-8s-.75-5 4.25-24.5 8.75-28 8.75-28-.5-4.5-3.75-19.75S218 116 218 116s1.75-10.5 6.75-23.75L235 65.5s-4.75-15.25-7.5-29.75S219.25 10 219.25 10 195 19 187.5 20.5s-21 5.25-21 5.25-9.75-4.25-22-8.5-29.75-5.5-29.75-5.5-3.25 3.5-22 8-27.5 5.75-27.5 5.75-18.5-9-31.5-11.5-24-2-24.75-1.75z"/>
    <path id="Ar" d="M127.033 132.717c26.093 26.093 68.397 26.093 94.49 0s26.093-68.397 0-94.49-68.397-26.093-94.49 0-26.093 68.397 0 94.49z"/>
    <linearGradient id="As" gradientUnits="userSpaceOnUse"/>
  </defs>
  <g transform="translate(0 -10)">
    <use xlink:href="#AN" clip-path="none" transform="matrix(1 .068641 0 .848698 0 36.913089)" opacity=".7" filter="url(#AI)" class="K"/>
    <path transform="matrix(1 0 0 .846566 0 37.660073)" d="M9 17.25s7.5 11 11.75 25.75S27 68.5 27 68.5s-5.5 12.75-8.25 24.75l-5.75 25s5.75 16 9.25 30S26 170.5 26 170.5s-4 10.25-7.5 24.25-5 30.75-5 30.75 9.25-2 28.5 1.25 32.25 6 32.25 6 12.75-2.75 24-6.25 16.25-6.5 16.25-6.5 5.5.5 22.5 6.25 29.25 8.5 29.25 8.5l26-5.75c13-3 26.5-8 26.5-8s-.75-5 4.25-24.5 8.75-28 8.75-28L228 150.75C224.75 135.5 218 121 218 121s1.75-12.5 6.75-25.75L235 68.5s-4.75-15.25-7.5-29.75S219.25 15 219.25 15 195 24 187.5 25.5s-21 5.25-21 5.25-9.75-4.25-22-8.5-29.75-5.5-29.75-5.5-3.25 3.5-22 8-27.5 5.75-27.5 5.75-18.5-9-31.5-11.5-24-2-24.75-1.75z" opacity=".5" fill="url(#AK)" filter="url(#AJ)"/>
  </g>
  <path d="M9 2.25s7.5 13 11.75 27.75S27 55.5 27 55.5s-5.5 12.75-8.25 24.75-5.75 23-5.75 23 5.75 16 9.25 30S26 157.5 26 157.5s-4 10.25-7.5 24.25-5 30.75-5 30.75 9.25-2 28.5 1.25 32.25 6 32.25 6 12.75-2.75 24-6.25 16.25-6.5 16.25-6.5 5.5.5 22.5 6.25 29.25 8.5 29.25 8.5l26-5.75c13-3 26.5-8 26.5-8s-.75-5 4.25-24.5 8.75-28 8.75-28-.5-4.5-3.75-19.75S218 106 218 106s1.75-10.5 6.75-23.75L235 55.5s-4.75-15.25-7.5-29.75S219.25 0 219.25 0 195 9 187.5 10.5s-21 5.25-21 5.25-9.75-4.25-22-8.5-29.75-5.5-29.75-5.5-3.25 3.5-22 8-27.5 5.75-27.5 5.75-18.5-9-31.5-11.5S9.75 2 9 2.25z" class="C"/>
  <g clip-path="url(#W)" transform="translate(0 -10)">
    <use xlink:href="#AO" fill="#a6dd8b"/>
  </g>
  <path
    d="M158.531 75.344c-4.76-.014-9.031.969-11.531 3.156-8 7-35 .75-48.5 7s-13.25 38-14.75 44.5-17.5 20.75-20 23.5-13.25 7.25-19.5 8.5-12.75 7.25-15.5 11c-2.021 2.756-7.406 6.45-10.125 8.219-.046.181-.079.349-.125.531-.134.535-.247 1.083-.375 1.625 4.98-1.605 11.18-8.18 16.625-13.625 6.25-6.25 20-7.75 27.75-11.5S76.75 138.5 89 134.5s21.25 11.75 24.25 18.5 1.75 12.75 3.75 17 11 11.75 11.5 13.5-5 6.5-6.25 8.5-10.5 7-11.75 8.75c-.966 1.352-1.923 6.773-2.312 9.219l1.125-.469c.484-2.529 1.515-7.078 2.938-8.5 2-2 11.25-4.5 12.5-8.5s7-6.5 7-6.5 2.75 4 16 14c8.833 6.667 12.758 15.534 14.406 20.719l2.031.531c-1.221-4.319-4.836-16.239-8.937-20.75-5-5.5-18.5-10.75-22.75-22S108 144.25 115 138.25s16.5-4 28.5 7.5 46.25 5.75 57.75 3.75c9.955-1.731 20.834 14.883 23.906 26.031l1.656-5.75c-1.738-1.926-3.697-4.62-5.312-8.281-3.75-8.5-12-13.25-12-13.25s8.75-5 14.75-7.75c1.617-.741 3.006-1.677 4.188-2.656L228 135.75l-.094-.437c-4.766 5.562-19.232 9.615-21.656 10.938-2.75 1.5-18.25 3-35.75 4.5s-26.75-7.5-34.25-14.75-13-36-3-38 20 13.75 30 17 21.5-15.75 19.75-27c-1.203-7.734-13.997-12.625-24.469-12.656h0zm-53.344 13.281c1.275.001 5.859 1.594 6.563 2.375 2.25 2.5 2 7.25 0 8s-12.75 8-10.5 14.25 1.75 18-3.5 18-8 0-10-2.5-2-12 0-19.75 3.5-15 8-18.25c3.094-2.234 6.632-2.128 9.438-2.125h0zm13.594 73.094c.203.014 1.906 3.516 4.719 7.031 3 3.75 3.25 8.25 3.25 8.25s-4.25-4.75-6-8-2-7.25-2-7.25c0-.031.018-.032.031-.031h0z"
    fill="#aac3e7"/>
  <g class="F G I">
    <use xlink:href="#AP" class="B"/>
    <use xlink:href="#AQ" class="B"/>
  </g>
  <g transform="translate(0 -10)" class="F">
    <g clip-path="url(#U)" class="I">
      <use xlink:href="#AR" class="B G H"/>
      <use xlink:href="#AS" class="B"/>
      <g class="G H">
        <use xlink:href="#AT" class="B"/>
        <use xlink:href="#AU" class="B"/>
        <path d="M190 18.5c11.75 5 39 9.75 47.25 40.25" class="B"/>
        <use xlink:href="#AV" class="B"/>
        <use xlink:href="#AW" class="B"/>
        <use xlink:href="#AX" class="B"/>
      </g>
    </g>
    <g clip-path="url(#V)" stroke="#d38484" stroke-width="2" class="H">
      <use xlink:href="#AY"/>
      <use xlink:href="#AZ"/>
    </g>
  </g>
  <path d="M9-189.75s7.5 13 11.75 27.75S27-136.5 27-136.5s-5.5 12.75-8.25 24.75-5.75 23-5.75 23 5.75 16 9.25 30S26-34.5 26-34.5s-4 10.25-7.5 24.25-5 30.75-5 30.75 9.25-2 28.5 1.25 32.25 6 32.25 6S87 25 98.25 21.5 114.5 15 114.5 15s5.5.5 22.5 6.25 29.25 8.5 29.25 8.5l26-5.75c13-3 26.5-8 26.5-8S218 11 223-8.5s8.75-28 8.75-28-.5-4.5-3.75-19.75S218-86 218-86s1.75-10.5 6.75-23.75L235-136.5s-4.75-15.25-7.5-29.75-8.25-25.75-8.25-25.75-24.25 9-31.75 10.5-21 5.25-21 5.25-9.75-4.25-22-8.5-29.75-5.5-29.75-5.5-3.25 3.5-22 8-27.5 5.75-27.5 5.75-18.5-9-31.5-11.5-24-2-24.75-1.75z" fill="url(#T)" transform="translate(0 192)" class="J"/>
  <g transform="translate(0 182)">
    <g opacity=".27">
      <use xlink:href="#Aa" fill="url(#K)"/>
      <use xlink:href="#Ab" fill="url(#M)"/>
      <use xlink:href="#Ac" fill="url(#N)"/>
      <use xlink:href="#Ad" fill="url(#O)"/>
      <use xlink:href="#Ae" fill="url(#P)"/>
      <use xlink:href="#Af" fill="url(#Q)"/>
      <use xlink:href="#Ag" fill="url(#R)"/>
      <use xlink:href="#Ah" fill="url(#S)"/>
    </g>
    <g opacity=".043">
      <use xlink:href="#Ai" fill="url(#B)"/>
      <use xlink:href="#Aj" fill="url(#D)"/>
      <use xlink:href="#Ak" fill="url(#E)"/>
      <use xlink:href="#Al" fill="url(#F)"/>
      <use xlink:href="#Am" fill="url(#G)"/>
      <use xlink:href="#An" fill="url(#H)"/>
      <use xlink:href="#Ao" fill="url(#I)"/>
      <use xlink:href="#Ap" fill="url(#J)"/>
    </g>
  </g>
  <g transform="matrix(1.252537 .035398 0 1.252537 -27.80947 -48.34395)" clip-path="url(#AG)">
    <use xlink:href="#Aq" class="C"/>
    <g clip-path="url(#k)">
      <use xlink:href="#AO" fill="#a6dd8b"/>
    </g>
    <path
      d="M158.531 85.344c-4.76-.014-9.031.969-11.531 3.156-8 7-35 .75-48.5 7s-13.25 38-14.75 44.5-17.5 20.75-20 23.5-13.25 7.25-19.5 8.5-12.75 7.25-15.5 11c-2.021 2.756-7.406 6.45-10.125 8.219-.046.181-.079.349-.125.531-.134.535-.247 1.083-.375 1.625 4.98-1.605 11.18-8.18 16.625-13.625 6.25-6.25 20-7.75 27.75-11.5S76.75 148.5 89 144.5s21.25 11.75 24.25 18.5 1.75 12.75 3.75 17 11 11.75 11.5 13.5-5 6.5-6.25 8.5-10.5 7-11.75 8.75c-.966 1.352-1.923 6.773-2.312 9.219l1.125-.469c.484-2.529 1.515-7.078 2.938-8.5 2-2 11.25-4.5 12.5-8.5s7-6.5 7-6.5 2.75 4 16 14c8.833 6.667 12.758 15.534 14.406 20.719l2.031.531c-1.221-4.319-4.836-16.239-8.937-20.75-5-5.5-18.5-10.75-22.75-22S108 154.25 115 148.25s16.5-4 28.5 7.5 46.25 5.75 57.75 3.75c9.955-1.731 20.834 14.883 23.906 26.031l1.656-5.75c-1.738-1.926-3.697-4.62-5.312-8.281-3.75-8.5-12-13.25-12-13.25s8.75-5 14.75-7.75c1.617-.741 3.006-1.677 4.188-2.656L228 145.75l-.094-.437c-4.766 5.562-19.232 9.615-21.656 10.938-2.75 1.5-18.25 3-35.75 4.5s-26.75-7.5-34.25-14.75-13-36-3-38 20 13.75 30 17 21.5-15.75 19.75-27c-1.203-7.734-13.997-12.625-24.469-12.656h0zm-53.344 13.281c1.275.001 5.859 1.594 6.563 2.375 2.25 2.5 2 7.25 0 8s-12.75 8-10.5 14.25 1.75 18-3.5 18-8 0-10-2.5-2-12 0-19.75 3.5-15 8-18.25c3.094-2.234 6.632-2.128 9.438-2.125h0zm13.594 73.094c.203.014 1.906 3.516 4.719 7.031 3 3.75 3.25 8.25 3.25 8.25s-4.25-4.75-6-8-2-7.25-2-7.25c0-.031.018-.032.031-.031h0z"
      fill="#aac3e7"/>
    <g class="F G I">
      <path d="M122.75 72.25c6.25.5 12.25-2.25 10.75-6.5s-12.5-7.25-13.25-3 2 10.5 2.5 9.5zm-14-15.5c-8.5-5.5-8.5-7.25-7-8s10.25 5 12.75 8-2.25 2-5.75 0z" class="B"/>
    </g>
    <g clip-path="url(#l)" class="F I">
      <use xlink:href="#AR" class="B G H"/>
      <use xlink:href="#AS" class="B"/>
      <g class="G H">
        <use xlink:href="#AT" class="B"/>
        <use xlink:href="#AU" class="B"/>
        <path d="M190 18.5c11.75 5 39 9.75 47.25 40.25" class="B"/>
        <use xlink:href="#AV" class="B"/>
        <use xlink:href="#AW" class="B"/>
        <use xlink:href="#AX" class="B"/>
      </g>
    </g>
    <g clip-path="url(#m)" stroke="#d38484" stroke-width="2" class="F H">
      <use xlink:href="#AY"/>
      <use xlink:href="#AZ"/>
    </g>
    <use xlink:href="#Aq" fill="url(#n)" class="J"/>
    <g transform="translate(0 192)">
      <g opacity=".27">
        <use xlink:href="#Aa" fill="url(#o)"/>
        <use xlink:href="#Ab" fill="url(#q)"/>
        <use xlink:href="#Ac" fill="url(#r)"/>
        <use xlink:href="#Ad" fill="url(#s)"/>
        <use xlink:href="#Ae" fill="url(#t)"/>
        <use xlink:href="#Af" fill="url(#u)"/>
        <use xlink:href="#Ag" fill="url(#v)"/>
        <use xlink:href="#Ah" fill="url(#w)"/>
      </g>
      <g opacity=".043">
        <use xlink:href="#Ai" fill="url(#x)"/>
        <use xlink:href="#Aj" fill="url(#z)"/>
        <use xlink:href="#Ak" fill="url(#AA)"/>
        <use xlink:href="#Al" fill="url(#AB)"/>
        <use xlink:href="#Am" fill="url(#AC)"/>
        <use xlink:href="#An" fill="url(#AD)"/>
        <use xlink:href="#Ao" fill="url(#AE)"/>
        <use xlink:href="#Ap" fill="url(#AF)"/>
      </g>
    </g>
  </g>
  <use xlink:href="#AN" transform="matrix(1 .080878 0 1 0 -21.056305)" clip-path="url(#AL)" filter="url(#j)" class="K"/>
  <path d="M48.01 227.457l-4.808 4.558-15.079-16.133 4.49-4.073c6.829 6.534 8.873 8.53 15.397 15.648z" fill="url(#Y)"/>
  <path d="M125.064 134.686c-27.18-27.18-27.18-71.247 0-98.427s71.247-27.18 98.427 0 27.18 71.247 0 98.427-71.247 27.18-98.427 0zm2.953-2.953c26.093 26.093 67.413 27.077 93.506.984s25.108-67.413-.984-93.506-67.413-27.077-93.506-.984-25.108 67.413.984 93.506h0z" class="K"/>
  <path d="M125.064 134.686c-27.18-27.18-27.18-71.247 0-98.427l.492-.492c-26.685 27.218-26.522 70.921.492 97.935s70.717 27.177 97.935.492l-.492.492c-27.18 27.18-71.247 27.18-98.427 0zm2.461-96.951l.492-.492c26.093-26.093 67.413-25.108 93.506.984s27.077 67.413.984 93.506l-.492.492c25.587-26.118 24.451-67.086-1.476-93.014s-66.896-27.064-93.014-1.476h0z" fill="#9eaaac"/>
  <use xlink:href="#Ar" fill="#d0e9f2" fill-opacity=".476"/>
  <use xlink:href="#Ar" fill="url(#d)"/>
  <path d="M116.052 115.277l-5.752 4.091c3.295 6.213 7.563 12.054 12.796 17.286s11.073 9.5 17.286 12.796l4.091-5.752c-5.927-3.035-11.494-7.003-16.456-11.965s-8.93-10.529-11.965-16.456h0z" fill="url(#c)"/>
  <path d="M124.818 134.932c1.729 1.729 3.084 3.671 4.122 5.721l-26.206 26.206c-2.05-1.038-3.992-2.392-5.721-4.122s-3.084-3.671-4.122-5.721l26.206-26.206a22.27 22.27 0 0 1 5.721 4.122z" fill="url(#b)"/>
  <path d="M116.267 159.232L50.199 225.3c-3.984-2.192-5.831-3-9.29-6.459s-4.267-5.306-6.459-9.29l66.068-66.068c5.063 3.748 12.117 10.398 15.748 15.748z" fill="url(#a)"/>
  <path d="M105.779 154.118c3.458 3.458 7.435 6.666 8.519 11.019l-64.1 64.1c-6.516-5.155-14.555-12.791-19.685-19.685l64.1-64.1c3.492.223 7.659 5.159 11.117 8.617l.049.049z" fill="url(#Z)"/>
  <path d="M105.534 154.363c3.458 3.458 7.679 6.422 8.764 10.775l-64.1 64.1c-7.877-6.907-11.797-10.624-19.685-19.685l64.1-64.1c3.492.223 7.414 5.452 10.873 8.911h.049z" opacity=".596" fill="url(#e)"/>
  <path d="M131.168 37.05c40.659-32.173 78.135-12.728 77.782 5.303s-56.569 70.357-76.368 66.114-25.456-53.387-1.414-71.418z" opacity=".604" fill="url(#h)"/>
  <g transform="rotate(351.1)">
    <path
      d="M191.064 54.751l-2.756-.001-2.987.717-.001 2.57 2.969-.733v9.367l-3.191.001v2.515l9.155-.002v-2.513l-3.191.001V54.751zm-12.891-.196c-.271-.044-.558-.065-.858-.065-1.592 0-2.785.625-3.577 1.875-.793 1.244-1.188 3.116-1.188 5.616 0 2.494.396 4.366 1.188 5.617.793 1.244 1.985 1.867 3.577 1.867 1.598 0 2.795-.622 3.588-1.866s1.19-3.117 1.19-5.618c0-2.507-.398-4.383-1.191-5.627a3.82 3.82 0 0 0-2.729-1.799zm-11.921 0c-.271-.044-.558-.065-.858-.065-1.592 0-2.783.625-3.575 1.876-.793 1.244-1.19 3.115-1.19 5.616 0 2.494.396 4.366 1.188 5.617.793 1.244 1.986 1.867 3.578 1.867 1.598 0 2.793-.622 3.586-1.866s1.19-3.115 1.19-5.616c0-2.507-.396-4.383-1.189-5.627-.644-1.011-1.555-1.612-2.731-1.802zm11.304 2.371c.541.088.944.485 1.209 1.19.303.806.454 2.094.454 3.867 0 1.766-.151 3.051-.454 3.857s-.787 1.208-1.45 1.208c-.657 0-1.137-.402-1.44-1.208s-.456-2.091-.456-3.857c0-1.772.152-3.061.455-3.867s.783-1.21 1.441-1.21a1.49 1.49 0 0 1 .24.02zm-22.254-2.176l-2.756.001-2.988.714v2.572l2.968-.735v9.369h-3.191l.002 2.513h9.155V66.67l-3.191.001V54.75zm10.333 2.175c.541.088.944.485 1.209 1.19.303.806.454 2.094.454 3.867 0 1.766-.151 3.051-.454 3.857s-.787 1.208-1.45 1.208c-.657 0-1.137-.402-1.44-1.208s-.456-2.091-.456-3.857c0-1.772.152-3.061.455-3.867s.783-1.21 1.441-1.21a1.49 1.49 0 0 1 .24.02zm-22.254-2.174h-2.756l-2.986.715-.001 2.572 2.968-.735v9.369l-3.189.001v2.513h9.155v-2.513l-3.191-.001V54.751zm34.18 6.044a1.35 1.35 0 0 0-.246-.023 1.16 1.16 0 0 0-.851.349 1.17 1.17 0 0 0-.348.861c0 .342.116.627.348.859.232.226.517.339.852.339.342 0 .627-.116.859-.348s.349-.516.349-.851a1.17 1.17 0 0 0-.348-.861c-.174-.174-.38-.282-.615-.326zm-47.07-6.24a5.39 5.39 0 0 0-.857-.067c-1.592 0-2.785.627-3.578 1.877-.793 1.244-1.188 3.116-1.188 5.616 0 2.494.396 4.366 1.188 5.617.793 1.244 1.985 1.867 3.577 1.867 1.598 0 2.795-.622 3.588-1.866s1.188-3.117 1.188-5.618c0-2.507-.396-4.383-1.189-5.627a3.82 3.82 0 0 0-2.729-1.799zm35.149 6.239c-.079-.015-.16-.021-.246-.021-.335 0-.619.115-.851.347s-.346.519-.346.861.116.627.348.859c.232.226.515.339.85.339a1.17 1.17 0 0 0 .861-.348c.232-.232.347-.516.347-.851a1.17 1.17 0 0 0-.348-.861c-.174-.174-.38-.282-.615-.326zm-46.1-6.045h-2.754l-2.989.716v2.572l2.968-.735v9.369l-3.191-.001v2.515h9.155v-2.515h-3.191V54.75zm10.335 2.176c.541.088.945.483 1.21 1.188.303.806.454 2.096.454 3.869 0 1.766-.151 3.051-.454 3.857s-.787 1.208-1.45 1.208c-.657 0-1.139-.403-1.442-1.208s-.454-2.091-.454-3.857c0-1.772.153-3.063.456-3.869s.783-1.208 1.441-1.208a1.49 1.49 0 0 1 .24.02zm-23.225-2.372c-.271-.044-.556-.065-.856-.065-1.592 0-2.785.625-3.577 1.875-.793 1.244-1.19 3.115-1.19 5.616 0 2.494.398 4.367 1.19 5.617.793 1.244 1.985 1.867 3.577 1.867 1.598 0 2.793-.622 3.586-1.866s1.19-3.115 1.19-5.616c0-2.507-.396-4.383-1.189-5.627-.644-1.011-1.555-1.612-2.731-1.802zm-.616 2.371c.541.088.944.485 1.209 1.19.303.806.454 2.094.454 3.867 0 1.766-.151 3.051-.454 3.857s-.787 1.208-1.45 1.208c-.657 0-1.137-.402-1.44-1.208s-.454-2.091-.454-3.857c0-1.772.15-3.061.453-3.867s.783-1.21 1.441-1.21a1.49 1.49 0 0 1 .24.02zm23.847 3.871c-.079-.015-.16-.023-.246-.023a1.16 1.16 0 0 0-.851.349c-.232.232-.348.517-.348.859a1.17 1.17 0 0 0 .348.861c.232.226.517.339.852.339.342 0 .627-.116.859-.348s.349-.516.349-.851a1.17 1.17 0 0 0-.348-.861c-.174-.174-.38-.282-.615-.326zm-23.842-.001c-.079-.015-.16-.021-.246-.021-.335 0-.617.115-.849.347a1.17 1.17 0 0 0-.348.861c0 .342.116.627.348.859.232.226.515.339.85.339a1.17 1.17 0 0 0 .861-.348c.232-.232.347-.516.347-.851a1.17 1.17 0 0 0-.348-.861c-.174-.174-.38-.282-.615-.326zM191.064 79.5h-2.754l-2.989.716.001 2.572 2.968-.735v9.369l-3.191-.001v2.515h9.155V91.42l-3.189.001-.001-11.921zm-12.891-.196c-.271-.044-.556-.065-.856-.065-1.592 0-2.785.625-3.577 1.875-.793 1.244-1.19 3.115-1.19 5.616 0 2.494.397 4.369 1.19 5.619.793 1.244 1.985 1.865 3.577 1.865 1.598 0 2.793-.622 3.586-1.866s1.19-3.115 1.19-5.616c0-2.507-.396-4.383-1.189-5.627-.644-1.011-1.555-1.612-2.731-1.802zm-10.949.195l-2.756.001-2.986.715-.001 2.572 2.968-.735v9.369l-3.189.001v2.513h9.155v-2.515l-3.191.001V79.499zm10.333 2.175c.541.088.944.485 1.209 1.19.303.806.454 2.094.454 3.867 0 1.766-.151 3.051-.454 3.857s-.787 1.208-1.45 1.208c-.657 0-1.137-.402-1.44-1.208s-.454-2.091-.454-3.857c0-1.772.15-3.061.453-3.867s.783-1.21 1.441-1.21a1.49 1.49 0 0 1 .24.02zm-23.224-2.369a5.39 5.39 0 0 0-.857-.067c-1.592 0-2.785.625-3.577 1.875-.793 1.244-1.188 3.117-1.188 5.618 0 2.494.396 4.366 1.188 5.617.793 1.244 1.985 1.865 3.577 1.865 1.598 0 2.795-.622 3.588-1.866s1.188-3.116 1.188-5.616c0-2.507-.396-4.383-1.189-5.627a3.82 3.82 0 0 0-2.729-1.799zm-10.951.195h-2.756l-2.987.717.001 2.57 2.968-.733v9.367h-3.191v2.515l9.155-.002v-2.513h-3.191V79.5zm10.335 2.174c.541.088.944.485 1.209 1.19.303.806.454 2.094.454 3.867 0 1.766-.151 3.053-.454 3.859s-.787 1.208-1.45 1.208c-.657 0-1.139-.403-1.442-1.208s-.453-2.093-.453-3.859c0-1.772.152-3.061.455-3.867s.781-1.208 1.439-1.208a1.52 1.52 0 0 1 .242.018zm23.845 3.87c-.079-.015-.16-.021-.246-.021-.335 0-.617.115-.849.347a1.17 1.17 0 0 0-.348.861 1.17 1.17 0 0 0 .348.861c.232.226.516.337.851.337a1.17 1.17 0 0 0 .861-.348c.232-.232.347-.516.347-.851 0-.342-.116-.627-.348-.859a1.15 1.15 0 0 0-.615-.328zm-46.1-6.045h-2.754l-2.989.716.001 2.572 2.968-.735v9.369l-3.191-.001v2.515l9.157.001-.002-2.515-3.189.001-.001-11.921zm-12.891-.196c-.271-.044-.556-.065-.856-.065-1.592 0-2.785.625-3.577 1.875-.793 1.244-1.19 3.115-1.19 5.616 0 2.494.397 4.369 1.19 5.619.793 1.244 1.985 1.865 3.577 1.865 1.598 0 2.793-.622 3.586-1.866s1.19-3.115 1.19-5.616c0-2.507-.396-4.383-1.189-5.627-.644-1.011-1.555-1.612-2.731-1.802zm35.151 6.242a1.35 1.35 0 0 0-.246-.023c-.335 0-.619.115-.851.347a1.17 1.17 0 0 0-.348.861 1.17 1.17 0 0 0 .348.861c.232.226.515.339.85.339a1.17 1.17 0 0 0 .861-.349c.232-.232.348-.514.348-.849a1.17 1.17 0 0 0-.348-.861c-.174-.174-.38-.282-.615-.326zm-47.072-6.242c-.271-.044-.556-.065-.856-.065-1.592 0-2.785.625-3.577 1.875-.793 1.244-1.19 3.117-1.19 5.618 0 2.494.398 4.367 1.19 5.617.793 1.244 1.985 1.865 3.577 1.865 1.598 0 2.795-.622 3.588-1.866s1.188-3.116 1.188-5.616c0-2.507-.396-4.383-1.189-5.627-.644-1.011-1.555-1.612-2.731-1.802zm11.304 2.371c.541.088.944.485 1.209 1.19.303.806.456 2.095.456 3.867 0 1.766-.153 3.051-.456 3.857s-.787 1.208-1.45 1.208c-.657 0-1.137-.402-1.44-1.208s-.454-2.091-.454-3.857c0-1.772.15-3.061.453-3.867s.783-1.21 1.441-1.21a1.49 1.49 0 0 1 .24.02zm-11.919 0c.541.088.944.485 1.209 1.19.303.806.454 2.094.454 3.867 0 1.766-.153 3.051-.456 3.857s-.785 1.21-1.449 1.21c-.657 0-1.139-.405-1.441-1.21s-.454-2.091-.454-3.857c0-1.772.15-3.061.453-3.867s.783-1.208 1.441-1.208a1.52 1.52 0 0 1 .242.018zm11.926 3.87c-.079-.015-.162-.021-.248-.021-.335 0-.617.115-.849.347a1.17 1.17 0 0 0-.348.861 1.17 1.17 0 0 0 .348.861c.232.226.516.337.851.337a1.17 1.17 0 0 0 .861-.348c.232-.232.347-.516.347-.851 0-.342-.116-.627-.348-.859-.174-.174-.377-.284-.613-.327zm-11.921 0c-.079-.015-.16-.021-.246-.021-.335 0-.619.115-.851.347a1.17 1.17 0 0 0-.348.861 1.17 1.17 0 0 0 .348.861c.232.226.516.337.851.337a1.17 1.17 0 0 0 .861-.348c.232-.232.349-.516.349-.851 0-.342-.118-.627-.35-.859-.174-.174-.377-.284-.613-.327zm85.024 18.705l-2.756.001-2.986.715-.001 2.572 2.968-.735v9.369l-3.189.001v2.513h9.155v-2.515l-3.191.001v-11.921zm-11.921 0l-2.756.001-2.986.715-.001 2.572 2.97-.735v9.369l-3.191.001v2.513h9.155v-2.513l-3.191-.001v-11.921zm-12.891-.194a5.39 5.39 0 0 0-.857-.067c-1.592 0-2.785.625-3.577 1.875-.793 1.244-1.188 3.117-1.188 5.618 0 2.494.396 4.366 1.188 5.617.793 1.244 1.985 1.865 3.577 1.865 1.598 0 2.795-.62 3.587-1.864s1.188-3.117 1.188-5.618c0-2.507-.396-4.383-1.189-5.627a3.82 3.82 0 0 0-2.729-1.799zm-11.921 0c-.271-.044-.558-.065-.858-.065-1.592 0-2.783.625-3.575 1.876-.793 1.244-1.19 3.115-1.19 5.616 0 2.494.396 4.366 1.188 5.617.793 1.244 1.986 1.867 3.578 1.867 1.598 0 2.793-.622 3.586-1.866s1.19-3.117 1.19-5.618c0-2.507-.396-4.383-1.189-5.627-.644-1.011-1.555-1.61-2.731-1.8zm11.305 2.369c.541.088.944.485 1.209 1.19.303.806.454 2.094.454 3.867 0 1.766-.151 3.053-.454 3.859s-.787 1.208-1.45 1.208c-.657 0-1.137-.402-1.44-1.208s-.455-2.093-.455-3.859c0-1.772.152-3.061.455-3.867s.783-1.208 1.441-1.208c.083 0 .163.005.24.018zm-22.254-2.174l-2.756-.001-2.989.716.001 2.572 2.968-.735v9.369l-3.191-.001.002 2.515h9.155v-2.515h-3.191V104.25zm10.333 2.175c.541.088.944.485 1.209 1.19.303.806.454 2.094.454 3.867 0 1.766-.151 3.051-.454 3.857s-.787 1.208-1.45 1.208c-.657 0-1.137-.402-1.44-1.208s-.456-2.091-.456-3.857c0-1.772.152-3.061.455-3.867s.783-1.21 1.441-1.21a1.49 1.49 0 0 1 .24.02zm-23.225-2.372c-.271-.044-.556-.065-.856-.065-1.592 0-2.785.625-3.577 1.875-.793 1.244-1.19 3.115-1.19 5.616 0 2.494.397 4.369 1.19 5.619.793 1.244 1.985 1.865 3.577 1.865 1.598 0 2.795-.622 3.588-1.866s1.188-3.116 1.188-5.616c0-2.507-.396-4.383-1.189-5.627-.644-1.011-1.555-1.612-2.731-1.802zm35.151 6.242a1.35 1.35 0 0 0-.246-.023 1.16 1.16 0 0 0-.851.349c-.232.232-.348.517-.348.859a1.17 1.17 0 0 0 .348.861c.232.226.517.339.852.339.342 0 .627-.116.859-.348s.349-.516.349-.851a1.17 1.17 0 0 0-.348-.861c-.174-.174-.38-.282-.615-.326zm-47.07-6.242c-.271-.044-.558-.065-.858-.065-1.592 0-2.785.625-3.577 1.875-.793 1.244-1.188 3.117-1.188 5.618 0 2.494.396 4.366 1.188 5.617.793 1.244 1.985 1.865 3.577 1.865 1.598 0 2.795-.622 3.588-1.866s1.188-3.116 1.188-5.616c0-2.507-.396-4.383-1.189-5.627-.644-1.011-1.553-1.612-2.729-1.801zm11.303 2.371c.541.088.946.485 1.211 1.19.303.806.454 2.094.454 3.867 0 1.766-.153 3.051-.456 3.857s-.785 1.208-1.449 1.208c-.657 0-1.139-.403-1.442-1.208s-.454-2.091-.454-3.857c0-1.772.15-3.061.453-3.867s.783-1.208 1.441-1.208c.083 0 .163.005.24.018zm23.847 3.871a1.35 1.35 0 0 0-.246-.023 1.16 1.16 0 0 0-.851.349 1.17 1.17 0 0 0-.348.861c0 .342.118.627.35.859.232.226.515.339.85.339a1.17 1.17 0 0 0 .861-.348c.232-.232.347-.516.347-.851a1.17 1.17 0 0 0-.348-.861c-.174-.174-.38-.282-.615-.326zm-46.1-6.045h-2.756l-2.986.715v2.572l2.968-.735v9.369h-3.191v2.513h9.155v-2.513l-3.191-.001V104.25zm10.335 2.174c.541.088.944.485 1.209 1.19.303.806.454 2.094.454 3.867 0 1.766-.151 3.053-.454 3.859s-.787 1.208-1.45 1.208c-.657 0-1.139-.405-1.441-1.21s-.454-2.091-.454-3.857c0-1.772.152-3.061.455-3.867s.783-1.208 1.441-1.208c.083 0 .163.005.24.018zm11.926 3.87c-.079-.014-.16-.021-.246-.021-.335 0-.619.115-.851.347a1.17 1.17 0 0 0-.348.861 1.17 1.17 0 0 0 .348.861c.232.226.516.337.851.337a1.17 1.17 0 0 0 .861-.348c.232-.232.349-.516.349-.851 0-.342-.118-.627-.35-.859-.174-.174-.377-.284-.613-.327zm-11.921 0c-.079-.014-.16-.021-.246-.021-.335 0-.619.115-.851.347a1.17 1.17 0 0 0-.348.861 1.17 1.17 0 0 0 .348.861c.232.226.517.339.852.339.342 0 .627-.118.859-.35s.349-.516.349-.851c0-.342-.116-.627-.348-.859a1.15 1.15 0 0 0-.615-.328z"
      opacity=".461" fill="url(#g)"/>
    <path
      d="M190.635 53.464l-2.756-.001-2.987.717v2.572l2.968-.735v9.369l-3.191-.001v2.515h9.155v-2.515l-3.191.001V53.464zm-12.891-.196c-.271-.044-.556-.065-.856-.065-1.592 0-2.785.625-3.577 1.875-.793 1.244-1.19 3.117-1.19 5.618 0 2.494.396 4.366 1.188 5.617.793 1.244 1.987 1.865 3.579 1.865 1.598 0 2.793-.622 3.586-1.866s1.19-3.115 1.19-5.616c0-2.507-.396-4.383-1.189-5.627-.644-1.011-1.555-1.612-2.731-1.802zm-11.921.001c-.271-.044-.556-.067-.855-.067-1.592 0-2.785.625-3.577 1.875-.793 1.244-1.19 3.117-1.19 5.618 0 2.494.398 4.367 1.19 5.617.793 1.244 1.985 1.865 3.577 1.865 1.598 0 2.793-.622 3.586-1.866s1.19-3.115 1.19-5.616c0-2.507-.396-4.383-1.189-5.627-.644-1.011-1.555-1.61-2.731-1.8zm11.305 2.369c.541.088.944.485 1.209 1.19.303.806.454 2.094.454 3.867 0 1.766-.151 3.051-.454 3.857s-.787 1.21-1.451 1.21c-.657 0-1.137-.404-1.44-1.21s-.456-2.091-.456-3.857c0-1.772.152-3.061.455-3.867s.783-1.208 1.441-1.208c.083 0 .163.005.24.018zm-22.254-2.174l-2.756-.001-2.987.717-.001 2.57 2.969-.733v9.367l-3.191.001v2.515l9.155-.002v-2.513h-3.191V53.465zm10.333 2.174c.541.088.944.485 1.209 1.19.303.806.456 2.095.456 3.867 0 1.766-.153 3.053-.456 3.859s-.787 1.208-1.45 1.208c-.657 0-1.137-.402-1.44-1.208s-.453-2.093-.453-3.859c0-1.772.15-3.061.453-3.867s.783-1.208 1.441-1.208c.083 0 .163.005.24.018zm-22.254-2.174h-2.756l-2.987.717.001 2.572 2.968-.735v9.369l-3.191-.001v2.515h9.155v-2.515h-3.191V53.464zm34.18 6.044c-.079-.015-.16-.021-.246-.021-.335 0-.619.115-.851.347s-.346.519-.346.861a1.17 1.17 0 0 0 .348.861c.232.226.516.337.851.337a1.17 1.17 0 0 0 .861-.348c.232-.232.347-.516.347-.851 0-.342-.116-.627-.348-.859a1.15 1.15 0 0 0-.615-.328zm-47.07-6.24c-.271-.044-.558-.065-.858-.065-1.592 0-2.783.625-3.575 1.876-.793 1.244-1.19 3.115-1.19 5.616 0 2.494.395 4.368 1.188 5.619.793 1.244 1.987 1.865 3.579 1.865 1.598 0 2.793-.622 3.586-1.866s1.19-3.115 1.19-5.616c0-2.507-.398-4.383-1.191-5.627-.644-1.011-1.553-1.612-2.729-1.801zm35.151 6.242a1.37 1.37 0 0 0-.247-.023c-.335 0-.617.115-.849.347a1.17 1.17 0 0 0-.348.861 1.17 1.17 0 0 0 .348.861c.232.226.515.339.85.339a1.17 1.17 0 0 0 .861-.349 1.15 1.15 0 0 0 .346-.849 1.17 1.17 0 0 0-.348-.861 1.14 1.14 0 0 0-.613-.325zm-46.1-6.046l-2.756.001-2.988.714v2.572l2.968-.735v9.369h-3.191l.002 2.513h9.155v-2.515h-3.191V53.464zm10.333 2.175c.541.088.944.485 1.209 1.19.303.806.454 2.094.454 3.867 0 1.766-.151 3.051-.454 3.857s-.787 1.208-1.45 1.208c-.657 0-1.137-.402-1.44-1.208s-.456-2.091-.456-3.857c0-1.772.152-3.061.455-3.867s.783-1.21 1.441-1.21a1.49 1.49 0 0 1 .24.02zm-23.226-2.37c-.271-.044-.556-.067-.855-.067-1.592 0-2.785.625-3.577 1.875-.793 1.244-1.19 3.117-1.19 5.618 0 2.494.398 4.367 1.19 5.617.793 1.244 1.985 1.865 3.577 1.865 1.598 0 2.795-.622 3.588-1.866s1.188-3.116 1.188-5.616c0-2.507-.396-4.383-1.189-5.627-.644-1.011-1.555-1.61-2.731-1.8zm-.616 2.369c.541.088.946.485 1.211 1.19.303.806.454 2.094.454 3.867 0 1.766-.153 3.053-.456 3.859s-.785 1.208-1.449 1.208c-.657 0-1.139-.403-1.442-1.208s-.453-2.093-.453-3.859c0-1.772.15-3.061.453-3.867s.783-1.208 1.441-1.208c.083 0 .163.005.24.018zm23.847 3.871c-.079-.015-.16-.021-.246-.021-.335 0-.619.115-.851.347a1.17 1.17 0 0 0-.348.861 1.17 1.17 0 0 0 .349.861c.232.226.516.337.851.337.342 0 .627-.116.859-.348s.349-.516.349-.851a1.17 1.17 0 0 0-.348-.861c-.174-.174-.38-.282-.615-.326zm-23.84.001c-.079-.015-.16-.023-.246-.023-.335 0-.619.115-.851.347a1.17 1.17 0 0 0-.348.861 1.17 1.17 0 0 0 .348.861c.232.226.515.339.85.339a1.17 1.17 0 0 0 .861-.349c.232-.232.348-.514.348-.849a1.17 1.17 0 0 0-.349-.861 1.14 1.14 0 0 0-.613-.325zm85.025 18.703l-2.756.001-2.988.714.001 2.572 2.968-.735v9.369l-3.191.001.002 2.513h9.155v-2.513l-3.191-.001V78.213zm-12.893-.194c-.271-.044-.556-.067-.855-.067-1.592 0-2.785.625-3.577 1.875-.793 1.244-1.19 3.117-1.19 5.618 0 2.494.398 4.367 1.19 5.617.793 1.244 1.985 1.865 3.577 1.865 1.598 0 2.795-.62 3.587-1.864s1.188-3.117 1.188-5.618c0-2.507-.396-4.383-1.189-5.627-.644-1.011-1.555-1.61-2.731-1.8zm-10.949.195h-2.756l-2.987.717.001 2.57 2.968-.733v9.367h-3.191v2.515l9.155-.002v-2.513l-3.191.001V78.214zm10.333 2.174c.541.088.946.485 1.211 1.19.303.806.454 2.094.454 3.867 0 1.766-.153 3.053-.456 3.859s-.785 1.208-1.449 1.208c-.657 0-1.139-.403-1.442-1.208s-.453-2.093-.453-3.859c0-1.772.15-3.061.453-3.867s.783-1.208 1.44-1.208c.083 0 .163.005.24.018zm-23.224-2.369c-.271-.044-.558-.065-.858-.065-1.592 0-2.785.625-3.577 1.875-.793 1.244-1.188 3.116-1.188 5.616 0 2.494.396 4.366 1.188 5.617.793 1.244 1.986 1.867 3.578 1.867 1.598 0 2.793-.622 3.586-1.866s1.19-3.117 1.19-5.618c0-2.507-.398-4.383-1.191-5.627a3.82 3.82 0 0 0-2.729-1.799zm-10.951.195h-2.754l-2.989.716v2.572l2.968-.735v9.369h-3.191v2.513h9.157l-.002-2.515h-3.189l-.001-11.921zm10.335 2.176c.541.088.944.485 1.209 1.19.303.806.454 2.094.454 3.867 0 1.766-.151 3.051-.454 3.857s-.787 1.208-1.45 1.208c-.657 0-1.137-.402-1.44-1.208s-.456-2.091-.456-3.857c0-1.772.152-3.061.455-3.867s.783-1.21 1.441-1.21a1.49 1.49 0 0 1 .24.02zm23.847 3.871c-.079-.015-.16-.023-.246-.023-.335 0-.619.115-.851.347a1.17 1.17 0 0 0-.348.861 1.17 1.17 0 0 0 .348.861c.232.226.515.339.85.339a1.17 1.17 0 0 0 .861-.348c.232-.232.349-.516.349-.851a1.17 1.17 0 0 0-.349-.861 1.14 1.14 0 0 0-.613-.325zm-46.1-6.046l-2.756.001-2.986.715-.001 2.572 2.968-.735v9.369l-3.189.001v2.513h9.155v-2.513l-3.191-.001V78.213zm-12.893-.194c-.271-.044-.556-.067-.855-.067-1.592 0-2.785.625-3.577 1.875-.793 1.244-1.188 3.117-1.188 5.618 0 2.494.396 4.366 1.188 5.617.793 1.244 1.985 1.865 3.577 1.865 1.598 0 2.795-.62 3.587-1.864s1.188-3.117 1.188-5.618c0-2.507-.396-4.383-1.189-5.627-.644-1.011-1.555-1.61-2.731-1.8zm35.151 6.24a1.35 1.35 0 0 0-.246-.023 1.16 1.16 0 0 0-.851.349 1.17 1.17 0 0 0-.348.861c0 .342.118.627.35.859.232.226.515.339.85.339.342 0 .627-.116.859-.348s.349-.516.349-.851a1.17 1.17 0 0 0-.348-.861c-.174-.174-.38-.282-.615-.326zm-47.07-6.24c-.271-.044-.558-.065-.858-.065-1.592 0-2.785.625-3.577 1.875-.793 1.244-1.188 3.116-1.188 5.616 0 2.494.396 4.366 1.188 5.617.793 1.244 1.985 1.867 3.577 1.867 1.598 0 2.795-.622 3.588-1.866s1.19-3.117 1.19-5.618c0-2.507-.398-4.383-1.191-5.627a3.82 3.82 0 0 0-2.729-1.799zm11.305 2.369c.541.088.944.485 1.209 1.19.303.806.454 2.094.454 3.867 0 1.766-.151 3.053-.454 3.859s-.787 1.208-1.45 1.208c-.657 0-1.139-.403-1.442-1.208s-.453-2.093-.453-3.859c0-1.772.15-3.061.453-3.867s.783-1.208 1.441-1.208a1.52 1.52 0 0 1 .242.018zm-11.921.001c.541.088.944.485 1.209 1.19.303.806.454 2.094.454 3.867 0 1.766-.151 3.051-.454 3.857s-.787 1.208-1.45 1.208c-.657 0-1.137-.402-1.44-1.208s-.456-2.091-.456-3.857c0-1.772.153-3.063.456-3.869s.783-1.208 1.441-1.208a1.49 1.49 0 0 1 .24.02zm11.926 3.87c-.079-.015-.16-.023-.246-.023-.335 0-.619.115-.851.347a1.17 1.17 0 0 0-.348.861 1.17 1.17 0 0 0 .348.861c.232.226.515.339.85.339a1.17 1.17 0 0 0 .861-.348c.232-.232.349-.516.349-.851a1.17 1.17 0 0 0-.348-.861c-.174-.174-.38-.282-.615-.326zm-11.921 0c-.079-.015-.16-.023-.246-.023a1.16 1.16 0 0 0-.851.349c-.232.232-.348.517-.348.859a1.17 1.17 0 0 0 .348.861c.232.226.517.339.852.339.342 0 .627-.116.859-.348s.349-.516.349-.851a1.17 1.17 0 0 0-.348-.861c-.174-.174-.38-.282-.615-.326zm85.024 18.705h-2.756l-2.986.715-.001 2.572 2.969-.733v9.367h-3.191v2.513h9.155v-2.513l-3.191-.001v-11.919zm-11.921 0l-2.756-.001-2.987.716.001 2.57 2.968-.733v9.367l-3.191.001v2.515l9.155-.002v-2.513h-3.191v-11.921zm-12.891-.196c-.271-.044-.558-.065-.858-.065-1.592 0-2.783.625-3.575 1.876-.793 1.244-1.19 3.115-1.19 5.616 0 2.494.396 4.366 1.188 5.617.793 1.244 1.986 1.867 3.578 1.867 1.598 0 2.793-.622 3.586-1.866s1.19-3.115 1.19-5.616c0-2.507-.396-4.383-1.189-5.627-.644-1.011-1.555-1.612-2.731-1.802zm-11.921 0c-.271-.044-.556-.065-.856-.065-1.592 0-2.785.625-3.577 1.875-.793 1.244-1.19 3.117-1.19 5.618 0 2.494.398 4.367 1.19 5.617.793 1.244 1.985 1.865 3.577 1.865 1.598 0 2.793-.622 3.586-1.866s1.19-3.115 1.19-5.616c0-2.507-.396-4.383-1.189-5.627-.644-1.011-1.555-1.612-2.731-1.802zm11.304 2.371c.541.088.944.485 1.209 1.19.303.806.454 2.094.454 3.867 0 1.766-.151 3.051-.454 3.857s-.787 1.208-1.45 1.208c-.657 0-1.137-.402-1.44-1.208s-.456-2.091-.456-3.857c0-1.772.152-3.061.455-3.867s.783-1.21 1.441-1.21a1.49 1.49 0 0 1 .24.02zm-22.254-2.176l-2.756.001-2.986.715-.001 2.572 2.97-.735v9.369l-3.191.001v2.513h9.155v-2.513l-3.191-.001v-11.921zm10.333 2.175c.541.088.944.485 1.209 1.19.303.806.456 2.095.456 3.867 0 1.766-.153 3.051-.456 3.857s-.787 1.21-1.451 1.21c-.657 0-1.137-.404-1.44-1.21s-.454-2.091-.454-3.857c0-1.772.15-3.061.453-3.867s.783-1.208 1.441-1.208c.083 0 .163.005.24.018zm-23.224-2.369a5.39 5.39 0 0 0-.857-.067c-1.592 0-2.785.625-3.577 1.875-.793 1.244-1.188 3.117-1.188 5.618 0 2.494.396 4.366 1.188 5.617.793 1.244 1.985 1.867 3.577 1.867 1.598 0 2.795-.622 3.588-1.866s1.188-3.117 1.188-5.618c0-2.507-.396-4.383-1.189-5.627a3.82 3.82 0 0 0-2.729-1.799zm35.149 6.239c-.079-.014-.16-.021-.246-.021-.335 0-.619.115-.851.347s-.346.519-.346.861.116.627.348.859c.232.226.515.339.85.339a1.17 1.17 0 0 0 .861-.348c.232-.232.347-.516.347-.851a1.17 1.17 0 0 0-.348-.861c-.174-.174-.38-.282-.615-.326zm-47.07-6.24c-.271-.044-.558-.065-.858-.065-1.592 0-2.783.625-3.575 1.876-.793 1.244-1.19 3.115-1.19 5.616 0 2.494.396 4.366 1.188 5.617.793 1.244 1.986 1.867 3.578 1.867 1.598 0 2.793-.622 3.586-1.866s1.19-3.117 1.19-5.618c0-2.507-.398-4.383-1.191-5.627a3.82 3.82 0 0 0-2.729-1.799zm11.305 2.369c.541.088.944.485 1.209 1.19.303.806.454 2.096.454 3.869 0 1.766-.151 3.051-.454 3.857s-.787 1.208-1.45 1.208c-.657 0-1.139-.403-1.442-1.208s-.453-2.093-.453-3.859c0-1.772.152-3.061.455-3.867s.783-1.208 1.441-1.208c.083 0 .163.005.24.018zm23.847 3.871c-.079-.014-.162-.021-.248-.021-.335 0-.617.115-.849.347a1.17 1.17 0 0 0-.348.861 1.17 1.17 0 0 0 .348.861c.232.226.516.337.851.337a1.17 1.17 0 0 0 .861-.348c.232-.232.347-.516.347-.851 0-.342-.116-.627-.348-.859-.174-.174-.377-.284-.613-.327zm-46.1-6.045l-2.756-.001-2.989.716.001 2.572 2.968-.735v9.369l-3.191-.001v2.515h9.157v-2.515h-3.191v-11.921zm10.333 2.175c.541.088.944.485 1.209 1.19.303.806.454 2.094.454 3.867 0 1.766-.151 3.051-.454 3.857s-.787 1.208-1.45 1.208c-.657 0-1.137-.402-1.44-1.208s-.456-2.091-.456-3.857c0-1.772.152-3.061.455-3.867s.783-1.21 1.441-1.21a1.49 1.49 0 0 1 .24.02zm11.926 3.87a1.35 1.35 0 0 0-.246-.023 1.16 1.16 0 0 0-.851.349c-.232.232-.348.517-.348.859a1.17 1.17 0 0 0 .348.861c.232.226.517.339.852.339.342 0 .627-.116.859-.348s.349-.516.349-.851a1.17 1.17 0 0 0-.348-.861c-.174-.174-.38-.282-.615-.326zm-11.921 0a1.35 1.35 0 0 0-.246-.023 1.16 1.16 0 0 0-.851.349 1.17 1.17 0 0 0-.348.861c0 .342.118.627.35.859.232.226.515.339.85.339.342 0 .627-.116.859-.348s.349-.516.349-.851a1.17 1.17 0 0 0-.348-.861c-.174-.174-.38-.282-.615-.326z"
      fill="url(#f)"/>
  </g>
  <path d="M219.463 129.09c-26.794 21.983-41.808 21.007-38.075 13.138s42.326-41.655 51.447-43.748 2.275 18.041-13.372 30.61z" opacity=".765" fill="url(#i)"/>
</svg>
