<svg width="16" height="16" viewBox="0 0 16 16" fill="none" xmlns="http://www.w3.org/2000/svg">
<g clip-path="url(#clip0_1_6)">
<path d="M8.13659 4.18651C8.12639 4.18661 8.11638 4.18836 8.10719 4.19166C8.098 4.19497 8.08999 4.19975 8.08354 4.20564C8.07708 4.21154 8.07243 4.21843 8.06991 4.22581C8.0674 4.23318 8.06694 4.24086 8.06884 4.24834L11.1507 15.8001C12.6417 15.1579 13.9023 14.0774 14.7646 12.7019L8.19752 4.21214C8.19128 4.20425 8.18241 4.19773 8.17171 4.19323C8.16102 4.18873 8.14886 4.18641 8.13659 4.18651Z" fill="currentColor" fill-opacity="0.3"/>
<path d="M7.98626 0.45253C3.56783 0.45253 -0.0138721 4.03424 -0.0138721 8.45254C-0.0138721 9.95546 0.409403 11.4281 1.20777 12.7015L7.87788 4.07843C7.92574 4.01614 8.04644 4.01614 8.0943 4.07843L14.7644 12.7019C15.5628 11.4283 15.9864 9.9556 15.9864 8.45254C15.9864 4.03424 12.4047 0.45253 7.98626 0.45253Z" fill="currentColor"/>
</g>
<defs>
<linearGradient id="paint0_linear_1_6" x1="8.13662" y1="4.18651" x2="13.2799" y2="14.4509" gradientUnits="userSpaceOnUse">
<stop stop-opacity="0"/>
<stop offset="0.495173" stop-opacity="0.3"/>
<stop offset="1" stop-opacity="0.3"/>
</linearGradient>
<clipPath id="clip0_1_6">
<rect width="16" height="16" />
</clipPath>
</defs>
</svg>
