<svg version="1.1" id="how_did_you_contribute_logo" xmlns="http://www.w3.org/2000/svg" x="0px" y="0px" width="16px" height="16px" viewBox="0 0 16 16" enable-background="new 0 0 16 16" xml:space="preserve">
<g>
	<path fill="currentColor" d="M1.713,10.652V5.466h0.791v0.737c0.381-0.57,0.931-0.854,1.65-0.854c0.313,0,0.6,0.056,0.862,0.168c0.262,0.112,0.458,0.26,0.588,0.442c0.13,0.182,0.221,0.399,0.273,0.649c0.034,0.163,0.05,0.448,0.05,0.855v3.188H5.048V7.497c0-0.358-0.034-0.626-0.103-0.803C4.876,6.517,4.756,6.375,4.583,6.269C4.408,6.163,4.203,6.111,3.969,6.111C3.594,6.111,3.272,6.23,3,6.467C2.729,6.704,2.592,7.156,2.592,7.82v2.832H1.713z"/>
	<path fill="currentColor" d="M6.835,8.503V7.619h1.954v0.884H6.835z"/>
	<path fill="currentColor" d="M9.428,8c0-0.96,0.268-1.671,0.801-2.134c0.445-0.384,0.99-0.576,1.631-0.576c0.713,0,1.297,0.233,1.748,0.701c0.453,0.467,0.68,1.112,0.68,1.936c0,0.667-0.1,1.191-0.301,1.574c-0.199,0.383-0.49,0.68-0.873,0.893c-0.383,0.211-0.801,0.316-1.254,0.316c-0.727,0-1.313-0.232-1.76-0.697C9.652,9.546,9.428,8.876,9.428,8z M10.332,8c0,0.664,0.145,1.162,0.434,1.492s0.654,0.496,1.094,0.496c0.438,0,0.801-0.166,1.09-0.498s0.434-0.838,0.434-1.52c0-0.641-0.145-1.127-0.436-1.458s-0.654-0.496-1.088-0.496c-0.439,0-0.805,0.165-1.094,0.493C10.477,6.84,10.332,7.336,10.332,8z"/>
</g>
</svg>
