<svg version="1.1" id="humanitarian_openstreetmap_team_logo" xmlns="http://www.w3.org/2000/svg" width="16px" height="16px" viewBox="0 34.5 16 16" enable-background="new 0 34.5 16 16" xml:space="preserve">
<g>
	<path fill="currentColor" d="M7.434,41.693c0-0.096,0.021-0.183,0.063-0.258c0.041-0.075,0.096-0.138,0.164-0.186c0.067-0.05,0.143-0.086,0.229-0.111c0.084-0.025,0.169-0.038,0.254-0.038c0.086,0,0.171,0.013,0.256,0.038C8.484,41.164,8.56,41.2,8.628,41.25c0.068,0.048,0.123,0.11,0.163,0.186c0.042,0.075,0.063,0.162,0.063,0.258v1.284c0,0.099-0.021,0.187-0.063,0.26c-0.041,0.076-0.095,0.135-0.163,0.185c-0.068,0.048-0.144,0.086-0.229,0.109c-0.084,0.025-0.17,0.039-0.256,0.039c-0.085,0-0.17-0.014-0.254-0.039c-0.085-0.023-0.161-0.062-0.229-0.109c-0.068-0.05-0.123-0.108-0.164-0.185c-0.042-0.073-0.063-0.161-0.063-0.26V41.693z M7.841,42.978c0,0.085,0.047,0.146,0.104,0.187c0.056,0.038,0.123,0.061,0.202,0.061c0.077,0,0.145-0.022,0.201-0.061c0.056-0.041,0.088-0.102,0.088-0.187v-1.281c0-0.085-0.032-0.147-0.088-0.186c-0.057-0.04-0.125-0.067-0.201-0.067c-0.079,0-0.146,0.027-0.202,0.067c-0.057,0.038-0.104,0.101-0.104,0.186V42.978z"/>
	<polygon fill="currentColor" points="6.7,41.099 6.7,42.141 6.051,42.141 6.051,41.099 5.696,41.099 5.696,43.571 6.051,43.571 6.051,42.529 6.7,42.529 6.7,43.571 7.082,43.571 7.082,41.099"/>
	<polygon fill="currentColor" points="10.535,41.099 9.125,41.099 9.125,41.462 9.645,41.462 9.64,43.571 10.014,43.571 10.014,41.462 10.535,41.462"/>
	<path fill="currentColor" d="M13.149,43.303h2.869l-1.715-1.932l-1.708-1.931l-1.708-1.927H2.305l1.708,1.927H1.137l1.709,1.931l0.013,0.014h-2.876l1.715,1.933l1.708,1.93l1.708,1.927h8.581l-1.709-1.927l-0.013-0.019h2.877L13.149,43.303zM8,45.554c-1.916,0-3.469-1.437-3.469-3.209c0-1.774,1.553-3.211,3.469-3.211c1.916,0,3.47,1.437,3.47,3.211C11.47,44.117,9.916,45.554,8,45.554z"/>
</g>
</svg>
