<!-- https://en.namu.wiki/w/%EC%98%A4%ED%94%88%EC%A7%80%EC%98%A4%ED%94%BD%EC%85%98 -->
<svg xmlns="http://www.w3.org/2000/svg" width="16" height="16" viewBox="0 0 107.43229 100.52796">
  <g transform="translate(-41.59 -94.407)">
    <ellipse cx="-121.74805" cy="94.363007" rx="39.6875" ry="33.639881" fill-opacity=".13" stroke="#000" stroke-width="3" transform="scale(-1 1) rotate(-20)"/>
    <ellipse cx="-121.37007" cy="94.174011" rx="20.410715" ry="33.072914" fill="none" stroke="#000" transform="scale(-1 1) rotate(-20)"/>
    <path d="M-81.859 93.448a69.359 27.592 0 0 1-79.448.197M-89.001 75.617a69.359 46.869 0 0 1-64.497-.2M-89.687 112.996a95.628 71.626 0 0 1-65.347-.54" fill="none" stroke="#000" transform="scale(-1 1) rotate(-20)"/>
    <path d="M-121.243 60.781a47.814 132.103 0 0 1-1.285 67.373" fill="none" stroke="#000" transform="scale(-1 1) rotate(-20)"/>
    <circle cx="-114.63764" cy="171.88988" r="6.8035707" fill-opacity=".13" stroke="#000" stroke-width="3" transform="scale(-1 1)"/>
    <circle cx="-130.51263" cy="182.47322" r="4.9136896" fill-opacity=".13" stroke="#000" stroke-width="3" transform="scale(-1 1)"/>
    <circle cx="-144.11978" cy="190.03275" r="3.4017854" fill-opacity=".13" stroke="#000" stroke-width="3" transform="scale(-1 1)"/>
  </g>
</svg>
