<?xml version="1.0" encoding="UTF-8"?>
<!--Generator: Adobe Illustrator 25.2.3, SVG Export Plug-In . SVG Version: 6.00 Build 0)-->
<svg version="1.1" id="svg4247" filter="grayscale(100%) brightness(65%)" width="16" height="16" xmlns:cc="http://creativecommons.org/ns#" xmlns:dc="http://purl.org/dc/elements/1.1/" xmlns:inkscape="http://www.inkscape.org/namespaces/inkscape" xmlns:rdf="http://www.w3.org/1999/02/22-rdf-syntax-ns#" xmlns:sodipodi="http://sodipodi.sourceforge.net/DTD/sodipodi-0.dtd" xmlns:svg="http://www.w3.org/2000/svg" xmlns="http://www.w3.org/2000/svg" xmlns:xlink="http://www.w3.org/1999/xlink" x="0px" y="0px" viewBox="0 0 117.9 118.5" xml:space="preserve" enable-background="new 0 0 117.9 118.5">
<sodipodi:namedview bordercolor="#666666" borderopacity="1" gridtolerance="10" guidetolerance="10" id="namedview4249" inkscape:current-layer="g4255" inkscape:cx="239.91391" inkscape:cy="46.706091" inkscape:pageopacity="0" inkscape:pageshadow="2" inkscape:window-height="704" inkscape:window-maximized="0" inkscape:window-width="1366" inkscape:window-x="0" inkscape:window-y="27" inkscape:zoom="1.246935" objecttolerance="10" pagecolor="#ffffff" showgrid="false"/>
<g id="layer8">
	<g id="g8737" transform="translate(0,-10)">
		<path id="path5604-26-0-3" d="M82.3,44.4c-8.5-0.6-17,1.6-23.5,6.5c-0.1,0.1-0.2,0.1-0.2,0.2 c-10.6,8.3-12.6,21.8-6,33l-1.1,0.6c1.1,1.8,2.4,3.6,3.9,5.2l-6.4,5c-0.6-0.3-1.3-0.5-2.2-0.7l-1.4,1.1c-0.5-0.2-1-0.4-1.5-0.5 l-31,24.1c0,0.4,0.1,0.9,0.3,1.4l-0.3,0.2l-0.5,0.4c0.3,1.6,1,2.9,2.6,4.4c1.7,1.5,3.1,2.1,5,2.6l0.5-0.4l0.3-0.3 c0.5,0.2,1,0.4,1.5,0.4l31-24.1c-0.1-0.4-0.3-0.8-0.5-1.2l1.4-1.1c-0.1-0.7-0.3-1.3-0.6-1.9l6.4-5c1.8,1.4,3.8,2.7,5.9,3.7 l0.8-0.9c12.7,6.5,28.7,5.9,39.3-2.4c0.1-0.1,0.1-0.1,0.2-0.2c12.9-10.3,12.8-28.2-0.2-40.1C99.5,48.3,90.9,45,82.3,44.4 L82.3,44.4z M82.1,45.7C82.2,45.7,82.2,45.7,82.1,45.7c0.6,0,1,0.1,1.5,0.1c0.5,0.1,0.9,0.1,1.4,0.2h0.1h0.1c0.1,0,0.1,0,0.2,0 c0.4,0.1,0.9,0.2,1.3,0.2c0.3,0.1,0.6,0.1,0.9,0.2c0.2,0,0.3,0.1,0.5,0.1c0.3,0.1,0.7,0.2,1,0.3c0.1,0,0.3,0.1,0.5,0.1h0.1 c0.5,0.1,0.9,0.3,1.4,0.4h0.1c0.5,0.2,0.9,0.3,1.4,0.5h0.1c0.5,0.2,0.9,0.4,1.4,0.6h0.1c0.5,0.2,0.9,0.4,1.4,0.6c0,0,0,0,0.1,0 c0.4,0.2,0.9,0.4,1.3,0.7l0,0c0.4,0.2,0.9,0.5,1.3,0.7l0,0c0.4,0.3,0.9,0.5,1.3,0.8c0.3,0.2,0.5,0.4,0.8,0.5 c0.2,0.1,0.4,0.2,0.5,0.4l0,0c0.4,0.3,0.8,0.6,1.3,0.9c0.8,0.6,1.7,1.3,2.4,2c0.8,0.7,1.5,1.5,2.2,2.2l0,0c0.3,0.4,0.7,0.7,1,1.1 c0.1,0.2,0.3,0.3,0.4,0.5c0.2,0.2,0.4,0.4,0.5,0.7l0,0c0.3,0.4,0.6,0.8,0.8,1.2l0,0c0.3,0.4,0.5,0.8,0.8,1.2l0,0 c0.2,0.4,0.5,0.8,0.7,1.2v0.1c0.2,0.4,0.4,0.8,0.6,1.2c0,0,0,0,0,0.1c0.2,0.4,0.4,0.8,0.5,1.2c0,0,0,0,0,0.1 c0.2,0.4,0.3,0.8,0.5,1.2v0.1c0.1,0.4,0.3,0.8,0.4,1.2v0.1c0,0.1,0.1,0.3,0.1,0.4c0.1,0.3,0.2,0.6,0.2,0.9c0,0.1,0.1,0.3,0.1,0.4 c0.1,0.3,0.1,0.5,0.2,0.8c0.1,0.4,0.1,0.7,0.2,1.1c0,0.1,0,0.1,0,0.2v0.1v0.1c0,0.4,0.1,0.8,0.1,1.2c0,0.4,0.1,0.8,0.1,1.2v0.1 c0,0.4,0,0.9,0,1.3s0,0.8-0.1,1.1c0,0,0,0.1,0,0.2c0,0.4-0.1,0.7-0.1,1.1c-0.1,0.4-0.1,0.8-0.2,1.2v0.1V80 c-0.1,0.4-0.2,0.7-0.3,1.1c0,0.1,0,0.1,0,0.2c-0.1,0.4-0.2,0.7-0.3,1.1c-0.1,0.2-0.2,0.5-0.3,0.7s-0.2,0.5-0.3,0.7 c-0.1,0.3-0.3,0.7-0.5,1c0,0.1-0.1,0.1-0.1,0.2c0,0,0,0.1-0.1,0.1c-0.2,0.3-0.4,0.7-0.5,1c-0.2,0.3-0.4,0.6-0.6,1 c0,0.1-0.1,0.1-0.1,0.2c-0.2,0.3-0.4,0.6-0.6,0.9c0,0.1-0.1,0.1-0.1,0.2c-0.1,0.1-0.2,0.3-0.3,0.4c-0.2,0.2-0.4,0.5-0.5,0.7l0,0 c-0.2,0.3-0.5,0.6-0.7,0.9c-0.2,0.2-0.5,0.5-0.7,0.7c-0.1,0.1-0.2,0.2-0.3,0.3c-0.1,0.1-0.1,0.1-0.2,0.2c-0.1,0.1-0.2,0.1-0.2,0.2 c-0.3,0.3-0.5,0.5-0.8,0.8s-0.6,0.5-0.9,0.8c-0.1,0.1-0.1,0.1-0.2,0.2c-10.2,8-25.2,8.3-37.3,2l0.1-0.1c-1.8-0.9-3.5-1.9-5.1-3.1 c-0.3-0.2-0.5-0.4-0.8-0.6c-0.2-0.2-0.5-0.4-0.7-0.6l-0.1-0.1c-0.4-0.3-0.8-0.7-1.2-1c-0.4-0.4-0.8-0.7-1.1-1.1l-0.1-0.1 c-0.2-0.2-0.4-0.4-0.6-0.7c-0.2-0.2-0.4-0.5-0.6-0.7c-1.3-1.5-2.4-3-3.3-4.6h-0.1c-6.4-10.7-4.8-23.3,5.4-31.3 c0.1-0.1,0.2-0.1,0.2-0.2c0.3-0.2,0.6-0.5,1-0.7c0.3-0.2,0.6-0.4,1-0.6c0.1-0.1,0.3-0.2,0.4-0.3c0.2-0.1,0.3-0.2,0.5-0.3 c0.3-0.2,0.6-0.4,0.9-0.5c0.4-0.2,0.7-0.4,1.1-0.6c0.3-0.1,0.6-0.3,0.8-0.4c0.2-0.1,0.4-0.2,0.6-0.3c0.3-0.1,0.7-0.3,1-0.4 c0.1,0,0.2-0.1,0.3-0.1c0.5-0.2,0.9-0.3,1.4-0.5c0.4-0.1,0.8-0.3,1.3-0.4c0.1,0,0.2,0,0.2,0c0.5-0.1,0.9-0.2,1.4-0.4 c0.3-0.1,0.5-0.1,0.8-0.2c0.3-0.1,0.6-0.1,0.8-0.2c0.4-0.1,0.9-0.1,1.3-0.2h0.1c0.2,0,0.4-0.1,0.6-0.1c0.3,0,0.7-0.1,1-0.1h0.1 c0.5,0,0.9-0.1,1.4-0.1c0.9,0,1.9,0,2.8,0C81.1,45.6,81.6,45.6,82.1,45.7L82.1,45.7z" opacity="0.7" fill="#2D3335" enable-background="new"/>
		<g id="path3834-49-7" opacity="0.5" enable-background="new">
			<linearGradient id="SVGID_1_" gradientUnits="userSpaceOnUse" x1="57.2381" y1="896.4163" x2="57.2381" y2="780.0142" gradientTransform="matrix(1 0 0 0.8466 0 -634.354)">
				<stop offset="0" stop-color="#000000"/>
				<stop offset="1" stop-color="#000000" stop-opacity="0"/>
			</linearGradient>
			<path d="M2.6,31.3c0,0,3.6,4.5,5.7,10.5c2.1,6,3,10.4,3,10.4s-2.7,5.2-4,10.1S4.5,72.5,4.5,72.5S7.3,79,9,84.8 s1.8,9.1,1.8,9.1s-1.9,4.2-3.6,9.9c-1.7,5.7-2.4,12.6-2.4,12.6s4.5-0.8,13.8,0.5s15.6,2.5,15.6,2.5s6.2-1.1,11.6-2.6 c5.4-1.4,7.8-2.7,7.8-2.7s2.7,0.2,10.9,2.6s14.1,3.5,14.1,3.5s6.3-1.1,12.6-2.3c6.3-1.2,12.8-3.3,12.8-3.3s-0.4-2,2.1-10 c2.4-8,4.2-11.4,4.2-11.4s-0.2-1-1.8-7.3s-4.8-12.2-4.8-12.2s0.8-5.1,3.3-10.5c2.4-5.4,4.9-10.9,4.9-10.9s-2.3-6.2-3.6-12.2 s-4-9.7-4-9.7S92.6,34.1,89,34.7c-3.6,0.6-10.1,2.1-10.1,2.1s-4.7-1.7-10.6-3.5c-5.9-1.7-14.4-2.2-14.4-2.2s-1.6,1.4-10.6,3.3 S30,36.7,30,36.7S20.8,33,14.5,32S2.9,31.2,2.6,31.3z" fill="url(#SVGID_1_)"/>
		</g>
	</g>
</g>
<g id="layer4">
	<path id="path3834-9" d="M2.6,2c0,0,3.6,6.3,5.7,13.4c2.1,7.1,3,12.3,3,12.3s-2.7,6.2-4,11.9C6,45.4,4.5,50.7,4.5,50.7 S7.3,58.4,9,65.2s1.8,11.7,1.8,11.7s-1.9,4.9-3.6,11.7c-1.7,6.8-2.4,14.8-2.4,14.8s4.5-1,13.8,0.6s15.6,2.9,15.6,2.9 s6.2-1.3,11.6-3s7.8-3.1,7.8-3.1s2.7,0.2,10.9,3s14.1,4.1,14.1,4.1s6.3-1.3,12.6-2.8c6.3-1.4,12.8-3.9,12.8-3.9s-0.4-2.4,2.1-11.8 c2.2-9.3,4-13.4,4-13.4s-0.2-2.2-1.8-9.5c-1.6-7.4-4.8-14.4-4.8-14.4s0.8-5.1,3.3-11.5c2.4-6.4,4.9-12.9,4.9-12.9 s-2.3-7.4-3.6-14.4s-4-12.4-4-12.4S92.3,5.2,88.7,6c-3.6,0.7-10.1,2.5-10.1,2.5S73.9,6.4,68,4.4S53.6,1.7,53.6,1.7S52,3.4,43,5.6 S29.7,8.4,29.7,8.4S20.8,4,14.5,2.8S2.9,1.9,2.6,2z" fill="#CEEEAB"/>
	<g>
		<g>
			<defs>
				<path id="SVGID_2_" d="M2.6-8c0,0,3.6,6.3,5.7,13.4c2.1,7.1,3,12.3,3,12.3s-2.7,6.2-4,11.9C6,35.4,4.5,40.7,4.5,40.7 S7.3,48.4,9,55.2s1.8,11.7,1.8,11.7s-1.9,4.9-3.6,11.7c-1.7,6.8-2.4,14.8-2.4,14.8s4.5-1,13.8,0.6s15.6,2.9,15.6,2.9 s6.2-1.3,11.6-3s7.8-3.1,7.8-3.1s2.7,0.2,10.9,3s14.1,4.1,14.1,4.1s6.3-1.3,12.6-2.8c6.3-1.4,12.8-3.9,12.8-3.9 s-0.4-2.4,2.1-11.8c2.2-9.3,4-13.4,4-13.4s-0.2-2.2-1.8-9.5c-1.6-7.4-4.8-14.4-4.8-14.4s0.8-5.1,3.3-11.5 c2.4-6.4,4.9-12.9,4.9-12.9s-2.3-7.4-3.6-14.4s-4-12.4-4-12.4S92.3-4.8,88.7-4c-3.6,0.7-10.1,2.5-10.1,2.5S73.9-3.6,68-5.6 S53.6-8.3,53.6-8.3S52-6.6,43-4.4S29.7-1.6,29.7-1.6S20.8-6,14.5-7.2S2.9-8.1,2.6-8z"/>
			</defs>
			<clipPath id="SVGID_3_">
				<use xlink:href="#SVGID_2_" overflow="visible"/>
			</clipPath>
			<g id="g5438" transform="translate(0,-10)" clip-path="url(#SVGID_3_)">
				<path id="path5436" d="M51.7,8.7l-2.1,3.4c-0.4,4.3-1.1,6.6-4.1,8c-3,1.3-5.9,1.7-5.3,3.6s6.3,4.5,6.9,6.3 s4,0.8,5.3,3.4c1.3,2.5,1,7.4-1.8,8.3s-8.4,0.2-9.8,4.6c-1.3,4.3-2.3,5.1-4.3,6.2s-3.5,5.1-1.7,8s5.9-0.6,7.2-3.1 c1.3-2.5,3.5-4.2,3.5-4.2H57l28.5-0.8l1.6-1.8c0,0,1.6,1.9,1.3,4.2c-0.2,2.3-1.8,7.1,0.1,8.3c1.9,1.2,9.4-1,11.6-3.4 c2.2-2.4-2.3-13.6-5.1-14.2s-8.9-0.8-8.2-3.4c0.7-2.5,5.7,2.2,8.3,1.6c2.7-0.6,8.1-10.1,5.8-12.2S89.2,29,88.5,27.6 c-0.7-1.3,10.1-3.9,10.7-5.3c0.6-1.4-1.2-3.5-3-4.1s-6.8,7.8-10.1,7.6s-9.7,2.8-8.3,5.6c1.3,2.8-2.9,5.3-7,3.1 s-11.9-6.3-10.5-11.6s10.4-9.1,10.4-9.1L51.7,8.7z M45.1,60.5c-0.8,0.1-2.2,2.3-2.4,3.4c-0.2,1.2-1.6,3.3-1.7,5.9 s2.3,3.3,4.2,3.1c1.9-0.1,1.3-3.3,1-7.2C46.1,65.7,46,60.8,45.1,60.5C45.2,60.5,45.2,60.5,45.1,60.5z M89.9,85.4 c-3.1,0.1-3.2,3.6-3.6,4.3c-0.6,1.1,1.1,6.6,1,8.7s-2.3,2.5-4.6,4.7c-2.3,2.2,0.2,7.7,5.4,15l21.6,0.6l-0.5-16.9 c0,0,2.3-2.1-10-11.7C94.6,86.4,91.7,85.3,89.9,85.4z M17.5,93.4c-1.9-0.1-4,2.8-4.7,3.7c-0.7,1-3,2.4-8.2,4.6l-7,16.5l25.6,2.1 c0,0,0.8-5.3-2.1-7.6c-2.9-2.3-8.3-2.8-8.8-6.4s4.5-4.8,6.6-6.9c2.2-2.1,1-5.4-1.1-5.9C17.7,93.4,17.6,93.4,17.5,93.4z" fill="#A6DD8B"/>
			</g>
		</g>
	</g>
	<path id="path5280" d="M74.7,37.3c-2.3,0-4.4,0.5-5.6,1.5c-3.9,3.4-16.9,0.4-23.4,3.4s-6.4,18.3-7.1,21.5 s-8.4,10-9.7,11.3c-1.2,1.3-6.4,3.5-9.4,4.1s-6.2,3.5-7.5,5.3c-1,1.3-3.6,3.1-4.9,4c0,0.1,0,0.2-0.1,0.3c-0.1,0.3-0.1,0.5-0.2,0.8 c2.4-0.8,5.4-3.9,8-6.6c3-3,9.7-3.7,13.4-5.6s6.9-9.5,12.8-11.5s10.3,5.7,11.7,8.9c1.4,3.3,0.8,6.2,1.8,8.2c1,2.1,5.3,5.7,5.6,6.5 c0.2,0.8-2.4,3.1-3,4.1s-5.1,3.4-5.7,4.2c-0.5,0.7-0.9,3.3-1.1,4.5c0.2-0.1,0.4-0.1,0.5-0.2c0.2-1.2,0.7-3.4,1.4-4.1 c1-1,5.4-2.2,6-4.1s3.4-3.1,3.4-3.1s1.3,1.9,7.7,6.8c4.3,3.2,6.2,7.5,7,10c0.3,0.1,0.7,0.2,1,0.3c-0.6-2.1-2.3-7.8-4.3-10 c-2.4-2.7-8.9-5.2-11-10.6c-2.1-5.4-11.8-16.5-8.4-19.4s8-1.9,13.8,3.6c5.8,5.6,22.3,2.8,27.9,1.8c4.8-0.8,10.1,7.2,11.5,12.6 c0.3-1,0.5-1.9,0.8-2.8c-0.8-0.9-1.8-2.2-2.6-4c-1.8-4.1-5.8-6.4-5.8-6.4s4.2-2.4,7.1-3.7c0.8-0.4,1.5-0.8,2-1.3 c-0.1-0.4-0.1-0.6-0.2-1c0-0.1,0-0.1,0-0.2c-2.3,2.7-9.3,4.6-10.5,5.3c-1.3,0.7-8.8,1.4-17.3,2.2c-8.4,0.7-12.9-3.6-16.5-7.1 c-3.6-3.5-6.3-17.4-1.4-18.3c4.8-1,9.7,6.6,14.5,8.2c4.8,1.6,10.4-7.6,9.5-13C86,39.6,79.8,37.3,74.7,37.3z M49,43.7 c0.6,0,2.8,0.8,3.2,1.1c1.1,1.2,1,3.5,0,3.9s-6.2,3.9-5.1,6.9s0.8,8.7-1.7,8.7s-3.9,0-4.8-1.2c-1-1.2-1-5.8,0-9.5s1.7-7.2,3.9-8.8 C45.9,43.6,47.6,43.7,49,43.7z M55.5,79c0.1,0,0.9,1.7,2.3,3.4c1.4,1.8,1.6,4,1.6,4s-2.1-2.3-2.9-3.9S55.5,79,55.5,79L55.5,79z" fill="#AAC3E7"/>
	<path id="path5319" d="M57.5,30.9c3,0.2,5.9-1.1,5.2-3.1s-6-3.5-6.4-1.4C55.9,28.4,57.2,31.4,57.5,30.9z" opacity="0.387" fill="none" stroke="#6D7F42" stroke-linecap="round" stroke-linejoin="round" enable-background="new"/>
	<path id="path5321" d="M50.7,23.5c-4.1-2.7-4.1-3.5-3.4-3.9s4.9,2.4,6.2,3.9C54.7,24.9,52.4,24.4,50.7,23.5z" opacity="0.387" fill="none" stroke="#6D7F42" stroke-linecap="round" stroke-linejoin="round" enable-background="new"/>
	<g>
		<g>
			<defs>
				<path id="SVGID_4_" d="M2.6-8c0,0,3.6,6.3,5.7,13.4c2.1,7.1,3,12.3,3,12.3s-2.7,6.2-4,11.9C6,35.4,4.5,40.7,4.5,40.7 S7.3,48.4,9,55.2s1.8,11.7,1.8,11.7s-1.9,4.9-3.6,11.7c-1.7,6.8-2.4,14.8-2.4,14.8s4.5-1,13.8,0.6s15.6,2.9,15.6,2.9 s6.2-1.3,11.6-3s7.8-3.1,7.8-3.1s2.7,0.2,10.9,3s14.1,4.1,14.1,4.1s6.3-1.3,12.6-2.8c6.3-1.4,12.8-3.9,12.8-3.9 s-0.4-2.4,2.1-11.8c2.2-9.3,4-13.4,4-13.4s-0.2-2.2-1.8-9.5c-1.6-7.4-4.8-14.4-4.8-14.4s0.8-5.1,3.3-11.5 c2.4-6.4,4.9-12.9,4.9-12.9s-2.3-7.4-3.6-14.4s-4-12.4-4-12.4S92.3-4.8,88.7-4c-3.6,0.7-10.1,2.5-10.1,2.5S73.9-3.6,68-5.6 S53.6-8.3,53.6-8.3S52-6.6,43-4.4S29.7-1.6,29.7-1.6S20.8-6,14.5-7.2S2.9-8.1,2.6-8z"/>
			</defs>
			<clipPath id="SVGID_5_">
				<use xlink:href="#SVGID_4_" overflow="visible"/>
			</clipPath>
			<g id="g5373" transform="translate(0,-10)" clip-path="url(#SVGID_5_)">
				<path id="path5323" d="M5.8,79.1c15.9-1.2,18.5-1.7,17.5-4.9c-1-3.3-4.2-11.3-11.1-10.9c-6.9,0.5-11-3.3-11-3.3" opacity="0.387" fill="none" stroke="#6D7F42" stroke-linecap="round" stroke-linejoin="round" enable-background="new"/>
				<path id="path5311" d="M6.7,91.6c8.8-4.8,13.9-4.1,16.9-5.6c3-1.4,6.4-2.8,7.6-4.6c1.2-1.8,2.8-5.6,2.8-8.7 s-1.7-17.4,1.6-21c3.3-3.6,8.3-12.6,12.6-11.2c4.2,1.3,5.9,4.7,10.6,4.6s10.5-1.9,11.7-5.9s-7.6-7.7-7.7-11.1s2.7-6.9,9.8-8.2 s8.6-2.6,8.6-2.6" opacity="0.387" fill="none" stroke="#6D7F42" enable-background="new"/>
				<path id="path5313" d="M5.2,83.8c7.4-0.7,10.7,1.7,15.2,0.8s6.4-1.4,8.6-2.8c2.2-1.3,2.9-1.8,3-3.1 c0.1-1.3,0.5-6-1.4-10.6c-1.9-4.6-6-15.2-4-18.7c2.1-3.5,2.5-10.4,7.6-11.8s10.1-3,13.4-0.6s6.2,6.9,9.7,7s5.7-0.7,7-2.2 c1.3-1.5,2.2-4.9,0.8-6.6c-1.3-1.7-7.5-2.7-8.3-4.6s-5.2-8.2-0.1-12.9s13-4,13-4" opacity="0.387" fill="none" stroke="#6D7F42" stroke-linecap="round" stroke-linejoin="round" enable-background="new"/>
				<path id="path5315" d="M8.5,82.8c6.6,0.5,10.4,2.1,16.2-0.2c5.8-2.3,6.5-2.5,6.6-4.2s-0.1-7.6-1.4-9.7 s-6.3-6.6-7.6-11.7s0.1-19.8,4.1-23.3s15.4-3.5,18.1-5.1s2.5-8.1,6.3-11.8s11-5.4,11-5.4" opacity="0.387" fill="none" stroke="#6D7F42" stroke-linecap="round" stroke-linejoin="round" enable-background="new"/>
				<path id="path5317" d="M91.6,15.5c5.7,2.4,10.5-0.6,17.3,13.4" opacity="0.387" fill="none" stroke="#6D7F42" stroke-linecap="round" stroke-linejoin="round" enable-background="new"/>
				<path id="path5325" d="M2.9,109.4c9.2-6,17.4-0.6,23.7-1.9s18.5-18,22.2-17.9s2.7-5.7,4.1-6.4 c1.4-0.7,2.7,2.9,5.7,3.9s11.8-1.3,11.3-2.8c-0.5-1.4-3.4-3.7-2.7-4.1c0.7-0.4,4.1,2.4,6.2,1.7c2.1-0.7,21.1-0.5,23.4-6.5 s10.4-6.5,10.4-6.5" opacity="0.387" fill="none" stroke="#6D7F42" stroke-linecap="round" stroke-linejoin="round" enable-background="new"/>
				<path id="path5327" d="M35.6,118.8c6.5-5.6,11.2-12.1,13.8-13s6.2-1.8,7.6-3.9s1.2-5.2,2.5-5.8 c1.3-0.6,1.8,2.8,4.2,2.9c2.4,0.1,17.7-2.4,20.6-5.7c2.9-3.3,15.6-6,15.7-7c0.1-1-0.5-2.3,0.1-2.7c0.6-0.4,11.9-2.9,11.9-2.9" opacity="0.387" fill="none" stroke="#6D7F42" stroke-linecap="round" stroke-linejoin="round" enable-background="new"/>
				<path id="path5329" d="M79.7,120c4.3-6.6,9.9-19.8,14.2-20.3s4.9-1.2,6-2.1c1.1-0.8,8.2,1.1,8.2,1.1" opacity="0.387" fill="none" stroke="#6D7F42" stroke-linecap="round" stroke-linejoin="round" enable-background="new"/>
			</g>
		</g>
	</g>
	<g>
		<g>
			<defs>
				<path id="SVGID_6_" d="M2.6-8c0,0,3.6,6.3,5.7,13.4c2.1,7.1,3,12.3,3,12.3s-2.7,6.2-4,11.9C6,35.4,4.5,40.7,4.5,40.7 S7.3,48.4,9,55.2s1.8,11.7,1.8,11.7s-1.9,4.9-3.6,11.7c-1.7,6.8-2.4,14.8-2.4,14.8s4.5-1,13.8,0.6s15.6,2.9,15.6,2.9 s6.2-1.3,11.6-3s7.8-3.1,7.8-3.1s2.7,0.2,10.9,3s14.1,4.1,14.1,4.1s6.3-1.3,12.6-2.8c6.3-1.4,12.8-3.9,12.8-3.9 s-0.4-2.4,2.1-11.8c2.2-9.3,4-13.4,4-13.4s-0.2-2.2-1.8-9.5c-1.6-7.4-4.8-14.4-4.8-14.4s0.8-5.1,3.3-11.5 c2.4-6.4,4.9-12.9,4.9-12.9s-2.3-7.4-3.6-14.4s-4-12.4-4-12.4S92.3-4.8,88.7-4c-3.6,0.7-10.1,2.5-10.1,2.5S73.9-3.6,68-5.6 S53.6-8.3,53.6-8.3S52-6.6,43-4.4S29.7-1.6,29.7-1.6S20.8-6,14.5-7.2S2.9-8.1,2.6-8z"/>
			</defs>
			<clipPath id="SVGID_7_">
				<use xlink:href="#SVGID_6_" overflow="visible"/>
			</clipPath>
			<g id="g5400" transform="translate(0,-10)" clip-path="url(#SVGID_7_)">
				<path id="path5387" d="M25.8,17.5L22,29.3l8.7,3l3.7,17.5L24.3,60.6l4.3,5.1l-5.8,5.6l0.2,2.2l9.8,11.8l6.8-3.3 l9.9,8.9l-5.1,13.6l4.9,4.1l-1.3,6.3" fill="none" stroke="#D38484" stroke-width="2" stroke-linecap="round"/>
				<path id="path5389" d="M49.3,108.5l6-13.4l5.3-3.4l13.3,7.6l9.9-1.8l-0.1-7.6L78.8,87L85,74.3l2.8-1.8l18.7-4.8" fill="none" stroke="#D38484" stroke-width="2" stroke-linecap="round"/>
			</g>
		</g>
	</g>
</g>
<g id="layer3">
	<g id="g4808" transform="translate(0,182)" opacity="0.2696">
		<linearGradient id="path3834-4-9_1_" gradientUnits="userSpaceOnUse" x1="102.0302" y1="501.2803" x2="78.9812" y2="524.2762" gradientTransform="matrix(1 0 0 1 0 -672)">
			<stop offset="0" stop-color="#FFFFFF"/>
			<stop offset="1" stop-color="#FFFFFF" stop-opacity="0"/>
		</linearGradient>
		<path id="path3834-4-9" d="M104-181.1c0,0-11.7,4.3-15.3,5.1c-3.6,0.7-10.1,2.5-10.1,2.5c2.4-0.7,5.5,21.9,6.9,25.2 v0.1c5.7-2,24.7-2.3,26.2-6.2c0,0-2.3-7.4-3.6-14.4S104-181.1,104-181.1z" fill="url(#path3834-4-9_1_)"/>
		<linearGradient id="path3834-7-2-4-9_1_" gradientUnits="userSpaceOnUse" x1="19.5308" y1="517.9894" x2="21.6576" y2="548.8972" gradientTransform="matrix(1 0 0 1 0 -672)">
			<stop offset="0" stop-color="#FFFFFF"/>
			<stop offset="1" stop-color="#FFFFFF" stop-opacity="0"/>
		</linearGradient>
		<path id="path3834-7-2-4-9" d="M11.2-154.3c0,0-2.7,6.2-4,11.9c-1.3,5.8-2.8,11.1-2.8,11.1l24.4,7.9l7.6-28.4 C36.5-151.8,11.2-154.3,11.2-154.3z" fill="url(#path3834-7-2-4-9_1_)"/>
		<linearGradient id="path3834-7-26-9-7_1_" gradientUnits="userSpaceOnUse" x1="18.7954" y1="584.2886" x2="36.2783" y2="572.8245" gradientTransform="matrix(1 0 0 1 0 -672)">
			<stop offset="0" stop-color="#FFFFFF"/>
			<stop offset="1" stop-color="#FFFFFF" stop-opacity="0"/>
		</linearGradient>
		<path id="path3834-7-26-9-7" d="M10.8-105.1c0,0-1.9,4.9-3.6,11.7c-1.7,6.8-2.4,14.8-2.4,14.8s0.1,0,0.2,0 c1-0.2,5.4-0.7,13.5,0.6c9.3,1.6,15.6,2.9,15.6,2.9l0.7-25.3l-0.4,0.1L10.8-105.1z" fill="url(#path3834-7-26-9-7_1_)"/>
		<linearGradient id="path3834-4-9-6_1_" gradientUnits="userSpaceOnUse" x1="48.1213" y1="500.6711" x2="40.066" y2="520.4135" gradientTransform="matrix(1 0 0 1 0 -672)">
			<stop offset="0" stop-color="#FFFFFF"/>
			<stop offset="1" stop-color="#FFFFFF" stop-opacity="0"/>
		</linearGradient>
		<path id="path3834-4-9-6" d="M53.6-180.3c0,0-1.6,1.7-10.6,3.9s-13.3,2.8-13.3,2.8c2.5,7.1,5.8,14.1,6.9,21.6v0.1 l23.2-1.9l0.5,0.1C58.6-160.1,56.5-180,53.6-180.3z" fill="url(#path3834-4-9-6_1_)"/>
		<linearGradient id="path3834-7-26-0-0-9_1_" gradientUnits="userSpaceOnUse" x1="56.9755" y1="542.7188" x2="30.789" y2="573.295" gradientTransform="matrix(1 0 0 1 0 -672)">
			<stop offset="0" stop-color="#FFFFFF"/>
			<stop offset="1" stop-color="#FFFFFF" stop-opacity="0"/>
		</linearGradient>
		<path id="path3834-7-26-0-0-9" d="M55-130.9l-25.9,7.5h-0.2l-0.1,0.2l5.9,22.4v0.4l23.9-4.3l0.3,0.1l0,0L55-130.9 L55-130.9z" fill="url(#path3834-7-26-0-0-9_1_)"/>
		<linearGradient id="path3834-7-2-4-3_1_" gradientUnits="userSpaceOnUse" x1="82.828" y1="516.4774" x2="60.2618" y2="547.5488" gradientTransform="matrix(1 0 0 1 0 -672)">
			<stop offset="0" stop-color="#FFFFFF"/>
			<stop offset="1" stop-color="#FFFFFF" stop-opacity="0"/>
		</linearGradient>
		<path id="path3834-7-2-4-3" d="M60.3-153.6c0.1,0.4,0.2,0.8,0.3,1.1L55-130.9l0,0l25,8.4l5.4-25.6 c-0.2,0.1-0.3,0.1-0.5,0.2L60.3-153.6z" fill="url(#path3834-7-2-4-3_1_)"/>
		<linearGradient id="path3834-7-26-9-85_1_" gradientUnits="userSpaceOnUse" x1="79.8759" y1="566.8801" x2="60.3121" y2="594.3337" gradientTransform="matrix(1 0 0 1 0 -672)">
			<stop offset="0" stop-color="#FFFFFF"/>
			<stop offset="1" stop-color="#FFFFFF" stop-opacity="0"/>
		</linearGradient>
		<path id="path3834-7-26-9-85" d="M58.8-104.6l-5.3,23.4c0,0,2.7,0.2,10.9,3c1,0.3,2,0.7,3,1s1.9,0.6,2.7,0.8 c5.1,1.5,8.4,2.3,8.4,2.3L84.6-96c-0.2,0.1-0.5,0.2-0.7,0.3L58.8-104.6L58.8-104.6z" fill="url(#path3834-7-26-9-85_1_)"/>
		<linearGradient id="path3834-7-26-0-0-3_1_" gradientUnits="userSpaceOnUse" x1="101.9146" y1="542.3649" x2="86.5888" y2="576.3198" gradientTransform="matrix(1 0 0 1 0 -672)">
			<stop offset="0" stop-color="#FFFFFF"/>
			<stop offset="1" stop-color="#FFFFFF" stop-opacity="0"/>
		</linearGradient>
		<path id="path3834-7-26-0-0-3" d="M103.4-129.9c-7.6,3-15.3,5.4-23.2,7.4l-0.2-0.1l4.6,26.5l0,0 c8.6-3.1,17.1-6.5,25.5-10.1c0,0-0.2-2.2-1.8-9.5S103.4-129.9,103.4-129.9L103.4-129.9z" fill="url(#path3834-7-26-0-0-3_1_)"/>
	</g>
	<g id="g4818" transform="translate(0,182)" opacity="4.347800e-02">
		<linearGradient id="path3834-4-9-1_1_" gradientUnits="userSpaceOnUse" x1="44.558" y1="532.1835" x2="3.4078" y2="491.01" gradientTransform="matrix(1 0 0 1 0 -672)">
			<stop offset="0" stop-color="#000000"/>
			<stop offset="1" stop-color="#000000" stop-opacity="0"/>
		</linearGradient>
		<path id="path3834-4-9-1" d="M4.8-180.1c-0.5,0-1,0-1.3,0c-0.2,0-0.4,0-0.6,0l0,0c-0.2,0-0.3,0-0.4,0 c0,0,3.6,6.3,5.7,13.4c2.1,7.1,3,12.3,3,12.3l24.8,2.5h0.5v-0.1c-1.1-7.5-4.4-14.5-6.9-21.6c0,0-8.9-4.3-15.2-5.6 c-0.5-0.1-1-0.2-1.4-0.3c-0.3,0-0.6-0.1-0.8-0.1c-0.1,0-0.2,0-0.3,0c-0.6-0.1-1.2-0.2-1.8-0.2c-0.4,0-0.7-0.1-1-0.1 s-0.7-0.1-1-0.1c-0.5,0-0.9-0.1-1.3-0.1C6-180.1,5.4-180.1,4.8-180.1L4.8-180.1z" fill="url(#path3834-4-9-1_1_)"/>
		<linearGradient id="path3834-7-26-0-0-7_1_" gradientUnits="userSpaceOnUse" x1="25.3807" y1="523.9905" x2="18.1402" y2="564.5383" gradientTransform="matrix(1 0 0 1 0 -672)">
			<stop offset="0" stop-color="#000000"/>
			<stop offset="1" stop-color="#000000" stop-opacity="0"/>
		</linearGradient>
		<path id="path3834-7-26-0-0-7" d="M4.5-131.3c0,0,2.8,7.7,4.5,14.5s1.8,11.7,1.8,11.7l23.6,4.8l0.4-0.1v-0.4 l-5.9-22.4l0.1-0.2L4.5-131.3z" fill="url(#path3834-7-26-0-0-7_1_)"/>
		<linearGradient id="path3834-7-2-4-6_1_" gradientUnits="userSpaceOnUse" x1="31.2177" y1="501.9026" x2="49.3794" y2="544.6192" gradientTransform="matrix(1 0 0 1 0 -672)">
			<stop offset="0" stop-color="#000000"/>
			<stop offset="1" stop-color="#000000" stop-opacity="0"/>
		</linearGradient>
		<path id="path3834-7-2-4-6" d="M59.7-153.8l-23.2,1.9l0,0l-7.6,28.4h0.2l25.9-7.6l5.6-21.6c-0.1-0.3-0.2-0.7-0.3-1.1 C60.3-153.6,59.7-153.8,59.7-153.8z" fill="url(#path3834-7-2-4-6_1_)"/>
		<linearGradient id="path3834-7-26-9-8_1_" gradientUnits="userSpaceOnUse" x1="20.3305" y1="560.5871" x2="53.743" y2="588.3427" gradientTransform="matrix(1 0 0 1 0 -672)">
			<stop offset="0" stop-color="#000000"/>
			<stop offset="1" stop-color="#000000" stop-opacity="0"/>
		</linearGradient>
		<path id="path3834-7-26-9-8" d="M58.6-104.7l-23.9,4.3L34-75c0,0,6.2-1.3,11.6-3s7.8-3.1,7.8-3.1l5.4-23.4 L58.6-104.7z" fill="url(#path3834-7-26-9-8_1_)"/>
		<linearGradient id="path3834-4-9-2_1_" gradientUnits="userSpaceOnUse" x1="14.8908" y1="501.6726" x2="85.2444" y2="509.6372" gradientTransform="matrix(1 0 0 1 0 -672)">
			<stop offset="0" stop-color="#000000"/>
			<stop offset="1" stop-color="#000000" stop-opacity="0"/>
		</linearGradient>
		<path id="path3834-4-9-2" d="M53.6-180.3c2.9,0.3,5,20.2,6.7,26.6L85-148c0.1-0.1,0.3-0.1,0.5-0.2v-0.1 c-1.4-3.3-4.5-25.9-6.9-25.2c0,0-0.3-0.1-0.8-0.3c-1.6-0.7-5.4-2.2-9.8-3.8C62-179.7,53.6-180.3,53.6-180.3z" fill="url(#path3834-4-9-2_1_)"/>
		<linearGradient id="path3834-7-26-0-0-0_1_" gradientUnits="userSpaceOnUse" x1="19.7382" y1="517.9564" x2="78.6277" y2="565.9856" gradientTransform="matrix(1 0 0 1 0 -672)">
			<stop offset="0" stop-color="#000000"/>
			<stop offset="1" stop-color="#000000" stop-opacity="0"/>
		</linearGradient>
		<path id="path3834-7-26-0-0-0" d="M55-131L55-131l-0.1,0.2l4,25.7l-0.1,0.5l25.1,8.9c0.2-0.1,0.5-0.2,0.7-0.3l0,0 L80-122.5L55-131z" fill="url(#path3834-7-26-0-0-0_1_)"/>
		<linearGradient id="path3834-7-26-9-9_1_" gradientUnits="userSpaceOnUse" x1="78.5148" y1="562.0003" x2="103.7359" y2="593.9792" gradientTransform="matrix(1 0 0 1 0 -672)">
			<stop offset="0" stop-color="#000000"/>
			<stop offset="1" stop-color="#000000" stop-opacity="0"/>
		</linearGradient>
		<path id="path3834-7-26-9-9" d="M110.1-106c-8.4,3.6-16.9,7-25.5,10.1L78.5-74c0,0,6.3-1.3,12.6-2.8 c6.3-1.4,12.8-3.9,12.8-3.9s-0.4-2.4,2.1-11.8C108.3-101.9,110.1-106,110.1-106z" fill="url(#path3834-7-26-9-9_1_)"/>
		<linearGradient id="path3834-7-2-4-5_1_" gradientUnits="userSpaceOnUse" x1="63.1201" y1="501.0195" x2="107.6493" y2="545.4294" gradientTransform="matrix(1 0 0 1 0 -672)">
			<stop offset="0" stop-color="#000000"/>
			<stop offset="1" stop-color="#000000" stop-opacity="0"/>
		</linearGradient>
		<path id="path3834-7-2-4-5" d="M111.6-154.3c-1.5,3.9-20.5,4.2-26.2,6.2L80-122.5l0.2,0.1c7.9-2.1,15.6-4.4,23.2-7.4 c0,0,0.8-5.1,3.3-11.5C109.1-147.8,111.6-154.3,111.6-154.3z" fill="url(#path3834-7-2-4-5_1_)"/>
	</g>
</g>
<g id="layer6">
	<g>
		<g>
			<defs>
				<path id="SVGID_8_" d="M2.6,2c0,0,3.6,6.3,5.7,13.4c2.1,7.1,3,12.3,3,12.3s-2.7,6.2-4,11.9C6,45.4,4.5,50.7,4.5,50.7 S7.3,58.4,9,65.2s1.8,11.7,1.8,11.7s-1.9,4.9-3.6,11.7c-1.7,6.8-2.4,14.8-2.4,14.8s4.5-1,13.8,0.6s15.6,2.9,15.6,2.9 s6.2-1.3,11.6-3s7.8-3.1,7.8-3.1s2.7,0.2,10.9,3s14.1,4.1,14.1,4.1s6.3-1.3,12.6-2.8c6.3-1.4,12.8-3.9,12.8-3.9 s-0.4-2.4,2.1-11.8c2.2-9.3,4-13.4,4-13.4s-0.2-2.2-1.8-9.5c-0.8-4-1.1-2.1-1.1-2.1s7.9-12,8-18.8c0.1-7.2-3.5-17.9-3.5-17.9 s-2.3-7.4-3.6-14.4s-4-12.4-4-12.4S92.3,5.2,88.7,6c-3.6,0.7-10.1,2.5-10.1,2.5S73.9,6.4,68,4.4c-5.9-2.1-14.4-2.7-14.4-2.7 S52,3.4,43,5.6c-9.1,2.2-13.3,2.8-13.3,2.8S20.8,4,14.5,2.8S2.9,1.9,2.6,2L2.6,2z"/>
			</defs>
			<clipPath id="SVGID_9_">
				<use xlink:href="#SVGID_8_" overflow="visible"/>
			</clipPath>
			<path id="path5604-26-0" d="M82.3,14.9c-8.5-0.7-17,1.8-23.5,7.7c-0.1,0.1-0.2,0.1-0.2,0.2 C48,32.6,46,48.4,52.6,61.7l-1.1,0.7c1.1,2.1,2.4,4.2,3.9,6.2L49,74.5c-0.6-0.3-1.3-0.6-2.2-0.8L45.4,75c-0.5-0.3-1-0.5-1.5-0.5 l-31,28.4c0,0.5,0.1,1.1,0.3,1.6l-0.3,0.2l-0.5,0.5c0.3,1.8,1,3.4,2.6,5.2c1.7,1.8,3.1,2.5,5,3l0.5-0.5l0.3-0.3 c0.5,0.3,1,0.5,1.5,0.5l31-28.5c-0.1-0.5-0.3-1-0.5-1.4l1.4-1.3c-0.1-0.8-0.3-1.6-0.6-2.3l6.4-5.9c1.8,1.7,3.8,3.1,5.9,4.4l0.8-1 c12.7,7.7,28.7,6.9,39.3-2.8c0.1-0.1,0.1-0.2,0.2-0.2C119.1,62,119,40.9,106,26.8C99.5,19.5,90.9,15.6,82.3,14.9L82.3,14.9z M82.1,16.4C82.2,16.4,82.2,16.4,82.1,16.4c0.6,0,1,0.1,1.5,0.2s0.9,0.1,1.4,0.2h0.1h0.1c0.1,0,0.1,0,0.2,0 c0.4,0.1,0.9,0.2,1.3,0.3c0.3,0.1,0.6,0.2,0.9,0.2c0.2,0,0.3,0.1,0.5,0.1c0.3,0.1,0.7,0.2,1,0.3c0.1,0,0.3,0.1,0.5,0.1h0.1 c0.5,0.2,0.9,0.3,1.4,0.5h0.1c0.5,0.2,0.9,0.4,1.4,0.6h0.1c0.5,0.2,0.9,0.4,1.4,0.7h0.1c0.5,0.2,0.9,0.5,1.4,0.7c0,0,0,0,0.1,0 c0.4,0.3,0.9,0.5,1.3,0.8l0,0c0.4,0.3,0.9,0.6,1.3,0.9l0,0c0.4,0.3,0.9,0.6,1.3,0.9c0.3,0.2,0.5,0.4,0.8,0.6 c0.2,0.1,0.4,0.3,0.5,0.4l0,0c0.4,0.4,0.8,0.7,1.3,1.1c0.8,0.8,1.7,1.6,2.4,2.4c0.8,0.8,1.5,1.7,2.2,2.6l0,0 c0.3,0.4,0.7,0.9,1,1.3c0.1,0.2,0.3,0.4,0.4,0.6c0.2,0.3,0.4,0.5,0.5,0.8l0,0c0.3,0.5,0.6,0.9,0.8,1.4l0,0 c0.3,0.5,0.5,0.9,0.8,1.4l0,0c0.2,0.5,0.5,0.9,0.7,1.4V37c0.2,0.5,0.4,0.9,0.6,1.4v0.1c0.2,0.5,0.4,0.9,0.5,1.4V40 c0.2,0.5,0.3,0.9,0.5,1.4v0.1c0.1,0.5,0.3,0.9,0.4,1.4V43c0,0.2,0.1,0.3,0.1,0.5c0.1,0.4,0.2,0.7,0.2,1.1c0,0.2,0.1,0.3,0.1,0.5 c0.1,0.3,0.1,0.6,0.2,0.9c0.1,0.4,0.1,0.9,0.2,1.3c0,0.1,0,0.1,0,0.2v0.1v0.1c0,0.5,0.1,0.9,0.1,1.4s0.1,0.9,0.1,1.4v0.1 c0,0.5,0,1,0,1.5s0,0.9-0.1,1.3c0,0.1,0,0.1,0,0.2c0,0.4-0.1,0.9-0.1,1.3c-0.1,0.5-0.1,0.9-0.2,1.4v0.1c0,0.1,0,0.1,0,0.2 c-0.1,0.4-0.2,0.9-0.3,1.3c0,0.1,0,0.1,0,0.2c-0.1,0.4-0.2,0.8-0.3,1.3c-0.1,0.3-0.2,0.6-0.3,0.8c-0.1,0.3-0.2,0.5-0.3,0.8 c-0.1,0.4-0.3,0.8-0.5,1.2c0,0.1-0.1,0.1-0.1,0.2c0,0.1,0,0.1-0.1,0.2c-0.2,0.4-0.4,0.8-0.5,1.2c-0.2,0.4-0.4,0.8-0.6,1.1 c0,0.1-0.1,0.1-0.1,0.2c-0.2,0.4-0.4,0.7-0.6,1.1c0,0.1-0.1,0.2-0.1,0.2c-0.1,0.2-0.2,0.3-0.3,0.5c-0.2,0.3-0.4,0.5-0.5,0.8l0,0 c-0.2,0.3-0.5,0.7-0.7,1s-0.5,0.6-0.7,0.8c-0.1,0.1-0.2,0.2-0.3,0.4c-0.1,0.1-0.1,0.1-0.2,0.2c-0.1,0.1-0.2,0.2-0.2,0.3 c-0.3,0.3-0.5,0.6-0.8,0.9s-0.6,0.6-0.9,0.9c-0.1,0.1-0.1,0.2-0.2,0.2c-10.2,9.4-25.2,9.8-37.3,2.4l0.1-0.1 c-1.8-1.1-3.5-2.3-5.1-3.7c-0.3-0.2-0.5-0.5-0.8-0.7c-0.2-0.2-0.5-0.5-0.7-0.7l-0.1-0.1c-0.4-0.4-0.8-0.8-1.2-1.2 c-0.4-0.4-0.8-0.8-1.1-1.3l-0.1-0.1c-0.2-0.3-0.4-0.5-0.6-0.8s-0.4-0.5-0.6-0.8c-1.3-1.7-2.4-3.5-3.3-5.4l-0.1,0.7 c-6.4-12.6-4.8-27.4,5.4-36.8c0.1-0.1,0.2-0.1,0.2-0.2c0.3-0.3,0.6-0.6,1-0.8c0.3-0.3,0.6-0.5,1-0.8c0.1-0.1,0.3-0.2,0.4-0.3 c0.2-0.1,0.3-0.2,0.5-0.3c0.3-0.2,0.6-0.4,0.9-0.6c0.4-0.2,0.7-0.4,1.1-0.7c0.3-0.2,0.6-0.3,0.8-0.5c0.2-0.1,0.4-0.2,0.6-0.3 c0.3-0.2,0.7-0.3,1-0.5c0.1,0,0.2-0.1,0.3-0.1c0.5-0.2,0.9-0.4,1.4-0.6c0.4-0.2,0.8-0.3,1.3-0.4c0.1,0,0.2,0,0.2-0.1 c0.5-0.1,0.9-0.3,1.4-0.4c0.3-0.1,0.5-0.1,0.8-0.2s0.6-0.1,0.8-0.2c0.4-0.1,0.9-0.2,1.3-0.2h0.1c0.2,0,0.4-0.1,0.6-0.1 c0.3,0,0.7-0.1,1-0.1h0.1c0.5,0,0.9-0.1,1.4-0.1c0.9,0,1.9,0,2.8,0C81.1,16.3,81.6,16.4,82.1,16.4L82.1,16.4z" clip-path="url(#SVGID_9_)" fill="#2D3335"/>
		</g>
	</g>
</g>
<g id="layer5">
	<linearGradient id="rect5757-8-7-7-9_1_" gradientUnits="userSpaceOnUse" x1="171.58" y1="219.4378" x2="179.3013" y2="219.4378" gradientTransform="matrix(0.9843 0.9843 -0.9843 0.9843 59.8416 -282.4818)">
		<stop offset="0" stop-color="#F9E295"/>
		<stop offset="0.125" stop-color="#F7DD84"/>
		<stop offset="0.2058" stop-color="#FFFFFF"/>
		<stop offset="0.3011" stop-color="#F4CE51"/>
		<stop offset="0.3412" stop-color="#F9E7AA"/>
		<stop offset="1" stop-color="#EFBB0E"/>
	</linearGradient>
	<path id="rect5757-8-7-7-9" d="M21.4,108.9l-2.3,2.2c-2.4-2.6-4.9-5.2-7.3-7.8l2.2-2 C17.2,104.5,18.2,105.5,21.4,108.9L21.4,108.9z" fill="url(#rect5757-8-7-7-9_1_)"/>
	<path id="path5604-26" d="M58.6,64.2c-13.1-13.1-13.1-34.4,0-47.5s34.4-13.1,47.5,0s13.1,34.4,0,47.5 S71.7,77.3,58.6,64.2z M60,62.7c12.6,12.6,32.5,13.1,45.1,0.5s12.1-32.5-0.5-45.1C92.1,5.5,72.1,5,59.5,17.6S47.4,50.1,60,62.7z" fill="#2D3335"/>
	<path id="path5604-2-9" d="M58.6,64.2c-13.1-13.1-13.1-34.4,0-47.5c0.1-0.1,0.2-0.2,0.2-0.2 C45.9,29.6,46,50.6,59.1,63.7c13,13,34.1,13.1,47.3,0.2c-0.1,0.1-0.2,0.2-0.2,0.2C93,77.3,71.7,77.3,58.6,64.2z M59.8,17.4 c0.1-0.1,0.2-0.2,0.2-0.2C72.6,4.5,92.5,5,105.1,17.6s13.1,32.5,0.5,45.1l-0.2,0.2c12.4-12.6,11.8-32.4-0.7-44.9 C92.1,5.6,72.4,5,59.8,17.4z" fill="#9EAAAC"/>
	<path id="path5604-9-13" d="M59.5,63.2c12.6,12.6,33,12.6,45.6,0s12.6-33,0-45.6s-33-12.6-45.6,0S46.9,50.6,59.5,63.2 z" fill="#D0E9F2" fill-opacity="0.4759"/>
	<radialGradient id="path5604-9-1-3_1_" cx="164.9521" cy="-44.8214" r="22.6821" gradientTransform="matrix(1.0052 1.0052 1.0052 -1.0052 -38.4673 -170.4644)" gradientUnits="userSpaceOnUse">
		<stop offset="0" stop-color="#D0E9F2" stop-opacity="0"/>
		<stop offset="0.8393" stop-color="#D0E9F2" stop-opacity="0"/>
		<stop offset="0.9431" stop-color="#D0E9F2" stop-opacity="0.2819"/>
		<stop offset="1" stop-color="#D0E9F2"/>
	</radialGradient>
	<path id="path5604-9-1-3" d="M59.5,63.2c12.6,12.6,33,12.6,45.6,0s12.6-33,0-45.6s-33-12.6-45.6,0 S46.9,50.6,59.5,63.2z" fill="url(#path5604-9-1-3_1_)"/>
	<linearGradient id="path5604-9-1-8-8-1_1_" gradientUnits="userSpaceOnUse" x1="175.3834" y1="242.9519" x2="176.7736" y2="247.2962" gradientTransform="matrix(0.9843 0.9843 -0.9843 0.9843 125.7896 -348.4258)">
		<stop offset="0" stop-color="#2D3335"/>
		<stop offset="0.5" stop-color="#4C464A"/>
		<stop offset="1" stop-color="#384042"/>
	</linearGradient>
	<path id="path5604-9-1-8-8-1" d="M54.2,54.8l-2.8,2c1.6,3,3.6,5.8,6.2,8.3c2.5,2.5,5.3,4.6,8.3,6.2l2-2.8 C65,67,62.4,65.1,60,62.7C57.6,60.3,55.7,57.7,54.2,54.8z" fill="url(#path5604-9-1-8-8-1_1_)"/>
	<linearGradient id="rect5757-5_1_" gradientUnits="userSpaceOnUse" x1="-833.679" y1="250.6742" x2="-828.8533" y2="250.6742" gradientTransform="matrix(-0.9843 -0.9843 -0.9843 0.9843 -519.736 -993.9515)">
		<stop offset="0" stop-color="#2D3335"/>
		<stop offset="0.5" stop-color="#4C464A"/>
		<stop offset="1" stop-color="#384042"/>
	</linearGradient>
	<path id="rect5757-5" d="M58.5,64.3c0.8,0.8,1.5,1.8,2,2.8L47.8,79.7c-1-0.5-1.9-1.2-2.8-2c-0.8-0.8-1.5-1.8-2-2.8 l12.7-12.7C56.7,62.8,57.6,63.4,58.5,64.3z" fill="url(#rect5757-5_1_)"/>
	<linearGradient id="rect5757-8-7-2_1_" gradientUnits="userSpaceOnUse" x1="171.5772" y1="268.3258" x2="179.2985" y2="268.3258" gradientTransform="matrix(0.9843 0.9843 -0.9843 0.9843 125.7896 -348.4258)">
		<stop offset="0" stop-color="#F9E295"/>
		<stop offset="0.125" stop-color="#F7DD84"/>
		<stop offset="0.2058" stop-color="#FFFFFF"/>
		<stop offset="0.3011" stop-color="#F4CE51"/>
		<stop offset="0.3412" stop-color="#F9E7AA"/>
		<stop offset="1" stop-color="#EFBB0E"/>
	</linearGradient>
	<path id="rect5757-8-7-2" d="M54.3,76l-31.9,31.9c-1.9-1.1-2.8-1.4-4.5-3.1s-2.1-2.6-3.1-4.5l31.9-31.9 C49.2,70.2,52.6,73.4,54.3,76L54.3,76z" fill="url(#rect5757-8-7-2_1_)"/>
	<linearGradient id="rect5757-8-6_1_" gradientUnits="userSpaceOnUse" x1="-582.0082" y1="201.1141" x2="-577.1821" y2="201.1141" gradientTransform="matrix(-1.9685 -1.9685 -1.7421 1.7421 -757.1844 -1401.9525)">
		<stop offset="0" stop-color="#2D3335"/>
		<stop offset="0.5" stop-color="#4C464A"/>
		<stop offset="1" stop-color="#384042"/>
	</linearGradient>
	<path id="rect5757-8-6" d="M49.3,73.5c1.7,1.7,3.6,3.2,4.1,5.3l-30.9,30.9c-3.1-2.5-7-6.2-9.5-9.5l30.9-30.9 C45.6,69.5,47.6,71.8,49.3,73.5L49.3,73.5L49.3,73.5z" fill="url(#rect5757-8-6_1_)"/>
	<linearGradient id="rect5757-8-6-3_1_" gradientUnits="userSpaceOnUse" x1="-588.7444" y1="207.6312" x2="-576.6768" y2="199.2563" gradientTransform="matrix(-1.9685 -1.9685 -1.7421 1.7421 -757.1844 -1401.9525)">
		<stop offset="0" stop-color="#000000"/>
		<stop offset="1" stop-color="#000000" stop-opacity="0"/>
	</linearGradient>
	<path id="rect5757-8-6-3" d="M49.1,73.7c1.7,1.7,3.7,3.1,4.2,5.2l-30.9,30.9c-3.8-3.3-5.7-5.1-9.5-9.5l30.9-30.9 C45.6,69.5,47.5,72,49.1,73.7L49.1,73.7L49.1,73.7z" opacity="0.5957" fill="url(#rect5757-8-6-3_1_)" enable-background="new"/>
	<linearGradient id="path6587_1_" gradientUnits="userSpaceOnUse" x1="64.694" y1="688.047" x2="90.4316" y2="739.8818" gradientTransform="matrix(1 0 0 1 0 -682)">
		<stop offset="0" stop-color="#FFFFFF"/>
		<stop offset="1" stop-color="#FFFFFF" stop-opacity="0"/>
	</linearGradient>
	<path id="path6587" d="M61.5,17C81.1,1.5,99.2,10.9,99,19.6s-27.3,34-36.9,31.9C52.6,49.5,49.9,25.7,61.5,17L61.5,17z" opacity="0.6043" fill="url(#path6587_1_)" enable-background="new"/>
	<linearGradient id="path6587-7_1_" gradientUnits="userSpaceOnUse" x1="-1814.9341" y1="-2046.4757" x2="-1789.1965" y2="-1994.6409" gradientTransform="matrix(-0.503 0.1984 0.1972 -0.4325 -409.0652 -458.1453)">
		<stop offset="0" stop-color="#FFFFFF"/>
		<stop offset="1" stop-color="#FFFFFF" stop-opacity="0"/>
	</linearGradient>
	<path id="path6587-7" d="M104.1,61.5c-12.9,10.6-20.2,10.1-18.4,6.3c1.8-3.8,20.4-20.1,24.8-21.1 C115,45.7,111.7,55.4,104.1,61.5z" opacity="0.7652" fill="url(#path6587-7_1_)" enable-background="new"/>
</g>
<g>
	<path d="M75.8,23.9v13.8h14.6V23.9h7.9v36h-7.9V44.4H75.8v15.5h-7.9v-36C67.9,23.9,75.8,23.9,75.8,23.9z"/>
</g>
</svg>
