<svg xmlns="http://www.w3.org/2000/svg" width="16" height="16" viewBox="0 0 256 256" filter="grayscale(100%) brightness(65%)">
	<image href="../osm_logo.svg"></image>
	<g transform="translate(116.6 28.9)scale(0.2375)">
		<path d="m409.152344 409.988281c-2.34375 13.632813-2.6875 30.855469 3.957031 48.148438-7.6875 5.984375-15.734375 11.542969-24.09375 16.632812-19.246094-10.113281-39.328125-23.445312-52.796875-39.746093-7.285156.84375-14.703125 1.292968-22.269531 1.292968-87.40625 0-158.257813-58.605468-158.257813-130.914062 0-72.296875 70.851563-130.90625 158.257813-130.90625 87.417969 0 158.273437 58.609375 158.273437 130.90625 0 42.746094-24.765625 80.6875-63.070312 104.585937z" fill="#00000036"/>
		<path d="m305.035156 130.90625c0 72.304688-70.851562 130.914062-158.269531 130.914062-7.554687 0-14.984375-.449218-22.253906-1.296874-15.089844 18.253906-38.476563 32.789062-59.695313 43.257812-11.246094 5.550781-23.230468-5.871094-18.296875-17.417969 7.773438-18.199219 7.523438-36.519531 5.046875-50.875-18.003906-11.230469-33-25.558593-43.867187-42.035156 23.199219-92.378906 96.59375-164.832031 189.503906-186.660156 62.683594 17.417969 107.832031 66.402343 107.832031 124.113281z" fill="#00000036"/>
		<path d="m316.53125 130.90625c0 10.605469-1.527344 20.917969-4.410156 30.800781-15.410156 52.882813-69.632813 93.25-136.347656 99.320313-5.746094.519531-11.589844.792968-17.511719.792968-7.554688 0-14.984375-.449218-22.257813-1.296874-15.089844 18.253906-38.472656 32.789062-59.695312 43.257812-11.242188 5.550781-23.226563-5.871094-18.296875-17.417969 7.773437-18.199219 7.523437-36.519531 5.046875-50.875-38.292969-23.894531-63.058594-61.847656-63.058594-104.582031 0-72.296875 70.855469-130.90625 158.261719-130.90625 87.414062 0 158.269531 58.609375 158.269531 130.90625z" fill="#f78"/>
		<path d="m312.121094 161.707031c-15.410156 52.882813-69.632813 93.25-136.347656 99.320313 15.410156-52.882813 69.632812-93.25 136.347656-99.320313z" fill="#f7a"/>
		<path d="m435.273438 396.402344c-2.007813 11.703125-2.550782 26.050781 1.546874 40.8125-7.460937 7.453125-15.382812 14.433594-23.710937 20.921875-.5.394531-1.011719.78125-1.511719 1.160156-18.140625-9.875-36.613281-22.5625-49.257812-37.859375-7.285156.847656-14.703125 1.296875-22.265625 1.296875-87.40625 0-158.261719-58.609375-158.261719-130.914063 0-72.296874 70.855469-130.90625 158.261719-130.90625 87.414062 0 158.269531 58.609376 158.269531 130.90625 0 42.734376-24.765625 80.6875-63.070312 104.582032z" fill="#fcf8f2"/>
		<path d="M295.144531 291.808594c0 11.828125-9.589843 21.417968-21.417969 21.417968-11.832031 0-21.421874-9.589843-21.421874-21.417968 0-11.832032 9.589843-21.421875 21.421874-21.421875 11.828126 0 21.417969 9.589843 21.417969 21.421875zM361.496094 291.808594c0 11.828125-9.589844 21.417968-21.417969 21.417968-11.832031 0-21.421875-9.589843-21.421875-21.417968 0-11.832032 9.589844-21.421875 21.421875-21.421875 11.828125 0 21.417969 9.589843 21.417969 21.421875zM427.847656 291.808594c0 11.828125-9.589844 21.417968-21.421875 21.417968-11.828125 0-21.417969-9.589843-21.417969-21.417968 0-11.832032 9.589844-21.421875 21.417969-21.421875 11.832031 0 21.421875 9.589843 21.421875 21.421875z" fill="#2f373b"/>
		<path d="M113.332031 137.164062c0 11.832032-9.589843 21.421876-21.417969 21.421876-11.832031 0-21.421874-9.589844-21.421874-21.421876 0-11.828124 9.589843-21.417968 21.421874-21.417968 11.828126 0 21.417969 9.589844 21.417969 21.417968zM179.683594 137.164062c0 11.832032-9.589844 21.421876-21.417969 21.421876-11.832031 0-21.421875-9.589844-21.421875-21.421876 0-11.828124 9.589844-21.417968 21.421875-21.417968 11.828125 0 21.417969 9.589844 21.417969 21.417968zM246.035156 137.164062c0 11.832032-9.589844 21.421876-21.417968 21.421876-11.832032 0-21.421876-9.589844-21.421876-21.421876 0-11.828124 9.589844-21.417968 21.421876-21.417968 11.828124 0 21.417968 9.589844 21.417968 21.417968z" fill="#fcf8f2"/>
	</g>
</svg>
