<!-- https://wiki.openstreetmap.org/wiki/File:Osm_logo_wiki_2019.svg -->
<svg width="16" height="16" viewBox="0 0 256 256" filter="grayscale(100%) brightness(65%)" xmlns="http://www.w3.org/2000/svg" xmlns:cc="http://creativecommons.org/ns#" xmlns:dc="http://purl.org/dc/elements/1.1/" xmlns:rdf="http://www.w3.org/1999/02/22-rdf-syntax-ns#" xmlns:xlink="http://www.w3.org/1999/xlink">
 <defs>
  <linearGradient id="linearGradient4680">
   <stop offset="0"/>
   <stop stop-opacity="0" offset="1"/>
  </linearGradient>
  <linearGradient id="linearGradient4686-3" x1="94.25" x2="9" y1="-94.672" y2="-179.97" gradientUnits="userSpaceOnUse" xlink:href="#linearGradient4680"/>
  <linearGradient id="linearGradient4742-3" x1="50.75" x2="35.75" y1="-114.44" y2="-30.438" gradientUnits="userSpaceOnUse" xlink:href="#linearGradient4680"/>
  <linearGradient id="linearGradient4734-3" x1="77.625" x2="115.25" y1="-163.12" y2="-74.625" gradientUnits="userSpaceOnUse" xlink:href="#linearGradient4680"/>
  <linearGradient id="linearGradient4726-9" x1="56.5" x2="125.72" y1="-50.438" y2="7.0625" gradientUnits="userSpaceOnUse" xlink:href="#linearGradient4680"/>
  <linearGradient id="linearGradient4710-2" x1="35" x2="180.75" y1="-163.3" y2="-146.8" gradientUnits="userSpaceOnUse" xlink:href="#linearGradient4680"/>
  <linearGradient id="linearGradient4718-4" x1="57" x2="179" y1="-141.11" y2="-41.609" gradientUnits="userSpaceOnUse" xlink:href="#linearGradient4680"/>
  <linearGradient id="linearGradient4694-4" x1="156" x2="208.25" y1="-26.5" y2="39.75" gradientUnits="userSpaceOnUse" xlink:href="#linearGradient4680"/>
  <linearGradient id="linearGradient4702-4" x1="142.75" x2="235" y1="-169.3" y2="-77.297" gradientUnits="userSpaceOnUse" xlink:href="#linearGradient4680"/>
  <linearGradient id="linearGradient4806-9" x1="214.25" x2="166.5" y1="-161.36" y2="-113.72" gradientUnits="userSpaceOnUse" xlink:href="#linearGradient4744-9"/>
  <linearGradient id="linearGradient4744-9">
   <stop stop-color="#fff" offset="0"/>
   <stop stop-color="#fff" stop-opacity="0" offset="1"/>
  </linearGradient>
  <linearGradient id="linearGradient4790-3" x1="53.25" x2="57.656" y1="-126.5" y2="-62.469" gradientUnits="userSpaceOnUse" xlink:href="#linearGradient4744-9"/>
  <linearGradient id="linearGradient4758-2" x1="39.5" x2="75.719" y1="6.625" y2="-17.125" gradientUnits="userSpaceOnUse" xlink:href="#linearGradient4744-9"/>
  <linearGradient id="linearGradient4750-9" x1="102" x2="85.312" y1="-162.34" y2="-121.44" gradientUnits="userSpaceOnUse" xlink:href="#linearGradient4744-9"/>
  <linearGradient id="linearGradient4782-5" x1="117.75" x2="63.5" y1="-78.094" y2="-14.75" gradientUnits="userSpaceOnUse" xlink:href="#linearGradient4744-9"/>
  <linearGradient id="linearGradient4798-4" x1="180.69" x2="133.94" y1="-125.12" y2="-60.75" gradientUnits="userSpaceOnUse" xlink:href="#linearGradient4744-9"/>
  <linearGradient id="linearGradient4766-3" x1="170.75" x2="130.22" y1="-23.5" y2="33.375" gradientUnits="userSpaceOnUse" xlink:href="#linearGradient4744-9"/>
  <linearGradient id="linearGradient4965" x1="213.5" x2="181.75" y1="-76" y2="-5.6563" gradientUnits="userSpaceOnUse" xlink:href="#linearGradient4744-9"/>
  <linearGradient id="linearGradient5168" x1="210.17" x2="9" y1="72.064" y2="-213.25" gradientTransform="translate(0,-10)" gradientUnits="userSpaceOnUse" xlink:href="#linearGradient4680"/>
  <clipPath id="clipPath5383">
   <path d="m9 12.25s7.5 13 11.75 27.75 6.25 25.5 6.25 25.5-5.5 12.75-8.25 24.75-5.75 23-5.75 23 5.75 16 9.25 30 3.75 24.25 3.75 24.25-4 10.25-7.5 24.25-5 30.75-5 30.75 9.25-2 28.5 1.25 32.25 6 32.25 6 12.75-2.75 24-6.25 16.25-6.5 16.25-6.5 5.5 0.5 22.5 6.25 29.25 8.5 29.25 8.5 13-2.75 26-5.75 26.5-8 26.5-8-0.75-5 4.25-24.5 8.75-28 8.75-28-0.5-4.5-3.75-19.75-10-29.75-10-29.75 1.75-10.5 6.75-23.75 10.25-26.75 10.25-26.75-4.75-15.25-7.5-29.75-8.25-25.75-8.25-25.75-24.25 9-31.75 10.5-21 5.25-21 5.25-9.75-4.25-22-8.5-29.75-5.5-29.75-5.5-3.25 3.5-22 8-27.5 5.75-27.5 5.75-18.5-9-31.5-11.5-24-2-24.75-1.75z" fill="#ceeeab"/>
  </clipPath>
  <clipPath id="clipPath5426">
   <path d="m9 12.25s7.5 13 11.75 27.75 6.25 25.5 6.25 25.5-5.5 12.75-8.25 24.75-5.75 23-5.75 23 5.75 16 9.25 30 3.75 24.25 3.75 24.25-4 10.25-7.5 24.25-5 30.75-5 30.75 9.25-2 28.5 1.25 32.25 6 32.25 6 12.75-2.75 24-6.25 16.25-6.5 16.25-6.5 5.5 0.5 22.5 6.25 29.25 8.5 29.25 8.5 13-2.75 26-5.75 26.5-8 26.5-8-0.75-5 4.25-24.5 8.75-28 8.75-28-0.5-4.5-3.75-19.75-10-29.75-10-29.75 1.75-10.5 6.75-23.75 10.25-26.75 10.25-26.75-4.75-15.25-7.5-29.75-8.25-25.75-8.25-25.75-24.25 9-31.75 10.5-21 5.25-21 5.25-9.75-4.25-22-8.5-29.75-5.5-29.75-5.5-3.25 3.5-22 8-27.5 5.75-27.5 5.75-18.5-9-31.5-11.5-24-2-24.75-1.75z" fill="#ceeeab"/>
  </clipPath>
  <clipPath id="clipPath5466">
   <path d="m9 12.25s7.5 13 11.75 27.75 6.25 25.5 6.25 25.5-5.5 12.75-8.25 24.75-5.75 23-5.75 23 5.75 16 9.25 30 3.75 24.25 3.75 24.25-4 10.25-7.5 24.25-5 30.75-5 30.75 9.25-2 28.5 1.25 32.25 6 32.25 6 12.75-2.75 24-6.25 16.25-6.5 16.25-6.5 5.5 0.5 22.5 6.25 29.25 8.5 29.25 8.5 13-2.75 26-5.75 26.5-8 26.5-8-0.75-5 4.25-24.5 8.75-28 8.75-28-0.5-4.5-3.75-19.75-10-29.75-10-29.75 1.75-10.5 6.75-23.75 10.25-26.75 10.25-26.75-4.75-15.25-7.5-29.75-8.25-25.75-8.25-25.75-24.25 9-31.75 10.5-21 5.25-21 5.25-9.75-4.25-22-8.5-29.75-5.5-29.75-5.5-3.25 3.5-22 8-27.5 5.75-27.5 5.75-18.5-9-31.5-11.5-24-2-24.75-1.75z" fill="#ceeeab"/>
  </clipPath>
  <linearGradient id="linearGradient5762-8">
   <stop stop-color="#2d3335" offset="0"/>
   <stop stop-color="#4c464a" offset=".5"/>
   <stop stop-color="#384042" offset="1"/>
  </linearGradient>
  <linearGradient id="linearGradient6241" x1="120" x2="136" y1="186.5" y2="186.5" gradientTransform="matrix(.98427 .98427 -.98427 .98427 66.992 -59.216)" gradientUnits="userSpaceOnUse">
   <stop stop-color="#f9e295" offset="0"/>
   <stop stop-color="#f7dd84" offset=".125"/>
   <stop stop-color="#fff" offset=".20581"/>
   <stop stop-color="#f4ce51" offset=".30113"/>
   <stop stop-color="#f9e7aa" offset=".3412"/>
   <stop stop-color="#efbb0e" offset="1"/>
  </linearGradient>
  <linearGradient id="linearGradient6244" x1="123" x2="133" y1="150.38" y2="150.38" gradientTransform="matrix(-1.9685 -1.9685 -1.7421 1.7421 596.19 167.51)" gradientUnits="userSpaceOnUse">
   <stop stop-color="#2d3335" offset="0"/>
   <stop stop-color="#4c464a" offset=".5"/>
   <stop stop-color="#384042" offset="1"/>
  </linearGradient>
  <linearGradient id="linearGradient6247" x1="120" x2="136" y1="186.5" y2="186.5" gradientTransform="matrix(.98427 .98427 -.98427 .98427 132.94 -125.16)" gradientUnits="userSpaceOnUse">
   <stop stop-color="#f9e295" offset="0"/>
   <stop stop-color="#f7dd84" offset=".125"/>
   <stop stop-color="#fff" offset=".20581"/>
   <stop stop-color="#f4ce51" offset=".30113"/>
   <stop stop-color="#f9e7aa" offset=".3412"/>
   <stop stop-color="#efbb0e" offset="1"/>
  </linearGradient>
  <linearGradient id="linearGradient6250" x1="123" x2="133" y1="150.38" y2="150.38" gradientTransform="matrix(-.98427 -.98427 -.98427 .98427 384.91 126.81)" gradientUnits="userSpaceOnUse" xlink:href="#linearGradient5762-8"/>
  <linearGradient id="linearGradient6253" x1="128" x2="130.88" y1="134.36" y2="143.36" gradientTransform="matrix(.98427 .98427 -.98427 .98427 132.94 -125.16)" gradientUnits="userSpaceOnUse" xlink:href="#linearGradient5762-8"/>
  <radialGradient id="radialGradient6256" cx="128" cy="86" r="47" gradientTransform="matrix(1.0052 1.0052 1.0052 -1.0052 -40.838 43.253)" gradientUnits="userSpaceOnUse">
   <stop stop-color="#d0e9f2" stop-opacity="0" offset="0"/>
   <stop stop-color="#d0e9f2" stop-opacity="0" offset=".83933"/>
   <stop stop-color="#d0e9f2" stop-opacity=".28185" offset=".94309"/>
   <stop stop-color="#d0e9f2" offset="1"/>
  </radialGradient>
  <linearGradient id="linearGradient6279" x1="108" x2="133" y1="167.73" y2="150.38" gradientTransform="matrix(-1.9685 -1.9685 -1.7421 1.7421 596.19 167.51)" gradientUnits="userSpaceOnUse" xlink:href="#linearGradient4680"/>
  <radialGradient id="radialGradient6427" cx="159.61" cy="72.588" r="38.417" gradientTransform="matrix(1.2125 0 0 .83915 -46.348 24.528)" gradientUnits="userSpaceOnUse">
   <stop stop-color="#fff" offset="0"/>
   <stop stop-color="#fff" stop-opacity=".9305" offset=".5"/>
   <stop stop-color="#fff" stop-opacity="0" offset="1"/>
  </radialGradient>
  <radialGradient id="radialGradient6482" cx="159.61" cy="72.588" r="38.417" gradientTransform="matrix(1.2125 0 0 .83915 -45.92 25.814)" gradientUnits="userSpaceOnUse">
   <stop stop-color="#fff" offset="0"/>
   <stop stop-color="#fff" stop-opacity="0" offset="1"/>
  </radialGradient>
  <linearGradient id="linearGradient6595" x1="126.64" x2="179.96" y1="29.815" y2="137.2" gradientTransform="translate(0,-10)" gradientUnits="userSpaceOnUse">
   <stop stop-color="#fff" offset="0"/>
   <stop stop-color="#fff" stop-opacity="0" offset="1"/>
  </linearGradient>
  <linearGradient id="linearGradient6614" x1="126.64" x2="179.96" y1="29.815" y2="137.2" gradientTransform="matrix(-.50295 .1984 .1972 -.43254 276.16 123.42)" gradientUnits="userSpaceOnUse">
   <stop stop-color="#fff" offset="0"/>
   <stop stop-color="#fff" stop-opacity="0" offset="1"/>
  </linearGradient>
  <filter id="filter7286">
   <feGaussianBlur stdDeviation="4.2868936"/>
  </filter>
  <clipPath id="clipPath5466-2-3">
   <path d="m9 12.25s7.5 13 11.75 27.75 6.25 25.5 6.25 25.5-5.5 12.75-8.25 24.75-5.75 23-5.75 23 5.75 16 9.25 30 3.75 24.25 3.75 24.25-4 10.25-7.5 24.25-5 30.75-5 30.75 9.25-2 28.5 1.25 32.25 6 32.25 6 12.75-2.75 24-6.25 16.25-6.5 16.25-6.5 5.5 0.5 22.5 6.25 29.25 8.5 29.25 8.5 13-2.75 26-5.75 26.5-8 26.5-8-0.75-5 4.25-24.5 8.75-28 8.75-28-0.5-4.5-3.75-19.75-10-29.75-10-29.75 1.75-10.5 6.75-23.75 10.25-26.75 10.25-26.75-4.75-15.25-7.5-29.75-8.25-25.75-8.25-25.75-24.25 9-31.75 10.5-21 5.25-21 5.25-9.75-4.25-22-8.5-29.75-5.5-29.75-5.5-3.25 3.5-22 8-27.5 5.75-27.5 5.75-18.5-9-31.5-11.5-24-2-24.75-1.75z" fill="#ceeeab"/>
  </clipPath>
  <clipPath id="clipPath5383-0-0">
   <path d="m9 12.25s7.5 13 11.75 27.75 6.25 25.5 6.25 25.5-5.5 12.75-8.25 24.75-5.75 23-5.75 23 5.75 16 9.25 30 3.75 24.25 3.75 24.25-4 10.25-7.5 24.25-5 30.75-5 30.75 9.25-2 28.5 1.25 32.25 6 32.25 6 12.75-2.75 24-6.25 16.25-6.5 16.25-6.5 5.5 0.5 22.5 6.25 29.25 8.5 29.25 8.5 13-2.75 26-5.75 26.5-8 26.5-8-0.75-5 4.25-24.5 8.75-28 8.75-28-0.5-4.5-3.75-19.75-10-29.75-10-29.75 1.75-10.5 6.75-23.75 10.25-26.75 10.25-26.75-4.75-15.25-7.5-29.75-8.25-25.75-8.25-25.75-24.25 9-31.75 10.5-21 5.25-21 5.25-9.75-4.25-22-8.5-29.75-5.5-29.75-5.5-3.25 3.5-22 8-27.5 5.75-27.5 5.75-18.5-9-31.5-11.5-24-2-24.75-1.75z" fill="#ceeeab"/>
  </clipPath>
  <clipPath id="clipPath5426-1-6">
   <path d="m9 12.25s7.5 13 11.75 27.75 6.25 25.5 6.25 25.5-5.5 12.75-8.25 24.75-5.75 23-5.75 23 5.75 16 9.25 30 3.75 24.25 3.75 24.25-4 10.25-7.5 24.25-5 30.75-5 30.75 9.25-2 28.5 1.25 32.25 6 32.25 6 12.75-2.75 24-6.25 16.25-6.5 16.25-6.5 5.5 0.5 22.5 6.25 29.25 8.5 29.25 8.5 13-2.75 26-5.75 26.5-8 26.5-8-0.75-5 4.25-24.5 8.75-28 8.75-28-0.5-4.5-3.75-19.75-10-29.75-10-29.75 1.75-10.5 6.75-23.75 10.25-26.75 10.25-26.75-4.75-15.25-7.5-29.75-8.25-25.75-8.25-25.75-24.25 9-31.75 10.5-21 5.25-21 5.25-9.75-4.25-22-8.5-29.75-5.5-29.75-5.5-3.25 3.5-22 8-27.5 5.75-27.5 5.75-18.5-9-31.5-11.5-24-2-24.75-1.75z" fill="#ceeeab"/>
  </clipPath>
  <linearGradient id="linearGradient5168-2-9" x1="210.17" x2="9" y1="72.064" y2="-213.25" gradientTransform="translate(0,192)" gradientUnits="userSpaceOnUse">
   <stop offset="0"/>
   <stop stop-opacity="0" offset="1"/>
  </linearGradient>
  <clipPath id="clipPath8617">
   <path d="m123.62 141.06c20.832 20.243 54.607 19.289 75.439-2.132s20.832-55.196 0-75.439-54.607-19.289-75.439 2.132-20.832 55.196 0 75.439z" fill="url(#radialGradient8621)"/>
  </clipPath>
  <radialGradient id="radialGradient8621" cx="128" cy="86" r="47" gradientTransform="matrix(.80254 .77986 .80254 -.82522 -10.402 73.423)" gradientUnits="userSpaceOnUse">
   <stop stop-color="#d0e9f2" stop-opacity="0" offset="0"/>
   <stop stop-color="#d0e9f2" stop-opacity="0" offset=".83933"/>
   <stop stop-color="#d0e9f2" stop-opacity=".28185" offset=".94309"/>
   <stop stop-color="#d0e9f2" offset="1"/>
  </radialGradient>
  <filter id="filter8661">
   <feGaussianBlur stdDeviation="6.3109704"/>
  </filter>
  <filter id="filter8725">
   <feGaussianBlur stdDeviation="4.4575"/>
  </filter>
  <linearGradient id="linearGradient8735" x1="122" x2="122" y1="245.45" y2="4.302" gradientUnits="userSpaceOnUse">
   <stop offset="0"/>
   <stop stop-opacity="0" offset="1"/>
  </linearGradient>
  <clipPath id="clipPath8750">
   <path d="m9 22.578s7.5 12.393 11.75 26.8 6.25 24.995 6.25 24.995-5.5 13.195-8.25 25.417-5.75 23.465-5.75 23.465 5.75 15.535 9.25 29.252 3.75 23.947 3.75 23.947-4 10.574-7.5 24.857-5 31.154-5 31.154 9.25-2.7481 28.5-1.055 32.25 3.3917 32.25 3.3917 12.75-3.7812 24-8.1911 16.25-7.8143 16.25-7.8143 5.5 0.0552 22.5 4.4302c17 4.3751 29.25 6.1343 29.25 6.1343s13-3.8014 26-7.8528 26.5-10.143 26.5-10.143-0.75-4.9393 4.25-24.844c5-19.904 8.75-28.708 8.75-28.708s-0.5145-4.4553-3.75-19.447c-1.75-8.1085-2.25-4.068-2.25-4.068s16.264-26.155 16.5-40.334c0.25-15.02-7.25-36.414-7.25-36.414s-4.75-14.866-7.5-29.143-8.25-25.083-8.25-25.083-24.25 10.961-31.75 13.068c-7.5 2.1066-21 6.9484-21 6.9484s-9.75-3.4614-22-6.7207c-12.25-3.2592-29.75-3.0939-29.75-3.0939s-3.25 3.7629-22 9.7793-27.5 7.9741-27.5 7.9741-18.5-7.5038-31.5-8.9524-24-0.05894-24.75 0.25172z" fill="url(#linearGradient8754)" opacity=".03913"/>
  </clipPath>
  <linearGradient id="linearGradient8754" x1="210.17" x2="9" y1="72.064" y2="-213.25" gradientTransform="matrix(1 -.080878 0 1 0 203.06)" gradientUnits="userSpaceOnUse">
   <stop offset="0"/>
   <stop stop-opacity="0" offset="1"/>
  </linearGradient>
 </defs>
 <metadata>
  <rdf:RDF>
   <cc:Work rdf:about="">
    <dc:format>image/svg+xml</dc:format>
    <dc:type rdf:resource="http://purl.org/dc/dcmitype/StillImage"/>
    <dc:title>OpenStreetMap Wiki logo 2019</dc:title>
    <dc:creator>
     <cc:Agent>
      <dc:title>Ken Vermette; addition of Wiki by Bert Araali; SVG conversion of Wiki by Chris2map</dc:title>
     </cc:Agent>
    </dc:creator>
    <cc:license rdf:resource="http://creativecommons.org/licenses/by-sa/4.0/"/>
    <dc:date>June 2023</dc:date>
    <dc:publisher>
     <cc:Agent>
      <dc:title>OpenStreetMap.org</dc:title>
     </cc:Agent>
    </dc:publisher>
    <dc:description>Logo for OpenStreetMap Wiki, based on OpenStreetMap logo 2011</dc:description>
    <dc:subject>
     <rdf:Bag>
      <rdf:li>OSM openstreetmap wiki logo</rdf:li>
     </rdf:Bag>
    </dc:subject>
    <dc:source>http://wiki.openstreetmap.org/wiki/File:Public-images-osm_logo.svg</dc:source>
   </cc:Work>
   <cc:License rdf:about="http://creativecommons.org/licenses/by-sa/4.0/">
    <cc:permits rdf:resource="http://creativecommons.org/ns#Reproduction"/>
    <cc:permits rdf:resource="http://creativecommons.org/ns#Distribution"/>
    <cc:requires rdf:resource="http://creativecommons.org/ns#Notice"/>
    <cc:requires rdf:resource="http://creativecommons.org/ns#Attribution"/>
    <cc:permits rdf:resource="http://creativecommons.org/ns#DerivativeWorks"/>
    <cc:requires rdf:resource="http://creativecommons.org/ns#ShareAlike"/>
   </cc:License>
  </rdf:RDF>
 </metadata>
 <g transform="translate(0,-10)">
  <path transform="matrix(1 .068641 0 .8487 -6.6011e-8 36.913)" d="m174.28 35.875c-17.599 0-35.192 6.6395-48.719 19.906-0.16722 0.16328-0.33437 0.30312-0.5 0.46875-22.056 22.056-26.209 55.251-12.469 81.5l-2.2812 1.625c2.2488 4.2399 4.9416 8.3068 8.0938 12.125l-13.312 13.344c-1.3414-0.58575-2.7886-1.0333-4.5625-1.375l-2.8438 2.8438c-1.1095-0.48387-2.138-0.81588-3.0625-0.875l-64.125 64.125c-0.03687 1.1009 0.22615 2.1874 0.65625 3.2812l-1.625 1.625c0.71544 3.7378 2.0104 6.8229 5.4688 10.281 3.4583 3.4583 6.4204 4.6303 10.281 5.4688l1.8125-1.8125c1.0882 0.46225 2.1299 0.78617 3.0938 0.84375l64.125-64.125c-0.24286-0.97475-0.62043-1.9355-1.0312-2.9062l3-3c-0.24983-1.732-0.67671-3.198-1.3125-4.5938l13.281-13.281c3.8182 3.1521 7.8851 5.845 12.125 8.0938l1.625-2.2812c26.249 13.74 59.444 9.5872 81.5-12.469 0.16563-0.16564 0.30547-0.33278 0.46875-0.5 26.694-27.217 26.549-70.92-0.46875-97.938-13.59-13.59-31.407-20.375-49.219-20.375zm-0.5 3.2812c0.10467 0.0015 0.20783-2e-3 0.3125 0 0.94919 0.0184 1.8954 0.06527 2.8438 0.125 0.95844 0.06036 1.9188 0.14751 2.875 0.25 0.0937 0.01005 0.18754 0.0208 0.28125 0.03125 0.094 0.01048 0.1873 0.02037 0.28125 0.03125 0.1457 0.01688 0.29187 0.04464 0.4375 0.0625 0.8962 0.1099 1.7949 0.22812 2.6875 0.375 0.61909 0.10187 1.2269 0.22412 1.8438 0.34375 0.34295 0.06644 0.68907 0.11558 1.0312 0.1875 0.7237 0.15211 1.4365 0.32339 2.1562 0.5 0.31305 0.07681 0.62528 0.13731 0.9375 0.21875 0.0731 0.01906 0.1457 0.04319 0.21875 0.0625 0.9559 0.25284 1.8967 0.51629 2.8438 0.8125 0.0724 0.02261 0.14641 0.03963 0.21875 0.0625 0.94741 0.29984 1.9068 0.62554 2.8438 0.96875 0.0531 0.01945 0.10323 0.04291 0.15625 0.0625 0.95458 0.3524 1.9017 0.72763 2.8438 1.125 0.0515 0.02172 0.10478 0.04064 0.15625 0.0625 0.94184 0.40005 1.8849 0.83628 2.8125 1.2812 0.042 0.02016 0.083 0.04225 0.125 0.0625 0.93538 0.45109 1.8621 0.90953 2.7812 1.4062 0.0331 0.01788 0.0607 0.04456 0.0937 0.0625 0.92681 0.50283 1.8414 1.0133 2.75 1.5625 0.0321 0.01939 0.0617 0.04305 0.0937 0.0625 0.9081 0.55093 1.7994 1.1216 2.6875 1.7188 0.54895 0.36907 1.0842 0.76954 1.625 1.1562 0.3647 0.26083 0.73291 0.51241 1.0938 0.78125 0.0185 0.01381 0.044 0.01742 0.0625 0.03125 0.87764 0.65521 1.7402 1.3599 2.5938 2.0625 1.7427 1.4344 3.4314 2.9627 5.0625 4.5938 1.6205 1.6205 3.1362 3.3006 4.5625 5.0312 9e-3 0.01124 0.022 0.02 0.0312 0.03125 0.70321 0.85436 1.4067 1.7152 2.0625 2.5938 0.28277 0.37877 0.53857 0.77322 0.8125 1.1562 0.36973 0.51706 0.74014 1.038 1.0938 1.5625 0.0162 0.02399 0.0464 0.03849 0.0625 0.0625 0.59812 0.88963 1.167 1.7778 1.7188 2.6875 0.0195 0.03207 0.0431 0.06166 0.0625 0.09375 0.54559 0.90292 1.0627 1.8291 1.5625 2.75 0.0179 0.03294 0.0447 0.06079 0.0625 0.09375 0.498 0.92121 0.95408 1.8437 1.4062 2.7812 0.0202 0.04194 0.0424 0.08302 0.0625 0.125 0.44611 0.92987 0.88027 1.8683 1.2812 2.8125 0.0218 0.05123 0.0409 0.10498 0.0625 0.15625 0.3948 0.93612 0.77461 1.8952 1.125 2.8438 0.0194 0.05253 0.0432 0.10369 0.0625 0.15625 0.34761 0.94836 0.66558 1.8846 0.96875 2.8438 0.0227 0.07167 0.0401 0.14703 0.0625 0.21875 0.29398 0.94117 0.56134 1.8938 0.8125 2.8438 0.0195 0.07353 0.0433 0.14517 0.0625 0.21875 0.0807 0.30955 0.14258 0.62713 0.21875 0.9375 0.17661 0.71978 0.34789 1.4325 0.5 2.1562 0.0719 0.34218 0.12106 0.6883 0.1875 1.0312 0.11963 0.61688 0.24188 1.2247 0.34375 1.8438 0.14688 0.89259 0.2651 1.7913 0.375 2.6875 0.0179 0.14596 0.0456 0.29146 0.0625 0.4375 0.0108 0.09329 0.0208 0.18793 0.0312 0.28125 0.0105 0.09398 0.0212 0.18724 0.0312 0.28125 0.10249 0.9562 0.18964 1.9166 0.25 2.875 0.0592 0.94244 0.10661 1.9005 0.125 2.8438 2e-3 0.10413-2e-3 0.20837 0 0.3125 0.0154 1.0533 4e-3 2.1038-0.0312 3.1562-0.0316 0.93056-0.0847 1.8528-0.15625 2.7812-0.01 0.12493-0.0209 0.25012-0.0312 0.375-0.0761 0.91807-0.16591 1.8354-0.28125 2.75-0.1206 0.95626-0.27395 1.9239-0.4375 2.875-0.0142 0.0824-0.0168 0.16767-0.0312 0.25-0.022 0.12485-0.0397 0.25026-0.0625 0.375-0.16526 0.90778-0.3579 1.8173-0.5625 2.7188-0.0306 0.13463-0.0623 0.27178-0.0937 0.40625-0.20775 0.88866-0.44134 1.7751-0.6875 2.6562-0.16391 0.58672-0.35028 1.167-0.53125 1.75-0.17541 0.56412-0.33984 1.1272-0.53125 1.6875-0.29467 0.86381-0.60475 1.7088-0.9375 2.5625-0.0606 0.15549-0.12566 0.31362-0.1875 0.46875-0.0449 0.11246-0.0795 0.23148-0.125 0.34375-0.3561 0.87862-0.72813 1.7276-1.125 2.5938-0.37698 0.82347-0.7736 1.6264-1.1875 2.4375-0.0805 0.15778-0.16807 0.31147-0.25 0.46875-0.41528 0.7974-0.82998 1.591-1.2812 2.375-0.0952 0.16556-0.1844 0.33506-0.28125 0.5-0.19907 0.33885-0.41915 0.66384-0.625 1-0.36165 0.59093-0.74237 1.1678-1.125 1.75-5e-3 7e-3 5e-3 0.0238 0 0.0312-0.49081 0.74574-1.0059 1.4882-1.5312 2.2188-0.45727 0.63592-0.95404 1.2513-1.4375 1.875-0.19696 0.25409-0.36119 0.52926-0.5625 0.78125-0.13402 0.16779-0.2703 0.33315-0.40625 0.5-0.16351 0.20064-0.3337 0.39451-0.5 0.59375-0.55662 0.66705-1.1308 1.3178-1.7188 1.9688-0.60631 0.67104-1.2353 1.347-1.875 2-0.16096 0.16426-0.30567 0.33692-0.46875 0.5-21.13 21.13-52.259 24.495-77.188 11.156l0.125-0.1875c-3.7042-1.8966-7.2617-4.1405-10.625-6.7812-0.53892-0.42315-1.0654-0.86982-1.5938-1.3125-0.51441-0.43097-1.0273-0.8629-1.5312-1.3125-0.0929-0.0836-0.18872-0.1658-0.28125-0.25-0.82173-0.74776-1.6119-1.5181-2.4062-2.3125s-1.5647-1.5845-2.3125-2.4062c-0.0842-0.0925-0.16639-0.18838-0.25-0.28125-0.4496-0.50395-0.88153-1.0168-1.3125-1.5312-0.44268-0.52838-0.88935-1.0548-1.3125-1.5938-2.6408-3.3633-4.8846-6.9208-6.7812-10.625l-0.1875 0.125c-13.339-24.929-9.9741-56.057 11.156-77.188 0.16308-0.16308 0.33574-0.30778 0.5-0.46875 0.65295-0.63968 1.329-1.2687 2-1.875 0.6509-0.58796 1.3017-1.1621 1.9688-1.7188 0.27214-0.22709 0.53777-0.46562 0.8125-0.6875 0.34347-0.27743 0.71509-0.51196 1.0625-0.78125 0.62372-0.48346 1.2391-0.98023 1.875-1.4375 0.73753-0.53033 1.497-1.0361 2.25-1.5312 0.58223-0.38263 1.1591-0.76335 1.75-1.125 0.44667-0.27336 0.89235-0.55112 1.3438-0.8125 0.68145-0.39479 1.3708-0.75747 2.0625-1.125 0.17606-0.09355 0.35456-0.18946 0.53125-0.28125 0.94525-0.49098 1.8814-0.9657 2.8438-1.4062 0.86615-0.39688 1.7151-0.7689 2.5938-1.125 0.15281-0.06193 0.31559-0.09555 0.46875-0.15625 0.96839-0.38402 1.9247-0.75891 2.9062-1.0938 0.56026-0.19141 1.1234-0.35584 1.6875-0.53125 0.58295-0.18097 1.1633-0.36734 1.75-0.53125 0.88115-0.24616 1.7676-0.47975 2.6562-0.6875 0.0711-0.01664 0.14757-0.01486 0.21875-0.03125 0.41593-0.09574 0.83264-0.1939 1.25-0.28125 0.67213-0.14082 1.3558-0.28716 2.0312-0.40625 0.0823-0.01449 0.16763-0.01709 0.25-0.03125 0.95107-0.16355 1.9187-0.3169 2.875-0.4375 1.9636-0.24764 3.9299-0.40164 5.9062-0.46875 1.0524-0.03564 2.1029-0.04663 3.1562-0.03125z" fill="#2d3335" filter="url(#filter8661)" opacity=".7"/>
  <path transform="matrix(1 0 0 .84657 0 37.66)" d="m9 17.25s7.5 11 11.75 25.75 6.25 25.5 6.25 25.5-5.5 12.75-8.25 24.75-5.75 25-5.75 25 5.75 16 9.25 30 3.75 22.25 3.75 22.25-4 10.25-7.5 24.25-5 30.75-5 30.75 9.25-2 28.5 1.25 32.25 6 32.25 6 12.75-2.75 24-6.25 16.25-6.5 16.25-6.5 5.5 0.5 22.5 6.25 29.25 8.5 29.25 8.5 13-2.75 26-5.75 26.5-8 26.5-8-0.75-5 4.25-24.5 8.75-28 8.75-28-0.5-2.5-3.75-17.75-10-29.75-10-29.75 1.75-12.5 6.75-25.75 10.25-26.75 10.25-26.75-4.75-15.25-7.5-29.75-8.25-23.75-8.25-23.75-24.25 9-31.75 10.5-21 5.25-21 5.25-9.75-4.25-22-8.5-29.75-5.5-29.75-5.5-3.25 3.5-22 8-27.5 5.75-27.5 5.75-18.5-9-31.5-11.5-24-2-24.75-1.75z" fill="url(#linearGradient8735)" filter="url(#filter8725)" opacity=".5"/>
 </g>
 <path d="m9 2.25s7.5 13 11.75 27.75 6.25 25.5 6.25 25.5-5.5 12.75-8.25 24.75-5.75 23-5.75 23 5.75 16 9.25 30 3.75 24.25 3.75 24.25-4 10.25-7.5 24.25-5 30.75-5 30.75 9.25-2 28.5 1.25 32.25 6 32.25 6 12.75-2.75 24-6.25 16.25-6.5 16.25-6.5 5.5 0.5 22.5 6.25 29.25 8.5 29.25 8.5 13-2.75 26-5.75 26.5-8 26.5-8-0.75-5 4.25-24.5 8.75-28 8.75-28-0.5-4.5-3.75-19.75-10-29.75-10-29.75 1.75-10.5 6.75-23.75 10.25-26.75 10.25-26.75-4.75-15.25-7.5-29.75-8.25-25.75-8.25-25.75-24.25 9-31.75 10.5-21 5.25-21 5.25-9.75-4.25-22-8.5-29.75-5.5-29.75-5.5-3.25 3.5-22 8-27.5 5.75-27.5 5.75-18.5-9-31.5-11.5-24-2-24.75-1.75z" fill="#ceeeab"/>
 <g transform="translate(0,-10)" clip-path="url(#clipPath5466)">
  <path d="m110.75 5.5-4.25 7c-0.75 9-2.25 13.75-8.5 16.5s-12.25 3.5-11 7.5 13 9.25 14.25 13 8.25 1.75 11 7 2 15.25-3.75 17.25-17.5 0.5-20.25 9.5-4.75 10.5-9 12.75-7.25 10.5-3.5 16.5 12.25-1.25 15-6.5 7.25-8.75 7.25-8.75h23.75l59-1.75 3.25-3.75s3.25 4 2.75 8.75-3.75 14.75 0.25 17.25 19.5-2 24-7-4.75-28.25-10.5-29.5-18.5-1.75-17-7 11.75 4.5 17.25 3.25 16.75-21 12-25.25-24.25-5.25-25.75-8 21-8 22.25-11-2.5-7.25-6.25-8.5-14 16.25-21 15.75-20 5.75-17.25 11.5-6 11-14.5 6.5-24.75-13-21.75-24 21.5-18.75 21.5-18.75zm-13.562 107.22c-1.5948 0.14648-4.4688 4.6875-4.9375 7.0312-0.5 2.5-3.25 6.75-3.5 12.25s4.75 6.75 8.75 6.5 2.75-6.75 2-15c-0.25 0-0.5-10.25-2-10.75-0.09375-0.0312-0.20618-0.041-0.3125-0.0312zm92.719 51.656c-6.3354 0.29541-6.625 7.4688-7.4062 8.875-1.25 2.25 2.25 13.75 2 18s-4.75 5.25-9.5 9.75 0.5 16 11.25 31l44.75 1.25-1-35s4.75-4.25-20.75-24.25c-9.5625-7.5-15.542-9.8022-19.344-9.625zm-149.97 16.531c-4.0292-0.10254-8.2812 5.7188-9.6875 7.5938-1.5 2-6.25 5-17 9.5l-14.5 34.25 53 4.25s1.75-11-4.25-15.75-17.25-5.75-18.25-13.25 9.25-10 13.75-14.25 2-11.25-2.25-12.25c-0.26562-0.0625-0.54388-0.0869-0.8125-0.0937z" fill="#a6dd8b"/>
 </g>
 <path d="m158.53 75.344c-4.7598-0.01434-9.0312 0.96875-11.531 3.1562-8 7-35 0.75-48.5 7s-13.25 38-14.75 44.5-17.5 20.75-20 23.5-13.25 7.25-19.5 8.5-12.75 7.25-15.5 11c-2.0211 2.7561-7.406 6.4503-10.125 8.2188-0.0458 0.18128-0.07936 0.34868-0.125 0.53125-0.13369 0.53475-0.24712 1.0833-0.375 1.625 4.9795-1.6048 11.18-8.1795 16.625-13.625 6.25-6.25 20-7.75 27.75-11.5s14.25-19.75 26.5-23.75 21.25 11.75 24.25 18.5 1.75 12.75 3.75 17 11 11.75 11.5 13.5-5 6.5-6.25 8.5-10.5 7-11.75 8.75c-0.96568 1.352-1.9232 6.7731-2.3125 9.2188 0.41303-0.1692 0.75418-0.31053 1.125-0.46875 0.484-2.5293 1.5155-7.078 2.9375-8.5 2-2 11.25-4.5 12.5-8.5s7-6.5 7-6.5 2.75 4 16 14c8.8333 6.6667 12.758 15.534 14.406 20.719 0.6736 0.17065 1.533 0.4094 2.0312 0.53125-1.2212-4.3187-4.8365-16.239-8.9375-20.75-5-5.5-18.5-10.75-22.75-22s-24.5-34.25-17.5-40.25 16.5-4 28.5 7.5 46.25 5.75 57.75 3.75c9.9545-1.7312 20.834 14.883 23.906 26.031 0.589-2.0957 1.1266-4.0022 1.6562-5.75-1.7381-1.9258-3.6972-4.62-5.3125-8.2812-3.75-8.5-12-13.25-12-13.25s8.75-5 14.75-7.75c1.617-0.74114 3.0063-1.6771 4.1875-2.6562-0.16234-0.77403-0.25893-1.2558-0.4375-2.0938-0.0311-0.14611-0.062-0.29154-0.0937-0.4375-4.7656 5.5624-19.232 9.6153-21.656 10.938-2.75 1.5-18.25 3-35.75 4.5s-26.75-7.5-34.25-14.75-13-36-3-38 20 13.75 30 17 21.5-15.75 19.75-27c-1.2031-7.7344-13.997-12.625-24.469-12.656zm-53.344 13.281c1.2753 0.0015 5.8594 1.5938 6.5625 2.375 2.25 2.5 2 7.25 0 8s-12.75 8-10.5 14.25 1.75 18-3.5 18-8 0-10-2.5-2-12 0-19.75 3.5-15 8-18.25c3.0938-2.2344 6.6318-2.1284 9.4375-2.125zm13.594 73.094c0.20325 0.0137 1.9062 3.5156 4.7188 7.0312 3 3.75 3.25 8.25 3.25 8.25s-4.25-4.75-6-8-2-7.25-2-7.25c0-0.0312 0.0178-0.0323 0.0312-0.0312z" fill="#aac3e7"/>
 <g fill="none">
  <g stroke="#6d7f42">
   <path d="m122.75 62.25c6.25 0.5 12.25-2.25 10.75-6.5s-12.5-7.25-13.25-3 2 10.5 2.5 9.5z" opacity=".38696" stroke-linecap="round" stroke-linejoin="round"/>
   <path d="m108.75 46.75c-8.5-5.5-8.5-7.25-7-8s10.25 5 12.75 8-2.25 2-5.75 0z" opacity=".38696" stroke-linecap="round" stroke-linejoin="round"/>
   <g transform="translate(0,-10)" clip-path="url(#clipPath5383)">
    <path d="m15.75 151.25c33-2.5 38.25-3.5 36.25-10.25s-8.75-23.5-23-22.5-22.75-6.75-22.75-6.75" opacity=".38696" stroke-linecap="round" stroke-linejoin="round"/>
    <path d="m17.5 177.25c18.25-10 28.75-8.5 35-11.5s13.25-5.75 15.75-9.5 5.75-11.5 5.75-18-3.5-36 3.25-43.5 17.25-26 26-23.25 12.25 9.75 22 9.5 21.75-4 24.25-12.25-15.75-16-16-23 5.5-14.25 20.25-17 23.5-11.5 23.5-11.5" opacity=".38696"/>
    <g stroke-linecap="round" stroke-linejoin="round">
     <path d="m14.5 161c15.25-1.5 22.25 3.5 31.5 1.75s13.25-3 17.75-5.75 6-3.75 6.25-6.5 1-12.5-3-22-12.5-31.5-8.25-38.75 5.25-21.5 15.75-24.5 21-6.25 27.75-1.25 12.75 14.25 20 14.5 11.75-1.5 14.5-4.5 4.5-10.25 1.75-13.75-15.5-5.5-17.25-9.5-10.75-17-0.25-26.75 36.25-8.25 36.25-8.25" opacity=".38696"/>
     <path d="m21.25 159c13.75 1 21.5 4.25 33.5-0.5s13.5-5.25 13.75-8.75-0.25-15.75-3-20-13-13.75-15.75-24.25 0.25-41 8.5-48.25 32-7.25 37.5-10.5 5.25-16.75 13-24.5 27-12.25 27-12.25" opacity=".38696"/>
     <path d="m190 18.5c11.75 5 39 9.75 47.25 40.25" opacity=".38696"/>
     <path d="m9.75 214c19-12.5 36-1.25 49-4s38.25-37.25 46-37 5.5-11.75 8.5-13.25 5.5 6 11.75 8 24.5-2.75 23.5-5.75-7-7.75-5.5-8.5 8.5 5 12.75 3.5 43.75-1 48.5-13.5 21.5-13.5 21.5-13.5" opacity=".38696"/>
     <path d="m77.5 233.5c13.5-11.5 23.25-25 28.5-27s12.75-3.75 15.75-8 2.5-10.75 5.25-12 3.75 5.75 8.75 6 36.75-5 42.75-11.75 32.25-12.5 32.5-14.5-1-4.75 0.25-5.5 24.75-6 24.75-6" opacity=".38696"/>
     <path d="m168.75 236c9-13.75 20.5-41 29.5-42s10.25-2.5 12.5-4.25 17 2.25 17 2.25" opacity=".38696"/>
    </g>
   </g>
  </g>
  <g transform="translate(0,-10)" clip-path="url(#clipPath5426)" stroke="#d38484" stroke-linecap="round" stroke-width="2">
   <path d="m57.75 20-8.5 28.25 18 6.25 7.75 36.25-21 22.25 9 10.5-12 11.5 0.5 4.5 20.25 24.5 14-6.75 20.5 18.5-10.5 28.25 10.25 8.5-2.75 13"/>
   <path d="m105.75 212.25 12.5-27.75 11-7 27.5 15.75 20.5-3.75-0.25-15.75-10.25-6 12.75-26.25 5.75-3.75 38.75-10"/>
  </g>
 </g>
 <g transform="translate(0,192)" display="none">
  <path d="m9-189.75s7.5 13 11.75 27.75 6.25 25.5 6.25 25.5-5.5 12.75-8.25 24.75-5.75 23-5.75 23 5.75 16 9.25 30 3.75 24.25 3.75 24.25-4 10.25-7.5 24.25-5 30.75-5 30.75 9.25-2 28.5 1.25 32.25 6 32.25 6 12.75-2.75 24-6.25 16.25-6.5 16.25-6.5 5.5 0.5 22.5 6.25 29.25 8.5 29.25 8.5 13-2.75 26-5.75 26.5-8 26.5-8-0.75-5 4.25-24.5 8.75-28 8.75-28-0.5-4.5-3.75-19.75-10-29.75-10-29.75 1.75-10.5 6.75-23.75 10.25-26.75 10.25-26.75-4.75-15.25-7.5-29.75-8.25-25.75-8.25-25.75-24.25 9-31.75 10.5-21 5.25-21 5.25-9.75-4.25-22-8.5-29.75-5.5-29.75-5.5-3.25 3.5-22 8-27.5 5.75-27.5 5.75-18.5-9-31.5-11.5-24-2-24.75-1.75z" fill="url(#linearGradient5168)" opacity=".03913"/>
 </g>
 <g transform="translate(0,182)" opacity=".26957">
  <path d="m219.25-182s-24.25 9-31.75 10.5-21 5.25-21 5.25c4.924-1.3583 11.437 45.392 14.25 52.25l-0.0625 0.28125c11.808-4.0738 51.21-4.7677 54.312-12.781 0 0-4.75-15.25-7.5-29.75s-8.25-25.75-8.25-25.75z" fill="url(#linearGradient4806-9)"/>
  <path d="m27-126.5s-5.5 12.75-8.25 24.75-5.75 23-5.75 23l50.625 16.281 15.781-58.906z" fill="url(#linearGradient4790-3)"/>
  <path d="m26-24.5s-4 10.25-7.5 24.25-5 30.75-5 30.75 0.14697-0.0454 0.4375-0.0937c2.0337-0.33838 11.219-1.5 28.062 1.3438 19.25 3.25 32.25 6 32.25 6l1.4688-52.5-0.75 0.125z" fill="url(#linearGradient4758-2)"/>
  <path d="m114.75-180.25s-3.25 3.5-22 8-27.5 5.75-27.5 5.75c5.1823 14.704 12.03 29.27 14.25 44.75l-0.09375 0.3125 48.031-3.9375 1.125 0.25c-3.3625-13.323-7.796-54.592-13.812-55.125z" fill="url(#linearGradient4750-9)"/>
  <path d="m117.59-78.094-53.625 15.719-0.34375-0.09375-0.125 0.46875 12.25 46.5-0.03125 0.75 49.469-8.875 0.53125 0.1875 0.0312-0.0625-8.25-54.25 0.0937-0.34375z" fill="url(#linearGradient4782-5)"/>
  <path d="m128.56-125.12c0.2342 0.92795 0.46352 1.7416 0.6875 2.375l-11.656 44.656 0.0937-0.0312 51.812 17.375 11.188-52.969c-0.35691 0.12314-0.69529 0.24538-1 0.375l-51.125-11.781z" fill="url(#linearGradient4798-4)"/>
  <path d="m125.53-23.5-11.031 48.5s5.5 0.5 22.5 6.25c2.125 0.71875 4.1631 1.4058 6.125 2.0312s3.8555 1.1856 5.625 1.7188c10.617 3.1992 17.5 4.75 17.5 4.75l12.719-45.406c-0.51226 0.18264-1.0185 0.381-1.5312 0.5625z" fill="url(#linearGradient4766-3)"/>
  <path d="m218-76c-15.666 6.288-31.698 11.15-48.062 15.406l-0.4375-0.15625 9.5 55-0.0312 0.0937c17.839-6.3601 35.381-13.387 52.781-20.844 0 0-0.5-4.5-3.75-19.75s-10-29.75-10-29.75z" fill="url(#linearGradient4965)"/>
 </g>
 <g transform="translate(0,182)" opacity=".043478">
  <path d="m13.719-179.97c-1.1062-3e-3 -1.9722 0.0321-2.7188 0.0625-0.44524 0.0181-0.85541 0.039-1.1562 0.0625-0.02929 2e-3 -0.06595-2e-3 -0.09375 0-0.39795 0.0327-0.65625 0.0625-0.75 0.0937 0 0 7.5 13 11.75 27.75s6.25 25.5 6.25 25.5l51.469 5.125 0.9375-0.0625 0.09375-0.3125c-2.2202-15.48-9.0677-30.046-14.25-44.75 0 0-18.5-9-31.5-11.5-1.0183-0.19582-2.0102-0.37068-3-0.53125-0.59561-0.0967-1.1669-0.19638-1.75-0.28125-0.23658-0.0344-0.45319-0.0612-0.6875-0.0937-1.3065-0.18185-2.588-0.34039-3.8125-0.46875-0.73455-0.077-1.3946-0.12759-2.0938-0.1875-0.68489-0.0591-1.3529-0.11189-2-0.15625-0.99187-0.0678-1.8904-0.11834-2.7812-0.15625-1.4564-0.0631-2.7692-0.0907-3.9062-0.0937z" fill="url(#linearGradient4686-3)"/>
  <path d="m13-78.75s5.75 16 9.25 30 3.75 24.25 3.75 24.25l48.969 9.875 0.75-0.125 0.03125-0.75-12.25-46.5 0.125-0.46875z" fill="url(#linearGradient4742-3)"/>
  <path d="m127.44-125.38-47.969 4h-0.0625l-15.781 58.906 0.34375 0.09375 53.625-15.719 11.656-44.656c-0.22398-0.63337-0.4533-1.447-0.6875-2.375z" fill="url(#linearGradient4734-3)"/>
  <path d="m125.19-23.625-49.469 8.875-1.4688 52.5s12.75-2.75 24-6.25 16.25-6.5 16.25-6.5l11.219-48.438z" fill="url(#linearGradient4726-9)"/>
  <path d="m114.75-180.25c6.0165 0.53311 10.45 41.802 13.812 55.125l51.125 11.781c0.30471-0.12962 0.64309-0.25186 1-0.375l0.0625-0.28125c-2.8132-6.8575-9.326-53.608-14.25-52.25 0 0-0.61328-0.25391-1.7188-0.71875-3.3164-1.3945-11.094-4.5938-20.281-7.7812-12.25-4.25-29.75-5.5-29.75-5.5z" fill="url(#linearGradient4710-2)"/>
  <path d="m117.69-78.125-0.0937 0.0312-0.0937 0.34375 8.25 53.25-0.21875 1 51.906 18.406c0.51276-0.1815 1.019-0.37986 1.5312-0.5625l0.0311-0.0937-9.5-55z" fill="url(#linearGradient4718-4)"/>
  <path d="m231.75-26.5c-17.4 7.457-34.942 14.484-52.781 20.844l-12.719 45.406s13-2.75 26-5.75 26.5-8 26.5-8-0.75-5 4.25-24.5 8.75-28 8.75-28z" fill="url(#linearGradient4694-4)"/>
  <path d="m235-126.5c-3.102 8.0136-42.505 8.7075-54.312 12.781l-11.188 52.969 0.4375 0.15625c16.365-4.2566 32.397-9.1182 48.062-15.406 0 0 1.75-10.5 6.75-23.75s10.25-26.75 10.25-26.75z" fill="url(#linearGradient4702-4)"/>
 </g>
 <g transform="matrix(1.2525 .035398 0 1.2525 -27.809 -48.344)" clip-path="url(#clipPath8617)">
  <path d="m9 12.25s7.5 13 11.75 27.75 6.25 25.5 6.25 25.5-5.5 12.75-8.25 24.75-5.75 23-5.75 23 5.75 16 9.25 30 3.75 24.25 3.75 24.25-4 10.25-7.5 24.25-5 30.75-5 30.75 9.25-2 28.5 1.25 32.25 6 32.25 6 12.75-2.75 24-6.25 16.25-6.5 16.25-6.5 5.5 0.5 22.5 6.25 29.25 8.5 29.25 8.5 13-2.75 26-5.75 26.5-8 26.5-8-0.75-5 4.25-24.5 8.75-28 8.75-28-0.5-4.5-3.75-19.75-10-29.75-10-29.75 1.75-10.5 6.75-23.75 10.25-26.75 10.25-26.75-4.75-15.25-7.5-29.75-8.25-25.75-8.25-25.75-24.25 9-31.75 10.5-21 5.25-21 5.25-9.75-4.25-22-8.5-29.75-5.5-29.75-5.5-3.25 3.5-22 8-27.5 5.75-27.5 5.75-18.5-9-31.5-11.5-24-2-24.75-1.75z" fill="#ceeeab"/>
  <g clip-path="url(#clipPath5466-2-3)">
   <path d="m110.75 5.5-4.25 7c-0.75 9-2.25 13.75-8.5 16.5s-12.25 3.5-11 7.5 13 9.25 14.25 13 8.25 1.75 11 7 2 15.25-3.75 17.25-17.5 0.5-20.25 9.5-4.75 10.5-9 12.75-7.25 10.5-3.5 16.5 12.25-1.25 15-6.5 7.25-8.75 7.25-8.75h23.75l59-1.75 3.25-3.75s3.25 4 2.75 8.75-3.75 14.75 0.25 17.25 19.5-2 24-7-4.75-28.25-10.5-29.5-18.5-1.75-17-7 11.75 4.5 17.25 3.25 16.75-21 12-25.25-24.25-5.25-25.75-8 21-8 22.25-11-2.5-7.25-6.25-8.5-14 16.25-21 15.75-20 5.75-17.25 11.5-6 11-14.5 6.5-24.75-13-21.75-24 21.5-18.75 21.5-18.75zm-13.562 107.22c-1.5948 0.14648-4.4688 4.6875-4.9375 7.0312-0.5 2.5-3.25 6.75-3.5 12.25s4.75 6.75 8.75 6.5 2.75-6.75 2-15c-0.25 0-0.5-10.25-2-10.75-0.09375-0.0312-0.20618-0.041-0.3125-0.0312zm92.719 51.656c-6.3354 0.29541-6.625 7.4688-7.4062 8.875-1.25 2.25 2.25 13.75 2 18s-4.75 5.25-9.5 9.75 0.5 16 11.25 31l44.75 1.25-1-35s4.75-4.25-20.75-24.25c-9.5625-7.5-15.542-9.8022-19.344-9.625zm-149.97 16.531c-4.0292-0.10254-8.2812 5.7188-9.6875 7.5938-1.5 2-6.25 5-17 9.5l-14.5 34.25 53 4.25s1.75-11-4.25-15.75-17.25-5.75-18.25-13.25 9.25-10 13.75-14.25 2-11.25-2.25-12.25c-0.26562-0.0625-0.54388-0.0869-0.8125-0.0937z" fill="#a6dd8b"/>
  </g>
  <path d="m158.53 85.344c-4.7598-0.01434-9.0312 0.96875-11.531 3.1562-8 7-35 0.75-48.5 7s-13.25 38-14.75 44.5-17.5 20.75-20 23.5-13.25 7.25-19.5 8.5-12.75 7.25-15.5 11c-2.0211 2.7561-7.406 6.4503-10.125 8.2188-0.0458 0.18128-0.07936 0.34868-0.125 0.53125-0.13369 0.53475-0.24712 1.0833-0.375 1.625 4.9795-1.6048 11.18-8.1795 16.625-13.625 6.25-6.25 20-7.75 27.75-11.5s14.25-19.75 26.5-23.75 21.25 11.75 24.25 18.5 1.75 12.75 3.75 17 11 11.75 11.5 13.5-5 6.5-6.25 8.5-10.5 7-11.75 8.75c-0.96568 1.352-1.9232 6.7731-2.3125 9.2188 0.41303-0.1692 0.75418-0.31053 1.125-0.46875 0.484-2.5293 1.5155-7.078 2.9375-8.5 2-2 11.25-4.5 12.5-8.5s7-6.5 7-6.5 2.75 4 16 14c8.8333 6.6667 12.758 15.534 14.406 20.719 0.6736 0.17065 1.533 0.4094 2.0312 0.53125-1.2212-4.3187-4.8365-16.239-8.9375-20.75-5-5.5-18.5-10.75-22.75-22s-24.5-34.25-17.5-40.25 16.5-4 28.5 7.5 46.25 5.75 57.75 3.75c9.9545-1.7312 20.834 14.883 23.906 26.031 0.589-2.0957 1.1266-4.0022 1.6562-5.75-1.7381-1.9258-3.6972-4.62-5.3125-8.2812-3.75-8.5-12-13.25-12-13.25s8.75-5 14.75-7.75c1.617-0.74114 3.0063-1.6771 4.1875-2.6562-0.16234-0.77403-0.25893-1.2558-0.4375-2.0938-0.0311-0.14611-0.062-0.29154-0.0937-0.4375-4.7656 5.5624-19.232 9.6153-21.656 10.938-2.75 1.5-18.25 3-35.75 4.5s-26.75-7.5-34.25-14.75-13-36-3-38 20 13.75 30 17 21.5-15.75 19.75-27c-1.2031-7.7344-13.997-12.625-24.469-12.656zm-53.344 13.281c1.2753 0.0015 5.8594 1.5938 6.5625 2.375 2.25 2.5 2 7.25 0 8s-12.75 8-10.5 14.25 1.75 18-3.5 18-8 0-10-2.5-2-12 0-19.75 3.5-15 8-18.25c3.0938-2.2344 6.6318-2.1284 9.4375-2.125zm13.594 73.094c0.20325 0.0137 1.9062 3.5156 4.7188 7.0312 3 3.75 3.25 8.25 3.25 8.25s-4.25-4.75-6-8-2-7.25-2-7.25c0-0.0312 0.0178-0.0323 0.0312-0.0312z" fill="#aac3e7"/>
  <g fill="none">
   <g stroke="#6d7f42">
    <path d="m122.75 72.25c6.25 0.5 12.25-2.25 10.75-6.5s-12.5-7.25-13.25-3 2 10.5 2.5 9.5z" opacity=".38696" stroke-linecap="round" stroke-linejoin="round"/>
    <path d="m108.75 56.75c-8.5-5.5-8.5-7.25-7-8s10.25 5 12.75 8-2.25 2-5.75 0z" opacity=".38696" stroke-linecap="round" stroke-linejoin="round"/>
    <g clip-path="url(#clipPath5383-0-0)">
     <path d="m15.75 151.25c33-2.5 38.25-3.5 36.25-10.25s-8.75-23.5-23-22.5-22.75-6.75-22.75-6.75" opacity=".38696" stroke-linecap="round" stroke-linejoin="round"/>
     <path d="m17.5 177.25c18.25-10 28.75-8.5 35-11.5s13.25-5.75 15.75-9.5 5.75-11.5 5.75-18-3.5-36 3.25-43.5 17.25-26 26-23.25 12.25 9.75 22 9.5 21.75-4 24.25-12.25-15.75-16-16-23 5.5-14.25 20.25-17 23.5-11.5 23.5-11.5" opacity=".38696"/>
     <g stroke-linecap="round" stroke-linejoin="round">
      <path d="m14.5 161c15.25-1.5 22.25 3.5 31.5 1.75s13.25-3 17.75-5.75 6-3.75 6.25-6.5 1-12.5-3-22-12.5-31.5-8.25-38.75 5.25-21.5 15.75-24.5 21-6.25 27.75-1.25 12.75 14.25 20 14.5 11.75-1.5 14.5-4.5 4.5-10.25 1.75-13.75-15.5-5.5-17.25-9.5-10.75-17-0.25-26.75 36.25-8.25 36.25-8.25" opacity=".38696"/>
      <path d="m21.25 159c13.75 1 21.5 4.25 33.5-0.5s13.5-5.25 13.75-8.75-0.25-15.75-3-20-13-13.75-15.75-24.25 0.25-41 8.5-48.25 32-7.25 37.5-10.5 5.25-16.75 13-24.5 27-12.25 27-12.25" opacity=".38696"/>
      <path d="m190 18.5c11.75 5 39 9.75 47.25 40.25" opacity=".38696"/>
      <path d="m9.75 214c19-12.5 36-1.25 49-4s38.25-37.25 46-37 5.5-11.75 8.5-13.25 5.5 6 11.75 8 24.5-2.75 23.5-5.75-7-7.75-5.5-8.5 8.5 5 12.75 3.5 43.75-1 48.5-13.5 21.5-13.5 21.5-13.5" opacity=".38696"/>
      <path d="m77.5 233.5c13.5-11.5 23.25-25 28.5-27s12.75-3.75 15.75-8 2.5-10.75 5.25-12 3.75 5.75 8.75 6 36.75-5 42.75-11.75 32.25-12.5 32.5-14.5-1-4.75 0.25-5.5 24.75-6 24.75-6" opacity=".38696"/>
      <path d="m168.75 236c9-13.75 20.5-41 29.5-42s10.25-2.5 12.5-4.25 17 2.25 17 2.25" opacity=".38696"/>
     </g>
    </g>
   </g>
   <g clip-path="url(#clipPath5426-1-6)" stroke="#d38484" stroke-linecap="round" stroke-width="2">
    <path d="m57.75 20-8.5 28.25 18 6.25 7.75 36.25-21 22.25 9 10.5-12 11.5 0.5 4.5 20.25 24.5 14-6.75 20.5 18.5-10.5 28.25 10.25 8.5-2.75 13"/>
    <path d="m105.75 212.25 12.5-27.75 11-7 27.5 15.75 20.5-3.75-0.25-15.75-10.25-6 12.75-26.25 5.75-3.75 38.75-10"/>
   </g>
  </g>
  <path d="m9 12.25s7.5 13 11.75 27.75 6.25 25.5 6.25 25.5-5.5 12.75-8.25 24.75-5.75 23-5.75 23 5.75 16 9.25 30 3.75 24.25 3.75 24.25-4 10.25-7.5 24.25-5 30.75-5 30.75 9.25-2 28.5 1.25 32.25 6 32.25 6 12.75-2.75 24-6.25 16.25-6.5 16.25-6.5 5.5 0.5 22.5 6.25 29.25 8.5 29.25 8.5 13-2.75 26-5.75 26.5-8 26.5-8-0.75-5 4.25-24.5 8.75-28 8.75-28-0.5-4.5-3.75-19.75-10-29.75-10-29.75 1.75-10.5 6.75-23.75 10.25-26.75 10.25-26.75-4.75-15.25-7.5-29.75-8.25-25.75-8.25-25.75-24.25 9-31.75 10.5-21 5.25-21 5.25-9.75-4.25-22-8.5-29.75-5.5-29.75-5.5-3.25 3.5-22 8-27.5 5.75-27.5 5.75-18.5-9-31.5-11.5-24-2-24.75-1.75z" fill="url(#linearGradient5168-2-9)" opacity=".03913"/>
  <g transform="translate(0,192)" opacity=".26957">
   <path d="m219.25-182s-24.25 9-31.75 10.5-21 5.25-21 5.25c4.924-1.3583 11.437 45.392 14.25 52.25l-0.0625 0.28125c11.808-4.0738 51.21-4.7677 54.312-12.781 0 0-4.75-15.25-7.5-29.75s-8.25-25.75-8.25-25.75z" fill="url(#linearGradient4806-9)"/>
   <path d="m27-126.5s-5.5 12.75-8.25 24.75-5.75 23-5.75 23l50.625 16.281 15.781-58.906z" fill="url(#linearGradient4790-3)"/>
   <path d="m26-24.5s-4 10.25-7.5 24.25-5 30.75-5 30.75 0.14697-0.0454 0.4375-0.0937c2.0337-0.33838 11.219-1.5 28.062 1.3438 19.25 3.25 32.25 6 32.25 6l1.4688-52.5-0.75 0.125z" fill="url(#linearGradient4758-2)"/>
   <path d="m114.75-180.25s-3.25 3.5-22 8-27.5 5.75-27.5 5.75c5.1823 14.704 12.03 29.27 14.25 44.75l-0.09375 0.3125 48.031-3.9375 1.125 0.25c-3.3625-13.323-7.796-54.592-13.812-55.125z" fill="url(#linearGradient4750-9)"/>
   <path d="m117.59-78.094-53.625 15.719-0.34375-0.09375-0.125 0.46875 12.25 46.5-0.03125 0.75 49.469-8.875 0.53125 0.1875 0.0312-0.0625-8.25-54.25 0.0937-0.34375z" fill="url(#linearGradient4782-5)"/>
   <path d="m128.56-125.12c0.2342 0.92795 0.46352 1.7416 0.6875 2.375l-11.656 44.656 0.0937-0.0312 51.812 17.375 11.188-52.969c-0.35691 0.12314-0.69529 0.24538-1 0.375l-51.125-11.781z" fill="url(#linearGradient4798-4)"/>
   <path d="m125.53-23.5-11.031 48.5s5.5 0.5 22.5 6.25c2.125 0.71875 4.1631 1.4058 6.125 2.0312s3.8555 1.1856 5.625 1.7188c10.617 3.1992 17.5 4.75 17.5 4.75l12.719-45.406c-0.51226 0.18264-1.0185 0.381-1.5312 0.5625z" fill="url(#linearGradient4766-3)"/>
   <path d="m218-76c-15.666 6.288-31.698 11.15-48.062 15.406l-0.4375-0.15625 9.5 55-0.0312 0.0937c17.839-6.3601 35.381-13.387 52.781-20.844 0 0-0.5-4.5-3.75-19.75s-10-29.75-10-29.75z" fill="url(#linearGradient4965)"/>
  </g>
  <g transform="translate(0,192)" opacity=".043478">
   <path d="m13.719-179.97c-1.1062-3e-3 -1.9722 0.0321-2.7188 0.0625-0.44524 0.0181-0.85541 0.039-1.1562 0.0625-0.02929 2e-3 -0.06595-2e-3 -0.09375 0-0.39795 0.0327-0.65625 0.0625-0.75 0.0937 0 0 7.5 13 11.75 27.75s6.25 25.5 6.25 25.5l51.469 5.125 0.9375-0.0625 0.09375-0.3125c-2.2202-15.48-9.0677-30.046-14.25-44.75 0 0-18.5-9-31.5-11.5-1.0183-0.19582-2.0102-0.37068-3-0.53125-0.59561-0.0967-1.1669-0.19638-1.75-0.28125-0.23658-0.0344-0.45319-0.0612-0.6875-0.0937-1.3065-0.18185-2.588-0.34039-3.8125-0.46875-0.73455-0.077-1.3946-0.12759-2.0938-0.1875-0.68489-0.0591-1.3529-0.11189-2-0.15625-0.99187-0.0678-1.8904-0.11834-2.7812-0.15625-1.4564-0.0631-2.7692-0.0907-3.9062-0.0937z" fill="url(#linearGradient4686-3)"/>
   <path d="m13-78.75s5.75 16 9.25 30 3.75 24.25 3.75 24.25l48.969 9.875 0.75-0.125 0.03125-0.75-12.25-46.5 0.125-0.46875z" fill="url(#linearGradient4742-3)"/>
   <path d="m127.44-125.38-47.969 4h-0.0625l-15.781 58.906 0.34375 0.09375 53.625-15.719 11.656-44.656c-0.22398-0.63337-0.4533-1.447-0.6875-2.375z" fill="url(#linearGradient4734-3)"/>
   <path d="m125.19-23.625-49.469 8.875-1.4688 52.5s12.75-2.75 24-6.25 16.25-6.5 16.25-6.5l11.219-48.438z" fill="url(#linearGradient4726-9)"/>
   <path d="m114.75-180.25c6.0165 0.53311 10.45 41.802 13.812 55.125l51.125 11.781c0.30471-0.12962 0.64309-0.25186 1-0.375l0.0625-0.28125c-2.8132-6.8575-9.326-53.608-14.25-52.25 0 0-0.61328-0.25391-1.7188-0.71875-3.3164-1.3945-11.094-4.5938-20.281-7.7812-12.25-4.25-29.75-5.5-29.75-5.5z" fill="url(#linearGradient4710-2)"/>
   <path d="m117.69-78.125-0.0937 0.0312-0.0937 0.34375 8.25 53.25-0.21875 1 51.906 18.406c0.51276-0.1815 1.019-0.37986 1.5312-0.5625l0.0311-0.0937-9.5-55z" fill="url(#linearGradient4718-4)"/>
   <path d="m231.75-26.5c-17.4 7.457-34.942 14.484-52.781 20.844l-12.719 45.406s13-2.75 26-5.75 26.5-8 26.5-8-0.75-5 4.25-24.5 8.75-28 8.75-28z" fill="url(#linearGradient4694-4)"/>
   <path d="m235-126.5c-3.102 8.0136-42.505 8.7075-54.312 12.781l-11.188 52.969 0.4375 0.15625c16.365-4.2566 32.397-9.1182 48.062-15.406 0 0 1.75-10.5 6.75-23.75s10.25-26.75 10.25-26.75z" fill="url(#linearGradient4702-4)"/>
  </g>
 </g>
 <path transform="matrix(1 .080878 0 1 0 -21.056)" d="m174.28 35.875c-17.599 0-35.192 6.6395-48.719 19.906-0.16722 0.16328-0.33437 0.30312-0.5 0.46875-22.056 22.056-26.209 55.251-12.469 81.5l-2.2812 1.625c2.2488 4.2399 4.9416 8.3068 8.0938 12.125l-13.312 13.344c-1.3414-0.58575-2.7886-1.0333-4.5625-1.375l-2.8438 2.8438c-1.1095-0.48387-2.138-0.81588-3.0625-0.875l-64.125 64.125c-0.03687 1.1009 0.22615 2.1874 0.65625 3.2812l-1.625 1.625c0.71544 3.7378 2.0104 6.8229 5.4688 10.281 3.4583 3.4583 6.4204 4.6303 10.281 5.4688l1.8125-1.8125c1.0882 0.46225 2.1299 0.78617 3.0938 0.84375l64.125-64.125c-0.24286-0.97475-0.62043-1.9355-1.0312-2.9062l3-3c-0.24983-1.732-0.67671-3.198-1.3125-4.5938l13.281-13.281c3.8182 3.1521 7.8851 5.845 12.125 8.0938l1.625-2.2812c26.249 13.74 59.444 9.5872 81.5-12.469 0.16563-0.16564 0.30547-0.33278 0.46875-0.5 26.694-27.217 26.549-70.92-0.46875-97.938-13.59-13.59-31.407-20.375-49.219-20.375zm-0.5 3.2812c0.10467 0.0015 0.20783-2e-3 0.3125 0 0.94919 0.0184 1.8954 0.06527 2.8438 0.125 0.95844 0.06036 1.9188 0.14751 2.875 0.25 0.0937 0.01005 0.18754 0.0208 0.28125 0.03125 0.094 0.01048 0.1873 0.02037 0.28125 0.03125 0.1457 0.01688 0.29187 0.04464 0.4375 0.0625 0.8962 0.1099 1.7949 0.22812 2.6875 0.375 0.61909 0.10187 1.2269 0.22412 1.8438 0.34375 0.34295 0.06644 0.68907 0.11558 1.0312 0.1875 0.7237 0.15211 1.4365 0.32339 2.1562 0.5 0.31305 0.07681 0.62528 0.13731 0.9375 0.21875 0.0731 0.01906 0.1457 0.04319 0.21875 0.0625 0.9559 0.25284 1.8967 0.51629 2.8438 0.8125 0.0724 0.02261 0.14641 0.03963 0.21875 0.0625 0.94741 0.29984 1.9068 0.62554 2.8438 0.96875 0.0531 0.01945 0.10323 0.04291 0.15625 0.0625 0.95458 0.3524 1.9017 0.72763 2.8438 1.125 0.0515 0.02172 0.10478 0.04064 0.15625 0.0625 0.94184 0.40005 1.8849 0.83628 2.8125 1.2812 0.042 0.02016 0.083 0.04225 0.125 0.0625 0.93538 0.45109 1.8621 0.90953 2.7812 1.4062 0.0331 0.01788 0.0607 0.04456 0.0937 0.0625 0.92681 0.50283 1.8414 1.0133 2.75 1.5625 0.0321 0.01939 0.0617 0.04305 0.0937 0.0625 0.9081 0.55093 1.7994 1.1216 2.6875 1.7188 0.54895 0.36907 1.0842 0.76954 1.625 1.1562 0.3647 0.26083 0.73291 0.51241 1.0938 0.78125 0.0185 0.01381 0.044 0.01742 0.0625 0.03125 0.87764 0.65521 1.7402 1.3599 2.5938 2.0625 1.7427 1.4344 3.4314 2.9627 5.0625 4.5938 1.6205 1.6205 3.1362 3.3006 4.5625 5.0312 9e-3 0.01124 0.022 0.02 0.0312 0.03125 0.70321 0.85436 1.4067 1.7152 2.0625 2.5938 0.28277 0.37877 0.53857 0.77322 0.8125 1.1562 0.36973 0.51706 0.74014 1.038 1.0938 1.5625 0.0162 0.02399 0.0464 0.03849 0.0625 0.0625 0.59812 0.88963 1.167 1.7778 1.7188 2.6875 0.0195 0.03207 0.0431 0.06166 0.0625 0.09375 0.54559 0.90292 1.0627 1.8291 1.5625 2.75 0.0179 0.03294 0.0447 0.06079 0.0625 0.09375 0.498 0.92121 0.95408 1.8437 1.4062 2.7812 0.0202 0.04194 0.0424 0.08302 0.0625 0.125 0.44611 0.92987 0.88027 1.8683 1.2812 2.8125 0.0218 0.05123 0.0409 0.10498 0.0625 0.15625 0.3948 0.93612 0.77461 1.8952 1.125 2.8438 0.0194 0.05253 0.0432 0.10369 0.0625 0.15625 0.34761 0.94836 0.66558 1.8846 0.96875 2.8438 0.0227 0.07167 0.0401 0.14703 0.0625 0.21875 0.29398 0.94117 0.56134 1.8938 0.8125 2.8438 0.0195 0.07353 0.0433 0.14517 0.0625 0.21875 0.0807 0.30955 0.14258 0.62713 0.21875 0.9375 0.17661 0.71978 0.34789 1.4325 0.5 2.1562 0.0719 0.34218 0.12106 0.6883 0.1875 1.0312 0.11963 0.61688 0.24188 1.2247 0.34375 1.8438 0.14688 0.89259 0.2651 1.7913 0.375 2.6875 0.0179 0.14596 0.0456 0.29146 0.0625 0.4375 0.0108 0.09329 0.0208 0.18793 0.0312 0.28125 0.0105 0.09398 0.0212 0.18724 0.0312 0.28125 0.10249 0.9562 0.18964 1.9166 0.25 2.875 0.0592 0.94244 0.10661 1.9005 0.125 2.8438 2e-3 0.10413-2e-3 0.20837 0 0.3125 0.0154 1.0533 4e-3 2.1038-0.0312 3.1562-0.0316 0.93056-0.0847 1.8528-0.15625 2.7812-0.01 0.12493-0.0209 0.25012-0.0312 0.375-0.0761 0.91807-0.16591 1.8354-0.28125 2.75-0.1206 0.95626-0.27395 1.9239-0.4375 2.875-0.0142 0.0824-0.0168 0.16767-0.0312 0.25-0.022 0.12485-0.0397 0.25026-0.0625 0.375-0.16526 0.90778-0.3579 1.8173-0.5625 2.7188-0.0306 0.13463-0.0623 0.27178-0.0937 0.40625-0.20775 0.88866-0.44134 1.7751-0.6875 2.6562-0.16391 0.58672-0.35028 1.167-0.53125 1.75-0.17541 0.56412-0.33984 1.1272-0.53125 1.6875-0.29467 0.86381-0.60475 1.7088-0.9375 2.5625-0.0606 0.15549-0.12566 0.31362-0.1875 0.46875-0.0449 0.11246-0.0795 0.23148-0.125 0.34375-0.3561 0.87862-0.72813 1.7276-1.125 2.5938-0.37698 0.82347-0.7736 1.6264-1.1875 2.4375-0.0805 0.15778-0.16807 0.31147-0.25 0.46875-0.41528 0.7974-0.82998 1.591-1.2812 2.375-0.0952 0.16556-0.1844 0.33506-0.28125 0.5-0.19907 0.33885-0.41915 0.66384-0.625 1-0.36165 0.59093-0.74237 1.1678-1.125 1.75-5e-3 7e-3 5e-3 0.0238 0 0.0312-0.49081 0.74574-1.0059 1.4882-1.5312 2.2188-0.45727 0.63592-0.95404 1.2513-1.4375 1.875-0.19696 0.25409-0.36119 0.52926-0.5625 0.78125-0.13402 0.16779-0.2703 0.33315-0.40625 0.5-0.16351 0.20064-0.3337 0.39451-0.5 0.59375-0.55662 0.66705-1.1308 1.3178-1.7188 1.9688-0.60631 0.67104-1.2353 1.347-1.875 2-0.16096 0.16426-0.30567 0.33692-0.46875 0.5-21.13 21.13-52.259 24.495-77.188 11.156l0.125-0.1875c-3.7042-1.8966-7.2617-4.1405-10.625-6.7812-0.53892-0.42315-1.0654-0.86982-1.5938-1.3125-0.51441-0.43097-1.0273-0.8629-1.5312-1.3125-0.0929-0.0836-0.18872-0.1658-0.28125-0.25-0.82173-0.74776-1.6119-1.5181-2.4062-2.3125s-1.5647-1.5845-2.3125-2.4062c-0.0842-0.0925-0.16639-0.18838-0.25-0.28125-0.4496-0.50395-0.88153-1.0168-1.3125-1.5312-0.44268-0.52838-0.88935-1.0548-1.3125-1.5938-2.6408-3.3633-4.8846-6.9208-6.7812-10.625l-0.1875 0.125c-13.339-24.929-9.9741-56.057 11.156-77.188 0.16308-0.16308 0.33574-0.30778 0.5-0.46875 0.65295-0.63968 1.329-1.2687 2-1.875 0.6509-0.58796 1.3017-1.1621 1.9688-1.7188 0.27214-0.22709 0.53777-0.46562 0.8125-0.6875 0.34347-0.27743 0.71509-0.51196 1.0625-0.78125 0.62372-0.48346 1.2391-0.98023 1.875-1.4375 0.73753-0.53033 1.497-1.0361 2.25-1.5312 0.58223-0.38263 1.1591-0.76335 1.75-1.125 0.44667-0.27336 0.89235-0.55112 1.3438-0.8125 0.68145-0.39479 1.3708-0.75747 2.0625-1.125 0.17606-0.09355 0.35456-0.18946 0.53125-0.28125 0.94525-0.49098 1.8814-0.9657 2.8438-1.4062 0.86615-0.39688 1.7151-0.7689 2.5938-1.125 0.15281-0.06193 0.31559-0.09555 0.46875-0.15625 0.96839-0.38402 1.9247-0.75891 2.9062-1.0938 0.56026-0.19141 1.1234-0.35584 1.6875-0.53125 0.58295-0.18097 1.1633-0.36734 1.75-0.53125 0.88115-0.24616 1.7676-0.47975 2.6562-0.6875 0.0711-0.01664 0.14757-0.01486 0.21875-0.03125 0.41593-0.09574 0.83264-0.1939 1.25-0.28125 0.67213-0.14082 1.3558-0.28716 2.0312-0.40625 0.0823-0.01449 0.16763-0.01709 0.25-0.03125 0.95107-0.16355 1.9187-0.3169 2.875-0.4375 1.9636-0.24764 3.9299-0.40164 5.9062-0.46875 1.0524-0.03564 2.1029-0.04663 3.1562-0.03125z" clip-path="url(#clipPath8750)" fill="#2d3335" filter="url(#filter7286)"/>
 <path d="m48.01 227.46-4.8075 4.5578c-5.0063-5.3152-10.24-10.706-15.079-16.133l4.4902-4.0726c6.8292 6.5343 8.8726 8.5299 15.397 15.648z" fill="url(#linearGradient6241)"/>
 <path d="m125.06 134.69c-27.18-27.18-27.18-71.247 0-98.427s71.247-27.18 98.427 0 27.18 71.247 0 98.427-71.247 27.18-98.427 0zm2.9528-2.9528c26.093 26.093 67.413 27.077 93.506 0.98427 26.093-26.093 25.108-67.413-0.98428-93.506s-67.413-27.077-93.506-0.98427c-26.093 26.093-25.108 67.413 0.98428 93.506z" fill="#2d3335"/>
 <path d="m125.06 134.69c-27.18-27.18-27.18-71.247 0-98.427 0.16563-0.16563 0.32492-0.32886 0.49214-0.49214-26.685 27.218-26.522 70.921 0.49213 97.935 27.014 27.014 70.717 27.177 97.935 0.49214-0.16328 0.16722-0.32651 0.3265-0.49214 0.49214-27.18 27.18-71.247 27.18-98.427 0zm2.4607-96.951c0.16259-0.16653 0.3271-0.3271 0.49214-0.49214 26.093-26.093 67.413-25.108 93.506 0.98427 26.093 26.093 27.077 67.413 0.98427 93.506-0.16504 0.16504-0.32561 0.32955-0.49214 0.49214 25.587-26.118 24.451-67.086-1.4764-93.014-25.928-25.928-66.896-27.064-93.014-1.4764z" fill="#9eaaac"/>
 <path d="m127.03 132.72c26.093 26.093 68.397 26.093 94.49 0s26.093-68.397 0-94.49-68.397-26.093-94.49 0-26.093 68.397 0 94.49z" fill="#d0e9f2" fill-opacity=".47594"/>
 <path d="m127.03 132.72c26.093 26.093 68.397 26.093 94.49 0s26.093-68.397 0-94.49-68.397-26.093-94.49 0-26.093 68.397 0 94.49z" fill="url(#radialGradient6256)"/>
 <path d="m116.05 115.28-5.7518 4.0909c3.2953 6.213 7.5633 12.054 12.796 17.286 5.2322 5.2322 11.073 9.5003 17.286 12.796l4.0909-5.7518c-5.9267-3.0346-11.494-7.0033-16.456-11.965-4.9618-4.9618-8.9305-10.529-11.965-16.456z" fill="url(#linearGradient6253)"/>
 <path d="m124.82 134.93c1.7292 1.7292 3.084 3.6709 4.1216 5.7211l-26.206 26.206c-2.0502-1.0377-3.9919-2.3925-5.7211-4.1216s-3.084-3.6709-4.1216-5.7211l26.206-26.206c2.0502 1.0377 3.9919 2.3925 5.7211 4.1216z" fill="url(#linearGradient6250)"/>
 <path d="m116.27 159.23-66.068 66.068c-3.9839-2.1918-5.8313-3.0004-9.2896-6.4588-3.4583-3.4583-4.2669-5.3057-6.4587-9.2896l66.068-66.068c5.0634 3.748 12.117 10.398 15.748 15.748z" fill="url(#linearGradient6247)"/>
 <path d="m105.78 154.12c3.4583 3.4583 7.4348 6.6664 8.5193 11.019l-64.1 64.1c-6.5161-5.155-14.555-12.791-19.685-19.685l64.1-64.1c3.4917 0.2233 7.6588 5.1589 11.117 8.6172z" fill="url(#linearGradient6244)"/>
 <path d="m105.53 154.36c3.4583 3.4583 7.6794 6.4217 8.764 10.775l-64.1 64.1c-7.8769-6.9075-11.797-10.624-19.685-19.685l64.1-64.1c3.4917 0.2233 7.4142 5.4524 10.873 8.9107z" fill="url(#linearGradient6279)" opacity=".59565"/>
 <path d="m131.17 37.05c40.659-32.173 78.135-12.728 77.782 5.3033s-56.569 70.357-76.368 66.114-25.456-53.387-1.4142-71.418z" fill="url(#linearGradient6595)" opacity=".60435"/>
 <g transform="rotate(-8.8996)" fill="url(#radialGradient6482)" opacity=".46087" aria-label="010110010011010110010011">
  <path d="m104.6 61.982q0-0.5124 0.34805-0.86045 0.34804-0.34805 0.85078-0.34805 0.5124 0 0.86045 0.34805 0.34804 0.34805 0.34804 0.86045 0 0.50273-0.34804 0.85078-0.34805 0.34805-0.86045 0.34805-0.50274 0-0.85078-0.33838-0.34805-0.34805-0.34805-0.86045zm1.1988-5.0757q-0.98613 0-1.4405 1.2085-0.45439 1.2085-0.45439 3.8672 0 2.649 0.45439 3.8575 0.4544 1.2085 1.4405 1.2085 0.9958 0 1.4502-1.2085 0.4544-1.2085 0.4544-3.8575 0-2.6587-0.4544-3.8672-0.45439-1.2085-1.4502-1.2085zm-4.7663 5.0757q0-3.7512 1.1892-5.6171 1.1892-1.8756 3.5772-1.8756 2.3976 0 3.5868 1.8659t1.1892 5.6268q0 3.7512-1.1892 5.6171t-3.5868 1.8659q-2.388 0-3.5772-1.8659-1.1892-1.8756-1.1892-5.6171z"/>
  <path d="m113.57 66.671h3.1904v-9.3683l-2.9681 0.73477v-2.5717l2.9874-0.71543h2.7554v11.921h3.1904v2.5137h-9.1556z"/>
  <path d="m128.42 61.982q0-0.5124 0.34805-0.86045 0.34805-0.34805 0.85078-0.34805 0.51241 0 0.86045 0.34805 0.34805 0.34805 0.34805 0.86045 0 0.50273-0.34805 0.85078-0.34804 0.34805-0.86045 0.34805-0.50273 0-0.85078-0.33838-0.34805-0.34805-0.34805-0.86045zm1.1988-5.0757q-0.98613 0-1.4405 1.2085-0.4544 1.2085-0.4544 3.8672 0 2.649 0.4544 3.8575 0.45439 1.2085 1.4405 1.2085 0.9958 0 1.4502-1.2085 0.45439-1.2085 0.45439-3.8575 0-2.6587-0.45439-3.8672-0.4544-1.2085-1.4502-1.2085zm-4.7663 5.0757q0-3.7512 1.1892-5.6171 1.1892-1.8756 3.5772-1.8756 2.3977 0 3.5868 1.8659t1.1892 5.6268q0 3.7512-1.1892 5.6171t-3.5868 1.8659q-2.388 0-3.5772-1.8659-1.1892-1.8756-1.1892-5.6171z"/>
  <path d="m137.39 66.671h3.1904v-9.3683l-2.9681 0.73477v-2.5717l2.9874-0.71543h2.7554v11.921h3.1904v2.5137h-9.1556z"/>
  <path d="m149.3 66.671h3.1904v-9.3683l-2.9681 0.73477v-2.5717l2.9874-0.71543h2.7554v11.921h3.1904v2.5137h-9.1556z"/>
  <path d="m164.15 61.982q0-0.5124 0.34804-0.86045 0.34805-0.34805 0.85079-0.34805 0.5124 0 0.86044 0.34805 0.34805 0.34805 0.34805 0.86045 0 0.50273-0.34805 0.85078-0.34804 0.34805-0.86044 0.34805-0.50274 0-0.85079-0.33838-0.34804-0.34805-0.34804-0.86045zm1.1988-5.0757q-0.98614 0-1.4405 1.2085-0.4544 1.2085-0.4544 3.8672 0 2.649 0.4544 3.8575 0.45439 1.2085 1.4405 1.2085 0.9958 0 1.4502-1.2085 0.4544-1.2085 0.4544-3.8575 0-2.6587-0.4544-3.8672-0.45439-1.2085-1.4502-1.2085zm-4.7663 5.0757q0-3.7512 1.1892-5.6171 1.1892-1.8756 3.5772-1.8756 2.3976 0 3.5868 1.8659t1.1892 5.6268q0 3.7512-1.1892 5.6171t-3.5868 1.8659q-2.388 0-3.5772-1.8659-1.1892-1.8756-1.1892-5.6171z"/>
  <path d="m176.06 61.982q0-0.5124 0.34805-0.86045 0.34805-0.34805 0.85078-0.34805 0.5124 0 0.86045 0.34805 0.34805 0.34805 0.34805 0.86045 0 0.50273-0.34805 0.85078t-0.86045 0.34805q-0.50273 0-0.85078-0.33838-0.34805-0.34805-0.34805-0.86045zm1.1988-5.0757q-0.98613 0-1.4405 1.2085-0.45439 1.2085-0.45439 3.8672 0 2.649 0.45439 3.8575 0.4544 1.2085 1.4405 1.2085 0.9958 0 1.4502-1.2085 0.45439-1.2085 0.45439-3.8575 0-2.6587-0.45439-3.8672-0.4544-1.2085-1.4502-1.2085zm-4.7663 5.0757q0-3.7512 1.1892-5.6171 1.1892-1.8756 3.5772-1.8756 2.3977 0 3.5868 1.8659t1.1892 5.6268q0 3.7512-1.1892 5.6171t-3.5868 1.8659q-2.388 0-3.5772-1.8659-1.1892-1.8756-1.1892-5.6171z"/>
  <path d="m185.03 66.671h3.1904v-9.3683l-2.9681 0.73477v-2.5717l2.9874-0.71543h2.7554v11.921h3.1904v2.5137h-9.1556z"/>
  <path d="m104.6 86.731q0-0.5124 0.34805-0.86045 0.34804-0.34805 0.85078-0.34805 0.5124 0 0.86045 0.34805 0.34804 0.34805 0.34804 0.86045 0 0.50273-0.34804 0.85078-0.34805 0.34805-0.86045 0.34805-0.50274 0-0.85078-0.33838-0.34805-0.34805-0.34805-0.86045zm1.1988-5.0757q-0.98613 0-1.4405 1.2085-0.45439 1.2085-0.45439 3.8672 0 2.649 0.45439 3.8575 0.4544 1.2085 1.4405 1.2085 0.9958 0 1.4502-1.2085 0.4544-1.2085 0.4544-3.8575 0-2.6587-0.4544-3.8672-0.45439-1.2085-1.4502-1.2085zm-4.7663 5.0757q0-3.7512 1.1892-5.6171 1.1892-1.8756 3.5772-1.8756 2.3976 0 3.5868 1.8659t1.1892 5.6268q0 3.7512-1.1892 5.6171-1.1892 1.8659-3.5868 1.8659-2.388 0-3.5772-1.8659-1.1892-1.8756-1.1892-5.6171z"/>
  <path d="m116.51 86.731q0-0.5124 0.34804-0.86045 0.34805-0.34805 0.85079-0.34805 0.5124 0 0.86044 0.34805 0.34805 0.34805 0.34805 0.86045 0 0.50273-0.34805 0.85078-0.34804 0.34805-0.86044 0.34805-0.50274 0-0.85079-0.33838-0.34804-0.34805-0.34804-0.86045zm1.1988-5.0757q-0.98614 0-1.4405 1.2085-0.4544 1.2085-0.4544 3.8672 0 2.649 0.4544 3.8575 0.45439 1.2085 1.4405 1.2085 0.9958 0 1.4502-1.2085 0.4544-1.2085 0.4544-3.8575 0-2.6587-0.4544-3.8672-0.45439-1.2085-1.4502-1.2085zm-4.7663 5.0757q0-3.7512 1.1892-5.6171 1.1892-1.8756 3.5772-1.8756 2.3976 0 3.5868 1.8659t1.1892 5.6268q0 3.7512-1.1892 5.6171-1.1892 1.8659-3.5868 1.8659-2.388 0-3.5772-1.8659-1.1892-1.8756-1.1892-5.6171z"/>
  <path d="m125.48 91.42h3.1904v-9.3683l-2.9681 0.73477v-2.5717l2.9874-0.71543h2.7554v11.921h3.1904v2.5137h-9.1556z"/>
  <path d="m137.39 91.42h3.1904v-9.3683l-2.9681 0.73477v-2.5717l2.9874-0.71543h2.7554v11.921h3.1904v2.5137h-9.1556z"/>
  <path d="m152.24 86.731q0-0.5124 0.34805-0.86045 0.34804-0.34805 0.85078-0.34805 0.5124 0 0.86045 0.34805 0.34804 0.34805 0.34804 0.86045 0 0.50273-0.34804 0.85078-0.34805 0.34805-0.86045 0.34805-0.50274 0-0.85078-0.33838-0.34805-0.34805-0.34805-0.86045zm1.1988-5.0757q-0.98614 0-1.4405 1.2085t-0.45439 3.8672q0 2.649 0.45439 3.8575t1.4405 1.2085q0.9958 0 1.4502-1.2085 0.4544-1.2085 0.4544-3.8575 0-2.6587-0.4544-3.8672-0.45439-1.2085-1.4502-1.2085zm-4.7663 5.0757q0-3.7512 1.1892-5.6171 1.1892-1.8756 3.5772-1.8756 2.3976 0 3.5868 1.8659t1.1892 5.6268q0 3.7512-1.1892 5.6171-1.1892 1.8659-3.5868 1.8659-2.388 0-3.5772-1.8659-1.1892-1.8756-1.1892-5.6171z"/>
  <path d="m161.21 91.42h3.1904v-9.3683l-2.9681 0.73477v-2.5717l2.9874-0.71543h2.7554v11.921h3.1904v2.5137h-9.1556z"/>
  <path d="m176.06 86.731q0-0.5124 0.34805-0.86045t0.85078-0.34805q0.5124 0 0.86045 0.34805t0.34805 0.86045q0 0.50273-0.34805 0.85078t-0.86045 0.34805q-0.50273 0-0.85078-0.33838-0.34805-0.34805-0.34805-0.86045zm1.1988-5.0757q-0.98613 0-1.4405 1.2085-0.45439 1.2085-0.45439 3.8672 0 2.649 0.45439 3.8575 0.4544 1.2085 1.4405 1.2085 0.9958 0 1.4502-1.2085 0.45439-1.2085 0.45439-3.8575 0-2.6587-0.45439-3.8672-0.4544-1.2085-1.4502-1.2085zm-4.7663 5.0757q0-3.7512 1.1892-5.6171 1.1892-1.8756 3.5772-1.8756 2.3977 0 3.5868 1.8659t1.1892 5.6268q0 3.7512-1.1892 5.6171-1.1892 1.8659-3.5868 1.8659-2.388 0-3.5772-1.8659-1.1892-1.8756-1.1892-5.6171z"/>
  <path d="m185.03 91.42h3.1904v-9.3683l-2.9681 0.73477v-2.5717l2.9874-0.71543h2.7554v11.921h3.1904v2.5137h-9.1556z"/>
  <path d="m101.66 116.17h3.1904v-9.3683l-2.9681 0.73477v-2.5717l2.9874-0.71543h2.7554v11.921h3.1904v2.5137h-9.1556z"/>
  <path d="m116.51 111.48q0-0.5124 0.34804-0.86045 0.34805-0.34804 0.85079-0.34804 0.5124 0 0.86044 0.34804 0.34805 0.34805 0.34805 0.86045 0 0.50274-0.34805 0.85078-0.34804 0.34805-0.86044 0.34805-0.50274 0-0.85079-0.33838-0.34804-0.34805-0.34804-0.86045zm1.1988-5.0757q-0.98614 0-1.4405 1.2085-0.4544 1.2085-0.4544 3.8672 0 2.649 0.4544 3.8575 0.45439 1.2085 1.4405 1.2085 0.9958 0 1.4502-1.2085 0.4544-1.2085 0.4544-3.8575 0-2.6587-0.4544-3.8672-0.45439-1.2085-1.4502-1.2085zm-4.7663 5.0757q0-3.7512 1.1892-5.6171 1.1892-1.8756 3.5772-1.8756 2.3976 0 3.5868 1.8659 1.1892 1.8659 1.1892 5.6268 0 3.7512-1.1892 5.6171t-3.5868 1.8659q-2.388 0-3.5772-1.8659-1.1892-1.8756-1.1892-5.6171z"/>
  <path d="m128.42 111.48q0-0.5124 0.34805-0.86045 0.34805-0.34804 0.85078-0.34804 0.51241 0 0.86045 0.34804 0.34805 0.34805 0.34805 0.86045 0 0.50274-0.34805 0.85078-0.34804 0.34805-0.86045 0.34805-0.50273 0-0.85078-0.33838-0.34805-0.34805-0.34805-0.86045zm1.1988-5.0757q-0.98613 0-1.4405 1.2085-0.4544 1.2085-0.4544 3.8672 0 2.649 0.4544 3.8575 0.45439 1.2085 1.4405 1.2085 0.9958 0 1.4502-1.2085 0.45439-1.2085 0.45439-3.8575 0-2.6587-0.45439-3.8672-0.4544-1.2085-1.4502-1.2085zm-4.7663 5.0757q0-3.7512 1.1892-5.6171 1.1892-1.8756 3.5772-1.8756 2.3977 0 3.5868 1.8659 1.1892 1.8659 1.1892 5.6268 0 3.7512-1.1892 5.6171t-3.5868 1.8659q-2.388 0-3.5772-1.8659-1.1892-1.8756-1.1892-5.6171z"/>
  <path d="m137.39 116.17h3.1904v-9.3683l-2.9681 0.73477v-2.5717l2.9874-0.71543h2.7554v11.921h3.1904v2.5137h-9.1556z"/>
  <path d="m152.24 111.48q0-0.5124 0.34805-0.86045 0.34804-0.34804 0.85078-0.34804 0.5124 0 0.86045 0.34804 0.34804 0.34805 0.34804 0.86045 0 0.50274-0.34804 0.85078-0.34805 0.34805-0.86045 0.34805-0.50274 0-0.85078-0.33838-0.34805-0.34805-0.34805-0.86045zm1.1988-5.0757q-0.98614 0-1.4405 1.2085-0.45439 1.2085-0.45439 3.8672 0 2.649 0.45439 3.8575t1.4405 1.2085q0.9958 0 1.4502-1.2085 0.4544-1.2085 0.4544-3.8575 0-2.6587-0.4544-3.8672-0.45439-1.2085-1.4502-1.2085zm-4.7663 5.0757q0-3.7512 1.1892-5.6171 1.1892-1.8756 3.5772-1.8756 2.3976 0 3.5868 1.8659 1.1892 1.8659 1.1892 5.6268 0 3.7512-1.1892 5.6171t-3.5868 1.8659q-2.388 0-3.5772-1.8659-1.1892-1.8756-1.1892-5.6171z"/>
  <path d="m164.15 111.48q0-0.5124 0.34804-0.86045 0.34805-0.34804 0.85079-0.34804 0.5124 0 0.86044 0.34804 0.34805 0.34805 0.34805 0.86045 0 0.50274-0.34805 0.85078-0.34804 0.34805-0.86044 0.34805-0.50274 0-0.85079-0.33838-0.34804-0.34805-0.34804-0.86045zm1.1988-5.0757q-0.98614 0-1.4405 1.2085-0.4544 1.2085-0.4544 3.8672 0 2.649 0.4544 3.8575 0.45439 1.2085 1.4405 1.2085 0.9958 0 1.4502-1.2085 0.4544-1.2085 0.4544-3.8575 0-2.6587-0.4544-3.8672-0.45439-1.2085-1.4502-1.2085zm-4.7663 5.0757q0-3.7512 1.1892-5.6171 1.1892-1.8756 3.5772-1.8756 2.3976 0 3.5868 1.8659 1.1892 1.8659 1.1892 5.6268 0 3.7512-1.1892 5.6171t-3.5868 1.8659q-2.388 0-3.5772-1.8659-1.1892-1.8756-1.1892-5.6171z"/>
  <path d="m173.12 116.17h3.1904v-9.3683l-2.9681 0.73477v-2.5717l2.9874-0.71543h2.7554v11.921h3.1904v2.5137h-9.1556z"/>
  <path d="m185.03 116.17h3.1904v-9.3683l-2.9681 0.73477v-2.5717l2.9874-0.71543h2.7554v11.921h3.1904v2.5137h-9.1556z"/>
 </g>
 <g transform="rotate(-8.8996)" fill="url(#radialGradient6427)" aria-label="010110010011010110010011">
  <path d="m104.17 60.696q0-0.5124 0.34805-0.86045 0.34805-0.34805 0.85078-0.34805 0.5124 0 0.86045 0.34805 0.34805 0.34805 0.34805 0.86045 0 0.50273-0.34805 0.85078t-0.86045 0.34805q-0.50273 0-0.85078-0.33838-0.34805-0.34805-0.34805-0.86045zm1.1988-5.0757q-0.98613 0-1.4405 1.2085-0.45439 1.2085-0.45439 3.8672 0 2.649 0.45439 3.8575 0.4544 1.2085 1.4405 1.2085 0.9958 0 1.4502-1.2085 0.45439-1.2085 0.45439-3.8575 0-2.6587-0.45439-3.8672-0.4544-1.2085-1.4502-1.2085zm-4.7663 5.0757q0-3.7512 1.1892-5.6171 1.1892-1.8756 3.5772-1.8756 2.3977 0 3.5868 1.8659t1.1892 5.6268q0 3.7512-1.1892 5.6171t-3.5868 1.8659q-2.388 0-3.5772-1.8659-1.1892-1.8756-1.1892-5.6171z"/>
  <path d="m113.14 65.385h3.1904v-9.3683l-2.9681 0.73477v-2.5717l2.9874-0.71543h2.7554v11.921h3.1904v2.5137h-9.1556z"/>
  <path d="m127.99 60.696q0-0.5124 0.34804-0.86045 0.34805-0.34805 0.85078-0.34805 0.51241 0 0.86045 0.34805 0.34805 0.34805 0.34805 0.86045 0 0.50273-0.34805 0.85078-0.34804 0.34805-0.86045 0.34805-0.50273 0-0.85078-0.33838-0.34804-0.34805-0.34804-0.86045zm1.1988-5.0757q-0.98613 0-1.4405 1.2085-0.4544 1.2085-0.4544 3.8672 0 2.649 0.4544 3.8575 0.45439 1.2085 1.4405 1.2085 0.99581 0 1.4502-1.2085t0.45439-3.8575q0-2.6587-0.45439-3.8672t-1.4502-1.2085zm-4.7663 5.0757q0-3.7512 1.1892-5.6171 1.1892-1.8756 3.5771-1.8756 2.3977 0 3.5868 1.8659t1.1892 5.6268q0 3.7512-1.1892 5.6171t-3.5868 1.8659q-2.388 0-3.5771-1.8659-1.1892-1.8756-1.1892-5.6171z"/>
  <path d="m136.96 65.385h3.1904v-9.3683l-2.9681 0.73477v-2.5717l2.9874-0.71543h2.7554v11.921h3.1904v2.5137h-9.1556z"/>
  <path d="m148.87 65.385h3.1904v-9.3683l-2.9681 0.73477v-2.5717l2.9874-0.71543h2.7554v11.921h3.1904v2.5137h-9.1556z"/>
  <path d="m163.72 60.696q0-0.5124 0.34805-0.86045 0.34804-0.34805 0.85078-0.34805 0.5124 0 0.86045 0.34805 0.34804 0.34805 0.34804 0.86045 0 0.50273-0.34804 0.85078-0.34805 0.34805-0.86045 0.34805-0.50274 0-0.85078-0.33838-0.34805-0.34805-0.34805-0.86045zm1.1988-5.0757q-0.98614 0-1.4405 1.2085t-0.45439 3.8672q0 2.649 0.45439 3.8575t1.4405 1.2085q0.9958 0 1.4502-1.2085 0.4544-1.2085 0.4544-3.8575 0-2.6587-0.4544-3.8672-0.45439-1.2085-1.4502-1.2085zm-4.7663 5.0757q0-3.7512 1.1892-5.6171 1.1892-1.8756 3.5772-1.8756 2.3976 0 3.5868 1.8659t1.1892 5.6268q0 3.7512-1.1892 5.6171t-3.5868 1.8659q-2.388 0-3.5772-1.8659-1.1892-1.8756-1.1892-5.6171z"/>
  <path d="m175.63 60.696q0-0.5124 0.34805-0.86045 0.34805-0.34805 0.85078-0.34805 0.5124 0 0.86045 0.34805 0.34805 0.34805 0.34805 0.86045 0 0.50273-0.34805 0.85078t-0.86045 0.34805q-0.50273 0-0.85078-0.33838-0.34805-0.34805-0.34805-0.86045zm1.1988-5.0757q-0.98613 0-1.4405 1.2085-0.45439 1.2085-0.45439 3.8672 0 2.649 0.45439 3.8575 0.4544 1.2085 1.4405 1.2085 0.9958 0 1.4502-1.2085 0.45439-1.2085 0.45439-3.8575 0-2.6587-0.45439-3.8672-0.4544-1.2085-1.4502-1.2085zm-4.7663 5.0757q0-3.7512 1.1892-5.6171 1.1892-1.8756 3.5772-1.8756 2.3977 0 3.5868 1.8659t1.1892 5.6268q0 3.7512-1.1892 5.6171t-3.5868 1.8659q-2.388 0-3.5772-1.8659-1.1892-1.8756-1.1892-5.6171z"/>
  <path d="m184.6 65.385h3.1904v-9.3683l-2.9681 0.73477v-2.5717l2.9874-0.71543h2.7554v11.921h3.1904v2.5137h-9.1556z"/>
  <path d="m104.17 85.445q0-0.5124 0.34805-0.86045t0.85078-0.34805q0.5124 0 0.86045 0.34805t0.34805 0.86045q0 0.50273-0.34805 0.85078t-0.86045 0.34805q-0.50273 0-0.85078-0.33838-0.34805-0.34805-0.34805-0.86045zm1.1988-5.0757q-0.98613 0-1.4405 1.2085-0.45439 1.2085-0.45439 3.8672 0 2.649 0.45439 3.8575 0.4544 1.2085 1.4405 1.2085 0.9958 0 1.4502-1.2085 0.45439-1.2085 0.45439-3.8575 0-2.6587-0.45439-3.8672-0.4544-1.2085-1.4502-1.2085zm-4.7663 5.0757q0-3.7512 1.1892-5.6171 1.1892-1.8756 3.5772-1.8756 2.3977 0 3.5868 1.8659t1.1892 5.6268q0 3.7512-1.1892 5.6171-1.1892 1.8659-3.5868 1.8659-2.388 0-3.5772-1.8659-1.1892-1.8756-1.1892-5.6171z"/>
  <path d="m116.08 85.445q0-0.5124 0.34805-0.86045 0.34804-0.34805 0.85078-0.34805 0.5124 0 0.86045 0.34805 0.34804 0.34805 0.34804 0.86045 0 0.50273-0.34804 0.85078-0.34805 0.34805-0.86045 0.34805-0.50274 0-0.85078-0.33838-0.34805-0.34805-0.34805-0.86045zm1.1988-5.0757q-0.98614 0-1.4405 1.2085t-0.45439 3.8672q0 2.649 0.45439 3.8575t1.4405 1.2085q0.9958 0 1.4502-1.2085 0.4544-1.2085 0.4544-3.8575 0-2.6587-0.4544-3.8672-0.45439-1.2085-1.4502-1.2085zm-4.7663 5.0757q0-3.7512 1.1892-5.6171 1.1892-1.8756 3.5772-1.8756 2.3976 0 3.5868 1.8659t1.1892 5.6268q0 3.7512-1.1892 5.6171-1.1892 1.8659-3.5868 1.8659-2.388 0-3.5772-1.8659-1.1892-1.8756-1.1892-5.6171z"/>
  <path d="m125.05 90.134h3.1904v-9.3683l-2.9681 0.73477v-2.5717l2.9874-0.71543h2.7554v11.921h3.1904v2.5137h-9.1556z"/>
  <path d="m136.96 90.134h3.1904v-9.3683l-2.9681 0.73477v-2.5717l2.9874-0.71543h2.7554v11.921h3.1904v2.5137h-9.1556z"/>
  <path d="m151.81 85.445q0-0.5124 0.34805-0.86045 0.34804-0.34805 0.85078-0.34805 0.5124 0 0.86045 0.34805t0.34805 0.86045q0 0.50273-0.34805 0.85078t-0.86045 0.34805q-0.50274 0-0.85078-0.33838-0.34805-0.34805-0.34805-0.86045zm1.1988-5.0757q-0.98613 0-1.4405 1.2085-0.45439 1.2085-0.45439 3.8672 0 2.649 0.45439 3.8575 0.4544 1.2085 1.4405 1.2085 0.9958 0 1.4502-1.2085 0.4544-1.2085 0.4544-3.8575 0-2.6587-0.4544-3.8672-0.45439-1.2085-1.4502-1.2085zm-4.7663 5.0757q0-3.7512 1.1892-5.6171 1.1892-1.8756 3.5772-1.8756 2.3977 0 3.5868 1.8659t1.1892 5.6268q0 3.7512-1.1892 5.6171-1.1892 1.8659-3.5868 1.8659-2.388 0-3.5772-1.8659-1.1892-1.8756-1.1892-5.6171z"/>
  <path d="m160.78 90.134h3.1904v-9.3683l-2.9681 0.73477v-2.5717l2.9874-0.71543h2.7554v11.921h3.1904v2.5137h-9.1556z"/>
  <path d="m175.63 85.445q0-0.5124 0.34805-0.86045t0.85078-0.34805q0.5124 0 0.86045 0.34805t0.34805 0.86045q0 0.50273-0.34805 0.85078t-0.86045 0.34805q-0.50273 0-0.85078-0.33838-0.34805-0.34805-0.34805-0.86045zm1.1988-5.0757q-0.98613 0-1.4405 1.2085-0.45439 1.2085-0.45439 3.8672 0 2.649 0.45439 3.8575 0.4544 1.2085 1.4405 1.2085 0.9958 0 1.4502-1.2085 0.45439-1.2085 0.45439-3.8575 0-2.6587-0.45439-3.8672-0.4544-1.2085-1.4502-1.2085zm-4.7663 5.0757q0-3.7512 1.1892-5.6171 1.1892-1.8756 3.5772-1.8756 2.3977 0 3.5868 1.8659t1.1892 5.6268q0 3.7512-1.1892 5.6171-1.1892 1.8659-3.5868 1.8659-2.388 0-3.5772-1.8659-1.1892-1.8756-1.1892-5.6171z"/>
  <path d="m184.6 90.134h3.1904v-9.3683l-2.9681 0.73477v-2.5717l2.9874-0.71543h2.7554v11.921h3.1904v2.5137h-9.1556z"/>
  <path d="m101.23 114.88h3.1904v-9.3683l-2.9681 0.73476v-2.5717l2.9874-0.71543h2.7554v11.921h3.1904v2.5137h-9.1556z"/>
  <path d="m116.08 110.2q0-0.51241 0.34805-0.86045 0.34804-0.34805 0.85078-0.34805 0.5124 0 0.86045 0.34805 0.34804 0.34804 0.34804 0.86045 0 0.50273-0.34804 0.85078-0.34805 0.34804-0.86045 0.34804-0.50274 0-0.85078-0.33838-0.34805-0.34804-0.34805-0.86044zm1.1988-5.0757q-0.98614 0-1.4405 1.2085-0.45439 1.2085-0.45439 3.8672 0 2.649 0.45439 3.8575 0.45439 1.2085 1.4405 1.2085 0.9958 0 1.4502-1.2085 0.4544-1.2085 0.4544-3.8575 0-2.6587-0.4544-3.8672-0.45439-1.2085-1.4502-1.2085zm-4.7663 5.0757q0-3.7512 1.1892-5.6171 1.1892-1.8756 3.5772-1.8756 2.3976 0 3.5868 1.8659t1.1892 5.6268q0 3.7512-1.1892 5.6171-1.1892 1.8659-3.5868 1.8659-2.388 0-3.5772-1.8659-1.1892-1.8756-1.1892-5.6171z"/>
  <path d="m127.99 110.2q0-0.51241 0.34804-0.86045 0.34805-0.34805 0.85078-0.34805 0.51241 0 0.86045 0.34805 0.34805 0.34804 0.34805 0.86045 0 0.50273-0.34805 0.85078-0.34804 0.34804-0.86045 0.34804-0.50273 0-0.85078-0.33838-0.34804-0.34804-0.34804-0.86044zm1.1988-5.0757q-0.98613 0-1.4405 1.2085-0.4544 1.2085-0.4544 3.8672 0 2.649 0.4544 3.8575 0.45439 1.2085 1.4405 1.2085 0.99581 0 1.4502-1.2085 0.45439-1.2085 0.45439-3.8575 0-2.6587-0.45439-3.8672-0.45439-1.2085-1.4502-1.2085zm-4.7663 5.0757q0-3.7512 1.1892-5.6171 1.1892-1.8756 3.5771-1.8756 2.3977 0 3.5868 1.8659t1.1892 5.6268q0 3.7512-1.1892 5.6171-1.1892 1.8659-3.5868 1.8659-2.388 0-3.5771-1.8659-1.1892-1.8756-1.1892-5.6171z"/>
  <path d="m136.96 114.88h3.1904v-9.3683l-2.9681 0.73476v-2.5717l2.9874-0.71543h2.7554v11.921h3.1904v2.5137h-9.1556z"/>
  <path d="m151.81 110.2q0-0.51241 0.34805-0.86045 0.34804-0.34805 0.85078-0.34805 0.5124 0 0.86045 0.34805 0.34805 0.34804 0.34805 0.86045 0 0.50273-0.34805 0.85078-0.34805 0.34804-0.86045 0.34804-0.50274 0-0.85078-0.33838-0.34805-0.34804-0.34805-0.86044zm1.1988-5.0757q-0.98613 0-1.4405 1.2085-0.45439 1.2085-0.45439 3.8672 0 2.649 0.45439 3.8575 0.4544 1.2085 1.4405 1.2085 0.9958 0 1.4502-1.2085 0.4544-1.2085 0.4544-3.8575 0-2.6587-0.4544-3.8672-0.45439-1.2085-1.4502-1.2085zm-4.7663 5.0757q0-3.7512 1.1892-5.6171 1.1892-1.8756 3.5772-1.8756 2.3977 0 3.5868 1.8659t1.1892 5.6268q0 3.7512-1.1892 5.6171-1.1892 1.8659-3.5868 1.8659-2.388 0-3.5772-1.8659-1.1892-1.8756-1.1892-5.6171z"/>
  <path d="m163.72 110.2q0-0.51241 0.34805-0.86045 0.34804-0.34805 0.85078-0.34805 0.5124 0 0.86045 0.34805 0.34804 0.34804 0.34804 0.86045 0 0.50273-0.34804 0.85078-0.34805 0.34804-0.86045 0.34804-0.50274 0-0.85078-0.33838-0.34805-0.34804-0.34805-0.86044zm1.1988-5.0757q-0.98614 0-1.4405 1.2085-0.45439 1.2085-0.45439 3.8672 0 2.649 0.45439 3.8575 0.45439 1.2085 1.4405 1.2085 0.9958 0 1.4502-1.2085 0.4544-1.2085 0.4544-3.8575 0-2.6587-0.4544-3.8672-0.45439-1.2085-1.4502-1.2085zm-4.7663 5.0757q0-3.7512 1.1892-5.6171 1.1892-1.8756 3.5772-1.8756 2.3976 0 3.5868 1.8659t1.1892 5.6268q0 3.7512-1.1892 5.6171-1.1892 1.8659-3.5868 1.8659-2.388 0-3.5772-1.8659-1.1892-1.8756-1.1892-5.6171z"/>
  <path d="m172.69 114.88h3.1904v-9.3683l-2.9681 0.73476v-2.5717l2.9874-0.71543h2.7554v11.921h3.1904v2.5137h-9.1556z"/>
  <path d="m184.6 114.88h3.1904v-9.3683l-2.9681 0.73476v-2.5717l2.9874-0.71543h2.7554v11.921h3.1904v2.5137h-9.1556z"/>
 </g>
 <path d="m219.46 129.09c-26.794 21.983-41.808 21.007-38.075 13.138 3.7336-7.8693 42.326-41.655 51.447-43.748 9.1213-2.093 2.2752 18.041-13.372 30.61z" fill="url(#linearGradient6614)" opacity=".76522"/>
 <g aria-label="W">
  <path d="m133.12 62.824h6.4761l9.9681 40.063 9.9364-40.063h7.2063l9.9681 40.063 9.9364-40.063h6.5079l-11.905 47.396h-8.0634l-9.9999-41.142-10.095 41.142h-8.0634z" stroke-width=".93749px"/>
 </g>
 <g stroke-width=".93749px" aria-label="iki">
  <path d="m191.25 94.525h2.5786v15.696h-2.5786zm0-6.1101h2.5786v3.2653h-2.5786z"/>
  <path d="m199.11 88.415h2.5926v12.879l7.6937-6.7688h3.2933l-8.3243 7.3433 8.6747 8.3523h-3.3634l-7.974-7.6657v7.6657h-2.5926z"/>
  <path d="m215.86 94.525h2.5786v15.696h-2.5786zm0-6.1101h2.5786v3.2653h-2.5786z"/>
 </g>
</svg>
