<svg xmlns="http://www.w3.org/2000/svg" width="16" height="16" fill="currentColor" viewBox="0 0 512 512">
   <path d="M316.5313 130.9063c0 10.6054-1.5274 20.9179-4.4102 30.8007-66.7148 6.0703-120.9375 46.4375-136.3477 99.3203-5.7461.5196-11.5898.793-17.5117.793-7.5547 0-14.9844-.4492-22.2578-1.2969-15.0898 18.2539-38.4726 32.7891-59.6953 43.2578-11.2422 5.5508-23.2266-5.871-18.2969-17.4179 7.7735-18.1992 7.5235-36.5196 5.0469-50.875C24.7656 211.5937 0 173.6406 0 130.9062 0 58.6094 70.8555 0 158.2617 0c87.4141 0 158.2696 58.6094 158.2696 130.9062Zm-203.1993 6.2578c0-11.8282-9.5898-21.418-21.4179-21.418-11.8321 0-21.4219 9.5898-21.4219 21.418 0 11.832 9.5898 21.4218 21.4219 21.4218 11.8281 0 21.4179-9.5898 21.4179-21.4218Zm66.3516 0c0-11.8282-9.5898-21.418-21.418-21.418-11.832 0-21.4218 9.5898-21.4218 21.418 0 11.832 9.5898 21.4218 21.4218 21.4218 11.8282 0 21.418-9.5898 21.418-21.4218Zm66.3516 0c0-11.8282-9.5899-21.418-21.418-21.418-11.832 0-21.4219 9.5898-21.4219 21.418 0 11.832 9.5899 21.4218 21.4219 21.4218 11.8281 0 21.418-9.5898 21.418-21.4218Z"/>
   <path d="M435.2734 396.4023c-2.0078 11.7032-2.5507 26.0508 1.5469 40.8125-7.4609 7.4532-15.3828 14.4336-23.7109 20.9219-.5.3946-1.0117.7813-1.5117 1.1602-18.1407-9.875-36.6133-22.5625-49.2579-37.8594-7.2851.8477-14.7031 1.2969-22.2656 1.2969-87.4062 0-158.2617-58.6094-158.2617-130.9141 0-72.2969 70.8555-130.9062 158.2617-130.9062 87.4141 0 158.2696 58.6093 158.2696 130.9062 0 42.7344-24.7657 80.6875-63.0704 104.582ZM295.1445 291.8086c0-11.832-9.5898-21.4219-21.4179-21.4219-11.8321 0-21.4219 9.5899-21.4219 21.4219 0 11.8281 9.5898 21.418 21.4219 21.418 11.8281 0 21.4179-9.5899 21.4179-21.418Zm66.3516 0c0-11.832-9.5898-21.4219-21.418-21.4219-11.832 0-21.4218 9.5899-21.4218 21.4219 0 11.8281 9.5898 21.418 21.4218 21.418 11.8282 0 21.418-9.5899 21.418-21.418Zm66.3516 0c0-11.832-9.5899-21.4219-21.4219-21.4219-11.8281 0-21.418 9.5899-21.418 21.4219 0 11.8281 9.5899 21.418 21.418 21.418 11.832 0 21.4219-9.5899 21.4219-21.418Z"/>
</svg>
