<svg xmlns="http://www.w3.org/2000/svg" viewBox="0 0 200 215" width="34" height="34" fill="currentColor">
  <path d="M0 0 45.04 17.16 90.07 0 111.87 8.32A68.7 68.7 0 0 0 80.48 81.37L74.63 86.17A75.8 75.8 0 0 0 90.5 116.09L78.04 128.56 67.77 126.98 10.53 184.19 0 180.16 17.15 135.12 0 90.08 17.15 45.04 0 .01ZM191.42 119.66 197.32 135.13 180.16 180.17 135.12 197.32 90.08 180.17 45.04 197.32 40.4 195.56 88.37 147.56 86.77 138.02 99.67 125.1A75.76 75.76 0 0 0 128.31 139.84L133.11 134A68.28 68.28 0 0 0 191.42 119.66Z"></path>
</svg>
