<?xml version="1.0" encoding="utf-8"?><!-- Uploaded to: SVG Repo, www.svgrepo.com, Generator: SVG Repo Mixer Tools -->
<svg width="800px" height="800px" viewBox="0 0 1024 1024" xmlns="http://www.w3.org/2000/svg">
   <circle cx="512" cy="512" r="512" style="fill:#2b90d9"/>
   <path d="M750.7 448.1c0-111-72.8-143.6-72.8-143.6-36.7-16.9-99.7-23.9-165.1-24.5h-1.6c-65.4.5-128.4 7.6-165.1 24.5 0 0-72.8 32.5-72.8 143.6 0 25.4-.5 55.8.3 88.1 2.6 108.6 19.9 215.6 120.3 242.2 46.3 12.2 86 14.8 118.1 13.1 58.1-3.2 90.7-20.7 90.7-20.7l-1.9-42.1s-41.5 13.1-88.1 11.5c-46.2-1.6-94.9-5-102.4-61.7-.7-5.3-1-10.6-1-15.9 0 0 45.3 11.1 102.7 13.7 35.1 1.6 68-2.1 101.5-6 64.1-7.7 120-47.2 127-83.3 11.1-56.9 10.2-138.9 10.2-138.9zm-85.8 143.1h-53.3V460.7c0-27.5-11.6-41.5-34.7-41.5-25.6 0-38.4 16.6-38.4 49.3V540h-53v-71.5c0-32.8-12.8-49.3-38.4-49.3-23.1 0-34.7 14-34.7 41.5v130.5h-53.3V456.8c0-27.5 7-49.3 21.1-65.5 14.5-16.2 33.5-24.4 57-24.4 27.3 0 47.9 10.5 61.6 31.4l13.2 22.2 13.3-22.2c13.7-21 34.3-31.4 61.6-31.4 23.5 0 42.5 8.3 57 24.4 14 16.1 21 38 21 65.5v134.4z" style="fill:#fff"/>
</svg>