<svg xmlns="http://www.w3.org/2000/svg" width="36" height="36" viewBox="0 0 36 36"><defs><style>.a{fill:#231f20;}.b{fill:#fff;}</style></defs><rect class="a" width="36" height="36"/><path class="b" d="M19.15,19.33a1.73,1.73,0,1,0,1.72-1.83,1.76,1.76,0,0,0-1.72,1.83Zm9,3.64H26V13.33h2.18Zm3.44-11.45.73-2.32L27.7,7.75,24.5,17.94a4.25,4.25,0,0,1,.25,1.39,3.77,3.77,0,0,1-3.88,3.84,3.79,3.79,0,0,1-2.43-.8l-.62,2.69L22,26l-.78,2.47,4.61,1.45,1.44-4.6,4.09.49.37-3.13a1.46,1.46,0,0,1-2.39-1.11,1.45,1.45,0,0,1,2.62-.85l1.08-9Zm-20.5,8.1h2l-1-3.36Zm9.79-4.14a3.69,3.69,0,0,1,3.57,2.32l2.22-9.7L22,7l-.41,1.8-.86-.56-5.42,8.3,1.79-5.69L12.44,9.42l-1.23,3.91h1.85L16.82,23h-2.6l-.47-1.4H10.41L9.9,23H7.32l3.21-8.14,2.28-8.65L8.14,5,3,24.46l4.35,1.15-1.26,4,4.61,1.45,1.7-5.39,1.88,1.23,3.44-5.27A4.07,4.07,0,0,1,17,19.33a3.77,3.77,0,0,1,3.87-3.85"/></svg>