<svg xmlns="http://www.w3.org/2000/svg" width="120" height="42">
<path d="M2.24 0A-2.25 2.25 0 000 2.24V41.5a.5.5 0 00.5.5H119.49a.5.5 0 00.51-.51V2.25A2.25 2.25 0 00117.75 0Z"/>
<path fill="#aab2ab" d="M91.74 3.39a1 1 0 010 23.19 1 1 0 010-23.2m-28.42.01a1 1 0 010 23.2 1 1 0 010-23.2M36.5 19.58a1 1 0 01-31.24 0 1 1 0 0131.24 0M2.24 1.02A1.23 1.23 0 001.01 2.25v27.24h4.32a17.75 17.75 0 0031.1 0h82.55V2.25A1.23 1.23 0 00117.75 1Z"/>
<path fill="#fff" d="M8.08 19.58a1 1 0 0025.63 0 1 1 0 00-25.63 0m10.56-1.53c-.39-.85-.97-1.27-1.75-1.27-1.38 0-2.07.92-2.07 2.78s.69 2.78 2.07 2.78c.9 0 1.56-.45 1.95-1.35l1.9 1.01a4.42 4.42 0 01-4.09 2.43c-1.4 0-2.53-.43-3.38-1.3A4.86 4.86 0 0112 19.59a4.8 4.8 0 011.31-3.55 4.42 4.42 0 013.26-1.31c1.93 0 3.3.76 4.14 2.27Zm9 0c-.4-.85-.97-1.27-1.73-1.27-1.4 0-2.1.92-2.1 2.78s.7 2.78 2.1 2.78c.92 0 1.55-.45 1.92-1.35L29.78 22a4.42 4.42 0 01-4.1 2.43 4.5 4.5 0 01-3.36-1.3 4.88 4.88 0 01-1.27-3.55c0-1.5.43-2.67 1.29-3.55a4.39 4.39 0 013.27-1.31c1.92 0 3.3.76 4.13 2.27Zm35.7-12.57a1 1 0 000 18.98 1 1 0 000-18.98m-1.63 3.64a1.62 1.62 0 113.25 0 1.62 1.62 0 11-3.25 0m4.74 3v4.74h-1.32v5.61h-3.6v-5.61h-1.32V12.1a.75.75 0 01.75-.74h4.75a.75.75 0 01.74.74Zm25.32-6.65a1 1 0 000 18.99 1 1 0 000-18.99m-5.17 7.87c.47-2.91 2.52-4.47 5.1-4.47 3.7 0 5.95 2.68 5.95 6.26 0 3.5-2.4 6.21-6.02 6.21a4.97 4.97 0 01-5.11-4.53h2.92c.08 1.56 1.1 2.1 2.54 2.1 1.65 0 2.72-1.52 2.72-3.86 0-2.46-.92-3.76-2.66-3.76-1.27 0-2.37.47-2.6 2.05h.85l-2.3 2.3-2.3-2.3h.91Zm-.34 24.4c.08.15.19.27.32.37.14.1.3.16.47.21.18.05.37.07.56.07a2.87 2.87 0 00.41-.03 1.45 1.45 0 00.42-.13.9.9 0 00.32-.25.63.63 0 00.13-.41.58.58 0 00-.17-.44c-.11-.11-.26-.2-.45-.28a5.9 5.9 0 00-.63-.2 16.85 16.85 0 01-.71-.18 6.26 6.26 0 01-.72-.23c-.24-.09-.45-.2-.63-.34a1.64 1.64 0 01-.45-.54 1.63 1.63 0 01-.17-.77c0-.34.07-.64.21-.89a1.99 1.99 0 01.57-.62c.24-.17.5-.3.8-.38a4.19 4.19 0 011.89 0c.31.08.6.2.84.38a2 2 0 01.6.66c.14.27.21.6.21.98h-1.41a1.2 1.2 0 00-.13-.5.83.83 0 00-.28-.3 1.2 1.2 0 00-.4-.16 2.46 2.46 0 00-.84 0 .94.94 0 00-.32.12.8.8 0 00-.24.24.6.6 0 00-.1.35c0 .13.03.23.08.31.05.08.15.16.3.23s.34.13.6.2l1 .26c.13.03.3.07.52.14.4.1.43.16.65.3.21.15.4.34.56.58.16.24.24.54.24.91a1.9 1.9 0 01-.71 1.52c-.23.19-.51.33-.86.44-.34.1-.74.16-1.19.16a4.19 4.19 0 01-1.06-.14 2.68 2.68 0 01-.91-.42 2.1 2.1 0 01-.63-.74 2.2 2.2 0 01-.22-1.05h1.41c0 .22.04.4.12.56zm8.21-5 2.48 6.63h-1.52l-.5-1.48h-2.47l-.52 1.48h-1.47l2.5-6.62h1.5zm.08 4.07-.83-2.43h-.02l-.86 2.43h1.71zM60 32.75c.31 0 .6.03.86.08.26.06.48.15.67.27.19.13.33.3.43.5.1.22.16.48.16.79 0 .33-.08.6-.23.83-.15.22-.38.4-.68.55.41.12.72.32.92.62s.3.64.3 1.06a1.7 1.7 0 01-.72 1.47c-.22.15-.47.26-.75.34a3.38 3.38 0 01-.87.1h-3.22v-6.61H60zm-.19 2.68c.26 0 .47-.07.64-.19s.25-.32.25-.6a.77.77 0 00-.08-.38.62.62 0 00-.22-.23.94.94 0 00-.32-.12 2.12 2.12 0 00-.38-.03h-1.37v1.55h1.48zm.09 2.8c.14 0 .27 0 .4-.04a.98.98 0 00.35-.13.7.7 0 00.24-.27.9.9 0 00.08-.43c0-.34-.1-.58-.28-.72-.2-.15-.45-.22-.77-.22h-1.59v1.82h1.57zm2.8-5.48h1.62l1.56 2.61 1.54-2.61h1.62l-2.46 4.08v2.54h-1.46v-2.58l-2.43-4.04z"/>
</svg>
