<svg xmlns="http://www.w3.org/2000/svg" width="120" height="42">
  <g transform="matrix(.993781 0 0 .993669 -177.69409 -74.436409)">
    <path d="M182.235 75.39l114.064.203c1.594 0 3.018-.237 3.018 3.18l-.14 37.567h-119.82V78.634c0-1.685.163-3.244 2.878-3.244z" fill="#aab2ab"/>
    <path d="M213.544 94.611c.005 7.577-6.135 13.723-13.712 13.728s-13.724-6.135-13.728-13.712c-.004-7.595 6.135-13.741 13.712-13.745s13.724 6.135 13.729 13.712z" fill="#fff"/>
    <path
      d="M210.977 83.435c3.042 3.043 4.564 6.769 4.564 11.176s-1.495 8.093-4.485 11.058c-3.173 3.122-6.924 4.683-11.251 4.683-4.275 0-7.961-1.547-11.056-4.644s-4.643-6.794-4.643-11.097 1.547-8.027 4.643-11.176c3.016-3.043 6.702-4.564 11.056-4.564 4.407 0 8.13 1.521 11.173 4.564zm-20.18 2.047c-2.572 2.598-3.858 5.642-3.858 9.133s1.273 6.508 3.818 9.053 5.577 3.819 9.093 3.819 6.573-1.286 9.171-3.857c2.467-2.388 3.701-5.392 3.701-9.014 0-3.595-1.254-6.645-3.76-9.152s-5.543-3.759-9.112-3.759-6.587 1.26-9.054 3.779zm6.769 7.597c-.393-.857-.981-1.285-1.766-1.285-1.387 0-2.081.934-2.081 2.801s.693 2.801 2.081 2.801c.916 0 1.57-.455 1.963-1.366l1.923 1.024c-.917 1.628-2.291 2.443-4.125 2.443-1.414 0-2.547-.434-3.397-1.3s-1.277-2.062-1.277-3.586c0-1.498.438-2.686 1.316-3.566s1.97-1.32 3.28-1.32c1.938 0 3.326.764 4.165 2.29l-2.081 1.065zm9.046 0c-.394-.857-.97-1.285-1.73-1.285-1.415 0-2.123.934-2.123 2.801s.708 2.801 2.123 2.801c.917 0 1.56-.455 1.927-1.366l1.966 1.024c-.915 1.628-2.288 2.443-4.118 2.443-1.412 0-2.542-.434-3.393-1.3s-1.274-2.062-1.274-3.586c0-1.498.432-2.686 1.294-3.566s1.96-1.32 3.294-1.32c1.935 0 3.32.764 4.156 2.29l-2.122 1.065zm90.684-18.168h-116.23c-1.247 0-2.261 1.015-2.261 2.261v39.496a.51.51 0 0 0 .51.511h119.73a.51.51 0 0 0 .511-.511V77.172c0-1.247-1.014-2.261-2.261-2.261zm-116.23 1.021h116.23a1.24 1.24 0 0 1 1.239 1.24v27.418h-83.074c-3.045 5.505-8.911 9.244-15.644 9.244s-12.6-3.735-15.644-9.244h-4.348V77.172a1.24 1.24 0 0 1 1.24-1.24z"/>
    <path
      d="M265.61 112.883a1.05 1.05 0 0 0 .321.378 1.39 1.39 0 0 0 .47.214 2.22 2.22 0 0 0 .56.07 2.88 2.88 0 0 0 .419-.033 1.46 1.46 0 0 0 .419-.126c.13-.062.239-.148.325-.257a.64.64 0 0 0 .131-.416c0-.18-.058-.326-.173-.438s-.266-.205-.452-.28a4.57 4.57 0 0 0-.633-.196l-.718-.187c-.249-.062-.491-.138-.728-.229a2.5 2.5 0 0 1-.634-.35c-.187-.143-.337-.322-.452-.537a1.64 1.64 0 0 1-.172-.779c0-.343.073-.64.219-.892a2 2 0 0 1 .574-.63 2.49 2.49 0 0 1 .802-.374 3.4 3.4 0 0 1 .895-.121 4.22 4.22 0 0 1 1.003.117 2.51 2.51 0 0 1 .853.378c.249.174.446.397.593.668s.219.6.219.985h-1.422a1.2 1.2 0 0 0-.125-.495.83.83 0 0 0-.283-.309c-.118-.074-.253-.127-.404-.158a2.47 2.47 0 0 0-.497-.047 1.73 1.73 0 0 0-.353.037.95.95 0 0 0-.32.131.8.8 0 0 0-.237.233.63.63 0 0 0-.093.355c0 .131.024.237.074.317s.148.156.294.224.348.137.605.206l1.012.261a6.23 6.23 0 0 1 .517.136c.221.066.439.169.657.313s.405.335.564.574.237.546.237.92c0 .305-.06.588-.178.85a1.84 1.84 0 0 1-.527.677 2.53 2.53 0 0 1-.867.444c-.346.106-.746.159-1.199.159-.367 0-.724-.045-1.069-.136s-.65-.232-.915-.426a2.12 2.12 0 0 1-.63-.739c-.155-.299-.229-.654-.224-1.065h1.422c0 .224.04.414.121.569zm8.257-5.016l2.493 6.664h-1.522l-.504-1.484h-2.493l-.522 1.484h-1.475l2.521-6.664h1.503zm.084 4.086l-.84-2.443h-.019l-.869 2.443h1.728zm-34.773-4.086c.317 0 .607.028.869.084a1.9 1.9 0 0 1 .674.275 1.28 1.28 0 0 1 .435.508c.103.211.154.473.154.784 0 .336-.076.615-.229.839s-.379.407-.678.55c.412.118.72.325.923.621s.305.652.305 1.069c0 .336-.065.627-.196.873a1.71 1.71 0 0 1-.528.602c-.222.156-.475.271-.758.345a3.4 3.4 0 0 1-.875.112h-3.236v-6.664h3.142 0zm-.187 2.695c.262 0 .477-.062.646-.186s.252-.326.252-.605c0-.155-.028-.283-.084-.382a.62.62 0 0 0-.225-.233.95.95 0 0 0-.322-.116 2.13 2.13 0 0 0-.379-.033h-1.373v1.555h1.485zm.086 2.828c.144 0 .28-.014.411-.042s.247-.075.347-.14a.71.71 0 0 0 .238-.266c.06-.112.089-.255.089-.429 0-.342-.097-.586-.29-.732s-.449-.219-.767-.219h-1.6v1.828h1.571zm2.812-5.523h1.644l1.561 2.632 1.551-2.632h1.634l-2.474 4.106v2.558h-1.469v-2.595l-2.446-4.069z"
      fill="#fff"/>
    <g transform="matrix(.624995 0 0 .624995 391.2294 176.9332)">
      <path d="M-175.008-139.115c.006 9.412-7.617 17.048-17.03 17.055s-17.047-7.617-17.055-17.03v-.025c-.006-9.413 7.619-17.047 17.03-17.055s17.049 7.618 17.055 17.03v.025z" fill="#fff"/>
      <path d="M-192.172-157.785c-5.172 0-9.549 1.805-13.131 5.413-3.677 3.734-5.514 8.153-5.514 13.256s1.838 9.492 5.514 13.163 8.053 5.508 13.131 5.508c5.141 0 9.595-1.852 13.367-5.555 3.55-3.516 5.327-7.888 5.327-13.116s-1.808-9.647-5.422-13.256-8.038-5.413-13.272-5.413zm.047 3.36c4.238 0 7.836 1.493 10.797 4.481 2.989 2.956 4.484 6.566 4.484 10.829 0 4.294-1.463 7.857-4.392 10.689-3.084 3.049-6.714 4.573-10.889 4.573s-7.774-1.509-10.795-4.527-4.533-6.597-4.533-10.736 1.527-7.748 4.58-10.829c2.928-2.988 6.511-4.481 10.749-4.481zm-8.322 12.674c.744-4.698 4.052-7.209 8.195-7.209 5.961 0 9.592 4.325 9.592 10.092 0 5.627-3.864 9.999-9.686 9.999-4.005 0-7.589-2.465-8.242-7.301h4.703c.141 2.511 1.77 3.395 4.098 3.395 2.653 0 4.378-2.465 4.378-6.233 0-3.952-1.491-6.045-4.286-6.045-2.048 0-3.817.745-4.191 3.302l1.369-.007-3.703 3.702-3.702-3.702 1.473.007z"/>
    </g>
    <circle cx="242.562" cy="90.225" r="10.806" fill="#fff"/>
    <path d="M245.69 87.098c0-.416-.338-.753-.754-.753h-4.772c-.416 0-.754.337-.754.753v4.773h1.331v5.652h3.617v-5.652h1.332v-4.773h0z"/>
    <circle cx="242.55" cy="84.083" r="1.632"/>
    <path d="M242.535 78.318c-3.231 0-5.968 1.127-8.208 3.384-2.298 2.333-3.446 5.095-3.446 8.284s1.148 5.932 3.446 8.227 5.034 3.442 8.208 3.442c3.213 0 5.998-1.157 8.354-3.472 2.221-2.197 3.33-4.93 3.33-8.197s-1.129-6.029-3.388-8.284-5.024-3.384-8.296-3.384zm.029 2.1c2.648 0 4.897.934 6.747 2.801 1.87 1.847 2.805 4.104 2.805 6.768 0 2.684-.915 4.911-2.746 6.681-1.928 1.906-4.196 2.858-6.806 2.858s-4.858-.943-6.747-2.83-2.833-4.123-2.833-6.709.954-4.842 2.862-6.768c1.831-1.867 4.07-2.801 6.718-2.801z" fill-rule="evenodd"/>
  </g>
</svg>
