<svg xmlns="http://www.w3.org/2000/svg" height="40.226" width="25.1">
  <defs>
    <linearGradient id="A" x1="106.764" gradientUnits="userSpaceOnUse" y1="59.373" x2="106.764" y2="21.809">
      <stop stop-color="#7cb928" offset="0"/>
      <stop stop-color="#a2c857" offset="1"/>
    </linearGradient>
    <linearGradient id="B" x1="106.76" gradientUnits="userSpaceOnUse" y1="40.861" x2="106.76" y2="21.809">
      <stop stop-color="#74963a" offset="0"/>
      <stop stop-color="#89b63e" offset="1"/>
    </linearGradient>
  </defs>
  <path fill-rule="evenodd" fill="#fff" d="M4.123 4.656h16.838v17.462H4.123z"/>
  <g transform="translate(-94.205 -21.438)">
    <g stroke-width="1.1">
      <path d="m 106.8,21.988 c -6.572,0 -12.045,5.691 -12.045,11.865 0,2.777 1.564,6.309 2.693,8.747 l 9.307,17.871 9.262,-17.871 c 1.131,-2.438 2.738,-5.792 2.738,-8.747 0,-6.174 -5.38,-11.865 -11.96,-11.865 z m -1.18,20.069 c -0.521,0 -1.025,-0.215 -1.389,-0.604 -0.025,-0.027 -2.609,-2.793 -3.945,-3.996 -0.779,-0.703 -0.841,-1.904 -0.139,-2.684 0.703,-0.781 1.904,-0.842 2.684,-0.139 0.64,0.576 1.501,1.438 2.275,2.232 1.244,-2.398 3.327,-6 5.765,-8.545 0.726,-0.758 1.929,-0.783 2.687,-0.057 0.758,0.725 0.783,1.928 0.058,2.686 -3.412,3.562 -6.228,9.906 -6.255,9.971 -0.258,0.584 -0.792,1 -1.422,1.108 -0.11,0.018 -0.22,0.028 -0.32,0.028 z" fill-rule="evenodd" stroke="url(#B)" fill="url(#A)"/>
      <path d="M106.79 23.093c-5.943 0-10.938 5.221-10.938 10.75 0 2.359 1.443 5.832 2.562 8.25.006.012.025.021.031.031l8.312 15.969 8.25-15.969c.006-.012.025-.02.031-.031 1.135-2.448 2.625-5.706 2.625-8.25.01-5.537-4.93-10.75-10.87-10.75zm5.45 3.543a3.01 3.01 0 0 0-2.166.926c-2.09 2.18-3.914 5.074-5.236 7.471-.502-.498-.928-.904-1.273-1.217-.553-.498-1.266-.771-2.009-.771a3 3 0 0 0-2.228.992c-1.107 1.227-1.01 3.129.219 4.236 1.288 1.16 3.85 3.901 3.874 3.926.569.609 1.368.957 2.196.957a3.08 3.08 0 0 0 .498-.041c1.002-.172 1.841-.824 2.248-1.75.029-.064 2.805-6.271 6.043-9.652a2.98 2.98 0 0 0 .834-2.141c-.018-.801-.346-1.547-.925-2.102a3.01 3.01 0 0 0-2.08-.834z" stroke-opacity=".122" stroke="#fff" fill="none"/>
    </g>
  </g>
</svg>
