<svg xmlns="http://www.w3.org/2000/svg" width="430" height="165"><defs><filter id="A" color-interpolation-filters="sRGB" x="-.046" y="-.087" width="1.091" height="1.174"><feGaussianBlur stdDeviation="5.813"/></filter><linearGradient id="B" x1="1225.688" y1="36.5" x2="1225.688" y2="119" href="#J"><stop offset="0" stop-color="#b2dbea"/><stop offset="1" stop-color="#7092ff"/></linearGradient><radialGradient id="C" cx="1218.2" cy="124.603" fx="1218.2" fy="124.603" r="110" gradientTransform="matrix(1.3393856e-7,-1.640625,1.6406251,2.1914427e-6,1001.1457,2940.9704)" href="#J"><stop offset="0" stop-color="#ccf1ff" stop-opacity="0"/><stop offset=".857" stop-color="#ccf1ff" stop-opacity="0"/><stop offset="1" stop-color="#789afb"/></radialGradient><linearGradient id="D" x1="1254.219" y1="789.359" x2="1254.219" y2="942.362" href="#J"><stop offset="0" stop-color="#222"/><stop offset="1" stop-color="#adadc6" stop-opacity="0"/></linearGradient><linearGradient id="E" x1="284" y1="166" x2="284" y2="202.125" href="#J"><stop offset="0" stop-color="#a2c9ed"/><stop offset="1" stop-color="#7a9dfc"/></linearGradient><linearGradient id="F" x1="1103.75" y1="883.112" x2="1103.75" y2="905.884" href="#J"><stop offset="0" stop-color="#fff"/><stop offset="1" stop-color="#ebf2fd"/></linearGradient><linearGradient id="G" x1="1156.096" y1="942.612" x2="1144.038" y2="897.612" href="#J"><stop offset="0"/><stop offset="1" stop-opacity="0"/></linearGradient><linearGradient id="H" x1="1127" y1="942.362" x2="1127" y2="802.63" href="#J"><stop offset="0" stop-color="#cbeea7"/><stop offset="1" stop-color="#cee8c1"/></linearGradient><linearGradient id="l" x1="1184" y1="-405" x2="1184" y2="-533.035" href="#J"><stop offset="0" stop-color="#fff" stop-opacity="0.25"/><stop offset="1" stop-color="#fff" stop-opacity="0"/></linearGradient><linearGradient id="J" gradientUnits="userSpaceOnUse"/><clipPath id="K"><path d="M 1126,119 A 110,110 0 0 1 1346,119" transform="matrix(1.454546 0 0 1.454546 -611.81823 -534.09093)"/></clipPath><mask id="M"><rect x="1000" y="-550" width="350" height="200" fill="url(#l)"/></mask><path id="I" d="M0-6.266h4.834v-14.194l-4.497 1.113v-3.896l4.526-1.084h4.175v18.062h4.834v3.809h-13.872z"/><path id="O" d="M0-13.37q0-5.684 1.802-8.511 1.802-2.842 5.42-2.842 3.633 0 5.435 2.827 1.802 2.827 1.802 8.525 0 5.684-1.802 8.511-1.802 2.827-5.435 2.827-3.618 0-5.42-2.827-1.802-2.842-1.802-8.511zm5.039 5.845q.688 1.831 2.183 1.831 1.509 0 2.197-1.831.688-1.831.688-5.845 0-1.523-.102-2.725l-5.112 8.145q.073.234.147.425zm2.183-13.535q-1.494 0-2.183 1.831-.688 1.831-.688 5.859 0 1.245.059 2.271l5.039-8.042q-.015-.044-.029-.088-.688-1.831-2.197-1.831z"/></defs><g transform="translate(-940.273 -777.362)"><path d="M 1126,119 A 110,110 0 0 1 1346,119" transform="matrix(1.454546 0 0 1.454546 -592.81822 769.27127)" fill="url(#B)"/><g transform="translate(19 1303.362)" clip-path="url(#K)" fill="#fff" mask="url(#M)"><use href="#I" x="1023.754" y="-500"/><use href="#O" x="1040.863" y="-500"/><use href="#I" x="1059.877" y="-500"/><use href="#O" x="1076.986" y="-500"/><use href="#I" x="1096" y="-500"/><use href="#O" x="1113.109" y="-500"/><use href="#I" x="1132.123" y="-500"/><use href="#O" x="1149.232" y="-500"/><use href="#I" x="1168.246" y="-500"/><use href="#O" x="1185.356" y="-500"/><use href="#I" x="1204.369" y="-500"/><use href="#O" x="1221.479" y="-500"/><use href="#I" x="1240.492" y="-500"/><use href="#O" x="1257.602" y="-500"/><use href="#O" x="1275.663" y="-500"/><use href="#O" x="1293.725" y="-500"/><use href="#I" x="1312.738" y="-500"/><use href="#I" x="1330.8" y="-500"/><use href="#I" x="1023.754" y="-462.5"/><use href="#O" x="1040.863" y="-462.5"/><use href="#O" x="1058.925" y="-462.5"/><use href="#O" x="1076.986" y="-462.5"/><use href="#I" x="1096" y="-462.5"/><use href="#O" x="1113.109" y="-462.5"/><use href="#I" x="1132.123" y="-462.5"/><use href="#O" x="1149.232" y="-462.5"/><use href="#I" x="1168.246" y="-462.5"/><use href="#O" x="1185.356" y="-462.5"/><use href="#I" x="1204.369" y="-462.5"/><use href="#O" x="1221.479" y="-462.5"/><use href="#O" x="1239.54" y="-462.5"/><use href="#I" x="1258.554" y="-462.5"/><use href="#I" x="1276.615" y="-462.5"/><use href="#O" x="1293.725" y="-462.5"/><use href="#I" x="1312.738" y="-462.5"/><use href="#O" x="1329.848" y="-462.5"/><use href="#I" x="1023.754" y="-425"/><use href="#O" x="1040.863" y="-425"/><use href="#I" x="1059.877" y="-425"/><use href="#O" x="1076.986" y="-425"/><use href="#I" x="1096" y="-425"/><use href="#O" x="1113.109" y="-425"/><use href="#I" x="1132.123" y="-425"/><use href="#O" x="1149.232" y="-425"/><use href="#I" x="1168.246" y="-425"/><use href="#O" x="1185.356" y="-425"/><use href="#O" x="1203.417" y="-425"/><use href="#I" x="1222.431" y="-425"/><use href="#O" x="1239.54" y="-425"/><use href="#I" x="1258.554" y="-425"/><use href="#O" x="1275.663" y="-425"/><use href="#I" x="1294.677" y="-425"/><use href="#I" x="1312.738" y="-425"/><use href="#O" x="1329.848" y="-425"/><use href="#O" x="1022.802" y="-387.5"/><use href="#I" x="1041.815" y="-387.5"/><use href="#O" x="1058.925" y="-387.5"/><use href="#I" x="1077.939" y="-387.5"/><use href="#I" x="1096" y="-387.5"/><use href="#I" x="1114.062" y="-387.5"/><use href="#O" x="1131.171" y="-387.5"/><use href="#I" x="1150.185" y="-387.5"/><use href="#O" x="1167.294" y="-387.5"/><use href="#I" x="1186.308" y="-387.5"/><use href="#O" x="1203.417" y="-387.5"/><use href="#I" x="1222.431" y="-387.5"/><use href="#O" x="1239.54" y="-387.5"/><use href="#I" x="1258.554" y="-387.5"/><use href="#I" x="1276.615" y="-387.5"/><use href="#O" x="1293.725" y="-387.5"/><use href="#I" x="1312.738" y="-387.5"/><use href="#O" x="1329.848" y="-387.5"/><use href="#O" x="1022.802" y="-350"/><use href="#O" x="1040.863" y="-350"/><use href="#O" x="1058.925" y="-350"/><use href="#I" x="1077.939" y="-350"/><use href="#O" x="1095.048" y="-350"/><use href="#I" x="1114.062" y="-350"/><use href="#O" x="1131.171" y="-350"/><use href="#I" x="1150.185" y="-350"/><use href="#O" x="1167.294" y="-350"/><use href="#O" x="1185.356" y="-350"/><use href="#O" x="1203.417" y="-350"/><use href="#O" x="1221.479" y="-350"/><use href="#I" x="1240.492" y="-350"/><use href="#I" x="1258.554" y="-350"/><use href="#O" x="1275.663" y="-350"/><use href="#O" x="1293.725" y="-350"/><use href="#O" x="1311.786" y="-350"/><use href="#I" x="1330.8" y="-350"/><use href="#I" x="1023.754" y="-312.5"/><use href="#O" x="1040.863" y="-312.5"/><use href="#I" x="1059.877" y="-312.5"/><use href="#O" x="1076.986" y="-312.5"/><use href="#I" x="1096" y="-312.5"/><use href="#O" x="1113.109" y="-312.5"/><use href="#I" x="1132.123" y="-312.5"/><use href="#I" x="1150.185" y="-312.5"/><use href="#O" x="1167.294" y="-312.5"/><use href="#O" x="1185.356" y="-312.5"/><use href="#I" x="1204.369" y="-312.5"/><use href="#O" x="1221.479" y="-312.5"/><use href="#I" x="1240.492" y="-312.5"/><use href="#O" x="1257.602" y="-312.5"/><use href="#I" x="1276.615" y="-312.5"/><use href="#I" x="1294.677" y="-312.5"/><use href="#O" x="1311.786" y="-312.5"/><use href="#I" x="1330.8" y="-312.5"/><use href="#I" x="1023.754" y="-275"/><use href="#O" x="1040.863" y="-275"/><use href="#I" x="1059.877" y="-275"/><use href="#O" x="1076.986" y="-275"/><use href="#I" x="1096" y="-275"/><use href="#O" x="1113.109" y="-275"/><use href="#I" x="1132.123" y="-275"/><use href="#I" x="1150.185" y="-275"/><use href="#I" x="1168.246" y="-275"/><use href="#O" x="1185.356" y="-275"/><use href="#I" x="1204.369" y="-275"/><use href="#O" x="1221.479" y="-275"/><use href="#I" x="1240.492" y="-275"/><use href="#O" x="1257.602" y="-275"/><use href="#I" x="1276.615" y="-275"/><use href="#O" x="1293.725" y="-275"/><use href="#I" x="1312.738" y="-275"/><use href="#I" x="1330.8" y="-275"/></g><path clip-path="none" d="M1173.982-69.934A160 160 0 0 0 1155-68.689V-60l5 5h10zm40.252 4.854l-.016.08 7.781 9h5l3-4v-.244a160 160 0 0 0-15.766-4.836zM1120.191-60a160 160 0 0 0-6.189 2.102l-.383.152a160 160 0 0 0-18.135 8.943l-.998.582a160 160 0 0 0-16.613 11.1l-.725.576a160 160 0 0 0-14.711 12.906l-.883.854a160 160 0 0 0-13.01 14.834l-.863 1.119a160 160 0 0 0-11.166 16.711l-.174.312a160 160 0 0 0-6.341 12.86V35l15 15v10h5l5 5v5l-5 5v15h105l-10-10h-20l-5-5v-5l-40-25h-10l-10 10h-10V40l-5-5 5-5v-5h-5-10l10-20 15-5v15h5l5-5V0l25-30h5l40-15v-10l-5-5zM1211-55l6 8h7l-8-8zm33.467.902L1242.125-50H1230l-5.781 10L1230-30l-10 .313-4.437 4.688v5l8.656 5H1235l8.656-15H1250l10 8 1.344 5H1265v-8l5 3 5 2h5l5 5h10v10h-15v5h-10l-10-10h-20-5-10l-5 5V5h-5l-10 20v5l5 5v15l20 20h20l5-5h10l10 10v10l3.344 5H1335l-.193-7.594-.205-3.125-.32-4.223-.449-4.115-.385-3.025-.736-4.77-.371-2.078a160 160 0 0 0-1.07-5.389l-.242-1.045a160 160 0 0 0-10.744-31.635l-.367-.811a160 160 0 0 0-2.4-4.865l-.945-1.846a160 160 0 0 0-2.24-4.082l-1.486-2.586-2.049-3.379-2.047-3.189L1306.9-.52l-2.654-3.732-1.514-2.066a160.7 160.7 0 0 0-3.467-4.41l-1.057-1.316-4.785-5.523-5.299-5.557-.875-.861a160 160 0 0 0-14.795-12.908l-.102-.08a160 160 0 0 0-5.037-3.691l-.035-.021-.85-.604a160 160 0 0 0-21.965-12.807zM1205-50l3 5h5l-3-5z" transform="translate(30 852.362)" opacity=".25" fill="#222" filter="url(#A)"/><path d="M1244.25 787.206l-.031.156 7.781 9h5l3-4v-.281l-3.875-1.375c-.041-.014-.084-.018-.125-.031l-3.781-1.219-3.406-1.031-.562-.156-3.25-.875-.75-.187zm-3.25 10.156l6 8h7l-8-8zm33.5.875l-2.375 4.125h-9.594H1260l-5.781 10 5.781 10-10 .313-4.437 4.688v5l8.656 5h7.344H1265l8.656-15H1280l10 8 1.344 5H1295v-8l5 3 5 2h5l5 5h10v10h-15v5h-10l-10-10h-20-5-4.375H1255l-5 5v10h-5l-10 20v5l5 5V898.3v4.063l20 20h20l5-5h10l10 10v10l3.344 5H1360h5c0-51.438-24.284-97.199-62-126.469l-.469-.344c-.018-.014-.045-.017-.062-.031l-2.156-1.656c-.053-.04-.102-.085-.156-.125-.06-.044-.13-.077-.187-.125a.49.49 0 0 1-.062-.062c-.023-.017-.04-.045-.062-.062l-2.219-1.594c-.019-.013-.044-.018-.062-.031l-2.281-1.594c-.825-.565-1.663-1.106-2.5-1.656-1.673-1.1-3.378-2.181-5.094-3.219l-2.594-1.531-2.625-1.5-2.656-1.437-2.656-1.375-2.656-1.312zm-39.5 4.125l3 5h5l-3-5z" fill="url(#H)"/><path d="M1285 897.362l-15 15h-20l10 10h20l5-5h10l10 10v10h5l10-10h15.969v-15l-25.969-15z" opacity=".15" fill="#9ed184"/><path d="M1149.25 792.362c-39.44 14.667-71.543 44.431-89.25 82.281v12.719l15 15v10h5l5 5v5l-5 5v15h105l-10-10h-20l-5-5v-5l-40-25h-10l-10 10h-10v-15l-5-5 5-5v-5h-5-10l10-20 15-5v15h5l5-5v-10l25-30h5l40-15v-10l-5-5z" fill="url(#H)"/><path d="M1204 782.362a161.42 161.42 0 0 0-19 1.25v8.75l5 5h10z" fill="url(#H)"/><path d="M1149.25 792.362c-5.877 2.186-11.597 4.729-17.125 7.563l12.875 7.438v9.375l25-9.375v-10l-5-5h-15.75zM1115 810.081a160.81 160.81 0 0 0-34.906 32.281H1095l20-20z" opacity=".15" fill="#9ed184"/><path d="M1260.469 792.268c13.31 49.672-.454 112.826-27.688 150.094H1365c0-68.857-43.516-127.532-104.531-150.094z" opacity=".25" fill="url(#D)"/><path d="M1040.573 942.362a165 165 0 0 1 330 0" fill="url(#C)"/><path d="M1169 867.362a5 5 0 1 1-10 0 5 5 0 1 1 10 0zm-26 0a5 5 0 1 1-10 0 5 5 0 1 1 10 0z" opacity=".5" fill="#222"/><path d="M1100 927.362h5l15 5v10h-30zm30-17.5v7.5l10 5v10l-10 10h55l-10-10h-20l-5-5v-5z" opacity=".15" fill="#9ed184"/><path d="M1100.75 887.362v10.031l-.75-.031c-4.566 0-8.428 3.068-9.625 7.25L1078 942.362h22l8.375-28h28.25l8.375 28h20l-9.031-32.75c-.956-3.339-5.755-9.136-9.969-11.344v-10.906z" opacity=".25" fill="url(#G)"/><path d="M1085 877.362h50v30h-50z" fill="url(#F)"/><path d="M270 155c-4.566 0-8.428 3.068-9.625 7.25L248 200h22l9.563-32v-.062c.019-.062.046-.125.063-.187.251-.876.375-1.793.375-2.75a10 10 0 0 0-10-10zm40 0a10 10 0 0 0-10 10c0 .957.124 1.874.375 2.75l.063.188c.01.019-.01.044 0 .063L310 200h20l-10.375-37.75c-1.197-4.182-5.059-7.25-9.625-7.25z" transform="translate(820 742.362)" fill="url(#E)"/><path d="M1142 882.362s3 4 8 4 8-4 8-4z" opacity=".5" fill="none" stroke="#222" stroke-width="4" stroke-linejoin="round"/><path d="M1135 877.362l-20-10h-10l-20 10z" fill="#ebf2fd"/><path d="M1071-406c-1.196 0-2.34.216-3.404.602l-4.262 6.799-.059-2.27c0-.605.055-1.037.078-1.568-.899 1.064-1.585 2.314-1.978 3.688l-1.5 4.576c.241.672.518 1.288.852 1.814 1.201 1.885 3.008 2.828 5.42 2.828 2.422 0 4.234-.943 5.436-2.828s1.801-4.721 1.801-8.51c0-1.883-.149-3.527-.443-4.939A10.04 10.04 0 0 0 1071-406zm34.039 1.984c-2.447 1.823-4.039 4.73-4.039 8.016 0 .957.124 1.874.375 2.75l.063.188c.01.019-.01.044 0 .063l.91 3.043h7.525v-3.809h-4.834v-10.25zm-36.109.422l.101 2.725c0 2.676-.229 4.623-.687 5.844s-1.191 1.832-2.197 1.832c-.996 0-1.723-.611-2.182-1.832l-.146-.424zm49.965 1.461v8.367h-4.834v3.809h8.98l-2.416-8.793c-.356-1.245-.954-2.387-1.73-3.383zm-40.955 8.367v3.809h1.713l.91-3.043v-.062l.063-.187.127-.516h-2.812zm-11.793 19.043c-2.412 0-4.219.947-5.42 2.842-1.201 1.885-1.803 4.723-1.803 8.512l.102 2.369h6.707l3.197-5.094.101 2.725-.117 2.369H1071l2.02-6.758c-.295-1.672-.76-3.074-1.437-4.137-1.201-1.885-3.014-2.828-5.436-2.828zm52.777.396l-4.525 1.084v3.896l4.496-1.113v9.46h4.205v-13.326h-4.176zm-66.082 1.607l-2.391 7.289.418-.664.102 2.725-.117 2.369h4.367l.102-2.369c0-3.799-.602-6.641-1.803-8.525-.2-.314-.444-.562-.678-.824zm54.965 1.035l1.488 4.979c-.25-2.052-.739-3.722-1.488-4.979zm-41.66.623c1.006 0 1.738.611 2.197 1.832l.029.088-5.039 8.041-.059-2.27c0-2.686.23-4.639.689-5.859s1.186-1.832 2.182-1.832z" transform="translate(19 1303.362)" fill="url(#l)"/></g></svg>
