<svg xmlns="http://www.w3.org/2000/svg" width="36" height="36" viewBox="0 0 36 36"><defs><style>.a{fill:#fff;}.b{fill:#4285f4;}.b,.c,.d,.e{fill-rule:evenodd;}.c{fill:#34a853;}.d{fill:#fbbc05;}.e{fill:#ea4335;}.f{fill:none;}</style></defs><rect class="a" width="36" height="36"/><path class="b" d="M31.44,18.31a16.07,16.07,0,0,0-.26-2.85H18v5.41h7.54a6.44,6.44,0,0,1-2.8,4.22v3.5h4.52A13.63,13.63,0,0,0,31.44,18.3Z"/><path class="c" d="M18,32a13.28,13.28,0,0,0,9.26-3.4l-4.52-3.5a8.42,8.42,0,0,1-11.65-2.51,8.28,8.28,0,0,1-.92-1.92H5.51V24.3A14,14,0,0,0,18,32Z"/><path class="d" d="M10.17,20.66a8.22,8.22,0,0,1,0-5.32V11.71H5.5a14.06,14.06,0,0,0,0,12.58Z"/><path class="e" d="M18,9.56a7.63,7.63,0,0,1,5.36,2.1l4-4A13.45,13.45,0,0,0,18,4,14,14,0,0,0,5.49,11.71l4.67,3.63A8.33,8.33,0,0,1,18,9.51Z"/><path class="f" d="M4,4H32V32H4Z"/></svg>