<svg xmlns="http://www.w3.org/2000/svg" width="430" height="165"><defs><linearGradient id="m" x1="1184" x2="1184" y1="-405" y2="-533.035" href="#U"><stop offset="0" stop-color="#fff" stop-opacity="0.25"/><stop offset="1" stop-color="#fff" stop-opacity="0"/></linearGradient><linearGradient id="t" x1="1225.688" x2="1225.688" y1="36.5" y2="119" href="#U"><stop offset="0" stop-color="#b2dbea"/><stop offset="1" stop-color="#7092ff"/></linearGradient><linearGradient id="b" x1="1127" x2="1127" y1="942.362" y2="802.63" href="#U"><stop offset="0" stop-color="#cbeea7"/><stop offset="1" stop-color="#cee8c1"/></linearGradient><linearGradient id="s" x1="1254.219" x2="1254.219" y1="789.359" y2="942.362" href="#U"><stop offset="0" stop-color="#222"/><stop offset="1" stop-color="#adadc6" stop-opacity="0"/></linearGradient><linearGradient id="U" gradientUnits="userSpaceOnUse"/><radialGradient id="r" cx="1218.2" cy="124.603" r="110" fx="1218.2" fy="124.603" gradientTransform="matrix(8.9292362e-8,-1.09375,1.0937499,1.4609618e-6,1099.715,1451.4055)" href="#U"><stop offset="0" stop-color="#ccf1ff" stop-opacity="0"/><stop offset=".857" stop-color="#ccf1ff" stop-opacity="0"/><stop offset="1" stop-color="#789afb"/></radialGradient><filter id="f" width="1.091" height="1.174" x="-.046" y="-.087" color-interpolation-filters="sRGB"><feGaussianBlur stdDeviation="5.813"/></filter><mask id="Z"><rect width="350" height="200" x="1000" y="-550" fill="url(#m)"/></mask><clipPath id="c"><use href="#a" transform="matrix(1.454546 0 0 1.454546 -622.81822 -83.09091)"/></clipPath><clipPath id="p"><use href="#a" transform="matrix(1.454546 0 0 1.454546 -611.81823 -534.09093)"/></clipPath><path id="a" d="M 1126,119 A 110,110 0 0 1 1346,119"/><path id="I" d="M0-6.266h4.834v-14.194l-4.497 1.113v-3.896l4.526-1.084h4.175v18.062h4.834v3.809h-13.872z"/><path id="O" d="M0-13.37q0-5.684 1.802-8.511 1.802-2.842 5.42-2.842 3.633 0 5.435 2.827 1.802 2.827 1.802 8.525 0 5.684-1.802 8.511-1.802 2.827-5.435 2.827-3.618 0-5.42-2.827-1.802-2.842-1.802-8.511zm5.039 5.845q.688 1.831 2.183 1.831 1.509 0 2.197-1.831.688-1.831.688-5.845 0-1.523-.102-2.725l-5.112 8.145q.073.234.147.425zm2.183-13.535q-1.494 0-2.183 1.831-.688 1.831-.688 5.859 0 1.245.059 2.271l5.039-8.042q-.015-.044-.029-.088-.688-1.831-2.197-1.831z"/></defs><g transform="translate(-940 -777.362)"><use href="#a" fill="url(#r)" transform="matrix(1.5 0 0 1.5 -649.00018 763.86218)"/><use href="#a" fill="url(#t)" transform="matrix(1.454546 0 0 1.454546 -592.81822 769.27127)"/><g fill="#fff" clip-path="url(#p)" mask="url(#Z)" transform="translate(19 1303.362)"><use x="1113.109" y="-500" href="#O"/><use x="1132.123" y="-500" href="#I"/><use x="1149.232" y="-500" href="#O"/><use x="1168.246" y="-500" href="#I"/><use x="1185.356" y="-500" href="#O"/><use x="1204.369" y="-500" href="#I"/><use x="1221.479" y="-500" href="#O"/><use x="1240.492" y="-500" href="#I"/><use x="1058.925" y="-462.5" href="#O"/><use x="1076.986" y="-462.5" href="#O"/><use x="1096" y="-462.5" href="#I"/><use x="1113.109" y="-462.5" href="#O"/><use x="1132.123" y="-462.5" href="#I"/><use x="1149.232" y="-462.5" href="#O"/><use x="1168.246" y="-462.5" href="#I"/><use x="1185.356" y="-462.5" href="#O"/><use x="1204.369" y="-462.5" href="#I"/><use x="1221.479" y="-462.5" href="#O"/><use x="1239.54" y="-462.5" href="#O"/><use x="1258.554" y="-462.5" href="#I"/><use x="1276.615" y="-462.5" href="#I"/><use x="1293.725" y="-462.5" href="#O"/><use x="1040.863" y="-425" href="#O"/><use x="1059.877" y="-425" href="#I"/><use x="1076.986" y="-425" href="#O"/><use x="1096" y="-425" href="#I"/><use x="1113.109" y="-425" href="#O"/><use x="1132.123" y="-425" href="#I"/><use x="1149.232" y="-425" href="#O"/><use x="1168.246" y="-425" href="#I"/><use x="1185.356" y="-425" href="#O"/><use x="1203.417" y="-425" href="#O"/><use x="1222.431" y="-425" href="#I"/><use x="1239.54" y="-425" href="#O"/><use x="1258.554" y="-425" href="#I"/><use x="1275.663" y="-425" href="#O"/><use x="1294.677" y="-425" href="#I"/><use x="1312.738" y="-425" href="#I"/><use x="1022.802" y="-387.5" href="#O"/><use x="1041.815" y="-387.5" href="#I"/><use x="1058.925" y="-387.5" href="#O"/><use x="1077.939" y="-387.5" href="#I"/><use x="1096" y="-387.5" href="#I"/><use x="1114.062" y="-387.5" href="#I"/><use x="1131.171" y="-387.5" href="#O"/><use x="1150.185" y="-387.5" href="#I"/><use x="1167.294" y="-387.5" href="#O"/><use x="1186.308" y="-387.5" href="#I"/><use x="1203.417" y="-387.5" href="#O"/><use x="1222.431" y="-387.5" href="#I"/><use x="1239.54" y="-387.5" href="#O"/><use x="1258.554" y="-387.5" href="#I"/><use x="1276.615" y="-387.5" href="#I"/><use x="1293.725" y="-387.5" href="#O"/><use x="1312.738" y="-387.5" href="#I"/><use x="1329.848" y="-387.5" href="#O"/><use x="1022.802" y="-350" href="#O"/><use x="1040.863" y="-350" href="#O"/><use x="1058.925" y="-350" href="#O"/><use x="1077.939" y="-350" href="#I"/><use x="1095.048" y="-350" href="#O"/><use x="1114.062" y="-350" href="#I"/><use x="1131.171" y="-350" href="#O"/><use x="1150.185" y="-350" href="#I"/><use x="1167.294" y="-350" href="#O"/><use x="1185.356" y="-350" href="#O"/><use x="1203.417" y="-350" href="#O"/><use x="1221.479" y="-350" href="#O"/><use x="1240.492" y="-350" href="#I"/><use x="1258.554" y="-350" href="#I"/><use x="1275.663" y="-350" href="#O"/><use x="1293.725" y="-350" href="#O"/><use x="1311.786" y="-350" href="#O"/><use x="1330.8" y="-350" href="#I"/></g><path fill="#222" d="M1174-70a161.42 161.42 0 0 0-19 1.25V-60l5 5h10zm40.25 4.844l-.031.156 7.781 9h5l3-4v-.281l-3.875-1.375c-.041-.014-.084-.018-.125-.031l-3.781-1.219-3.406-1.031-.562-.156-3.25-.875-.75-.187zm-95 5.156c-39.44 14.667-71.543 44.431-89.25 82.281V35l15 15v10h5l5 5v5l-5 5v15h105l-10-10h-20l-5-5v-5l-40-25h-10l-10 10h-10V40l-5-5 5-5v-5h-5-10l10-20 15-5v15h5l5-5V0l25-30h5l40-15v-10l-5-5zm91.75 5l6 8h7l-8-8zm33.5.844L1242.125-50H1230l-5.781 10L1230-30l-10 .313-4.437 4.688v5l8.656 5H1235l8.656-15H1250l10 8 1.344 5H1265v-8l5 3 5 2h5l6-6-9-10-2.125 1c-.029-.023-.064-.039-.094-.062l-1-.812-2.437-1.875-.625-.469-3-2.187c-.031-.022-.063-.041-.094-.062-.11-.078-.233-.141-.344-.219l-2.812-2c-.144-.097-.293-.184-.438-.281l-2.781-1.812-1-.625-3.812-2.344-3.219-1.844-1.625-.906-.344-.187-2.719-1.437-4.031-2.031zM1283-30l-3 10 5 5h10v10h-15v5h-10l-10-10h-20-5-10l-5 5V5h-5l-10 20v5l5 5v15l20 20h20l5-5h10l10 10v10l3.344 5H1335c0-44.183-17.921-84.171-46.875-113.125L1286.219-25zm-78-20l3 5h5l-3-5z" clip-path="url(#c)" filter="url(#f)" opacity=".25" transform="translate(30 852.362)"/><path fill="url(#b)" d="M1244.25 787.206l-.031.156 7.781 9h5l3-4v-.281l-3.875-1.375c-.041-.014-.084-.018-.125-.031l-3.781-1.219-3.406-1.031-.562-.156-3.25-.875-.75-.187zm-3.25 10.156l6 8h7l-8-8zm33.5.875l-2.375 4.125h-9.594H1260l-5.781 10 5.781 10-10 .313-4.437 4.688v5l8.656 5h7.344H1265l8.656-15H1280l10 8 1.344 5H1295v-8l5 3 5 2h5l5 5h10v10h-15v5h-10l-10-10h-20-5-4.375H1255l-5 5v10h-5l-10 20v5l5 5V898.3v4.063l20 20h20l5-5h10l10 10v10l3.344 5H1360h5c0-51.438-24.284-97.199-62-126.469l-.469-.344c-.018-.014-.045-.017-.062-.031l-2.156-1.656c-.053-.04-.102-.085-.156-.125-.06-.044-.13-.077-.187-.125a.49.49 0 0 1-.062-.062c-.023-.017-.04-.045-.062-.062l-2.219-1.594c-.019-.013-.044-.018-.062-.031l-2.281-1.594c-.825-.565-1.663-1.106-2.5-1.656-1.673-1.1-3.378-2.181-5.094-3.219l-2.594-1.531-2.625-1.5-2.656-1.437-2.656-1.375-2.656-1.312zm-39.5 4.125l3 5h5l-3-5z"/><path fill="url(#b)" d="M1204 782.362a161.42 161.42 0 0 0-19 1.25v8.75l5 5h10z"/><path fill="url(#b)" d="M1149.25 792.362c-39.44 14.667-71.543 44.431-89.25 82.281v12.719l15 15v10h5l5 5v5l-5 5v15h105l-10-10h-20l-5-5v-5l-40-25h-10l-10 10h-10v-15l-5-5 5-5v-5h-5-10l10-20 15-5v15h5l5-5v-10l25-30h5l40-15v-10l-5-5z"/><path fill="#9ed184" d="M1285 897.362l-15 15h-20l10 10h20l5-5h10l10 10v10h5l10-10h15.969v-15l-25.969-15z" opacity=".15"/><path fill="#9ed184" d="M1100 927.362h5l15 5v10h-30zm30-17.5v7.5l10 5v10l-10 10h55l-10-10h-20l-5-5v-5zm19.25-117.5c-5.877 2.186-11.597 4.729-17.125 7.563l12.875 7.438v9.375l25-9.375v-10l-5-5h-15.75zM1115 810.081a160.81 160.81 0 0 0-34.906 32.281H1095l20-20z" opacity=".15"/><path fill="url(#s)" d="M1260.469 792.268c13.31 49.672-.454 112.826-27.688 150.094H1365c0-68.857-43.516-127.532-104.531-150.094z" opacity=".25"/></g></svg>
