<svg xmlns="http://www.w3.org/2000/svg" width="430" height="165"><defs><filter id="A" width="1.313" height="1.627" x="-.157" y="-.313"><feGaussianBlur stdDeviation="1.306"/></filter><linearGradient id="R" gradientUnits="userSpaceOnUse"/></defs><g transform="translate(-940 -777.362)"><path fill="#5e74ac" d="M964.625 854.8a4 4 0 0 0-3.844 3.563 4 4 0 0 0-5.937 4.344s.545 2.183 2.188 5.188 4.458 7.223 9.281 12.438a4.003 4.003 0 0 0 6.938-2.25 4.003 4.003 0 0 0 3.75.125l.219.688a4.003 4.003 0 1 0 7.563-2.625c-1.972-5.698-3.812-17.531-3.812-17.531a4 4 0 0 0-3.844-3.469 4 4 0 0 0-4.094 4.656 195.62 195.62 0 0 0 1.313 7.469c-2.087-2.643-3.459-4.782-4.312-6.344-1.295-2.37-1.375-3.062-1.375-3.062a4 4 0 0 0-4.031-3.187z" filter="url(#filter7542-4-8-0)"/><path fill="#7693dc" d="M952.625 862.8a4 4 0 0 0-3.781 4.906s.545 2.183 2.188 5.188c1.41 2.58 3.707 6.05 7.375 10.281.112.129.198.276.313.406.113.137.224.285.344.406l.406.406.844.938a4.003 4.003 0 0 0 .656.562c5.987 6.043 9.082 9.019 11.688 10.906 5.068 3.672 10.794 9.231 29.469 15.594s46.943 9.604 85.469-.719a10.11 10.11 0 0 0 6.219-4.625c1.352-2.285 1.751-8.092 1.063-10.656a10.11 10.11 0 0 0-4.75-6.125c-2.315-1.301-5.17-1.652-7.719-.906-35.195 9.431-57.917 6.169-72.812 1.094s-18.163-6.308-22.25-11.219c-5.443-6.541-8.45-10.875-14.781-10.875h-8.125c-2.537 0-4.359.782-5.625 2l-.781-1.312c-1.295-2.37-1.375-3.062-1.375-3.062a4 4 0 0 0-4.031-3.187z" filter="url(#filter7542-4-8-0)"/><path fill="#222" d="M975.266 833.362a7.5 7.5 0 0 0-7.5 7.5c0 4.142 7.5 10.5 7.5 10.5s7.5-6.358 7.5-10.5a7.5 7.5 0 0 0-7.5-7.5zm.234 4.5a3 3 0 1 1 0 6 3 3 0 1 1 0-6z"/><ellipse cx="945" cy="25" fill="#3f4767" fill-opacity=".392" filter="url(#A)" rx="10" ry="5" transform="matrix(.75 0 0 .5 258.75 862.36218)"/><path fill="#222" d="M983.25 851.862a3.75 3.75 0 0 0-3.75 3.75c0 .378.068.734.172 1.078l-9.344 9.344a3.7 3.7 0 0 0-1.078-.172 3.75 3.75 0 1 0 3.75 3.75 3.7 3.7 0 0 0-.172-1.078l9.344-9.344a3.7 3.7 0 0 0 1.078.172 3.75 3.75 0 1 0 0-7.5zm0 2.25a1.5 1.5 0 1 1 0 3 1.5 1.5 0 1 1 0-3zm-14 14a1.5 1.5 0 1 1 0 3 1.5 1.5 0 1 1 0-3zm-23.846-18.968a3.75 3.75 0 0 0-1.373 5.123c.718 1.244 2.046 1.916 3.388 1.869l3.438 5.954c-.712 1.138-.794 2.625-.076 3.869a3.75 3.75 0 0 0 5.123 1.373c1.244-.718 1.916-2.046 1.869-3.388l5.954-3.437c1.138.712 2.625.794 3.869.076a3.75 3.75 0 0 0 1.373-5.123c-.718-1.244-2.046-1.916-3.388-1.869l-3.437-5.954c.712-1.138.794-2.625.076-3.869a3.75 3.75 0 0 0-5.123-1.373c-1.259.727-1.925 2.078-1.859 3.437l-.105.006-5.859 3.383c-1.138-.712-2.625-.794-3.869-.076zm1.125 1.949a1.5 1.5 0 1 1 1.5 2.598 1.5 1.5 0 0 1-1.5-2.598zm11.691-6.75a1.5 1.5 0 1 1 1.5 2.598 1.5 1.5 0 1 1-1.5-2.598zm-7.198 7.908l5.954-3.437a3.8 3.8 0 0 0 2.134.572l3.438 5.954a3.79 3.79 0 0 0-.572 2.134l-5.954 3.437a3.79 3.79 0 0 0-2.134-.572l-3.438-5.954a3.8 3.8 0 0 0 .572-2.134zm2.256 10.533a1.5 1.5 0 0 1 1.5 2.598 1.5 1.5 0 1 1-1.5-2.598zm11.691-6.75a1.5 1.5 0 0 1 1.5 2.598 1.5 1.5 0 0 1-1.5-2.598z"/></g></svg>
