<svg xmlns="http://www.w3.org/2000/svg" width="430" height="165"><defs><linearGradient id="H" x1="1115" x2="1115" y1="920.162" y2="946.062" href="#U"><stop offset="0" stop-color="#fff"/><stop offset="1" stop-color="#dfe9fc"/></linearGradient><linearGradient id="l" x1="360" x2="360" y1="163.875" y2="200" href="#U"><stop offset="0" stop-color="#a2c9ed"/><stop offset="1" stop-color="#7a9dfc"/></linearGradient><linearGradient id="J" x1="1170" x2="1158.253" y1="936.112" y2="892.27" href="#U"><stop offset="0" stop-color="#222"/><stop offset="1" stop-color="#222" stop-opacity="0"/></linearGradient><linearGradient id="K" x1="315" x2="299.064" y1="200" y2="140.525" href="#U"><stop offset="0" stop-color="#c4c4c4"/><stop offset="1" stop-color="#fff"/></linearGradient><linearGradient id="U" gradientUnits="userSpaceOnUse"/></defs><g transform="translate(-940 -777.362)"><path fill="#222" d="M1141 870.362a3 3 0 1 1-6 0 3 3 0 1 1 6 0zm26 0a3 3 0 1 1-6 0 3 3 0 1 1 6 0z" opacity=".5"/><path fill="none" stroke="#222" stroke-linecap="round" stroke-linejoin="round" stroke-width="4" d="M1142 883.362s3 1 8 1 8-1 8-1" opacity=".5"/><path fill="url(#J)" d="M1157 892.362c-6.149 0-11.303 4.265-12.656 10H1115v10h1.906l8.094 30h55l-10-37c-1.873-6.931-5.82-13-13-13z" opacity=".25"/><g fill="#fff"><g fill-opacity=".471" stroke="#fff" stroke-width="2"><rect width="18" height="9" x="1155" y="864.362" rx="2"/><rect width="18" height="9" x="1126" y="864.362" rx="2"/></g><path d="M1144 866.362h11v2h-11z"/></g><path fill="none" stroke="#fff" stroke-linecap="round" stroke-linejoin="round" stroke-width="2" d="M1174 867.362h9c2 0 2 2 2 2"/><path fill="url(#H)" d="M1095 905.362h55l10 37h-55z"/><path fill="#fff" d="M1095 892.362h42v13h-42z"/><g transform="translate(820 742.362)"><path fill="url(#K)" d="M317 150c-6.148 0-11.985 4.146-12.656 10l-.344 3h-29v7h1.438L285 200h9.375l-8.031-30H325v-7h5c0-7.18-5.82-13-13-13z"/><path fill="url(#l)" d="M273 155c-4.566 0-8.428 3.068-9.625 7.25L251 200h22l9.563-32v-.062c.019-.062.046-.125.063-.187.251-.876.375-1.793.375-2.75a10 10 0 0 0-10-10zm53 0a10 10 0 0 0-10 10c0 .957.124 1.874.375 2.75.017.063.043.125.063.188V168L326 200h22l-12.375-37.75c-1.197-4.182-5.059-7.25-9.625-7.25z"/></g><path fill="#fff" d="M1110 905.362c0-7.18-5.82-13-13-13s-13 5.82-13 13h13z"/></g></svg>
