<svg xmlns="http://www.w3.org/2000/svg" width="430" height="165"><defs><filter id="A" width="1.313" height="1.627" x="-.157" y="-.313"><feGaussianBlur stdDeviation="1.306"/></filter><linearGradient id="R" gradientUnits="userSpaceOnUse"/></defs><g transform="translate(-940 -777.362)"><path fill="#5e74ac" d="M964.625 854.8a4 4 0 0 0-3.844 3.563 4 4 0 0 0-5.937 4.344s.545 2.183 2.188 5.188 4.458 7.223 9.281 12.438a4.003 4.003 0 0 0 6.938-2.25 4.003 4.003 0 0 0 3.75.125l.219.688a4.003 4.003 0 1 0 7.563-2.625c-1.972-5.698-3.812-17.531-3.812-17.531a4 4 0 0 0-3.844-3.469 4 4 0 0 0-4.094 4.656 195.62 195.62 0 0 0 1.313 7.469c-2.087-2.643-3.459-4.782-4.312-6.344-1.295-2.37-1.375-3.062-1.375-3.062a4 4 0 0 0-4.031-3.187z" filter="url(#filter7542-4-8-0)"/><path fill="#7693dc" d="M952.625 862.8a4 4 0 0 0-3.781 4.906s.545 2.183 2.188 5.188c1.41 2.58 3.707 6.05 7.375 10.281.112.129.198.276.313.406.113.137.224.285.344.406l.406.406.844.938a4.003 4.003 0 0 0 .656.562c5.987 6.043 9.082 9.019 11.688 10.906 5.068 3.672 10.794 9.231 29.469 15.594s46.943 9.604 85.469-.719a10.11 10.11 0 0 0 6.219-4.625c1.352-2.285 1.751-8.092 1.063-10.656a10.11 10.11 0 0 0-4.75-6.125c-2.315-1.301-5.17-1.652-7.719-.906-35.195 9.431-57.917 6.169-72.812 1.094s-18.163-6.308-22.25-11.219c-5.443-6.541-8.45-10.875-14.781-10.875h-8.125c-2.537 0-4.359.782-5.625 2l-.781-1.312c-1.295-2.37-1.375-3.062-1.375-3.062a4 4 0 0 0-4.031-3.187z" filter="url(#filter7542-4-8-0)"/><path fill="#222" d="M975.266 833.362a7.5 7.5 0 0 0-7.5 7.5c0 4.142 7.5 10.5 7.5 10.5s7.5-6.358 7.5-10.5a7.5 7.5 0 0 0-7.5-7.5zm.234 4.5a3 3 0 1 1 0 6 3 3 0 1 1 0-6z"/><ellipse cx="945" cy="25" fill="#3f4767" fill-opacity=".392" filter="url(#A)" rx="10" ry="5" transform="matrix(.75 0 0 .5 258.75 862.36218)"/><path fill="#222" d="M983.25 851.862a3.75 3.75 0 0 0-3.75 3.75c0 .378.068.734.172 1.078l-9.344 9.344a3.7 3.7 0 0 0-1.078-.172 3.75 3.75 0 1 0 3.75 3.75 3.7 3.7 0 0 0-.172-1.078l9.344-9.344a3.7 3.7 0 0 0 1.078.172 3.75 3.75 0 1 0 0-7.5zm0 2.25a1.5 1.5 0 1 1 0 3 1.5 1.5 0 1 1 0-3zm-14 14a1.5 1.5 0 1 1 0 3 1.5 1.5 0 1 1 0-3zm-23.846-18.968a3.75 3.75 0 0 0-1.373 5.123c.718 1.244 2.046 1.916 3.388 1.869l3.438 5.954c-.712 1.138-.794 2.625-.076 3.869a3.75 3.75 0 0 0 5.123 1.373c1.244-.718 1.916-2.046 1.869-3.388l5.954-3.437c1.138.712 2.625.794 3.869.076a3.75 3.75 0 0 0 1.373-5.123c-.718-1.244-2.046-1.916-3.388-1.869l-3.437-5.954c.712-1.138.794-2.625.076-3.869a3.75 3.75 0 0 0-5.123-1.373c-1.259.727-1.925 2.078-1.859 3.437l-.105.006-5.859 3.383c-1.138-.712-2.625-.794-3.869-.076zm1.125 1.949a1.5 1.5 0 1 1 1.5 2.598 1.5 1.5 0 0 1-1.5-2.598zm11.691-6.75a1.5 1.5 0 1 1 1.5 2.598 1.5 1.5 0 1 1-1.5-2.598zm-7.198 7.908l5.954-3.437a3.8 3.8 0 0 0 2.134.572l3.438 5.954a3.79 3.79 0 0 0-.572 2.134l-5.954 3.437a3.79 3.79 0 0 0-2.134-.572l-3.438-5.954a3.8 3.8 0 0 0 .572-2.134zm2.256 10.533a1.5 1.5 0 0 1 1.5 2.598 1.5 1.5 0 1 1-1.5-2.598zm11.691-6.75a1.5 1.5 0 0 1 1.5 2.598 1.5 1.5 0 0 1-1.5-2.598z"/><path fill="#fff" d="M976.823 855.268a4 4 0 0 0-4.094 4.656l1.23 7.014-.051-1.945c0-2.686.229-4.639.688-5.859s1.187-1.832 2.184-1.832c1.006 0 1.738.611 2.197 1.832l.029.088-5 7.979.035.193c-2.023-2.563-3.351-4.627-4.209-6.176-.165 1.143-.275 2.372-.275 3.775 0 3.779.6 6.615 1.801 8.51 1.201 1.885 3.01 2.828 5.422 2.828 2.422 0 4.232-.943 5.434-2.828.372-.583.665-1.29.922-2.055-1.389-5.804-2.469-12.711-2.469-12.711a4 4 0 0 0-3.844-3.469zm-15.336.98a4 4 0 0 0-1.008 2.113 4 4 0 0 0-2.156-.562 4 4 0 0 0-1.041.266v14.031h-4.834v3.631l.117.178h13.756v-3.809h-4.834zm18.076 6.02a32.52 32.52 0 0 1 .102 2.725c0 2.676-.23 4.623-.689 5.844s-1.19 1.832-2.195 1.832c-.996 0-1.725-.611-2.184-1.832a6.78 6.78 0 0 1-.146-.424zm15.277 28.871c-2.412 0-4.219.947-5.42 2.842-1.201 1.885-1.801 4.723-1.801 8.512a25.02 25.02 0 0 0 .35 4.279 100.15 100.15 0 0 0 5.033 2.262 4.17 4.17 0 0 1-.344-.697 6.72 6.72 0 0 1-.146-.424l5.111-8.145a32.4 32.4 0 0 1 .102 2.725c0 2.676-.229 4.623-.687 5.844-.358.954-.89 1.522-1.582 1.73a144.56 144.56 0 0 0 4.281 1.59c.18-.216.378-.405.537-.654 1.201-1.885 1.803-4.721 1.803-8.51 0-3.799-.601-6.641-1.803-8.525s-3.012-2.828-5.434-2.828zm90.309 0c-2.412 0-4.219.947-5.42 2.842-1.201 1.885-1.803 4.723-1.803 8.512 0 3.779.602 6.615 1.803 8.51.571.895 1.287 1.563 2.131 2.033l5.432-1.361c1.45-.355 2.802-1.061 3.953-2.008.75-1.805 1.139-4.18 1.139-7.174 0-3.799-.6-6.641-1.801-8.525s-3.012-2.828-5.434-2.828zm-109.777.396l-4.525 1.084v2.986a33.63 33.63 0 0 0 .877.693l3.619-.896v3.641c1.24.938 2.567 1.9 4.205 2.986v-10.494zm36.125 0l-4.527 1.084v3.896l4.498-1.113v14.193h-4.834v3.809h13.871v-3.809h-4.834v-17.242a87.47 87.47 0 0 1-2.953-.818zm59.098.547c-2.986.616-5.863 1.129-8.65 1.559-.088.121-.195.21-.277.34-1.201 1.885-1.801 4.723-1.801 8.512 0 3.779.6 6.615 1.801 8.51 1.201 1.885 3.008 2.828 5.42 2.828 2.422 0 4.232-.943 5.434-2.828s1.803-4.721 1.803-8.51c0-3.799-.601-6.641-1.803-8.525-.52-.816-1.177-1.422-1.926-1.885zm-45.209 2.219c-1.083 1.881-1.644 4.593-1.644 8.191 0 3.779.602 6.615 1.803 8.51 1.201 1.885 3.008 2.828 5.42 2.828 2.422 0 4.234-.943 5.436-2.828s1.801-4.721 1.801-8.51c0-3.002-.389-5.381-1.139-7.187a108.18 108.18 0 0 1-5.232-.295c.568.265 1.019.79 1.332 1.623l.029.088-5.039 8.041c-.039-.684-.058-1.439-.058-2.27 0-2.686.228-4.639.688-5.859.368-.978.916-1.545 1.629-1.74-1.732-.163-3.412-.357-5.023-.592zm29.377.279a141.6 141.6 0 0 1-4.861.436c.562.267 1.009.79 1.32 1.617l.029.088-5.039 8.041c-.039-.684-.057-1.439-.057-2.27 0-2.686.229-4.639.688-5.859.262-.697.621-1.171 1.059-1.471a127.77 127.77 0 0 1-4.976.191c-.739 1.801-1.121 4.166-1.121 7.139 0 3.779.6 6.615 1.801 8.51 1.201 1.885 3.008 2.828 5.42 2.828 2.422 0 4.234-.943 5.436-2.828s1.803-4.721 1.803-8.51c0-3.434-.519-6.042-1.5-7.912zm-59.922.221c1.006 0 1.738.611 2.197 1.832.009.029.019.059.029.088l-5.039 8.041c-.039-.684-.059-1.439-.059-2.27 0-2.686.23-4.639.689-5.859s1.185-1.832 2.182-1.832zm72.246 0c1.006 0 1.738.611 2.197 1.832l.029.088-5.039 8.041c-.039-.684-.059-1.439-.059-2.27 0-2.686.23-4.639.689-5.859s1.186-1.832 2.182-1.832zm18.063 0c1.006 0 1.738.611 2.197 1.832l.029.088-5.039 8.041a39.95 39.95 0 0 1-.061-2.27c0-2.686.23-4.639.689-5.859s1.188-1.832 2.184-1.832zm-51.402 4.967c.068.801.103 1.709.103 2.725 0 2.676-.23 4.623-.689 5.844s-1.191 1.832-2.197 1.832c-.996 0-1.725-.611-2.184-1.832a6.66 6.66 0 0 1-.147-.424zm18.063 0a32.52 32.52 0 0 1 .102 2.725c0 2.676-.23 4.623-.689 5.844s-1.191 1.832-2.197 1.832c-.996 0-1.723-.611-2.182-1.832a6.66 6.66 0 0 1-.147-.424zm18.061 0a32.53 32.53 0 0 1 .101 2.725c0 2.676-.228 4.623-.687 5.844s-1.191 1.832-2.197 1.832c-.996 0-1.723-.611-2.182-1.832a6.66 6.66 0 0 1-.147-.424zm18.063 0a32.53 32.53 0 0 1 .101 2.725c0 2.676-.228 4.623-.687 5.844s-1.191 1.832-2.197 1.832c-.996 0-1.725-.611-2.184-1.832a6.66 6.66 0 0 1-.147-.424z" clip-path="none" filter="url(#filter7542-4-8-0)" opacity=".1"/></g></svg>
