<svg xmlns="http://www.w3.org/2000/svg" width="430" height="165"><defs><linearGradient id="E" x1="284" x2="284" y1="166" y2="202.125" href="#U"><stop offset="0" stop-color="#a2c9ed"/><stop offset="1" stop-color="#7a9dfc"/></linearGradient><linearGradient id="F" x1="1103.75" x2="1103.75" y1="883.112" y2="905.884" href="#U"><stop offset="0" stop-color="#fff"/><stop offset="1" stop-color="#ebf2fd"/></linearGradient><linearGradient id="G" x1="1156.096" x2="1144.038" y1="942.612" y2="897.612" href="#U"><stop offset="0"/><stop offset="1" stop-opacity="0"/></linearGradient><linearGradient id="l" x1="1184" x2="1184" y1="-405" y2="-533.035" href="#U"><stop offset="0" stop-color="#fff" stop-opacity="0.25"/><stop offset="1" stop-color="#fff" stop-opacity="0"/></linearGradient><linearGradient id="U" gradientUnits="userSpaceOnUse"/></defs><g transform="translate(-940.273 -777.362)"><path fill="#222" d="M1169 867.362a5 5 0 1 1-10 0 5 5 0 1 1 10 0zm-26 0a5 5 0 1 1-10 0 5 5 0 1 1 10 0z" opacity=".5"/><path fill="none" stroke="#222" stroke-linejoin="round" stroke-width="4" d="M1142 882.362s3 4 8 4 8-4 8-4z" opacity=".5"/><path fill="url(#G)" d="M1100.75 887.362v10.031l-.75-.031c-4.566 0-8.428 3.068-9.625 7.25L1078 942.362h22l8.375-28h28.25l8.375 28h20l-9.031-32.75c-.956-3.339-5.755-9.136-9.969-11.344v-10.906z" opacity=".25"/><path fill="url(#F)" d="M1085 877.362h50v30h-50z"/><path fill="url(#E)" d="M270 155c-4.566 0-8.428 3.068-9.625 7.25L248 200h22l9.563-32v-.062c.019-.062.046-.125.063-.187.251-.876.375-1.793.375-2.75a10 10 0 0 0-10-10zm40 0a10 10 0 0 0-10 10c0 .957.124 1.874.375 2.75l.063.188c.01.019-.01.044 0 .063L310 200h20l-10.375-37.75c-1.197-4.182-5.059-7.25-9.625-7.25z" transform="translate(820 742.362)"/><path fill="#ebf2fd" d="M1135 877.362l-20-10h-10l-20 10z"/><path fill="url(#l)" d="M1071-406c-1.196 0-2.34.216-3.404.602l-4.262 6.799-.059-2.27c0-.605.055-1.037.078-1.568-.899 1.064-1.585 2.314-1.978 3.688l-1.5 4.576c.241.672.518 1.288.852 1.814 1.201 1.885 3.008 2.828 5.42 2.828 2.422 0 4.234-.943 5.436-2.828s1.801-4.721 1.801-8.51c0-1.883-.149-3.527-.443-4.939A10.04 10.04 0 0 0 1071-406zm34.039 1.984c-2.447 1.823-4.039 4.73-4.039 8.016 0 .957.124 1.874.375 2.75l.063.188c.01.019-.01.044 0 .063l.91 3.043h7.525v-3.809h-4.834v-10.25zm-36.109.422l.101 2.725c0 2.676-.229 4.623-.687 5.844s-1.191 1.832-2.197 1.832c-.996 0-1.723-.611-2.182-1.832l-.146-.424zm49.965 1.461v8.367h-4.834v3.809h8.98l-2.416-8.793c-.356-1.245-.954-2.387-1.73-3.383zm-40.955 8.367v3.809h1.713l.91-3.043v-.062l.063-.187.127-.516h-2.812zm-11.793 19.043c-2.412 0-4.219.947-5.42 2.842-1.201 1.885-1.803 4.723-1.803 8.512l.102 2.369h6.707l3.197-5.094.101 2.725-.117 2.369H1071l2.02-6.758c-.295-1.672-.76-3.074-1.437-4.137-1.201-1.885-3.014-2.828-5.436-2.828zm52.777.396l-4.525 1.084v3.896l4.496-1.113v9.46h4.205v-13.326h-4.176zm-66.082 1.607l-2.391 7.289.418-.664.102 2.725-.117 2.369h4.367l.102-2.369c0-3.799-.602-6.641-1.803-8.525-.2-.314-.444-.562-.678-.824zm54.965 1.035l1.488 4.979c-.25-2.052-.739-3.722-1.488-4.979zm-41.66.623c1.006 0 1.738.611 2.197 1.832l.029.088-5.039 8.041-.059-2.27c0-2.686.23-4.639.689-5.859s1.186-1.832 2.182-1.832z" transform="translate(19 1303.362)"/></g></svg>
