<svg xmlns="http://www.w3.org/2000/svg" width="25.099" height="40.226" stroke-width="1.1">
  <defs>
    <linearGradient id="a" x1="12.548" x2="12.548" y1="37.935" y2=".371" gradientUnits="userSpaceOnUse">
      <stop offset="0" stop-color="#286eb5"/>
      <stop offset="1" stop-color="#4d9cd1"/>
    </linearGradient>
    <linearGradient id="b" x1="12.55" x2="12.55" y1="19.423" y2=".371" gradientUnits="userSpaceOnUse">
      <stop offset="0" stop-color="#306d98"/>
      <stop offset="1" stop-color="#3984b8"/>
    </linearGradient>
    <path id="c" stroke-linecap="round" stroke-linejoin="round" d="M10 12a1 1 0 0 1 5 1 1 1 0 0 1-5-1"/>
  </defs>
  <path fill="url(#a)" stroke="url(#b)" d="M12.594.55C6.022.55.55 6.241.55 12.415c0 2.777 1.563 6.309 2.693 8.747l9.307 17.871 9.262-17.871c1.13-2.438 2.737-5.792 2.737-8.747C24.539 6.241 19.159.55 12.589.55z"/>
  <g fill="none" stroke="#fff" opacity=".122">
    <path d="M12.584 1.655c-5.944 0-10.938 5.221-10.938 10.75 0 2.359 1.442 5.832 2.562 8.25.005.012.025.021.03.031l8.313 15.969 8.25-15.969c.005-.012.025-.02.03-.031 1.136-2.448 2.625-5.706 2.625-8.25.01-5.537-4.92-10.75-10.86-10.75z"/>
    <use stroke-width="7.3" href="#c"/>
  </g>
  <use stroke="url(#b)" stroke-width="5.1" href="#c"/>
  <use fill="#fff" stroke="#fff" stroke-width="2.9" href="#c"/>
</svg>
