<svg xmlns="http://www.w3.org/2000/svg" height="40.226" width="25.099">
  <linearGradient id="A" x1="12.548" gradientUnits="userSpaceOnUse" y1="37.935" x2="12.548" y2=".371">
    <stop stop-color="#286eb5" offset="0"/>
    <stop stop-color="#4d9cd1" offset="1"/>
  </linearGradient>
  <linearGradient id="B" x1="12.55" gradientUnits="userSpaceOnUse" y1="19.423" x2="12.55" y2=".371">
    <stop stop-color="#306d98" offset="0"/>
    <stop stop-color="#3984b8" offset="1"/>
  </linearGradient>
  <g fill-rule="evenodd">
    <path fill="#fff" d="M2.063 13.585L12.069 2.251l11.124 12.602-10.006 11.335z"/>
    <path fill="url(#A)" d="M 12.594,0.55000001 C 6.022,0.55000001 0.55000001,6.241 0.55000001,12.415 c 0,2.777 1.56299999,6.309 2.69299999,8.747 l 9.307,17.871 9.262,-17.871 c 1.13,-2.438 2.737001,-5.792 2.737001,-8.747 C 24.539001,6.241 19.159,0.55000001 12.589,0.55000001 v 0 z M 14.644,11.411 V 6.595 c 0,-1.105 -0.895,-2 -2,-2 -1.104,0 -2.001,0.897 -2,2 V 11.41 H 5.829 c -1.104,-10e-4 -2,0.896 -2,2 0,1.104 0.895,2 2,2 h 4.815 v 4.815 c -10e-4,1.104 0.896,2 2,2 0.552,0 1.052,-0.224 1.414,-0.586 0.361,-0.361 0.586,-0.861 0.586,-1.414 V 15.41 h 4.815 c 0.551,0 1.052,-0.224 1.414,-0.586 0.361,-0.362 0.585,-0.862 0.586,-1.415 0.001,-1.104 -0.896,-2.001 -2,-2 -0.008,0.0044 -4.815,0.002 -4.815,0.002 z" stroke="url(#B)" stroke-width="1.1"/>
  </g>
  <path fill="none" stroke-opacity=".122" stroke="#fff" stroke-width="1.1" d="M12.584 1.655c-5.944 0-10.938 5.221-10.938 10.75 0 2.359 1.442 5.832 2.562 8.25.005.012.025.021.03.031l8.313 15.969 8.25-15.969c.005-.012.025-.02.03-.031 1.136-2.448 2.625-5.706 2.625-8.25.01-5.537-4.92-10.75-10.86-10.75h0zm-2.13 2.757a3.08 3.08 0 0 0-.908 2.194l.001 3.714-3.716-.001a3.08 3.08 0 0 0-2.192.908 3.07 3.07 0 0 0-.906 2.193 3.07 3.07 0 0 0 .906 2.191c.586.585 1.365.908 2.193.908l3.714-.001.001 3.716c-.001.826.321 1.605.907 2.191s1.365.908 2.191.907 1.606-.322 2.191-.907a3.08 3.08 0 0 0 .909-2.193l.001-3.713 3.714-.001a3.08 3.08 0 0 0 2.191-.908c.586-.586.909-1.365.908-2.192a3.07 3.07 0 0 0-.907-2.191 3.07 3.07 0 0 0-2.191-.907h-3.717l.002-3.715a3.08 3.08 0 0 0-.908-2.192c-.586-.585-1.364-.908-2.193-.908-.8-.002-1.58.321-2.17.907h0z"/>
</svg>
