<svg xmlns="http://www.w3.org/2000/svg" height="40.226" width="25.1">
  <defs>
    <linearGradient id="A" gradientUnits="userSpaceOnUse" x1="12.55" y1="37.935" x2="12.55" y2=".371">
      <stop stop-color="#7cb928" offset="0"/>
      <stop stop-color="#a2c857" offset="1"/>
    </linearGradient>
    <linearGradient id="B" gradientUnits="userSpaceOnUse" x1="12.55" y1="19.423" x2="12.55" y2=".371">
      <stop stop-color="#74963a" offset="0"/>
      <stop stop-color="#89b63e" offset="1"/>
    </linearGradient>
    <path id="C" stroke-linecap="round" stroke-linejoin="round" d="M10 12a1 1 0 0 1 5 1 1 1 0 0 1-5-1"/>
  </defs>
  <path fill="url(#A)" stroke="url(#B)" stroke-width="1.1" d="M12.59.55c6.58 0 11.96 5.691 11.96 11.865 0 2.955-1.607 6.309-2.738 8.747L12.55 39.033 3.243 21.162C2.114 18.724.55 15.192.55 12.415.55 6.241 6.023.55 12.595.55Z"/>
  <g fill="none" stroke="#fff" opacity=".122">
    <path stroke-width="1.1" d="M12.585 1.655c-5.943 0-10.938 5.221-10.938 10.75 0 2.359 1.443 5.832 2.562 8.25.006.012.025.021.031.031l8.312 15.969 8.25-15.969c.006-.012.025-.02.031-.031 1.135-2.448 2.625-5.706 2.625-8.25.01-5.537-4.93-10.75-10.87-10.75z"/>
    <use stroke-width="7.1" href="#C"/>
  </g>
  <use stroke="url(#B)" stroke-width="4.9" href="#C"/>
  <use fill="#fff" stroke="#fff" stroke-width="2.7" href="#C"/>
</svg>
