<svg xmlns="http://www.w3.org/2000/svg" height="40.226" width="25.099">
  <defs>
    <linearGradient id="A" x1="27.311" gradientUnits="userSpaceOnUse" y1="59.373" x2="27.311" y2="21.809">
      <stop stop-color="#c72118" offset="0"/>
      <stop stop-color="#d2534f" offset="1"/>
    </linearGradient>
    <linearGradient id="B" x1="27.31" gradientUnits="userSpaceOnUse" y1="40.861" x2="27.31" y2="21.809">
      <stop stop-color="#983a38" offset="0"/>
      <stop stop-color="#b83d3b" offset="1"/>
    </linearGradient>
  </defs>
  <path d="M2.805 9.333l5.717-6.132 9.459.208 4.47 7.068-2.806 11.33-8.835.728-5.405-1.455-2.391-6.444z" fill="#fff"/>
  <g transform="translate(-14.761 -21.438)">
    <g stroke-width="1.1">
      <path d="m 27.355,21.988 c -6.572,0 -12.044,5.691 -12.044,11.865 0,2.777 1.563,6.309 2.693,8.747 L 27.311,60.471 36.573,42.6 c 1.13,-2.438 2.737,-5.792 2.737,-8.747 10e-4,-6.174 -5.382,-11.865 -11.955,-11.865 z m 2.875,12.86 3.547,-3.547 c 0.781,-0.781 0.781,-2.047 0,-2.828 -0.782,-0.781 -2.049,-0.781 -2.829,0 l -3.547,3.547 -3.547,-3.547 c -0.779,-0.781 -2.047,-0.781 -2.828,0 -0.781,0.781 -0.781,2.047 0,2.828 l 3.547,3.547 -3.547,3.546 c -0.781,0.78 -0.781,2.048 0,2.828 0.391,0.391 0.902,0.586 1.414,0.586 0.512,0 1.024,-0.195 1.414,-0.586 l 3.547,-3.546 3.547,3.546 c 0.39,0.391 0.902,0.586 1.414,0.586 0.512,0 1.023,-0.195 1.415,-0.586 0.781,-0.78 0.781,-2.048 0,-2.828 z" fill-rule="evenodd" stroke="url(#B)" fill="url(#A)"/>
      <path d="M27.343 23.093c-5.944 0-10.938 5.221-10.938 10.75 0 2.359 1.442 5.832 2.562 8.25.005.012.025.021.03.031l8.313 15.969 8.25-15.969c.005-.012.025-.02.03-.031 1.136-2.448 2.625-5.706 2.625-8.25.002-5.537-4.929-10.75-10.872-10.75zm5.02 3.706a3.08 3.08 0 0 0-2.193.909l-2.768 2.769-2.769-2.77a3.08 3.08 0 0 0-2.192-.908c-.828 0-1.607.323-2.191.909s-.908 1.363-.908 2.191a3.08 3.08 0 0 0 .908 2.192l2.769 2.768-2.769 2.77c-.586.584-.908 1.363-.908 2.191s.322 1.607.908 2.191 1.363.908 2.191.908a3.08 3.08 0 0 0 2.193-.908l2.768-2.767 2.769 2.767c.585.586 1.363.908 2.192.908s1.607-.322 2.191-.908a3.07 3.07 0 0 0 .908-2.191c0-.828-.322-1.607-.908-2.191l-2.769-2.77 2.769-2.768a3.08 3.08 0 0 0 0-4.384 3.08 3.08 0 0 0-2.191-.908z" stroke-opacity=".122" stroke="#fff" fill="none"/>
    </g>
  </g>
</svg>
