<?xml version="1.0" encoding="utf-8"?>
<!-- Generator: Adobe Illustrator 16.0.0, SVG Export Plug-In . SVG Version: 6.00 Build 0)  -->
<!DOCTYPE svg PUBLIC "-//W3C//DTD SVG 1.1//EN" "http://www.w3.org/Graphics/SVG/1.1/DTD/svg11.dtd">
<svg version="1.1" id="Layer_1" xmlns="http://www.w3.org/2000/svg" xmlns:xlink="http://www.w3.org/1999/xlink" x="0px" y="0px"
	 width="211px" height="79px" viewBox="0 0 211 79" enable-background="new 0 0 211 79" xml:space="preserve">
<linearGradient id="path3873_5_" gradientUnits="userSpaceOnUse" x1="95.3164" y1="-15.3354" x2="95.3164" y2="22.229" gradientTransform="matrix(1 0 0 -1 -28.7061 44.0381)">
	<stop  offset="0" style="stop-color:#286EB5"/>
	<stop  offset="1" style="stop-color:#4D9CD1"/>
</linearGradient>
<linearGradient id="path3873_6_" gradientUnits="userSpaceOnUse" x1="3.7354" y1="3.1758" x2="3.7354" y2="22.2284" gradientTransform="matrix(1 0 0 -1 62.874 44.0371)">
	<stop  offset="0" style="stop-color:#306D98"/>
	<stop  offset="1" style="stop-color:#3984B8"/>
</linearGradient>
<path id="path3873_1_" sodipodi:nodetypes="zscccszcscsc" inkscape:connector-curvature="0" inkscape:export-ydpi="180" inkscape:export-xdpi="180" inkscape:export-filename="C:\Users\dave.STK\Desktop\git\Leaflet\Leaflet\dist\images\marker-icon@2x.png" fill="url(#path3873_5_)" stroke="url(#path3873_6_)" stroke-width="1.1" stroke-linecap="round" d="
	M66.654,21.988c-6.572,0-12.044,5.691-12.044,11.865c0,2.777,1.563,6.309,2.693,8.747l9.307,17.871L75.871,42.6
	c1.131-2.438,2.738-5.792,2.738-8.747C78.609,27.679,73.227,21.988,66.654,21.988L66.654,21.988z M66.654,29.142
	c2.584,0.018,4.678,2.121,4.678,4.711c0,2.588-2.094,4.662-4.678,4.678c-2.585-0.016-4.679-2.09-4.679-4.678
	C61.975,31.263,64.069,29.16,66.654,29.142z"/>
<path id="path3792_1_" inkscape:radius="-1.09294" inkscape:original="M 416.53125 503.625 C 409.95868 503.625 404.5 509.29393 404.5 515.46875 C 404.5 518.24668 406.05726 521.78106 407.1875 524.21875 L 416.5 542.09375 L 425.75 524.21875 C 426.88024 521.78106 428.5 518.42346 428.5 515.46875 C 428.5 509.29393 423.10382 503.625 416.53125 503.625 z M 416.53125 510.78125 C 419.11574 510.79795 421.21875 512.88037 421.21875 515.46875 C 421.21875 518.05715 419.11574 520.13969 416.53125 520.15625 C 413.94676 520.13975 411.875 518.05715 411.875 515.46875 C 411.875 512.88038 413.94676 510.79802 416.53125 510.78125 z " sodipodi:type="inkscape:offset" inkscape:export-ydpi="180" inkscape:export-xdpi="180" inkscape:export-filename="C:\Users\dave.STK\Desktop\git\Leaflet\Leaflet\dist\images\marker-icon@2x.png" fill="none" stroke="#FFFFFF" stroke-width="1.1" stroke-linecap="round" stroke-opacity="0.1216" d="
	M66.641,23.093c-5.944,0-10.938,5.221-10.938,10.75c0,2.359,1.442,5.832,2.562,8.25c0.005,0.012,0.025,0.021,0.03,0.031
	l8.313,15.969l8.25-15.969c0.006-0.012,0.025-0.02,0.031-0.031c1.135-2.448,2.625-5.706,2.625-8.25
	C77.516,28.306,72.584,23.093,66.641,23.093L66.641,23.093z M66.641,28.062c3.167,0.021,5.781,2.602,5.781,5.781
	c0,3.182-2.613,5.762-5.781,5.781c-3.168-0.02-5.75-2.609-5.75-5.781S63.473,28.083,66.641,28.062z"/>
<g>
	
		<linearGradient id="path3873_7_" gradientUnits="userSpaceOnUse" x1="56.0166" y1="-15.3354" x2="56.0166" y2="22.229" gradientTransform="matrix(1 0 0 -1 -28.7061 44.0381)">
		<stop  offset="0" style="stop-color:#C72118"/>
		<stop  offset="1" style="stop-color:#D2534F"/>
	</linearGradient>
	
		<linearGradient id="path3873_8_" gradientUnits="userSpaceOnUse" x1="-35.5635" y1="3.1758" x2="-35.5635" y2="22.2284" gradientTransform="matrix(1 0 0 -1 62.874 44.0371)">
		<stop  offset="0" style="stop-color:#983A38"/>
		<stop  offset="1" style="stop-color:#B83D3B"/>
	</linearGradient>
	
		<path id="path3873_3_" sodipodi:nodetypes="zscccszcscsc" inkscape:connector-curvature="0" inkscape:export-ydpi="180" inkscape:export-xdpi="180" inkscape:export-filename="C:\Users\dave.STK\Desktop\git\Leaflet\Leaflet\dist\images\marker-icon@2x.png" fill-rule="evenodd" clip-rule="evenodd" fill="url(#path3873_7_)" stroke="url(#path3873_8_)" stroke-width="1.1" stroke-linecap="round" d="
		M27.355,21.988c-6.572,0-12.044,5.691-12.044,11.865c0,2.777,1.563,6.309,2.693,8.747l9.307,17.871L36.573,42.6
		c1.13-2.438,2.737-5.792,2.737-8.747C39.311,27.679,33.928,21.988,27.355,21.988L27.355,21.988z M30.23,34.848l3.547-3.547
		c0.781-0.781,0.781-2.047,0-2.828c-0.782-0.781-2.049-0.781-2.829,0l-3.547,3.547l-3.547-3.547c-0.779-0.781-2.047-0.781-2.828,0
		s-0.781,2.047,0,2.828l3.547,3.547l-3.547,3.546c-0.781,0.78-0.781,2.048,0,2.828c0.391,0.391,0.902,0.586,1.414,0.586
		s1.024-0.195,1.414-0.586l3.547-3.546l3.547,3.546c0.39,0.391,0.902,0.586,1.414,0.586s1.023-0.195,1.415-0.586
		c0.781-0.78,0.781-2.048,0-2.828L30.23,34.848z"/>
	
		<path id="path3792_3_" inkscape:radius="-1.09294" inkscape:original="M 416.53125 503.625 C 409.95868 503.625 404.5 509.29393 404.5 515.46875 C 404.5 518.24668 406.05726 521.78106 407.1875 524.21875 L 416.5 542.09375 L 425.75 524.21875 C 426.88024 521.78106 428.5 518.42346 428.5 515.46875 C 428.5 509.29393 423.10382 503.625 416.53125 503.625 z M 416.53125 510.78125 C 419.11574 510.79795 421.21875 512.88037 421.21875 515.46875 C 421.21875 518.05715 419.11574 520.13969 416.53125 520.15625 C 413.94676 520.13975 411.875 518.05715 411.875 515.46875 C 411.875 512.88038 413.94676 510.79802 416.53125 510.78125 z " sodipodi:type="inkscape:offset" inkscape:export-ydpi="180" inkscape:export-xdpi="180" inkscape:export-filename="C:\Users\dave.STK\Desktop\git\Leaflet\Leaflet\dist\images\marker-icon@2x.png" fill="none" stroke="#FFFFFF" stroke-width="1.1" stroke-linecap="round" stroke-opacity="0.1216" d="
		M27.343,23.093c-5.944,0-10.938,5.221-10.938,10.75c0,2.359,1.442,5.832,2.562,8.25c0.005,0.012,0.025,0.021,0.03,0.031
		l8.313,15.969l8.25-15.969c0.005-0.012,0.025-0.02,0.03-0.031c1.136-2.448,2.625-5.706,2.625-8.25
		C38.217,28.306,33.286,23.093,27.343,23.093L27.343,23.093z M32.363,26.799c-0.829,0-1.607,0.323-2.193,0.909l-2.768,2.769
		l-2.769-2.77c-0.585-0.585-1.363-0.908-2.192-0.908c-0.828,0-1.607,0.323-2.191,0.909c-0.586,0.585-0.908,1.363-0.908,2.191
		s0.322,1.606,0.908,2.192l2.769,2.768l-2.769,2.77c-0.586,0.584-0.908,1.363-0.908,2.191s0.322,1.607,0.908,2.191
		c0.585,0.586,1.363,0.908,2.191,0.908c0.829,0,1.607-0.322,2.193-0.908l2.768-2.767l2.769,2.767
		c0.585,0.586,1.363,0.908,2.192,0.908c0.828,0,1.607-0.322,2.191-0.908c0.586-0.583,0.908-1.363,0.908-2.191
		s-0.322-1.607-0.908-2.191l-2.769-2.77l2.769-2.768c0.586-0.586,0.908-1.364,0.908-2.192s-0.322-1.606-0.908-2.192
		C33.971,27.123,33.191,26.799,32.363,26.799L32.363,26.799z"/>
</g>
<g>
	
		<linearGradient id="path3873_9_" gradientUnits="userSpaceOnUse" x1="135.4668" y1="-15.3354" x2="135.4668" y2="22.229" gradientTransform="matrix(1 0 0 -1 -28.7061 44.0381)">
		<stop  offset="0" style="stop-color:#7CB928"/>
		<stop  offset="1" style="stop-color:#A2C857"/>
	</linearGradient>
	
		<linearGradient id="path3873_10_" gradientUnits="userSpaceOnUse" x1="43.8857" y1="3.1758" x2="43.8857" y2="22.2284" gradientTransform="matrix(1 0 0 -1 62.874 44.0371)">
		<stop  offset="0" style="stop-color:#74963A"/>
		<stop  offset="1" style="stop-color:#89B63E"/>
	</linearGradient>
	
		<path id="path3873_4_" sodipodi:nodetypes="zscccszcscsc" inkscape:connector-curvature="0" inkscape:export-ydpi="180" inkscape:export-xdpi="180" inkscape:export-filename="C:\Users\dave.STK\Desktop\git\Leaflet\Leaflet\dist\images\marker-icon@2x.png" fill-rule="evenodd" clip-rule="evenodd" fill="url(#path3873_9_)" stroke="url(#path3873_10_)" stroke-width="1.1" stroke-linecap="round" d="
		M106.805,21.988c-6.572,0-12.045,5.691-12.045,11.865c0,2.777,1.564,6.309,2.693,8.747l9.307,17.871l9.262-17.871
		c1.131-2.438,2.738-5.792,2.738-8.747C118.76,27.679,113.377,21.988,106.805,21.988L106.805,21.988z M105.615,42.057
		c-0.521,0-1.025-0.215-1.389-0.604c-0.025-0.027-2.609-2.793-3.945-3.996c-0.779-0.703-0.841-1.904-0.139-2.684
		c0.703-0.781,1.904-0.842,2.684-0.139c0.64,0.576,1.501,1.438,2.275,2.232c1.244-2.398,3.327-6,5.765-8.545
		c0.726-0.758,1.929-0.783,2.687-0.057c0.758,0.725,0.783,1.928,0.058,2.686c-3.412,3.562-6.228,9.906-6.255,9.971
		c-0.258,0.584-0.792,1-1.422,1.108C105.828,42.047,105.721,42.057,105.615,42.057z"/>
	
		<path id="path3792_6_" inkscape:radius="-1.09294" inkscape:original="M 416.53125 503.625 C 409.95868 503.625 404.5 509.29393 404.5 515.46875 C 404.5 518.24668 406.05726 521.78106 407.1875 524.21875 L 416.5 542.09375 L 425.75 524.21875 C 426.88024 521.78106 428.5 518.42346 428.5 515.46875 C 428.5 509.29393 423.10382 503.625 416.53125 503.625 z M 416.53125 510.78125 C 419.11574 510.79795 421.21875 512.88037 421.21875 515.46875 C 421.21875 518.05715 419.11574 520.13969 416.53125 520.15625 C 413.94676 520.13975 411.875 518.05715 411.875 515.46875 C 411.875 512.88038 413.94676 510.79802 416.53125 510.78125 z " sodipodi:type="inkscape:offset" inkscape:export-ydpi="180" inkscape:export-xdpi="180" inkscape:export-filename="C:\Users\dave.STK\Desktop\git\Leaflet\Leaflet\dist\images\marker-icon@2x.png" fill="none" stroke="#FFFFFF" stroke-width="1.1" stroke-linecap="round" stroke-opacity="0.1216" d="
		M106.791,23.093c-5.943,0-10.938,5.221-10.938,10.75c0,2.359,1.443,5.832,2.562,8.25c0.006,0.012,0.025,0.021,0.031,0.031
		l8.312,15.969l8.25-15.969c0.006-0.012,0.025-0.02,0.031-0.031c1.135-2.448,2.625-5.706,2.625-8.25
		C117.666,28.306,112.734,23.093,106.791,23.093L106.791,23.093z M112.238,26.636L112.238,26.636c-0.814,0-1.604,0.338-2.166,0.926
		c-2.09,2.18-3.914,5.074-5.236,7.471c-0.502-0.498-0.928-0.904-1.273-1.217c-0.553-0.498-1.266-0.771-2.009-0.771
		c-0.849,0-1.661,0.361-2.228,0.992c-1.107,1.227-1.01,3.129,0.219,4.236c1.288,1.16,3.85,3.901,3.874,3.926
		c0.569,0.609,1.368,0.957,2.196,0.957c0.166,0,0.334-0.014,0.498-0.041c1.002-0.172,1.841-0.824,2.248-1.75
		c0.029-0.064,2.805-6.271,6.043-9.652c0.555-0.578,0.851-1.34,0.834-2.141c-0.018-0.801-0.346-1.547-0.925-2.102
		C113.752,26.933,113.015,26.636,112.238,26.636L112.238,26.636z"/>
</g>
<rect id="rect3771_1_" x="14.811" y="20.958" inkscape:export-ydpi="180" inkscape:export-xdpi="180" inkscape:export-filename="C:\Users\dave.STK\Desktop\git\Leaflet\Leaflet\dist\images\marker-icon@2x.png" display="none" fill="#FFFFFF" fill-opacity="0" width="25" height="41.001">
</rect>
<linearGradient id="path3873_11_" gradientUnits="userSpaceOnUse" x1="188.8516" y1="-15.3354" x2="188.8516" y2="22.229" gradientTransform="matrix(1 0 0 -1 -28.7061 44.0381)">
	<stop  offset="0" style="stop-color:#286EB5"/>
	<stop  offset="1" style="stop-color:#4D9CD1"/>
</linearGradient>
<linearGradient id="path3873_12_" gradientUnits="userSpaceOnUse" x1="97.2715" y1="3.1758" x2="97.2715" y2="22.2284" gradientTransform="matrix(1 0 0 -1 62.874 44.0371)">
	<stop  offset="0" style="stop-color:#306D98"/>
	<stop  offset="1" style="stop-color:#3984B8"/>
</linearGradient>
<path id="path3873_2_" sodipodi:nodetypes="zscccszcscsc" inkscape:connector-curvature="0" inkscape:export-ydpi="180" inkscape:export-xdpi="180" inkscape:export-filename="C:\Users\dave.STK\Desktop\git\Leaflet\Leaflet\dist\images\marker-icon@2x.png" fill-rule="evenodd" clip-rule="evenodd" fill="url(#path3873_11_)" stroke="url(#path3873_12_)" stroke-width="1.1" stroke-linecap="round" d="
	M160.188,21.988c-6.572,0-12.044,5.691-12.044,11.865c0,2.777,1.563,6.309,2.693,8.747l9.307,17.871l9.262-17.871
	c1.13-2.438,2.737-5.792,2.737-8.747C172.144,27.679,166.761,21.988,160.188,21.988L160.188,21.988z M162.236,32.849v-4.816
	c0-1.105-0.895-2-2-2c-1.104,0-2.001,0.897-2,2v4.815h-4.815c-1.104-0.001-2,0.896-2,2s0.895,2,2,2h4.815v4.815
	c-0.001,1.104,0.896,2,2,2c0.552,0,1.052-0.224,1.414-0.586c0.361-0.361,0.586-0.861,0.586-1.414v-4.815l4.815,0
	c0.551,0,1.052-0.224,1.414-0.586c0.361-0.362,0.585-0.862,0.586-1.415c0.001-1.104-0.896-2.001-2-2L162.236,32.849z"/>
<path id="path3792_2_" inkscape:radius="-1.09294" inkscape:original="M 416.53125 503.625 C 409.95868 503.625 404.5 509.29393 404.5 515.46875 C 404.5 518.24668 406.05726 521.78106 407.1875 524.21875 L 416.5 542.09375 L 425.75 524.21875 C 426.88024 521.78106 428.5 518.42346 428.5 515.46875 C 428.5 509.29393 423.10382 503.625 416.53125 503.625 z M 416.53125 510.78125 C 419.11574 510.79795 421.21875 512.88037 421.21875 515.46875 C 421.21875 518.05715 419.11574 520.13969 416.53125 520.15625 C 413.94676 520.13975 411.875 518.05715 411.875 515.46875 C 411.875 512.88038 413.94676 510.79802 416.53125 510.78125 z " sodipodi:type="inkscape:offset" inkscape:export-ydpi="180" inkscape:export-xdpi="180" inkscape:export-filename="C:\Users\dave.STK\Desktop\git\Leaflet\Leaflet\dist\images\marker-icon@2x.png" fill="none" stroke="#FFFFFF" stroke-width="1.1" stroke-linecap="round" stroke-opacity="0.1216" d="
	M160.176,23.093c-5.944,0-10.938,5.221-10.938,10.75c0,2.359,1.442,5.832,2.562,8.25c0.005,0.012,0.025,0.021,0.03,0.031
	l8.313,15.969l8.25-15.969c0.005-0.012,0.025-0.02,0.03-0.031c1.136-2.448,2.625-5.706,2.625-8.25
	C171.05,28.306,166.119,23.093,160.176,23.093L160.176,23.093z M158.053,25.85c-0.586,0.586-0.908,1.365-0.908,2.194l0.001,3.714
	l-3.716-0.001c-0.827,0-1.606,0.322-2.192,0.908c-0.586,0.585-0.908,1.365-0.906,2.193c-0.001,0.828,0.321,1.606,0.906,2.191
	c0.586,0.585,1.365,0.908,2.193,0.908l3.714-0.001l0.001,3.716c-0.001,0.826,0.321,1.605,0.907,2.191s1.365,0.908,2.191,0.907
	c0.828,0.001,1.606-0.322,2.191-0.907c0.587-0.587,0.909-1.365,0.909-2.193l0.001-3.713l3.714-0.001
	c0.827,0,1.605-0.322,2.191-0.908s0.909-1.365,0.908-2.192c0.002-0.827-0.322-1.606-0.907-2.191s-1.364-0.909-2.191-0.907l-3.717,0
	l0.002-3.715c0-0.828-0.323-1.607-0.908-2.192c-0.586-0.585-1.364-0.908-2.193-0.908C159.418,24.941,158.639,25.264,158.053,25.85
	L158.053,25.85z"/>
<rect id="rect3771_7_" x="147.645" y="20.958" inkscape:export-ydpi="180" inkscape:export-xdpi="180" inkscape:export-filename="C:\Users\dave.STK\Desktop\git\Leaflet\Leaflet\dist\images\marker-icon@2x.png" display="none" fill="#FFFFFF" fill-opacity="0" width="25" height="41.001">
</rect>
<rect id="rect3771_2_" x="54.109" y="20.958" inkscape:export-ydpi="180" inkscape:export-xdpi="180" inkscape:export-filename="C:\Users\dave.STK\Desktop\git\Leaflet\Leaflet\dist\images\marker-icon@2x.png" display="none" fill="#FFFFFF" fill-opacity="0" width="25" height="41.001">
</rect>
<rect id="rect3771_5_" x="94.26" y="20.958" inkscape:export-ydpi="180" inkscape:export-xdpi="180" inkscape:export-filename="C:\Users\dave.STK\Desktop\git\Leaflet\Leaflet\dist\images\marker-icon@2x.png" display="none" fill="#FFFFFF" fill-opacity="0" width="25" height="41.001">
</rect>
</svg>
