<?xml version="1.0" encoding="UTF-8" standalone="no"?>
<!-- Created with Inkscape (http://www.inkscape.org/) -->

<svg
   xmlns:dc="http://purl.org/dc/elements/1.1/"
   xmlns:cc="http://creativecommons.org/ns#"
   xmlns:rdf="http://www.w3.org/1999/02/22-rdf-syntax-ns#"
   xmlns:svg="http://www.w3.org/2000/svg"
   xmlns="http://www.w3.org/2000/svg"
   xmlns:sodipodi="http://sodipodi.sourceforge.net/DTD/sodipodi-0.dtd"
   xmlns:inkscape="http://www.inkscape.org/namespaces/inkscape"
   id="svg3864"
   version="1.1"
   inkscape:version="0.48.2 r9819"
   width="12"
   height="12"
   sodipodi:docname="notice.svg"
   inkscape:export-filename="/Users/saman/work_repos/openstreetmap-website/app/assets/images/notice.png"
   inkscape:export-xdpi="90"
   inkscape:export-ydpi="90">
  <metadata
     id="metadata3870">
    <rdf:RDF>
      <cc:Work
         rdf:about="">
        <dc:format>image/svg+xml</dc:format>
        <dc:type
           rdf:resource="http://purl.org/dc/dcmitype/StillImage" />
        <dc:title></dc:title>
      </cc:Work>
    </rdf:RDF>
  </metadata>
  <defs
     id="defs3868" />
  <sodipodi:namedview
     pagecolor="#ffffff"
     bordercolor="#666666"
     borderopacity="1"
     objecttolerance="10"
     gridtolerance="10"
     guidetolerance="10"
     inkscape:pageopacity="0"
     inkscape:pageshadow="2"
     inkscape:window-width="1405"
     inkscape:window-height="1009"
     id="namedview3866"
     showgrid="true"
     inkscape:zoom="32"
     inkscape:cx="4.2980556"
     inkscape:cy="7.1892696"
     inkscape:window-x="127"
     inkscape:window-y="0"
     inkscape:window-maximized="0"
     inkscape:current-layer="svg3864"
     fit-margin-top="0"
     fit-margin-left="0"
     fit-margin-right="0"
     fit-margin-bottom="0"
     inkscape:snap-bbox="true"
     inkscape:snap-nodes="false">
    <inkscape:grid
       type="xygrid"
       id="grid3920"
       empspacing="5"
       visible="true"
       enabled="true"
       snapvisiblegridlinesonly="true" />
  </sodipodi:namedview>
  <path
     style="color:#000000;fill:#333333;fill-opacity:1;fill-rule:nonzero;stroke:none;stroke-width:1;marker:none;visibility:visible;display:inline;overflow:visible;enable-background:accumulate"
     d="M 2 0 C 0.892 0 0 0.892 0 2 L 0 10 C 0 11.108 0.892 12 2 12 L 10 12 C 11.108 12 12 11.108 12 10 L 12 2 C 12 0.892 11.108 0 10 0 L 2 0 z M 6 2 C 6.554 2 7 2.446 7 3 L 7 6 C 7 6.554 6.554 7 6 7 C 5.446 7 5 6.554 5 6 L 5 3 C 5 2.446 5.446 2 6 2 z M 6 8 C 6.554 8 7 8.446 7 9 C 7 9.554 6.554 10 6 10 C 5.446 10 5 9.554 5 9 C 5 8.446 5.446 8 6 8 z "
     id="rect3924-5" />
</svg>
