<svg xmlns="http://www.w3.org/2000/svg" width="256" height="256" xmlns:xlink="http://www.w3.org/1999/xlink">
  <defs>
    <linearGradient id="L">
      <stop offset="0"/>
      <stop offset="1" stop-opacity="0"/>
    </linearGradient>
    <linearGradient id="s">
      <stop offset="0" stop-color="#fff"/>
      <stop offset=".5" stop-color="#fff" stop-opacity=".931"/>
      <stop offset="1" stop-color="#fff" stop-opacity="0"/>
    </linearGradient>
    <linearGradient id="v">
      <stop offset="0" stop-color="#fff"/>
      <stop offset="1" stop-color="#fff" stop-opacity="0"/>
    </linearGradient>
    <linearGradient id="h">
      <stop offset="0" stop-color="#f9e295"/>
      <stop offset=".125" stop-color="#f7dd84"/>
      <stop offset=".206" stop-color="#fff"/>
      <stop offset=".301" stop-color="#f4ce51"/>
      <stop offset=".341" stop-color="#f9e7aa"/>
      <stop offset="1" stop-color="#efbb0e"/>
    </linearGradient>
    <linearGradient id="e">
      <stop offset="0" stop-color="#2d3335"/>
      <stop offset=".5" stop-color="#4c464a"/>
      <stop offset="1" stop-color="#384042"/>
    </linearGradient>
    <linearGradient id="d">
      <stop offset="0" stop-color="#d0e9f2" stop-opacity="0"/>
      <stop offset=".839" stop-color="#d0e9f2" stop-opacity="0"/>
      <stop offset=".943" stop-color="#d0e9f2" stop-opacity=".282"/>
      <stop offset="1" stop-color="#d0e9f2"/>
    </linearGradient>
    <linearGradient id="c">
      <stop offset="0"/>
      <stop offset="1" stop-opacity="0"/>
    </linearGradient>
    <linearGradient id="ac" x1="94.25" x2="9" y1="-94.672" y2="-179.969" xlink:href="#a" gradientUnits="userSpaceOnUse"/>
    <linearGradient id="a">
      <stop offset="0"/>
      <stop offset="1" stop-opacity="0"/>
    </linearGradient>
    <linearGradient id="ad" x1="50.75" x2="35.75" y1="-114.438" y2="-30.438" xlink:href="#a" gradientUnits="userSpaceOnUse"/>
    <linearGradient id="ae" x1="77.625" x2="115.25" y1="-163.125" y2="-74.625" xlink:href="#a" gradientUnits="userSpaceOnUse"/>
    <linearGradient id="af" x1="56.5" x2="125.719" y1="-50.438" y2="7.063" xlink:href="#a" gradientUnits="userSpaceOnUse"/>
    <linearGradient id="ag" x1="35" x2="180.75" y1="-163.297" y2="-146.797" xlink:href="#a" gradientUnits="userSpaceOnUse"/>
    <linearGradient id="ah" x1="57" x2="179" y1="-141.109" y2="-41.609" xlink:href="#a" gradientUnits="userSpaceOnUse"/>
    <linearGradient id="ai" x1="156" x2="208.25" y1="-26.5" y2="39.75" xlink:href="#a" gradientUnits="userSpaceOnUse"/>
    <linearGradient id="aj" x1="142.75" x2="235" y1="-169.297" y2="-77.297" xlink:href="#a" gradientUnits="userSpaceOnUse"/>
    <linearGradient id="U" x1="214.25" x2="166.5" y1="-161.359" y2="-113.719" xlink:href="#b" gradientUnits="userSpaceOnUse"/>
    <linearGradient id="b">
      <stop offset="0" stop-color="#fff"/>
      <stop offset="1" stop-color="#fff" stop-opacity="0"/>
    </linearGradient>
    <linearGradient id="V" x1="53.25" x2="57.656" y1="-126.5" y2="-62.469" xlink:href="#b" gradientUnits="userSpaceOnUse"/>
    <linearGradient id="W" x1="39.5" x2="75.719" y1="6.625" y2="-17.125" xlink:href="#b" gradientUnits="userSpaceOnUse"/>
    <linearGradient id="X" x1="102" x2="85.313" y1="-162.344" y2="-121.438" xlink:href="#b" gradientUnits="userSpaceOnUse"/>
    <linearGradient id="Y" x1="117.75" x2="63.5" y1="-78.094" y2="-14.75" xlink:href="#b" gradientUnits="userSpaceOnUse"/>
    <linearGradient id="Z" x1="180.687" x2="133.937" y1="-125.125" y2="-60.75" xlink:href="#b" gradientUnits="userSpaceOnUse"/>
    <linearGradient id="aa" x1="170.75" x2="130.219" y1="-23.5" y2="33.375" xlink:href="#b" gradientUnits="userSpaceOnUse"/>
    <linearGradient id="ab" x1="213.5" x2="181.75" y1="-76" y2="-5.656" gradientUnits="userSpaceOnUse" xlink:href="#b"/>
    <linearGradient id="T" x1="210.172" x2="9" y1="72.064" y2="-213.253" xlink:href="#c" gradientUnits="userSpaceOnUse" gradientTransform="translate(0 -10)"/>
    <clipPath id="R">
      <path fill="#ceeeab" d="M9 12.25s7.5 13 11.75 27.75S27 65.5 27 65.5s-5.5 12.75-8.25 24.75-5.75 23-5.75 23 5.75 16 9.25 30S26 167.5 26 167.5s-4 10.25-7.5 24.25-5 30.75-5 30.75 9.25-2 28.5 1.25 32.25 6 32.25 6 12.75-2.75 24-6.25 16.25-6.5 16.25-6.5 5.5.5 22.5 6.25 29.25 8.5 29.25 8.5 13-2.75 26-5.75 26.5-8 26.5-8-.75-5 4.25-24.5 8.75-28 8.75-28-.5-4.5-3.75-19.75S218 116 218 116s1.75-10.5 6.75-23.75S235 65.5 235 65.5s-4.75-15.25-7.5-29.75S219.25 10 219.25 10 195 19 187.5 20.5s-21 5.25-21 5.25-9.75-4.25-22-8.5-29.75-5.5-29.75-5.5-3.25 3.5-22 8-27.5 5.75-27.5 5.75-18.5-9-31.5-11.5-24-2-24.75-1.75z"/>
    </clipPath>
    <clipPath id="S">
      <path fill="#ceeeab" d="M9 12.25s7.5 13 11.75 27.75S27 65.5 27 65.5s-5.5 12.75-8.25 24.75-5.75 23-5.75 23 5.75 16 9.25 30S26 167.5 26 167.5s-4 10.25-7.5 24.25-5 30.75-5 30.75 9.25-2 28.5 1.25 32.25 6 32.25 6 12.75-2.75 24-6.25 16.25-6.5 16.25-6.5 5.5.5 22.5 6.25 29.25 8.5 29.25 8.5 13-2.75 26-5.75 26.5-8 26.5-8-.75-5 4.25-24.5 8.75-28 8.75-28-.5-4.5-3.75-19.75S218 116 218 116s1.75-10.5 6.75-23.75S235 65.5 235 65.5s-4.75-15.25-7.5-29.75S219.25 10 219.25 10 195 19 187.5 20.5s-21 5.25-21 5.25-9.75-4.25-22-8.5-29.75-5.5-29.75-5.5-3.25 3.5-22 8-27.5 5.75-27.5 5.75-18.5-9-31.5-11.5-24-2-24.75-1.75z"/>
    </clipPath>
    <clipPath id="Q">
      <path fill="#ceeeab" d="M9 12.25s7.5 13 11.75 27.75S27 65.5 27 65.5s-5.5 12.75-8.25 24.75-5.75 23-5.75 23 5.75 16 9.25 30S26 167.5 26 167.5s-4 10.25-7.5 24.25-5 30.75-5 30.75 9.25-2 28.5 1.25 32.25 6 32.25 6 12.75-2.75 24-6.25 16.25-6.5 16.25-6.5 5.5.5 22.5 6.25 29.25 8.5 29.25 8.5 13-2.75 26-5.75 26.5-8 26.5-8-.75-5 4.25-24.5 8.75-28 8.75-28-.5-4.5-3.75-19.75S218 116 218 116s1.75-10.5 6.75-23.75S235 65.5 235 65.5s-4.75-15.25-7.5-29.75S219.25 10 219.25 10 195 19 187.5 20.5s-21 5.25-21 5.25-9.75-4.25-22-8.5-29.75-5.5-29.75-5.5-3.25 3.5-22 8-27.5 5.75-27.5 5.75-18.5-9-31.5-11.5-24-2-24.75-1.75z"/>
    </clipPath>
    <radialGradient id="aI" cx="128" cy="86" r="47" xlink:href="#d" fx="128" fy="86" gradientUnits="userSpaceOnUse" gradientTransform="matrix(1.02 0 0 -1.02 -212.72 173.83)"/>
    <linearGradient id="aK" x1="123" x2="133" y1="150.375" y2="150.375" xlink:href="#e" gradientUnits="userSpaceOnUse" gradientTransform="matrix(-1 0 0 1 46 0)"/>
    <linearGradient id="aJ" x1="128" x2="130.875" y1="134.359" y2="143.359" xlink:href="#e" gradientUnits="userSpaceOnUse" gradientTransform="translate(-210)"/>
    <linearGradient id="f">
      <stop offset="0" stop-color="#2d3335"/>
      <stop offset=".5" stop-color="#4c464a"/>
      <stop offset="1" stop-color="#384042"/>
    </linearGradient>
    <linearGradient id="aM" x1="123" x2="133" y1="150.375" y2="150.375" gradientTransform="matrix(-2 0 0 1.77 174 -86.65)" gradientUnits="userSpaceOnUse" xlink:href="#f"/>
    <linearGradient id="g">
      <stop offset="0" stop-color="#2d3335"/>
      <stop offset=".5" stop-color="#4c464a"/>
      <stop offset="1" stop-color="#384042"/>
    </linearGradient>
    <linearGradient id="aL" x1="120" x2="136" y1="186.5" y2="186.5" xlink:href="#h" gradientUnits="userSpaceOnUse" gradientTransform="translate(-210)"/>
    <linearGradient id="i">
      <stop offset="0" stop-color="#f9e295"/>
      <stop offset=".125" stop-color="#f7dd84"/>
      <stop offset=".206" stop-color="#fff"/>
      <stop offset=".301" stop-color="#f4ce51"/>
      <stop offset=".341" stop-color="#f9e7aa"/>
      <stop offset="1" stop-color="#efbb0e"/>
    </linearGradient>
    <linearGradient id="aN" x1="120" x2="136" y1="186.5" y2="186.5" gradientUnits="userSpaceOnUse" xlink:href="#i" gradientTransform="translate(-210 67)"/>
    <linearGradient id="j">
      <stop offset="0" stop-color="#f9e295"/>
      <stop offset=".125" stop-color="#f7dd84"/>
      <stop offset=".206" stop-color="#fff"/>
      <stop offset=".301" stop-color="#f4ce51"/>
      <stop offset=".341" stop-color="#f9e7aa"/>
      <stop offset="1" stop-color="#efbb0e"/>
    </linearGradient>
    <linearGradient id="k">
      <stop offset="0" stop-color="#f9e295"/>
      <stop offset=".125" stop-color="#f7dd84"/>
      <stop offset=".206" stop-color="#fff"/>
      <stop offset=".301" stop-color="#f4ce51"/>
      <stop offset=".341" stop-color="#f9e7aa"/>
      <stop offset="1" stop-color="#efbb0e"/>
    </linearGradient>
    <linearGradient id="l">
      <stop offset="0" stop-color="#f9e295"/>
      <stop offset=".125" stop-color="#f7dd84"/>
      <stop offset=".206" stop-color="#fff"/>
      <stop offset=".301" stop-color="#f4ce51"/>
      <stop offset=".341" stop-color="#f9e7aa"/>
      <stop offset="1" stop-color="#efbb0e"/>
    </linearGradient>
    <linearGradient id="q">
      <stop offset="0" stop-color="#d0e9f2" stop-opacity="0"/>
      <stop offset=".839" stop-color="#d0e9f2" stop-opacity="0"/>
      <stop offset=".943" stop-color="#d0e9f2" stop-opacity=".282"/>
      <stop offset="1" stop-color="#d0e9f2"/>
    </linearGradient>
    <linearGradient id="p">
      <stop offset="0" stop-color="#2d3335"/>
      <stop offset=".5" stop-color="#4c464a"/>
      <stop offset="1" stop-color="#384042"/>
    </linearGradient>
    <linearGradient id="o">
      <stop offset="0" stop-color="#f9e295"/>
      <stop offset=".125" stop-color="#f7dd84"/>
      <stop offset=".206" stop-color="#fff"/>
      <stop offset=".301" stop-color="#f4ce51"/>
      <stop offset=".341" stop-color="#f9e7aa"/>
      <stop offset="1" stop-color="#efbb0e"/>
    </linearGradient>
    <linearGradient id="n">
      <stop offset="0" stop-color="#2d3335"/>
      <stop offset=".5" stop-color="#4c464a"/>
      <stop offset="1" stop-color="#384042"/>
    </linearGradient>
    <linearGradient id="m">
      <stop offset="0" stop-color="#f9e295"/>
      <stop offset=".125" stop-color="#f7dd84"/>
      <stop offset=".206" stop-color="#fff"/>
      <stop offset=".301" stop-color="#f4ce51"/>
      <stop offset=".341" stop-color="#f9e7aa"/>
      <stop offset="1" stop-color="#efbb0e"/>
    </linearGradient>
    <linearGradient id="aH" x1="120" x2="136" y1="186.5" y2="186.5" xlink:href="#m" gradientUnits="userSpaceOnUse" gradientTransform="rotate(44.92 104.81 51.4) scale(1.4)"/>
    <linearGradient id="aS" x1="123" x2="133" y1="150.375" y2="150.375" xlink:href="#n" gradientUnits="userSpaceOnUse" gradientTransform="matrix(-1.97 -1.97 -1.74 1.74 596.19 167.51)"/>
    <linearGradient id="aR" x1="120" x2="136" y1="186.5" y2="186.5" xlink:href="#o" gradientUnits="userSpaceOnUse" gradientTransform="rotate(44.92 217.23 98.19) scale(1.4)"/>
    <linearGradient id="aQ" x1="123" x2="133" y1="150.375" y2="150.375" xlink:href="#p" gradientUnits="userSpaceOnUse" gradientTransform="scale(1.4) rotate(-135 157.13 -11.72)"/>
    <linearGradient id="aP" x1="128" x2="130.875" y1="134.359" y2="143.359" xlink:href="#p" gradientUnits="userSpaceOnUse" gradientTransform="rotate(44.92 217.23 98.19) scale(1.4)"/>
    <radialGradient id="aO" cx="128" cy="86" r="47" xlink:href="#q" gradientUnits="userSpaceOnUse" gradientTransform="matrix(1 1 1 -1 -40.84 43.25)" fx="128" fy="86"/>
    <linearGradient id="r">
      <stop offset="0" stop-color="#2d3335"/>
      <stop offset=".5" stop-color="#4c464a"/>
      <stop offset="1" stop-color="#384042"/>
    </linearGradient>
    <linearGradient id="aT" x1="108.003" x2="133" y1="167.727" y2="150.375" gradientTransform="matrix(-1.97 -1.97 -1.74 1.74 596.19 167.51)" gradientUnits="userSpaceOnUse" xlink:href="#c"/>
    <radialGradient id="aW" cx="159.613" cy="72.588" r="38.417" xlink:href="#s" fx="159.613" fy="72.588" gradientTransform="matrix(1.2 0 0 .84 -46.35 24.53)" gradientUnits="userSpaceOnUse"/>
    <linearGradient id="t">
      <stop offset="0" stop-color="#fff"/>
      <stop offset="1" stop-color="#fff" stop-opacity="0"/>
    </linearGradient>
    <radialGradient id="aV" cx="159.613" cy="72.588" r="38.417" fy="72.588" fx="159.613" gradientTransform="matrix(1.2 0 0 .84 -45.92 25.81)" gradientUnits="userSpaceOnUse" xlink:href="#t"/>
    <linearGradient id="u">
      <stop offset="0" stop-color="#d0e9f2" stop-opacity="0"/>
      <stop offset=".839" stop-color="#d0e9f2" stop-opacity="0"/>
      <stop offset=".943" stop-color="#d0e9f2" stop-opacity=".282"/>
      <stop offset="1" stop-color="#d0e9f2"/>
    </linearGradient>
    <linearGradient id="aU" x1="126.643" x2="179.961" y1="29.815" y2="137.196" xlink:href="#v" gradientUnits="userSpaceOnUse" gradientTransform="translate(0 -10)"/>
    <linearGradient id="w">
      <stop offset="0" stop-color="#fff"/>
      <stop offset="1" stop-color="#fff" stop-opacity="0"/>
    </linearGradient>
    <linearGradient id="aX" x1="126.643" x2="179.961" y1="29.815" y2="137.196" gradientTransform="matrix(-.5 .2 .2 -.43 276.16 123.42)" gradientUnits="userSpaceOnUse" xlink:href="#w"/>
    <linearGradient id="x">
      <stop offset="0" stop-color="#fff"/>
      <stop offset="1" stop-color="#fff" stop-opacity="0"/>
    </linearGradient>
    <linearGradient id="y">
      <stop offset="0" stop-color="#fff"/>
      <stop offset="1" stop-color="#fff" stop-opacity="0"/>
    </linearGradient>
    <linearGradient id="z">
      <stop offset="0" stop-color="#fff"/>
      <stop offset="1" stop-color="#fff" stop-opacity="0"/>
    </linearGradient>
    <linearGradient id="A">
      <stop offset="0" stop-color="#fff"/>
      <stop offset=".5" stop-color="#fff" stop-opacity=".931"/>
      <stop offset="1" stop-color="#fff" stop-opacity="0"/>
    </linearGradient>
    <linearGradient id="B">
      <stop offset="0" stop-color="#fff"/>
      <stop offset="1" stop-color="#fff" stop-opacity="0"/>
    </linearGradient>
    <filter id="aG">
      <feGaussianBlur stdDeviation="4.287"/>
    </filter>
    <linearGradient id="C">
      <stop offset="0"/>
      <stop offset="1" stop-opacity="0"/>
    </linearGradient>
    <linearGradient id="D">
      <stop offset="0"/>
      <stop offset="1" stop-opacity="0"/>
    </linearGradient>
    <linearGradient id="E">
      <stop offset="0"/>
      <stop offset="1" stop-opacity="0"/>
    </linearGradient>
    <clipPath id="al">
      <path fill="#ceeeab" d="M9 12.25s7.5 13 11.75 27.75S27 65.5 27 65.5s-5.5 12.75-8.25 24.75-5.75 23-5.75 23 5.75 16 9.25 30S26 167.5 26 167.5s-4 10.25-7.5 24.25-5 30.75-5 30.75 9.25-2 28.5 1.25 32.25 6 32.25 6 12.75-2.75 24-6.25 16.25-6.5 16.25-6.5 5.5.5 22.5 6.25 29.25 8.5 29.25 8.5 13-2.75 26-5.75 26.5-8 26.5-8-.75-5 4.25-24.5 8.75-28 8.75-28-.5-4.5-3.75-19.75S218 116 218 116s1.75-10.5 6.75-23.75S235 65.5 235 65.5s-4.75-15.25-7.5-29.75S219.25 10 219.25 10 195 19 187.5 20.5s-21 5.25-21 5.25-9.75-4.25-22-8.5-29.75-5.5-29.75-5.5-3.25 3.5-22 8-27.5 5.75-27.5 5.75-18.5-9-31.5-11.5-24-2-24.75-1.75z"/>
    </clipPath>
    <clipPath id="am">
      <path fill="#ceeeab" d="M9 12.25s7.5 13 11.75 27.75S27 65.5 27 65.5s-5.5 12.75-8.25 24.75-5.75 23-5.75 23 5.75 16 9.25 30S26 167.5 26 167.5s-4 10.25-7.5 24.25-5 30.75-5 30.75 9.25-2 28.5 1.25 32.25 6 32.25 6 12.75-2.75 24-6.25 16.25-6.5 16.25-6.5 5.5.5 22.5 6.25 29.25 8.5 29.25 8.5 13-2.75 26-5.75 26.5-8 26.5-8-.75-5 4.25-24.5 8.75-28 8.75-28-.5-4.5-3.75-19.75S218 116 218 116s1.75-10.5 6.75-23.75S235 65.5 235 65.5s-4.75-15.25-7.5-29.75S219.25 10 219.25 10 195 19 187.5 20.5s-21 5.25-21 5.25-9.75-4.25-22-8.5-29.75-5.5-29.75-5.5-3.25 3.5-22 8-27.5 5.75-27.5 5.75-18.5-9-31.5-11.5-24-2-24.75-1.75z"/>
    </clipPath>
    <clipPath id="an">
      <path fill="#ceeeab" d="M9 12.25s7.5 13 11.75 27.75S27 65.5 27 65.5s-5.5 12.75-8.25 24.75-5.75 23-5.75 23 5.75 16 9.25 30S26 167.5 26 167.5s-4 10.25-7.5 24.25-5 30.75-5 30.75 9.25-2 28.5 1.25 32.25 6 32.25 6 12.75-2.75 24-6.25 16.25-6.5 16.25-6.5 5.5.5 22.5 6.25 29.25 8.5 29.25 8.5 13-2.75 26-5.75 26.5-8 26.5-8-.75-5 4.25-24.5 8.75-28 8.75-28-.5-4.5-3.75-19.75S218 116 218 116s1.75-10.5 6.75-23.75S235 65.5 235 65.5s-4.75-15.25-7.5-29.75S219.25 10 219.25 10 195 19 187.5 20.5s-21 5.25-21 5.25-9.75-4.25-22-8.5-29.75-5.5-29.75-5.5-3.25 3.5-22 8-27.5 5.75-27.5 5.75-18.5-9-31.5-11.5-24-2-24.75-1.75z"/>
    </clipPath>
    <linearGradient id="ao" x1="210.172" x2="9" y1="72.064" y2="-213.253" gradientTransform="translate(0 192)" xlink:href="#F" gradientUnits="userSpaceOnUse"/>
    <linearGradient id="F">
      <stop offset="0"/>
      <stop offset="1" stop-opacity="0"/>
    </linearGradient>
    <linearGradient id="ap" x1="214.25" x2="166.5" y1="-161.359" y2="-113.719" xlink:href="#G" gradientUnits="userSpaceOnUse"/>
    <linearGradient id="G">
      <stop offset="0" stop-color="#fff"/>
      <stop offset="1" stop-color="#fff" stop-opacity="0"/>
    </linearGradient>
    <linearGradient id="aq" x1="53.25" x2="57.656" y1="-126.5" y2="-62.469" xlink:href="#G" gradientUnits="userSpaceOnUse"/>
    <linearGradient id="ar" x1="39.5" x2="75.719" y1="6.625" y2="-17.125" xlink:href="#G" gradientUnits="userSpaceOnUse"/>
    <linearGradient id="as" x1="102" x2="85.313" y1="-162.344" y2="-121.438" xlink:href="#G" gradientUnits="userSpaceOnUse"/>
    <linearGradient id="at" x1="117.75" x2="63.5" y1="-78.094" y2="-14.75" xlink:href="#G" gradientUnits="userSpaceOnUse"/>
    <linearGradient id="au" x1="180.687" x2="133.937" y1="-125.125" y2="-60.75" xlink:href="#G" gradientUnits="userSpaceOnUse"/>
    <linearGradient id="av" x1="170.75" x2="130.219" y1="-23.5" y2="33.375" xlink:href="#G" gradientUnits="userSpaceOnUse"/>
    <linearGradient id="aw" x1="213.5" x2="181.75" y1="-76" y2="-5.656" gradientUnits="userSpaceOnUse" xlink:href="#G"/>
    <linearGradient id="ax" x1="94.25" x2="9" y1="-94.672" y2="-179.969" xlink:href="#H" gradientUnits="userSpaceOnUse"/>
    <linearGradient id="H">
      <stop offset="0"/>
      <stop offset="1" stop-opacity="0"/>
    </linearGradient>
    <linearGradient id="ay" x1="50.75" x2="35.75" y1="-114.438" y2="-30.438" xlink:href="#H" gradientUnits="userSpaceOnUse"/>
    <linearGradient id="az" x1="77.625" x2="115.25" y1="-163.125" y2="-74.625" xlink:href="#H" gradientUnits="userSpaceOnUse"/>
    <linearGradient id="aA" x1="56.5" x2="125.719" y1="-50.438" y2="7.063" xlink:href="#H" gradientUnits="userSpaceOnUse"/>
    <linearGradient id="aB" x1="35" x2="180.75" y1="-163.297" y2="-146.797" xlink:href="#H" gradientUnits="userSpaceOnUse"/>
    <linearGradient id="aC" x1="57" x2="179" y1="-141.109" y2="-41.609" xlink:href="#H" gradientUnits="userSpaceOnUse"/>
    <linearGradient id="aD" x1="156" x2="208.25" y1="-26.5" y2="39.75" xlink:href="#H" gradientUnits="userSpaceOnUse"/>
    <linearGradient id="aE" x1="142.75" x2="235" y1="-169.297" y2="-77.297" xlink:href="#H" gradientUnits="userSpaceOnUse"/>
    <linearGradient id="I">
      <stop offset="0" stop-color="#d0e9f2" stop-opacity="0"/>
      <stop offset=".839" stop-color="#d0e9f2" stop-opacity="0"/>
      <stop offset=".943" stop-color="#d0e9f2" stop-opacity=".282"/>
      <stop offset="1" stop-color="#d0e9f2"/>
    </linearGradient>
    <clipPath id="ak">
      <path fill="url(#J)" d="M123.623 141.062c20.832 20.243 54.607 19.29 75.44-2.132 20.83-21.42 20.83-55.196 0-75.44-20.833-20.242-54.608-19.288-75.44 2.133-20.832 21.42-20.832 55.196 0 75.44z"/>
    </clipPath>
    <radialGradient id="J" cx="128" cy="86" r="47" xlink:href="#I" gradientUnits="userSpaceOnUse" gradientTransform="matrix(.8 .78 .8 -.83 -10.4 73.42)" fx="128" fy="86"/>
    <filter id="N">
      <feGaussianBlur stdDeviation="6.311"/>
    </filter>
    <linearGradient id="K">
      <stop offset="0"/>
      <stop offset="1" stop-opacity="0"/>
    </linearGradient>
    <filter id="P">
      <feGaussianBlur stdDeviation="4.457"/>
    </filter>
    <linearGradient id="O" x1="122" x2="122" y1="245.448" y2="4.302" xlink:href="#L" gradientUnits="userSpaceOnUse"/>
    <clipPath id="aF">
      <path fill="url(#M)" d="M9 22.578s7.5 12.394 11.75 26.8S27 74.373 27 74.373s-5.5 13.194-8.25 25.417C16 112.012 13 123.255 13 123.255s5.75 15.535 9.25 29.252c3.5 13.717 3.75 23.946 3.75 23.946s-4 10.574-7.5 24.857-5 31.154-5 31.154 9.25-2.748 28.5-1.055c19.25 1.693 32.25 3.39 32.25 3.39s12.75-3.78 24-8.19 16.25-7.814 16.25-7.814 5.5.055 22.5 4.43 29.25 6.134 29.25 6.134 13-3.8 26-7.852c13-4.052 26.5-10.144 26.5-10.144s-.75-4.94 4.25-24.843c5-19.904 8.75-28.707 8.75-28.707s-.514-4.455-3.75-19.447c-1.75-8.108-2.25-4.068-2.25-4.068s16.264-26.155 16.5-40.334C242.5 78.944 235 57.55 235 57.55s-4.75-14.866-7.5-29.143c-2.75-14.278-8.25-25.083-8.25-25.083S195 14.284 187.5 16.392c-7.5 2.106-21 6.948-21 6.948s-9.75-3.46-22-6.72-29.75-3.094-29.75-3.094-3.25 3.762-22 9.78c-18.75 6.015-27.5 7.973-27.5 7.973s-18.5-7.505-31.5-8.953c-13-1.45-24-.06-24.75.25z" opacity=".039"/>
    </clipPath>
    <linearGradient id="M" x1="210.172" x2="9" y1="72.064" y2="-213.253" xlink:href="#E" gradientUnits="userSpaceOnUse" gradientTransform="matrix(1 -.08 0 1 0 203.06)"/>
  </defs>
  <path fill="#2d3335" d="M174.28 35.875c-17.597 0-35.19 6.64-48.718 19.906-.167.165-.334.304-.5.47-22.055 22.056-26.208 55.25-12.468 81.5l-2.28 1.625c2.247 4.24 4.94 8.307 8.092 12.125l-13.312 13.344c-1.342-.586-2.79-1.034-4.563-1.375l-2.843 2.843c-1.11-.484-2.138-.816-3.062-.875L30.5 229.563c-.037 1.1.226 2.187.656 3.28l-.53.532-1.095 1.094c.717 3.737 2.012 6.822 5.47 10.28 3.458 3.458 6.42 4.63 10.28 5.47l1.095-1.095.72-.72c1.087.464 2.13.787 3.093.845l64.124-64.125c-.242-.975-.62-1.935-1.03-2.906l3-3c-.25-1.733-.677-3.2-1.313-4.595l13.28-13.28c3.818 3.15 7.885 5.844 12.125 8.093l1.625-2.282c26.25 13.74 59.444 9.587 81.5-12.47.166-.164.305-.33.47-.5 26.693-27.215 26.547-70.92-.47-97.936-13.59-13.59-31.407-20.375-49.22-20.375zm-.5 3.28c.106.003.21 0 .314 0 .95.02 1.895.067 2.844.126.958.062 1.918.15 2.875.25l.28.032c.095.01.188.02.282.032.146.017.292.044.438.062.896.11 1.794.228 2.687.375.62.103 1.227.225 1.844.345.343.066.69.116 1.03.188.725.152 1.437.323 2.157.5.314.076.627.137.94.218.072.02.144.044.218.064.955.253 1.896.516 2.843.812.074.023.148.04.22.063.947.3 1.907.624 2.844.968l.156.062c.955.352 1.902.728 2.844 1.125.05.022.105.04.156.063.942.4 1.885.836 2.813 1.28.042.02.083.043.125.063.935.452 1.862.91 2.78 1.407.034.018.06.045.094.063.927.503 1.842 1.013 2.75 1.563.033.02.062.043.094.062.908.55 1.8 1.122 2.688 1.72.55.368 1.084.768 1.625 1.155.363.26.732.512 1.092.78.02.015.044.02.063.032.878.656 1.74 1.36 2.594 2.063 1.74 1.434 3.43 2.963 5.06 4.594 1.622 1.62 3.137 3.3 4.564 5.03.01.01.022.02.03.03.704.856 1.408 1.716 2.063 2.595.283.38.54.773.813 1.156.37.518.74 1.04 1.094 1.564.016.024.046.038.062.062.598.89 1.167 1.778 1.72 2.688.018.032.042.06.06.094.547.902 1.064 1.83 1.564 2.75.018.032.045.06.062.093.498.922.954 1.845 1.407 2.782l.06.126c.447.93.88 1.868 1.282 2.812.022.05.04.105.063.156.395.936.774 1.895 1.125 2.844.02.053.043.104.062.156.348.95.666 1.885.97 2.844.022.072.04.147.062.22.294.94.56 1.893.812 2.843.02.073.043.145.063.218.08.31.14.628.217.94.177.72.348 1.43.5 2.155.072.342.12.688.188 1.03.12.618.242 1.226.344 1.845.145.893.264 1.79.374 2.688.018.145.045.29.062.437l.03.28c.012.095.022.188.032.282.103.957.19 1.917.25 2.876.06.942.107 1.9.126 2.843 0 .104-.002.21 0 .313.015 1.052.004 2.103-.032 3.155-.03.93-.084 1.853-.156 2.78l-.03.376c-.077.92-.167 1.837-.282 2.75-.12.958-.274 1.925-.438 2.876-.014.083-.017.168-.03.25-.023.125-.04.25-.064.375-.165.91-.358 1.82-.562 2.72-.03.135-.062.272-.094.406-.208.89-.44 1.775-.687 2.656-.165.587-.352 1.168-.533 1.75-.175.565-.34 1.128-.53 1.688-.295.864-.606 1.71-.938 2.563l-.19.468c-.044.114-.078.233-.124.345-.356.88-.728 1.728-1.125 2.594-.376.822-.772 1.625-1.186 2.436-.08.158-.168.312-.25.47-.416.796-.83 1.59-1.282 2.374-.095.166-.184.335-.28.5-.2.34-.42.664-.626 1-.36.59-.742 1.168-1.125 1.75-.004.007.006.024 0 .03-.49.747-1.005 1.49-1.53 2.22-.457.636-.954 1.25-1.438 1.875-.197.254-.36.53-.562.78-.134.17-.27.334-.406.5-.164.202-.334.396-.5.595-.557.667-1.13 1.318-1.72 1.97-.605.67-1.234 1.346-1.874 2-.16.163-.306.336-.47.5-21.13 21.13-52.257 24.494-77.186 11.155l.125-.188c-3.705-1.896-7.263-4.14-10.626-6.78-.54-.424-1.066-.87-1.594-1.313-.514-.43-1.027-.863-1.53-1.313-.094-.082-.19-.165-.283-.25-.82-.747-1.61-1.517-2.406-2.31-.793-.796-1.564-1.586-2.31-2.408-.085-.092-.168-.188-.25-.28-.45-.505-.883-1.018-1.314-1.532-.442-.528-.89-1.055-1.312-1.594-2.64-3.363-4.885-6.92-6.782-10.625l-.187.126c-13.34-24.93-9.974-56.057 11.156-77.187.164-.164.337-.31.5-.47.654-.64 1.33-1.27 2-1.875.652-.588 1.303-1.162 1.97-1.72.272-.226.538-.464.812-.686.344-.28.716-.513 1.063-.783.624-.483 1.24-.98 1.875-1.437.737-.53 1.497-1.036 2.25-1.53.582-.384 1.16-.765 1.75-1.126.447-.274.892-.55 1.344-.813.68-.394 1.37-.756 2.062-1.124.176-.093.355-.19.53-.28.947-.492 1.883-.967 2.845-1.407.867-.398 1.716-.77 2.595-1.126.153-.062.316-.096.47-.157.967-.384 1.923-.758 2.905-1.093.56-.192 1.123-.356 1.687-.532.583-.18 1.164-.367 1.75-.53.882-.247 1.768-.48 2.657-.688.07-.017.147-.015.218-.032.416-.095.833-.193 1.25-.28.673-.142 1.356-.288 2.032-.407.082-.015.167-.017.25-.03.95-.165 1.918-.318 2.875-.44 1.962-.246 3.93-.4 5.905-.468 1.052-.035 2.103-.046 3.156-.03z" transform="matrix(1 .07 0 .85 0 26.91)" opacity=".7" filter="url(#N)"/>
  <path fill="url(#O)" d="M9 17.25s7.5 11 11.75 25.75S27 68.5 27 68.5s-5.5 12.75-8.25 24.75-5.75 25-5.75 25 5.75 16 9.25 30S26 170.5 26 170.5s-4 10.25-7.5 24.25-5 30.75-5 30.75 9.25-2 28.5 1.25 32.25 6 32.25 6 12.75-2.75 24-6.25 16.25-6.5 16.25-6.5 5.5.5 22.5 6.25 29.25 8.5 29.25 8.5 13-2.75 26-5.75 26.5-8 26.5-8-.75-5 4.25-24.5 8.75-28 8.75-28-.5-2.5-3.75-17.75S218 121 218 121s1.75-12.5 6.75-25.75S235 68.5 235 68.5s-4.75-15.25-7.5-29.75S219.25 15 219.25 15 195 24 187.5 25.5s-21 5.25-21 5.25-9.75-4.25-22-8.5-29.75-5.5-29.75-5.5-3.25 3.5-22 8-27.5 5.75-27.5 5.75-18.5-9-31.5-11.5-24-2-24.75-1.75z" transform="matrix(1 0 0 .85 0 27.66)" opacity=".5" filter="url(#P)"/>
  <path fill="#ceeeab" d="M9 2.25s7.5 13 11.75 27.75S27 55.5 27 55.5s-5.5 12.75-8.25 24.75-5.75 23-5.75 23 5.75 16 9.25 30S26 157.5 26 157.5s-4 10.25-7.5 24.25-5 30.75-5 30.75 9.25-2 28.5 1.25 32.25 6 32.25 6 12.75-2.75 24-6.25 16.25-6.5 16.25-6.5 5.5.5 22.5 6.25 29.25 8.5 29.25 8.5 13-2.75 26-5.75 26.5-8 26.5-8-.75-5 4.25-24.5 8.75-28 8.75-28-.5-4.5-3.75-19.75S218 106 218 106s1.75-10.5 6.75-23.75S235 55.5 235 55.5s-4.75-15.25-7.5-29.75S219.25 0 219.25 0 195 9 187.5 10.5s-21 5.25-21 5.25-9.75-4.25-22-8.5-29.75-5.5-29.75-5.5-3.25 3.5-22 8-27.5 5.75-27.5 5.75-18.5-9-31.5-11.5S9.75 2 9 2.25z"/>
  <g clip-path="url(#Q)" transform="translate(0 -10)">
    <path fill="#a6dd8b" d="M110.75 5.5l-4.25 7c-.75 9-2.25 13.75-8.5 16.5s-12.25 3.5-11 7.5 13 9.25 14.25 13 8.25 1.75 11 7 2 15.25-3.75 17.25-17.5.5-20.25 9.5-4.75 10.5-9 12.75-7.25 10.5-3.5 16.5 12.25-1.25 15-6.5S98 97.25 98 97.25h23.75l59-1.75 3.25-3.75s3.25 4 2.75 8.75-3.75 14.75.25 17.25 19.5-2 24-7-4.75-28.25-10.5-29.5-18.5-1.75-17-7 11.75 4.5 17.25 3.25 16.75-21 12-25.25-24.25-5.25-25.75-8 21-8 22.25-11-2.5-7.25-6.25-8.5S189 41 182 40.5s-20 5.75-17.25 11.5-6 11-14.5 6.5-24.75-13-21.75-24S150 15.75 150 15.75L110.75 5.5zM97.187 112.72c-1.594.145-4.468 4.686-4.937 7.03-.5 2.5-3.25 6.75-3.5 12.25s4.75 6.75 8.75 6.5 2.75-6.75 2-15c-.25 0-.5-10.25-2-10.75-.094-.03-.206-.04-.313-.03zm92.72 51.655c-6.336.295-6.626 7.47-7.407 8.875-1.25 2.25 2.25 13.75 2 18s-4.75 5.25-9.5 9.75.5 16 11.25 31l44.75 1.25-1-35s4.75-4.25-20.75-24.25c-9.563-7.5-15.542-9.802-19.344-9.625zm-149.97 16.53c-4.03-.1-8.28 5.72-9.687 7.595-1.5 2-6.25 5-17 9.5l-14.5 34.25 53 4.25s1.75-11-4.25-15.75S30.25 215 29.25 207.5s9.25-10 13.75-14.25S45 182 40.75 181c-.266-.063-.544-.087-.813-.094z"/>
  </g>
  <path fill="#aac3e7" d="M158.53 75.344c-4.76-.015-9.03.97-11.53 3.156-8 7-35 .75-48.5 7s-13.25 38-14.75 44.5-17.5 20.75-20 23.5-13.25 7.25-19.5 8.5-12.75 7.25-15.5 11c-2.02 2.756-7.406 6.45-10.125 8.22-.046.18-.08.347-.125.53-.134.535-.247 1.083-.375 1.625 4.98-1.605 11.18-8.18 16.625-13.625 6.25-6.25 20-7.75 27.75-11.5S76.75 138.5 89 134.5s21.25 11.75 24.25 18.5 1.75 12.75 3.75 17 11 11.75 11.5 13.5-5 6.5-6.25 8.5-10.5 7-11.75 8.75c-.966 1.352-1.923 6.773-2.313 9.22.414-.17.755-.312 1.126-.47.483-2.53 1.515-7.078 2.937-8.5 2-2 11.25-4.5 12.5-8.5s7-6.5 7-6.5 2.75 4 16 14c8.833 6.667 12.758 15.534 14.406 20.72.674.17 1.533.408 2.03.53-1.22-4.32-4.835-16.24-8.936-20.75-5-5.5-18.5-10.75-22.75-22S108 144.25 115 138.25s16.5-4 28.5 7.5 46.25 5.75 57.75 3.75c9.955-1.73 20.834 14.883 23.906 26.03.59-2.094 1.127-4 1.656-5.75-1.738-1.925-3.697-4.62-5.312-8.28-3.75-8.5-12-13.25-12-13.25s8.75-5 14.75-7.75c1.617-.74 3.006-1.677 4.188-2.656-.163-.774-.26-1.256-.438-2.094-.03-.146-.062-.292-.094-.438-4.765 5.563-19.232 9.616-21.656 10.938-2.75 1.5-18.25 3-35.75 4.5s-26.75-7.5-34.25-14.75-13-36-3-38 20 13.75 30 17 21.5-15.75 19.75-27c-1.203-7.734-13.997-12.625-24.47-12.656zm-53.343 13.28c1.276.002 5.86 1.595 6.563 2.376 2.25 2.5 2 7.25 0 8s-12.75 8-10.5 14.25 1.75 18-3.5 18-8 0-10-2.5-2-12 0-19.75 3.5-15 8-18.25c3.094-2.234 6.632-2.128 9.438-2.125zm13.594 73.095c.204.012 1.907 3.514 4.72 7.03 3 3.75 3.25 8.25 3.25 8.25s-4.25-4.75-6-8-2-7.25-2-7.25c0-.03.018-.032.03-.03z"/>
  <path fill="none" stroke="#6d7f42" d="M122.75 62.25c6.25.5 12.25-2.25 10.75-6.5s-12.5-7.25-13.25-3 2 10.5 2.5 9.5zM108.75 46.75c-8.5-5.5-8.5-7.25-7-8s10.25 5 12.75 8-2.25 2-5.75 0z" opacity=".387" stroke-linecap="round" stroke-linejoin="round"/>
  <g fill="none" stroke="#6d7f42" clip-path="url(#R)" transform="translate(0 -10)">
    <path d="M15.75 151.25c33-2.5 38.25-3.5 36.25-10.25s-8.75-23.5-23-22.5-22.75-6.75-22.75-6.75" opacity=".387" stroke-linecap="round" stroke-linejoin="round"/>
    <path d="M17.5 177.25c18.25-10 28.75-8.5 35-11.5s13.25-5.75 15.75-9.5 5.75-11.5 5.75-18-3.5-36 3.25-43.5 17.25-26 26-23.25 12.25 9.75 22 9.5S147 77 149.5 68.75s-15.75-16-16-23 5.5-14.25 20.25-17 23.5-11.5 23.5-11.5" opacity=".387"/>
    <path d="M14.5 161c15.25-1.5 22.25 3.5 31.5 1.75s13.25-3 17.75-5.75 6-3.75 6.25-6.5 1-12.5-3-22S54.5 97 58.75 89.75 64 68.25 74.5 65.25 95.5 59 102.25 64s12.75 14.25 20 14.5S134 77 136.75 74s4.5-10.25 1.75-13.75-15.5-5.5-17.25-9.5-10.75-17-.25-26.75 36.25-8.25 36.25-8.25" opacity=".387" stroke-linecap="round" stroke-linejoin="round"/>
    <path d="M21.25 159c13.75 1 21.5 4.25 33.5-.5s13.5-5.25 13.75-8.75-.25-15.75-3-20-13-13.75-15.75-24.25.25-41 8.5-48.25 32-7.25 37.5-10.5 5.25-16.75 13-24.5 27-12.25 27-12.25M190 18.5c11.75 5 39 9.75 47.25 40.25M9.75 214c19-12.5 36-1.25 49-4s38.25-37.25 46-37 5.5-11.75 8.5-13.25 5.5 6 11.75 8 24.5-2.75 23.5-5.75-7-7.75-5.5-8.5 8.5 5 12.75 3.5 43.75-1 48.5-13.5 21.5-13.5 21.5-13.5M77.5 233.5c13.5-11.5 23.25-25 28.5-27s12.75-3.75 15.75-8 2.5-10.75 5.25-12 3.75 5.75 8.75 6 36.75-5 42.75-11.75 32.25-12.5 32.5-14.5-1-4.75.25-5.5 24.75-6 24.75-6M168.75 236c9-13.75 20.5-41 29.5-42s10.25-2.5 12.5-4.25 17 2.25 17 2.25" opacity=".387" stroke-linecap="round" stroke-linejoin="round"/>
  </g>
  <g fill="none" stroke="#d38484" stroke-width="2" clip-path="url(#S)" transform="translate(0 -10)" stroke-linecap="round">
    <path d="M57.75 20l-8.5 28.25 18 6.25L75 90.75 54 113l9 10.5L51 135l.5 4.5L71.75 164l14-6.75 20.5 18.5L95.75 204l10.25 8.5-2.75 13"/>
    <path d="M105.75 212.25l12.5-27.75 11-7 27.5 15.75 20.5-3.75-.25-15.75-10.25-6 12.75-26.25 5.75-3.75 38.75-10"/>
  </g>
  <g>
    <g opacity=".504">
      <path fill="#b1e479" d="M219.25 330s-24.25 9-31.75 10.5-21 5.25-21 5.25-9.75-4.25-22-8.5-29.75-5.5-29.75-5.5-3.25 3.5-22 8-27.5 5.75-27.5 5.75-18.5-9-31.5-11.5-24-2-24.75-1.75c0 0 7.5 13 11.75 27.75S27 385.5 27 385.5l51.47 5.125 48.968-4 52.25 12.03c10.385-4.417 52.116-4.9 55.312-13.155 0 0-4.75-15.25-7.5-29.75S219.25 330 219.25 330z"/>
      <path fill="#87d531" d="M27 385.5s-5.5 12.75-8.25 24.75-5.75 23-5.75 23l50.97 16.375 53.718-15.75 52.25 17.53C186.3 447.15 202.334 442.29 218 436c0 0 1.75-10.5 6.75-23.75S235 385.5 235 385.5c-3.196 8.256-44.927 8.74-55.313 13.156l-52.25-12.03-47.968 4L27 385.5z"/>
      <path fill="#ceeeab" d="M231.75 485.5c-17.9 7.67-35.943 14.904-54.313 21.406l-52.25-18.53-50.218 9L26 487.5s-4 10.25-7.5 24.25-5 30.75-5 30.75 9.25-2 28.5 1.25 32.25 6 32.25 6 12.75-2.75 24-6.25 16.25-6.5 16.25-6.5 5.5.5 22.5 6.25 29.25 8.5 29.25 8.5 13-2.75 26-5.75 26.5-8 26.5-8-.75-5 4.25-24.5 8.75-28 8.75-28z"/>
      <path fill="#b9e787" d="M13 433.25s5.75 16 9.25 30S26 487.5 26 487.5l48.97 9.875 50.218-9 52.25 18.53c18.37-6.5 36.413-13.734 54.312-21.405 0 0-.5-4.5-3.75-19.75S218 436 218 436c-15.666 6.288-31.698 11.15-48.063 15.406l-52.25-17.53-53.718 15.75L13 433.25z"/>
    </g>
    <g opacity=".522">
      <path fill="#83d32b" d="M13.72 332.03c-2.73-.006-4.44.126-4.72.22 0 0 7.5 13 11.75 27.75S27 385.5 27 385.5s-5.5 12.75-8.25 24.75-5.75 23-5.75 23 5.75 16 9.25 30S26 487.5 26 487.5s-4 10.25-7.5 24.25-5 30.75-5 30.75 9.25-2 28.5 1.25 32.25 6 32.25 6l1.5-53.25L63.5 450l16-59.75c-2.22-15.48-9.068-30.046-14.25-44.75 0 0-18.5-9-31.5-11.5-8.125-1.563-15.483-1.957-20.03-1.97z"/>
      <path fill="#b1e479" d="M114.75 331.75s-3.25 3.5-22 8-27.5 5.75-27.5 5.75c5.182 14.704 12.03 29.27 14.25 44.75L63.5 450l12.25 46.5-1.5 53.25s12.75-2.75 24-6.25 16.25-6.5 16.25-6.5l11.25-48.5-8.25-54.25 11.75-45c-3.44-9.727-8.064-56.93-14.5-57.5z"/>
      <path fill="#a4df62" d="M219.25 330s-24.25 9-31.75 10.5-21 5.25-21 5.25c4.924-1.358 11.437 45.392 14.25 52.25l-11.25 53.25 9.5 55-12.75 45.5s13-2.75 26-5.75 26.5-8 26.5-8-.75-5 4.25-24.5 8.75-28 8.75-28-.5-4.5-3.75-19.75S218 436 218 436s1.75-10.5 6.75-23.75S235 385.5 235 385.5s-4.75-15.25-7.5-29.75-8.25-25.75-8.25-25.75z"/>
      <path fill="#ceeeab" d="M114.75 331.75c6.436.57 11.06 47.773 14.5 57.5l-11.75 45 8.25 53.25L114.5 537s5.5.5 22.5 6.25 29.25 8.5 29.25 8.5l12.75-45.5-9.5-55L180.75 398c-2.813-6.858-9.326-53.608-14.25-52.25 0 0-9.75-4.25-22-8.5s-29.75-5.5-29.75-5.5z"/>
    </g>
    <path fill="url(#T)" d="M9-189.75s7.5 13 11.75 27.75S27-136.5 27-136.5s-5.5 12.75-8.25 24.75-5.75 23-5.75 23 5.75 16 9.25 30S26-34.5 26-34.5s-4 10.25-7.5 24.25-5 30.75-5 30.75 9.25-2 28.5 1.25 32.25 6 32.25 6S87 25 98.25 21.5 114.5 15 114.5 15s5.5.5 22.5 6.25 29.25 8.5 29.25 8.5 13-2.75 26-5.75 26.5-8 26.5-8S218 11 223-8.5s8.75-28 8.75-28-.5-4.5-3.75-19.75S218-86 218-86s1.75-10.5 6.75-23.75S235-136.5 235-136.5s-4.75-15.25-7.5-29.75-8.25-25.75-8.25-25.75-24.25 9-31.75 10.5-21 5.25-21 5.25-9.75-4.25-22-8.5-29.75-5.5-29.75-5.5-3.25 3.5-22 8-27.5 5.75-27.5 5.75-18.5-9-31.5-11.5-24-2-24.75-1.75z" opacity=".039" transform="translate(0 192)"/>
  </g>
  <g>
    <g opacity=".27">
      <path fill="url(#U)" d="M219.25-182s-24.25 9-31.75 10.5-21 5.25-21 5.25c4.924-1.358 11.437 45.392 14.25 52.25l-.063.28c11.808-4.073 51.21-4.766 54.313-12.78 0 0-4.75-15.25-7.5-29.75S219.25-182 219.25-182z" transform="translate(0 182)"/>
      <path fill="url(#V)" d="M27-126.5s-5.5 12.75-8.25 24.75-5.75 23-5.75 23l50.625 16.28 15.78-58.905L27-126.5z" transform="translate(0 182)"/>
      <path fill="url(#W)" d="M26-24.5S22-14.25 18.5-.25s-5 30.75-5 30.75.147-.045.438-.094c2.033-.338 11.218-1.5 28.062 1.344 19.25 3.25 32.25 6 32.25 6l1.47-52.5-.75.125L26-24.5z" transform="translate(0 182)"/>
      <path fill="url(#X)" d="M114.75-180.25s-3.25 3.5-22 8-27.5 5.75-27.5 5.75c5.182 14.704 12.03 29.27 14.25 44.75l-.094.313 48.03-3.938 1.126.25c-3.362-13.323-7.796-54.592-13.812-55.125z" transform="translate(0 182)"/>
      <path fill="url(#Y)" d="M117.594-78.094L63.97-62.374l-.345-.095-.125.47 12.25 46.5-.03.75 49.468-8.875.53.188.032-.063-8.25-54.25.094-.344z" transform="translate(0 182)"/>
      <path fill="url(#Z)" d="M128.563-125.125c.234.928.463 1.742.687 2.375l-11.656 44.656.093-.03L169.5-60.75l11.187-52.97c-.356.124-.695.247-1 .376l-51.125-11.78z" transform="translate(0 182)"/>
      <path fill="url(#aa)" d="M125.53-23.5L114.5 25s5.5.5 22.5 6.25c2.125.72 4.163 1.406 6.125 2.03 1.962.627 3.855 1.187 5.625 1.72 10.617 3.2 17.5 4.75 17.5 4.75l12.72-45.406c-.514.182-1.02.38-1.532.562L125.53-23.5z" transform="translate(0 182)"/>
      <path fill="url(#ab)" d="M218-76c-15.666 6.288-31.698 11.15-48.063 15.406l-.437-.156 9.5 55-.03.094c17.838-6.36 35.38-13.387 52.78-20.844 0 0-.5-4.5-3.75-19.75S218-76 218-76z" transform="translate(0 182)"/>
    </g>
    <g opacity=".043">
      <path fill="url(#ac)" d="M13.72-179.97c-1.107-.002-1.973.033-2.72.064-.445.018-.855.04-1.156.062-.03.002-.066-.002-.094 0-.398.033-.656.063-.75.094 0 0 7.5 13 11.75 27.75S27-126.5 27-126.5l51.47 5.125.936-.063.094-.312c-2.22-15.48-9.068-30.046-14.25-44.75 0 0-18.5-9-31.5-11.5-1.018-.196-2.01-.37-3-.53-.596-.098-1.167-.198-1.75-.282-.237-.035-.453-.062-.688-.094-1.306-.182-2.588-.34-3.812-.47-.735-.076-1.395-.127-2.094-.186-.685-.06-1.353-.112-2-.157-.992-.066-1.89-.117-2.78-.155-1.457-.063-2.77-.09-3.907-.094z" transform="translate(0 182)"/>
      <path fill="url(#ad)" d="M13-78.75s5.75 16 9.25 30S26-24.5 26-24.5l48.97 9.875.75-.125.03-.75L63.5-62l.125-.47L13-78.75z" transform="translate(0 182)"/>
      <path fill="url(#ae)" d="M127.438-125.375l-47.97 4h-.062L63.626-62.47l.343.095 53.624-15.72 11.656-44.655c-.224-.633-.453-1.447-.688-2.375l-1.125-.25z" transform="translate(0 182)"/>
      <path fill="url(#af)" d="M125.188-23.625l-49.47 8.875-1.468 52.5S87 35 98.25 31.5 114.5 25 114.5 25l11.22-48.438-.532-.187z" transform="translate(0 182)"/>
      <path fill="url(#ag)" d="M114.75-180.25c6.016.533 10.45 41.802 13.813 55.125l51.125 11.78c.304-.128.643-.25 1-.374l.062-.28c-2.813-6.858-9.326-53.608-14.25-52.25 0 0-.613-.254-1.72-.72-3.315-1.393-11.093-4.593-20.28-7.78-12.25-4.25-29.75-5.5-29.75-5.5z" transform="translate(0 182)"/>
      <path fill="url(#ah)" d="M117.688-78.125l-.094.03-.094.345 8.25 53.25-.22 1L177.44-5.094c.512-.18 1.02-.38 1.53-.562L179-5.75l-9.5-55-51.813-17.375z" transform="translate(0 182)"/>
      <path fill="url(#ai)" d="M231.75-26.5c-17.4 7.457-34.942 14.484-52.78 20.844L166.25 39.75s13-2.75 26-5.75 26.5-8 26.5-8S218 21 223 1.5s8.75-28 8.75-28z" transform="translate(0 182)"/>
      <path fill="url(#aj)" d="M235-126.5c-3.102 8.014-42.505 8.707-54.313 12.78L169.5-60.75l.438.156C186.3-64.85 202.334-69.712 218-76c0 0 1.75-10.5 6.75-23.75S235-126.5 235-126.5z" transform="translate(0 182)"/>
    </g>
  </g>
  <g>
    <g transform="matrix(1.25 .04 0 1.25 -27.81 -48.34)" clip-path="url(#ak)">
      <path fill="#ceeeab" d="M9 12.25s7.5 13 11.75 27.75S27 65.5 27 65.5s-5.5 12.75-8.25 24.75-5.75 23-5.75 23 5.75 16 9.25 30S26 167.5 26 167.5s-4 10.25-7.5 24.25-5 30.75-5 30.75 9.25-2 28.5 1.25 32.25 6 32.25 6 12.75-2.75 24-6.25 16.25-6.5 16.25-6.5 5.5.5 22.5 6.25 29.25 8.5 29.25 8.5 13-2.75 26-5.75 26.5-8 26.5-8-.75-5 4.25-24.5 8.75-28 8.75-28-.5-4.5-3.75-19.75S218 116 218 116s1.75-10.5 6.75-23.75S235 65.5 235 65.5s-4.75-15.25-7.5-29.75S219.25 10 219.25 10 195 19 187.5 20.5s-21 5.25-21 5.25-9.75-4.25-22-8.5-29.75-5.5-29.75-5.5-3.25 3.5-22 8-27.5 5.75-27.5 5.75-18.5-9-31.5-11.5-24-2-24.75-1.75z"/>
      <g clip-path="url(#al)">
        <path fill="#a6dd8b" d="M110.75 5.5l-4.25 7c-.75 9-2.25 13.75-8.5 16.5s-12.25 3.5-11 7.5 13 9.25 14.25 13 8.25 1.75 11 7 2 15.25-3.75 17.25-17.5.5-20.25 9.5-4.75 10.5-9 12.75-7.25 10.5-3.5 16.5 12.25-1.25 15-6.5S98 97.25 98 97.25h23.75l59-1.75 3.25-3.75s3.25 4 2.75 8.75-3.75 14.75.25 17.25 19.5-2 24-7-4.75-28.25-10.5-29.5-18.5-1.75-17-7 11.75 4.5 17.25 3.25 16.75-21 12-25.25-24.25-5.25-25.75-8 21-8 22.25-11-2.5-7.25-6.25-8.5S189 41 182 40.5s-20 5.75-17.25 11.5-6 11-14.5 6.5-24.75-13-21.75-24S150 15.75 150 15.75L110.75 5.5zM97.187 112.72c-1.594.145-4.468 4.686-4.937 7.03-.5 2.5-3.25 6.75-3.5 12.25s4.75 6.75 8.75 6.5 2.75-6.75 2-15c-.25 0-.5-10.25-2-10.75-.094-.03-.206-.04-.313-.03zm92.72 51.655c-6.336.295-6.626 7.47-7.407 8.875-1.25 2.25 2.25 13.75 2 18s-4.75 5.25-9.5 9.75.5 16 11.25 31l44.75 1.25-1-35s4.75-4.25-20.75-24.25c-9.563-7.5-15.542-9.802-19.344-9.625zm-149.97 16.53c-4.03-.1-8.28 5.72-9.687 7.595-1.5 2-6.25 5-17 9.5l-14.5 34.25 53 4.25s1.75-11-4.25-15.75S30.25 215 29.25 207.5s9.25-10 13.75-14.25S45 182 40.75 181c-.266-.063-.544-.087-.813-.094z"/>
      </g>
      <path fill="#aac3e7" d="M158.53 85.344c-4.76-.015-9.03.97-11.53 3.156-8 7-35 .75-48.5 7s-13.25 38-14.75 44.5-17.5 20.75-20 23.5-13.25 7.25-19.5 8.5-12.75 7.25-15.5 11c-2.02 2.756-7.406 6.45-10.125 8.22-.046.18-.08.347-.125.53-.134.535-.247 1.083-.375 1.625 4.98-1.605 11.18-8.18 16.625-13.625 6.25-6.25 20-7.75 27.75-11.5S76.75 148.5 89 144.5s21.25 11.75 24.25 18.5 1.75 12.75 3.75 17 11 11.75 11.5 13.5-5 6.5-6.25 8.5-10.5 7-11.75 8.75c-.966 1.352-1.923 6.773-2.313 9.22.414-.17.755-.312 1.126-.47.483-2.53 1.515-7.078 2.937-8.5 2-2 11.25-4.5 12.5-8.5s7-6.5 7-6.5 2.75 4 16 14c8.833 6.667 12.758 15.534 14.406 20.72.674.17 1.533.408 2.03.53-1.22-4.32-4.835-16.24-8.936-20.75-5-5.5-18.5-10.75-22.75-22S108 154.25 115 148.25s16.5-4 28.5 7.5 46.25 5.75 57.75 3.75c9.955-1.73 20.834 14.883 23.906 26.03.59-2.094 1.127-4 1.656-5.75-1.738-1.925-3.697-4.62-5.312-8.28-3.75-8.5-12-13.25-12-13.25s8.75-5 14.75-7.75c1.617-.74 3.006-1.677 4.188-2.656-.163-.774-.26-1.256-.438-2.094-.03-.146-.062-.292-.094-.438-4.765 5.563-19.232 9.616-21.656 10.938-2.75 1.5-18.25 3-35.75 4.5s-26.75-7.5-34.25-14.75-13-36-3-38 20 13.75 30 17 21.5-15.75 19.75-27c-1.203-7.734-13.997-12.625-24.47-12.656zm-53.343 13.28c1.276.002 5.86 1.595 6.563 2.376 2.25 2.5 2 7.25 0 8s-12.75 8-10.5 14.25 1.75 18-3.5 18-8 0-10-2.5-2-12 0-19.75 3.5-15 8-18.25c3.094-2.234 6.632-2.128 9.438-2.125zm13.594 73.095c.204.012 1.907 3.514 4.72 7.03 3 3.75 3.25 8.25 3.25 8.25s-4.25-4.75-6-8-2-7.25-2-7.25c0-.03.018-.032.03-.03z"/>
      <path fill="none" stroke="#6d7f42" d="M122.75 72.25c6.25.5 12.25-2.25 10.75-6.5s-12.5-7.25-13.25-3 2 10.5 2.5 9.5zM108.75 56.75c-8.5-5.5-8.5-7.25-7-8s10.25 5 12.75 8-2.25 2-5.75 0z" opacity=".387" stroke-linecap="round" stroke-linejoin="round"/>
      <g fill="none" stroke="#6d7f42" clip-path="url(#am)">
        <path d="M15.75 151.25c33-2.5 38.25-3.5 36.25-10.25s-8.75-23.5-23-22.5-22.75-6.75-22.75-6.75" opacity=".387" stroke-linecap="round" stroke-linejoin="round"/>
        <path d="M17.5 177.25c18.25-10 28.75-8.5 35-11.5s13.25-5.75 15.75-9.5 5.75-11.5 5.75-18-3.5-36 3.25-43.5 17.25-26 26-23.25 12.25 9.75 22 9.5S147 77 149.5 68.75s-15.75-16-16-23 5.5-14.25 20.25-17 23.5-11.5 23.5-11.5" opacity=".387"/>
        <path d="M14.5 161c15.25-1.5 22.25 3.5 31.5 1.75s13.25-3 17.75-5.75 6-3.75 6.25-6.5 1-12.5-3-22S54.5 97 58.75 89.75 64 68.25 74.5 65.25 95.5 59 102.25 64s12.75 14.25 20 14.5S134 77 136.75 74s4.5-10.25 1.75-13.75-15.5-5.5-17.25-9.5-10.75-17-.25-26.75 36.25-8.25 36.25-8.25" opacity=".387" stroke-linecap="round" stroke-linejoin="round"/>
        <path d="M21.25 159c13.75 1 21.5 4.25 33.5-.5s13.5-5.25 13.75-8.75-.25-15.75-3-20-13-13.75-15.75-24.25.25-41 8.5-48.25 32-7.25 37.5-10.5 5.25-16.75 13-24.5 27-12.25 27-12.25M190 18.5c11.75 5 39 9.75 47.25 40.25M9.75 214c19-12.5 36-1.25 49-4s38.25-37.25 46-37 5.5-11.75 8.5-13.25 5.5 6 11.75 8 24.5-2.75 23.5-5.75-7-7.75-5.5-8.5 8.5 5 12.75 3.5 43.75-1 48.5-13.5 21.5-13.5 21.5-13.5M77.5 233.5c13.5-11.5 23.25-25 28.5-27s12.75-3.75 15.75-8 2.5-10.75 5.25-12 3.75 5.75 8.75 6 36.75-5 42.75-11.75 32.25-12.5 32.5-14.5-1-4.75.25-5.5 24.75-6 24.75-6M168.75 236c9-13.75 20.5-41 29.5-42s10.25-2.5 12.5-4.25 17 2.25 17 2.25" opacity=".387" stroke-linecap="round" stroke-linejoin="round"/>
      </g>
      <g fill="none" stroke="#d38484" stroke-width="2" clip-path="url(#an)" stroke-linecap="round">
        <path d="M57.75 20l-8.5 28.25 18 6.25L75 90.75 54 113l9 10.5L51 135l.5 4.5L71.75 164l14-6.75 20.5 18.5L95.75 204l10.25 8.5-2.75 13"/>
        <path d="M105.75 212.25l12.5-27.75 11-7 27.5 15.75 20.5-3.75-.25-15.75-10.25-6 12.75-26.25 5.75-3.75 38.75-10"/>
      </g>
      <path fill="url(#ao)" d="M9 12.25s7.5 13 11.75 27.75S27 65.5 27 65.5s-5.5 12.75-8.25 24.75-5.75 23-5.75 23 5.75 16 9.25 30S26 167.5 26 167.5s-4 10.25-7.5 24.25-5 30.75-5 30.75 9.25-2 28.5 1.25 32.25 6 32.25 6 12.75-2.75 24-6.25 16.25-6.5 16.25-6.5 5.5.5 22.5 6.25 29.25 8.5 29.25 8.5 13-2.75 26-5.75 26.5-8 26.5-8-.75-5 4.25-24.5 8.75-28 8.75-28-.5-4.5-3.75-19.75S218 116 218 116s1.75-10.5 6.75-23.75S235 65.5 235 65.5s-4.75-15.25-7.5-29.75S219.25 10 219.25 10 195 19 187.5 20.5s-21 5.25-21 5.25-9.75-4.25-22-8.5-29.75-5.5-29.75-5.5-3.25 3.5-22 8-27.5 5.75-27.5 5.75-18.5-9-31.5-11.5-24-2-24.75-1.75z" opacity=".039"/>
      <g opacity=".27">
        <path fill="url(#ap)" d="M219.25-182s-24.25 9-31.75 10.5-21 5.25-21 5.25c4.924-1.358 11.437 45.392 14.25 52.25l-.063.28c11.808-4.073 51.21-4.766 54.313-12.78 0 0-4.75-15.25-7.5-29.75S219.25-182 219.25-182z" transform="translate(0 192)"/>
        <path fill="url(#aq)" d="M27-126.5s-5.5 12.75-8.25 24.75-5.75 23-5.75 23l50.625 16.28 15.78-58.905L27-126.5z" transform="translate(0 192)"/>
        <path fill="url(#ar)" d="M26-24.5S22-14.25 18.5-.25s-5 30.75-5 30.75.147-.045.438-.094c2.033-.338 11.218-1.5 28.062 1.344 19.25 3.25 32.25 6 32.25 6l1.47-52.5-.75.125L26-24.5z" transform="translate(0 192)"/>
        <path fill="url(#as)" d="M114.75-180.25s-3.25 3.5-22 8-27.5 5.75-27.5 5.75c5.182 14.704 12.03 29.27 14.25 44.75l-.094.313 48.03-3.938 1.126.25c-3.362-13.323-7.796-54.592-13.812-55.125z" transform="translate(0 192)"/>
        <path fill="url(#at)" d="M117.594-78.094L63.97-62.374l-.345-.095-.125.47 12.25 46.5-.03.75 49.468-8.875.53.188.032-.063-8.25-54.25.094-.344z" transform="translate(0 192)"/>
        <path fill="url(#au)" d="M128.563-125.125c.234.928.463 1.742.687 2.375l-11.656 44.656.093-.03L169.5-60.75l11.187-52.97c-.356.124-.695.247-1 .376l-51.125-11.78z" transform="translate(0 192)"/>
        <path fill="url(#av)" d="M125.53-23.5L114.5 25s5.5.5 22.5 6.25c2.125.72 4.163 1.406 6.125 2.03 1.962.627 3.855 1.187 5.625 1.72 10.617 3.2 17.5 4.75 17.5 4.75l12.72-45.406c-.514.182-1.02.38-1.532.562L125.53-23.5z" transform="translate(0 192)"/>
        <path fill="url(#aw)" d="M218-76c-15.666 6.288-31.698 11.15-48.063 15.406l-.437-.156 9.5 55-.03.094c17.838-6.36 35.38-13.387 52.78-20.844 0 0-.5-4.5-3.75-19.75S218-76 218-76z" transform="translate(0 192)"/>
      </g>
      <g opacity=".043">
        <path fill="url(#ax)" d="M13.72-179.97c-1.107-.002-1.973.033-2.72.064-.445.018-.855.04-1.156.062-.03.002-.066-.002-.094 0-.398.033-.656.063-.75.094 0 0 7.5 13 11.75 27.75S27-126.5 27-126.5l51.47 5.125.936-.063.094-.312c-2.22-15.48-9.068-30.046-14.25-44.75 0 0-18.5-9-31.5-11.5-1.018-.196-2.01-.37-3-.53-.596-.098-1.167-.198-1.75-.282-.237-.035-.453-.062-.688-.094-1.306-.182-2.588-.34-3.812-.47-.735-.076-1.395-.127-2.094-.186-.685-.06-1.353-.112-2-.157-.992-.066-1.89-.117-2.78-.155-1.457-.063-2.77-.09-3.907-.094z" transform="translate(0 192)"/>
        <path fill="url(#ay)" d="M13-78.75s5.75 16 9.25 30S26-24.5 26-24.5l48.97 9.875.75-.125.03-.75L63.5-62l.125-.47L13-78.75z" transform="translate(0 192)"/>
        <path fill="url(#az)" d="M127.438-125.375l-47.97 4h-.062L63.626-62.47l.343.095 53.624-15.72 11.656-44.655c-.224-.633-.453-1.447-.688-2.375l-1.125-.25z" transform="translate(0 192)"/>
        <path fill="url(#aA)" d="M125.188-23.625l-49.47 8.875-1.468 52.5S87 35 98.25 31.5 114.5 25 114.5 25l11.22-48.438-.532-.187z" transform="translate(0 192)"/>
        <path fill="url(#aB)" d="M114.75-180.25c6.016.533 10.45 41.802 13.813 55.125l51.125 11.78c.304-.128.643-.25 1-.374l.062-.28c-2.813-6.858-9.326-53.608-14.25-52.25 0 0-.613-.254-1.72-.72-3.315-1.393-11.093-4.593-20.28-7.78-12.25-4.25-29.75-5.5-29.75-5.5z" transform="translate(0 192)"/>
        <path fill="url(#aC)" d="M117.688-78.125l-.094.03-.094.345 8.25 53.25-.22 1L177.44-5.094c.512-.18 1.02-.38 1.53-.562L179-5.75l-9.5-55-51.813-17.375z" transform="translate(0 192)"/>
        <path fill="url(#aD)" d="M231.75-26.5c-17.4 7.457-34.942 14.484-52.78 20.844L166.25 39.75s13-2.75 26-5.75 26.5-8 26.5-8S218 21 223 1.5s8.75-28 8.75-28z" transform="translate(0 192)"/>
        <path fill="url(#aE)" d="M235-126.5c-3.102 8.014-42.505 8.707-54.313 12.78L169.5-60.75l.438.156C186.3-64.85 202.334-69.712 218-76c0 0 1.75-10.5 6.75-23.75S235-126.5 235-126.5z" transform="translate(0 192)"/>
      </g>
    </g>
  </g>
  <g>
    <path fill="#2d3335" d="M174.28 35.875c-17.597 0-35.19 6.64-48.718 19.906-.167.165-.334.304-.5.47-22.055 22.056-26.208 55.25-12.468 81.5l-2.28 1.625c2.247 4.24 4.94 8.307 8.092 12.125l-13.312 13.344c-1.342-.586-2.79-1.034-4.563-1.375l-2.843 2.843c-1.11-.484-2.138-.816-3.062-.875L30.5 229.563c-.037 1.1.226 2.187.656 3.28l-.53.532-1.095 1.094c.717 3.737 2.012 6.822 5.47 10.28 3.458 3.458 6.42 4.63 10.28 5.47l1.095-1.095.72-.72c1.087.464 2.13.787 3.093.845l64.124-64.125c-.242-.975-.62-1.935-1.03-2.906l3-3c-.25-1.733-.677-3.2-1.313-4.595l13.28-13.28c3.818 3.15 7.885 5.844 12.125 8.093l1.625-2.282c26.25 13.74 59.444 9.587 81.5-12.47.166-.164.305-.33.47-.5 26.693-27.215 26.547-70.92-.47-97.936-13.59-13.59-31.407-20.375-49.22-20.375zm-.5 3.28c.106.003.21 0 .314 0 .95.02 1.895.067 2.844.126.958.062 1.918.15 2.875.25l.28.032c.095.01.188.02.282.032.146.017.292.044.438.062.896.11 1.794.228 2.687.375.62.103 1.227.225 1.844.345.343.066.69.116 1.03.188.725.152 1.437.323 2.157.5.314.076.627.137.94.218.072.02.144.044.218.064.955.253 1.896.516 2.843.812.074.023.148.04.22.063.947.3 1.907.624 2.844.968l.156.062c.955.352 1.902.728 2.844 1.125.05.022.105.04.156.063.942.4 1.885.836 2.813 1.28.042.02.083.043.125.063.935.452 1.862.91 2.78 1.407.034.018.06.045.094.063.927.503 1.842 1.013 2.75 1.563.033.02.062.043.094.062.908.55 1.8 1.122 2.688 1.72.55.368 1.084.768 1.625 1.155.363.26.732.512 1.092.78.02.015.044.02.063.032.878.656 1.74 1.36 2.594 2.063 1.74 1.434 3.43 2.963 5.06 4.594 1.622 1.62 3.137 3.3 4.564 5.03.01.01.022.02.03.03.704.856 1.408 1.716 2.063 2.595.283.38.54.773.813 1.156.37.518.74 1.04 1.094 1.564.016.024.046.038.062.062.598.89 1.167 1.778 1.72 2.688.018.032.042.06.06.094.547.902 1.064 1.83 1.564 2.75.018.032.045.06.062.093.498.922.954 1.845 1.407 2.782l.06.126c.447.93.88 1.868 1.282 2.812.022.05.04.105.063.156.395.936.774 1.895 1.125 2.844.02.053.043.104.062.156.348.95.666 1.885.97 2.844.022.072.04.147.062.22.294.94.56 1.893.812 2.843.02.073.043.145.063.218.08.31.14.628.217.94.177.72.348 1.43.5 2.155.072.342.12.688.188 1.03.12.618.242 1.226.344 1.845.145.893.264 1.79.374 2.688.018.145.045.29.062.437l.03.28c.012.095.022.188.032.282.103.957.19 1.917.25 2.876.06.942.107 1.9.126 2.843 0 .104-.002.21 0 .313.015 1.052.004 2.103-.032 3.155-.03.93-.084 1.853-.156 2.78l-.03.376c-.077.92-.167 1.837-.282 2.75-.12.958-.274 1.925-.438 2.876-.014.083-.017.168-.03.25-.023.125-.04.25-.064.375-.165.91-.358 1.82-.562 2.72-.03.135-.062.272-.094.406-.208.89-.44 1.775-.687 2.656-.165.587-.352 1.168-.533 1.75-.175.565-.34 1.128-.53 1.688-.295.864-.606 1.71-.938 2.563l-.19.468c-.044.114-.078.233-.124.345-.356.88-.728 1.728-1.125 2.594-.376.822-.772 1.625-1.186 2.436-.08.158-.168.312-.25.47-.416.796-.83 1.59-1.282 2.374-.095.166-.184.335-.28.5-.2.34-.42.664-.626 1-.36.59-.742 1.168-1.125 1.75-.004.007.006.024 0 .03-.49.747-1.005 1.49-1.53 2.22-.457.636-.954 1.25-1.438 1.875-.197.254-.36.53-.562.78-.134.17-.27.334-.406.5-.164.202-.334.396-.5.595-.557.667-1.13 1.318-1.72 1.97-.605.67-1.234 1.346-1.874 2-.16.163-.306.336-.47.5-21.13 21.13-52.257 24.494-77.186 11.155l.125-.188c-3.705-1.896-7.263-4.14-10.626-6.78-.54-.424-1.066-.87-1.594-1.313-.514-.43-1.027-.863-1.53-1.313-.094-.082-.19-.165-.283-.25-.82-.747-1.61-1.517-2.406-2.31-.793-.796-1.564-1.586-2.31-2.408-.085-.092-.168-.188-.25-.28-.45-.505-.883-1.018-1.314-1.532-.442-.528-.89-1.055-1.312-1.594-2.64-3.363-4.885-6.92-6.782-10.625l-.187.126c-13.34-24.93-9.974-56.057 11.156-77.187.164-.164.337-.31.5-.47.654-.64 1.33-1.27 2-1.875.652-.588 1.303-1.162 1.97-1.72.272-.226.538-.464.812-.686.344-.28.716-.513 1.063-.783.624-.483 1.24-.98 1.875-1.437.737-.53 1.497-1.036 2.25-1.53.582-.384 1.16-.765 1.75-1.126.447-.274.892-.55 1.344-.813.68-.394 1.37-.756 2.062-1.124.176-.093.355-.19.53-.28.947-.492 1.883-.967 2.845-1.407.867-.398 1.716-.77 2.595-1.126.153-.062.316-.096.47-.157.967-.384 1.923-.758 2.905-1.093.56-.192 1.123-.356 1.687-.532.583-.18 1.164-.367 1.75-.53.882-.247 1.768-.48 2.657-.688.07-.017.147-.015.218-.032.416-.095.833-.193 1.25-.28.673-.142 1.356-.288 2.032-.407.082-.015.167-.017.25-.03.95-.165 1.918-.318 2.875-.44 1.962-.246 3.93-.4 5.905-.468 1.052-.035 2.103-.046 3.156-.03z" transform="matrix(1 .08 0 1 0 -21.06)" clip-path="url(#aF)" filter="url(#aG)"/>
  </g>
  <g>
    <path fill="url(#aH)" d="M48.01 227.457l-4.807 4.558c-5.007-5.315-10.24-10.707-15.08-16.133l4.49-4.073c6.83 6.533 8.873 8.53 15.397 15.647z"/>
    <path fill="#d0e9f2" fill-opacity=".476" d="M-95.5 225c28.72 0 52 23.28 52 52s-23.28 52-52 52-52-23.28-52-52 23.28-52 52-52z"/>
    <path fill="#2d3335" d="M-82 136c-27.614 0-50-22.386-50-50s22.386-50 50-50 50 22.386 50 50-22.386 50-50 50zm0-3c26.51 0 48-20.49 48-47s-21.49-47-48-47-48 20.49-48 47 21.49 47 48 47z"/>
    <path fill="#9eaaac" d="M-82 136c-27.614 0-50-22.386-50-50 0-.168-.002-.332 0-.5.27 27.382 22.554 49.5 50 49.5s49.73-22.118 50-49.5c.002.168 0 .332 0 .5 0 27.614-22.386 50-50 50zm-48-50.5c-.002-.167 0-.332 0-.5 0-26.51 21.49-47 48-47s48 20.49 48 47c0 .168.002.333 0 .5C-34.27 59.234-55.658 39-82 39s-47.73 20.234-48 46.5z"/>
    <path fill="#d0e9f2" fill-opacity=".476" d="M-82 134c26.51 0 48-21.49 48-48s-21.49-48-48-48-48 21.49-48 48 21.49 48 48 48z"/>
    <path fill="url(#aI)" d="M-82 134c26.51 0 48-21.49 48-48s-21.49-48-48-48-48 21.49-48 48 21.49 48 48 48z"/>
    <path fill="url(#aJ)" d="M-96.438 130.72l-.843 5C-92.45 137.2-87.317 138-82 138c5.316 0 10.45-.8 15.28-2.28l-.843-5C-72.114 132.187-76.96 133-82 133c-5.04 0-9.885-.812-14.438-2.28z"/>
    <path fill="url(#aK)" d="M-82 136.25c1.757 0 3.43.298 5 .813v26.625c-1.57.514-3.243.812-5 .812-1.757 0-3.43-.298-5-.813v-26.625c1.57-.514 3.243-.812 5-.812z"/>
    <path fill="url(#aL)" d="M-82 150.5c3.514 0 5.613.653 8 2.438v67.124c-3.137.91-4.486 1.438-8 1.438-3.514 0-4.863-.528-8-1.438v-67.124c2.637-1.785 4.486-2.438 8-2.438z"/>
    <path fill="url(#aM)" d="M-82 154.5c3.514 0 7.238.778 10 2.438v65.124c-2.012 1.785-6.486 2.438-10 2.438-3.514 0-7.863-.153-10-2.438v-65.124c1.887-1.66 6.486-2.438 10-2.438z"/>
    <path fill="url(#aN)" d="M-82 217.5c3.514 0 5.863.778 8 2.438v5.124c-2.387 1.535-4.486 2.438-8 2.438-3.514 0-5.738-.903-8-2.438v-5.124c2.387-1.91 4.486-2.438 8-2.438z"/>
    <path fill="#e0bb41" d="M-82 221.5c-3.514 0-5.613.277-8 2.438v1.125c2.262 1.535 4.486 2.437 8 2.437 3.514 0 5.613-.902 8-2.438v-1.125c-2.512-2.035-4.486-2.437-8-2.437z"/>
    <path fill="#2d3335" d="M125.064 134.686c-27.18-27.18-27.18-71.247 0-98.427 27.18-27.18 71.247-27.18 98.427 0 27.18 27.18 27.18 71.246 0 98.426-27.18 27.18-71.246 27.18-98.426 0zm2.953-2.953c26.093 26.093 67.413 27.077 93.506.984 26.093-26.092 25.108-67.413-.984-93.506-26.094-26.09-67.415-27.076-93.507-.983-26.093 26.093-25.11 67.413.984 93.506z"/>
    <path fill="#9eaaac" d="M125.064 134.686c-27.18-27.18-27.18-71.247 0-98.427.166-.167.325-.33.492-.494-26.685 27.218-26.522 70.92.492 97.936 27.015 27.014 70.718 27.177 97.935.492-.163.167-.326.326-.492.492-27.18 27.18-71.246 27.18-98.426 0zm2.46-96.95c.163-.168.328-.328.493-.493 26.093-26.093 67.413-25.11 93.506.984 26.092 26.093 27.077 67.413.984 93.506-.165.165-.326.33-.492.492 25.587-26.118 24.45-67.086-1.477-93.014-25.927-25.926-66.895-27.062-93.013-1.475z"/>
    <path fill="#d0e9f2" fill-opacity=".476" d="M127.033 132.717c26.092 26.093 68.397 26.093 94.49 0 26.093-26.092 26.093-68.397 0-94.49-26.093-26.092-68.398-26.092-94.49 0-26.093 26.093-26.093 68.398 0 94.49z"/>
    <path fill="url(#aO)" d="M127.033 132.717c26.092 26.093 68.397 26.093 94.49 0 26.093-26.092 26.093-68.397 0-94.49-26.093-26.092-68.398-26.093-94.49 0-26.093 26.093-26.093 68.398 0 94.49z"/>
    <path fill="url(#aP)" d="M116.052 115.277l-5.752 4.09c3.295 6.214 7.563 12.055 12.796 17.287 5.232 5.233 11.073 9.5 17.286 12.796l4.09-5.752c-5.926-3.034-11.493-7.003-16.455-11.965-4.962-4.962-8.93-10.53-11.965-16.456z"/>
    <path fill="url(#aQ)" d="M124.818 134.932c1.73 1.73 3.084 3.67 4.122 5.72l-26.206 26.207c-2.05-1.038-3.992-2.393-5.722-4.122-1.73-1.73-3.084-3.67-4.12-5.72l26.205-26.208c2.05 1.038 3.992 2.393 5.72 4.122z"/>
    <path fill="url(#aR)" d="M116.267 159.232L50.2 225.3c-3.985-2.192-5.833-3-9.29-6.46-3.46-3.457-4.268-5.305-6.46-9.29l66.068-66.067c5.064 3.748 12.117 10.398 15.75 15.75z"/>
    <path fill="url(#aS)" d="M105.78 154.118c3.457 3.458 7.434 6.666 8.518 11.02l-64.1 64.1c-6.516-5.156-14.554-12.792-19.685-19.687l64.1-64.098c3.49.223 7.66 5.16 11.117 8.617l.05.048z"/>
    <path fill="url(#aT)" d="M105.534 154.363c3.46 3.458 7.68 6.42 8.764 10.774l-64.1 64.1c-7.876-6.908-11.797-10.624-19.685-19.686l64.1-64.098c3.49.223 7.414 5.452 10.872 8.91h.05z" opacity=".596"/>
    <path fill="url(#aU)" d="M131.168 37.05c40.66-32.173 78.136-12.728 77.782 5.303-.353 18.03-56.568 70.357-76.367 66.115-19.8-4.243-25.456-53.387-1.415-71.418z" opacity=".604"/>
    <text x="99.839" y="69.184" fill="url(#aV)" style="-inkscape-font-specification:Sans" transform="rotate(-8.9)" font-size="19.8" opacity=".461" font-family="Sans">
      <tspan x="99.839" y="69.184" style="-inkscape-font-specification:Monospace Bold" font-weight="bold" font-family="Monospace">01011001</tspan><tspan x="99.839" y="93.934" style="-inkscape-font-specification:Monospace Bold" font-weight="bold" font-family="Monospace">00110101</tspan><tspan x="99.839" y="118.684" style="-inkscape-font-specification:Monospace Bold" font-weight="bold" font-family="Monospace">10010011</tspan>
    </text>
    <text x="99.41" y="67.898" fill="url(#aW)" style="-inkscape-font-specification:Sans" transform="rotate(-8.9)" font-size="19.8" font-family="Sans">
      <tspan x="99.41" y="67.898" style="-inkscape-font-specification:Monospace Bold" font-weight="bold" font-family="Monospace">01011001</tspan><tspan x="99.41" y="92.648" style="-inkscape-font-specification:Monospace Bold" font-weight="bold" font-family="Monospace">00110101</tspan><tspan x="99.41" y="117.398" style="-inkscape-font-specification:Monospace Bold" font-weight="bold" font-family="Monospace">10010011</tspan>
    </text>
    <path fill="url(#aX)" d="M219.463 129.09c-26.794 21.983-41.808 21.007-38.075 13.138 3.734-7.87 42.326-41.655 51.448-43.748 9.12-2.093 2.275 18.04-13.373 30.61z" opacity=".765"/>
  </g>
</svg>
