<?xml version="1.0" encoding="UTF-8"?>
<svg id="Group_553" data-name="Group 553" xmlns="http://www.w3.org/2000/svg" width="34.5" height="34.5" viewBox="0 0 34.5 34.5">
  <g id="Ellipse_37" data-name="Ellipse 37" fill="#fff" stroke="#707070" stroke-width="1">
    <circle cx="17.25" cy="17.25" r="17.25" stroke="none"/>
    <circle cx="17.25" cy="17.25" r="16.75" fill="none"/>
  </g>
  <path id="skip_previous_black_18dp" d="M7.2,6a1.2,1.2,0,0,1,1.2,1.2V19.166a1.2,1.2,0,0,1-2.394,0V7.2A1.2,1.2,0,0,1,7.2,6Zm4.381,8.163,6.906,4.871a1.2,1.2,0,0,0,1.891-.981V8.31a1.2,1.2,0,0,0-1.891-.981L11.578,12.2a1.2,1.2,0,0,0,0,1.963Z" transform="translate(4.062 4.062)"/>
</svg>
