<?xml version="1.0" encoding="UTF-8"?>
<svg id="Group_555" data-name="Group 555" xmlns="http://www.w3.org/2000/svg" width="34.5" height="34.5" viewBox="0 0 34.5 34.5">
  <g id="Ellipse_35" data-name="Ellipse 35" fill="#fff" stroke="#707070" stroke-width="1">
    <circle cx="17.25" cy="17.25" r="17.25" stroke="none"/>
    <circle cx="17.25" cy="17.25" r="16.75" fill="none"/>
  </g>
  <g id="restart_alt_black_24dp_1_" data-name="restart_alt_black_24dp (1)" transform="translate(3.969 4.218)">
    <g id="Group_541" data-name="Group 541">
      <path id="Path_206" data-name="Path 206" d="M0,0H26.564V26.564H0Z" fill="none"/>
    </g>
    <g id="Group_543" data-name="Group 543" transform="translate(4.427 2.998)">
      <g id="Group_542" data-name="Group 542">
        <path id="Path_207" data-name="Path 207" d="M12.406,5.245V3.264a.548.548,0,0,0-.941-.387l-3.1,3.088a.548.548,0,0,0,0,.786l3.088,3.088a.56.56,0,0,0,.952-.4V7.458a6.636,6.636,0,0,1,1.871,13.005,1.083,1.083,0,0,0-.764,1.051h0A1.1,1.1,0,0,0,14.9,22.589a8.85,8.85,0,0,0-2.49-17.344Z" transform="translate(-3.551 -2.708)"/>
        <path id="Path_208" data-name="Path 208" d="M6.214,13.554A6.637,6.637,0,0,1,7.531,9.581a1.112,1.112,0,0,0-.1-1.45h0a1.112,1.112,0,0,0-1.66.111,8.847,8.847,0,0,0,4.593,13.8,1.1,1.1,0,0,0,1.384-1.074h0a1.083,1.083,0,0,0-.764-1.051A6.654,6.654,0,0,1,6.214,13.554Z" transform="translate(-4 -2.163)"/>
      </g>
    </g>
  </g>
</svg>
