<svg xmlns="http://www.w3.org/2000/svg" width="520" height="20"
     fill="none" stroke="#000" stroke-width="2">
  <!-- 0: straight / continue -->
  <path d="M10 17 v-13 m2.5 2 l-2.5 -2.5 -2.5 2.5 z"/>
  <!-- 1: turn slight right / stay right -->
  <path d="M27 17 v-3 q0 -2 2 -4 l5 -5 m0 0 h-3 l3 3 z"/>
  <!-- 2: turn right -->
  <path d="M48 17 v-5 q0 -3 3 -3 h4 m-2 2.5 l2.5 -2.5 -2.5 -2.5 z"/>
  <!-- 3: turn sharp right-->
  <path d="M68 17 v-7 q0 -6 6 0 l2 2 m0 0 v-3 l-3 3 z"/>
  <!-- 4: u-turn -->
  <path d="M96 17 v-7 a4.5 4.5 0 0 0 -9 0 v5 m-2.5 -2 l2.5 2.5 2.5 -2.5 z"/>
  <!-- 5: turn slight left / stay left -->
  <path d="M113 17 v-3 q0 -2 -2 -4 l-5 -5 m0 0 h3 l-3 3 z"/>
  <!-- 6: turn left -->
  <path d="M133 17 v-5 q0 -3 -3 -3 h-4 m2 2.5 l-2.5 -2.5 2.5 -2.5 z"/>
  <!-- 7: turn sharp left-->
  <path d="M153 17 v-7 q0 -6 -6 0 l-2 2 m0 0 v-3 l3 3 z"/>
  <!-- 8: start -->
  <path d="M170 16 a1 1 0 1 0 0 -2 1 1 0 1 0 0 2 m0 -4 v-8 m2.5 2 l-2.5 -2.5 -2.5 2.5 z"/>
  <!-- 10: roundabout -->
  <path d="M208 17 v-3 a 3 3 0 1 0 0 -6 3 3 0 1 0 0 6 m2 -4 l5 -5 m0 0 h-3 l3 3 z"/>
  <!-- 14: destination -->
  <path d="M290 5 a1 1 0 1 0 0 -2 1 1 0 1 0 0 2 m0 12 v-8 m2.5 2 l-2.5 -2.5 -2.5 2.5 z"/>
  <!-- 17: ferry -->
  <g stroke-width="1">
    <path d="M350.5 8 l-6 2 l2.5 2 v1.5 a2.828 2.828 0 0 1 1.5 1 a2.828 2.828 0 0 1 4 0 a2.828 2.828 0 0 1 1.5 -1 v-1.5 l2.5 -2 z" fill="#000"/>
    <path d="M346.5 9.5 v-5 h8 v5 m-5.5 -6 h3"/>
    <path d="M345.5 16.5 a1.414 2.828 0 0 1 2 0 a1.414 2.828 0 0 0 2 0 a1.414 2.828 0 0 1 2 0 a1.414 2.828 0 0 0 2 0 a1.414 2.828 0 0 1 2 0"/>
  </g>
  <!-- 18: fork right -->
  <path d="M369 14 q0 -2 -2 -4 l-3 -3" opacity=".5"/>
  <path d="M369 17 v-3 q0 -2 2 -4 l5 -5 m0 0 h-3 l3 3 z"/>
  <!-- 19: fork left -->
  <path d="M391 14 q0 -2 2 -4 l3 -3" opacity=".5"/>
  <path d="M391 17 v-3 q0 -2 -2 -4 l-5 -5 m0 0 h3 l-3 3 z"/>
  <!-- 20: merge left -->
  <path d="M408 7 q0 2 -2 4 l-3 3" opacity=".5"/>
  <path d="M408 4 v3 q0 2 2 4 l5 5 m-5 -5 h3 l-3 3 z"/>
  <!-- 21: merge right-->
  <path d="M432 7 q0 2 2 4 l3 3" opacity=".5"/>
  <path d="M432 4 v3 q0 2 -2 4 l-5 5 m5 -5 h-3 l3 3 z"/>
  <!-- 22: end of road right-->
  <path d="M442 9 h10" opacity=".5"/>
  <path d="M449 17 v-5 q0 -3 3 -3 h4 m-2 2.5 l2.5 -2.5 -2.5 -2.5 z"/>
  <!-- 23: end of road left-->
  <path d="M478 9 h-10" opacity=".5"/>
  <path d="M471 17 v-5 q0 -3 -3 -3 h-4 m2 2.5 l-2.5 -2.5 2.5 -2.5 z"/>
  <!-- 24: off ramp / exit right -->
  <path d="M489 14 v-8" opacity=".5"/>
  <path d="M489 17 v-3 q0 -2 2 -4 l5 -5 m0 0 h-3 l3 3 z"/>
  <!-- 25: off ramp / exit left -->
  <path d="M511 14 v-8" opacity=".5"/>
  <path d="M511 17 v-3 q0 -2 -2 -4 l-5 -5 m0 0 h3 l-3 3 z"/>
</svg>
