<svg xmlns="http://www.w3.org/2000/svg" width="520" height="20">
  <style><![CDATA[.C{fill-opacity:.51}.D{stroke-width:2}]]></style>
  <g>
    <path d="M9 6.969V17h2V6.969z"/>
    <path d="M15 6.985L10 2 5 7zm72.125-2.001V5H86v7.006L82 12l5 5 5-4.984-4-.006V6.984h7V17h2V5h-.469v-.016h-9.406zM28 3.988l2.814 2.82-4.777 4.746v.043H26V17h2v-4.576l4.229-4.201L35 11V4l-7-.012zM53 4l.006 3.984H47v2V17h2V9.984h4.01L53.016 14 58 9l-5-5zm14.025.41L67.004 17h2V9.447l3.686 3.871-2.683 2.695 6.99.055.011-7.085-2.855 2.921zM170 3l-4 5h3v5h2V8h3zm19 3.969V17h2V6.969z"/>
    <path d="M195 6.985L190 2l-5 5zm-83-2.997l-2.814 2.82 4.777 4.746v.043H114V17h-2v-4.576l-4.229-4.201L105 11V4l7-.012zM128 4l-.006 3.984H134v2V17h-2V9.985h-4.01L127.984 14 123 9l5-5zm25.986.41l.022 12.59h-2V9.447l-3.686 3.871 2.683 2.695-6.99.055-.011-7.085 2.855 2.921z"/>
  </g>
  <circle r="3" transform="matrix(1 0 0 -1 -2 -1032.362)" cy="-1044.362" cx="210.041" fill="none" stroke="#000" class="D"/>
  <path d="M209 3.988l2.814 2.82-1.766 1.754a4.03 4.03 0 0 1 1.418 1.41l1.762-1.75L216 11V4l-7-.012zm-2 11.855V17h2v-1.131c-.309.077-.627.131-.959.131-.362 0-.707-.065-1.041-.156z"/>
  <circle cx="210.041" cy="-1044.362" transform="matrix(1 0 0 -1 18 -1032.362)" r="3" fill="none" stroke="#000" class="D"/>
  <path d="M229 3.988l2.814 2.82-1.766 1.754a4.03 4.03 0 0 1 1.418 1.41l1.762-1.75L236 11V4l-7-.012zm-2 11.855V17h2v-1.131c-.309.077-.627.131-.959.131-.362 0-.707-.065-1.041-.156z"/>
  <circle r="3" transform="matrix(1 0 0 -1 38 -1032.362)" cy="-1044.362" cx="210.041" fill="none" stroke="#000" class="D"/>
  <g>
    <path d="M249 3.988l2.814 2.82-1.766 1.754a4.03 4.03 0 0 1 1.418 1.41l1.762-1.75L256 11V4l-7-.012zm-2 11.855V17h2v-1.131c-.309.077-.627.131-.959.131a3.94 3.94 0 0 1-1.041-.156zm22-8.874V17h2V6.969z"/>
    <path d="M275 6.985L270 2l-5 5zM290 3a2 2 0 1 0 0 4 2 2 0 1 0 0-4zm0 4l-4 5h3v5h2v-5h3l-4-5zm14.011-.02v7.976h2V6.98z"/>
    <path d="M308.006 6.985L305.011 4 302 7.012zm4.005 5.047V2h2v10.031z"/>
    <path d="M318.011 12.016l-5 4.984-5-5z"/>
  </g>
  <g transform="matrix(-1 0 0 -1 640.01146 1051.3624)">
    <path d="M304.011 1039.342v7.976h2v-7.976z"/>
    <path d="M308.006 1039.347l-2.995-2.985-3.011 3.012zm4.005 5.047v-10.031h2v10.031z"/>
    <path d="M318.011 1044.378l-5 4.984-5-5z"/>
  </g>
  <g>
    <path d="M349 3v1h-3v5.227l-2.045.773L347 13v.904l1.611 1.426 1.889-1.672 1.891 1.672L354 13.906V13l3.045-2.955L355 9.262V4h-3V3h-3zm-2 2h7v3.877l-3.514-1.346L347 8.85V5zm-.279 9.992l-2.221 1.967.662.748 1.559-1.379 1.89 1.672 1.889-1.672L352.391 18l1.889-1.672 1.559 1.379.662-.748-2.221-1.967-1.889 1.674-1.891-1.674-1.889 1.674-1.891-1.674zM370 3.988l2.814 2.82-4.777 4.746v.043H368V17h2v-4.576l4.229-4.201L377 11V4l-7-.012z"/>
    <path d="M365.186 6.809l4.777 4.746v.043H370V17h-2v-4.576l-4.229-4.201z" class="C"/>
  </g>
  <g transform="matrix(-1 0 0 1 760.00001 -1032.362)">
    <path d="M370 1036.351l2.814 2.82-4.777 4.746v.043H368v5.402h2v-4.576l4.229-4.201 2.771 2.777v-7l-7-.012z"/>
    <path d="M365.186 1039.171l4.777 4.746v.043H370v5.402h-2v-4.576l-4.229-4.201z" class="C"/>
  </g>
  <g>
    <path d="M407.029 3.988v5.402h.037v.043l1.951 1.938v5.639l2.816-2.82 2.727 2.797 1.445-1.383-2.768-2.838.019-.021 2.76-2.746-5.529.01-1.459-1.443V3.988h-2z"/>
    <path d="M404.214 14.18l4.777-4.746V9.39h.037V3.988h-2v4.576l-4.229 4.201z" class="C"/>
  </g>
  <g transform="matrix(-1 0 0 1 840.01754 -1032.362)">
    <path d="M407.029 1036.35v5.402h.037v.043l1.951 1.938v5.639l2.816-2.82 2.727 2.797 1.445-1.383-2.768-2.838.019-.021 2.76-2.746-5.529.01-1.459-1.443v-4.576h-2z"/>
    <path d="M404.214 1046.542l4.777-4.746v-.043h.037v-5.402h-2v4.576l-4.229 4.201z" class="C"/>
  </g>
  <g>
    <path d="M448 9v8h2V9zm5.016 4L458 8l-5-5z"/>
    <path d="M454 6.985h-6v2h6z"/>
    <path d="M450.016 6.985h-7.963v2h7.963z" class="C"/>
    <path d="M472.053 9v8h-2V9zm-5.016 4l-4.984-5 5-5z"/>
    <path d="M466.053 6.985h6v2h-6z"/>
    <path d="M470.037 6.985H478v2h-7.963z" class="C"/>
    <path d="M490 3.988l2.814 2.82-4.777 4.746v.043H488V17h2v-4.576l4.229-4.201L497 11V4l-7-.012z"/>
    <path d="M490 6v11h-2V6z" class="C"/>
    <path d="M490 3.988l2.814 2.82-4.777 4.746v.043H488V17h2v-4.576l4.229-4.201L497 11V4l-7-.012zm20 0l-2.814 2.82 4.777 4.746v.043H512V17h-2v-4.576l-4.229-4.201L503 11V4l7-.012z"/>
    <path d="M510 6v11h2V6z" class="C"/>
    <path d="M510 3.988l-2.814 2.82 4.777 4.746v.043H512V17h-2v-4.576l-4.229-4.201L503 11V4l7-.012z"/>
  </g>
</svg>
