<svg xmlns:dc="http://purl.org/dc/elements/1.1/" xmlns:cc="http://creativecommons.org/ns#" xmlns:rdf="http://www.w3.org/1999/02/22-rdf-syntax-ns#" xmlns:svg="http://www.w3.org/2000/svg" xmlns="http://www.w3.org/2000/svg" id="svg7082" version="1.1" width="16" height="16"><metadata id="metadata7088"><rdf:RDF><cc:Work><dc:format>image/svg+xml</dc:format><dc:type rdf:resource="http://purl.org/dc/dcmitype/StillImage"/><dc:title/></cc:Work></rdf:RDF></metadata><g id="g8341" transform="translate(31,0)"><path style="marker:none" d="M 2 0 C 0.892 0 0 0.892 0 2 L 0 14 C 0 15.108 0.892 16 2 16 L 14 16 C 15.108 16 16 15.108 16 14 L 16 2 C 16 0.892 15.108 0 14 0 L 2 0 z M 4 3 L 4.5 3 C 9.5 3 13 6.5 13 11.5 L 12.96875 12 L 11 12 L 11 11.5 C 11 8 8 5 4.5 5 L 4 5 L 4 3.5 L 4 3 z M 4 6.5 L 4.5 6.5 C 7 6.5 9.5 9 9.5 11.5 L 9.5 12 L 7.5 12 L 7.5 11.5 C 7.5 10 6 8.5 4.5 8.5 L 4 8.5 L 4 6.5 z M 4.5 10 C 5.328428 10 6 10.671573 6 11.5 C 6 12.328428 5.328428 13 4.5 13 C 3.671572 13 3 12.328428 3 11.5 C 3 10.671573 3.671572 10 4.5 10 z" transform="translate(-31,0)" id="rect7131" color="#000000" fill="#f69e42" fill-opacity="1" fill-rule="nonzero" stroke="none" stroke-width="1" visibility="visible" display="inline" overflow="visible" enable-background="accumulate"/></g><path style="marker:none" d="m -18,-60 c -1.108,0 -2,0.892 -2,2 l 0,12 c 0,1.108 0.892,2 2,2 l 12,0 c 1.108,0 2,-0.892 2,-2 l 0,-12 c 0,-1.108 -0.892,-2 -2,-2 l -12,0 z m 3.75,2.1875 c 4.10919,0.731197 7.331303,3.953309 8.0625,8.0625 l -1.90625,0.4375 c -0.554215,-3.370687 -3.223063,-6.039535 -6.59375,-6.59375 l 0.4375,-1.90625 z m -0.875,3.875 c 2.621108,0.378627 4.683873,2.441391 5.0625,5.0625 l -2,0.4375 c -0.203763,-1.856557 -1.643443,-3.296237 -3.5,-3.5 l 0.4375,-2 z M -15.5,-50 c 0.828427,0 1.5,0.671573 1.5,1.5 0,0.828427 -0.671573,1.5 -1.5,1.5 -0.828427,0 -1.5,-0.671573 -1.5,-1.5 0,-0.828427 0.671573,-1.5 1.5,-1.5 z" id="rect7131-9" color="#000000" fill="#f69e42" fill-opacity="1" fill-rule="nonzero" stroke="none" stroke-width="1" visibility="visible" display="inline" overflow="visible" enable-background="accumulate"/></svg>