<svg xmlns="http://www.w3.org/2000/svg" xmlns:xlink="http://www.w3.org/1999/xlink" width="530" height="200"><style><![CDATA[.E{stroke-width:4}.F{filter:url(#filter7542-4-8-0)}.G{fill:#9ed184}.H{fill-rule:nonzero}]]></style><defs><filter id="A" x="-.157" width="1.313" y="-.313" height="1.627"><feGaussianBlur stdDeviation="1.306"/></filter><linearGradient id="B" x1="1225.688" y1="36.5" x2="1225.688" y2="119" xlink:href="#R"><stop offset="0" stop-color="#b2dbea"/><stop offset="1" stop-color="#7092ff"/></linearGradient><clipPath id="C"><path d="M 1126,118.99999 A 110,110 0 0 1 1346,119" transform="matrix(1.454546 0 0 1.454546 -611.81823 -534.09093)" fill="#000" stroke="none" fill-opacity="1" class="E H"/></clipPath><linearGradient id="D" x1="1184" y1="-405" x2="1184" y2="-533.035" xlink:href="#R"><stop offset="0" stop-color="#fff"/><stop offset="1" stop-color="#fff" stop-opacity="0"/></linearGradient><clipPath id="E"><path transform="matrix(1.454546 0 0 1.454546 -622.81822 -83.09091)" d="M 1126,118.99999 A 110,110 0 0 1 1346,119" fill="#c5c5d7" stroke="none" fill-opacity="1" class="E H"/></clipPath><filter id="F" color-interpolation-filters="sRGB" x="-.046" y="-.087" width="1.091" height="1.174"><feGaussianBlur stdDeviation="5.813"/></filter><linearGradient id="G" x1="307" y1="200" x2="307" y2="60.267" xlink:href="#R"><stop offset="0" stop-color="#cbeea7"/><stop offset="1" stop-color="#cee8c1"/></linearGradient><linearGradient y2="942.362" x2="1254.219" y1="789.359" x1="1254.219" id="H" xlink:href="#R"><stop offset="0" stop-color="#222"/><stop offset="1" stop-color="#adadc6" stop-opacity="0"/></linearGradient><radialGradient r="110" fy="124.603" fx="1218.2" cy="124.603" cx="1218.2" gradientTransform="matrix(8.9292362e-8,-1.09375,1.0937499,1.4609618e-6,1099.715,1451.4055)" id="I" xlink:href="#R"><stop offset="0" stop-color="#ccf1ff" stop-opacity="0"/><stop offset=".857" stop-color="#ccf1ff" stop-opacity="0"/><stop offset="1" stop-color="#789afb"/></radialGradient><path id="J" d="M1023.754-506.266h4.834v-14.194l-4.497 1.113v-3.896l4.526-1.084h4.175v18.062h4.834v3.809h-13.872z"/><path id="K" d="M1040.863-513.37q0-5.684 1.802-8.511 1.802-2.842 5.42-2.842 3.633 0 5.435 2.827 1.802 2.827 1.802 8.525 0 5.684-1.802 8.511-1.802 2.827-5.435 2.827-3.618 0-5.42-2.827-1.802-2.842-1.802-8.511zm5.039 5.845q.688 1.831 2.183 1.831 1.509 0 2.197-1.831.688-1.831.688-5.845 0-1.523-.102-2.725l-5.112 8.145q.073.234.146.425zm2.183-13.535q-1.494 0-2.183 1.831-.688 1.831-.688 5.859 0 1.245.059 2.271l5.039-8.042q-.015-.044-.029-.088-.688-1.831-2.197-1.831z"/><path id="L" d="M1076.986-513.37q0-5.684 1.802-8.511 1.802-2.842 5.42-2.842 3.633 0 5.435 2.827 1.802 2.827 1.802 8.525 0 5.684-1.802 8.511-1.802 2.827-5.435 2.827-3.618 0-5.42-2.827-1.802-2.842-1.802-8.511zm5.039 5.845q.688 1.831 2.183 1.831 1.509 0 2.197-1.831.688-1.831.688-5.845 0-1.523-.103-2.725l-5.112 8.145q.073.234.147.425zm2.183-13.535q-1.494 0-2.183 1.831-.688 1.831-.688 5.859 0 1.245.059 2.271l5.039-8.042q-.015-.044-.029-.088-.688-1.831-2.197-1.831z"/><path id="M" d="M1096-506.266h4.834v-14.194l-4.497 1.113v-3.896l4.526-1.084h4.175v18.062h4.834v3.809H1096z"/><path id="N" d="M1149.232-513.37q0-5.684 1.802-8.511 1.802-2.842 5.42-2.842 3.633 0 5.435 2.827 1.802 2.827 1.802 8.525 0 5.684-1.802 8.511-1.802 2.827-5.435 2.827-3.618 0-5.42-2.827-1.802-2.842-1.802-8.511zm5.039 5.845q.688 1.831 2.183 1.831 1.509 0 2.197-1.831.688-1.831.688-5.845 0-1.523-.102-2.725l-5.112 8.145q.073.234.147.425zm2.183-13.535q-1.494 0-2.183 1.831-.688 1.831-.688 5.859 0 1.245.059 2.271l5.039-8.042q-.015-.044-.029-.088-.688-1.831-2.197-1.831z"/><path id="O" d="M1185.356-513.37q0-5.684 1.802-8.511 1.802-2.842 5.42-2.842 3.633 0 5.435 2.827 1.802 2.827 1.802 8.525 0 5.684-1.802 8.511-1.802 2.827-5.435 2.827-3.618 0-5.42-2.827-1.802-2.842-1.802-8.511zm5.039 5.845q.688 1.831 2.183 1.831 1.509 0 2.197-1.831.688-1.831.688-5.845 0-1.523-.102-2.725l-5.112 8.145q.073.234.147.425zm2.183-13.535q-1.494 0-2.183 1.831-.688 1.831-.688 5.859 0 1.245.058 2.271l5.039-8.042q-.015-.044-.029-.088-.688-1.831-2.197-1.831z"/><path id="P" d="M1330.8-506.266h4.834v-14.194l-4.497 1.113v-3.896l4.526-1.084h4.175v18.062h4.834v3.809H1330.8z"/><path id="Q" d="M1285 897.362l-15 15h-20l10 10h20l5-5h10l10 10v10h5l10-10h15.969v-15l-25.969-15z"/><linearGradient id="R" gradientUnits="userSpaceOnUse"/><path id="S" d="M1059.877-506.266h4.834v-14.194l-4.497 1.113v-3.896l4.526-1.084h4.175v18.062h4.834v3.809h-13.872z"/><path id="T" d="M1113.109-513.37q0-5.684 1.802-8.511 1.802-2.842 5.42-2.842 3.633 0 5.435 2.827 1.802 2.827 1.802 8.525 0 5.684-1.802 8.511-1.802 2.827-5.435 2.827-3.618 0-5.42-2.827-1.802-2.842-1.802-8.511zm5.039 5.845q.688 1.831 2.183 1.831 1.509 0 2.197-1.831.688-1.831.688-5.845 0-1.523-.102-2.725l-5.112 8.145q.073.234.146.425zm2.183-13.535q-1.494 0-2.183 1.831-.688 1.831-.688 5.859 0 1.245.059 2.271l5.039-8.042q-.015-.044-.029-.088-.688-1.831-2.197-1.831z"/><path id="U" d="M1221.479-513.37q0-5.684 1.802-8.511 1.802-2.842 5.42-2.842 3.633 0 5.435 2.827 1.802 2.827 1.802 8.525 0 5.684-1.802 8.511-1.802 2.827-5.435 2.827-3.618 0-5.42-2.827-1.802-2.842-1.802-8.511zm5.039 5.845q.688 1.831 2.183 1.831 1.509 0 2.197-1.831.688-1.831.688-5.845 0-1.523-.102-2.725l-5.112 8.145q.073.234.147.425zm2.183-13.535q-1.494 0-2.183 1.831-.688 1.831-.688 5.859 0 1.245.059 2.271l5.039-8.042q-.015-.044-.029-.088-.688-1.831-2.197-1.831z"/><path id="V" d="M1257.602-513.37q0-5.684 1.802-8.511 1.802-2.842 5.42-2.842 3.633 0 5.435 2.827 1.802 2.827 1.802 8.525 0 5.684-1.802 8.511-1.802 2.827-5.435 2.827-3.618 0-5.42-2.827-1.802-2.842-1.802-8.511zm5.039 5.845q.688 1.831 2.183 1.831 1.509 0 2.197-1.831.688-1.831.688-5.845 0-1.523-.103-2.725l-5.112 8.145q.073.234.147.425zm2.183-13.535q-1.494 0-2.183 1.831-.688 1.831-.688 5.859 0 1.245.059 2.271l5.039-8.042q-.015-.044-.029-.088-.688-1.831-2.197-1.831z"/><path id="W" d="M1096-468.766h4.834v-14.194l-4.497 1.113v-3.896l4.526-1.084h4.175v18.062h4.834v3.809H1096z"/><path id="X" d="M1185.356-475.87q0-5.684 1.802-8.511 1.802-2.842 5.42-2.842 3.633 0 5.435 2.827 1.802 2.827 1.802 8.525 0 5.684-1.802 8.511-1.802 2.827-5.435 2.827-3.618 0-5.42-2.827-1.802-2.842-1.802-8.511zm5.039 5.845q.688 1.831 2.183 1.831 1.509 0 2.197-1.831.688-1.831.688-5.845 0-1.523-.102-2.725l-5.112 8.145q.073.234.147.425zm2.183-13.535q-1.494 0-2.183 1.831-.688 1.831-.688 5.859 0 1.245.058 2.271l5.039-8.042q-.015-.044-.029-.088-.688-1.831-2.197-1.831z"/><path id="Y" d="M1330.8-356.266h4.834v-14.194l-4.497 1.113v-3.896l4.526-1.084h4.175v18.062h4.834v3.809H1330.8z"/><linearGradient xlink:href="#D" id="Z"/><linearGradient xlink:href="#D" /><linearGradient id="b" x1="1127" y1="942.362" x2="1127" y2="802.63" xlink:href="#R"><stop offset="0" stop-color="#cbeea7"/><stop offset="1" stop-color="#cee8c1"/></linearGradient><path id="c" d="M1132.123-506.266h4.834v-14.194l-4.497 1.113v-3.896l4.526-1.084h4.175v18.062h4.834v3.809h-13.872z"/><path id="d" d="M1275.663-513.37q0-5.684 1.802-8.511 1.802-2.842 5.42-2.842 3.633 0 5.435 2.827 1.802 2.827 1.802 8.525 0 5.684-1.802 8.511-1.802 2.827-5.435 2.827-3.618 0-5.42-2.827-1.802-2.842-1.802-8.511zm5.039 5.845q.688 1.831 2.183 1.831 1.509 0 2.197-1.831.688-1.831.688-5.845 0-1.523-.102-2.725l-5.112 8.145q.073.234.146.425zm2.183-13.535q-1.494 0-2.183 1.831-.688 1.831-.688 5.859 0 1.245.059 2.271l5.039-8.042q-.015-.044-.029-.088-.688-1.831-2.197-1.831z"/><path id="e" d="M1293.725-513.37q0-5.684 1.802-8.511 1.802-2.842 5.42-2.842 3.633 0 5.435 2.827 1.802 2.827 1.802 8.525 0 5.684-1.802 8.511-1.802 2.827-5.435 2.827-3.618 0-5.42-2.827-1.802-2.842-1.802-8.511zm5.039 5.845q.688 1.831 2.183 1.831 1.509 0 2.197-1.831.688-1.831.688-5.845 0-1.523-.102-2.725l-5.112 8.145q.073.234.147.425zm2.183-13.535q-1.494 0-2.183 1.831-.688 1.831-.688 5.859 0 1.245.059 2.271l5.039-8.042q-.015-.044-.029-.088-.688-1.831-2.197-1.831z"/><path id="f" d="M1076.986-475.87q0-5.684 1.802-8.511 1.802-2.842 5.42-2.842 3.633 0 5.435 2.827 1.802 2.827 1.802 8.525 0 5.684-1.802 8.511-1.802 2.827-5.435 2.827-3.618 0-5.42-2.827-1.802-2.842-1.802-8.511zm5.039 5.845q.688 1.831 2.183 1.831 1.509 0 2.197-1.831.688-1.831.688-5.845 0-1.523-.103-2.725l-5.112 8.145q.073.234.147.425zm2.183-13.535q-1.494 0-2.183 1.831-.688 1.831-.688 5.859 0 1.245.059 2.271l5.039-8.042q-.015-.044-.029-.088-.688-1.831-2.197-1.831z"/><path id="g" d="M1096-431.266h4.834v-14.194l-4.497 1.113v-3.896l4.526-1.084h4.175v18.062h4.834v3.809H1096z"/><path id="h" d="M1185.356-438.37q0-5.684 1.802-8.511 1.802-2.842 5.42-2.842 3.633 0 5.435 2.827 1.802 2.827 1.802 8.525 0 5.684-1.802 8.511-1.802 2.827-5.435 2.827-3.618 0-5.42-2.827-1.802-2.842-1.802-8.511zm5.039 5.845q.688 1.831 2.183 1.831 1.509 0 2.197-1.831.688-1.831.688-5.845 0-1.523-.102-2.725l-5.112 8.145q.073.234.147.425zm2.183-13.535q-1.494 0-2.183 1.831-.688 1.831-.688 5.859 0 1.245.058 2.271l5.039-8.042q-.015-.044-.029-.088-.688-1.831-2.197-1.831z"/><path id="i" d="M1330.8-318.766h4.834v-14.194l-4.497 1.113v-3.896l4.526-1.084h4.175v18.062h4.834v3.809H1330.8z"/></defs><g transform="translate(-840 -742.362)"><path transform="matrix(1.5 0 0 1.5 -649.00018 763.86218)" d="M 1126,118.99999 A 110,110 0 0 1 1346,119" fill="url(#I)"/><path d="M964.625 854.8a4 4 0 0 0-3.844 3.563 4 4 0 0 0-5.937 4.344s.545 2.183 2.188 5.188 4.458 7.223 9.281 12.438a4.003 4.003 0 0 0 6.938-2.25 4.003 4.003 0 0 0 3.75.125l.219.688a4.003 4.003 0 1 0 7.563-2.625c-1.972-5.698-3.812-17.531-3.812-17.531a4 4 0 0 0-3.844-3.469 4 4 0 0 0-4.094 4.656 195.62 195.62 0 0 0 1.313 7.469c-2.087-2.643-3.459-4.782-4.312-6.344-1.295-2.37-1.375-3.062-1.375-3.062a4 4 0 0 0-4.031-3.187z" fill="#5e74ac" class="F"/><path d="M952.625 862.8a4 4 0 0 0-3.781 4.906s.545 2.183 2.188 5.188c1.41 2.58 3.707 6.05 7.375 10.281.112.129.198.276.313.406.113.137.224.285.344.406l.406.406.844.938a4.003 4.003 0 0 0 .656.562c5.987 6.043 9.082 9.019 11.688 10.906 5.068 3.672 10.794 9.231 29.469 15.594s46.943 9.604 85.469-.719a10.11 10.11 0 0 0 6.219-4.625c1.352-2.285 1.751-8.092 1.063-10.656a10.11 10.11 0 0 0-4.75-6.125c-2.315-1.301-5.17-1.652-7.719-.906-35.195 9.431-57.917 6.169-72.812 1.094s-18.163-6.308-22.25-11.219c-5.443-6.541-8.45-10.875-14.781-10.875h-8.125c-2.537 0-4.359.782-5.625 2l-.781-1.312c-1.295-2.37-1.375-3.062-1.375-3.062a4 4 0 0 0-4.031-3.187z" fill="#7693dc" class="F"/><path d="M975.266 833.362a7.5 7.5 0 0 0-7.5 7.5c0 4.142 7.5 10.5 7.5 10.5s7.5-6.358 7.5-10.5a7.5 7.5 0 0 0-7.5-7.5zm.234 4.5a3 3 0 1 1 0 6 3 3 0 1 1 0-6z" fill="#222"/><ellipse transform="matrix(.75 0 0 .5 258.75 862.36218)" cx="945" cy="25" rx="10" ry="5" fill="#3f4767" fill-opacity=".392" filter="url(#A)"/><path d="M983.25 851.862a3.75 3.75 0 0 0-3.75 3.75c0 .378.068.734.172 1.078l-9.344 9.344a3.7 3.7 0 0 0-1.078-.172 3.75 3.75 0 1 0 3.75 3.75 3.7 3.7 0 0 0-.172-1.078l9.344-9.344a3.7 3.7 0 0 0 1.078.172 3.75 3.75 0 1 0 0-7.5zm0 2.25a1.5 1.5 0 1 1 0 3 1.5 1.5 0 1 1 0-3zm-14 14a1.5 1.5 0 1 1 0 3 1.5 1.5 0 1 1 0-3zm-23.846-18.968a3.75 3.75 0 0 0-1.373 5.123c.718 1.244 2.046 1.916 3.388 1.869l3.438 5.954c-.712 1.138-.794 2.625-.076 3.869a3.75 3.75 0 0 0 5.123 1.373c1.244-.718 1.916-2.046 1.869-3.388l5.954-3.437c1.138.712 2.625.794 3.869.076a3.75 3.75 0 0 0 1.373-5.123c-.718-1.244-2.046-1.916-3.388-1.869l-3.437-5.954c.712-1.138.794-2.625.076-3.869a3.75 3.75 0 0 0-5.123-1.373c-1.259.727-1.925 2.078-1.859 3.437l-.105.006-5.859 3.383c-1.138-.712-2.625-.794-3.869-.076zm1.125 1.949a1.5 1.5 0 1 1 1.5 2.598 1.5 1.5 0 0 1-1.5-2.598zm11.691-6.75a1.5 1.5 0 1 1 1.5 2.598 1.5 1.5 0 1 1-1.5-2.598zm-7.198 7.908l5.954-3.437a3.8 3.8 0 0 0 2.134.572l3.438 5.954a3.79 3.79 0 0 0-.572 2.134l-5.954 3.437a3.79 3.79 0 0 0-2.134-.572l-3.438-5.954a3.8 3.8 0 0 0 .572-2.134zm2.256 10.533a1.5 1.5 0 0 1 1.5 2.598 1.5 1.5 0 1 1-1.5-2.598zm11.691-6.75a1.5 1.5 0 0 1 1.5 2.598 1.5 1.5 0 0 1-1.5-2.598z" fill="#222"/><path transform="matrix(1.454546 0 0 1.454546 -592.81822 769.27127)" d="M 1126,119 A 110,110 0 0 1 1236,9 110,110 0 0 1 1346,119" fill="url(#B)"/><g transform="translate(19 1303.362)" clip-path="url(#C)" opacity=".25"><use xlink:href="#J" fill="url(#Z)"/><use xlink:href="#K" fill="url(#Z)"/><use xlink:href="#S" fill="url(#Z)"/><use xlink:href="#L" fill="url(#Z)"/><use xlink:href="#M" fill="url(#Z)"/><use xlink:href="#T" fill="url(#Z)"/><use xlink:href="#c" fill="url(#Z)"/><use xlink:href="#N" fill="url(#Z)"/><path d="M1168.246-506.266h4.834v-14.194l-4.497 1.113v-3.896l4.526-1.084h4.175v18.062h4.834v3.809h-13.872z" fill="url(#Z)"/><use xlink:href="#O" fill="url(#Z)"/><path d="M1204.369-506.266h4.834v-14.194l-4.497 1.113v-3.896l4.526-1.084h4.175v18.062h4.834v3.809h-13.872z" fill="url(#Z)"/><use xlink:href="#U" fill="url(#Z)"/><path d="M1240.492-506.266h4.834v-14.194l-4.497 1.113v-3.896l4.526-1.084h4.175v18.062h4.834v3.809h-13.872z" fill="url(#Z)"/><use xlink:href="#V" fill="url(#Z)"/><use xlink:href="#d" fill="url(#Z)"/><use xlink:href="#e" fill="url(#Z)"/><path d="M1312.738-506.266h4.834v-14.194l-4.497 1.113v-3.896l4.526-1.084h4.175v18.062h4.834v3.809h-13.872z" fill="url(#Z)"/><use xlink:href="#P" fill="url(#Z)"/><path d="M1023.754-468.766h4.834v-14.194l-4.497 1.113v-3.896l4.526-1.084h4.175v18.062h4.834v3.809h-13.872z" fill="url(#Z)"/><path d="M1040.863-475.87q0-5.684 1.802-8.511 1.802-2.842 5.42-2.842 3.633 0 5.435 2.827 1.802 2.827 1.802 8.525 0 5.684-1.802 8.511-1.802 2.827-5.435 2.827-3.618 0-5.42-2.827-1.802-2.842-1.802-8.511zm5.039 5.845q.688 1.831 2.183 1.831 1.509 0 2.197-1.831.688-1.831.688-5.845 0-1.523-.102-2.725l-5.112 8.145q.073.234.146.425zm2.183-13.535q-1.494 0-2.183 1.831-.688 1.831-.688 5.859 0 1.245.059 2.271l5.039-8.042q-.015-.044-.029-.088-.688-1.831-2.197-1.831z" fill="url(#Z)"/><path d="M1058.925-475.87q0-5.684 1.802-8.511 1.802-2.842 5.42-2.842 3.633 0 5.435 2.827 1.802 2.827 1.802 8.525 0 5.684-1.802 8.511-1.802 2.827-5.435 2.827-3.618 0-5.42-2.827-1.802-2.842-1.802-8.511zm5.039 5.845q.688 1.831 2.183 1.831 1.509 0 2.197-1.831.688-1.831.688-5.845 0-1.523-.102-2.725l-5.112 8.145q.073.234.147.425zm2.183-13.535q-1.494 0-2.183 1.831-.688 1.831-.688 5.859 0 1.245.059 2.271l5.039-8.042q-.015-.044-.029-.088-.688-1.831-2.197-1.831z" fill="url(#Z)"/><use xlink:href="#f" fill="url(#Z)"/><use xlink:href="#W" fill="url(#Z)"/><path d="M1113.109-475.87q0-5.684 1.802-8.511 1.802-2.842 5.42-2.842 3.633 0 5.435 2.827 1.802 2.827 1.802 8.525 0 5.684-1.802 8.511-1.802 2.827-5.435 2.827-3.618 0-5.42-2.827-1.802-2.842-1.802-8.511zm5.039 5.845q.688 1.831 2.183 1.831 1.509 0 2.197-1.831.688-1.831.688-5.845 0-1.523-.102-2.725l-5.112 8.145q.073.234.146.425zm2.183-13.535q-1.494 0-2.183 1.831-.688 1.831-.688 5.859 0 1.245.059 2.271l5.039-8.042q-.015-.044-.029-.088-.688-1.831-2.197-1.831z" fill="url(#Z)"/><path d="M1132.123-468.766h4.834v-14.194l-4.497 1.113v-3.896l4.526-1.084h4.175v18.062h4.834v3.809h-13.872z" fill="url(#Z)"/><path d="M1149.232-475.87q0-5.684 1.802-8.511 1.802-2.842 5.42-2.842 3.633 0 5.435 2.827 1.802 2.827 1.802 8.525 0 5.684-1.802 8.511-1.802 2.827-5.435 2.827-3.618 0-5.42-2.827-1.802-2.842-1.802-8.511zm5.039 5.845q.688 1.831 2.183 1.831 1.509 0 2.197-1.831.688-1.831.688-5.845 0-1.523-.102-2.725l-5.112 8.145q.073.234.147.425zm2.183-13.535q-1.494 0-2.183 1.831-.688 1.831-.688 5.859 0 1.245.059 2.271l5.039-8.042q-.015-.044-.029-.088-.688-1.831-2.197-1.831z" fill="url(#Z)"/><path d="M1168.246-468.766h4.834v-14.194l-4.497 1.113v-3.896l4.526-1.084h4.175v18.062h4.834v3.809h-13.872z" fill="url(#Z)"/><use xlink:href="#X" fill="url(#Z)"/><path d="M1204.369-468.766h4.834v-14.194l-4.497 1.113v-3.896l4.526-1.084h4.175v18.062h4.834v3.809h-13.872z" fill="url(#Z)"/><path d="M1221.479-475.87q0-5.684 1.802-8.511 1.802-2.842 5.42-2.842 3.633 0 5.435 2.827 1.802 2.827 1.802 8.525 0 5.684-1.802 8.511-1.802 2.827-5.435 2.827-3.618 0-5.42-2.827-1.802-2.842-1.802-8.511zm5.039 5.845q.688 1.831 2.183 1.831 1.509 0 2.197-1.831.688-1.831.688-5.845 0-1.523-.102-2.725l-5.112 8.145q.073.234.147.425zm2.183-13.535q-1.494 0-2.183 1.831-.688 1.831-.688 5.859 0 1.245.059 2.271l5.039-8.042q-.015-.044-.029-.088-.688-1.831-2.197-1.831z" fill="url(#Z)"/><path d="M1239.54-475.87q0-5.684 1.802-8.511 1.802-2.842 5.42-2.842 3.633 0 5.435 2.827 1.802 2.827 1.802 8.525 0 5.684-1.802 8.511-1.802 2.827-5.435 2.827-3.618 0-5.42-2.827-1.802-2.842-1.802-8.511zm5.039 5.845q.688 1.831 2.183 1.831 1.509 0 2.197-1.831.688-1.831.688-5.845 0-1.523-.103-2.725l-5.112 8.145q.073.234.147.425zm2.183-13.535q-1.494 0-2.183 1.831-.688 1.831-.688 5.859 0 1.245.059 2.271l5.039-8.042q-.015-.044-.029-.088-.688-1.831-2.197-1.831z" fill="url(#Z)"/><path d="M1258.554-468.766h4.834v-14.194l-4.497 1.113v-3.896l4.526-1.084h4.175v18.062h4.834v3.809h-13.872z" fill="url(#Z)"/><path d="M1276.615-468.766h4.834v-14.194l-4.497 1.113v-3.896l4.526-1.084h4.175v18.062h4.834v3.809h-13.872z" fill="url(#Z)"/><path d="M1293.725-475.87q0-5.684 1.802-8.511 1.802-2.842 5.42-2.842 3.633 0 5.435 2.827 1.802 2.827 1.802 8.525 0 5.684-1.802 8.511-1.802 2.827-5.435 2.827-3.618 0-5.42-2.827-1.802-2.842-1.802-8.511zm5.039 5.845q.688 1.831 2.183 1.831 1.509 0 2.197-1.831.688-1.831.688-5.845 0-1.523-.102-2.725l-5.112 8.145q.073.234.147.425zm2.183-13.535q-1.494 0-2.183 1.831-.688 1.831-.688 5.859 0 1.245.059 2.271l5.039-8.042q-.015-.044-.029-.088-.688-1.831-2.197-1.831z" fill="url(#Z)"/><path d="M1312.738-468.766h4.834v-14.194l-4.497 1.113v-3.896l4.526-1.084h4.175v18.062h4.834v3.809h-13.872z" fill="url(#Z)"/><path d="M1329.848-475.87q0-5.684 1.802-8.511 1.802-2.842 5.42-2.842 3.633 0 5.435 2.827 1.802 2.827 1.802 8.525 0 5.684-1.802 8.511-1.802 2.827-5.435 2.827-3.618 0-5.42-2.827-1.802-2.842-1.802-8.511zm5.039 5.845q.688 1.831 2.183 1.831 1.509 0 2.197-1.831.688-1.831.688-5.845 0-1.523-.103-2.725l-5.112 8.145q.073.234.147.425zm2.183-13.535q-1.494 0-2.183 1.831-.688 1.831-.688 5.859 0 1.245.059 2.271l5.039-8.042q-.015-.044-.029-.088-.688-1.831-2.197-1.831z" fill="url(#Z)"/><path d="M1023.754-431.266h4.834v-14.194l-4.497 1.113v-3.896l4.526-1.084h4.175v18.062h4.834v3.809h-13.872z" fill="url(#Z)"/><path d="M1040.863-438.37q0-5.684 1.802-8.511 1.802-2.842 5.42-2.842 3.633 0 5.435 2.827 1.802 2.827 1.802 8.525 0 5.684-1.802 8.511-1.802 2.827-5.435 2.827-3.618 0-5.42-2.827-1.802-2.842-1.802-8.511zm5.039 5.845q.688 1.831 2.183 1.831 1.509 0 2.197-1.831.688-1.831.688-5.845 0-1.523-.102-2.725l-5.112 8.145q.073.234.146.425zm2.183-13.535q-1.494 0-2.183 1.831-.688 1.831-.688 5.859 0 1.245.059 2.271l5.039-8.042q-.015-.044-.029-.088-.688-1.831-2.197-1.831z" fill="url(#Z)"/><path d="M1059.877-431.266h4.834v-14.194l-4.497 1.113v-3.896l4.526-1.084h4.175v18.062h4.834v3.809h-13.872z" fill="url(#Z)"/><path d="M1076.986-438.37q0-5.684 1.802-8.511 1.802-2.842 5.42-2.842 3.633 0 5.435 2.827 1.802 2.827 1.802 8.525 0 5.684-1.802 8.511-1.802 2.827-5.435 2.827-3.618 0-5.42-2.827-1.802-2.842-1.802-8.511zm5.039 5.845q.688 1.831 2.183 1.831 1.509 0 2.197-1.831.688-1.831.688-5.845 0-1.523-.103-2.725l-5.112 8.145q.073.234.147.425zm2.183-13.535q-1.494 0-2.183 1.831-.688 1.831-.688 5.859 0 1.245.059 2.271l5.039-8.042q-.015-.044-.029-.088-.688-1.831-2.197-1.831z" fill="url(#Z)"/><use xlink:href="#g" fill="url(#Z)"/><path d="M1113.109-438.37q0-5.684 1.802-8.511 1.802-2.842 5.42-2.842 3.633 0 5.435 2.827 1.802 2.827 1.802 8.525 0 5.684-1.802 8.511-1.802 2.827-5.435 2.827-3.618 0-5.42-2.827-1.802-2.842-1.802-8.511zm5.039 5.845q.688 1.831 2.183 1.831 1.509 0 2.197-1.831.688-1.831.688-5.845 0-1.523-.102-2.725l-5.112 8.145q.073.234.146.425zm2.183-13.535q-1.494 0-2.183 1.831-.688 1.831-.688 5.859 0 1.245.059 2.271l5.039-8.042q-.015-.044-.029-.088-.688-1.831-2.197-1.831z" fill="url(#Z)"/><path d="M1132.123-431.266h4.834v-14.194l-4.497 1.113v-3.896l4.526-1.084h4.175v18.062h4.834v3.809h-13.872z" fill="url(#Z)"/><path d="M1149.232-438.37q0-5.684 1.802-8.511 1.802-2.842 5.42-2.842 3.633 0 5.435 2.827 1.802 2.827 1.802 8.525 0 5.684-1.802 8.511-1.802 2.827-5.435 2.827-3.618 0-5.42-2.827-1.802-2.842-1.802-8.511zm5.039 5.845q.688 1.831 2.183 1.831 1.509 0 2.197-1.831.688-1.831.688-5.845 0-1.523-.102-2.725l-5.112 8.145q.073.234.147.425zm2.183-13.535q-1.494 0-2.183 1.831-.688 1.831-.688 5.859 0 1.245.059 2.271l5.039-8.042q-.015-.044-.029-.088-.688-1.831-2.197-1.831z" fill="url(#Z)"/><path d="M1168.246-431.266h4.834v-14.194l-4.497 1.113v-3.896l4.526-1.084h4.175v18.062h4.834v3.809h-13.872z" fill="url(#Z)"/><use xlink:href="#h" fill="url(#Z)"/><path d="M1203.417-438.37q0-5.684 1.802-8.511 1.802-2.842 5.42-2.842 3.633 0 5.435 2.827 1.802 2.827 1.802 8.525 0 5.684-1.802 8.511-1.802 2.827-5.435 2.827-3.618 0-5.42-2.827-1.802-2.842-1.802-8.511zm5.039 5.845q.688 1.831 2.183 1.831 1.509 0 2.197-1.831.688-1.831.688-5.845 0-1.523-.102-2.725l-5.112 8.145q.073.234.147.425zm2.183-13.535q-1.494 0-2.183 1.831-.688 1.831-.688 5.859 0 1.245.059 2.271l5.039-8.042q-.015-.044-.029-.088-.688-1.831-2.197-1.831z" fill="url(#Z)"/><path d="M1222.431-431.266h4.834v-14.194l-4.497 1.113v-3.896l4.526-1.084h4.175v18.062h4.834v3.809h-13.872z" fill="url(#Z)"/><path d="M1239.54-438.37q0-5.684 1.802-8.511 1.802-2.842 5.42-2.842 3.633 0 5.435 2.827 1.802 2.827 1.802 8.525 0 5.684-1.802 8.511-1.802 2.827-5.435 2.827-3.618 0-5.42-2.827-1.802-2.842-1.802-8.511zm5.039 5.845q.688 1.831 2.183 1.831 1.509 0 2.197-1.831.688-1.831.688-5.845 0-1.523-.103-2.725l-5.112 8.145q.073.234.147.425zm2.183-13.535q-1.494 0-2.183 1.831-.688 1.831-.688 5.859 0 1.245.059 2.271l5.039-8.042q-.015-.044-.029-.088-.688-1.831-2.197-1.831z" fill="url(#Z)"/><path d="M1258.554-431.266h4.834v-14.194l-4.497 1.113v-3.896l4.526-1.084h4.175v18.062h4.834v3.809h-13.872z" fill="url(#Z)"/><path d="M1275.663-438.37q0-5.684 1.802-8.511 1.802-2.842 5.42-2.842 3.633 0 5.435 2.827 1.802 2.827 1.802 8.525 0 5.684-1.802 8.511-1.802 2.827-5.435 2.827-3.618 0-5.42-2.827-1.802-2.842-1.802-8.511zm5.039 5.845q.688 1.831 2.183 1.831 1.509 0 2.197-1.831.688-1.831.688-5.845 0-1.523-.102-2.725l-5.112 8.145q.073.234.146.425zm2.183-13.535q-1.494 0-2.183 1.831-.688 1.831-.688 5.859 0 1.245.059 2.271l5.039-8.042q-.015-.044-.029-.088-.688-1.831-2.197-1.831z" fill="url(#Z)"/><path d="M1294.677-431.266h4.834v-14.194l-4.497 1.113v-3.896l4.526-1.084h4.175v18.062h4.834v3.809h-13.872z" fill="url(#Z)"/><path d="M1312.738-431.266h4.834v-14.194l-4.497 1.113v-3.896l4.526-1.084h4.175v18.062h4.834v3.809h-13.872z" fill="url(#Z)"/><path d="M1329.848-438.37q0-5.684 1.802-8.511 1.802-2.842 5.42-2.842 3.633 0 5.435 2.827 1.802 2.827 1.802 8.525 0 5.684-1.802 8.511-1.802 2.827-5.435 2.827-3.618 0-5.42-2.827-1.802-2.842-1.802-8.511zm5.039 5.845q.688 1.831 2.183 1.831 1.509 0 2.197-1.831.688-1.831.688-5.845 0-1.523-.103-2.725l-5.112 8.145q.073.234.147.425zm2.183-13.535q-1.494 0-2.183 1.831-.688 1.831-.688 5.859 0 1.245.059 2.271l5.039-8.042q-.015-.044-.029-.088-.688-1.831-2.197-1.831z" fill="url(#Z)"/><path d="M1022.802-400.87q0-5.684 1.802-8.511 1.802-2.842 5.42-2.842 3.633 0 5.435 2.827 1.802 2.827 1.802 8.525 0 5.684-1.802 8.511-1.802 2.827-5.435 2.827-3.618 0-5.42-2.827-1.802-2.842-1.802-8.511zm5.039 5.845q.688 1.831 2.183 1.831 1.509 0 2.197-1.831.688-1.831.688-5.845 0-1.523-.103-2.725l-5.112 8.145q.073.234.147.425zm2.183-13.535q-1.494 0-2.183 1.831-.688 1.831-.688 5.859 0 1.245.059 2.271l5.039-8.042q-.015-.044-.029-.088-.688-1.831-2.197-1.831z" fill="url(#Z)"/><path d="M1041.815-393.766h4.834v-14.194l-4.497 1.113v-3.896l4.526-1.084h4.175v18.062h4.834v3.809h-13.872z" fill="url(#Z)"/><path d="M1058.925-400.87q0-5.684 1.802-8.511 1.802-2.842 5.42-2.842 3.633 0 5.435 2.827 1.802 2.827 1.802 8.525 0 5.684-1.802 8.511-1.802 2.827-5.435 2.827-3.618 0-5.42-2.827-1.802-2.842-1.802-8.511zm5.039 5.845q.688 1.831 2.183 1.831 1.509 0 2.197-1.831.688-1.831.688-5.845 0-1.523-.102-2.725l-5.112 8.145q.073.234.147.425zm2.183-13.535q-1.494 0-2.183 1.831-.688 1.831-.688 5.859 0 1.245.059 2.271l5.039-8.042q-.015-.044-.029-.088-.688-1.831-2.197-1.831z" fill="url(#Z)"/><path d="M1077.939-393.766h4.834v-14.194l-4.497 1.113v-3.896l4.526-1.084h4.175v18.062h4.834v3.809h-13.872z" fill="url(#Z)"/><path d="M1096-393.766h4.834v-14.194l-4.497 1.113v-3.896l4.526-1.084h4.175v18.062h4.834v3.809H1096z" fill="url(#Z)"/><path d="M1114.062-393.766h4.834v-14.194l-4.497 1.113v-3.896l4.526-1.084h4.175v18.062h4.834v3.809h-13.872z" fill="url(#Z)"/><path d="M1131.171-400.87q0-5.684 1.802-8.511 1.802-2.842 5.42-2.842 3.633 0 5.435 2.827 1.802 2.827 1.802 8.525 0 5.684-1.802 8.511-1.802 2.827-5.435 2.827-3.618 0-5.42-2.827-1.802-2.842-1.802-8.511zm5.039 5.845q.688 1.831 2.183 1.831 1.509 0 2.197-1.831.688-1.831.688-5.845 0-1.523-.102-2.725l-5.112 8.145q.073.234.147.425zm2.183-13.535q-1.494 0-2.183 1.831-.688 1.831-.688 5.859 0 1.245.059 2.271l5.039-8.042q-.015-.044-.029-.088-.688-1.831-2.197-1.831z" fill="url(#Z)"/><path d="M1150.185-393.766h4.834v-14.194l-4.497 1.113v-3.896l4.526-1.084h4.175v18.062h4.834v3.809h-13.872z" fill="url(#Z)"/><path d="M1167.294-400.87q0-5.684 1.802-8.511 1.802-2.842 5.42-2.842 3.633 0 5.435 2.827 1.802 2.827 1.802 8.525 0 5.684-1.802 8.511-1.802 2.827-5.435 2.827-3.618 0-5.42-2.827-1.802-2.842-1.802-8.511zm5.039 5.845q.688 1.831 2.183 1.831 1.509 0 2.197-1.831.688-1.831.688-5.845 0-1.523-.103-2.725l-5.112 8.145q.073.234.147.425zm2.183-13.535q-1.494 0-2.183 1.831-.688 1.831-.688 5.859 0 1.245.059 2.271l5.039-8.042q-.015-.044-.029-.088-.688-1.831-2.197-1.831z" fill="url(#Z)"/><path d="M1186.308-393.766h4.834v-14.194l-4.497 1.113v-3.896l4.526-1.084h4.175v18.062h4.834v3.809h-13.872z" fill="url(#Z)"/><path d="M1203.417-400.87q0-5.684 1.802-8.511 1.802-2.842 5.42-2.842 3.633 0 5.435 2.827 1.802 2.827 1.802 8.525 0 5.684-1.802 8.511-1.802 2.827-5.435 2.827-3.618 0-5.42-2.827-1.802-2.842-1.802-8.511zm5.039 5.845q.688 1.831 2.183 1.831 1.509 0 2.197-1.831.688-1.831.688-5.845 0-1.523-.102-2.725l-5.112 8.145q.073.234.147.425zm2.183-13.535q-1.494 0-2.183 1.831-.688 1.831-.688 5.859 0 1.245.059 2.271l5.039-8.042q-.015-.044-.029-.088-.688-1.831-2.197-1.831z" fill="url(#Z)"/><path d="M1222.431-393.766h4.834v-14.194l-4.497 1.113v-3.896l4.526-1.084h4.175v18.062h4.834v3.809h-13.872z" fill="url(#Z)"/><path d="M1239.54-400.87q0-5.684 1.802-8.511 1.802-2.842 5.42-2.842 3.633 0 5.435 2.827 1.802 2.827 1.802 8.525 0 5.684-1.802 8.511-1.802 2.827-5.435 2.827-3.618 0-5.42-2.827-1.802-2.842-1.802-8.511zm5.039 5.845q.688 1.831 2.183 1.831 1.509 0 2.197-1.831.688-1.831.688-5.845 0-1.523-.103-2.725l-5.112 8.145q.073.234.147.425zm2.183-13.535q-1.494 0-2.183 1.831-.688 1.831-.688 5.859 0 1.245.059 2.271l5.039-8.042q-.015-.044-.029-.088-.688-1.831-2.197-1.831z" fill="url(#Z)"/><path d="M1258.554-393.766h4.834v-14.194l-4.497 1.113v-3.896l4.526-1.084h4.175v18.062h4.834v3.809h-13.872z" fill="url(#Z)"/><path d="M1276.615-393.766h4.834v-14.194l-4.497 1.113v-3.896l4.526-1.084h4.175v18.062h4.834v3.809h-13.872z" fill="url(#Z)"/><path d="M1293.725-400.87q0-5.684 1.802-8.511 1.802-2.842 5.42-2.842 3.633 0 5.435 2.827 1.802 2.827 1.802 8.525 0 5.684-1.802 8.511-1.802 2.827-5.435 2.827-3.618 0-5.42-2.827-1.802-2.842-1.802-8.511zm5.039 5.845q.688 1.831 2.183 1.831 1.509 0 2.197-1.831.688-1.831.688-5.845 0-1.523-.102-2.725l-5.112 8.145q.073.234.147.425zm2.183-13.535q-1.494 0-2.183 1.831-.688 1.831-.688 5.859 0 1.245.059 2.271l5.039-8.042q-.015-.044-.029-.088-.688-1.831-2.197-1.831z" fill="url(#Z)"/><path d="M1312.738-393.766h4.834v-14.194l-4.497 1.113v-3.896l4.526-1.084h4.175v18.062h4.834v3.809h-13.872z" fill="url(#Z)"/><path d="M1329.848-400.87q0-5.684 1.802-8.511 1.802-2.842 5.42-2.842 3.633 0 5.435 2.827 1.802 2.827 1.802 8.525 0 5.684-1.802 8.511-1.802 2.827-5.435 2.827-3.618 0-5.42-2.827-1.802-2.842-1.802-8.511zm5.039 5.845q.688 1.831 2.183 1.831 1.509 0 2.197-1.831.688-1.831.688-5.845 0-1.523-.103-2.725l-5.112 8.145q.073.234.147.425zm2.183-13.535q-1.494 0-2.183 1.831-.688 1.831-.688 5.859 0 1.245.059 2.271l5.039-8.042q-.015-.044-.029-.088-.688-1.831-2.197-1.831z" fill="url(#Z)"/><path d="M1022.802-363.37q0-5.684 1.802-8.511 1.802-2.842 5.42-2.842 3.633 0 5.435 2.827 1.802 2.827 1.802 8.525 0 5.684-1.802 8.511-1.802 2.827-5.435 2.827-3.618 0-5.42-2.827-1.802-2.842-1.802-8.511zm5.039 5.845q.688 1.831 2.183 1.831 1.509 0 2.197-1.831.688-1.831.688-5.845 0-1.523-.103-2.725l-5.112 8.145q.073.234.147.425zm2.183-13.535q-1.494 0-2.183 1.831-.688 1.831-.688 5.859 0 1.245.059 2.271l5.039-8.042q-.015-.044-.029-.088-.688-1.831-2.197-1.831z" fill="url(#Z)"/><path d="M1040.863-363.37q0-5.684 1.802-8.511 1.802-2.842 5.42-2.842 3.633 0 5.435 2.827 1.802 2.827 1.802 8.525 0 5.684-1.802 8.511-1.802 2.827-5.435 2.827-3.618 0-5.42-2.827-1.802-2.842-1.802-8.511zm5.039 5.845q.688 1.831 2.183 1.831 1.509 0 2.197-1.831.688-1.831.688-5.845 0-1.523-.102-2.725l-5.112 8.145q.073.234.146.425zm2.183-13.535q-1.494 0-2.183 1.831-.688 1.831-.688 5.859 0 1.245.059 2.271l5.039-8.042q-.015-.044-.029-.088-.688-1.831-2.197-1.831z" fill="url(#Z)"/><path d="M1058.925-363.37q0-5.684 1.802-8.511 1.802-2.842 5.42-2.842 3.633 0 5.435 2.827 1.802 2.827 1.802 8.525 0 5.684-1.802 8.511-1.802 2.827-5.435 2.827-3.618 0-5.42-2.827-1.802-2.842-1.802-8.511zm5.039 5.845q.688 1.831 2.183 1.831 1.509 0 2.197-1.831.688-1.831.688-5.845 0-1.523-.102-2.725l-5.112 8.145q.073.234.147.425zm2.183-13.535q-1.494 0-2.183 1.831-.688 1.831-.688 5.859 0 1.245.059 2.271l5.039-8.042q-.015-.044-.029-.088-.688-1.831-2.197-1.831z" fill="url(#Z)"/><path d="M1077.939-356.266h4.834v-14.194l-4.497 1.113v-3.896l4.526-1.084h4.175v18.062h4.834v3.809h-13.872z" fill="url(#Z)"/><path d="M1095.048-363.37q0-5.684 1.802-8.511 1.802-2.842 5.42-2.842 3.633 0 5.435 2.827 1.802 2.827 1.802 8.525 0 5.684-1.802 8.511-1.802 2.827-5.435 2.827-3.618 0-5.42-2.827-1.802-2.842-1.802-8.511zm5.039 5.845q.688 1.831 2.183 1.831 1.509 0 2.197-1.831.688-1.831.688-5.845 0-1.523-.103-2.725l-5.112 8.145q.073.234.147.425zm2.183-13.535q-1.494 0-2.183 1.831-.688 1.831-.688 5.859 0 1.245.059 2.271l5.039-8.042q-.015-.044-.029-.088-.688-1.831-2.197-1.831z" fill="url(#Z)"/><path d="M1114.062-356.266h4.834v-14.194l-4.497 1.113v-3.896l4.526-1.084h4.175v18.062h4.834v3.809h-13.872z" fill="url(#Z)"/><path d="M1131.171-363.37q0-5.684 1.802-8.511 1.802-2.842 5.42-2.842 3.633 0 5.435 2.827 1.802 2.827 1.802 8.525 0 5.684-1.802 8.511-1.802 2.827-5.435 2.827-3.618 0-5.42-2.827-1.802-2.842-1.802-8.511zm5.039 5.845q.688 1.831 2.183 1.831 1.509 0 2.197-1.831.688-1.831.688-5.845 0-1.523-.102-2.725l-5.112 8.145q.073.234.147.425zm2.183-13.535q-1.494 0-2.183 1.831-.688 1.831-.688 5.859 0 1.245.059 2.271l5.039-8.042q-.015-.044-.029-.088-.688-1.831-2.197-1.831z" fill="url(#Z)"/><path d="M1150.185-356.266h4.834v-14.194l-4.497 1.113v-3.896l4.526-1.084h4.175v18.062h4.834v3.809h-13.872z" fill="url(#Z)"/><path d="M1167.294-363.37q0-5.684 1.802-8.511 1.802-2.842 5.42-2.842 3.633 0 5.435 2.827 1.802 2.827 1.802 8.525 0 5.684-1.802 8.511-1.802 2.827-5.435 2.827-3.618 0-5.42-2.827-1.802-2.842-1.802-8.511zm5.039 5.845q.688 1.831 2.183 1.831 1.509 0 2.197-1.831.688-1.831.688-5.845 0-1.523-.103-2.725l-5.112 8.145q.073.234.147.425zm2.183-13.535q-1.494 0-2.183 1.831-.688 1.831-.688 5.859 0 1.245.059 2.271l5.039-8.042q-.015-.044-.029-.088-.688-1.831-2.197-1.831z" fill="url(#Z)"/><path d="M1185.356-363.37q0-5.684 1.802-8.511 1.802-2.842 5.42-2.842 3.633 0 5.435 2.827 1.802 2.827 1.802 8.525 0 5.684-1.802 8.511-1.802 2.827-5.435 2.827-3.618 0-5.42-2.827-1.802-2.842-1.802-8.511zm5.039 5.845q.688 1.831 2.183 1.831 1.509 0 2.197-1.831.688-1.831.688-5.845 0-1.523-.102-2.725l-5.112 8.145q.073.234.147.425zm2.183-13.535q-1.494 0-2.183 1.831-.688 1.831-.688 5.859 0 1.245.058 2.271l5.039-8.042q-.015-.044-.029-.088-.688-1.831-2.197-1.831z" fill="url(#Z)"/><path d="M1203.417-363.37q0-5.684 1.802-8.511 1.802-2.842 5.42-2.842 3.633 0 5.435 2.827 1.802 2.827 1.802 8.525 0 5.684-1.802 8.511-1.802 2.827-5.435 2.827-3.618 0-5.42-2.827-1.802-2.842-1.802-8.511zm5.039 5.845q.688 1.831 2.183 1.831 1.509 0 2.197-1.831.688-1.831.688-5.845 0-1.523-.102-2.725l-5.112 8.145q.073.234.147.425zm2.183-13.535q-1.494 0-2.183 1.831-.688 1.831-.688 5.859 0 1.245.059 2.271l5.039-8.042q-.015-.044-.029-.088-.688-1.831-2.197-1.831z" fill="url(#Z)"/><path d="M1221.479-363.37q0-5.684 1.802-8.511 1.802-2.842 5.42-2.842 3.633 0 5.435 2.827 1.802 2.827 1.802 8.525 0 5.684-1.802 8.511-1.802 2.827-5.435 2.827-3.618 0-5.42-2.827-1.802-2.842-1.802-8.511zm5.039 5.845q.688 1.831 2.183 1.831 1.509 0 2.197-1.831.688-1.831.688-5.845 0-1.523-.102-2.725l-5.112 8.145q.073.234.147.425zm2.183-13.535q-1.494 0-2.183 1.831-.688 1.831-.688 5.859 0 1.245.059 2.271l5.039-8.042q-.015-.044-.029-.088-.688-1.831-2.197-1.831z" fill="url(#Z)"/><path d="M1240.492-356.266h4.834v-14.194l-4.497 1.113v-3.896l4.526-1.084h4.175v18.062h4.834v3.809h-13.872z" fill="url(#Z)"/><path d="M1258.554-356.266h4.834v-14.194l-4.497 1.113v-3.896l4.526-1.084h4.175v18.062h4.834v3.809h-13.872z" fill="url(#Z)"/><path d="M1275.663-363.37q0-5.684 1.802-8.511 1.802-2.842 5.42-2.842 3.633 0 5.435 2.827 1.802 2.827 1.802 8.525 0 5.684-1.802 8.511-1.802 2.827-5.435 2.827-3.618 0-5.42-2.827-1.802-2.842-1.802-8.511zm5.039 5.845q.688 1.831 2.183 1.831 1.509 0 2.197-1.831.688-1.831.688-5.845 0-1.523-.102-2.725l-5.112 8.145q.073.234.146.425zm2.183-13.535q-1.494 0-2.183 1.831-.688 1.831-.688 5.859 0 1.245.059 2.271l5.039-8.042q-.015-.044-.029-.088-.688-1.831-2.197-1.831z" fill="url(#Z)"/><path d="M1293.725-363.37q0-5.684 1.802-8.511 1.802-2.842 5.42-2.842 3.633 0 5.435 2.827 1.802 2.827 1.802 8.525 0 5.684-1.802 8.511-1.802 2.827-5.435 2.827-3.618 0-5.42-2.827-1.802-2.842-1.802-8.511zm5.039 5.845q.688 1.831 2.183 1.831 1.509 0 2.197-1.831.688-1.831.688-5.845 0-1.523-.102-2.725l-5.112 8.145q.073.234.147.425zm2.183-13.535q-1.494 0-2.183 1.831-.688 1.831-.688 5.859 0 1.245.059 2.271l5.039-8.042q-.015-.044-.029-.088-.688-1.831-2.197-1.831z" fill="url(#Z)"/><path d="M1311.786-363.37q0-5.684 1.802-8.511 1.802-2.842 5.42-2.842 3.633 0 5.435 2.827 1.802 2.827 1.802 8.525 0 5.684-1.802 8.511-1.802 2.827-5.435 2.827-3.618 0-5.42-2.827-1.802-2.842-1.802-8.511zm5.039 5.845q.688 1.831 2.183 1.831 1.509 0 2.197-1.831.688-1.831.688-5.845 0-1.523-.103-2.725l-5.112 8.145q.073.234.147.425zm2.183-13.535q-1.494 0-2.183 1.831-.688 1.831-.688 5.859 0 1.245.059 2.271l5.039-8.042q-.015-.044-.029-.088-.688-1.831-2.197-1.831z" fill="url(#Z)"/><use xlink:href="#Y" fill="url(#Z)"/><path d="M1023.754-318.766h4.834v-14.194l-4.497 1.113v-3.896l4.526-1.084h4.175v18.062h4.834v3.809h-13.872z" fill="url(#Z)"/><path d="M1040.863-325.87q0-5.684 1.802-8.511 1.802-2.842 5.42-2.842 3.633 0 5.435 2.827 1.802 2.827 1.802 8.525 0 5.684-1.802 8.511-1.802 2.827-5.435 2.827-3.618 0-5.42-2.827-1.802-2.842-1.802-8.511zm5.039 5.845q.688 1.831 2.183 1.831 1.509 0 2.197-1.831.688-1.831.688-5.845 0-1.523-.102-2.725l-5.112 8.145q.073.234.146.425zm2.183-13.535q-1.494 0-2.183 1.831-.688 1.831-.688 5.859 0 1.245.059 2.271l5.039-8.042q-.015-.044-.029-.088-.688-1.831-2.197-1.831z" fill="url(#Z)"/><path d="M1059.877-318.766h4.834v-14.194l-4.497 1.113v-3.896l4.526-1.084h4.175v18.062h4.834v3.809h-13.872z" fill="url(#Z)"/><path d="M1076.986-325.87q0-5.684 1.802-8.511 1.802-2.842 5.42-2.842 3.633 0 5.435 2.827 1.802 2.827 1.802 8.525 0 5.684-1.802 8.511-1.802 2.827-5.435 2.827-3.618 0-5.42-2.827-1.802-2.842-1.802-8.511zm5.039 5.845q.688 1.831 2.183 1.831 1.509 0 2.197-1.831.688-1.831.688-5.845 0-1.523-.103-2.725l-5.112 8.145q.073.234.147.425zm2.183-13.535q-1.494 0-2.183 1.831-.688 1.831-.688 5.859 0 1.245.059 2.271l5.039-8.042q-.015-.044-.029-.088-.688-1.831-2.197-1.831z" fill="url(#Z)"/><path d="M1096-318.766h4.834v-14.194l-4.497 1.113v-3.896l4.526-1.084h4.175v18.062h4.834v3.809H1096z" fill="url(#Z)"/><path d="M1113.109-325.87q0-5.684 1.802-8.511 1.802-2.842 5.42-2.842 3.633 0 5.435 2.827 1.802 2.827 1.802 8.525 0 5.684-1.802 8.511-1.802 2.827-5.435 2.827-3.618 0-5.42-2.827-1.802-2.842-1.802-8.511zm5.039 5.845q.688 1.831 2.183 1.831 1.509 0 2.197-1.831.688-1.831.688-5.845 0-1.523-.102-2.725l-5.112 8.145q.073.234.146.425zm2.183-13.535q-1.494 0-2.183 1.831-.688 1.831-.688 5.859 0 1.245.059 2.271l5.039-8.042q-.015-.044-.029-.088-.688-1.831-2.197-1.831z" fill="url(#Z)"/><path d="M1132.123-318.766h4.834v-14.194l-4.497 1.113v-3.896l4.526-1.084h4.175v18.062h4.834v3.809h-13.872z" fill="url(#Z)"/><path d="M1150.185-318.766h4.834v-14.194l-4.497 1.113v-3.896l4.526-1.084h4.175v18.062h4.834v3.809h-13.872z" fill="url(#Z)"/><path d="M1167.294-325.87q0-5.684 1.802-8.511 1.802-2.842 5.42-2.842 3.633 0 5.435 2.827 1.802 2.827 1.802 8.525 0 5.684-1.802 8.511-1.802 2.827-5.435 2.827-3.618 0-5.42-2.827-1.802-2.842-1.802-8.511zm5.039 5.845q.688 1.831 2.183 1.831 1.509 0 2.197-1.831.688-1.831.688-5.845 0-1.523-.103-2.725l-5.112 8.145q.073.234.147.425zm2.183-13.535q-1.494 0-2.183 1.831-.688 1.831-.688 5.859 0 1.245.059 2.271l5.039-8.042q-.015-.044-.029-.088-.688-1.831-2.197-1.831z" fill="url(#Z)"/><path d="M1185.356-325.87q0-5.684 1.802-8.511 1.802-2.842 5.42-2.842 3.633 0 5.435 2.827 1.802 2.827 1.802 8.525 0 5.684-1.802 8.511-1.802 2.827-5.435 2.827-3.618 0-5.42-2.827-1.802-2.842-1.802-8.511zm5.039 5.845q.688 1.831 2.183 1.831 1.509 0 2.197-1.831.688-1.831.688-5.845 0-1.523-.102-2.725l-5.112 8.145q.073.234.147.425zm2.183-13.535q-1.494 0-2.183 1.831-.688 1.831-.688 5.859 0 1.245.058 2.271l5.039-8.042q-.015-.044-.029-.088-.688-1.831-2.197-1.831z" fill="url(#Z)"/><path d="M1204.369-318.766h4.834v-14.194l-4.497 1.113v-3.896l4.526-1.084h4.175v18.062h4.834v3.809h-13.872z" fill="url(#Z)"/><path d="M1221.479-325.87q0-5.684 1.802-8.511 1.802-2.842 5.42-2.842 3.633 0 5.435 2.827 1.802 2.827 1.802 8.525 0 5.684-1.802 8.511-1.802 2.827-5.435 2.827-3.618 0-5.42-2.827-1.802-2.842-1.802-8.511zm5.039 5.845q.688 1.831 2.183 1.831 1.509 0 2.197-1.831.688-1.831.688-5.845 0-1.523-.102-2.725l-5.112 8.145q.073.234.147.425zm2.183-13.535q-1.494 0-2.183 1.831-.688 1.831-.688 5.859 0 1.245.059 2.271l5.039-8.042q-.015-.044-.029-.088-.688-1.831-2.197-1.831z" fill="url(#Z)"/><path d="M1240.492-318.766h4.834v-14.194l-4.497 1.113v-3.896l4.526-1.084h4.175v18.062h4.834v3.809h-13.872z" fill="url(#Z)"/><path d="M1257.602-325.87q0-5.684 1.802-8.511 1.802-2.842 5.42-2.842 3.633 0 5.435 2.827 1.802 2.827 1.802 8.525 0 5.684-1.802 8.511-1.802 2.827-5.435 2.827-3.618 0-5.42-2.827-1.802-2.842-1.802-8.511zm5.039 5.845q.688 1.831 2.183 1.831 1.509 0 2.197-1.831.688-1.831.688-5.845 0-1.523-.103-2.725l-5.112 8.145q.073.234.147.425zm2.183-13.535q-1.494 0-2.183 1.831-.688 1.831-.688 5.859 0 1.245.059 2.271l5.039-8.042q-.015-.044-.029-.088-.688-1.831-2.197-1.831z" fill="url(#Z)"/><path d="M1276.615-318.766h4.834v-14.194l-4.497 1.113v-3.896l4.526-1.084h4.175v18.062h4.834v3.809h-13.872z" fill="url(#Z)"/><path d="M1294.677-318.766h4.834v-14.194l-4.497 1.113v-3.896l4.526-1.084h4.175v18.062h4.834v3.809h-13.872z" fill="url(#Z)"/><path d="M1311.786-325.87q0-5.684 1.802-8.511 1.802-2.842 5.42-2.842 3.633 0 5.435 2.827 1.802 2.827 1.802 8.525 0 5.684-1.802 8.511-1.802 2.827-5.435 2.827-3.618 0-5.42-2.827-1.802-2.842-1.802-8.511zm5.039 5.845q.688 1.831 2.183 1.831 1.509 0 2.197-1.831.688-1.831.688-5.845 0-1.523-.103-2.725l-5.112 8.145q.073.234.147.425zm2.183-13.535q-1.494 0-2.183 1.831-.688 1.831-.688 5.859 0 1.245.059 2.271l5.039-8.042q-.015-.044-.029-.088-.688-1.831-2.197-1.831z" fill="url(#Z)"/><use xlink:href="#i" fill="url(#Z)"/><path d="M1023.754-281.266h4.834v-14.194l-4.497 1.113v-3.896l4.526-1.084h4.175v18.062h4.834v3.809h-13.872z" fill="url(#Z)"/><path d="M1040.863-288.37q0-5.684 1.802-8.511 1.802-2.842 5.42-2.842 3.633 0 5.435 2.827 1.802 2.827 1.802 8.525 0 5.684-1.802 8.511-1.802 2.827-5.435 2.827-3.618 0-5.42-2.827-1.802-2.842-1.802-8.511zm5.039 5.845q.688 1.831 2.183 1.831 1.509 0 2.197-1.831.688-1.831.688-5.845 0-1.523-.102-2.725l-5.112 8.145q.073.234.146.425zm2.183-13.535q-1.494 0-2.183 1.831-.688 1.831-.688 5.859 0 1.245.059 2.271l5.039-8.042q-.015-.044-.029-.088-.688-1.831-2.197-1.831z" fill="url(#Z)"/><path d="M1059.877-281.266h4.834v-14.194l-4.497 1.113v-3.896l4.526-1.084h4.175v18.062h4.834v3.809h-13.872z" fill="url(#Z)"/><path d="M1076.986-288.37q0-5.684 1.802-8.511 1.802-2.842 5.42-2.842 3.633 0 5.435 2.827 1.802 2.827 1.802 8.525 0 5.684-1.802 8.511-1.802 2.827-5.435 2.827-3.618 0-5.42-2.827-1.802-2.842-1.802-8.511zm5.039 5.845q.688 1.831 2.183 1.831 1.509 0 2.197-1.831.688-1.831.688-5.845 0-1.523-.103-2.725l-5.112 8.145q.073.234.147.425zm2.183-13.535q-1.494 0-2.183 1.831-.688 1.831-.688 5.859 0 1.245.059 2.271l5.039-8.042q-.015-.044-.029-.088-.688-1.831-2.197-1.831z" fill="url(#Z)"/><path d="M1096-281.266h4.834v-14.194l-4.497 1.113v-3.896l4.526-1.084h4.175v18.062h4.834v3.809H1096z" fill="url(#Z)"/><path d="M1113.109-288.37q0-5.684 1.802-8.511 1.802-2.842 5.42-2.842 3.633 0 5.435 2.827 1.802 2.827 1.802 8.525 0 5.684-1.802 8.511-1.802 2.827-5.435 2.827-3.618 0-5.42-2.827-1.802-2.842-1.802-8.511zm5.039 5.845q.688 1.831 2.183 1.831 1.509 0 2.197-1.831.688-1.831.688-5.845 0-1.523-.102-2.725l-5.112 8.145q.073.234.146.425zm2.183-13.535q-1.494 0-2.183 1.831-.688 1.831-.688 5.859 0 1.245.059 2.271l5.039-8.042q-.015-.044-.029-.088-.688-1.831-2.197-1.831z" fill="url(#Z)"/><path d="M1132.123-281.266h4.834v-14.194l-4.497 1.113v-3.896l4.526-1.084h4.175v18.062h4.834v3.809h-13.872z" fill="url(#Z)"/><path d="M1150.185-281.266h4.834v-14.194l-4.497 1.113v-3.896l4.526-1.084h4.175v18.062h4.834v3.809h-13.872z" fill="url(#Z)"/><path d="M1168.246-281.266h4.834v-14.194l-4.497 1.113v-3.896l4.526-1.084h4.175v18.062h4.834v3.809h-13.872z" fill="url(#Z)"/><path d="M1185.356-288.37q0-5.684 1.802-8.511 1.802-2.842 5.42-2.842 3.633 0 5.435 2.827 1.802 2.827 1.802 8.525 0 5.684-1.802 8.511-1.802 2.827-5.435 2.827-3.618 0-5.42-2.827-1.802-2.842-1.802-8.511zm5.039 5.845q.688 1.831 2.183 1.831 1.509 0 2.197-1.831.688-1.831.688-5.845 0-1.523-.102-2.725l-5.112 8.145q.073.234.147.425zm2.183-13.535q-1.494 0-2.183 1.831-.688 1.831-.688 5.859 0 1.245.058 2.271l5.039-8.042q-.015-.044-.029-.088-.688-1.831-2.197-1.831z" fill="url(#Z)"/><path d="M1204.369-281.266h4.834v-14.194l-4.497 1.113v-3.896l4.526-1.084h4.175v18.062h4.834v3.809h-13.872z" fill="url(#Z)"/><path d="M1221.479-288.37q0-5.684 1.802-8.511 1.802-2.842 5.42-2.842 3.633 0 5.435 2.827 1.802 2.827 1.802 8.525 0 5.684-1.802 8.511-1.802 2.827-5.435 2.827-3.618 0-5.42-2.827-1.802-2.842-1.802-8.511zm5.039 5.845q.688 1.831 2.183 1.831 1.509 0 2.197-1.831.688-1.831.688-5.845 0-1.523-.102-2.725l-5.112 8.145q.073.234.147.425zm2.183-13.535q-1.494 0-2.183 1.831-.688 1.831-.688 5.859 0 1.245.059 2.271l5.039-8.042q-.015-.044-.029-.088-.688-1.831-2.197-1.831z" fill="url(#Z)"/><path d="M1240.492-281.266h4.834v-14.194l-4.497 1.113v-3.896l4.526-1.084h4.175v18.062h4.834v3.809h-13.872z" fill="url(#Z)"/><path d="M1257.602-288.37q0-5.684 1.802-8.511 1.802-2.842 5.42-2.842 3.633 0 5.435 2.827 1.802 2.827 1.802 8.525 0 5.684-1.802 8.511-1.802 2.827-5.435 2.827-3.618 0-5.42-2.827-1.802-2.842-1.802-8.511zm5.039 5.845q.688 1.831 2.183 1.831 1.509 0 2.197-1.831.688-1.831.688-5.845 0-1.523-.103-2.725l-5.112 8.145q.073.234.147.425zm2.183-13.535q-1.494 0-2.183 1.831-.688 1.831-.688 5.859 0 1.245.059 2.271l5.039-8.042q-.015-.044-.029-.088-.688-1.831-2.197-1.831z" fill="url(#Z)"/><path d="M1276.615-281.266h4.834v-14.194l-4.497 1.113v-3.896l4.526-1.084h4.175v18.062h4.834v3.809h-13.872z" fill="url(#Z)"/><path d="M1293.725-288.37q0-5.684 1.802-8.511 1.802-2.842 5.42-2.842 3.633 0 5.435 2.827 1.802 2.827 1.802 8.525 0 5.684-1.802 8.511-1.802 2.827-5.435 2.827-3.618 0-5.42-2.827-1.802-2.842-1.802-8.511zm5.039 5.845q.688 1.831 2.183 1.831 1.509 0 2.197-1.831.688-1.831.688-5.845 0-1.523-.102-2.725l-5.112 8.145q.073.234.147.425zm2.183-13.535q-1.494 0-2.183 1.831-.688 1.831-.688 5.859 0 1.245.059 2.271l5.039-8.042q-.015-.044-.029-.088-.688-1.831-2.197-1.831z" fill="url(#Z)"/><path d="M1312.738-281.266h4.834v-14.194l-4.497 1.113v-3.896l4.526-1.084h4.175v18.062h4.834v3.809h-13.872z" fill="url(#Z)"/><path d="M1330.8-281.266h4.834v-14.194l-4.497 1.113v-3.896l4.526-1.084h4.175v18.062h4.834v3.809H1330.8z" fill="url(#Z)"/></g><path clip-path="url(#E)" transform="translate(30 852.362)" d="M1174-70a161.42 161.42 0 0 0-19 1.25V-60l5 5h10zm40.25 4.844l-.031.156 7.781 9h5l3-4v-.281l-3.875-1.375c-.041-.014-.084-.018-.125-.031l-3.781-1.219-3.406-1.031-.562-.156-3.25-.875-.75-.187zm-95 5.156c-39.44 14.667-71.543 44.431-89.25 82.281V35l15 15v10h5l5 5v5l-5 5v15h105l-10-10h-20l-5-5v-5l-40-25h-10l-10 10h-10V40l-5-5 5-5v-5h-5-10l10-20 15-5v15h5l5-5V0l25-30h5l40-15v-10l-5-5zm91.75 5l6 8h7l-8-8zm33.5.844L1242.125-50H1230l-5.781 10L1230-30l-10 .313-4.437 4.688v5l8.656 5H1235l8.656-15H1250l10 8 1.344 5H1265v-8l5 3 5 2h5l6-6-9-10-2.125 1c-.029-.023-.064-.039-.094-.062l-1-.812-2.437-1.875-.625-.469-3-2.187c-.031-.022-.063-.041-.094-.062-.11-.078-.233-.141-.344-.219l-2.812-2c-.144-.097-.293-.184-.438-.281l-2.781-1.812-1-.625-3.812-2.344-3.219-1.844-1.625-.906-.344-.187-2.719-1.437-4.031-2.031zM1283-30l-3 10 5 5h10v10h-15v5h-10l-10-10h-20-5-10l-5 5V5h-5l-10 20v5l5 5v15l20 20h20l5-5h10l10 10v10l3.344 5H1335c0-44.183-17.921-84.171-46.875-113.125L1286.219-25zm-78-20l3 5h5l-3-5z" opacity=".25" fill="#222" filter="url(#F)"/><path transform="translate(820 742.362)" d="M424.25 44.844l-.031.156L432 54h5l3-4v-.281l-3.875-1.375c-.041-.014-.084-.018-.125-.031l-3.781-1.219-3.406-1.031-.562-.156-3.25-.875-.75-.187zM421 55l6 8h7l-8-8zm33.5.875L452.125 60h-9.594H440l-5.781 10L440 80l-10 .313L425.563 85v5l8.656 5h7.344H445l8.656-15H460l10 8 1.344 5H475v-8l5 3 5 2h5l5 5h10v10h-15v5h-10l-10-10h-20-5-4.375H435l-5 5v10h-5l-10 20v5l5 5v10.938V160l20 20h20l5-5h10l10 10v10l3.344 5H540h5c0-51.438-24.284-97.199-62-126.469l-.469-.344c-.018-.014-.045-.017-.062-.031l-2.156-1.656c-.053-.04-.103-.085-.156-.125-.06-.044-.13-.077-.187-.125a.52.52 0 0 1-.062-.062c-.019-.022-.039-.045-.062-.062l-2.219-1.594c-.019-.013-.045-.018-.062-.031l-2.281-1.594c-.825-.565-1.663-1.106-2.5-1.656-1.673-1.1-3.378-2.181-5.094-3.219l-2.594-1.531-2.625-1.5-2.656-1.437-2.656-1.375-2.656-1.312zM415 60l3 5h5l-3-5z" fill="url(#G)"/><use xlink:href="#Q" opacity=".15" class="G"/><path d="M1149.25 792.362c-39.44 14.667-71.543 44.431-89.25 82.281v12.719l15 15v10h5l5 5v5l-5 5v15h105l-10-10h-20l-5-5v-5l-40-25h-10l-10 10h-10v-15l-5-5 5-5v-5h-5-10l10-20 15-5v15h5l5-5v-10l25-30h5l40-15v-10l-5-5z" fill="url(#b)"/><path d="M1204 782.362a161.42 161.42 0 0 0-19 1.25v8.75l5 5h10z" fill="url(#b)"/><path d="M1100 927.362h5l15 5v10h-30zm30-17.5v7.5l10 5v10l-10 10h55l-10-10h-20l-5-5v-5zm19.25-117.5c-5.877 2.186-11.597 4.729-17.125 7.563l12.875 7.438v9.375l25-9.375v-10l-5-5h-15.75zM1115 810.081a160.81 160.81 0 0 0-34.906 32.281H1095l20-20z" opacity=".15" class="G"/><path d="M1260.469 792.268c13.31 49.672-.454 112.826-27.688 150.094H1365c0-68.857-43.516-127.532-104.531-150.094z" opacity=".25" fill="url(#H)"/><use xlink:href="#Q" x="-80" opacity=".15" class="G"/><path d="M1142 882.362s3 2 8 2 8-2 8-2" fill="none" stroke="#222" stroke-linecap="round" stroke-linejoin="round" opacity=".5" class="E"/><path d="M1169 867.362a5 5 0 1 1-10 0 5 5 0 1 1 10 0zm-26 0a5 5 0 1 1-10 0 5 5 0 1 1 10 0z" opacity=".5" fill="#222"/><path clip-path="none" d="M976.823 855.268a4 4 0 0 0-4.094 4.656l1.23 7.014-.051-1.945c0-2.686.229-4.639.688-5.859s1.187-1.832 2.184-1.832c1.006 0 1.738.611 2.197 1.832l.029.088-5 7.979.035.193c-2.023-2.563-3.351-4.627-4.209-6.176-.165 1.143-.275 2.372-.275 3.775 0 3.779.6 6.615 1.801 8.51 1.201 1.885 3.01 2.828 5.422 2.828 2.422 0 4.232-.943 5.434-2.828.372-.583.665-1.29.922-2.055-1.389-5.804-2.469-12.711-2.469-12.711a4 4 0 0 0-3.844-3.469zm-15.336.98a4 4 0 0 0-1.008 2.113 4 4 0 0 0-2.156-.562 4 4 0 0 0-1.041.266v14.031h-4.834v3.631l.117.178h13.756v-3.809h-4.834zm18.076 6.02a32.52 32.52 0 0 1 .102 2.725c0 2.676-.23 4.623-.689 5.844s-1.19 1.832-2.195 1.832c-.996 0-1.725-.611-2.184-1.832a6.78 6.78 0 0 1-.146-.424zm15.277 28.871c-2.412 0-4.219.947-5.42 2.842-1.201 1.885-1.801 4.723-1.801 8.512a25.02 25.02 0 0 0 .35 4.279 100.15 100.15 0 0 0 5.033 2.262 4.17 4.17 0 0 1-.344-.697 6.72 6.72 0 0 1-.146-.424l5.111-8.145a32.4 32.4 0 0 1 .102 2.725c0 2.676-.229 4.623-.687 5.844-.358.954-.89 1.522-1.582 1.73a144.56 144.56 0 0 0 4.281 1.59c.18-.216.378-.405.537-.654 1.201-1.885 1.803-4.721 1.803-8.51 0-3.799-.601-6.641-1.803-8.525s-3.012-2.828-5.434-2.828zm90.309 0c-2.412 0-4.219.947-5.42 2.842-1.201 1.885-1.803 4.723-1.803 8.512 0 3.779.602 6.615 1.803 8.51.571.895 1.287 1.563 2.131 2.033l5.432-1.361c1.45-.355 2.802-1.061 3.953-2.008.75-1.805 1.139-4.18 1.139-7.174 0-3.799-.6-6.641-1.801-8.525s-3.012-2.828-5.434-2.828zm-109.777.396l-4.525 1.084v2.986a33.63 33.63 0 0 0 .877.693l3.619-.896v3.641c1.24.938 2.567 1.9 4.205 2.986v-10.494zm36.125 0l-4.527 1.084v3.896l4.498-1.113v14.193h-4.834v3.809h13.871v-3.809h-4.834v-17.242a87.47 87.47 0 0 1-2.953-.818zm59.098.547c-2.986.616-5.863 1.129-8.65 1.559-.088.121-.195.21-.277.34-1.201 1.885-1.801 4.723-1.801 8.512 0 3.779.6 6.615 1.801 8.51 1.201 1.885 3.008 2.828 5.42 2.828 2.422 0 4.232-.943 5.434-2.828s1.803-4.721 1.803-8.51c0-3.799-.601-6.641-1.803-8.525-.52-.816-1.177-1.422-1.926-1.885zm-45.209 2.219c-1.083 1.881-1.644 4.593-1.644 8.191 0 3.779.602 6.615 1.803 8.51 1.201 1.885 3.008 2.828 5.42 2.828 2.422 0 4.234-.943 5.436-2.828s1.801-4.721 1.801-8.51c0-3.002-.389-5.381-1.139-7.187a108.18 108.18 0 0 1-5.232-.295c.568.265 1.019.79 1.332 1.623l.029.088-5.039 8.041c-.039-.684-.058-1.439-.058-2.27 0-2.686.228-4.639.688-5.859.368-.978.916-1.545 1.629-1.74-1.732-.163-3.412-.357-5.023-.592zm29.377.279a141.6 141.6 0 0 1-4.861.436c.562.267 1.009.79 1.32 1.617l.029.088-5.039 8.041c-.039-.684-.057-1.439-.057-2.27 0-2.686.229-4.639.688-5.859.262-.697.621-1.171 1.059-1.471a127.77 127.77 0 0 1-4.976.191c-.739 1.801-1.121 4.166-1.121 7.139 0 3.779.6 6.615 1.801 8.51 1.201 1.885 3.008 2.828 5.42 2.828 2.422 0 4.234-.943 5.436-2.828s1.803-4.721 1.803-8.51c0-3.434-.519-6.042-1.5-7.912zm-59.922.221c1.006 0 1.738.611 2.197 1.832.009.029.019.059.029.088l-5.039 8.041c-.039-.684-.059-1.439-.059-2.27 0-2.686.23-4.639.689-5.859s1.185-1.832 2.182-1.832zm72.246 0c1.006 0 1.738.611 2.197 1.832l.029.088-5.039 8.041c-.039-.684-.059-1.439-.059-2.27 0-2.686.23-4.639.689-5.859s1.186-1.832 2.182-1.832zm18.063 0c1.006 0 1.738.611 2.197 1.832l.029.088-5.039 8.041a39.95 39.95 0 0 1-.061-2.27c0-2.686.23-4.639.689-5.859s1.188-1.832 2.184-1.832zm-51.402 4.967c.068.801.103 1.709.103 2.725 0 2.676-.23 4.623-.689 5.844s-1.191 1.832-2.197 1.832c-.996 0-1.725-.611-2.184-1.832a6.66 6.66 0 0 1-.147-.424zm18.063 0a32.52 32.52 0 0 1 .102 2.725c0 2.676-.23 4.623-.689 5.844s-1.191 1.832-2.197 1.832c-.996 0-1.723-.611-2.182-1.832a6.66 6.66 0 0 1-.147-.424zm18.061 0a32.53 32.53 0 0 1 .101 2.725c0 2.676-.228 4.623-.687 5.844s-1.191 1.832-2.197 1.832c-.996 0-1.723-.611-2.182-1.832a6.66 6.66 0 0 1-.147-.424zm18.063 0a32.53 32.53 0 0 1 .101 2.725c0 2.676-.228 4.623-.687 5.844s-1.191 1.832-2.197 1.832c-.996 0-1.725-.611-2.184-1.832a6.66 6.66 0 0 1-.147-.424z" opacity=".1" fill="#fff" class="F"/></g></svg>
