<svg xmlns="http://www.w3.org/2000/svg" xmlns:xlink="http://www.w3.org/1999/xlink" width="112.13" height="97.16" xmlns:v="https://vecta.io/nano"><defs><linearGradient id="A" x1="1127.205" y1="962.563" x2="1101.086" y2="1007.801" gradientUnits="userSpaceOnUse"><stop offset="0" stop-color="#f4f4ff"/><stop offset="1" stop-color="#f4f4ff" stop-opacity="0"/></linearGradient><linearGradient id="B" x1="1150" y1="822.362" x2="1150" y2="942.362" gradientUnits="userSpaceOnUse"><stop offset="0" stop-color="#b2dbea"/><stop offset="1" stop-color="#7092ff"/></linearGradient><linearGradient id="C" x1="1036" y1="991.362" x2="1075.798" y2="951.564" gradientUnits="userSpaceOnUse"><stop offset="0" stop-color="#b2dbea"/><stop offset="1" stop-color="#93b8e0" stop-opacity="0"/></linearGradient><path id="D" d="M1129.406 915.206a12 12 0 0 0-10.031 4.969c-23.089 31.044-73.5 61.844-73.5 61.844a12.01 12.01 0 0 0-.812.563l-.187.125-13.875 7.906a4.02 4.02 0 0 0-.018 6.959 4.02 4.02 0 0 0 4.018.01l5.219-2.969a12.01 12.01 0 0 0 17.906 8.063s52.302-30.242 80.5-68.156a12 12 0 0 0-9.219-19.312z"/></defs><g transform="translate(-1108.982 -1085.202)"><g transform="translate(80 170)"><path d="M1135 942.362c-5 40-35 70-35 70l-25-25 50-45z" fill="url(#A)"/><use xlink:href="#D" fill="url(#B)"/><use xlink:href="#D" fill="url(#C)"/></g><path d="M1193.515 1098.64c-.425 0-.808.066-1.195.125l-5.443 5.797c-.375 1.523-.582 3.311-.582 5.43 0 3.779.6 6.617 1.801 8.512 1.201 1.885 3.008 2.826 5.42 2.826 2.422 0 4.234-.941 5.435-2.826s1.801-4.723 1.801-8.512c0-3.799-.6-6.641-1.801-8.525s-3.014-2.826-5.435-2.826zm18.063 0c-2.412 0-4.219.947-5.42 2.842-1.201 1.885-1.803 4.721-1.803 8.51 0 3.779.602 6.617 1.803 8.512.103.162.235.278.348.426l2.871-3.143-.129-.375 5.113-8.145.096 2.57 3.875-4.936c-.3-1.368-.736-2.52-1.32-3.436-1.201-1.885-3.012-2.826-5.434-2.826zm-18.062 3.662h.002c1.006 0 1.738.609 2.197 1.83l.027.088-5.039 8.043-.059-2.271c0-2.686.23-4.639.689-5.859s1.186-1.83 2.182-1.83zm18.063 0c1.006 0 1.738.609 2.197 1.83l.029.088-5.041 8.043-.057-2.271c0-2.686.229-4.639.688-5.859s1.188-1.83 2.184-1.83zm-15.279 4.965l.104 2.725c0 2.676-.23 4.625-.689 5.846s-1.191 1.83-2.197 1.83c-.996 0-1.723-.609-2.182-1.83l-.147-.426 5.111-8.145zm-18.076 5.602l-4.203 3.711v.518h-.586l-4.248 3.607v.201h13.871v-3.809h-4.834v-4.229zm-22.236 23.666l-4.525 1.084v3.896l4.496-1.113v14.195h-4.834v3.809h8.91l4.963-3.555v-.254h-4.834v-18.062h-4.176zm18.063 0l-4.527 1.084v3.896l4.498-1.113v7.699l4.203-3.336v-8.23h-4.174zm-29.119 2.762l-3.387 2.375.016.049-5.039 8.043-.059-2.271.119-2.428-4.449 2.945c.056 3.508.639 6.192 1.781 7.994 1.201 1.885 3.008 2.826 5.42 2.826 2.422 0 4.233-.941 5.434-2.826s1.803-4.723 1.803-8.512c0-3.602-.559-6.314-1.639-8.195zm-2.814 5.471l.102 2.725c0 2.676-.228 4.625-.687 5.846s-1.192 1.83-2.197 1.83c-.996 0-1.725-.609-2.184-1.83l-.146-.426 5.113-8.145zm-18.076 8.416l-9.039 5.15v.072h13.873v-3.809h-4.834v-1.414z" opacity=".25" fill="#fff"/></g></svg>