<?xml version="1.0" encoding="UTF-8"?>
<svg width="100pt" height="100pt" version="1.1" viewBox="0 0 100 100" xmlns="http://www.w3.org/2000/svg">
 <g>
  <path fill="white" d="m63.867 73.613c0 6.3711 9.2578 6.2305 9.2578 0v-47.211c0-6.3359-9.2578-6.3164-9.2578 0zm2.4648 0v-47.211c0-2.3984 4.3242-2.3594 4.3242 0v47.211c0 2.8047-4.3242 2.832-4.3242 0z"/>
  <path fill="white" d="m45.371 73.613c0 6.3711 9.2578 6.2305 9.2578 0v-47.207c0-6.3359-9.2578-6.3164-9.2578 0zm2.4648 0v-47.207c0-2.3984 4.3242-2.3594 4.3242 0v47.211c0 2.8047-4.3242 2.832-4.3242 0z"/>
  <path fill="white" d="m26.875 73.613c0 6.3711 9.2578 6.2305 9.2578 0v-47.207c0-6.3359-9.2578-6.3164-9.2578 0zm2.4648 0v-47.207c0-2.3984 4.3281-2.3594 4.3281 0v47.211c0 2.8047-4.3281 2.832-4.3281 0z"/>
 </g>
</svg>
