<svg xmlns:dc="http://purl.org/dc/elements/1.1/" xmlns:cc="http://creativecommons.org/ns#" xmlns:rdf="http://www.w3.org/1999/02/22-rdf-syntax-ns#" xmlns:svg="http://www.w3.org/2000/svg" xmlns="http://www.w3.org/2000/svg" width="300" height="200" id="svg2" version="1.1"><metadata id="metadata7"><rdf:RDF><cc:Work><dc:format>image/svg+xml</dc:format><dc:type rdf:resource="http://purl.org/dc/dcmitype/StillImage"/><dc:title/></cc:Work></rdf:RDF></metadata><g id="layer2" display="none"><rect style="marker:none" id="rect6890" width="300" height="200" x="0" y="0" color="#000000" fill="#b3b3b3" fill-opacity="1" fill-rule="nonzero" stroke="none" stroke-width="4" visibility="visible" display="inline" overflow="visible" enable-background="accumulate"/></g><g id="layer1" transform="translate(0,-852.36218)"><path style="marker:none" d="m 24,860.36218 c 0,-1.82764 1,-4 3.75,-4 1.827643,0 2.75,2 2.75,2 0,0 0.922357,-2 2.75,-2 2.75,0 3.75,2.17236 3.75,4 0,5 -6.5,8 -6.5,8 0,0 -6.5,-3 -6.5,-8 z" id="path3843" color="#000000" fill="#000000" fill-opacity="1" fill-rule="nonzero" stroke="none" stroke-width="1" visibility="visible" display="inline" overflow="visible" enable-background="accumulate"/><path id="path3361-4" d="m 224,880.36218 2,0 3,3 4.7735,-6 2.2265,0 0,2 -5,6 -1,1 -2,0 -1,-1 -3,-3 z" style="marker:none" color="#000000" fill="#70cd8f" fill-opacity="1" fill-rule="nonzero" stroke="none" stroke-width="5" visibility="visible" display="inline" overflow="visible" enable-background="accumulate"/><path d="m 129,855.3622 -1.00001,1 0,2 1.00001,1 2.00002,0 1,-1 0,-2 -1.00002,-1 z m 2e-5,6 -1.00001,1 0,6 1.00001,1 1.99998,0 1.00004,-1 -3e-5,-6 -1,-1 z" id="path6912" style="text-indent:0;text-align:start;line-height:100%;text-transform:none;block-progression:tb;marker:none" font-size="16.71258354000000068px" font-style="normal" font-variant="normal" font-weight="bold" font-stretch="normal" text-decoration="none" letter-spacing="0px" word-spacing="normal" direction="ltr" writing-mode="lr-tb" text-anchor="start" baseline-shift="baseline" color="#000000" fill="#ffffff" fill-opacity="1" fill-rule="nonzero" stroke="none" stroke-width="4" visibility="visible" display="inline" overflow="visible" enable-background="accumulate" font-family="Helvetica Neue"/><path id="path6914" d="m 57,861.36216 -1,-1 -4,0 0,-4 -1,-0.99999 -1,0 -1,1 0,4 -4,0 -1,0.99999 0,1 1,1 4,0 0,3.99999 1,1.00002 1,0 1,-1.00001 0,-3.99999 4,-10e-6 1,-0.99998 0,-1.00002 z" style="marker:none" color="#000000" fill="#ffffff" fill-opacity="1" fill-rule="nonzero" stroke="none" stroke-width="4" visibility="visible" display="inline" overflow="visible" enable-background="accumulate"/><path style="marker:none" d="m 65,860.36216 11,-2e-5 1,1.00002 0,1.00002 -1,0.99997 -11,3e-5 -1,-1.00003 0,-1 z" id="path6916" color="#000000" fill="#ffffff" fill-opacity="1" fill-rule="nonzero" stroke="none" stroke-width="4" visibility="visible" display="inline" overflow="visible" enable-background="accumulate"/><path id="path6918" d="m 84,862.36218 0,-2.00001 10,-3.99999 2,1e-5 0,1.99998 -4,10 -2,10e-6 0,-6 z" style="marker:none" color="#000000" fill="#ffffff" fill-opacity="1" fill-rule="nonzero" stroke="none" stroke-width="4" visibility="visible" display="inline" overflow="visible" enable-background="accumulate"/><path id="path6920" d="m 155,854.3622 -1,1 0,2 -2,0 c -6,0 -6,7 -6,7 0,0 2,-4 6,-4 0.66667,0 1.33333,0 2,0 l 0,2 1,1 4,-4.5 -4,-4.5 z m -13,4 -1,1 0,9 1,1 10,0 1,-1 0,-2 0,-3 0,-1 -1,0 c -0.3202,-10e-5 -0.6603,0.073 -1,0.1875 l 0,2.8125 0,2 -5.5625,0 a 2.0002,2.0002 0 0 1 -0.90625,0 l -1.53125,0 0,-1.625 a 2.0002,2.0002 0 0 1 0,-0.625 l 0,-2.75 0,-2 1.53125,0 c 0.3433,-0.6691 0.79175,-1.3477 1.34375,-2 l -0.875,0 -3,0 z" style="marker:none" color="#000000" fill="#ffffff" fill-opacity="1" fill-rule="nonzero" stroke="none" stroke-width="4" visibility="visible" display="inline" overflow="visible" enable-background="accumulate"/><path style="marker:none" d="m 109.50003,855.3622 -6.50002,3 1e-5,1 6.49998,3 1.00002,0 6.49999,-3 1e-5,-1 -6.50001,-3 -0.99998,0 z m -5.40621,6.5 -1.09377,0.5 -3e-5,1 6.49999,3 1,0 6.50001,-3 0,-1 -1.0937,-0.5 -5.40631,2.5 -0.99998,0 -5.40621,-2.5 z m 0,4 -1.09379,0.5 -2e-5,1 6.50001,3 1.00001,0 6.5,-3 -10e-6,-1 -1.0937,-0.5 -5.40631,2.5 -0.99999,0 -5.4062,-2.5 z" id="path6922" color="#000000" fill="#ffffff" fill-opacity="1" fill-rule="nonzero" stroke="none" stroke-width="4" visibility="visible" display="inline" overflow="visible" enable-background="accumulate"/><path id="path6924" d="m 170,853.3622 -1,1 0,1 -1,0 -1,1 0,2 7,0 0,-2 -1,-1 -1,0 0,-1 -1,-1 -1,0 z m -5,3 -1,1 0,11 1,1 11,0 1,-1 0,-11 -1,-1 -1,0 0,1 0,2 0,8 -9,0 0,-8 0,-2 0,-1 -1,0 z m 3,4 0,1 5,0 0,-1 -5,0 z m 0,2 0,1 5,0 0,-1 -5,0 z m 0,2 0,1 3,0 0,-1 -3,0 z" style="marker:none" color="#000000" fill="#ffffff" fill-opacity="1" fill-rule="nonzero" stroke="none" stroke-width="2" visibility="visible" display="inline" overflow="visible" enable-background="accumulate"/><path id="path10739" d="m 11.5,855.36218 c 3.0376,0 5.5,2.46243 5.5,5.5 0,3.03757 -2.4624,5.5 -5.5,5.5 -1.0061,0 -1.9387,-0.27827 -2.75,-0.75 l -3.75,3.75 -1,0 -1,-1 0,-1 3.75,-3.75 C 6.2783,862.80084 6,861.86831 6,860.86218 c 0,-3.03757 2.4624,-5.5 5.5,-5.5 z m 0.5,2 -1,0 -2,1 -1,2 0,1 1,2 2,1 1,0 2,-1 1,-2 0,-1 -1,-2 -2,-1 z" style="marker:none" color="#000000" fill="#999999" fill-opacity="1" fill-rule="nonzero" stroke="none" stroke-width="4" visibility="visible" display="inline" overflow="visible" enable-background="accumulate"/><path id="path10879" d="m 206,857.36218 -1,1 0,1 3,3 -3,3 0,1 1,1 1,0 3,-3 3,3 1,0 1,-1 0,-1 -3,-3 3,-3 0,-1 -1,-1 -1,0 -3,3 -3,-3 -1,0 z" style="marker:none" color="#000000" fill="#cccccc" fill-opacity="1" fill-rule="nonzero" stroke="none" stroke-width="0" visibility="visible" display="inline" overflow="visible" enable-background="accumulate"/><path style="marker:none" d="m 224,860.36218 2,0 3,3 4.7735,-6 2.2265,0 0,2 -5,6 -1,1 -2,0 -1,-1 -3,-3 z" id="path10883" color="#000000" fill="#222222" fill-opacity="1" fill-rule="nonzero" stroke="none" stroke-width="5" visibility="visible" display="inline" overflow="visible" enable-background="accumulate"/><path style="marker:none" d="m 244,864.36218 0,-7 1,-1 10,0 1,1 0,7 -1,1 -3,0 -2,3 -2,-3 -3,0 z" id="path11741" color="#000000" fill="#ffffff" fill-opacity="1" fill-rule="nonzero" stroke="none" stroke-width="4" visibility="visible" display="inline" overflow="visible" enable-background="accumulate"/><path id="path6918-2" d="m 84,882.36218 0,-2.00001 10,-3.99999 2,1e-5 0,1.99998 -4,10 -2,10e-6 0,-6 z" style="marker:none" color="#000000" fill="#70cd8f" fill-opacity="1" fill-rule="nonzero" stroke="none" stroke-width="5" visibility="visible" display="inline" overflow="visible" enable-background="accumulate"/><path style="marker:none" d="M 185 6 L 183 8 L 183 12 L 185 14 L 187 14 L 185 12 L 185 8 L 190 8 L 190 11 L 192 11 L 192 8 L 190 6 L 187 6 L 185 6 z M 192 6 L 194 8 L 194 12 L 189 12 L 189 9 L 187 9 L 187 12 L 189 14 L 194 14 L 196 12 L 196 8 L 194 6 L 192 6 z" transform="translate(0,852.36218)" id="path4118" color="#000000" fill="#0000ff" fill-opacity="1" fill-rule="nonzero" stroke="none" stroke-width="0" visibility="visible" display="inline" overflow="visible" enable-background="accumulate"/><path style="marker:none" d="m 205.9375,877.51843 -1,1 0,1 3,3 -3,3 0,1 1,1 1,0 3,-3 3,3 1,0 1,-1 0,-1 -3,-3 3,-3 0,-1 -1,-1 -1,0 -3,3 -3,-3 -1,0 z" id="path3059" color="#000000" fill="#999999" fill-opacity="1" fill-rule="nonzero" stroke="none" stroke-width="0" visibility="visible" display="inline" overflow="visible" enable-background="accumulate"/><text xml:space="preserve" style="line-height:125%" x="264.813" y="869.626" id="text3021" font-size="20px" font-style="normal" font-weight="bold" letter-spacing="0px" word-spacing="0px" fill="#ffffff" fill-opacity="1" stroke="none" font-family="'DejaVu Sans', Sans, sans-serif"><tspan id="tspan3023" x="264.813" y="869.626">?</tspan></text><path id="path3386" d="m 244,884.36218 0,-7 1,-1 10,0 1,1 0,7 -1,1 -3,0 -2,3 -2,-3 -3,0 z" style="marker:none" color="#000000" display="inline" overflow="visible" visibility="visible" fill="#cccccc" fill-opacity="1" fill-rule="nonzero" stroke="none" stroke-width="4" enable-background="accumulate"/></g></svg>