<?xml version="1.0" encoding="UTF-8" standalone="no"?>
<!-- Created with Inkscape (http://www.inkscape.org/) -->

<svg
   xmlns:dc="http://purl.org/dc/elements/1.1/"
   xmlns:cc="http://creativecommons.org/ns#"
   xmlns:rdf="http://www.w3.org/1999/02/22-rdf-syntax-ns#"
   xmlns:svg="http://www.w3.org/2000/svg"
   xmlns="http://www.w3.org/2000/svg"
   xmlns:sodipodi="http://sodipodi.sourceforge.net/DTD/sodipodi-0.dtd"
   xmlns:inkscape="http://www.inkscape.org/namespaces/inkscape"
   width="300"
   height="200"
   id="svg2"
   version="1.1"
   inkscape:version="0.48.2 r9819"
   inkscape:export-filename="/Users/tmcw/src/openstreetmap-website/app/assets/images/sprite.png"
   inkscape:export-xdpi="90"
   inkscape:export-ydpi="90"
   sodipodi:docname="sprite.svg">
  <defs
     id="defs4" />
  <sodipodi:namedview
     id="base"
     pagecolor="#ffffff"
     bordercolor="#666666"
     borderopacity="1.0"
     inkscape:pageopacity="0.0"
     inkscape:pageshadow="2"
     inkscape:zoom="5"
     inkscape:cx="159.62972"
     inkscape:cy="181.16738"
     inkscape:document-units="px"
     inkscape:current-layer="layer1"
     showgrid="true"
     inkscape:window-width="1280"
     inkscape:window-height="756"
     inkscape:window-x="0"
     inkscape:window-y="0"
     inkscape:window-maximized="0"
     showguides="true"
     inkscape:guide-bbox="true"
     inkscape:object-paths="true"
     inkscape:object-nodes="true">
    <inkscape:grid
       type="xygrid"
       id="grid2985"
       empspacing="5"
       visible="true"
       enabled="true"
       snapvisiblegridlinesonly="true" />
    <sodipodi:guide
       orientation="1,0"
       position="20,185"
       id="guide6892" />
    <sodipodi:guide
       orientation="1,0"
       position="40,185"
       id="guide6894" />
    <sodipodi:guide
       orientation="1,0"
       position="60,180"
       id="guide6896" />
    <sodipodi:guide
       orientation="1,0"
       position="80,185"
       id="guide6898" />
    <sodipodi:guide
       orientation="1,0"
       position="100,185"
       id="guide6900" />
    <sodipodi:guide
       orientation="1,0"
       position="120,175"
       id="guide6902" />
    <sodipodi:guide
       orientation="1,0"
       position="140,185"
       id="guide6904" />
    <sodipodi:guide
       orientation="1,0"
       position="160,190"
       id="guide6906" />
    <sodipodi:guide
       orientation="1,0"
       position="180,180"
       id="guide6908" />
    <sodipodi:guide
       orientation="0,1"
       position="50,180"
       id="guide6910" />
    <sodipodi:guide
       orientation="1,0"
       position="200,180"
       id="guide10867" />
    <sodipodi:guide
       orientation="0,1"
       position="180,160"
       id="guide10873" />
    <sodipodi:guide
       orientation="1,0"
       position="220,190"
       id="guide10875" />
    <sodipodi:guide
       orientation="1,0"
       position="240,160"
       id="guide10881" />
    <sodipodi:guide
       orientation="0,1"
       position="230,140"
       id="guide10887" />
    <sodipodi:guide
       orientation="1,0"
       position="260,195"
       id="guide11761" />
  </sodipodi:namedview>
  <metadata
     id="metadata7">
    <rdf:RDF>
      <cc:Work
         rdf:about="">
        <dc:format>image/svg+xml</dc:format>
        <dc:type
           rdf:resource="http://purl.org/dc/dcmitype/StillImage" />
        <dc:title></dc:title>
      </cc:Work>
    </rdf:RDF>
  </metadata>
  <g
     inkscape:groupmode="layer"
     id="layer2"
     inkscape:label="background"
     style="display:none">
    <rect
       style="color:#000000;fill:#b3b3b3;fill-opacity:1;fill-rule:nonzero;stroke:none;stroke-width:4;marker:none;visibility:visible;display:inline;overflow:visible;enable-background:accumulate"
       id="rect6890"
       width="300"
       height="200"
       x="0"
       y="0" />
  </g>
  <g
     inkscape:label="Layer 1"
     inkscape:groupmode="layer"
     id="layer1"
     transform="translate(0,-852.36218)">
    <path
       style="color:#000000;fill:#222222;fill-opacity:1;fill-rule:nonzero;stroke:none;stroke-width:1;marker:none;visibility:visible;display:inline;overflow:visible;enable-background:accumulate"
       d="m 24,860.36218 c 0,-1.82764 1,-4 3.75,-4 1.827643,0 2.75,2 2.75,2 0,0 0.922357,-2 2.75,-2 2.75,0 3.75,2.17236 3.75,4 0,5 -6.5,8 -6.5,8 0,0 -6.5,-3 -6.5,-8 z"
       id="path3843"
       inkscape:connector-curvature="0"
       sodipodi:nodetypes="sscsscs" />
    <path
       sodipodi:nodetypes="cccccccccccc"
       inkscape:connector-curvature="0"
       id="path3361-4"
       d="m 224,880.36218 2,0 3,3 4.7735,-6 2.2265,0 0,2 -5,6 -1,1 -2,0 -1,-1 -3,-3 z"
       style="color:#000000;fill:#70cd8f;fill-opacity:1;fill-rule:nonzero;stroke:none;stroke-width:5;marker:none;visibility:visible;display:inline;overflow:visible;enable-background:accumulate" />
    <path
       inkscape:export-ydpi="90"
       inkscape:export-xdpi="90"
       inkscape:export-filename="/Users/saman/work_repos/osm-redesign/renders/share-1.png"
       sodipodi:nodetypes="cccccccccccccccccc"
       d="m 129,855.3622 -1.00001,1 0,2 1.00001,1 2.00002,0 1,-1 0,-2 -1.00002,-1 z m 2e-5,6 -1.00001,1 0,6 1.00001,1 1.99998,0 1.00004,-1 -3e-5,-6 -1,-1 z"
       id="path6912"
       style="font-size:16.71258354px;font-style:normal;font-variant:normal;font-weight:bold;font-stretch:normal;text-indent:0;text-align:start;text-decoration:none;line-height:100%;letter-spacing:0px;word-spacing:normal;text-transform:none;direction:ltr;block-progression:tb;writing-mode:lr-tb;text-anchor:start;baseline-shift:baseline;color:#000000;fill:#222222;fill-opacity:1;fill-rule:nonzero;stroke:none;stroke-width:4;marker:none;visibility:visible;display:inline;overflow:visible;filter:url(#filter6591-2);enable-background:accumulate;font-family:Helvetica Neue"
       inkscape:connector-curvature="0" />
    <path
       inkscape:export-ydpi="90"
       inkscape:export-xdpi="90"
       inkscape:export-filename="/Users/saman/work_repos/osm-redesign/renders/share-1.png"
       inkscape:connector-curvature="0"
       id="path6914"
       d="m 57,861.36216 -1,-1 -4,0 0,-4 -1,-0.99999 -1,0 -1,1 0,4 -4,0 -1,0.99999 0,1 1,1 4,0 0,3.99999 1,1.00002 1,0 1,-1.00001 0,-3.99999 4,-10e-6 1,-0.99998 0,-1.00002 z"
       style="color:#000000;fill:#222222;fill-opacity:1;fill-rule:nonzero;stroke:none;stroke-width:4;marker:none;visibility:visible;display:inline;overflow:visible;filter:url(#filter6591-2);enable-background:accumulate" />
    <path
       style="color:#000000;fill:#222222;fill-opacity:1;fill-rule:nonzero;stroke:none;stroke-width:4;marker:none;visibility:visible;display:inline;overflow:visible;filter:url(#filter6591-2);enable-background:accumulate"
       d="m 65,860.36216 11,-2e-5 1,1.00002 0,1.00002 -1,0.99997 -11,3e-5 -1,-1.00003 0,-1 z"
       id="path6916"
       inkscape:connector-curvature="0"
       sodipodi:nodetypes="ccccccccc"
       inkscape:export-filename="/Users/saman/work_repos/osm-redesign/renders/share-1.png"
       inkscape:export-xdpi="90"
       inkscape:export-ydpi="90" />
    <path
       inkscape:export-ydpi="90"
       inkscape:export-xdpi="90"
       inkscape:export-filename="/Users/saman/work_repos/osm-redesign/renders/share-1.png"
       sodipodi:nodetypes="ccccccccc"
       inkscape:connector-curvature="0"
       id="path6918"
       d="m 84,862.36218 0,-2.00001 10,-3.99999 2,1e-5 0,1.99998 -4,10 -2,10e-6 0,-6 z"
       style="color:#000000;fill:#222222;fill-opacity:1;fill-rule:nonzero;stroke:none;stroke-width:4;marker:none;visibility:visible;display:inline;overflow:visible;filter:url(#filter6591-2);enable-background:accumulate" />
    <path
       inkscape:export-ydpi="90"
       inkscape:export-xdpi="90"
       inkscape:export-filename="/Users/saman/work_repos/osm-redesign/renders/share-1.png"
       id="path6920"
       d="m 155,854.3622 -1,1 0,2 -2,0 c -6,0 -6,7 -6,7 0,0 2,-4 6,-4 0.66667,0 1.33333,0 2,0 l 0,2 1,1 4,-4.5 -4,-4.5 z m -13,4 -1,1 0,9 1,1 10,0 1,-1 0,-2 0,-3 0,-1 -1,0 c -0.3202,-10e-5 -0.6603,0.073 -1,0.1875 l 0,2.8125 0,2 -5.5625,0 a 2.0002,2.0002 0 0 1 -0.90625,0 l -1.53125,0 0,-1.625 a 2.0002,2.0002 0 0 1 0,-0.625 l 0,-2.75 0,-2 1.53125,0 c 0.3433,-0.6691 0.79175,-1.3477 1.34375,-2 l -0.875,0 -3,0 z"
       style="color:#000000;fill:#222222;fill-opacity:1;fill-rule:nonzero;stroke:none;stroke-width:4;marker:none;visibility:visible;display:inline;overflow:visible;filter:url(#filter6591-2);enable-background:accumulate"
       inkscape:connector-curvature="0" />
    <path
       inkscape:export-ydpi="90"
       inkscape:export-xdpi="90"
       inkscape:export-filename="/Users/saman/work_repos/osm-redesign/renders/share-1.png"
       style="color:#000000;fill:#222222;fill-opacity:1;fill-rule:nonzero;stroke:none;stroke-width:4;marker:none;visibility:visible;display:inline;overflow:visible;filter:url(#filter6591-2);enable-background:accumulate"
       d="m 109.50003,855.3622 -6.50002,3 1e-5,1 6.49998,3 1.00002,0 6.49999,-3 1e-5,-1 -6.50001,-3 -0.99998,0 z m -5.40621,6.5 -1.09377,0.5 -3e-5,1 6.49999,3 1,0 6.50001,-3 0,-1 -1.0937,-0.5 -5.40631,2.5 -0.99998,0 -5.40621,-2.5 z m 0,4 -1.09379,0.5 -2e-5,1 6.50001,3 1.00001,0 6.5,-3 -10e-6,-1 -1.0937,-0.5 -5.40631,2.5 -0.99999,0 -5.4062,-2.5 z"
       id="path6922"
       inkscape:connector-curvature="0" />
    <path
       inkscape:export-ydpi="90"
       inkscape:export-xdpi="90"
       inkscape:export-filename="/Users/saman/work_repos/osm-redesign/renders/share-1.png"
       inkscape:connector-curvature="0"
       id="path6924"
       d="m 170,853.3622 -1,1 0,1 -1,0 -1,1 0,2 7,0 0,-2 -1,-1 -1,0 0,-1 -1,-1 -1,0 z m -5,3 -1,1 0,11 1,1 11,0 1,-1 0,-11 -1,-1 -1,0 0,1 0,2 0,8 -9,0 0,-8 0,-2 0,-1 -1,0 z m 3,4 0,1 5,0 0,-1 -5,0 z m 0,2 0,1 5,0 0,-1 -5,0 z m 0,2 0,1 3,0 0,-1 -3,0 z"
       style="color:#000000;fill:#222222;fill-opacity:1;fill-rule:nonzero;stroke:none;stroke-width:2;marker:none;visibility:visible;display:inline;overflow:visible;enable-background:accumulate" />
    <path
       inkscape:export-ydpi="90"
       inkscape:export-xdpi="90"
       inkscape:export-filename="/Users/saman/Dropbox/new-osm/community-landing-fg-dropdown.png"
       inkscape:connector-curvature="0"
       id="path10739"
       d="m 11.5,855.36218 c 3.0376,0 5.5,2.46243 5.5,5.5 0,3.03757 -2.4624,5.5 -5.5,5.5 -1.0061,0 -1.9387,-0.27827 -2.75,-0.75 l -3.75,3.75 -1,0 -1,-1 0,-1 3.75,-3.75 C 6.2783,862.80084 6,861.86831 6,860.86218 c 0,-3.03757 2.4624,-5.5 5.5,-5.5 z m 0.5,2 -1,0 -2,1 -1,2 0,1 1,2 2,1 1,0 2,-1 1,-2 0,-1 -1,-2 -2,-1 z"
       style="color:#000000;fill:#999999;fill-opacity:1;fill-rule:nonzero;stroke:none;stroke-width:4;marker:none;visibility:visible;display:inline;overflow:visible;filter:url(#filter6591-2);enable-background:accumulate" />
    <path
       style="color:#000000;fill:#0000ff;fill-opacity:1;fill-rule:nonzero;stroke:none;stroke-width:4;marker:none;visibility:visible;display:inline;overflow:visible;filter:url(#filter6591-2);enable-background:accumulate"
       d="m 192.00001,854.36218 -2,2 3,0 0,0 3,3 -4.50001,4.5 -2,-2 -1.5,1.5 2.5,2.5 2,0 5.50001,-5.5 0,-2 -4,-4 z m -3.50001,3.5 -5.5,5.5 0,2 4,4 2,0 2,-2 -3,0 0,0 -3,-3 4.5,-4.5 2,2 1.5,-1.5 -2.5,-2.5 z"
       id="path10871"
       inkscape:connector-curvature="0"
       sodipodi:nodetypes="cccccccccccccccccccccccccccc" />
    <path
       inkscape:export-ydpi="90"
       inkscape:export-xdpi="90"
       inkscape:export-filename="/Users/saman/work_repos/osm-redesign/renders/share-1.png"
       id="path10879"
       d="m 206,857.36218 -1,1 0,1 3,3 -3,3 0,1 1,1 1,0 3,-3 3,3 1,0 1,-1 0,-1 -3,-3 3,-3 0,-1 -1,-1 -1,0 -3,3 -3,-3 -1,0 z"
       style="color:#000000;fill:#cccccc;fill-opacity:1;fill-rule:nonzero;stroke:none;stroke-width:0;marker:none;visibility:visible;display:inline;overflow:visible;enable-background:accumulate"
       inkscape:connector-curvature="0" />
    <path
       style="color:#000000;fill:#222222;fill-opacity:1;fill-rule:nonzero;stroke:none;stroke-width:5;marker:none;visibility:visible;display:inline;overflow:visible;enable-background:accumulate"
       d="m 224,860.36218 2,0 3,3 4.7735,-6 2.2265,0 0,2 -5,6 -1,1 -2,0 -1,-1 -3,-3 z"
       id="path10883"
       inkscape:connector-curvature="0"
       sodipodi:nodetypes="cccccccccccc" />
    <path
       style="color:#000000;fill:#222222;fill-opacity:1;fill-rule:nonzero;stroke:none;stroke-width:4;marker:none;visibility:visible;display:inline;overflow:visible;enable-background:accumulate"
       d="m 244,864.36218 0,-7 1,-1 10,0 1,1 0,7 -1,1 -3,0 -2,3 -2,-3 -3,0 z"
       id="path11741"
       inkscape:connector-curvature="0"
       sodipodi:nodetypes="cccccccccccc" />
    <path
       inkscape:export-ydpi="90"
       inkscape:export-xdpi="90"
       inkscape:export-filename="/Users/saman/work_repos/osm-redesign/renders/share-1.png"
       sodipodi:nodetypes="ccccccccc"
       inkscape:connector-curvature="0"
       id="path6918-2"
       d="m 84,882.36218 0,-2.00001 10,-3.99999 2,1e-5 0,1.99998 -4,10 -2,10e-6 0,-6 z"
       style="color:#000000;fill:#70cd8f;fill-opacity:1;fill-rule:nonzero;stroke:none;stroke-width:5;marker:none;visibility:visible;display:inline;overflow:visible;filter:url(#filter6591-2);enable-background:accumulate" />
  </g>
</svg>
