<?xml version="1.0" encoding="UTF-8" standalone="no"?>
<!-- Created with Inkscape (http://www.inkscape.org/) -->

<svg
   xmlns:dc="http://purl.org/dc/elements/1.1/"
   xmlns:cc="http://creativecommons.org/ns#"
   xmlns:rdf="http://www.w3.org/1999/02/22-rdf-syntax-ns#"
   xmlns:svg="http://www.w3.org/2000/svg"
   xmlns="http://www.w3.org/2000/svg"
   xmlns:sodipodi="http://sodipodi.sourceforge.net/DTD/sodipodi-0.dtd"
   xmlns:inkscape="http://www.inkscape.org/namespaces/inkscape"
   width="300"
   height="200"
   id="svg2"
   version="1.1"
   inkscape:version="0.48.2 r9819"
   inkscape:export-filename="/Users/saman/work_repos/openstreetmap-website/app/assets/images/sprite.png"
   inkscape:export-xdpi="90"
   inkscape:export-ydpi="90"
   sodipodi:docname="sprite.svg">
  <defs
     id="defs4" />
  <sodipodi:namedview
     id="base"
     pagecolor="#ffffff"
     bordercolor="#666666"
     borderopacity="1.0"
     inkscape:pageopacity="0.0"
     inkscape:pageshadow="2"
     inkscape:zoom="1"
     inkscape:cx="56.280535"
     inkscape:cy="164.32411"
     inkscape:document-units="px"
     inkscape:current-layer="layer2"
     showgrid="false"
     inkscape:window-width="1280"
     inkscape:window-height="756"
     inkscape:window-x="0"
     inkscape:window-y="0"
     inkscape:window-maximized="0"
     showguides="false"
     inkscape:guide-bbox="true">
    <inkscape:grid
       type="xygrid"
       id="grid2985"
       empspacing="5"
       visible="true"
       enabled="true"
       snapvisiblegridlinesonly="true" />
    <sodipodi:guide
       orientation="1,0"
       position="20,185"
       id="guide6892" />
    <sodipodi:guide
       orientation="1,0"
       position="40,185"
       id="guide6894" />
    <sodipodi:guide
       orientation="1,0"
       position="60,180"
       id="guide6896" />
    <sodipodi:guide
       orientation="1,0"
       position="80,185"
       id="guide6898" />
    <sodipodi:guide
       orientation="1,0"
       position="100,185"
       id="guide6900" />
    <sodipodi:guide
       orientation="1,0"
       position="120,175"
       id="guide6902" />
    <sodipodi:guide
       orientation="1,0"
       position="140,185"
       id="guide6904" />
    <sodipodi:guide
       orientation="1,0"
       position="160,190"
       id="guide6906" />
    <sodipodi:guide
       orientation="1,0"
       position="180,180"
       id="guide6908" />
    <sodipodi:guide
       orientation="0,1"
       position="50,180"
       id="guide6910" />
  </sodipodi:namedview>
  <metadata
     id="metadata7">
    <rdf:RDF>
      <cc:Work
         rdf:about="">
        <dc:format>image/svg+xml</dc:format>
        <dc:type
           rdf:resource="http://purl.org/dc/dcmitype/StillImage" />
        <dc:title></dc:title>
      </cc:Work>
    </rdf:RDF>
  </metadata>
  <g
     inkscape:groupmode="layer"
     id="layer2"
     inkscape:label="background"
     style="display:none">
    <rect
       style="color:#000000;fill:#b3b3b3;fill-opacity:1;fill-rule:nonzero;stroke:none;stroke-width:4;marker:none;visibility:visible;display:inline;overflow:visible;enable-background:accumulate"
       id="rect6890"
       width="300"
       height="200"
       x="0"
       y="0" />
  </g>
  <g
     inkscape:label="Layer 1"
     inkscape:groupmode="layer"
     id="layer1"
     transform="translate(0,-852.36218)">
    <path
       style="color:#000000;fill:#999999;fill-opacity:1;fill-rule:nonzero;stroke:none;stroke-width:0.55720866px;marker:none;visibility:visible;display:inline;overflow:visible;enable-background:accumulate"
       d="m 8.4000012,852.36218 c -3.3137081,0 -5.9999994,2.68629 -5.9999994,6 0,3.31371 2.6862913,6 5.9999994,6 3.3137078,0 5.9999988,-2.68629 5.9999988,-6 0,-3.31371 -2.686291,-6 -5.9999988,-6 z m 0,2.4 c 1.9882248,0 3.5999988,1.61178 3.5999988,3.6 0,1.98822 -1.611774,3.6 -3.5999988,3.6 -1.9882249,0 -3.5999997,-1.61178 -3.5999997,-3.6 0,-1.98822 1.6117748,-3.6 3.5999997,-3.6 z"
       id="path2987"
       inkscape:connector-curvature="0" />
    <rect
       style="color:#000000;fill:#999999;fill-opacity:1;fill-rule:nonzero;stroke:none;stroke-width:0.55720866px;marker:none;visibility:visible;display:inline;overflow:visible;enable-background:accumulate"
       id="rect3033"
       width="6.3023868"
       height="3"
       x="679.99603"
       y="-530.39673"
       transform="matrix(-0.60876143,0.79335334,-0.79335334,-0.60876143,0,0)" />
    <path
       style="color:#000000;fill:#222222;fill-opacity:1;fill-rule:nonzero;stroke:none;stroke-width:1;marker:none;visibility:visible;display:inline;overflow:visible;enable-background:accumulate"
       d="m 1,35 c 0,-1.827643 1,-4 3.75,-4 1.8276427,0 2.75,2 2.75,2 0,0 0.9223573,-2 2.75,-2 C 13,31 14,33.172357 14,35 14,40 7.5,43 7.5,43 7.5,43 1,40 1,35 z"
       id="path3843"
       inkscape:connector-curvature="0"
       transform="translate(0,852.36218)"
       sodipodi:nodetypes="sscsscs" />
    <rect
       style="color:#000000;fill:none;stroke:none;stroke-width:1;marker:none;visibility:visible;display:inline;overflow:visible;enable-background:accumulate"
       id="rect3845"
       width="15"
       height="60"
       x="0"
       y="852.36218"
       inkscape:export-filename="/Users/tmcw/src/openstreetmap-website/app/assets/images/sprite.png"
       inkscape:export-xdpi="90"
       inkscape:export-ydpi="90" />
    <path
       inkscape:connector-curvature="0"
       id="path6649"
       d="m 10.21875,898.45593 c -0.51124,0 -1.01451,0.20201 -1.40625,0.59375 l -1.59375,1.59375 c 0.70051,0 1.3332,0.25386 1.84375,0.65625 L 9.5,900.86218 c 0.19587,-0.19587 0.46313,-0.3125 0.71875,-0.3125 0.25562,0 0.52288,0.11663 0.71875,0.3125 L 12,901.92468 c 0.39174,0.39174 0.39174,1.04576 0,1.4375 l -1.0625,1.0625 -1.5,1.5 c -0.39174,0.39174 -1.04576,0.39174 -1.4375,0 l -1.0625,-1.0625 c -0.0772,-0.0772 -0.10948,-0.1877 -0.15625,-0.28125 l -1.3125,1.3125 1.84375,1.84375 c 0.78347,0.78347 2.02903,0.78347 2.8125,0 l 3.6875,-3.6875 c 0.783469,-0.78347 0.783469,-2.02903 0,-2.8125 l -2.1875,-2.1875 c -0.39174,-0.39174 -0.89501,-0.59375 -1.40625,-0.59375 z m -3,3 c -0.51124,0 -1.01451,0.20201 -1.40625,0.59375 l -3.6875,3.6875 c -0.78347,0.78347 -0.78347,2.02903 0,2.8125 l 2.1875,2.1875 c 0.78347,0.78347 2.02903,0.78347 2.8125,0 l 1.59375,-1.59375 c -0.70051,0 -1.3332,-0.25386 -1.84375,-0.65625 l -0.4375,0.4375 c -0.39174,0.39174 -1.04576,0.39174 -1.4375,0 l -1.0625,-1.0625 c -0.39174,-0.39174 -0.39174,-1.04576 0,-1.4375 L 5,905.36218 l 1.5,-1.5 c 0.19587,-0.19587 0.46313,-0.3125 0.71875,-0.3125 0.25562,0 0.52288,0.11663 0.71875,0.3125 L 9,904.92468 c 0.0772,0.0772 0.10948,0.1877 0.15625,0.28125 l 1.3125,-1.3125 -1.84375,-1.84375 c -0.39174,-0.39174 -0.89501,-0.59375 -1.40625,-0.59375 z"
       style="color:#000000;fill:#0000ff;fill-opacity:1;fill-rule:nonzero;stroke:none;stroke-width:1;marker:none;visibility:visible;display:inline;overflow:visible;enable-background:accumulate" />
    <path
       inkscape:connector-curvature="0"
       style="font-size:16.71258354px;font-style:normal;font-variant:normal;font-weight:bold;font-stretch:normal;text-indent:0;text-align:start;text-decoration:none;line-height:100%;letter-spacing:0px;word-spacing:normal;text-transform:none;direction:ltr;block-progression:tb;writing-mode:lr-tb;text-anchor:start;baseline-shift:baseline;color:#000000;fill:#ffffff;fill-opacity:1;fill-rule:nonzero;stroke:none;stroke-width:4;marker:none;visibility:visible;display:inline;overflow:visible;filter:url(#filter6591-2);enable-background:accumulate;font-family:Helvetica Neue"
       id="path10613-5-5-6-9"
       d="m 109,854.3622 -1.00001,1 0,2 1.00001,1 2.00002,0 1,-1 0,-2 -1.00002,-1 z m 2e-5,6 -1.00001,1 0,6 1.00001,1 1.99998,0 1.00004,-1 -3e-5,-6 -1,-1 z"
       sodipodi:nodetypes="cccccccccccccccccc"
       inkscape:export-filename="/Users/saman/work_repos/osm-redesign/renders/share-1.png"
       inkscape:export-xdpi="90"
       inkscape:export-ydpi="90" />
    <path
       style="color:#000000;fill:#ffffff;fill-opacity:1;fill-rule:nonzero;stroke:none;stroke-width:4;marker:none;visibility:visible;display:inline;overflow:visible;filter:url(#filter6591-2);enable-background:accumulate"
       d="m 37,861.36216 -1,-1 -4,0 0,-4 -1,-0.99999 -1,0 -1,1 0,4 -4,0 -1,0.99999 0,1 1,1 4,0 0,3.99999 1,1.00002 1,0 1,-1.00001 0,-3.99999 4,-10e-6 1,-0.99998 0,-1.00002 z"
       id="path9584-2-5-2-5-3"
       inkscape:connector-curvature="0"
       inkscape:export-filename="/Users/saman/work_repos/osm-redesign/renders/share-1.png"
       inkscape:export-xdpi="90"
       inkscape:export-ydpi="90" />
    <path
       inkscape:export-ydpi="90"
       inkscape:export-xdpi="90"
       inkscape:export-filename="/Users/saman/work_repos/osm-redesign/renders/share-1.png"
       sodipodi:nodetypes="ccccccccc"
       inkscape:connector-curvature="0"
       id="path9631-1-5-7-5"
       d="m 45,860.36216 11,-2e-5 1,1.00002 0,1.00002 -1,0.99997 -11,3e-5 -1,-1.00003 0,-1 z"
       style="color:#000000;fill:#ffffff;fill-opacity:1;fill-rule:nonzero;stroke:none;stroke-width:4;marker:none;visibility:visible;display:inline;overflow:visible;filter:url(#filter6591-2);enable-background:accumulate" />
    <path
       style="color:#000000;fill:#ffffff;fill-opacity:1;fill-rule:nonzero;stroke:none;stroke-width:4;marker:none;visibility:visible;display:inline;overflow:visible;filter:url(#filter6591-2);enable-background:accumulate"
       d="m 64,862.36218 0,-2.00001 10,-3.99999 2,1e-5 0,1.99998 -4,10 -2,10e-6 0,-6 z"
       id="path15565-6-8-0-8"
       inkscape:connector-curvature="0"
       sodipodi:nodetypes="ccccccccc"
       inkscape:export-filename="/Users/saman/work_repos/osm-redesign/renders/share-1.png"
       inkscape:export-xdpi="90"
       inkscape:export-ydpi="90" />
    <path
       inkscape:connector-curvature="0"
       style="color:#000000;fill:#ffffff;fill-opacity:1;fill-rule:nonzero;stroke:none;stroke-width:4;marker:none;visibility:visible;display:inline;overflow:visible;filter:url(#filter6591-2);enable-background:accumulate"
       d="m 136,854.3622 -1,1 0,2 -2,0 c -6,0 -6,7 -6,7 0,0 2,-4 6,-4 0.66667,0 1.33333,0 2,0 l 0,2 1,1 4,-4.5 -4,-4.5 z m -13,4 -1,1 0,9 1,1 10,0 1,-1 0,-2 0,-3 0,-1 -1,0 c -0.3202,-10e-5 -0.6603,0.073 -1,0.1875 l 0,2.8125 0,2 -5.5625,0 a 2.0002,2.0002 0 0 1 -0.90625,0 l -1.53125,0 0,-1.625 a 2.0002,2.0002 0 0 1 0,-0.625 l 0,-2.75 0,-2 1.53125,0 c 0.3433,-0.6691 0.79175,-1.3477 1.34375,-2 l -0.875,0 -3,0 z"
       id="path3404-8-7-8-2-8"
       inkscape:export-filename="/Users/saman/work_repos/osm-redesign/renders/share-1.png"
       inkscape:export-xdpi="90"
       inkscape:export-ydpi="90" />
    <path
       inkscape:connector-curvature="0"
       id="path4677-7-8-0-3-8"
       d="m 89.50003,854.3622 -6.50002,3 1e-5,1 6.49998,3 1.00002,0 6.49999,-3 1e-5,-1 -6.50001,-3 -0.99998,0 z m -5.40621,6.5 -1.09377,0.5 -3e-5,1 6.49999,3 1,0 6.50001,-3 0,-1 -1.0937,-0.5 -5.40631,2.5 -0.99998,0 -5.40621,-2.5 z m 0,4 -1.09379,0.5 -2e-5,1 6.50001,3 1.00001,0 6.5,-3 -10e-6,-1 -1.0937,-0.5 -5.40631,2.5 -0.99999,0 -5.4062,-2.5 z"
       style="color:#000000;fill:#ffffff;fill-opacity:1;fill-rule:nonzero;stroke:none;stroke-width:4;marker:none;visibility:visible;display:inline;overflow:visible;filter:url(#filter6591-2);enable-background:accumulate"
       inkscape:export-filename="/Users/saman/work_repos/osm-redesign/renders/share-1.png"
       inkscape:export-xdpi="90"
       inkscape:export-ydpi="90" />
    <path
       style="color:#000000;fill:#ffffff;fill-opacity:1;fill-rule:nonzero;stroke:none;stroke-width:2;marker:none;visibility:visible;display:inline;overflow:visible;enable-background:accumulate"
       d="m 150,854.3622 -1,1 0,1 -1,0 -1,1 0,2 7,0 0,-2 -1,-1 -1,0 0,-1 -1,-1 -1,0 z m -5,3 -1,1 0,11 1,1 11,0 1,-1 0,-11 -1,-1 -1,0 0,1 0,2 0,8 -9,0 0,-8 0,-2 0,-1 -1,0 z m 3,4 0,1 5,0 0,-1 -5,0 z m 0,2 0,1 5,0 0,-1 -5,0 z m 0,2 0,1 3,0 0,-1 -3,0 z"
       id="path7296-5"
       inkscape:connector-curvature="0"
       inkscape:export-filename="/Users/saman/work_repos/osm-redesign/renders/share-1.png"
       inkscape:export-xdpi="90"
       inkscape:export-ydpi="90" />
    <path
       inkscape:connector-curvature="0"
       style="color:#000000;fill:#949b94;fill-opacity:1;fill-rule:nonzero;stroke:none;stroke-width:0;marker:none;visibility:visible;display:inline;overflow:visible;enable-background:accumulate"
       d="m 31,997.3622 -1,1 0,1 3,3 -3,3 0,1 1,1 1,0 3,-3 3,3 1,0 1,-1 0,-1 -3,-3 3,-3 0,-1 -1,-1 -1,0 -3,3 -3,-3 -1,0 z"
       id="path3848-0-9-4"
       inkscape:export-filename="/Users/saman/work_repos/osm-redesign/renders/share-1.png"
       inkscape:export-xdpi="90"
       inkscape:export-ydpi="90" />
    <path
       sodipodi:nodetypes="cccccccccccc"
       inkscape:connector-curvature="0"
       id="path3361-4"
       d="m 30,1021.3622 2,0 3,3 4.7735,-6 2.2265,0 0,2 -5,6 -1,1 -2,0 -1,-1 -3,-3 z"
       style="color:#000000;fill:#70cd8f;fill-opacity:1;fill-rule:nonzero;stroke:none;stroke-width:5;marker:none;visibility:visible;display:inline;overflow:visible;enable-background:accumulate" />
    <path
       inkscape:export-ydpi="90"
       inkscape:export-xdpi="90"
       inkscape:export-filename="/Users/saman/work_repos/osm-redesign/renders/share-1.png"
       sodipodi:nodetypes="cccccccccccccccccc"
       d="m 109,874.3622 -1.00001,1 0,2 1.00001,1 2.00002,0 1,-1 0,-2 -1.00002,-1 z m 2e-5,6 -1.00001,1 0,6 1.00001,1 1.99998,0 1.00004,-1 -3e-5,-6 -1,-1 z"
       id="path6912"
       style="font-size:16.71258354000000068px;font-style:normal;font-variant:normal;font-weight:bold;font-stretch:normal;text-indent:0;text-align:start;text-decoration:none;line-height:100%;letter-spacing:0px;word-spacing:normal;text-transform:none;direction:ltr;block-progression:tb;writing-mode:lr-tb;text-anchor:start;baseline-shift:baseline;color:#000000;fill:#222222;fill-opacity:1;fill-rule:nonzero;stroke:none;stroke-width:4;marker:none;visibility:visible;display:inline;overflow:visible;filter:url(#filter6591-2);enable-background:accumulate;font-family:Helvetica Neue"
       inkscape:connector-curvature="0" />
    <path
       inkscape:export-ydpi="90"
       inkscape:export-xdpi="90"
       inkscape:export-filename="/Users/saman/work_repos/osm-redesign/renders/share-1.png"
       inkscape:connector-curvature="0"
       id="path6914"
       d="m 37,881.36216 -1,-1 -4,0 0,-4 -1,-0.99999 -1,0 -1,1 0,4 -4,0 -1,0.99999 0,1 1,1 4,0 0,3.99999 1,1.00002 1,0 1,-1.00001 0,-3.99999 4,-10e-6 1,-0.99998 0,-1.00002 z"
       style="color:#000000;fill:#222222;fill-opacity:1;fill-rule:nonzero;stroke:none;stroke-width:4;marker:none;visibility:visible;display:inline;overflow:visible;filter:url(#filter6591-2);enable-background:accumulate" />
    <path
       style="color:#000000;fill:#222222;fill-opacity:1;fill-rule:nonzero;stroke:none;stroke-width:4;marker:none;visibility:visible;display:inline;overflow:visible;filter:url(#filter6591-2);enable-background:accumulate"
       d="m 45,880.36216 11,-2e-5 1,1.00002 0,1.00002 -1,0.99997 -11,3e-5 -1,-1.00003 0,-1 z"
       id="path6916"
       inkscape:connector-curvature="0"
       sodipodi:nodetypes="ccccccccc"
       inkscape:export-filename="/Users/saman/work_repos/osm-redesign/renders/share-1.png"
       inkscape:export-xdpi="90"
       inkscape:export-ydpi="90" />
    <path
       inkscape:export-ydpi="90"
       inkscape:export-xdpi="90"
       inkscape:export-filename="/Users/saman/work_repos/osm-redesign/renders/share-1.png"
       sodipodi:nodetypes="ccccccccc"
       inkscape:connector-curvature="0"
       id="path6918"
       d="m 64,882.36218 0,-2.00001 10,-3.99999 2,1e-5 0,1.99998 -4,10 -2,10e-6 0,-6 z"
       style="color:#000000;fill:#222222;fill-opacity:1;fill-rule:nonzero;stroke:none;stroke-width:4;marker:none;visibility:visible;display:inline;overflow:visible;filter:url(#filter6591-2);enable-background:accumulate" />
    <path
       inkscape:export-ydpi="90"
       inkscape:export-xdpi="90"
       inkscape:export-filename="/Users/saman/work_repos/osm-redesign/renders/share-1.png"
       id="path6920"
       d="m 135,874.3622 -1,1 0,2 -2,0 c -6,0 -6,7 -6,7 0,0 2,-4 6,-4 0.66667,0 1.33333,0 2,0 l 0,2 1,1 4,-4.5 -4,-4.5 z m -13,4 -1,1 0,9 1,1 10,0 1,-1 0,-2 0,-3 0,-1 -1,0 c -0.3202,-10e-5 -0.6603,0.073 -1,0.1875 l 0,2.8125 0,2 -5.5625,0 a 2.0002,2.0002 0 0 1 -0.90625,0 l -1.53125,0 0,-1.625 a 2.0002,2.0002 0 0 1 0,-0.625 l 0,-2.75 0,-2 1.53125,0 c 0.3433,-0.6691 0.79175,-1.3477 1.34375,-2 l -0.875,0 -3,0 z"
       style="color:#000000;fill:#222222;fill-opacity:1;fill-rule:nonzero;stroke:none;stroke-width:4;marker:none;visibility:visible;display:inline;overflow:visible;filter:url(#filter6591-2);enable-background:accumulate"
       inkscape:connector-curvature="0" />
    <path
       inkscape:export-ydpi="90"
       inkscape:export-xdpi="90"
       inkscape:export-filename="/Users/saman/work_repos/osm-redesign/renders/share-1.png"
       style="color:#000000;fill:#222222;fill-opacity:1;fill-rule:nonzero;stroke:none;stroke-width:4;marker:none;visibility:visible;display:inline;overflow:visible;filter:url(#filter6591-2);enable-background:accumulate"
       d="m 89.50003,874.3622 -6.50002,3 1e-5,1 6.49998,3 1.00002,0 6.49999,-3 1e-5,-1 -6.50001,-3 -0.99998,0 z m -5.40621,6.5 -1.09377,0.5 -3e-5,1 6.49999,3 1,0 6.50001,-3 0,-1 -1.0937,-0.5 -5.40631,2.5 -0.99998,0 -5.40621,-2.5 z m 0,4 -1.09379,0.5 -2e-5,1 6.50001,3 1.00001,0 6.5,-3 -10e-6,-1 -1.0937,-0.5 -5.40631,2.5 -0.99999,0 -5.4062,-2.5 z"
       id="path6922"
       inkscape:connector-curvature="0" />
    <path
       inkscape:export-ydpi="90"
       inkscape:export-xdpi="90"
       inkscape:export-filename="/Users/saman/work_repos/osm-redesign/renders/share-1.png"
       inkscape:connector-curvature="0"
       id="path6924"
       d="m 150,873.3622 -1,1 0,1 -1,0 -1,1 0,2 7,0 0,-2 -1,-1 -1,0 0,-1 -1,-1 -1,0 z m -5,3 -1,1 0,11 1,1 11,0 1,-1 0,-11 -1,-1 -1,0 0,1 0,2 0,8 -9,0 0,-8 0,-2 0,-1 -1,0 z m 3,4 0,1 5,0 0,-1 -5,0 z m 0,2 0,1 5,0 0,-1 -5,0 z m 0,2 0,1 3,0 0,-1 -3,0 z"
       style="color:#000000;fill:#222222;fill-opacity:1;fill-rule:nonzero;stroke:none;stroke-width:2;marker:none;visibility:visible;display:inline;overflow:visible;enable-background:accumulate" />
  </g>
</svg>
