<svg xmlns="http://www.w3.org/2000/svg" width="300" height="200">
  <path d="M24 8c0-1.828 1-4 3.75-4 1.828 0 2.75 2 2.75 2s.922-2 2.75-2C36 4 37 6.172 37 8c0 5-6.5 8-6.5 8S24 13 24 8z" color="#000" overflow="visible"/>
  <path d="M224 28h2l3 3 4.774-6H236v2l-5 6-1 1h-2l-1-1-3-3z" color="#000" fill="#70cd8f" overflow="visible"/>
  <path d="M129 3l-1 1v2l1 1h2l1-1V4l-1-1zm0 6l-1 1v6l1 1h2l1-1v-6l-1-1z" style="text-indent:0;text-align:start;line-height:100%;text-transform:none;block-progression:tb" font-size="16.713" font-weight="bold" letter-spacing="0" color="#000" fill="#fff" overflow="visible" font-family="Helvetica Neue"/>
  <path d="M57 9l-1-1h-4V4l-1-1h-1l-1 1v4h-4l-1 1v1l1 1h4v4l1 1h1l1-1v-4h4l1-1V9zM65 8h11l1 1v1l-1 1H65l-1-1V9zM84 10V8l10-4h2v2l-4 10h-2v-6zM155 2l-1 1v2h-2c-6 0-6 7-6 7s2-4 6-4h2v2l1 1 4-4.5-4-4.5zm-13 4l-1 1v9l1 1h10l1-1v-6h-1c-.32 0-.66.073-1 .188V15h-5.563a2 2 0 0 1-.906 0H143v-1.625a2 2 0 0 1 0-.625V8h1.53c.345-.67.793-1.348 1.345-2H142zM109.5 3L103 6v1l6.5 3h1l6.5-3V6l-6.5-3h-1zm-5.406 6.5L103 10v1l6.5 3h1l6.5-3v-1l-1.094-.5L110.5 12h-1l-5.406-2.5zm0 4L103 14v1l6.5 3h1l6.5-3v-1l-1.094-.5L110.5 16h-1l-5.406-2.5zM170 1l-1 1v1h-1l-1 1v2h7V4l-1-1h-1V2l-1-1h-1zm-5 3l-1 1v11l1 1h11l1-1V5l-1-1h-1v11h-9V4h-1zm3 4v1h5V8h-5zm0 2v1h5v-1h-5zm0 2v1h3v-1h-3z" color="#000" fill="#fff" overflow="visible"/>
  <path d="M11.5 3C14.538 3 17 5.462 17 8.5S14.538 14 11.5 14c-1.006 0-1.94-.278-2.75-.75L5 17H4l-1-1v-1l3.75-3.75C6.278 10.44 6 9.506 6 8.5 6 5.462 8.462 3 11.5 3zm.5 2h-1L9 6 8 8v1l1 2 2 1h1l2-1 1-2V8l-1-2-2-1z" color="#000" fill="#999" overflow="visible"/>
  <path d="M206 5l-1 1v1l3 3-3 3v1l1 1h1l3-3 3 3h1l1-1v-1l-3-3 3-3V6l-1-1h-1l-3 3-3-3h-1z" color="#000" fill="#ccc" overflow="visible"/>
  <path d="M224 8h2l3 3 4.774-6H236v2l-5 6-1 1h-2l-1-1-3-3z" color="#000" fill="#222" overflow="visible"/>
  <path d="M244 12V5l1-1h10l1 1v7l-1 1h-3l-2 3-2-3h-3z" color="#000" fill="#fff" overflow="visible"/>
  <path d="M84 30v-2l10-4h2v2l-4 10h-2v-6z" color="#000" fill="#70cd8f" overflow="visible"/>
  <path d="M185 6l-2 2v4l2 2h2l-2-2V8h5v3h2V8l-2-2h-5zm7 0l2 2v4h-5V9h-2v3l2 2h5l2-2V8l-2-2h-2z" color="#000" fill="#00f" overflow="visible"/>
  <path d="M205.938 25.156l-1 1v1l3 3-3 3v1l1 1h1l3-3 3 3h1l1-1v-1l-3-3 3-3v-1l-1-1h-1l-3 3-3-3h-1z" color="#000" fill="#999" overflow="visible"/>
  <text style="line-height:125%;-inkscape-font-specification:Sans Bold" x="264.813" y="869.626" font-size="20" font-weight="bold" letter-spacing="0" word-spacing="0" fill="#fff" font-family="Sans" transform="translate(0 -852.362)">
    <tspan x="264.813" y="869.626">?</tspan>
  </text>
  <path d="M244 32v-7l1-1h10l1 1v7l-1 1h-3l-2 3-2-3h-3z" color="#000" overflow="visible" fill="#ccc"/>
</svg>
