<?xml version="1.0" encoding="UTF-8"?>
<svg version="1.1" xmlns="http://www.w3.org/2000/svg" width="300" height="200">
  <g id="query">
    <text transform="matrix(1, 0, 0, 1, 276.165, 12.5)">
      <tspan x="-3.665" y="6.012" font-family="Helvetica, sans-serif" font-weight="Bold" font-size="12" fill="#FFFFFF">?</tspan>
    </text>
    <path d="M263,1 C263,1 272,8 272,8 C270.944,8.587 269.888,9.173 268.832,9.76 L271.863,16.375 C272.209,17.128 271.878,18.018 271.125,18.364 C270.372,18.709 269.482,18.378 269.136,17.625 L266.201,11.221 C265.134,11.814 264.067,12.407 263,13 L263,1 z" fill="#FFFFFF"/>
  </g>
  <g id="add-note-grey">
    <path d="M242,31 L242,24 L243,23 L253,23 L254,24 L254,31 L253,32 L250,32 L248,35 L246,32 L243,32 z" fill="#CCCCCC"/>
    <path d="M257,33 L257,35 L259,35 L259,37 L257,37 L257,39 L255,39 L255,37 L253,37 L253,35 L255,35 L255,33 L257,33 z" fill="#CCCCCC"/>
  </g>
  <g id="add-note">
    <path d="M257,12 L257,14 L259,14 L259,16 L257,16 L257,18 L255,18 L255,16 L253,16 L253,14 L255,14 L255,12 L257,12 z" fill="#FFFFFF"/>
    <path d="M242,11 L242,4 L243,3 L253,3 L254,4 L254,11 L253,12 L250,12 L248,15 L246,12 L243,12 z" fill="#FFFFFF"/>
  </g>
  <g id="check-green">
    <path d="M224,28 L226,28 L229,31 L233.773,25 L236,25 L236,27 L231,33 L230,34 L228,34 L227,33 L224,30 z" fill="#70CD8F"/>
  </g>
  <g id="check">
    <path d="M224,8 L226,8 L229,11 L233.773,5 L236,5 L236,7 L231,13 L230,14 L228,14 L227,13 L224,10 z" fill="#222222"/>
  </g>
  <g id="close-grey">
    <path d="M205.938,25.156 L204.938,26.156 L204.938,27.156 L207.938,30.156 L204.938,33.156 L204.938,34.156 L205.938,35.156 L206.938,35.156 L209.938,32.156 L212.938,35.156 L213.938,35.156 L214.938,34.156 L214.938,33.156 L211.938,30.156 L214.938,27.156 L214.938,26.156 L213.938,25.156 L212.938,25.156 L209.938,28.156 L206.938,25.156 L205.938,25.156 z" fill="#999999"/>
  </g>
  <g id="close">
    <path d="M206,5 L205,6 L205,7 L208,10 L205,13 L205,14 L206,15 L207,15 L210,12 L213,15 L214,15 L215,14 L215,13 L212,10 L215,7 L215,6 L214,5 L213,5 L210,8 L207,5 L206,5 z" fill="#CCCCCC"/>
  </g>
  <g id="link">
    <path d="M185,6 L183,8 L183,12 L185,14 L187,14 L185,12 L185,8 L190,8 L190,11 L192,11 L192,8 L190,6 L187,6 L185,6 z M192,6 L194,8 L194,12 L189,12 L189,9 L187,9 L187,12 L189,14 L194,14 L196,12 L196,8 L194,6 L192,6 z" fill="#0000FF"/>
  </g>
  <g id="clipboard">
    <path d="M170,1 L169,2 L169,3 L168,3 L167,4 L167,6 L174,6 L174,4 L173,3 L172,3 L172,2 L171,1 L170,1 z M165,4 L164,5 L164,16 L165,17 L176,17 L177,16 L177,5 L176,4 L175,4 L175,5 L175,7 L175,15 L166,15 L166,7 L166,5 L166,4 L165,4 z M168,8 L168,9 L173,9 L173,8 L168,8 z M168,10 L168,11 L173,11 L173,10 L168,10 z M168,12 L168,13 L171,13 L171,12 L168,12 z" fill="#FFFFFF"/>
  </g>
  <g id="export">
    <path d="M155,2 L154,3 L154,5 L152,5 C146,5 146,12 146,12 C146,12 148,8 152,8 C152.667,8 153.333,8 154,8 L154,10 L155,11 L159,6.5 L155,2 z M142,6 L141,7 L141,16 L142,17 L152,17 L153,16 L153,14 L153,11 L153,10 L152,10 C151.68,10 151.34,10.073 151,10.188 L151,13 L151,15 L145.438,15 C145.139,15.069 144.829,15.069 144.531,15 L143,15 L143,13.375 C142.967,13.168 142.967,12.957 143,12.75 L143,10 L143,8 L144.531,8 C144.875,7.331 145.323,6.652 145.875,6 L145,6 L142,6 z" fill="#FFFFFF"/>
  </g>
  <g id="info">
    <path d="M129,3 L128,4 L128,6 L129,7 L131,7 L132,6 L132,4 L131,3 z M129,9 L128,10 L128,16 L129,17 L131,17 L132,16 L132,10 L131,9 z" fill="#FFFFFF"/>
  </g>
  <g id="layers">
    <path d="M109.5,3 L103,6 L103,7 L109.5,10 L110.5,10 L117,7 L117,6 L110.5,3 L109.5,3 z M104.094,9.5 L103,10 L103,11 L109.5,14 L110.5,14 L117,11 L117,10 L115.906,9.5 L110.5,12 L109.5,12 L104.094,9.5 z M104.094,13.5 L103,14 L103,15 L109.5,18 L110.5,18 L117,15 L117,14 L115.906,13.5 L110.5,16 L109.5,16 L104.094,13.5 z" fill="#FFFFFF"/>
  </g>
  <g id="locate-green">
    <path d="M84,30 L84,28 L94,24 L96,24 L96,26 L92,36 L90,36 L90,30 z" fill="#70CD8F"/>
  </g>
  <g id="locate">
    <path d="M84,10 L84,8 L94,4 L96,4 L96,6 L92,16 L90,16 L90,10 z" fill="#FFFFFF"/>
  </g>
  <g id="minus">
    <path d="M65,8 L76,8 L77,9 L77,10 L76,11 L65,11 L64,10 L64,9 z" fill="#FFFFFF"/>
  </g>
  <g id="plus">
    <path d="M57,9 L56,8 L52,8 L52,4 L51,3 L50,3 L49,4 L49,8 L45,8 L44,9 L44,10 L45,11 L49,11 L49,15 L50,16 L51,16 L52,15 L52,11 L56,11 L57,10 L57,9 z" fill="#FFFFFF"/>
  </g>
  <g id="heart">
    <path d="M24,8 C24,6.172 25,4 27.75,4 C29.578,4 30.5,6 30.5,6 C30.5,6 31.422,4 33.25,4 C36,4 37,6.172 37,8 C37,13 30.5,16 30.5,16 C30.5,16 24,13 24,8 z" fill="#000000"/>
  </g>
  <g id="search">
    <path d="M11.5,3 C14.538,3 17,5.462 17,8.5 C17,11.538 14.538,14 11.5,14 C10.494,14 9.561,13.722 8.75,13.25 L5,17 L4,17 L3,16 L3,15 L6.75,11.25 C6.278,10.439 6,9.506 6,8.5 C6,5.462 8.462,3 11.5,3 z M12,5 L11,5 L9,6 L8,8 L8,9 L9,11 L11,12 L12,12 L14,11 L15,9 L15,8 L14,6 L12,5 z" fill="#999999"/>
  </g>
  <g id="language">
    <path d="M 300 18.02 L 298.56 18.02 C 298.417 18.028 298.275 17.986 298.16 17.9 C 298.06 17.817 297.981 17.71 297.93 17.59 L 297 15.02 L 292 15.02 L 291 17.56 C 290.953 17.676 290.877 17.779 290.78 17.86 C 290.669 17.955 290.526 18.004 290.38 18 L 289 18 L 293.55 6.53 L 295.44 6.53 L 300 18.02 Z M 296.47 13.71 L 294.89 9.52 C 294.737 9.114 294.607 8.7 294.5 8.28 C 294.44 8.527 294.377 8.757 294.31 8.97 L 294.12 9.53 L 292.54 13.72 L 296.47 13.71 Z M 290.17 12.13 C 289.147 11.779 288.17 11.305 287.26 10.72 C 288.662 9.215 289.632 7.36 290.07 5.35 L 292 5.35 L 292 4.02 L 287.31 4.02 C 287.258 3.829 287.191 3.641 287.11 3.46 C 286.87 2.81 286.6 2.02 286.6 2.02 L 285.13 2.52 C 285.13 2.52 285.53 3.41 285.73 4.02 L 280 4.02 L 280 5.35 L 282.15 5.35 C 282.588 7.368 283.575 9.226 285 10.72 C 283.455 11.68 281.767 12.389 280 12.82 C 280.374 13.367 280.664 13.827 280.87 14.2 C 282.708 13.584 284.461 12.741 286.09 11.69 C 287.197 12.429 288.393 13.024 289.65 13.46 L 290.17 12.13 Z M 283.63 5.35 L 288.54 5.35 C 288.221 7.057 287.362 8.617 286.09 9.8 C 284.864 8.58 284.011 7.037 283.63 5.35 L 283.63 5.35 Z"/>
  </g>
  <g id="language-white">
    <path d="M 300 38.02 L 298.56 38.02 C 298.417 38.028 298.275 37.986 298.16 37.9 C 298.06 37.817 297.981 37.71 297.93 37.59 L 297 35.02 L 292 35.02 L 291 37.56 C 290.953 37.676 290.877 37.779 290.78 37.86 C 290.669 37.955 290.526 38.004 290.38 38 L 289 38 L 293.55 26.53 L 295.44 26.53 L 300 38.02 Z M 296.47 33.71 L 294.89 29.52 C 294.737 29.114 294.607 28.7 294.5 28.28 C 294.44 28.527 294.377 28.757 294.31 28.97 L 294.12 29.53 L 292.54 33.72 L 296.47 33.71 Z M 290.17 32.13 C 289.147 31.779 288.17 31.305 287.26 30.72 C 288.662 29.215 289.632 27.36 290.07 25.35 L 292 25.35 L 292 24.02 L 287.31 24.02 C 287.258 23.829 287.191 23.641 287.11 23.46 C 286.87 22.81 286.6 22.02 286.6 22.02 L 285.13 22.52 C 285.13 22.52 285.53 23.41 285.73 24.02 L 280 24.02 L 280 25.35 L 282.15 25.35 C 282.588 27.368 283.575 29.226 285 30.72 C 283.455 31.68 281.767 32.389 280 32.82 C 280.374 33.367 280.664 33.827 280.87 34.2 C 282.708 33.584 284.461 32.741 286.09 31.69 C 287.197 32.429 288.393 33.024 289.65 33.46 L 290.17 32.13 Z M 283.63 25.35 L 288.54 25.35 C 288.221 27.057 287.362 28.617 286.09 29.8 C 284.864 28.58 284.011 27.037 283.63 25.35 Z" fill="#FFFFFF"/>
  </g>
  <g id="language-grey">
    <path d="M 300 58.02 L 298.56 58.02 C 298.417 58.028 298.275 57.986 298.16 57.9 C 298.06 57.817 297.981 57.71 297.93 57.59 L 297 55.02 L 292 55.02 L 291 57.56 C 290.953 57.676 290.877 57.779 290.78 57.86 C 290.669 57.955 290.526 58.004 290.38 58 L 289 58 L 293.55 46.53 L 295.44 46.53 L 300 58.02 Z M 296.47 53.71 L 294.89 49.52 C 294.737 49.114 294.607 48.7 294.5 48.28 C 294.44 48.527 294.377 48.757 294.31 48.97 L 294.12 49.53 L 292.54 53.72 L 296.47 53.71 Z M 290.17 52.13 C 289.147 51.779 288.17 51.305 287.26 50.72 C 288.662 49.215 289.632 47.36 290.07 45.35 L 292 45.35 L 292 44.02 L 287.31 44.02 C 287.258 43.829 287.191 43.641 287.11 43.46 C 286.87 42.81 286.6 42.02 286.6 42.02 L 285.13 42.52 C 285.13 42.52 285.53 43.41 285.73 44.02 L 280 44.02 L 280 45.35 L 282.15 45.35 C 282.588 47.368 283.575 49.226 285 50.72 C 283.455 51.68 281.767 52.389 280 52.82 C 280.374 53.367 280.664 53.827 280.87 54.2 C 282.708 53.584 284.461 52.741 286.09 51.69 C 287.197 52.429 288.393 53.024 289.65 53.46 L 290.17 52.13 Z M 283.63 45.35 L 288.54 45.35 C 288.221 47.057 287.362 48.617 286.09 49.8 C 284.864 48.58 284.011 47.037 283.63 45.35 Z" fill="#888888"/>
  </g>
</svg>
