<?xml version="1.0" encoding="UTF-8" standalone="no"?>
<!-- Created with Inkscape (http://www.inkscape.org/) -->

<svg
   xmlns:dc="http://purl.org/dc/elements/1.1/"
   xmlns:cc="http://creativecommons.org/ns#"
   xmlns:rdf="http://www.w3.org/1999/02/22-rdf-syntax-ns#"
   xmlns:svg="http://www.w3.org/2000/svg"
   xmlns="http://www.w3.org/2000/svg"
   xmlns:sodipodi="http://sodipodi.sourceforge.net/DTD/sodipodi-0.dtd"
   xmlns:inkscape="http://www.inkscape.org/namespaces/inkscape"
   width="300"
   height="200"
   id="svg2"
   version="1.1"
   inkscape:version="0.48.2 r9819"
   inkscape:export-filename="/Users/tmcw/src/openstreetmap-website/app/assets/images/sprite.png"
   inkscape:export-xdpi="90"
   inkscape:export-ydpi="90"
   sodipodi:docname="sprite.svg">
  <defs
     id="defs4" />
  <sodipodi:namedview
     id="base"
     pagecolor="#ffffff"
     bordercolor="#666666"
     borderopacity="1.0"
     inkscape:pageopacity="0.0"
     inkscape:pageshadow="2"
     inkscape:zoom="8"
     inkscape:cx="9.2822526"
     inkscape:cy="168.88141"
     inkscape:document-units="px"
     inkscape:current-layer="layer1"
     showgrid="true"
     inkscape:window-width="1289"
     inkscape:window-height="904"
     inkscape:window-x="0"
     inkscape:window-y="0"
     inkscape:window-maximized="0">
    <inkscape:grid
       type="xygrid"
       id="grid2985"
       empspacing="5"
       visible="true"
       enabled="true"
       snapvisiblegridlinesonly="true" />
  </sodipodi:namedview>
  <metadata
     id="metadata7">
    <rdf:RDF>
      <cc:Work
         rdf:about="">
        <dc:format>image/svg+xml</dc:format>
        <dc:type
           rdf:resource="http://purl.org/dc/dcmitype/StillImage" />
        <dc:title></dc:title>
      </cc:Work>
    </rdf:RDF>
  </metadata>
  <g
     inkscape:label="Layer 1"
     inkscape:groupmode="layer"
     id="layer1"
     transform="translate(0,-852.36218)">
    <path
       style="color:#000000;fill:#999999;fill-opacity:1;fill-rule:nonzero;stroke:none;stroke-width:0.55720866px;marker:none;visibility:visible;display:inline;overflow:visible;enable-background:accumulate"
       d="m 8.4000012,852.36218 c -3.3137081,0 -5.9999994,2.68629 -5.9999994,6 0,3.31371 2.6862913,6 5.9999994,6 3.3137078,0 5.9999988,-2.68629 5.9999988,-6 0,-3.31371 -2.686291,-6 -5.9999988,-6 z m 0,2.4 c 1.9882248,0 3.5999988,1.61178 3.5999988,3.6 0,1.98822 -1.611774,3.6 -3.5999988,3.6 -1.9882249,0 -3.5999997,-1.61178 -3.5999997,-3.6 0,-1.98822 1.6117748,-3.6 3.5999997,-3.6 z"
       id="path2987"
       inkscape:connector-curvature="0" />
    <rect
       style="color:#000000;fill:#999999;fill-opacity:1;fill-rule:nonzero;stroke:none;stroke-width:0.55720866px;marker:none;visibility:visible;display:inline;overflow:visible;enable-background:accumulate"
       id="rect3033"
       width="6.3023868"
       height="3"
       x="679.99603"
       y="-530.39673"
       transform="matrix(-0.60876143,0.79335334,-0.79335334,-0.60876143,0,0)" />
    <path
       style="color:#000000;fill:#222222;fill-opacity:1;fill-rule:nonzero;stroke:none;stroke-width:1;marker:none;visibility:visible;display:inline;overflow:visible;enable-background:accumulate"
       d="m 1,35 c 0,-1.827643 1,-4 3.75,-4 1.8276427,0 2.75,2 2.75,2 0,0 0.9223573,-2 2.75,-2 C 13,31 14,33.172357 14,35 14,40 7.5,43 7.5,43 7.5,43 1,40 1,35 z"
       id="path3843"
       inkscape:connector-curvature="0"
       transform="translate(0,852.36218)"
       sodipodi:nodetypes="sscsscs" />
    <rect
       style="color:#000000;fill:none;fill-opacity:1;fill-rule:nonzero;stroke:none;stroke-width:1;marker:none;visibility:visible;display:inline;overflow:visible;enable-background:accumulate"
       id="rect3845"
       width="15"
       height="45"
       x="0"
       y="0"
       transform="translate(0,852.36218)"
       inkscape:export-filename="/Users/saman/work_repos/openstreetmap-website/app/assets/images/sprite.png"
       inkscape:export-xdpi="90"
       inkscape:export-ydpi="90" />
  </g>
</svg>
