<?xml version="1.0" encoding="UTF-8"?>
<!DOCTYPE svg PUBLIC "-//W3C//DTD SVG 1.1//EN" "http://www.w3.org/Graphics/SVG/1.1/DTD/svg11.dtd">
<svg version="1.1" xmlns="http://www.w3.org/2000/svg" xmlns:xlink="http://www.w3.org/1999/xlink" x="0" y="0" width="300" height="200" viewBox="0, 0, 300, 200">
  <g id="background">
    <path d="M0,0 L300,0 L300,200 L0,200 z" fill="#B3B3B3" id="rect6890" display="none"/>
  </g>
  <g id="Layer_1">
    <g id="query">
      <text transform="matrix(1, 0, 0, 1, 276.165, 12.5)" id="tspan3023">
        <tspan x="-3.665" y="6.012" font-family="Helvetica-Bold" font-size="12" fill="#FFFFFF">?</tspan>
      </text>
      <path d="M263,1 C263,1 272,8 272,8 C270.944,8.587 269.888,9.173 268.832,9.76 L271.863,16.375 C272.209,17.128 271.878,18.018 271.125,18.364 C270.372,18.709 269.482,18.378 269.136,17.625 L266.201,11.221 C265.134,11.814 264.067,12.407 263,13 L263,1 z" fill="#FFFFFF"/>
    </g>
    <g id="add-note-grey">
      <path d="M242,31 L242,24 L243,23 L253,23 L254,24 L254,31 L253,32 L250,32 L248,35 L246,32 L243,32 z" fill="#CCCCCC" id="path3386"/>
      <path d="M257,33 L257,35 L259,35 L259,37 L257,37 L257,39 L255,39 L255,37 L253,37 L253,35 L255,35 L255,33 L257,33 z" fill="#CCCCCC"/>
    </g>
    <g id="add-note">
      <path d="M257,12 L257,14 L259,14 L259,16 L257,16 L257,18 L255,18 L255,16 L253,16 L253,14 L255,14 L255,12 L257,12 z" fill="#FFFFFF"/>
      <path d="M242,11 L242,4 L243,3 L253,3 L254,4 L254,11 L253,12 L250,12 L248,15 L246,12 L243,12 z" fill="#FFFFFF" id="path11741"/>
    </g>
    <g id="check-green">
      <path d="M224,28 L226,28 L229,31 L233.773,25 L236,25 L236,27 L231,33 L230,34 L228,34 L227,33 L224,30 z" fill="#70CD8F" id="path3361-4"/>
    </g>
    <g id="check">
      <path d="M224,8 L226,8 L229,11 L233.773,5 L236,5 L236,7 L231,13 L230,14 L228,14 L227,13 L224,10 z" fill="#222222" id="path10883"/>
    </g>
    <g id="close-grey">
      <path d="M205.938,25.156 L204.938,26.156 L204.938,27.156 L207.938,30.156 L204.938,33.156 L204.938,34.156 L205.938,35.156 L206.938,35.156 L209.938,32.156 L212.938,35.156 L213.938,35.156 L214.938,34.156 L214.938,33.156 L211.938,30.156 L214.938,27.156 L214.938,26.156 L213.938,25.156 L212.938,25.156 L209.938,28.156 L206.938,25.156 L205.938,25.156 z" fill="#999999" id="path3059"/>
    </g>
    <g id="close">
      <path d="M206,5 L205,6 L205,7 L208,10 L205,13 L205,14 L206,15 L207,15 L210,12 L213,15 L214,15 L215,14 L215,13 L212,10 L215,7 L215,6 L214,5 L213,5 L210,8 L207,5 L206,5 z" fill="#CCCCCC" id="path10879"/>
    </g>
    <g id="link">
      <path d="M185,6 L183,8 L183,12 L185,14 L187,14 L185,12 L185,8 L190,8 L190,11 L192,11 L192,8 L190,6 L187,6 L185,6 z M192,6 L194,8 L194,12 L189,12 L189,9 L187,9 L187,12 L189,14 L194,14 L196,12 L196,8 L194,6 L192,6 z" fill="#0000FF" id="path4118"/>
    </g>
    <g id="clipboard">
      <path d="M170,1 L169,2 L169,3 L168,3 L167,4 L167,6 L174,6 L174,4 L173,3 L172,3 L172,2 L171,1 L170,1 z M165,4 L164,5 L164,16 L165,17 L176,17 L177,16 L177,5 L176,4 L175,4 L175,5 L175,7 L175,15 L166,15 L166,7 L166,5 L166,4 L165,4 z M168,8 L168,9 L173,9 L173,8 L168,8 z M168,10 L168,11 L173,11 L173,10 L168,10 z M168,12 L168,13 L171,13 L171,12 L168,12 z" fill="#FFFFFF" id="path6924"/>
    </g>
    <g id="export">
      <path d="M155,2 L154,3 L154,5 L152,5 C146,5 146,12 146,12 C146,12 148,8 152,8 C152.667,8 153.333,8 154,8 L154,10 L155,11 L159,6.5 L155,2 z M142,6 L141,7 L141,16 L142,17 L152,17 L153,16 L153,14 L153,11 L153,10 L152,10 C151.68,10 151.34,10.073 151,10.188 L151,13 L151,15 L145.438,15 C145.139,15.069 144.829,15.069 144.531,15 L143,15 L143,13.375 C142.967,13.168 142.967,12.957 143,12.75 L143,10 L143,8 L144.531,8 C144.875,7.331 145.323,6.652 145.875,6 L145,6 L142,6 z" fill="#FFFFFF" id="path6920"/>
    </g>
    <g id="info">
      <path d="M129,3 L128,4 L128,6 L129,7 L131,7 L132,6 L132,4 L131,3 z M129,9 L128,10 L128,16 L129,17 L131,17 L132,16 L132,10 L131,9 z" fill="#FFFFFF" id="path6912"/>
    </g>
    <g id="layers">
      <path d="M109.5,3 L103,6 L103,7 L109.5,10 L110.5,10 L117,7 L117,6 L110.5,3 L109.5,3 z M104.094,9.5 L103,10 L103,11 L109.5,14 L110.5,14 L117,11 L117,10 L115.906,9.5 L110.5,12 L109.5,12 L104.094,9.5 z M104.094,13.5 L103,14 L103,15 L109.5,18 L110.5,18 L117,15 L117,14 L115.906,13.5 L110.5,16 L109.5,16 L104.094,13.5 z" fill="#FFFFFF" id="path6922"/>
    </g>
    <g id="locate-green">
      <path d="M84,30 L84,28 L94,24 L96,24 L96,26 L92,36 L90,36 L90,30 z" fill="#70CD8F" id="path6918-2"/>
    </g>
    <g id="locate">
      <path d="M84,10 L84,8 L94,4 L96,4 L96,6 L92,16 L90,16 L90,10 z" fill="#FFFFFF" id="path6918"/>
    </g>
    <g id="minus">
      <path d="M65,8 L76,8 L77,9 L77,10 L76,11 L65,11 L64,10 L64,9 z" fill="#FFFFFF" id="path6916"/>
    </g>
    <g id="plus">
      <path d="M57,9 L56,8 L52,8 L52,4 L51,3 L50,3 L49,4 L49,8 L45,8 L44,9 L44,10 L45,11 L49,11 L49,15 L50,16 L51,16 L52,15 L52,11 L56,11 L57,10 L57,9 z" fill="#FFFFFF" id="path6914"/>
    </g>
    <g id="heart">
      <path d="M24,8 C24,6.172 25,4 27.75,4 C29.578,4 30.5,6 30.5,6 C30.5,6 31.422,4 33.25,4 C36,4 37,6.172 37,8 C37,13 30.5,16 30.5,16 C30.5,16 24,13 24,8 z" fill="#000000" id="path3843"/>
    </g>
    <g id="search">
      <path d="M11.5,3 C14.538,3 17,5.462 17,8.5 C17,11.538 14.538,14 11.5,14 C10.494,14 9.561,13.722 8.75,13.25 L5,17 L4,17 L3,16 L3,15 L6.75,11.25 C6.278,10.439 6,9.506 6,8.5 C6,5.462 8.462,3 11.5,3 z M12,5 L11,5 L9,6 L8,8 L8,9 L9,11 L11,12 L12,12 L14,11 L15,9 L15,8 L14,6 L12,5 z" fill="#999999" id="path10739"/>
    </g>
  </g>
</svg>
