<?xml version="1.0" encoding="UTF-8"?>
<svg width="16px" height="16px" viewBox="0 0 16 16" version="1.1" xmlns="http://www.w3.org/2000/svg" xmlns:xlink="http://www.w3.org/1999/xlink">
        <g id="Logo_simple" fill="black">
            <g id="layer1" transform="translate(0.234847, 0.091766)">
                <path d="M1.75809857,15.5864714 C1.53259286,15.5296771 1.41476714,15.4360657 0.812798571,14.8354114 C0.0965871429,14.1207686 0.0506614286,14.0509914 0.05179,13.6792257 C0.0529328571,13.2638686 -0.0724585714,13.4124171 2.21577,11.1180486 C4.52671571,8.80090286 4.40771571,8.90189143 4.82581857,8.90298 C5.01909286,8.90355143 5.06773,8.91449429 5.22358143,8.99300286 L5.40114714,9.08244857 L5.96119286,8.5224 L6.52124143,7.96235429 L6.38092714,7.74361714 C6.10788714,7.31797429 5.85054429,6.69690286 5.73492714,6.18456286 C5.40852143,4.73815714 5.76038429,3.20801714 6.68624429,2.04756857 C8.28345857,0.0456714286 11.1528186,-0.398394286 13.27489,1.02790857 C14.4393671,1.81058286 15.1962414,3.01958 15.41179,4.44129714 C15.4573557,4.74184571 15.4576157,5.45568571 15.4123614,5.77276857 C15.2546157,6.87590286 14.7850586,7.81346 13.9961871,8.60042571 C13.5897757,9.00585143 13.2639443,9.24073714 12.7466671,9.50116857 C12.1308443,9.81121714 11.6083871,9.95670571 10.8984843,10.0158286 C9.88698143,10.1000686 8.76552714,9.82031714 7.90698143,9.26958571 L7.68824429,9.12927143 L7.12819857,9.68931714 L6.56815,10.2493657 L6.65759857,10.4269286 C6.73610714,10.58278 6.74711571,10.6314171 6.74761857,10.8246943 C6.74876143,11.2423057 6.84782429,11.1252714 4.54627857,13.4239743 C2.77385857,15.1942057 2.50102143,15.4561657 2.36526714,15.5180457 C2.19138714,15.5973029 1.92182714,15.6276857 1.75818714,15.5864714 L1.75809857,15.5864714 Z M11.2712243,9.15195429 C12.5502929,8.91782286 13.6672814,8.06622571 14.2271586,6.89834 C15.11979,5.03633714 14.5194471,2.84804286 12.7986071,1.69118857 C12.3880957,1.41521714 11.81485,1.18257714 11.27685,1.07362 C10.9041357,0.998134286 10.1154929,1.00585429 9.72675286,1.08879143 C9.14647571,1.21259143 8.61371286,1.44346 8.15203571,1.77118 C7.86672714,1.97370571 7.39628429,2.44395714 7.19702143,2.72580286 C6.09283,4.28761714 6.19273,6.36339429 7.44143,7.80428857 C8.08152143,8.54289714 8.96678714,9.02773714 9.94637571,9.17618571 C10.2716957,9.22548571 10.9358843,9.21333714 11.2712243,9.15195714 L11.2712243,9.15195429 Z M8.87038714,13.8891629 C8.10495286,13.6680029 7.47133,13.47936 7.46233286,13.4699514 C7.44547571,13.4523229 8.23654429,10.6468171 8.26791,10.6130286 C8.28353857,10.5962 10.9920157,11.3547 11.1029871,11.4069886 C11.1422157,11.4254743 11.1007014,11.5927571 10.7663043,12.7595514 C10.55651,13.49186 10.3722014,14.1373486 10.35673,14.1939686 C10.3412443,14.2505914 10.3136357,14.2956486 10.2953443,14.2940943 C10.2770586,14.2926657 9.63582143,14.1103229 8.87038714,13.8891629 Z M10.7425129,14.2243971 C10.7425129,14.1901514 11.5295357,11.4412371 11.5420243,11.43186 C11.57051,11.41046 14.31823,10.6433514 14.3287386,10.65386 C14.3411671,10.6662886 13.5606443,13.4390343 13.5401471,13.4552829 C13.5261471,13.4663686 10.8885243,14.2190457 10.8042814,14.2359886 C10.77031,14.2428171 10.7425129,14.2377029 10.7425129,14.2243886 L10.7425129,14.2243971 Z M6.17704429,12.99702 C6.72003857,12.4511857 7.20394143,11.9528 7.25238429,11.8894971 C7.36159286,11.7467771 7.51339,11.4185714 7.55467,11.2359114 C7.57172714,11.1604143 7.58871857,11.00994 7.59241857,10.9015229 L7.59916143,10.7043971 L7.71662429,10.6712457 C7.78122714,10.6530171 7.83903571,10.6430457 7.84508714,10.6491029 C7.86014429,10.66416 7.07001857,13.4236343 7.04369571,13.44788 C7.03212429,13.4585371 6.61025571,13.58476 6.10621857,13.72836 L5.18979,13.9894514 L6.17705857,12.9970257 L6.17704429,12.99702 Z M11.4998186,11.0334343 C11.4942186,11.0240914 11.4770471,10.9704486 11.4616586,10.91426 L11.4336871,10.8121 L11.5342043,10.7951 C12.3954786,10.6493829 13.3179014,10.245 14.0444586,9.69462571 C14.1482557,9.61599714 14.2070786,9.58646 14.2147129,9.60913429 C14.24993,9.71374571 14.3901814,10.2192829 14.38533,10.2241314 C14.3635014,10.24596 11.5078643,11.0468829 11.4998071,11.03344 L11.4998186,11.0334343 Z M1.81592714,10.1996943 C1.78271,10.1727514 1.05799286,7.71489143 1.00331,7.44372286 C0.992367143,7.38943143 1.09760429,7.41535143 2.39921571,7.78740286 C3.76114143,8.17670571 3.80759857,8.19218571 3.82654429,8.26301714 C3.84343,8.32619429 3.83240143,8.34579143 3.74602143,8.40596857 C3.69096429,8.44432571 3.25066714,8.87132571 2.76758143,9.35486 C2.28449857,9.83839429 1.88227,10.2340114 1.87374429,10.2340114 C1.86523,10.2340114 1.83919857,10.2185543 1.81592714,10.1996943 L1.81592714,10.1996943 Z M2.34190143,7.38647714 C1.57939286,7.16728 0.953287143,6.98616 0.950555714,6.98398857 C0.941012857,6.97641714 1.75870714,4.13697714 1.77517286,4.12051143 C1.78951571,4.10616857 4.61573,4.89800571 4.64506714,4.92457429 C4.65103857,4.92997429 4.47244429,5.57706 4.24821,6.36254286 C3.87799286,7.65939714 3.83535,7.79043429 3.78439286,7.78785714 C3.75353,7.78642857 3.10440714,7.60567714 2.34190143,7.38647714 L2.34190143,7.38647714 Z M4.24206143,7.73209429 C4.24986143,7.71146571 4.37809571,7.26840286 4.52699571,6.74748286 L4.79772429,5.80035429 L4.83301571,6.00625143 C4.89416429,6.36299429 5.00259571,6.76962857 5.13113857,7.12424286 C5.19946714,7.31273714 5.25150429,7.47034286 5.24677857,7.47448286 C5.24206429,7.47862571 5.03435286,7.53969143 4.78521571,7.61019429 C4.53607857,7.6807 4.30875286,7.74540286 4.28004714,7.75398 C4.24341857,7.76492286 4.23209,7.75840857 4.24206143,7.73209429 L4.24206143,7.73209429 Z M3.19294143,4.11930571 C2.43043571,3.89996 1.79997286,3.71025429 1.79191,3.69773714 C1.76571,3.65706286 0.991552857,0.923451429 1.00299286,0.912011429 C1.01907857,0.895925714 3.76999,1.68537143 3.79624714,1.71360286 C3.82569571,1.74526571 4.61754429,4.52458857 4.59607857,4.52095429 C4.58685,4.51952571 3.95545,4.33865143 3.19294143,4.11930571 Z M4.57080143,3.01922286 C4.41709,2.48026286 4.26802429,1.95798571 4.23954429,1.85860286 L4.18776429,1.67791143 L5.27576429,1.36771429 C5.87416143,1.19710571 6.38229286,1.05058571 6.40494143,1.04211143 C6.42759857,1.03362571 6.35263286,1.13099714 6.23837,1.25846857 C5.63074143,1.93633143 5.23238143,2.66270571 4.98042143,3.55221714 C4.93345571,3.71803143 4.89502714,3.8802 4.89502714,3.91259429 C4.89502714,4.10048857 4.82103571,3.89659429 4.57080143,3.01922286 Z" id="path3940"></path>
            </g>
        </g>
</svg>