<svg xmlns="http://www.w3.org/2000/svg" xmlns:xlink="http://www.w3.org/1999/xlink" width="530" height="200"><defs><clipPath id="A"><path transform="matrix(1.454546 0 0 1.454546 -622.81822 -83.09091)" d="M 1126,118.99999 A 110,110 0 0 1 1346,119" fill="#c5c5d7" fill-opacity="1" fill-rule="nonzero" stroke="none" stroke-width="4"/></clipPath><filter id="B" color-interpolation-filters="sRGB" x="-.046" y="-.087" width="1.091" height="1.174"><feGaussianBlur stdDeviation="5.813"/></filter><linearGradient id="C" x1="1225.688" y1="36.5" x2="1225.688" y2="119" xlink:href="#U"><stop offset="0" stop-color="#b2dbea"/><stop offset="1" stop-color="#7092ff"/></linearGradient><clipPath id="D"><path d="M 1126,118.99999 A 110,110 0 0 1 1346,119" transform="matrix(1.454546 0 0 1.454546 -611.81823 -534.09093)" fill="#000" fill-opacity="1" fill-rule="nonzero" stroke="none" stroke-width="4"/></clipPath><radialGradient id="E" cx="1218.2" cy="124.603" fx="1218.2" fy="124.603" r="110" gradientTransform="matrix(8.9292362e-8,-1.09375,1.0937499,1.4609618e-6,1099.715,1451.4055)" xlink:href="#U"><stop offset="0" stop-color="#ccf1ff" stop-opacity="0"/><stop offset=".857" stop-color="#ccf1ff" stop-opacity="0"/><stop offset="1" stop-color="#789afb"/></radialGradient><linearGradient id="F" x1="1254.219" y1="789.359" x2="1254.219" y2="942.362" xlink:href="#U"><stop offset="0" stop-color="#222"/><stop offset="1" stop-color="#adadc6" stop-opacity="0"/></linearGradient><linearGradient id="G" x1="1127" y1="942.362" x2="1127" y2="802.63" xlink:href="#U"><stop offset="0" stop-color="#cbeea7"/><stop offset="1" stop-color="#cee8c1"/></linearGradient><linearGradient id="H" x1="1115" y1="920.162" x2="1115" y2="946.062" xlink:href="#U"><stop offset="0" stop-color="#fff"/><stop offset="1" stop-color="#dfe9fc"/></linearGradient><linearGradient y2="200" x2="360" y1="163.875" x1="360" id="I" xlink:href="#U"><stop offset="0" stop-color="#a2c9ed"/><stop offset="1" stop-color="#7a9dfc"/></linearGradient><linearGradient id="J" x1="1170" y1="936.112" x2="1158.253" y2="892.27" xlink:href="#U"><stop offset="0" stop-color="#222"/><stop offset="1" stop-color="#222" stop-opacity="0"/></linearGradient><linearGradient id="K" x1="315" y1="200" x2="299.064" y2="140.525" xlink:href="#U"><stop offset="0" stop-color="#c4c4c4"/><stop offset="1" stop-color="#fff"/></linearGradient><path id="L" d="M1126 119c0-60.751 49.249-110 110-110s110 49.249 110 110"/><path id="M" d="M1023.754-506.266h4.834v-14.194l-4.497 1.113v-3.896l4.526-1.084h4.175v18.062h4.834v3.809h-13.872z"/><path id="N" d="M1040.863-513.37q0-5.684 1.802-8.511 1.802-2.842 5.42-2.842 3.633 0 5.435 2.827 1.802 2.827 1.802 8.525 0 5.684-1.802 8.511-1.802 2.827-5.435 2.827-3.618 0-5.42-2.827-1.802-2.842-1.802-8.511zm5.039 5.845q.688 1.831 2.183 1.831 1.509 0 2.197-1.831.688-1.831.688-5.845 0-1.523-.102-2.725l-5.112 8.145q.073.234.146.425zm2.183-13.535q-1.494 0-2.183 1.831-.688 1.831-.688 5.859 0 1.245.059 2.271l5.039-8.042q-.015-.044-.029-.088-.688-1.831-2.197-1.831z"/><path id="O" d="M1076.986-513.37q0-5.684 1.802-8.511 1.802-2.842 5.42-2.842 3.633 0 5.435 2.827 1.802 2.827 1.802 8.525 0 5.684-1.802 8.511-1.802 2.827-5.435 2.827-3.618 0-5.42-2.827-1.802-2.842-1.802-8.511zm5.039 5.845q.688 1.831 2.183 1.831 1.509 0 2.197-1.831.688-1.831.688-5.845 0-1.523-.103-2.725l-5.112 8.145q.073.234.147.425zm2.183-13.535q-1.494 0-2.183 1.831-.688 1.831-.688 5.859 0 1.245.059 2.271l5.039-8.042q-.015-.044-.029-.088-.688-1.831-2.197-1.831z"/><path id="P" d="M1096-506.266h4.834v-14.194l-4.497 1.113v-3.896l4.526-1.084h4.175v18.062h4.834v3.809H1096z"/><path id="Q" d="M1149.232-513.37q0-5.684 1.802-8.511 1.802-2.842 5.42-2.842 3.633 0 5.435 2.827 1.802 2.827 1.802 8.525 0 5.684-1.802 8.511-1.802 2.827-5.435 2.827-3.618 0-5.42-2.827-1.802-2.842-1.802-8.511zm5.039 5.845q.688 1.831 2.183 1.831 1.509 0 2.197-1.831.688-1.831.688-5.845 0-1.523-.102-2.725l-5.112 8.145q.073.234.147.425zm2.183-13.535q-1.494 0-2.183 1.831-.688 1.831-.688 5.859 0 1.245.059 2.271l5.039-8.042q-.015-.044-.029-.088-.688-1.831-2.197-1.831z"/><path id="R" d="M1185.356-513.37q0-5.684 1.802-8.511 1.802-2.842 5.42-2.842 3.633 0 5.435 2.827 1.802 2.827 1.802 8.525 0 5.684-1.802 8.511-1.802 2.827-5.435 2.827-3.618 0-5.42-2.827-1.802-2.842-1.802-8.511zm5.039 5.845q.688 1.831 2.183 1.831 1.509 0 2.197-1.831.688-1.831.688-5.845 0-1.523-.102-2.725l-5.112 8.145q.073.234.147.425zm2.183-13.535q-1.494 0-2.183 1.831-.688 1.831-.688 5.859 0 1.245.058 2.271l5.039-8.042q-.015-.044-.029-.088-.688-1.831-2.197-1.831z"/><path id="S" d="M1330.8-506.266h4.834v-14.194l-4.497 1.113v-3.896l4.526-1.084h4.175v18.062h4.834v3.809H1330.8z"/><path id="T" d="M273 155c-4.566 0-8.428 3.068-9.625 7.25L251 200h22l9.563-32v-.062c.019-.062.046-.125.063-.187.251-.876.375-1.793.375-2.75a10 10 0 0 0-10-10zm53 0a10 10 0 0 0-10 10c0 .957.124 1.874.375 2.75.017.063.043.125.063.188V168L326 200h22l-12.375-37.75c-1.197-4.182-5.059-7.25-9.625-7.25z"/><linearGradient id="U" gradientUnits="userSpaceOnUse"/><linearGradient id="V" x1="1184" y1="-405" x2="1184" y2="-533.035" xlink:href="#U"><stop offset="0" stop-color="#fff"/><stop offset="1" stop-color="#fff" stop-opacity="0"/></linearGradient><path id="W" d="M1059.877-506.266h4.834v-14.194l-4.497 1.113v-3.896l4.526-1.084h4.175v18.062h4.834v3.809h-13.872z"/><path id="X" d="M1113.109-513.37q0-5.684 1.802-8.511 1.802-2.842 5.42-2.842 3.633 0 5.435 2.827 1.802 2.827 1.802 8.525 0 5.684-1.802 8.511-1.802 2.827-5.435 2.827-3.618 0-5.42-2.827-1.802-2.842-1.802-8.511zm5.039 5.845q.688 1.831 2.183 1.831 1.509 0 2.197-1.831.688-1.831.688-5.845 0-1.523-.102-2.725l-5.112 8.145q.073.234.146.425zm2.183-13.535q-1.494 0-2.183 1.831-.688 1.831-.688 5.859 0 1.245.059 2.271l5.039-8.042q-.015-.044-.029-.088-.688-1.831-2.197-1.831z"/><path id="Y" d="M1221.479-513.37q0-5.684 1.802-8.511 1.802-2.842 5.42-2.842 3.633 0 5.435 2.827 1.802 2.827 1.802 8.525 0 5.684-1.802 8.511-1.802 2.827-5.435 2.827-3.618 0-5.42-2.827-1.802-2.842-1.802-8.511zm5.039 5.845q.688 1.831 2.183 1.831 1.509 0 2.197-1.831.688-1.831.688-5.845 0-1.523-.102-2.725l-5.112 8.145q.073.234.147.425zm2.183-13.535q-1.494 0-2.183 1.831-.688 1.831-.688 5.859 0 1.245.059 2.271l5.039-8.042q-.015-.044-.029-.088-.688-1.831-2.197-1.831z"/><path id="Z" d="M1257.602-513.37q0-5.684 1.802-8.511 1.802-2.842 5.42-2.842 3.633 0 5.435 2.827 1.802 2.827 1.802 8.525 0 5.684-1.802 8.511-1.802 2.827-5.435 2.827-3.618 0-5.42-2.827-1.802-2.842-1.802-8.511zm5.039 5.845q.688 1.831 2.183 1.831 1.509 0 2.197-1.831.688-1.831.688-5.845 0-1.523-.103-2.725l-5.112 8.145q.073.234.147.425zm2.183-13.535q-1.494 0-2.183 1.831-.688 1.831-.688 5.859 0 1.245.059 2.271l5.039-8.042q-.015-.044-.029-.088-.688-1.831-2.197-1.831z"/><path id="a" d="M1096-468.766h4.834v-14.194l-4.497 1.113v-3.896l4.526-1.084h4.175v18.062h4.834v3.809H1096z"/><path id="b" d="M1185.356-475.87q0-5.684 1.802-8.511 1.802-2.842 5.42-2.842 3.633 0 5.435 2.827 1.802 2.827 1.802 8.525 0 5.684-1.802 8.511-1.802 2.827-5.435 2.827-3.618 0-5.42-2.827-1.802-2.842-1.802-8.511zm5.039 5.845q.688 1.831 2.183 1.831 1.509 0 2.197-1.831.688-1.831.688-5.845 0-1.523-.102-2.725l-5.112 8.145q.073.234.147.425zm2.183-13.535q-1.494 0-2.183 1.831-.688 1.831-.688 5.859 0 1.245.058 2.271l5.039-8.042q-.015-.044-.029-.088-.688-1.831-2.197-1.831z"/><path id="c" d="M1330.8-356.266h4.834v-14.194l-4.497 1.113v-3.896l4.526-1.084h4.175v18.062h4.834v3.809H1330.8z"/></defs><g transform="translate(-840 -742.362)"><use xlink:href="#L" transform="matrix(1.5 0 0 1.5 -649.00018 763.86218)" fill="url(#E)"/><use xlink:href="#L" transform="matrix(1.454546 0 0 1.454546 -592.81822 769.27127)" fill="url(#C)"/><g transform="translate(19 1303.362)" clip-path="url(#D)" opacity=".25"><use xlink:href="#M" fill="url(#V)"/><use xlink:href="#N" fill="url(#V)"/><use xlink:href="#W" fill="url(#V)"/><use xlink:href="#O" fill="url(#V)"/><use xlink:href="#P" fill="url(#V)"/><use xlink:href="#X" fill="url(#V)"/><path d="M1132.123-506.266h4.834v-14.194l-4.497 1.113v-3.896l4.526-1.084h4.175v18.062h4.834v3.809h-13.872z" fill="url(#V)"/><use xlink:href="#Q" fill="url(#V)"/><path d="M1168.246-506.266h4.834v-14.194l-4.497 1.113v-3.896l4.526-1.084h4.175v18.062h4.834v3.809h-13.872z" fill="url(#V)"/><use xlink:href="#R" fill="url(#V)"/><path d="M1204.369-506.266h4.834v-14.194l-4.497 1.113v-3.896l4.526-1.084h4.175v18.062h4.834v3.809h-13.872z" fill="url(#V)"/><use xlink:href="#Y" fill="url(#V)"/><path d="M1240.492-506.266h4.834v-14.194l-4.497 1.113v-3.896l4.526-1.084h4.175v18.062h4.834v3.809h-13.872z" fill="url(#V)"/><use xlink:href="#Z" fill="url(#V)"/><path d="M1275.663-513.37q0-5.684 1.802-8.511 1.802-2.842 5.42-2.842 3.633 0 5.435 2.827 1.802 2.827 1.802 8.525 0 5.684-1.802 8.511-1.802 2.827-5.435 2.827-3.618 0-5.42-2.827-1.802-2.842-1.802-8.511zm5.039 5.845q.688 1.831 2.183 1.831 1.509 0 2.197-1.831.688-1.831.688-5.845 0-1.523-.102-2.725l-5.112 8.145q.073.234.146.425zm2.183-13.535q-1.494 0-2.183 1.831-.688 1.831-.688 5.859 0 1.245.059 2.271l5.039-8.042q-.015-.044-.029-.088-.688-1.831-2.197-1.831z" fill="url(#V)"/><path d="M1293.725-513.37q0-5.684 1.802-8.511 1.802-2.842 5.42-2.842 3.633 0 5.435 2.827 1.802 2.827 1.802 8.525 0 5.684-1.802 8.511-1.802 2.827-5.435 2.827-3.618 0-5.42-2.827-1.802-2.842-1.802-8.511zm5.039 5.845q.688 1.831 2.183 1.831 1.509 0 2.197-1.831.688-1.831.688-5.845 0-1.523-.102-2.725l-5.112 8.145q.073.234.147.425zm2.183-13.535q-1.494 0-2.183 1.831-.688 1.831-.688 5.859 0 1.245.059 2.271l5.039-8.042q-.015-.044-.029-.088-.688-1.831-2.197-1.831z" fill="url(#V)"/><path d="M1312.738-506.266h4.834v-14.194l-4.497 1.113v-3.896l4.526-1.084h4.175v18.062h4.834v3.809h-13.872z" fill="url(#V)"/><use xlink:href="#S" fill="url(#V)"/><path d="M1023.754-468.766h4.834v-14.194l-4.497 1.113v-3.896l4.526-1.084h4.175v18.062h4.834v3.809h-13.872z" fill="url(#V)"/><path d="M1040.863-475.87q0-5.684 1.802-8.511 1.802-2.842 5.42-2.842 3.633 0 5.435 2.827 1.802 2.827 1.802 8.525 0 5.684-1.802 8.511-1.802 2.827-5.435 2.827-3.618 0-5.42-2.827-1.802-2.842-1.802-8.511zm5.039 5.845q.688 1.831 2.183 1.831 1.509 0 2.197-1.831.688-1.831.688-5.845 0-1.523-.102-2.725l-5.112 8.145q.073.234.146.425zm2.183-13.535q-1.494 0-2.183 1.831-.688 1.831-.688 5.859 0 1.245.059 2.271l5.039-8.042q-.015-.044-.029-.088-.688-1.831-2.197-1.831z" fill="url(#V)"/><path d="M1058.925-475.87q0-5.684 1.802-8.511 1.802-2.842 5.42-2.842 3.633 0 5.435 2.827 1.802 2.827 1.802 8.525 0 5.684-1.802 8.511-1.802 2.827-5.435 2.827-3.618 0-5.42-2.827-1.802-2.842-1.802-8.511zm5.039 5.845q.688 1.831 2.183 1.831 1.509 0 2.197-1.831.688-1.831.688-5.845 0-1.523-.102-2.725l-5.112 8.145q.073.234.147.425zm2.183-13.535q-1.494 0-2.183 1.831-.688 1.831-.688 5.859 0 1.245.059 2.271l5.039-8.042q-.015-.044-.029-.088-.688-1.831-2.197-1.831z" fill="url(#V)"/><path d="M1076.986-475.87q0-5.684 1.802-8.511 1.802-2.842 5.42-2.842 3.633 0 5.435 2.827 1.802 2.827 1.802 8.525 0 5.684-1.802 8.511-1.802 2.827-5.435 2.827-3.618 0-5.42-2.827-1.802-2.842-1.802-8.511zm5.039 5.845q.688 1.831 2.183 1.831 1.509 0 2.197-1.831.688-1.831.688-5.845 0-1.523-.103-2.725l-5.112 8.145q.073.234.147.425zm2.183-13.535q-1.494 0-2.183 1.831-.688 1.831-.688 5.859 0 1.245.059 2.271l5.039-8.042q-.015-.044-.029-.088-.688-1.831-2.197-1.831z" fill="url(#V)"/><use xlink:href="#a" fill="url(#V)"/><path d="M1113.109-475.87q0-5.684 1.802-8.511 1.802-2.842 5.42-2.842 3.633 0 5.435 2.827 1.802 2.827 1.802 8.525 0 5.684-1.802 8.511-1.802 2.827-5.435 2.827-3.618 0-5.42-2.827-1.802-2.842-1.802-8.511zm5.039 5.845q.688 1.831 2.183 1.831 1.509 0 2.197-1.831.688-1.831.688-5.845 0-1.523-.102-2.725l-5.112 8.145q.073.234.146.425zm2.183-13.535q-1.494 0-2.183 1.831-.688 1.831-.688 5.859 0 1.245.059 2.271l5.039-8.042q-.015-.044-.029-.088-.688-1.831-2.197-1.831z" fill="url(#V)"/><path d="M1132.123-468.766h4.834v-14.194l-4.497 1.113v-3.896l4.526-1.084h4.175v18.062h4.834v3.809h-13.872z" fill="url(#V)"/><path d="M1149.232-475.87q0-5.684 1.802-8.511 1.802-2.842 5.42-2.842 3.633 0 5.435 2.827 1.802 2.827 1.802 8.525 0 5.684-1.802 8.511-1.802 2.827-5.435 2.827-3.618 0-5.42-2.827-1.802-2.842-1.802-8.511zm5.039 5.845q.688 1.831 2.183 1.831 1.509 0 2.197-1.831.688-1.831.688-5.845 0-1.523-.102-2.725l-5.112 8.145q.073.234.147.425zm2.183-13.535q-1.494 0-2.183 1.831-.688 1.831-.688 5.859 0 1.245.059 2.271l5.039-8.042q-.015-.044-.029-.088-.688-1.831-2.197-1.831z" fill="url(#V)"/><path d="M1168.246-468.766h4.834v-14.194l-4.497 1.113v-3.896l4.526-1.084h4.175v18.062h4.834v3.809h-13.872z" fill="url(#V)"/><use xlink:href="#b" fill="url(#V)"/><path d="M1204.369-468.766h4.834v-14.194l-4.497 1.113v-3.896l4.526-1.084h4.175v18.062h4.834v3.809h-13.872z" fill="url(#V)"/><path d="M1221.479-475.87q0-5.684 1.802-8.511 1.802-2.842 5.42-2.842 3.633 0 5.435 2.827 1.802 2.827 1.802 8.525 0 5.684-1.802 8.511-1.802 2.827-5.435 2.827-3.618 0-5.42-2.827-1.802-2.842-1.802-8.511zm5.039 5.845q.688 1.831 2.183 1.831 1.509 0 2.197-1.831.688-1.831.688-5.845 0-1.523-.102-2.725l-5.112 8.145q.073.234.147.425zm2.183-13.535q-1.494 0-2.183 1.831-.688 1.831-.688 5.859 0 1.245.059 2.271l5.039-8.042q-.015-.044-.029-.088-.688-1.831-2.197-1.831z" fill="url(#V)"/><path d="M1239.54-475.87q0-5.684 1.802-8.511 1.802-2.842 5.42-2.842 3.633 0 5.435 2.827 1.802 2.827 1.802 8.525 0 5.684-1.802 8.511-1.802 2.827-5.435 2.827-3.618 0-5.42-2.827-1.802-2.842-1.802-8.511zm5.039 5.845q.688 1.831 2.183 1.831 1.509 0 2.197-1.831.688-1.831.688-5.845 0-1.523-.103-2.725l-5.112 8.145q.073.234.147.425zm2.183-13.535q-1.494 0-2.183 1.831-.688 1.831-.688 5.859 0 1.245.059 2.271l5.039-8.042q-.015-.044-.029-.088-.688-1.831-2.197-1.831z" fill="url(#V)"/><path d="M1258.554-468.766h4.834v-14.194l-4.497 1.113v-3.896l4.526-1.084h4.175v18.062h4.834v3.809h-13.872z" fill="url(#V)"/><path d="M1276.615-468.766h4.834v-14.194l-4.497 1.113v-3.896l4.526-1.084h4.175v18.062h4.834v3.809h-13.872z" fill="url(#V)"/><path d="M1293.725-475.87q0-5.684 1.802-8.511 1.802-2.842 5.42-2.842 3.633 0 5.435 2.827 1.802 2.827 1.802 8.525 0 5.684-1.802 8.511-1.802 2.827-5.435 2.827-3.618 0-5.42-2.827-1.802-2.842-1.802-8.511zm5.039 5.845q.688 1.831 2.183 1.831 1.509 0 2.197-1.831.688-1.831.688-5.845 0-1.523-.102-2.725l-5.112 8.145q.073.234.147.425zm2.183-13.535q-1.494 0-2.183 1.831-.688 1.831-.688 5.859 0 1.245.059 2.271l5.039-8.042q-.015-.044-.029-.088-.688-1.831-2.197-1.831z" fill="url(#V)"/><path d="M1312.738-468.766h4.834v-14.194l-4.497 1.113v-3.896l4.526-1.084h4.175v18.062h4.834v3.809h-13.872z" fill="url(#V)"/><path d="M1329.848-475.87q0-5.684 1.802-8.511 1.802-2.842 5.42-2.842 3.633 0 5.435 2.827 1.802 2.827 1.802 8.525 0 5.684-1.802 8.511-1.802 2.827-5.435 2.827-3.618 0-5.42-2.827-1.802-2.842-1.802-8.511zm5.039 5.845q.688 1.831 2.183 1.831 1.509 0 2.197-1.831.688-1.831.688-5.845 0-1.523-.103-2.725l-5.112 8.145q.073.234.147.425zm2.183-13.535q-1.494 0-2.183 1.831-.688 1.831-.688 5.859 0 1.245.059 2.271l5.039-8.042q-.015-.044-.029-.088-.688-1.831-2.197-1.831z" fill="url(#V)"/><path d="M1023.754-431.266h4.834v-14.194l-4.497 1.113v-3.896l4.526-1.084h4.175v18.062h4.834v3.809h-13.872z" fill="url(#V)"/><path d="M1040.863-438.37q0-5.684 1.802-8.511 1.802-2.842 5.42-2.842 3.633 0 5.435 2.827 1.802 2.827 1.802 8.525 0 5.684-1.802 8.511-1.802 2.827-5.435 2.827-3.618 0-5.42-2.827-1.802-2.842-1.802-8.511zm5.039 5.845q.688 1.831 2.183 1.831 1.509 0 2.197-1.831.688-1.831.688-5.845 0-1.523-.102-2.725l-5.112 8.145q.073.234.146.425zm2.183-13.535q-1.494 0-2.183 1.831-.688 1.831-.688 5.859 0 1.245.059 2.271l5.039-8.042q-.015-.044-.029-.088-.688-1.831-2.197-1.831z" fill="url(#V)"/><path d="M1059.877-431.266h4.834v-14.194l-4.497 1.113v-3.896l4.526-1.084h4.175v18.062h4.834v3.809h-13.872z" fill="url(#V)"/><path d="M1076.986-438.37q0-5.684 1.802-8.511 1.802-2.842 5.42-2.842 3.633 0 5.435 2.827 1.802 2.827 1.802 8.525 0 5.684-1.802 8.511-1.802 2.827-5.435 2.827-3.618 0-5.42-2.827-1.802-2.842-1.802-8.511zm5.039 5.845q.688 1.831 2.183 1.831 1.509 0 2.197-1.831.688-1.831.688-5.845 0-1.523-.103-2.725l-5.112 8.145q.073.234.147.425zm2.183-13.535q-1.494 0-2.183 1.831-.688 1.831-.688 5.859 0 1.245.059 2.271l5.039-8.042q-.015-.044-.029-.088-.688-1.831-2.197-1.831z" fill="url(#V)"/><path d="M1096-431.266h4.834v-14.194l-4.497 1.113v-3.896l4.526-1.084h4.175v18.062h4.834v3.809H1096z" fill="url(#V)"/><path d="M1113.109-438.37q0-5.684 1.802-8.511 1.802-2.842 5.42-2.842 3.633 0 5.435 2.827 1.802 2.827 1.802 8.525 0 5.684-1.802 8.511-1.802 2.827-5.435 2.827-3.618 0-5.42-2.827-1.802-2.842-1.802-8.511zm5.039 5.845q.688 1.831 2.183 1.831 1.509 0 2.197-1.831.688-1.831.688-5.845 0-1.523-.102-2.725l-5.112 8.145q.073.234.146.425zm2.183-13.535q-1.494 0-2.183 1.831-.688 1.831-.688 5.859 0 1.245.059 2.271l5.039-8.042q-.015-.044-.029-.088-.688-1.831-2.197-1.831z" fill="url(#V)"/><path d="M1132.123-431.266h4.834v-14.194l-4.497 1.113v-3.896l4.526-1.084h4.175v18.062h4.834v3.809h-13.872z" fill="url(#V)"/><path d="M1149.232-438.37q0-5.684 1.802-8.511 1.802-2.842 5.42-2.842 3.633 0 5.435 2.827 1.802 2.827 1.802 8.525 0 5.684-1.802 8.511-1.802 2.827-5.435 2.827-3.618 0-5.42-2.827-1.802-2.842-1.802-8.511zm5.039 5.845q.688 1.831 2.183 1.831 1.509 0 2.197-1.831.688-1.831.688-5.845 0-1.523-.102-2.725l-5.112 8.145q.073.234.147.425zm2.183-13.535q-1.494 0-2.183 1.831-.688 1.831-.688 5.859 0 1.245.059 2.271l5.039-8.042q-.015-.044-.029-.088-.688-1.831-2.197-1.831z" fill="url(#V)"/><path d="M1168.246-431.266h4.834v-14.194l-4.497 1.113v-3.896l4.526-1.084h4.175v18.062h4.834v3.809h-13.872z" fill="url(#V)"/><path d="M1185.356-438.37q0-5.684 1.802-8.511 1.802-2.842 5.42-2.842 3.633 0 5.435 2.827 1.802 2.827 1.802 8.525 0 5.684-1.802 8.511-1.802 2.827-5.435 2.827-3.618 0-5.42-2.827-1.802-2.842-1.802-8.511zm5.039 5.845q.688 1.831 2.183 1.831 1.509 0 2.197-1.831.688-1.831.688-5.845 0-1.523-.102-2.725l-5.112 8.145q.073.234.147.425zm2.183-13.535q-1.494 0-2.183 1.831-.688 1.831-.688 5.859 0 1.245.058 2.271l5.039-8.042q-.015-.044-.029-.088-.688-1.831-2.197-1.831z" fill="url(#V)"/><path d="M1203.417-438.37q0-5.684 1.802-8.511 1.802-2.842 5.42-2.842 3.633 0 5.435 2.827 1.802 2.827 1.802 8.525 0 5.684-1.802 8.511-1.802 2.827-5.435 2.827-3.618 0-5.42-2.827-1.802-2.842-1.802-8.511zm5.039 5.845q.688 1.831 2.183 1.831 1.509 0 2.197-1.831.688-1.831.688-5.845 0-1.523-.102-2.725l-5.112 8.145q.073.234.147.425zm2.183-13.535q-1.494 0-2.183 1.831-.688 1.831-.688 5.859 0 1.245.059 2.271l5.039-8.042q-.015-.044-.029-.088-.688-1.831-2.197-1.831z" fill="url(#V)"/><path d="M1222.431-431.266h4.834v-14.194l-4.497 1.113v-3.896l4.526-1.084h4.175v18.062h4.834v3.809h-13.872z" fill="url(#V)"/><path d="M1239.54-438.37q0-5.684 1.802-8.511 1.802-2.842 5.42-2.842 3.633 0 5.435 2.827 1.802 2.827 1.802 8.525 0 5.684-1.802 8.511-1.802 2.827-5.435 2.827-3.618 0-5.42-2.827-1.802-2.842-1.802-8.511zm5.039 5.845q.688 1.831 2.183 1.831 1.509 0 2.197-1.831.688-1.831.688-5.845 0-1.523-.103-2.725l-5.112 8.145q.073.234.147.425zm2.183-13.535q-1.494 0-2.183 1.831-.688 1.831-.688 5.859 0 1.245.059 2.271l5.039-8.042q-.015-.044-.029-.088-.688-1.831-2.197-1.831z" fill="url(#V)"/><path d="M1258.554-431.266h4.834v-14.194l-4.497 1.113v-3.896l4.526-1.084h4.175v18.062h4.834v3.809h-13.872z" fill="url(#V)"/><path d="M1275.663-438.37q0-5.684 1.802-8.511 1.802-2.842 5.42-2.842 3.633 0 5.435 2.827 1.802 2.827 1.802 8.525 0 5.684-1.802 8.511-1.802 2.827-5.435 2.827-3.618 0-5.42-2.827-1.802-2.842-1.802-8.511zm5.039 5.845q.688 1.831 2.183 1.831 1.509 0 2.197-1.831.688-1.831.688-5.845 0-1.523-.102-2.725l-5.112 8.145q.073.234.146.425zm2.183-13.535q-1.494 0-2.183 1.831-.688 1.831-.688 5.859 0 1.245.059 2.271l5.039-8.042q-.015-.044-.029-.088-.688-1.831-2.197-1.831z" fill="url(#V)"/><path d="M1294.677-431.266h4.834v-14.194l-4.497 1.113v-3.896l4.526-1.084h4.175v18.062h4.834v3.809h-13.872z" fill="url(#V)"/><path d="M1312.738-431.266h4.834v-14.194l-4.497 1.113v-3.896l4.526-1.084h4.175v18.062h4.834v3.809h-13.872z" fill="url(#V)"/><path d="M1329.848-438.37q0-5.684 1.802-8.511 1.802-2.842 5.42-2.842 3.633 0 5.435 2.827 1.802 2.827 1.802 8.525 0 5.684-1.802 8.511-1.802 2.827-5.435 2.827-3.618 0-5.42-2.827-1.802-2.842-1.802-8.511zm5.039 5.845q.688 1.831 2.183 1.831 1.509 0 2.197-1.831.688-1.831.688-5.845 0-1.523-.103-2.725l-5.112 8.145q.073.234.147.425zm2.183-13.535q-1.494 0-2.183 1.831-.688 1.831-.688 5.859 0 1.245.059 2.271l5.039-8.042q-.015-.044-.029-.088-.688-1.831-2.197-1.831z" fill="url(#V)"/><path d="M1022.802-400.87q0-5.684 1.802-8.511 1.802-2.842 5.42-2.842 3.633 0 5.435 2.827 1.802 2.827 1.802 8.525 0 5.684-1.802 8.511-1.802 2.827-5.435 2.827-3.618 0-5.42-2.827-1.802-2.842-1.802-8.511zm5.039 5.845q.688 1.831 2.183 1.831 1.509 0 2.197-1.831.688-1.831.688-5.845 0-1.523-.103-2.725l-5.112 8.145q.073.234.147.425zm2.183-13.535q-1.494 0-2.183 1.831-.688 1.831-.688 5.859 0 1.245.059 2.271l5.039-8.042q-.015-.044-.029-.088-.688-1.831-2.197-1.831z" fill="url(#V)"/><path d="M1041.815-393.766h4.834v-14.194l-4.497 1.113v-3.896l4.526-1.084h4.175v18.062h4.834v3.809h-13.872z" fill="url(#V)"/><path d="M1058.925-400.87q0-5.684 1.802-8.511 1.802-2.842 5.42-2.842 3.633 0 5.435 2.827 1.802 2.827 1.802 8.525 0 5.684-1.802 8.511-1.802 2.827-5.435 2.827-3.618 0-5.42-2.827-1.802-2.842-1.802-8.511zm5.039 5.845q.688 1.831 2.183 1.831 1.509 0 2.197-1.831.688-1.831.688-5.845 0-1.523-.102-2.725l-5.112 8.145q.073.234.147.425zm2.183-13.535q-1.494 0-2.183 1.831-.688 1.831-.688 5.859 0 1.245.059 2.271l5.039-8.042q-.015-.044-.029-.088-.688-1.831-2.197-1.831z" fill="url(#V)"/><path d="M1077.939-393.766h4.834v-14.194l-4.497 1.113v-3.896l4.526-1.084h4.175v18.062h4.834v3.809h-13.872z" fill="url(#V)"/><path d="M1096-393.766h4.834v-14.194l-4.497 1.113v-3.896l4.526-1.084h4.175v18.062h4.834v3.809H1096z" fill="url(#V)"/><path d="M1114.062-393.766h4.834v-14.194l-4.497 1.113v-3.896l4.526-1.084h4.175v18.062h4.834v3.809h-13.872z" fill="url(#V)"/><path d="M1131.171-400.87q0-5.684 1.802-8.511 1.802-2.842 5.42-2.842 3.633 0 5.435 2.827 1.802 2.827 1.802 8.525 0 5.684-1.802 8.511-1.802 2.827-5.435 2.827-3.618 0-5.42-2.827-1.802-2.842-1.802-8.511zm5.039 5.845q.688 1.831 2.183 1.831 1.509 0 2.197-1.831.688-1.831.688-5.845 0-1.523-.102-2.725l-5.112 8.145q.073.234.147.425zm2.183-13.535q-1.494 0-2.183 1.831-.688 1.831-.688 5.859 0 1.245.059 2.271l5.039-8.042q-.015-.044-.029-.088-.688-1.831-2.197-1.831z" fill="url(#V)"/><path d="M1150.185-393.766h4.834v-14.194l-4.497 1.113v-3.896l4.526-1.084h4.175v18.062h4.834v3.809h-13.872z" fill="url(#V)"/><path d="M1167.294-400.87q0-5.684 1.802-8.511 1.802-2.842 5.42-2.842 3.633 0 5.435 2.827 1.802 2.827 1.802 8.525 0 5.684-1.802 8.511-1.802 2.827-5.435 2.827-3.618 0-5.42-2.827-1.802-2.842-1.802-8.511zm5.039 5.845q.688 1.831 2.183 1.831 1.509 0 2.197-1.831.688-1.831.688-5.845 0-1.523-.103-2.725l-5.112 8.145q.073.234.147.425zm2.183-13.535q-1.494 0-2.183 1.831-.688 1.831-.688 5.859 0 1.245.059 2.271l5.039-8.042q-.015-.044-.029-.088-.688-1.831-2.197-1.831z" fill="url(#V)"/><path d="M1186.308-393.766h4.834v-14.194l-4.497 1.113v-3.896l4.526-1.084h4.175v18.062h4.834v3.809h-13.872z" fill="url(#V)"/><path d="M1203.417-400.87q0-5.684 1.802-8.511 1.802-2.842 5.42-2.842 3.633 0 5.435 2.827 1.802 2.827 1.802 8.525 0 5.684-1.802 8.511-1.802 2.827-5.435 2.827-3.618 0-5.42-2.827-1.802-2.842-1.802-8.511zm5.039 5.845q.688 1.831 2.183 1.831 1.509 0 2.197-1.831.688-1.831.688-5.845 0-1.523-.102-2.725l-5.112 8.145q.073.234.147.425zm2.183-13.535q-1.494 0-2.183 1.831-.688 1.831-.688 5.859 0 1.245.059 2.271l5.039-8.042q-.015-.044-.029-.088-.688-1.831-2.197-1.831z" fill="url(#V)"/><path d="M1222.431-393.766h4.834v-14.194l-4.497 1.113v-3.896l4.526-1.084h4.175v18.062h4.834v3.809h-13.872z" fill="url(#V)"/><path d="M1239.54-400.87q0-5.684 1.802-8.511 1.802-2.842 5.42-2.842 3.633 0 5.435 2.827 1.802 2.827 1.802 8.525 0 5.684-1.802 8.511-1.802 2.827-5.435 2.827-3.618 0-5.42-2.827-1.802-2.842-1.802-8.511zm5.039 5.845q.688 1.831 2.183 1.831 1.509 0 2.197-1.831.688-1.831.688-5.845 0-1.523-.103-2.725l-5.112 8.145q.073.234.147.425zm2.183-13.535q-1.494 0-2.183 1.831-.688 1.831-.688 5.859 0 1.245.059 2.271l5.039-8.042q-.015-.044-.029-.088-.688-1.831-2.197-1.831z" fill="url(#V)"/><path d="M1258.554-393.766h4.834v-14.194l-4.497 1.113v-3.896l4.526-1.084h4.175v18.062h4.834v3.809h-13.872z" fill="url(#V)"/><path d="M1276.615-393.766h4.834v-14.194l-4.497 1.113v-3.896l4.526-1.084h4.175v18.062h4.834v3.809h-13.872z" fill="url(#V)"/><path d="M1293.725-400.87q0-5.684 1.802-8.511 1.802-2.842 5.42-2.842 3.633 0 5.435 2.827 1.802 2.827 1.802 8.525 0 5.684-1.802 8.511-1.802 2.827-5.435 2.827-3.618 0-5.42-2.827-1.802-2.842-1.802-8.511zm5.039 5.845q.688 1.831 2.183 1.831 1.509 0 2.197-1.831.688-1.831.688-5.845 0-1.523-.102-2.725l-5.112 8.145q.073.234.147.425zm2.183-13.535q-1.494 0-2.183 1.831-.688 1.831-.688 5.859 0 1.245.059 2.271l5.039-8.042q-.015-.044-.029-.088-.688-1.831-2.197-1.831z" fill="url(#V)"/><path d="M1312.738-393.766h4.834v-14.194l-4.497 1.113v-3.896l4.526-1.084h4.175v18.062h4.834v3.809h-13.872z" fill="url(#V)"/><path d="M1329.848-400.87q0-5.684 1.802-8.511 1.802-2.842 5.42-2.842 3.633 0 5.435 2.827 1.802 2.827 1.802 8.525 0 5.684-1.802 8.511-1.802 2.827-5.435 2.827-3.618 0-5.42-2.827-1.802-2.842-1.802-8.511zm5.039 5.845q.688 1.831 2.183 1.831 1.509 0 2.197-1.831.688-1.831.688-5.845 0-1.523-.103-2.725l-5.112 8.145q.073.234.147.425zm2.183-13.535q-1.494 0-2.183 1.831-.688 1.831-.688 5.859 0 1.245.059 2.271l5.039-8.042q-.015-.044-.029-.088-.688-1.831-2.197-1.831z" fill="url(#V)"/><path d="M1022.802-363.37q0-5.684 1.802-8.511 1.802-2.842 5.42-2.842 3.633 0 5.435 2.827 1.802 2.827 1.802 8.525 0 5.684-1.802 8.511-1.802 2.827-5.435 2.827-3.618 0-5.42-2.827-1.802-2.842-1.802-8.511zm5.039 5.845q.688 1.831 2.183 1.831 1.509 0 2.197-1.831.688-1.831.688-5.845 0-1.523-.103-2.725l-5.112 8.145q.073.234.147.425zm2.183-13.535q-1.494 0-2.183 1.831-.688 1.831-.688 5.859 0 1.245.059 2.271l5.039-8.042q-.015-.044-.029-.088-.688-1.831-2.197-1.831z" fill="url(#V)"/><path d="M1040.863-363.37q0-5.684 1.802-8.511 1.802-2.842 5.42-2.842 3.633 0 5.435 2.827 1.802 2.827 1.802 8.525 0 5.684-1.802 8.511-1.802 2.827-5.435 2.827-3.618 0-5.42-2.827-1.802-2.842-1.802-8.511zm5.039 5.845q.688 1.831 2.183 1.831 1.509 0 2.197-1.831.688-1.831.688-5.845 0-1.523-.102-2.725l-5.112 8.145q.073.234.146.425zm2.183-13.535q-1.494 0-2.183 1.831-.688 1.831-.688 5.859 0 1.245.059 2.271l5.039-8.042q-.015-.044-.029-.088-.688-1.831-2.197-1.831z" fill="url(#V)"/><path d="M1058.925-363.37q0-5.684 1.802-8.511 1.802-2.842 5.42-2.842 3.633 0 5.435 2.827 1.802 2.827 1.802 8.525 0 5.684-1.802 8.511-1.802 2.827-5.435 2.827-3.618 0-5.42-2.827-1.802-2.842-1.802-8.511zm5.039 5.845q.688 1.831 2.183 1.831 1.509 0 2.197-1.831.688-1.831.688-5.845 0-1.523-.102-2.725l-5.112 8.145q.073.234.147.425zm2.183-13.535q-1.494 0-2.183 1.831-.688 1.831-.688 5.859 0 1.245.059 2.271l5.039-8.042q-.015-.044-.029-.088-.688-1.831-2.197-1.831z" fill="url(#V)"/><path d="M1077.939-356.266h4.834v-14.194l-4.497 1.113v-3.896l4.526-1.084h4.175v18.062h4.834v3.809h-13.872z" fill="url(#V)"/><path d="M1095.048-363.37q0-5.684 1.802-8.511 1.802-2.842 5.42-2.842 3.633 0 5.435 2.827 1.802 2.827 1.802 8.525 0 5.684-1.802 8.511-1.802 2.827-5.435 2.827-3.618 0-5.42-2.827-1.802-2.842-1.802-8.511zm5.039 5.845q.688 1.831 2.183 1.831 1.509 0 2.197-1.831.688-1.831.688-5.845 0-1.523-.103-2.725l-5.112 8.145q.073.234.147.425zm2.183-13.535q-1.494 0-2.183 1.831-.688 1.831-.688 5.859 0 1.245.059 2.271l5.039-8.042q-.015-.044-.029-.088-.688-1.831-2.197-1.831z" fill="url(#V)"/><path d="M1114.062-356.266h4.834v-14.194l-4.497 1.113v-3.896l4.526-1.084h4.175v18.062h4.834v3.809h-13.872z" fill="url(#V)"/><path d="M1131.171-363.37q0-5.684 1.802-8.511 1.802-2.842 5.42-2.842 3.633 0 5.435 2.827 1.802 2.827 1.802 8.525 0 5.684-1.802 8.511-1.802 2.827-5.435 2.827-3.618 0-5.42-2.827-1.802-2.842-1.802-8.511zm5.039 5.845q.688 1.831 2.183 1.831 1.509 0 2.197-1.831.688-1.831.688-5.845 0-1.523-.102-2.725l-5.112 8.145q.073.234.147.425zm2.183-13.535q-1.494 0-2.183 1.831-.688 1.831-.688 5.859 0 1.245.059 2.271l5.039-8.042q-.015-.044-.029-.088-.688-1.831-2.197-1.831z" fill="url(#V)"/><path d="M1150.185-356.266h4.834v-14.194l-4.497 1.113v-3.896l4.526-1.084h4.175v18.062h4.834v3.809h-13.872z" fill="url(#V)"/><path d="M1167.294-363.37q0-5.684 1.802-8.511 1.802-2.842 5.42-2.842 3.633 0 5.435 2.827 1.802 2.827 1.802 8.525 0 5.684-1.802 8.511-1.802 2.827-5.435 2.827-3.618 0-5.42-2.827-1.802-2.842-1.802-8.511zm5.039 5.845q.688 1.831 2.183 1.831 1.509 0 2.197-1.831.688-1.831.688-5.845 0-1.523-.103-2.725l-5.112 8.145q.073.234.147.425zm2.183-13.535q-1.494 0-2.183 1.831-.688 1.831-.688 5.859 0 1.245.059 2.271l5.039-8.042q-.015-.044-.029-.088-.688-1.831-2.197-1.831z" fill="url(#V)"/><path d="M1185.356-363.37q0-5.684 1.802-8.511 1.802-2.842 5.42-2.842 3.633 0 5.435 2.827 1.802 2.827 1.802 8.525 0 5.684-1.802 8.511-1.802 2.827-5.435 2.827-3.618 0-5.42-2.827-1.802-2.842-1.802-8.511zm5.039 5.845q.688 1.831 2.183 1.831 1.509 0 2.197-1.831.688-1.831.688-5.845 0-1.523-.102-2.725l-5.112 8.145q.073.234.147.425zm2.183-13.535q-1.494 0-2.183 1.831-.688 1.831-.688 5.859 0 1.245.058 2.271l5.039-8.042q-.015-.044-.029-.088-.688-1.831-2.197-1.831z" fill="url(#V)"/><path d="M1203.417-363.37q0-5.684 1.802-8.511 1.802-2.842 5.42-2.842 3.633 0 5.435 2.827 1.802 2.827 1.802 8.525 0 5.684-1.802 8.511-1.802 2.827-5.435 2.827-3.618 0-5.42-2.827-1.802-2.842-1.802-8.511zm5.039 5.845q.688 1.831 2.183 1.831 1.509 0 2.197-1.831.688-1.831.688-5.845 0-1.523-.102-2.725l-5.112 8.145q.073.234.147.425zm2.183-13.535q-1.494 0-2.183 1.831-.688 1.831-.688 5.859 0 1.245.059 2.271l5.039-8.042q-.015-.044-.029-.088-.688-1.831-2.197-1.831z" fill="url(#V)"/><path d="M1221.479-363.37q0-5.684 1.802-8.511 1.802-2.842 5.42-2.842 3.633 0 5.435 2.827 1.802 2.827 1.802 8.525 0 5.684-1.802 8.511-1.802 2.827-5.435 2.827-3.618 0-5.42-2.827-1.802-2.842-1.802-8.511zm5.039 5.845q.688 1.831 2.183 1.831 1.509 0 2.197-1.831.688-1.831.688-5.845 0-1.523-.102-2.725l-5.112 8.145q.073.234.147.425zm2.183-13.535q-1.494 0-2.183 1.831-.688 1.831-.688 5.859 0 1.245.059 2.271l5.039-8.042q-.015-.044-.029-.088-.688-1.831-2.197-1.831z" fill="url(#V)"/><path d="M1240.492-356.266h4.834v-14.194l-4.497 1.113v-3.896l4.526-1.084h4.175v18.062h4.834v3.809h-13.872z" fill="url(#V)"/><path d="M1258.554-356.266h4.834v-14.194l-4.497 1.113v-3.896l4.526-1.084h4.175v18.062h4.834v3.809h-13.872z" fill="url(#V)"/><path d="M1275.663-363.37q0-5.684 1.802-8.511 1.802-2.842 5.42-2.842 3.633 0 5.435 2.827 1.802 2.827 1.802 8.525 0 5.684-1.802 8.511-1.802 2.827-5.435 2.827-3.618 0-5.42-2.827-1.802-2.842-1.802-8.511zm5.039 5.845q.688 1.831 2.183 1.831 1.509 0 2.197-1.831.688-1.831.688-5.845 0-1.523-.102-2.725l-5.112 8.145q.073.234.146.425zm2.183-13.535q-1.494 0-2.183 1.831-.688 1.831-.688 5.859 0 1.245.059 2.271l5.039-8.042q-.015-.044-.029-.088-.688-1.831-2.197-1.831z" fill="url(#V)"/><path d="M1293.725-363.37q0-5.684 1.802-8.511 1.802-2.842 5.42-2.842 3.633 0 5.435 2.827 1.802 2.827 1.802 8.525 0 5.684-1.802 8.511-1.802 2.827-5.435 2.827-3.618 0-5.42-2.827-1.802-2.842-1.802-8.511zm5.039 5.845q.688 1.831 2.183 1.831 1.509 0 2.197-1.831.688-1.831.688-5.845 0-1.523-.102-2.725l-5.112 8.145q.073.234.147.425zm2.183-13.535q-1.494 0-2.183 1.831-.688 1.831-.688 5.859 0 1.245.059 2.271l5.039-8.042q-.015-.044-.029-.088-.688-1.831-2.197-1.831z" fill="url(#V)"/><path d="M1311.786-363.37q0-5.684 1.802-8.511 1.802-2.842 5.42-2.842 3.633 0 5.435 2.827 1.802 2.827 1.802 8.525 0 5.684-1.802 8.511-1.802 2.827-5.435 2.827-3.618 0-5.42-2.827-1.802-2.842-1.802-8.511zm5.039 5.845q.688 1.831 2.183 1.831 1.509 0 2.197-1.831.688-1.831.688-5.845 0-1.523-.103-2.725l-5.112 8.145q.073.234.147.425zm2.183-13.535q-1.494 0-2.183 1.831-.688 1.831-.688 5.859 0 1.245.059 2.271l5.039-8.042q-.015-.044-.029-.088-.688-1.831-2.197-1.831z" fill="url(#V)"/><use xlink:href="#c" fill="url(#V)"/><path d="M1023.754-318.766h4.834v-14.194l-4.497 1.113v-3.896l4.526-1.084h4.175v18.062h4.834v3.809h-13.872z" fill="url(#V)"/><path d="M1040.863-325.87q0-5.684 1.802-8.511 1.802-2.842 5.42-2.842 3.633 0 5.435 2.827 1.802 2.827 1.802 8.525 0 5.684-1.802 8.511-1.802 2.827-5.435 2.827-3.618 0-5.42-2.827-1.802-2.842-1.802-8.511zm5.039 5.845q.688 1.831 2.183 1.831 1.509 0 2.197-1.831.688-1.831.688-5.845 0-1.523-.102-2.725l-5.112 8.145q.073.234.146.425zm2.183-13.535q-1.494 0-2.183 1.831-.688 1.831-.688 5.859 0 1.245.059 2.271l5.039-8.042q-.015-.044-.029-.088-.688-1.831-2.197-1.831z" fill="url(#V)"/><path d="M1059.877-318.766h4.834v-14.194l-4.497 1.113v-3.896l4.526-1.084h4.175v18.062h4.834v3.809h-13.872z" fill="url(#V)"/><path d="M1076.986-325.87q0-5.684 1.802-8.511 1.802-2.842 5.42-2.842 3.633 0 5.435 2.827 1.802 2.827 1.802 8.525 0 5.684-1.802 8.511-1.802 2.827-5.435 2.827-3.618 0-5.42-2.827-1.802-2.842-1.802-8.511zm5.039 5.845q.688 1.831 2.183 1.831 1.509 0 2.197-1.831.688-1.831.688-5.845 0-1.523-.103-2.725l-5.112 8.145q.073.234.147.425zm2.183-13.535q-1.494 0-2.183 1.831-.688 1.831-.688 5.859 0 1.245.059 2.271l5.039-8.042q-.015-.044-.029-.088-.688-1.831-2.197-1.831z" fill="url(#V)"/><path d="M1096-318.766h4.834v-14.194l-4.497 1.113v-3.896l4.526-1.084h4.175v18.062h4.834v3.809H1096z" fill="url(#V)"/><path d="M1113.109-325.87q0-5.684 1.802-8.511 1.802-2.842 5.42-2.842 3.633 0 5.435 2.827 1.802 2.827 1.802 8.525 0 5.684-1.802 8.511-1.802 2.827-5.435 2.827-3.618 0-5.42-2.827-1.802-2.842-1.802-8.511zm5.039 5.845q.688 1.831 2.183 1.831 1.509 0 2.197-1.831.688-1.831.688-5.845 0-1.523-.102-2.725l-5.112 8.145q.073.234.146.425zm2.183-13.535q-1.494 0-2.183 1.831-.688 1.831-.688 5.859 0 1.245.059 2.271l5.039-8.042q-.015-.044-.029-.088-.688-1.831-2.197-1.831z" fill="url(#V)"/><path d="M1132.123-318.766h4.834v-14.194l-4.497 1.113v-3.896l4.526-1.084h4.175v18.062h4.834v3.809h-13.872z" fill="url(#V)"/><path d="M1150.185-318.766h4.834v-14.194l-4.497 1.113v-3.896l4.526-1.084h4.175v18.062h4.834v3.809h-13.872z" fill="url(#V)"/><path d="M1167.294-325.87q0-5.684 1.802-8.511 1.802-2.842 5.42-2.842 3.633 0 5.435 2.827 1.802 2.827 1.802 8.525 0 5.684-1.802 8.511-1.802 2.827-5.435 2.827-3.618 0-5.42-2.827-1.802-2.842-1.802-8.511zm5.039 5.845q.688 1.831 2.183 1.831 1.509 0 2.197-1.831.688-1.831.688-5.845 0-1.523-.103-2.725l-5.112 8.145q.073.234.147.425zm2.183-13.535q-1.494 0-2.183 1.831-.688 1.831-.688 5.859 0 1.245.059 2.271l5.039-8.042q-.015-.044-.029-.088-.688-1.831-2.197-1.831z" fill="url(#V)"/><path d="M1185.356-325.87q0-5.684 1.802-8.511 1.802-2.842 5.42-2.842 3.633 0 5.435 2.827 1.802 2.827 1.802 8.525 0 5.684-1.802 8.511-1.802 2.827-5.435 2.827-3.618 0-5.42-2.827-1.802-2.842-1.802-8.511zm5.039 5.845q.688 1.831 2.183 1.831 1.509 0 2.197-1.831.688-1.831.688-5.845 0-1.523-.102-2.725l-5.112 8.145q.073.234.147.425zm2.183-13.535q-1.494 0-2.183 1.831-.688 1.831-.688 5.859 0 1.245.058 2.271l5.039-8.042q-.015-.044-.029-.088-.688-1.831-2.197-1.831z" fill="url(#V)"/><path d="M1204.369-318.766h4.834v-14.194l-4.497 1.113v-3.896l4.526-1.084h4.175v18.062h4.834v3.809h-13.872z" fill="url(#V)"/><path d="M1221.479-325.87q0-5.684 1.802-8.511 1.802-2.842 5.42-2.842 3.633 0 5.435 2.827 1.802 2.827 1.802 8.525 0 5.684-1.802 8.511-1.802 2.827-5.435 2.827-3.618 0-5.42-2.827-1.802-2.842-1.802-8.511zm5.039 5.845q.688 1.831 2.183 1.831 1.509 0 2.197-1.831.688-1.831.688-5.845 0-1.523-.102-2.725l-5.112 8.145q.073.234.147.425zm2.183-13.535q-1.494 0-2.183 1.831-.688 1.831-.688 5.859 0 1.245.059 2.271l5.039-8.042q-.015-.044-.029-.088-.688-1.831-2.197-1.831z" fill="url(#V)"/><path d="M1240.492-318.766h4.834v-14.194l-4.497 1.113v-3.896l4.526-1.084h4.175v18.062h4.834v3.809h-13.872z" fill="url(#V)"/><path d="M1257.602-325.87q0-5.684 1.802-8.511 1.802-2.842 5.42-2.842 3.633 0 5.435 2.827 1.802 2.827 1.802 8.525 0 5.684-1.802 8.511-1.802 2.827-5.435 2.827-3.618 0-5.42-2.827-1.802-2.842-1.802-8.511zm5.039 5.845q.688 1.831 2.183 1.831 1.509 0 2.197-1.831.688-1.831.688-5.845 0-1.523-.103-2.725l-5.112 8.145q.073.234.147.425zm2.183-13.535q-1.494 0-2.183 1.831-.688 1.831-.688 5.859 0 1.245.059 2.271l5.039-8.042q-.015-.044-.029-.088-.688-1.831-2.197-1.831z" fill="url(#V)"/><path d="M1276.615-318.766h4.834v-14.194l-4.497 1.113v-3.896l4.526-1.084h4.175v18.062h4.834v3.809h-13.872z" fill="url(#V)"/><path d="M1294.677-318.766h4.834v-14.194l-4.497 1.113v-3.896l4.526-1.084h4.175v18.062h4.834v3.809h-13.872z" fill="url(#V)"/><path d="M1311.786-325.87q0-5.684 1.802-8.511 1.802-2.842 5.42-2.842 3.633 0 5.435 2.827 1.802 2.827 1.802 8.525 0 5.684-1.802 8.511-1.802 2.827-5.435 2.827-3.618 0-5.42-2.827-1.802-2.842-1.802-8.511zm5.039 5.845q.688 1.831 2.183 1.831 1.509 0 2.197-1.831.688-1.831.688-5.845 0-1.523-.103-2.725l-5.112 8.145q.073.234.147.425zm2.183-13.535q-1.494 0-2.183 1.831-.688 1.831-.688 5.859 0 1.245.059 2.271l5.039-8.042q-.015-.044-.029-.088-.688-1.831-2.197-1.831z" fill="url(#V)"/><path d="M1330.8-318.766h4.834v-14.194l-4.497 1.113v-3.896l4.526-1.084h4.175v18.062h4.834v3.809H1330.8z" fill="url(#V)"/><path d="M1023.754-281.266h4.834v-14.194l-4.497 1.113v-3.896l4.526-1.084h4.175v18.062h4.834v3.809h-13.872z" fill="url(#V)"/><path d="M1040.863-288.37q0-5.684 1.802-8.511 1.802-2.842 5.42-2.842 3.633 0 5.435 2.827 1.802 2.827 1.802 8.525 0 5.684-1.802 8.511-1.802 2.827-5.435 2.827-3.618 0-5.42-2.827-1.802-2.842-1.802-8.511zm5.039 5.845q.688 1.831 2.183 1.831 1.509 0 2.197-1.831.688-1.831.688-5.845 0-1.523-.102-2.725l-5.112 8.145q.073.234.146.425zm2.183-13.535q-1.494 0-2.183 1.831-.688 1.831-.688 5.859 0 1.245.059 2.271l5.039-8.042q-.015-.044-.029-.088-.688-1.831-2.197-1.831z" fill="url(#V)"/><path d="M1059.877-281.266h4.834v-14.194l-4.497 1.113v-3.896l4.526-1.084h4.175v18.062h4.834v3.809h-13.872z" fill="url(#V)"/><path d="M1076.986-288.37q0-5.684 1.802-8.511 1.802-2.842 5.42-2.842 3.633 0 5.435 2.827 1.802 2.827 1.802 8.525 0 5.684-1.802 8.511-1.802 2.827-5.435 2.827-3.618 0-5.42-2.827-1.802-2.842-1.802-8.511zm5.039 5.845q.688 1.831 2.183 1.831 1.509 0 2.197-1.831.688-1.831.688-5.845 0-1.523-.103-2.725l-5.112 8.145q.073.234.147.425zm2.183-13.535q-1.494 0-2.183 1.831-.688 1.831-.688 5.859 0 1.245.059 2.271l5.039-8.042q-.015-.044-.029-.088-.688-1.831-2.197-1.831z" fill="url(#V)"/><path d="M1096-281.266h4.834v-14.194l-4.497 1.113v-3.896l4.526-1.084h4.175v18.062h4.834v3.809H1096z" fill="url(#V)"/><path d="M1113.109-288.37q0-5.684 1.802-8.511 1.802-2.842 5.42-2.842 3.633 0 5.435 2.827 1.802 2.827 1.802 8.525 0 5.684-1.802 8.511-1.802 2.827-5.435 2.827-3.618 0-5.42-2.827-1.802-2.842-1.802-8.511zm5.039 5.845q.688 1.831 2.183 1.831 1.509 0 2.197-1.831.688-1.831.688-5.845 0-1.523-.102-2.725l-5.112 8.145q.073.234.146.425zm2.183-13.535q-1.494 0-2.183 1.831-.688 1.831-.688 5.859 0 1.245.059 2.271l5.039-8.042q-.015-.044-.029-.088-.688-1.831-2.197-1.831z" fill="url(#V)"/><path d="M1132.123-281.266h4.834v-14.194l-4.497 1.113v-3.896l4.526-1.084h4.175v18.062h4.834v3.809h-13.872z" fill="url(#V)"/><path d="M1150.185-281.266h4.834v-14.194l-4.497 1.113v-3.896l4.526-1.084h4.175v18.062h4.834v3.809h-13.872z" fill="url(#V)"/><path d="M1168.246-281.266h4.834v-14.194l-4.497 1.113v-3.896l4.526-1.084h4.175v18.062h4.834v3.809h-13.872z" fill="url(#V)"/><path d="M1185.356-288.37q0-5.684 1.802-8.511 1.802-2.842 5.42-2.842 3.633 0 5.435 2.827 1.802 2.827 1.802 8.525 0 5.684-1.802 8.511-1.802 2.827-5.435 2.827-3.618 0-5.42-2.827-1.802-2.842-1.802-8.511zm5.039 5.845q.688 1.831 2.183 1.831 1.509 0 2.197-1.831.688-1.831.688-5.845 0-1.523-.102-2.725l-5.112 8.145q.073.234.147.425zm2.183-13.535q-1.494 0-2.183 1.831-.688 1.831-.688 5.859 0 1.245.058 2.271l5.039-8.042q-.015-.044-.029-.088-.688-1.831-2.197-1.831z" fill="url(#V)"/><path d="M1204.369-281.266h4.834v-14.194l-4.497 1.113v-3.896l4.526-1.084h4.175v18.062h4.834v3.809h-13.872z" fill="url(#V)"/><path d="M1221.479-288.37q0-5.684 1.802-8.511 1.802-2.842 5.42-2.842 3.633 0 5.435 2.827 1.802 2.827 1.802 8.525 0 5.684-1.802 8.511-1.802 2.827-5.435 2.827-3.618 0-5.42-2.827-1.802-2.842-1.802-8.511zm5.039 5.845q.688 1.831 2.183 1.831 1.509 0 2.197-1.831.688-1.831.688-5.845 0-1.523-.102-2.725l-5.112 8.145q.073.234.147.425zm2.183-13.535q-1.494 0-2.183 1.831-.688 1.831-.688 5.859 0 1.245.059 2.271l5.039-8.042q-.015-.044-.029-.088-.688-1.831-2.197-1.831z" fill="url(#V)"/><path d="M1240.492-281.266h4.834v-14.194l-4.497 1.113v-3.896l4.526-1.084h4.175v18.062h4.834v3.809h-13.872z" fill="url(#V)"/><path d="M1257.602-288.37q0-5.684 1.802-8.511 1.802-2.842 5.42-2.842 3.633 0 5.435 2.827 1.802 2.827 1.802 8.525 0 5.684-1.802 8.511-1.802 2.827-5.435 2.827-3.618 0-5.42-2.827-1.802-2.842-1.802-8.511zm5.039 5.845q.688 1.831 2.183 1.831 1.509 0 2.197-1.831.688-1.831.688-5.845 0-1.523-.103-2.725l-5.112 8.145q.073.234.147.425zm2.183-13.535q-1.494 0-2.183 1.831-.688 1.831-.688 5.859 0 1.245.059 2.271l5.039-8.042q-.015-.044-.029-.088-.688-1.831-2.197-1.831z" fill="url(#V)"/><path d="M1276.615-281.266h4.834v-14.194l-4.497 1.113v-3.896l4.526-1.084h4.175v18.062h4.834v3.809h-13.872z" fill="url(#V)"/><path d="M1293.725-288.37q0-5.684 1.802-8.511 1.802-2.842 5.42-2.842 3.633 0 5.435 2.827 1.802 2.827 1.802 8.525 0 5.684-1.802 8.511-1.802 2.827-5.435 2.827-3.618 0-5.42-2.827-1.802-2.842-1.802-8.511zm5.039 5.845q.688 1.831 2.183 1.831 1.509 0 2.197-1.831.688-1.831.688-5.845 0-1.523-.102-2.725l-5.112 8.145q.073.234.147.425zm2.183-13.535q-1.494 0-2.183 1.831-.688 1.831-.688 5.859 0 1.245.059 2.271l5.039-8.042q-.015-.044-.029-.088-.688-1.831-2.197-1.831z" fill="url(#V)"/><path d="M1312.738-281.266h4.834v-14.194l-4.497 1.113v-3.896l4.526-1.084h4.175v18.062h4.834v3.809h-13.872z" fill="url(#V)"/><path d="M1330.8-281.266h4.834v-14.194l-4.497 1.113v-3.896l4.526-1.084h4.175v18.062h4.834v3.809H1330.8z" fill="url(#V)"/></g><g fill="#222"><path d="M1141 870.362a3 3 0 1 1-6 0 3 3 0 1 1 6 0z" opacity=".5"/><path d="M1174-70a161.42 161.42 0 0 0-19 1.25V-60l5 5h10zm40.25 4.844l-.031.156 7.781 9h5l3-4v-.281l-3.875-1.375c-.041-.014-.084-.018-.125-.031l-3.781-1.219-3.406-1.031-.562-.156-3.25-.875-.75-.187zm-95 5.156c-39.44 14.667-71.543 44.431-89.25 82.281V35l15 15v10h5l5 5v5l-5 5v15h105l-10-10h-20l-5-5v-5l-40-25h-10l-10 10h-10V40l-5-5 5-5v-5h-5-10l10-20 15-5v15h5l5-5V0l25-30h5l40-15v-10l-5-5zm91.75 5l6 8h7l-8-8zm33.5.844L1242.125-50H1230l-5.781 10L1230-30l-10 .313-4.437 4.688v5l8.656 5H1235l8.656-15H1250l10 8 1.344 5H1265v-8l5 3 5 2h5l6-6-9-10-2.125 1c-.029-.023-.064-.039-.094-.062l-1-.812-2.437-1.875-.625-.469-3-2.187c-.031-.022-.063-.041-.094-.062-.11-.078-.233-.141-.344-.219l-2.812-2c-.144-.097-.293-.184-.438-.281l-2.781-1.812-1-.625-3.812-2.344-3.219-1.844-1.625-.906-.344-.187-2.719-1.437-4.031-2.031zM1283-30l-3 10 5 5h10v10h-15v5h-10l-10-10h-20-5-10l-5 5V5h-5l-10 20v5l5 5v15l20 20h20l5-5h10l10 10v10l3.344 5H1335c0-44.183-17.921-84.171-46.875-113.125L1286.219-25zm-78-20l3 5h5l-3-5z" transform="translate(30 852.362)" clip-path="url(#A)" opacity=".25" filter="url(#B)"/></g><path d="M1244.25 787.206l-.031.156 7.781 9h5l3-4v-.281l-3.875-1.375c-.041-.014-.084-.018-.125-.031l-3.781-1.219-3.406-1.031-.562-.156-3.25-.875-.75-.187zm-3.25 10.156l6 8h7l-8-8zm33.5.875l-2.375 4.125h-9.594H1260l-5.781 10 5.781 10-10 .313-4.437 4.688v5l8.656 5h7.344H1265l8.656-15H1280l10 8 1.344 5H1295v-8l5 3 5 2h5l5 5h10v10h-15v5h-10l-10-10h-20-5-4.375H1255l-5 5v10h-5l-10 20v5l5 5V898.3v4.063l20 20h20l5-5h10l10 10v10l3.344 5H1360h5c0-51.438-24.284-97.199-62-126.469l-.469-.344c-.018-.014-.045-.017-.062-.031l-2.156-1.656c-.053-.04-.102-.085-.156-.125-.06-.044-.13-.077-.187-.125a.49.49 0 0 1-.062-.062c-.023-.017-.04-.045-.062-.062l-2.219-1.594c-.019-.013-.044-.018-.062-.031l-2.281-1.594c-.825-.565-1.663-1.106-2.5-1.656-1.673-1.1-3.378-2.181-5.094-3.219l-2.594-1.531-2.625-1.5-2.656-1.437-2.656-1.375-2.656-1.312zm-39.5 4.125l3 5h5l-3-5z" fill="url(#G)"/><path d="M1285 897.362l-15 15h-20l10 10h20l5-5h10l10 10v10h5l10-10h15.969v-15l-25.969-15z" opacity=".15" fill="#9ed184"/><path d="M1149.25 792.362c-39.44 14.667-71.543 44.431-89.25 82.281v12.719l15 15v10h5l5 5v5l-5 5v15h105l-10-10h-20l-5-5v-5l-40-25h-10l-10 10h-10v-15l-5-5 5-5v-5h-5-10l10-20 15-5v15h5l5-5v-10l25-30h5l40-15v-10l-5-5z" fill="url(#G)"/><path d="M1157 892.362c-6.149 0-11.303 4.265-12.656 10H1115v10h1.906l8.094 30h55l-10-37c-1.873-6.931-5.82-13-13-13z" fill="url(#J)" opacity=".25"/><path d="M1204 782.362a161.42 161.42 0 0 0-19 1.25v8.75l5 5h10z" fill="url(#G)"/><path d="M1149.25 792.362c-5.877 2.186-11.597 4.729-17.125 7.563l12.875 7.438v9.375l25-9.375v-10l-5-5h-15.75zM1115 810.081a160.81 160.81 0 0 0-34.906 32.281H1095l20-20z" opacity=".15" fill="#9ed184"/><path d="M1260.469 792.268c13.31 49.672-.454 112.826-27.688 150.094H1365c0-68.857-43.516-127.532-104.531-150.094z" opacity=".25" fill="url(#F)"/><path d="M1167 870.362a3 3 0 1 1-6 0 3 3 0 1 1 6 0z" opacity=".5" fill="#222"/><path d="M1100 927.362h5l15 5v10h-30zm30-17.5v7.5l10 5v10l-10 10h55l-10-10h-20l-5-5v-5z" opacity=".15" fill="#9ed184"/><path d="M1142 883.362s3 1 8 1 8-1 8-1" opacity=".5" fill="none" stroke="#222" stroke-width="4" stroke-linecap="round" stroke-linejoin="round"/><g fill="#fff"><g stroke="#fff" stroke-width="2"><rect width="18" height="9" x="1155" y="864.362" rx="2" fill-opacity=".471"/><rect y="864.362" x="1126" height="9" width="18" rx="2" fill-opacity=".471"/></g><path d="M1144 866.362h11v2h-11z"/></g><path d="M1174 867.362h9c2 0 2 2 2 2" fill="none" stroke="#fff" stroke-width="2" stroke-linecap="round" stroke-linejoin="round"/><path d="M1095 905.362h55l10 37h-55z" fill="url(#H)"/><path d="M1095 892.362h42v13h-42z" fill="#fff"/><g transform="translate(820 742.362)"><path d="M317 150c-6.148 0-11.985 4.146-12.656 10l-.344 3h-29v2 5h1.438L285 200h9.375l-8.031-30H325v-7h5c0-7.18-5.82-13-13-13z" fill="url(#K)"/><use xlink:href="#T" fill="url(#I)"/></g><path d="M1110 905.362c0-7.18-5.82-13-13-13s-13 5.82-13 13h13z" fill="#fff"/></g></svg>
