<?xml version="1.0" encoding="UTF-8" standalone="no"?>
<!-- Created with Inkscape (http://www.inkscape.org/) -->

<svg
   xmlns:dc="http://purl.org/dc/elements/1.1/"
   xmlns:cc="http://creativecommons.org/ns#"
   xmlns:rdf="http://www.w3.org/1999/02/22-rdf-syntax-ns#"
   xmlns:svg="http://www.w3.org/2000/svg"
   xmlns="http://www.w3.org/2000/svg"
   xmlns:xlink="http://www.w3.org/1999/xlink"
   xmlns:sodipodi="http://sodipodi.sourceforge.net/DTD/sodipodi-0.dtd"
   xmlns:inkscape="http://www.inkscape.org/namespaces/inkscape"
   width="580"
   height="270"
   id="svg4136"
   version="1.1"
   inkscape:version="0.48.2 r9819"
   sodipodi:docname="verify-illustration.svg"
   inkscape:export-filename="/Users/saman/work_repos/openstreetmap-website/app/assets/images/verify-illustration.png"
   inkscape:export-xdpi="90"
   inkscape:export-ydpi="90">
  <defs
     id="defs4138">
    <linearGradient
       id="linearGradient14931">
      <stop
         id="stop14933"
         offset="0"
         style="stop-color:#ccf1ff;stop-opacity:0;" />
      <stop
         style="stop-color:#ccf1ff;stop-opacity:0;"
         offset="0.85714281"
         id="stop14937" />
      <stop
         id="stop14935"
         offset="1"
         style="stop-color:#789afb;stop-opacity:1" />
    </linearGradient>
    <linearGradient
       id="linearGradient14233"
       inkscape:collect="always">
      <stop
         id="stop14235"
         offset="0"
         style="stop-color:#a2c9ed;stop-opacity:1;" />
      <stop
         id="stop14237"
         offset="1"
         style="stop-color:#7a9dfc;stop-opacity:1" />
    </linearGradient>
    <linearGradient
       inkscape:collect="always"
       id="linearGradient14223">
      <stop
         style="stop-color:#a2c9ed;stop-opacity:1;"
         offset="0"
         id="stop14225" />
      <stop
         style="stop-color:#7a9dfc;stop-opacity:1"
         offset="1"
         id="stop14227" />
    </linearGradient>
    <linearGradient
       inkscape:collect="always"
       id="linearGradient13250">
      <stop
         style="stop-color:#8eb3f5;stop-opacity:1"
         offset="0"
         id="stop13252" />
      <stop
         style="stop-color:#b2dbea;stop-opacity:0;"
         offset="1"
         id="stop13254" />
    </linearGradient>
    <linearGradient
       inkscape:collect="always"
       id="linearGradient13240">
      <stop
         style="stop-color:#ffffff;stop-opacity:1;"
         offset="0"
         id="stop13242" />
      <stop
         style="stop-color:#ebf2fd;stop-opacity:1"
         offset="1"
         id="stop13244" />
    </linearGradient>
    <linearGradient
       inkscape:collect="always"
       id="linearGradient13198">
      <stop
         style="stop-color:#000000;stop-opacity:1;"
         offset="0"
         id="stop13200" />
      <stop
         style="stop-color:#000000;stop-opacity:0;"
         offset="1"
         id="stop13202" />
    </linearGradient>
    <linearGradient
       inkscape:collect="always"
       id="linearGradient9009">
      <stop
         style="stop-color:#ffffff;stop-opacity:1;"
         offset="0"
         id="stop9011" />
      <stop
         style="stop-color:#ffffff;stop-opacity:0;"
         offset="1"
         id="stop9013" />
    </linearGradient>
    <linearGradient
       id="linearGradient8284"
       inkscape:collect="always">
      <stop
         id="stop8286"
         offset="0"
         style="stop-color:#b2dbea;stop-opacity:1" />
      <stop
         id="stop8288"
         offset="1"
         style="stop-color:#93b8e0;stop-opacity:0" />
    </linearGradient>
    <linearGradient
       inkscape:collect="always"
       id="linearGradient7872">
      <stop
         style="stop-color:#cbeea7;stop-opacity:1;"
         offset="0"
         id="stop7874" />
      <stop
         style="stop-color:#cee8c1;stop-opacity:1"
         offset="1"
         id="stop7876" />
    </linearGradient>
    <linearGradient
       inkscape:collect="always"
       id="linearGradient7775">
      <stop
         style="stop-color:#222222;stop-opacity:1"
         offset="0"
         id="stop7777" />
      <stop
         style="stop-color:#adadc6;stop-opacity:0;"
         offset="1"
         id="stop7779" />
    </linearGradient>
    <linearGradient
       id="linearGradient7767">
      <stop
         style="stop-color:#b2dbea;stop-opacity:1"
         offset="0"
         id="stop7769" />
      <stop
         style="stop-color:#7092ff;stop-opacity:1"
         offset="1"
         id="stop7771" />
    </linearGradient>
    <clipPath
       clipPathUnits="userSpaceOnUse"
       id="clipPath7691">
      <path
         sodipodi:open="true"
         sodipodi:end="6.2831853"
         sodipodi:start="3.1415927"
         transform="matrix(1.4545455,0,0,1.4545455,-622.81822,-83.09091)"
         d="M 1126,118.99999 A 110,110 0 0 1 1346,119"
         sodipodi:ry="110"
         sodipodi:rx="110"
         sodipodi:cy="119"
         sodipodi:cx="1236"
         id="path7693"
         style="color:#000000;fill:#c5c5d7;fill-opacity:1;fill-rule:nonzero;stroke:none;stroke-width:4;marker:none;visibility:visible;display:inline;overflow:visible;enable-background:accumulate"
         sodipodi:type="arc" />
    </clipPath>
    <clipPath
       clipPathUnits="userSpaceOnUse"
       id="clipPath7755">
      <path
         inkscape:connector-curvature="0"
         style="color:#000000;fill:#adadc6;fill-opacity:1;fill-rule:nonzero;stroke:none;stroke-width:4;marker:none;visibility:visible;display:inline;overflow:visible;enable-background:accumulate"
         d="m 1230.4688,792.26843 c 13.3096,49.6722 -20.4537,112.82556 -47.6876,150.09372 l 152.2188,0 c 0,-68.85715 -43.5157,-127.53233 -104.5312,-150.09372 z"
         id="path7757"
         sodipodi:nodetypes="cccc" />
    </clipPath>
    <filter
       inkscape:collect="always"
       id="filter7759"
       color-interpolation-filters="sRGB">
      <feGaussianBlur
         inkscape:collect="always"
         stdDeviation="5.8125"
         id="feGaussianBlur7761" />
    </filter>
    <filter
       inkscape:collect="always"
       id="filter7763"
       x="-0.103344"
       width="1.206688"
       y="-0.089630529"
       height="1.1792611"
       color-interpolation-filters="sRGB">
      <feGaussianBlur
         inkscape:collect="always"
         stdDeviation="5.3825"
         id="feGaussianBlur7765" />
    </filter>
    <linearGradient
       inkscape:collect="always"
       xlink:href="#linearGradient7767"
       id="linearGradient7773"
       x1="1225.6875"
       y1="36.5"
       x2="1225.6875"
       y2="119"
       gradientUnits="userSpaceOnUse" />
    <linearGradient
       inkscape:collect="always"
       xlink:href="#linearGradient7775"
       id="linearGradient7781"
       x1="1224.2188"
       y1="789.35889"
       x2="1224.2188"
       y2="942.36212"
       gradientUnits="userSpaceOnUse"
       gradientTransform="translate(30,0)" />
    <linearGradient
       inkscape:collect="always"
       xlink:href="#linearGradient7872"
       id="linearGradient7878"
       x1="1097"
       y1="942.36218"
       x2="1097"
       y2="802.62952"
       gradientUnits="userSpaceOnUse"
       gradientTransform="translate(30,0)" />
    <filter
       color-interpolation-filters="sRGB"
       inkscape:collect="always"
       id="filter7759-0">
      <feGaussianBlur
         inkscape:collect="always"
         stdDeviation="5.8125"
         id="feGaussianBlur7761-9" />
    </filter>
    <clipPath
       clipPathUnits="userSpaceOnUse"
       id="clipPath8573">
      <path
         sodipodi:type="arc"
         style="color:#000000;fill:#000000;fill-opacity:1;fill-rule:nonzero;stroke:none;stroke-width:4;marker:none;visibility:visible;display:inline;overflow:visible;enable-background:accumulate"
         id="path8575"
         sodipodi:cx="1236"
         sodipodi:cy="119"
         sodipodi:rx="110"
         sodipodi:ry="110"
         d="M 1126,118.99999 A 110,110 0 0 1 1346,119"
         transform="matrix(1.4545455,0,0,1.4545455,-611.81823,-534.09093)"
         sodipodi:start="3.1415927"
         sodipodi:end="6.2831853"
         sodipodi:open="true" />
    </clipPath>
    <clipPath
       clipPathUnits="userSpaceOnUse"
       id="clipPath8675">
      <path
         style="font-size:medium;font-style:normal;font-variant:normal;font-weight:normal;font-stretch:normal;text-indent:0;text-align:start;text-decoration:none;line-height:normal;letter-spacing:normal;word-spacing:normal;text-transform:none;direction:ltr;block-progression:tb;writing-mode:lr-tb;text-anchor:start;baseline-shift:baseline;color:#000000;fill:url(#linearGradient8679);fill-opacity:1;fill-rule:nonzero;stroke:none;stroke-width:5.81818199;marker:none;visibility:visible;display:inline;overflow:visible;enable-background:accumulate;font-family:Sans;-inkscape-font-specification:Sans"
         d="m 1190.4062,-388.15627 a 12.0012,12.0012 0 0 0 -10.0312,4.96875 c -23.0888,31.04416 -73.5,61.84375 -73.5,61.84375 a 12.007739,12.007739 0 0 0 -0.8125,0.5625 12.007739,12.007739 0 0 0 -0.1875,0.125 l -13.875,7.90625 a 4.0175701,4.0175701 0 1 0 4,6.96875 l 5.2188,-2.96875 a 12.007739,12.007739 0 0 0 17.9062,8.0625 c 0,0 52.3016,-30.24185 80.5,-68.15625 a 12.0012,12.0012 0 0 0 -9.2188,-19.3125 z"
         id="path8677"
         inkscape:connector-curvature="0" />
    </clipPath>
    <linearGradient
       inkscape:collect="always"
       xlink:href="#linearGradient8284"
       id="linearGradient8679"
       gradientUnits="userSpaceOnUse"
       x1="1086"
       y1="139"
       x2="1125.7982"
       y2="99.201767"
       gradientTransform="translate(11.000003,-451.00002)" />
    <clipPath
       clipPathUnits="userSpaceOnUse"
       id="clipPath8987">
      <flowRoot
         xml:space="preserve"
         id="flowRoot8989"
         style="font-size:30px;font-style:normal;font-variant:normal;font-weight:bold;font-stretch:normal;text-indent:0;text-align:start;text-decoration:none;line-height:125%;letter-spacing:0px;word-spacing:0px;text-transform:none;direction:ltr;block-progression:tb;writing-mode:lr-tb;text-anchor:start;baseline-shift:baseline;opacity:0.25;color:#000000;fill:#ffffff;fill-opacity:1;fill-rule:nonzero;stroke:none;stroke-width:4;marker:none;visibility:visible;display:inline;overflow:visible;enable-background:accumulate;font-family:Menlo;-inkscape-font-specification:Menlo Bold"
         transform="translate(-173.25,451.00002)"
         clip-path="none"><flowRegion
           id="flowRegion8991"><rect
             id="rect8993"
             width="580"
             height="303"
             x="1021"
             y="-529"
             style="font-style:normal;font-variant:normal;font-weight:bold;font-stretch:normal;fill:#ffffff;stroke:none;font-family:Menlo;-inkscape-font-specification:Menlo Bold" /></flowRegion><flowPara
           id="flowPara8995">101010101010100011</flowPara><flowPara
           id="flowPara8997">100010101010011010</flowPara><flowPara
           id="flowPara8999">101010101001010110</flowPara><flowPara
           id="flowPara9001">010111010000011010</flowPara><flowPara
           id="flowPara9003">000101010000110001</flowPara><flowPara
           id="flowPara9005">101010110010101101</flowPara><flowPara
           id="flowPara9007">101010111010101011</flowPara></flowRoot>    </clipPath>
    <linearGradient
       inkscape:collect="always"
       xlink:href="#linearGradient9009"
       id="linearGradient9015"
       x1="1184"
       y1="-405.00003"
       x2="1184"
       y2="-533.03516"
       gradientUnits="userSpaceOnUse" />
    <linearGradient
       inkscape:collect="always"
       xlink:href="#linearGradient9009"
       id="linearGradient9019"
       gradientUnits="userSpaceOnUse"
       x1="1184"
       y1="-405.00003"
       x2="1184"
       y2="-533.03516" />
    <linearGradient
       inkscape:collect="always"
       xlink:href="#linearGradient9009"
       id="linearGradient9021"
       gradientUnits="userSpaceOnUse"
       x1="1184"
       y1="-405.00003"
       x2="1184"
       y2="-533.03516" />
    <linearGradient
       inkscape:collect="always"
       xlink:href="#linearGradient9009"
       id="linearGradient9023"
       gradientUnits="userSpaceOnUse"
       x1="1184"
       y1="-405.00003"
       x2="1184"
       y2="-533.03516" />
    <linearGradient
       inkscape:collect="always"
       xlink:href="#linearGradient9009"
       id="linearGradient9025"
       gradientUnits="userSpaceOnUse"
       x1="1184"
       y1="-405.00003"
       x2="1184"
       y2="-533.03516" />
    <linearGradient
       inkscape:collect="always"
       xlink:href="#linearGradient9009"
       id="linearGradient9027"
       gradientUnits="userSpaceOnUse"
       x1="1184"
       y1="-405.00003"
       x2="1184"
       y2="-533.03516" />
    <linearGradient
       inkscape:collect="always"
       xlink:href="#linearGradient9009"
       id="linearGradient9029"
       gradientUnits="userSpaceOnUse"
       x1="1184"
       y1="-405.00003"
       x2="1184"
       y2="-533.03516" />
    <linearGradient
       inkscape:collect="always"
       xlink:href="#linearGradient9009"
       id="linearGradient9031"
       gradientUnits="userSpaceOnUse"
       x1="1184"
       y1="-405.00003"
       x2="1184"
       y2="-533.03516" />
    <linearGradient
       inkscape:collect="always"
       xlink:href="#linearGradient9009"
       id="linearGradient9033"
       gradientUnits="userSpaceOnUse"
       x1="1184"
       y1="-405.00003"
       x2="1184"
       y2="-533.03516" />
    <linearGradient
       inkscape:collect="always"
       xlink:href="#linearGradient9009"
       id="linearGradient9035"
       gradientUnits="userSpaceOnUse"
       x1="1184"
       y1="-405.00003"
       x2="1184"
       y2="-533.03516" />
    <linearGradient
       inkscape:collect="always"
       xlink:href="#linearGradient7872-10"
       id="linearGradient7878-5"
       x1="1097"
       y1="942.36218"
       x2="1097"
       y2="802.62952"
       gradientUnits="userSpaceOnUse"
       gradientTransform="translate(30,0)" />
    <linearGradient
       inkscape:collect="always"
       id="linearGradient7872-10">
      <stop
         style="stop-color:#cbeea7;stop-opacity:1;"
         offset="0"
         id="stop7874-2" />
      <stop
         style="stop-color:#cee8c1;stop-opacity:1"
         offset="1"
         id="stop7876-5" />
    </linearGradient>
    <linearGradient
       inkscape:collect="always"
       xlink:href="#linearGradient7872-80"
       id="linearGradient7878-1"
       x1="1097"
       y1="942.36218"
       x2="1097"
       y2="802.62952"
       gradientUnits="userSpaceOnUse"
       gradientTransform="translate(-870,-742.36218)" />
    <linearGradient
       inkscape:collect="always"
       id="linearGradient7872-80">
      <stop
         style="stop-color:#cbeea7;stop-opacity:1;"
         offset="0"
         id="stop7874-6" />
      <stop
         style="stop-color:#cee8c1;stop-opacity:1"
         offset="1"
         id="stop7876-6" />
    </linearGradient>
    <linearGradient
       inkscape:collect="always"
       xlink:href="#linearGradient7872-8-5"
       id="linearGradient7878-9-6"
       x1="1097"
       y1="942.36218"
       x2="1097"
       y2="802.62952"
       gradientUnits="userSpaceOnUse"
       gradientTransform="translate(-870,-742.36218)" />
    <linearGradient
       inkscape:collect="always"
       id="linearGradient7872-8-5">
      <stop
         style="stop-color:#cbeea7;stop-opacity:1;"
         offset="0"
         id="stop7874-3-7" />
      <stop
         style="stop-color:#cee8c1;stop-opacity:1"
         offset="1"
         id="stop7876-8-7" />
    </linearGradient>
    <linearGradient
       inkscape:collect="always"
       xlink:href="#linearGradient7872-8-9"
       id="linearGradient7878-9-9"
       x1="1097"
       y1="942.36218"
       x2="1097"
       y2="802.62952"
       gradientUnits="userSpaceOnUse"
       gradientTransform="translate(-870,-742.36218)" />
    <linearGradient
       inkscape:collect="always"
       id="linearGradient7872-8-9">
      <stop
         style="stop-color:#cbeea7;stop-opacity:1;"
         offset="0"
         id="stop7874-3-4" />
      <stop
         style="stop-color:#cee8c1;stop-opacity:1"
         offset="1"
         id="stop7876-8-3" />
    </linearGradient>
    <linearGradient
       inkscape:collect="always"
       xlink:href="#linearGradient7872-8-2"
       id="linearGradient7878-9-8"
       x1="1097"
       y1="942.36218"
       x2="1097"
       y2="802.62952"
       gradientUnits="userSpaceOnUse"
       gradientTransform="translate(30,0)" />
    <linearGradient
       inkscape:collect="always"
       id="linearGradient7872-8-2">
      <stop
         style="stop-color:#cbeea7;stop-opacity:1;"
         offset="0"
         id="stop7874-3-3" />
      <stop
         style="stop-color:#cee8c1;stop-opacity:1"
         offset="1"
         id="stop7876-8-6" />
    </linearGradient>
    <linearGradient
       y2="802.62952"
       x2="1097"
       y1="942.36218"
       x1="1097"
       gradientTransform="translate(-1205,-787.20593)"
       gradientUnits="userSpaceOnUse"
       id="linearGradient13058"
       xlink:href="#linearGradient7872-8-2"
       inkscape:collect="always" />
    <linearGradient
       inkscape:collect="always"
       xlink:href="#linearGradient13198"
       id="linearGradient13220"
       gradientUnits="userSpaceOnUse"
       gradientTransform="matrix(1,0,0.26794919,1,-171.4763,0)"
       x1="1075"
       y1="942.61218"
       x2="1075"
       y2="897.61151" />
    <linearGradient
       inkscape:collect="always"
       xlink:href="#linearGradient13240"
       id="linearGradient13246"
       x1="1023.75"
       y1="883.11218"
       x2="1023.75"
       y2="905.88416"
       gradientUnits="userSpaceOnUse"
       gradientTransform="translate(80,0)" />
    <linearGradient
       inkscape:collect="always"
       xlink:href="#linearGradient13250"
       id="linearGradient13256"
       x1="210"
       y1="135"
       x2="210"
       y2="145"
       gradientUnits="userSpaceOnUse" />
    <linearGradient
       inkscape:collect="always"
       xlink:href="#linearGradient7872-3"
       id="linearGradient7878-19"
       x1="1097"
       y1="942.36218"
       x2="1097"
       y2="802.62952"
       gradientUnits="userSpaceOnUse"
       gradientTransform="translate(-790,-742.36218)" />
    <linearGradient
       inkscape:collect="always"
       id="linearGradient7872-3">
      <stop
         style="stop-color:#cbeea7;stop-opacity:1;"
         offset="0"
         id="stop7874-9" />
      <stop
         style="stop-color:#cee8c1;stop-opacity:1"
         offset="1"
         id="stop7876-7" />
    </linearGradient>
    <linearGradient
       y2="802.62952"
       x2="1097"
       y1="942.36218"
       x1="1097"
       gradientTransform="translate(-1030,-792.36218)"
       gradientUnits="userSpaceOnUse"
       id="linearGradient14202"
       xlink:href="#linearGradient7872-3"
       inkscape:collect="always" />
    <linearGradient
       inkscape:collect="always"
       xlink:href="#linearGradient14223"
       id="linearGradient14229"
       x1="1104"
       y1="908.36218"
       x2="1104"
       y2="944.48694"
       gradientUnits="userSpaceOnUse" />
    <linearGradient
       inkscape:collect="always"
       xlink:href="#linearGradient14233"
       id="linearGradient14231"
       x1="1104"
       y1="908.36218"
       x2="1104"
       y2="944.48694"
       gradientUnits="userSpaceOnUse" />
    <linearGradient
       inkscape:collect="always"
       xlink:href="#linearGradient7767-8"
       id="linearGradient7773-6"
       x1="1225.6875"
       y1="36.5"
       x2="1225.6875"
       y2="119"
       gradientUnits="userSpaceOnUse" />
    <linearGradient
       id="linearGradient7767-8">
      <stop
         style="stop-color:#b2dbea;stop-opacity:1"
         offset="0"
         id="stop7769-3" />
      <stop
         style="stop-color:#7092ff;stop-opacity:1"
         offset="1"
         id="stop7771-2" />
    </linearGradient>
    <radialGradient
       inkscape:collect="always"
       xlink:href="#linearGradient14931"
       id="radialGradient14929"
       cx="1218.1995"
       cy="124.60332"
       fx="1218.1995"
       fy="124.60332"
       r="110"
       gradientTransform="matrix(8.9292362e-8,-1.09375,1.0937499,1.4609618e-6,1099.715,1451.4055)"
       gradientUnits="userSpaceOnUse" />
  </defs>
  <sodipodi:namedview
     id="base"
     pagecolor="#ffffff"
     bordercolor="#666666"
     borderopacity="1.0"
     inkscape:pageopacity="0.0"
     inkscape:pageshadow="2"
     inkscape:zoom="1"
     inkscape:cx="505.13163"
     inkscape:cy="111.18005"
     inkscape:document-units="px"
     inkscape:current-layer="layer1"
     showgrid="false"
     inkscape:window-width="1524"
     inkscape:window-height="817"
     inkscape:window-x="219"
     inkscape:window-y="111"
     inkscape:window-maximized="0"
     borderlayer="false"
     inkscape:showpageshadow="false"
     inkscape:snap-bbox="true"
     showguides="true"
     inkscape:guide-bbox="true"
     inkscape:object-paths="false"
     inkscape:object-nodes="false"
     inkscape:snap-nodes="true"
     fit-margin-top="0"
     fit-margin-left="0"
     fit-margin-right="0"
     fit-margin-bottom="0">
    <inkscape:grid
       type="xygrid"
       id="grid4228"
       empspacing="5"
       visible="true"
       enabled="true"
       snapvisiblegridlinesonly="true" />
    <sodipodi:guide
       orientation="0,1"
       position="523,479"
       id="guide6331" />
  </sodipodi:namedview>
  <metadata
     id="metadata4141">
    <rdf:RDF>
      <cc:Work
         rdf:about="">
        <dc:format>image/svg+xml</dc:format>
        <dc:type
           rdf:resource="http://purl.org/dc/dcmitype/StillImage" />
        <dc:title></dc:title>
      </cc:Work>
    </rdf:RDF>
  </metadata>
  <g
     inkscape:label="Layer 1"
     inkscape:groupmode="layer"
     id="layer1"
     transform="translate(-820,-742.36218)">
    <g
       id="g8240"
       transform="translate(-49,2)"
       style="fill:#7693dc;fill-opacity:1" />
    <rect
       style="opacity:0.15;color:#000000;fill:none;stroke:none;stroke-width:4;marker:none;visibility:visible;display:inline;overflow:visible;enable-background:accumulate"
       id="rect9589"
       width="230"
       height="60"
       x="-1050"
       y="-962.36218"
       transform="scale(-1,-1)" />
    <g
       id="g13213"
       transform="translate(10,0)" />
    <g
       id="g14241">
      <path
         sodipodi:open="true"
         sodipodi:end="6.2831853"
         sodipodi:start="3.1415927"
         transform="matrix(1.4545455,0,0,1.4545455,-592.81822,769.27127)"
         d="M 1126,118.99999 A 110,110 0 0 1 1346,119"
         sodipodi:ry="110"
         sodipodi:rx="110"
         sodipodi:cy="119"
         sodipodi:cx="1236"
         id="path7176"
         style="color:#000000;fill:url(#linearGradient7773);fill-opacity:1;fill-rule:nonzero;stroke:none;stroke-width:4;marker:none;visibility:visible;display:inline;overflow:visible;enable-background:accumulate"
         sodipodi:type="arc" />
      <flowRoot
         clip-path="url(#clipPath8573)"
         transform="translate(19,1303.3622)"
         style="font-size:30px;font-style:normal;font-variant:normal;font-weight:bold;font-stretch:normal;text-indent:0;text-align:start;text-decoration:none;line-height:125%;letter-spacing:0px;word-spacing:0px;text-transform:none;direction:ltr;block-progression:tb;writing-mode:lr-tb;text-anchor:start;baseline-shift:baseline;opacity:0.25;color:#000000;fill:url(#linearGradient9015);fill-opacity:1;fill-rule:nonzero;stroke:none;stroke-width:4;marker:none;visibility:visible;display:inline;overflow:visible;enable-background:accumulate;font-family:Menlo;-inkscape-font-specification:Menlo Bold"
         id="flowRoot8523"
         xml:space="preserve"><flowRegion
           style="fill:url(#linearGradient9021);fill-opacity:1"
           id="flowRegion8525"><rect
             style="font-style:normal;font-variant:normal;font-weight:bold;font-stretch:normal;fill:url(#linearGradient9019);fill-opacity:1;stroke:none;font-family:Menlo;-inkscape-font-specification:Menlo Bold"
             y="-529"
             x="1021"
             height="303"
             width="580"
             id="rect8527" /></flowRegion><flowPara
           style="fill:url(#linearGradient9023);fill-opacity:1"
           id="flowPara8529">101010101010100011</flowPara><flowPara
           style="fill:url(#linearGradient9025);fill-opacity:1"
           id="flowPara8531">100010101010011010</flowPara><flowPara
           style="fill:url(#linearGradient9027);fill-opacity:1"
           id="flowPara8533">101010101001010110</flowPara><flowPara
           style="fill:url(#linearGradient9029);fill-opacity:1"
           id="flowPara8535">010111010101011010</flowPara><flowPara
           style="fill:url(#linearGradient9031);fill-opacity:1"
           id="flowPara8537">000101010000110001</flowPara><flowPara
           style="fill:url(#linearGradient9033);fill-opacity:1"
           id="flowPara8617">101010110010101101</flowPara><flowPara
           style="fill:url(#linearGradient9035);fill-opacity:1"
           id="flowPara8619">101010111010101011</flowPara></flowRoot>      <path
         sodipodi:nodetypes="cccccccccccccccccccccccccccccccccccccccccccccccccccccccccccccccccccccccccccccccccccccccccccccccscccccccccccccccccccccccccccccccccsccccccc"
         inkscape:connector-curvature="0"
         clip-path="url(#clipPath7691)"
         id="path7591"
         transform="translate(30,852.36218)"
         d="m 1174,-70 c -6.4317,0.0395 -12.7696,0.4728 -19,1.25 l 0,8.75 5,5 10,0 z m 40.25,4.84375 -0.031,0.15625 7.7812,9 5,0 3,-4 0,-0.28125 c -1.2872,-0.4713 -2.5726,-0.93607 -3.875,-1.375 -0.041,-0.0138 -0.084,-0.01755 -0.125,-0.03125 -1.2576,-0.42471 -2.5104,-0.82436 -3.7812,-1.21875 -1.1271,-0.34978 -2.2683,-0.70623 -3.4063,-1.03125 -0.1871,-0.0531 -0.3752,-0.10379 -0.5625,-0.15625 -1.079,-0.30374 -2.1607,-0.59432 -3.25,-0.875 -0.2478,-0.0638 -0.5017,-0.1249 -0.75,-0.1875 z m -95,5.15625 c -39.4401,14.6674 -71.5429,44.43079 -89.25,82.28125 L 1030,35 l 15,15 0,10 5,0 5,5 0,5 -5,5 0,15 105,0 -10,-10 -20,0 -5,-5 0,-5 -40,-25 -10,0 -10,10 -10,0 0,-15 -5,-5 5,-5 0,-5 -5,0 -10,0 10,-20 15,-5 0,15 5,0 5,-5 0,-10 25,-30 5,0 40,-15 0,-10 -5,-5 z m 91.75,5 6,8 7,0 -8,-8 z m 33.5,0.84375 -2.375,4.15625 -12.125,0 -5.7812,10 5.7812,10 -10,0.3125 -4.4375,4.6875 0,5 8.6563,5 10.7812,0 8.6562,-15 6.3438,0 10,8 1.3438,5 3.6562,0 0,-8 5,3 5,2 5,0 6,-6 -9,-10 -2.125,1 c -0.029,-0.0234 -0.064,-0.0392 -0.094,-0.0625 -0.3359,-0.26835 -0.6619,-0.54681 -1,-0.8125 -0.8033,-0.63134 -1.6219,-1.25882 -2.4374,-1.875 -0.2074,-0.1566 -0.417,-0.31314 -0.625,-0.46875 -0.9966,-0.74524 -1.9858,-1.46514 -3,-2.1875 -0.031,-0.0218 -0.063,-0.0408 -0.094,-0.0625 -0.1103,-0.0784 -0.2332,-0.14058 -0.3438,-0.21875 -0.9382,-0.66399 -1.8596,-1.35587 -2.8124,-2 -0.1442,-0.0974 -0.2931,-0.18434 -0.4376,-0.28125 -0.9169,-0.61558 -1.8508,-1.21555 -2.7812,-1.8125 -0.3292,-0.21107 -0.6691,-0.41628 -1,-0.625 -1.2672,-0.79993 -2.5216,-1.57877 -3.8125,-2.34375 -1.0622,-0.62947 -2.1409,-1.23835 -3.2187,-1.84375 -0.538,-0.302 -1.0834,-0.6103 -1.625,-0.90625 -0.1142,-0.0623 -0.2296,-0.12545 -0.3438,-0.1875 -0.9035,-0.49081 -1.8049,-0.9637 -2.7188,-1.4375 -1.3366,-0.69309 -2.6725,-1.3751 -4.0312,-2.03125 z M 1283,-30 l -3,10 5,5 10,0 0,10 -15,0 0,5 -10,0 -10,-10 -20,0 -5,0 -10,0 -5,5 0,10 -5,0 -10,20 0,5 5,5 0,15 20,20 20,0 5,-5 10,0 10,10 0,10 3.3438,5 56.6562,0 c 0,-44.18275 -17.9207,-84.17069 -46.875,-113.125 -0.6292,-0.62919 -1.2668,-1.25631 -1.9062,-1.875 z m -78,-20 3,5 5,0 -3,-5 z"
         style="opacity:0.25;color:#000000;fill:#222222;fill-opacity:1;fill-rule:nonzero;stroke:none;stroke-width:4;marker:none;visibility:visible;display:inline;overflow:visible;filter:url(#filter7759);enable-background:accumulate" />
      <path
         id="path7176-41"
         transform="translate(820,742.36218)"
         d="M 424.25 44.84375 L 424.21875 45 L 432 54 L 437 54 L 440 50 L 440 49.71875 C 438.7127 49.24745 437.4274 48.78268 436.125 48.34375 C 436.084 48.32995 436.041 48.3262 436 48.3125 C 434.7424 47.88779 433.48955 47.48814 432.21875 47.09375 C 431.09165 46.74397 429.9505 46.38752 428.8125 46.0625 C 428.6254 46.0094 428.4373 45.95871 428.25 45.90625 C 427.171 45.60251 426.0893 45.31193 425 45.03125 C 424.7522 44.96745 424.4982 44.90635 424.25 44.84375 z M 421 55 L 427 63 L 434 63 L 426 55 L 421 55 z M 454.5 55.875 L 452.125 60 L 442.53125 60 L 440 60 L 434.21875 70 L 440 80 L 430 80.3125 L 425.5625 85 L 425.5625 90 L 434.21875 95 L 441.5625 95 L 445 95 L 453.65625 80 L 460 80 L 470 88 L 471.34375 93 L 475 93 L 475 85 L 480 88 L 485 90 L 490 90 L 495 95 L 505 95 L 505 105 L 490 105 L 490 110 L 480 110 L 470 100 L 450 100 L 445 100 L 440.625 100 L 435 100 L 430 105 L 430 115 L 425 115 L 415 135 L 415 140 L 420 145 L 420 155.9375 L 420 160 L 440 180 L 460 180 L 465 175 L 475 175 L 485 185 L 485 195 L 488.34375 200 L 540 200 L 545 200 C 545 148.56234 520.7163 102.8014 483 73.53125 C 482.8452 73.41829 482.67805 73.30053 482.53125 73.1875 C 482.51325 73.1735 482.48675 73.17025 482.46875 73.15625 C 481.75135 72.60392 481.0396 72.04013 480.3125 71.5 C 480.2595 71.4603 480.20995 71.4146 480.15625 71.375 C 480.09625 71.3306 480.02625 71.2979 479.96875 71.25 C 479.94575 71.2313 479.92625 71.2097 479.90625 71.1875 C 479.88325 71.1701 479.86675 71.1424 479.84375 71.125 C 479.11135 70.5853 478.3663 70.05289 477.625 69.53125 C 477.606 69.51795 477.5805 69.5133 477.5625 69.5 C 476.8022 68.9655 476.05185 68.43367 475.28125 67.90625 C 474.45595 67.34121 473.61795 66.79988 472.78125 66.25 C 471.10825 65.15024 469.4035 64.06918 467.6875 63.03125 C 466.8295 62.51228 465.96205 62.00321 465.09375 61.5 C 464.22515 60.99679 463.34975 60.4908 462.46875 60 C 461.58765 59.50921 460.7012 59.03361 459.8125 58.5625 C 458.9238 58.09139 458.05495 57.64226 457.15625 57.1875 C 456.27855 56.74322 455.387 56.3035 454.5 55.875 z M 415 60 L 418 65 L 423 65 L 420 60 L 415 60 z "
         style="color:#000000;fill:url(#linearGradient7878-19);fill-opacity:1;fill-rule:nonzero;stroke:none;stroke-width:4;marker:none;visibility:visible;display:inline;overflow:visible;enable-background:accumulate" />
      <path
         id="path7176-3-8"
         d="m 1285,897.36218 -15,15 -20,0 10,10 20,0 5,-5 10,0 10,10 0,10 5,0 10,-10 15.9688,0 0,-15 -25.9688,-15 -25,0 z"
         style="opacity:0.15;color:#000000;fill:#9ed184;fill-opacity:1;fill-rule:nonzero;stroke:none;stroke-width:4;marker:none;visibility:visible;display:inline;overflow:visible;enable-background:accumulate"
         inkscape:connector-curvature="0" />
      <path
         sodipodi:nodetypes="ccccccccccccccccccccccccccccccccccccc"
         id="path7176-4"
         d="m 1149.25,792.36218 c -39.4401,14.6674 -71.5429,44.43079 -89.25,82.28125 l 0,12.71875 15,15 0,10 5,0 5,5 0,5 -5,5 0,15.00002 105,0 -10,-10.00002 -20,0 -5,-5 0,-5 -40,-25 -10,0 -10,10 -10,0 0,-15 -5,-5 5,-5 0,-5 -5,0 -10,0 10,-20 15,-5 0,15 5,0 5,-5 0,-10 25,-30 5,0 40,-15 0,-10 -5,-5 z"
         style="color:#000000;fill:url(#linearGradient7878);fill-opacity:1;fill-rule:nonzero;stroke:none;stroke-width:4;marker:none;visibility:visible;display:inline;overflow:visible;enable-background:accumulate"
         inkscape:connector-curvature="0" />
      <path
         id="path7176-9"
         d="m 1204,782.36218 c -6.4317,0.0395 -12.7696,0.4728 -19,1.25 l 0,8.75 5,5 10,0 4,-15 z"
         style="color:#000000;fill:url(#linearGradient7878-5);fill-opacity:1;fill-rule:nonzero;stroke:none;stroke-width:4;marker:none;visibility:visible;display:inline;overflow:visible;enable-background:accumulate"
         inkscape:connector-curvature="0" />
      <path
         transform="matrix(2,0,0,2,-1441,832.36218)"
         d="m 1305,17.5 a 2.5,2.5 0 1 1 -5,0 2.5,2.5 0 1 1 5,0 z"
         sodipodi:ry="2.5"
         sodipodi:rx="2.5"
         sodipodi:cy="17.5"
         sodipodi:cx="1302.5"
         id="path8131"
         style="opacity:0.5;color:#000000;fill:#222222;fill-opacity:1;stroke:none;stroke-width:8;marker:none;visibility:visible;display:inline;overflow:visible;enable-background:accumulate"
         sodipodi:type="arc" />
      <path
         transform="matrix(2,0,0,2,-1467,832.36218)"
         d="m 1305,17.5 a 2.5,2.5 0 1 1 -5,0 2.5,2.5 0 1 1 5,0 z"
         sodipodi:ry="2.5"
         sodipodi:rx="2.5"
         sodipodi:cy="17.5"
         sodipodi:cx="1302.5"
         id="path8157"
         style="opacity:0.5;color:#000000;fill:#222222;fill-opacity:1;stroke:none;stroke-width:8;marker:none;visibility:visible;display:inline;overflow:visible;enable-background:accumulate"
         sodipodi:type="arc" />
      <path
         sodipodi:nodetypes="cccccc"
         inkscape:connector-curvature="0"
         id="path9199"
         d="m 1100,927.36218 5,0 15,5 0,10 -30,0 z"
         style="opacity:0.15;color:#000000;fill:#9ed184;fill-opacity:1;fill-rule:nonzero;stroke:none;stroke-width:4;marker:none;visibility:visible;display:inline;overflow:visible;enable-background:accumulate" />
      <path
         id="path7176-4-2"
         d="m 1130,909.86218 0,7.5 10,5 0,10 -10,10 55,0 -10,-10 -20,0 -5,-5 0,-5 -20,-12.5 z"
         style="opacity:0.15;color:#000000;fill:#9ed184;fill-opacity:1;fill-rule:nonzero;stroke:none;stroke-width:4;marker:none;visibility:visible;display:inline;overflow:visible;enable-background:accumulate"
         inkscape:connector-curvature="0" />
      <path
         id="path7176-4-7"
         d="m 1149.25,792.36218 c -5.8774,2.18576 -11.5968,4.72945 -17.125,7.5625 l 12.875,7.4375 0,9.375 25,-9.375 0,-10 -5,-5 -15.75,0 z"
         style="opacity:0.15;color:#000000;fill:#9ed184;fill-opacity:1;fill-rule:nonzero;stroke:none;stroke-width:4;marker:none;visibility:visible;display:inline;overflow:visible;enable-background:accumulate"
         inkscape:connector-curvature="0" />
      <path
         id="path7176-4-76"
         d="m 1115,810.08093 c -13.1826,8.9817 -24.9493,19.86488 -34.9063,32.28125 l 14.9063,0 20,-20 0,-12.28125 z"
         style="opacity:0.15;color:#000000;fill:#9ed184;fill-opacity:1;fill-rule:nonzero;stroke:none;stroke-width:4;marker:none;visibility:visible;display:inline;overflow:visible;enable-background:accumulate"
         inkscape:connector-curvature="0" />
      <path
         inkscape:connector-curvature="0"
         id="path13188"
         d="m 1100.75,887.36218 0,10.03125 c -0.2461,-0.0181 -0.4992,-0.0312 -0.75,-0.0312 -4.5663,0 -8.4278,3.06835 -9.625,7.25 l -12.375,37.75 22,0 8.375,-28 28.25,0 8.375,28 20,0 -9.0312,-32.75 c -0.9563,-3.33947 -5.7545,-9.13562 -9.9688,-11.34375 l 0,-10.90625 -45.25,0 z"
         style="opacity:0.25;color:#000000;fill:url(#linearGradient13220);fill-opacity:1;stroke:none;stroke-width:20;marker:none;visibility:visible;display:inline;overflow:visible;enable-background:accumulate" />
      <rect
         y="877.36218"
         x="1085"
         height="30"
         width="50"
         id="rect13103"
         style="color:#000000;fill:url(#linearGradient13246);fill-opacity:1;fill-rule:nonzero;stroke:none;stroke-width:20;marker:none;visibility:visible;display:inline;overflow:visible;enable-background:accumulate" />
      <path
         inkscape:connector-curvature="0"
         id="path13097"
         d="m 1130,897.36218 c -5.5228,0 -10,4.47715 -10,10 0,0.95659 0.1242,1.87399 0.375,2.75 l 0.062,0.1875 c 0.01,0.0188 -0.01,0.0437 0,0.0625 l 9.5625,32 20,0 -10.375,-37.75 c -1.1972,-4.18165 -5.0587,-7.25 -9.625,-7.25 z"
         style="color:#000000;fill:url(#linearGradient14231);fill-opacity:1;stroke:none;stroke-width:20;marker:none;visibility:visible;display:inline;overflow:visible;enable-background:accumulate" />
      <path
         style="font-size:medium;font-style:normal;font-variant:normal;font-weight:normal;font-stretch:normal;text-indent:0;text-align:start;text-decoration:none;line-height:normal;letter-spacing:normal;word-spacing:normal;text-transform:none;direction:ltr;block-progression:tb;writing-mode:lr-tb;text-anchor:start;baseline-shift:baseline;color:#000000;fill:url(#linearGradient14229);fill-opacity:1;stroke:none;stroke-width:20;marker:none;visibility:visible;display:inline;overflow:visible;enable-background:accumulate;font-family:Sans;-inkscape-font-specification:Sans"
         d="m 1090,897.36218 c -4.5663,0 -8.4278,3.06835 -9.625,7.25 l -12.375,37.75 22,0 9.5625,-32 0,-0.0625 c 0.019,-0.0621 0.045,-0.12491 0.062,-0.1875 0.2508,-0.87601 0.375,-1.79341 0.375,-2.75 0,-5.52285 -4.4771,-10 -10,-10 z"
         id="path13099"
         inkscape:connector-curvature="0" />
      <path
         sodipodi:nodetypes="cscc"
         inkscape:connector-curvature="0"
         id="path8488-2"
         d="m 1142,882.36218 c 0,0 3,4 8,4 5,0 8,-4 8,-4 z"
         style="opacity:0.5;color:#000000;fill:none;stroke:#222222;stroke-width:4;stroke-linecap:round;stroke-linejoin:round;stroke-opacity:1;marker:none;visibility:visible;display:inline;overflow:visible;enable-background:accumulate" />
      <path
         sodipodi:nodetypes="ccccc"
         inkscape:connector-curvature="0"
         id="path13169"
         d="m 1135,877.36218 -20,-10 -10,0 -20,10 z"
         style="color:#000000;fill:#ebf2fd;fill-opacity:1;fill-rule:nonzero;stroke:none;stroke-width:20;marker:none;visibility:visible;display:inline;overflow:visible;enable-background:accumulate" />
      <path
         sodipodi:nodetypes="cccc"
         id="path7176-2"
         d="m 1260.4688,792.26843 c 13.3096,49.6722 -0.4537,112.82556 -27.6876,150.09372 l 132.2188,0 c 0,-68.85715 -43.5157,-127.53233 -104.5312,-150.09372 z"
         style="opacity:0.25;color:#000000;fill:url(#linearGradient7781);fill-opacity:1;fill-rule:nonzero;stroke:none;stroke-width:4;marker:none;visibility:visible;display:inline;overflow:visible;enable-background:accumulate"
         inkscape:connector-curvature="0" />
    </g>
    <path
       sodipodi:open="true"
       sodipodi:end="6.2831853"
       sodipodi:start="3.1415927"
       transform="matrix(1.5000002,0,0,1.5,-649.00018,763.86218)"
       d="M 1126,118.99999 A 110,110 0 0 1 1346,119"
       sodipodi:ry="110"
       sodipodi:rx="110"
       sodipodi:cy="119"
       sodipodi:cx="1236"
       id="path7176-1"
       style="color:#000000;fill:url(#radialGradient14929);fill-opacity:1;fill-rule:nonzero;stroke:none;stroke-width:4;marker:none;visibility:visible;display:inline;overflow:visible;enable-background:accumulate"
       sodipodi:type="arc" />
  </g>
  <g
     inkscape:groupmode="layer"
     id="layer2"
     inkscape:label="blahh"
     style="display:none"
     sodipodi:insensitive="true"
     transform="translate(-820,110)">
    <image
       y="-104.56463"
       x="967.5"
       id="image7297"
       xlink:href="file:///Users/saman/Desktop/Screen%20Shot%202013-07-30%20at%204.21.02%20PM.png"
       height="361.12924"
       width="381"
       style="opacity:0.25" />
  </g>
</svg>
