<?xml version="1.0" encoding="UTF-8" standalone="no"?>
<!-- Created with Inkscape (http://www.inkscape.org/) -->

<svg
   width="1000"
   height="500"
   id="svg2"
   version="1.1"
   inkscape:version="1.2.2 (b0a8486541, 2022-12-01)"
   sodipodi:docname="welcome-sprite.svg"
   inkscape:export-filename="C:\Users\simon\Downloads\welcome-sprite.png"
   inkscape:export-xdpi="90"
   inkscape:export-ydpi="90"
   xmlns:inkscape="http://www.inkscape.org/namespaces/inkscape"
   xmlns:sodipodi="http://sodipodi.sourceforge.net/DTD/sodipodi-0.dtd"
   xmlns="http://www.w3.org/2000/svg"
   xmlns:svg="http://www.w3.org/2000/svg"
   xmlns:rdf="http://www.w3.org/1999/02/22-rdf-syntax-ns#"
   xmlns:cc="http://creativecommons.org/ns#"
   xmlns:dc="http://purl.org/dc/elements/1.1/">
  <defs
     id="defs4" />
  <sodipodi:namedview
     id="base"
     pagecolor="#ffffff"
     bordercolor="#666666"
     borderopacity="1.0"
     inkscape:pageopacity="0.0"
     inkscape:pageshadow="2"
     inkscape:zoom="1.4142136"
     inkscape:cx="603.51564"
     inkscape:cy="99.348503"
     inkscape:document-units="px"
     inkscape:current-layer="layer1"
     showgrid="false"
     inkscape:window-width="2560"
     inkscape:window-height="1368"
     inkscape:window-x="0"
     inkscape:window-y="0"
     inkscape:window-maximized="1"
     showguides="true"
     inkscape:guide-bbox="true"
     inkscape:snap-bbox="false"
     inkscape:snap-nodes="true"
     inkscape:object-paths="true"
     inkscape:object-nodes="true"
     inkscape:snap-grids="true"
     inkscape:snap-global="false"
     inkscape:showpageshadow="2"
     inkscape:pagecheckerboard="0"
     inkscape:deskcolor="#d1d1d1">
    <inkscape:grid
       type="xygrid"
       id="grid2985"
       empspacing="5"
       visible="true"
       enabled="true"
       snapvisiblegridlinesonly="true" />
    <sodipodi:guide
       orientation="1,0"
       position="100,530"
       id="guide11961"
       inkscape:locked="false" />
    <sodipodi:guide
       orientation="1,0"
       position="200,540"
       id="guide11963"
       inkscape:locked="false" />
    <sodipodi:guide
       orientation="1,0"
       position="300,550"
       id="guide11977"
       inkscape:locked="false" />
    <sodipodi:guide
       orientation="1,0"
       position="400,600"
       id="guide11979"
       inkscape:locked="false" />
    <sodipodi:guide
       orientation="1,0"
       position="500,580"
       id="guide11981"
       inkscape:locked="false" />
    <sodipodi:guide
       orientation="1,0"
       position="600,500"
       id="guide11983"
       inkscape:locked="false" />
    <sodipodi:guide
       orientation="1,0"
       position="700,500"
       id="guide11985"
       inkscape:locked="false" />
    <sodipodi:guide
       orientation="-0.79335322,-0.60876159"
       position="575.00001,439.99998"
       id="guide12971"
       inkscape:locked="false" />
    <sodipodi:guide
       orientation="0,1"
       position="420,400"
       id="guide3038"
       inkscape:locked="false" />
    <sodipodi:guide
       orientation="1,0"
       position="799,715"
       id="guide3196"
       inkscape:locked="false" />
  </sodipodi:namedview>
  <metadata
     id="metadata7">
    <rdf:RDF>
      <cc:Work
         rdf:about="">
        <dc:format>image/svg+xml</dc:format>
        <dc:type
           rdf:resource="http://purl.org/dc/dcmitype/StillImage" />
        <dc:title />
      </cc:Work>
    </rdf:RDF>
  </metadata>
  <g
     inkscape:label="Layer 1"
     inkscape:groupmode="layer"
     id="layer1"
     transform="translate(0,-552.36218)">
    <g
       id="g11955"
       transform="translate(0,-3)" />
    <path
       inkscape:export-ydpi="90"
       inkscape:export-xdpi="90"
       inkscape:export-filename="/Users/saman/work_repos/osm-redesign/renders/share-1.png"
       sodipodi:nodetypes="ccccccccc"
       inkscape:connector-curvature="0"
       id="path6918-2"
       d="m -153,412.86218 0,-2.00001 10,-3.99999 2,10e-6 0,1.99998 -4,10 -2,1e-5 0,-6 z"
       style="color:#000000;fill:#70cd8f;fill-opacity:1;fill-rule:nonzero;stroke:none;stroke-width:5;marker:none;visibility:visible;display:inline;overflow:visible;filter:url(#filter6591-2);enable-background:accumulate" />
    <path
       sodipodi:type="arc"
       style="color:#000000;fill:#70cd8f;fill-opacity:1;fill-rule:nonzero;stroke:none;stroke-width:0.99999994;marker:none;visibility:visible;display:inline;overflow:visible;enable-background:accumulate"
       id="path2987"
       sodipodi:cx="42.5"
       sodipodi:cy="42.5"
       sodipodi:rx="42.5"
       sodipodi:ry="42.5"
       d="M 85,42.5 C 85,65.972102 65.972102,85 42.5,85 19.027898,85 0,65.972102 0,42.5 0,19.027898 19.027898,0 42.5,0 65.972102,0 85,19.027898 85,42.5 z"
       transform="matrix(1.0588235,0,0,1.0588235,5,557.36218)" />
    <path
       sodipodi:type="arc"
       style="color:#000000;fill:#cd7070;fill-opacity:1;fill-rule:nonzero;stroke:none;stroke-width:0.99999994;marker:none;visibility:visible;display:inline;overflow:visible;enable-background:accumulate"
       id="path2987-7"
       sodipodi:cx="42.5"
       sodipodi:cy="42.5"
       sodipodi:rx="42.5"
       sodipodi:ry="42.5"
       d="M 85,42.5 C 85,65.972102 65.972102,85 42.5,85 19.027898,85 0,65.972102 0,42.5 0,19.027898 19.027898,0 42.5,0 65.972102,0 85,19.027898 85,42.5 z"
       transform="matrix(1.0588235,0,0,1.0588235,105,557.36218)" />
    <path
       style="color:#000000;fill:#ffffff;fill-opacity:1;fill-rule:nonzero;stroke:none;stroke-width:0.99999994;marker:none;visibility:visible;display:inline;overflow:visible;enable-background:accumulate"
       d="m 135,582.36218 -2,0 -3,3 0,2 15,15 -15,15 0,2 3,3 2,0 15,-15 15,15 2,0 3,-3 0,-2 -15,-15 15,-15 0,-2 -3,-3 -2,0 -15,15 z"
       id="rect3761-9"
       inkscape:connector-curvature="0"
       sodipodi:nodetypes="ccccccccccccccccccccc" />
    <path
       sodipodi:type="arc"
       style="color:#000000;fill:#ffffff;fill-opacity:1;fill-rule:nonzero;stroke:none;stroke-width:0.99999994;marker:none;visibility:visible;display:inline;overflow:visible;enable-background:accumulate"
       id="path2987-7-7-1"
       sodipodi:cx="42.5"
       sodipodi:cy="42.5"
       sodipodi:rx="42.5"
       sodipodi:ry="42.5"
       d="M 85,42.5 C 85,65.972102 65.972102,85 42.5,85 19.027898,85 0,65.972102 0,42.5 0,19.027898 19.027898,0 42.5,0 65.972102,0 85,19.027898 85,42.5 z"
       transform="matrix(0.3529412,0,0,0.3529412,235,587.36218)" />
    <path
       style="opacity:0.5;color:#000000;fill:#7092ff;fill-opacity:1;fill-rule:nonzero;stroke:none;stroke-width:1.05882347;marker:none;visibility:visible;display:inline;overflow:visible;enable-background:accumulate"
       d="m 519.72811,582.91357 19.83383,-15.21904 40.43807,49.66766 -19.83383,15.21904 z"
       id="rect4144"
       inkscape:connector-curvature="0"
       sodipodi:nodetypes="ccccc" />
    <path
       style="color:#000000;fill:#7092ff;fill-opacity:1;fill-rule:nonzero;stroke:none;stroke-width:10;marker:none;visibility:visible;display:inline;overflow:visible;enable-background:accumulate"
       d="m 510.59669,571.01327 19.83383,-15.21904 6.08761,7.93353 -19.83383,15.21904 z"
       id="rect4174"
       inkscape:connector-curvature="0"
       sodipodi:nodetypes="ccccc" />
    <path
       style="color:#000000;fill:#7092ff;fill-opacity:1;fill-rule:nonzero;stroke:none;stroke-width:10;marker:none;visibility:visible;display:inline;overflow:visible;enable-background:accumulate"
       d="m 563.20997,636.54797 19.83384,-15.21903 1.19788,17.98791 -3.96676,3.04381 z"
       id="path4182"
       inkscape:connector-curvature="0"
       sodipodi:nodetypes="ccccc" />
    <path
       sodipodi:type="arc"
       style="color:#000000;fill:#ffffff;fill-opacity:1;fill-rule:nonzero;stroke:none;stroke-width:0.99999994;marker:none;visibility:visible;display:inline;overflow:visible;enable-background:accumulate"
       id="path2987-7-7-2"
       sodipodi:cx="42.5"
       sodipodi:cy="42.5"
       sodipodi:rx="42.5"
       sodipodi:ry="42.5"
       d="M 85,42.5 C 85,65.972102 65.972102,85 42.5,85 19.027898,85 0,65.972102 0,42.5 0,19.027898 19.027898,0 42.5,0 65.972102,0 85,19.027898 85,42.5 z"
       transform="matrix(1.0588235,0,0,1.0588235,605,557.36218)" />
    <path
       style="color:#000000;fill:#7092ff;fill-opacity:1;fill-rule:nonzero;stroke:none;stroke-width:4;marker:none;visibility:visible;display:inline;overflow:visible;enable-background:accumulate"
       d="m 425.00002,639.36218 -20.00002,-20 0,-29 20.00003,-20.00001 67.99997,10e-6 2,2 0,65 -1.99998,2 z"
       id="rect11998"
       inkscape:connector-curvature="0"
       sodipodi:nodetypes="ccccccccc" />
    <path
       inkscape:connector-curvature="0"
       d="m 379.30233,557.36218 c -8.6696,0 -15.69768,7.02808 -15.69768,15.69767 0,1.58143 0.28446,3.07359 0.71948,4.51309 l -39.11337,39.11337 c -1.4395,-0.43502 -2.93166,-0.71948 -4.51309,-0.71948 -8.66959,0 -15.69767,7.02808 -15.69767,15.69768 0,8.66959 7.02808,15.69767 15.69767,15.69767 8.6696,0 15.69768,-7.02808 15.69768,-15.69767 0,-1.58143 -0.28446,-3.07359 -0.71948,-4.51309 l 39.11337,-39.11337 c 1.4395,0.43502 2.93166,0.71948 4.51309,0.71948 8.66959,0 15.69767,-7.02808 15.69767,-15.69768 0,-8.66959 -7.02808,-15.69767 -15.69767,-15.69767 z m 0,9.4186 c 3.46782,0 6.27907,2.81125 6.27907,6.27907 0,3.46783 -2.81125,6.27907 -6.27907,6.27907 -3.46783,0 -6.27907,-2.81124 -6.27907,-6.27907 0,-3.46782 2.81124,-6.27907 6.27907,-6.27907 z m -58.60466,58.60466 c 3.46783,0 6.27907,2.81124 6.27907,6.27907 0,3.46782 -2.81124,6.27907 -6.27907,6.27907 -3.46782,0 -6.27907,-2.81125 -6.27907,-6.27907 0,-3.46783 2.81125,-6.27907 6.27907,-6.27907 z"
       id="path5387-6-5"
       style="color:#000000;fill:#7092ff;fill-opacity:1;fill-rule:nonzero;stroke:none;stroke-width:1;marker:none;visibility:visible;display:inline;overflow:visible;enable-background:accumulate" />
    <path
       inkscape:connector-curvature="0"
       d="m 250,557.36218 c -20.7105,0 -37.5,16.78935 -37.5,37.5 0,20.71072 37.5,52.5 37.5,52.5 0,0 37.5,-31.78928 37.5,-52.5 0,-20.71065 -16.7895,-37.5 -37.5,-37.5 z m 1.1715,22.5 c 8.2845,0 15,6.71572 15,15 0,8.28427 -6.7155,15 -15,15 -8.28375,0 -15,-6.71573 -15,-15 0,-8.28428 6.71625,-15 15,-15 z"
       id="path8139-4-6-3-5"
       style="color:#000000;fill:#7092ff;fill-opacity:1;fill-rule:nonzero;stroke:none;stroke-width:1;marker:none;visibility:visible;display:inline;overflow:visible;enable-background:accumulate" />
    <path
       sodipodi:nodetypes="ccccccccccccc"
       inkscape:connector-curvature="0"
       id="path12963"
       d="m 31,598.36218 -2,0 -3,3 0,2 14,14 5,5 5,-5 25,-25 0,-2 -3,-3 -2,0 -25,25 z"
       style="color:#000000;fill:#ffffff;fill-opacity:1;fill-rule:nonzero;stroke:none;stroke-width:0.99999994;marker:none;visibility:visible;display:inline;overflow:visible;enable-background:accumulate" />
    <g
       id="g12979">
      <path
         transform="matrix(1.0666649,0,0,1.0666649,-20.332779,546.02902)"
         d="m 335,80 c 0,8.284271 -6.71573,15 -15,15 -8.28427,0 -15,-6.715729 -15,-15 0,-8.284271 6.71573,-15 15,-15 8.28427,0 15,6.715729 15,15 z"
         sodipodi:ry="15"
         sodipodi:rx="15"
         sodipodi:cy="80"
         sodipodi:cx="320"
         id="path12975"
         style="color:#000000;fill:#7092ff;fill-opacity:1;fill-rule:nonzero;stroke:none;stroke-width:16;marker:none;visibility:visible;display:inline;overflow:visible;enable-background:accumulate"
         sodipodi:type="arc" />
      <path
         sodipodi:type="arc"
         style="color:#000000;fill:#ffffff;fill-opacity:1;fill-rule:nonzero;stroke:none;stroke-width:16;marker:none;visibility:visible;display:inline;overflow:visible;enable-background:accumulate"
         id="path12977"
         sodipodi:cx="320"
         sodipodi:cy="80"
         sodipodi:rx="15"
         sodipodi:ry="15"
         d="m 335,80 c 0,8.284271 -6.71573,15 -15,15 -8.28427,0 -15,-6.715729 -15,-15 0,-8.284271 6.71573,-15 15,-15 8.28427,0 15,6.715729 15,15 z"
         transform="matrix(0.46666693,0,0,0.46666693,171.66658,594.02886)" />
    </g>
    <path
       transform="matrix(1.0588235,0,0,1.0588235,605,557.36218)"
       d="M 85,42.5 C 85,65.972102 65.972102,85 42.5,85 19.027898,85 0,65.972102 0,42.5 0,19.027898 19.027898,0 42.5,0 65.972102,0 85,19.027898 85,42.5 z"
       sodipodi:ry="42.5"
       sodipodi:rx="42.5"
       sodipodi:cy="42.5"
       sodipodi:cx="42.5"
       id="path16825"
       style="color:#000000;fill:#7092ff;fill-opacity:1;fill-rule:nonzero;stroke:none;stroke-width:0.99999994;marker:none;visibility:visible;display:inline;overflow:visible;enable-background:accumulate"
       sodipodi:type="arc" />
    <g
       aria-label="?"
       id="text16827"
       style="font-weight:bold;line-height:0%;font-family:'Helvetica Neue';-inkscape-font-specification:'Helvetica Neue Bold';letter-spacing:0px;word-spacing:0px;baseline-shift:baseline;display:inline;overflow:visible;fill:#ffffff;marker:none;enable-background:accumulate">
      <path
         d="m 644.42001,607.3122 q 0,-3 1.26,-5.04 1.26,-2.04 4.32,-4.26 2.7,-1.92 3.84,-3.3 1.2,-1.44 1.2,-3.36 0,-1.92 -1.44,-2.88 -1.38,-1.02 -3.9,-1.02 -2.52,0 -4.98,0.78 -2.46,0.78 -5.04,2.1 l -3.18,-6.42 q 2.94,-1.62 6.36,-2.64 3.42,-1.02 7.5,-1.02 6.24,0 9.66,3 3.48,3 3.48,7.62 0,2.46 -0.78,4.26 -0.78,1.8 -2.34,3.36 -1.56,1.5 -3.9,3.24 -1.74,1.26 -2.7,2.16 -0.96,0.9 -1.32,1.74 -0.3,0.84 -0.3,2.1 v 1.74 h -7.74 z m -0.96,12.18 q 0,-2.76 1.5,-3.84 1.5,-1.14 3.66,-1.14 2.1,0 3.6,1.14 1.5,1.08 1.5,3.84 0,2.64 -1.5,3.84 -1.5,1.14 -3.6,1.14 -2.16,0 -3.66,-1.14 -1.5,-1.2 -1.5,-3.84 z"
         style="font-size:60px;line-height:1.25"
         id="path2013" />
    </g>
    <rect
       style="color:#000000;fill:#ffffff;fill-opacity:1;fill-rule:nonzero;stroke:none;stroke-width:1;marker:none;visibility:visible;display:inline;overflow:visible;enable-background:accumulate"
       id="rect3053"
       width="10"
       height="15.000005"
       x="415"
       y="597.36218"
       rx="3"
       ry="2.2500007" />
    <path
       transform="matrix(1.0588235,0,0,1.0588235,705,557.36218)"
       d="m 85,42.5 a 42.5,42.5 0 1 1 -85,0 42.5,42.5 0 1 1 85,0 z"
       sodipodi:ry="42.5"
       sodipodi:rx="42.5"
       sodipodi:cy="42.5"
       sodipodi:cx="42.5"
       id="path16825-7"
       style="color:#000000;fill:#7092ff;fill-opacity:1;fill-rule:nonzero;stroke:none;stroke-width:0.99999994;marker:none;visibility:visible;display:inline;overflow:visible;enable-background:accumulate"
       sodipodi:type="arc" />
    <g
       aria-label="ยง"
       id="text3795"
       style="line-height:0%;letter-spacing:0px;word-spacing:0px;stroke:#ffffff">
      <path
         d="m 741.07202,601.64217 q 0,-2.4 1.152,-3.84 1.152,-1.488 2.64,-2.208 -1.728,-0.96 -2.688,-2.256 -0.96,-1.344 -0.96,-3.264 0,-2.88 2.448,-4.512 2.448,-1.68 7.008,-1.68 2.688,0 4.56,0.48 1.872,0.432 3.648,1.152 l -1.296,3.216 q -1.632,-0.672 -3.264,-1.104 -1.632,-0.48 -3.936,-0.48 -2.88,0 -4.08,0.768 -1.152,0.72 -1.152,2.064 0,1.344 1.344,2.304 1.344,0.912 4.992,2.256 3.696,1.344 5.76,3.072 2.064,1.728 2.064,4.608 0,2.448 -1.104,4.032 -1.104,1.536 -2.496,2.352 1.68,0.912 2.592,2.208 0.96,1.248 0.96,3.072 0,3.312 -2.784,5.136 -2.736,1.824 -7.68,1.824 -2.64,0 -4.608,-0.384 -1.968,-0.432 -3.504,-1.2 v -3.6 q 1.536,0.72 3.792,1.344 2.256,0.624 4.512,0.624 3.552,0 4.896,-1.008 1.344,-1.056 1.344,-2.4 0,-0.912 -0.48,-1.584 -0.432,-0.672 -1.776,-1.392 -1.296,-0.768 -3.936,-1.728 -2.496,-0.96 -4.32,-1.968 -1.776,-1.008 -2.736,-2.4 -0.912,-1.392 -0.912,-3.504 z m 3.6,-0.48 q 0,1.776 1.488,3.024 1.536,1.2 5.376,2.64 l 1.056,0.384 q 1.104,-0.672 2.064,-1.68 1.008,-1.056 1.008,-2.688 0,-1.2 -0.672,-2.16 -0.624,-0.96 -2.256,-1.824 -1.632,-0.912 -4.608,-1.824 -1.344,0.336 -2.4,1.44 -1.056,1.104 -1.056,2.688 z"
         style="font-size:48px;line-height:1.25;-inkscape-font-specification:Sans;fill:#ffffff"
         id="path2010" />
    </g>
  </g>
</svg>
