<svg xmlns:dc="http://purl.org/dc/elements/1.1/" xmlns:cc="http://creativecommons.org/ns#" xmlns:rdf="http://www.w3.org/1999/02/22-rdf-syntax-ns#" xmlns:svg="http://www.w3.org/2000/svg" xmlns="http://www.w3.org/2000/svg" width="1000" height="500" id="svg2" version="1.1"><metadata id="metadata7"><rdf:RDF><cc:Work><dc:format>image/svg+xml</dc:format><dc:type rdf:resource="http://purl.org/dc/dcmitype/StillImage"/><dc:title/></cc:Work></rdf:RDF></metadata><g id="layer1" transform="translate(0,-552.36218)"><path id="path6918-2" d="m -153,412.86218 0,-2.00001 10,-3.99999 2,10e-6 0,1.99998 -4,10 -2,1e-5 0,-6 z" style="marker:none" color="#000000" fill="#70cd8f" fill-opacity="1" fill-rule="nonzero" stroke="none" stroke-width="5" visibility="visible" display="inline" overflow="visible" filter="url(#filter6591-2)" enable-background="accumulate"/><path style="marker:none" id="path2987" d="M 85,42.5 C 85,65.972102 65.972102,85 42.5,85 19.027898,85 0,65.972102 0,42.5 0,19.027898 19.027898,0 42.5,0 65.972102,0 85,19.027898 85,42.5 z" transform="matrix(1.0588235,0,0,1.0588235,5,557.36218)" color="#000000" fill="#70cd8f" fill-opacity="1" fill-rule="nonzero" stroke="none" stroke-width="0.99999994" visibility="visible" display="inline" overflow="visible" enable-background="accumulate"/><path style="marker:none" id="path2987-7" d="M 85,42.5 C 85,65.972102 65.972102,85 42.5,85 19.027898,85 0,65.972102 0,42.5 0,19.027898 19.027898,0 42.5,0 65.972102,0 85,19.027898 85,42.5 z" transform="matrix(1.0588235,0,0,1.0588235,105,557.36218)" color="#000000" fill="#cd7070" fill-opacity="1" fill-rule="nonzero" stroke="none" stroke-width="0.99999994" visibility="visible" display="inline" overflow="visible" enable-background="accumulate"/><path style="marker:none" d="m 135,582.36218 -2,0 -3,3 0,2 15,15 -15,15 0,2 3,3 2,0 15,-15 15,15 2,0 3,-3 0,-2 -15,-15 15,-15 0,-2 -3,-3 -2,0 -15,15 z" id="rect3761-9" color="#000000" fill="#ffffff" fill-opacity="1" fill-rule="nonzero" stroke="none" stroke-width="0.99999994" visibility="visible" display="inline" overflow="visible" enable-background="accumulate"/><path style="marker:none" id="path2987-7-7-1" d="M 85,42.5 C 85,65.972102 65.972102,85 42.5,85 19.027898,85 0,65.972102 0,42.5 0,19.027898 19.027898,0 42.5,0 65.972102,0 85,19.027898 85,42.5 z" transform="matrix(0.3529412,0,0,0.3529412,235,587.36218)" color="#000000" fill="#ffffff" fill-opacity="1" fill-rule="nonzero" stroke="none" stroke-width="0.99999994" visibility="visible" display="inline" overflow="visible" enable-background="accumulate"/><path style="marker:none" d="m 519.72811,582.91357 19.83383,-15.21904 40.43807,49.66766 -19.83383,15.21904 z" id="rect4144" opacity="0.5" color="#000000" fill="#7092ff" fill-opacity="1" fill-rule="nonzero" stroke="none" stroke-width="1.05882347" visibility="visible" display="inline" overflow="visible" enable-background="accumulate"/><path style="marker:none" d="m 510.59669,571.01327 19.83383,-15.21904 6.08761,7.93353 -19.83383,15.21904 z" id="rect4174" color="#000000" fill="#7092ff" fill-opacity="1" fill-rule="nonzero" stroke="none" stroke-width="10" visibility="visible" display="inline" overflow="visible" enable-background="accumulate"/><path style="marker:none" d="m 563.20997,636.54797 19.83384,-15.21903 1.19788,17.98791 -3.96676,3.04381 z" id="path4182" color="#000000" fill="#7092ff" fill-opacity="1" fill-rule="nonzero" stroke="none" stroke-width="10" visibility="visible" display="inline" overflow="visible" enable-background="accumulate"/><path style="marker:none" id="path2987-7-7-2" d="M 85,42.5 C 85,65.972102 65.972102,85 42.5,85 19.027898,85 0,65.972102 0,42.5 0,19.027898 19.027898,0 42.5,0 65.972102,0 85,19.027898 85,42.5 z" transform="matrix(1.0588235,0,0,1.0588235,605,557.36218)" color="#000000" fill="#ffffff" fill-opacity="1" fill-rule="nonzero" stroke="none" stroke-width="0.99999994" visibility="visible" display="inline" overflow="visible" enable-background="accumulate"/><path style="marker:none" d="m 425.00002,639.36218 -20.00002,-20 0,-29 20.00003,-20.00001 67.99997,10e-6 2,2 0,65 -1.99998,2 z" id="rect11998" color="#000000" fill="#7092ff" fill-opacity="1" fill-rule="nonzero" stroke="none" stroke-width="4" visibility="visible" display="inline" overflow="visible" enable-background="accumulate"/><path d="m 379.30233,557.36218 c -8.6696,0 -15.69768,7.02808 -15.69768,15.69767 0,1.58143 0.28446,3.07359 0.71948,4.51309 l -39.11337,39.11337 c -1.4395,-0.43502 -2.93166,-0.71948 -4.51309,-0.71948 -8.66959,0 -15.69767,7.02808 -15.69767,15.69768 0,8.66959 7.02808,15.69767 15.69767,15.69767 8.6696,0 15.69768,-7.02808 15.69768,-15.69767 0,-1.58143 -0.28446,-3.07359 -0.71948,-4.51309 l 39.11337,-39.11337 c 1.4395,0.43502 2.93166,0.71948 4.51309,0.71948 8.66959,0 15.69767,-7.02808 15.69767,-15.69768 0,-8.66959 -7.02808,-15.69767 -15.69767,-15.69767 z m 0,9.4186 c 3.46782,0 6.27907,2.81125 6.27907,6.27907 0,3.46783 -2.81125,6.27907 -6.27907,6.27907 -3.46783,0 -6.27907,-2.81124 -6.27907,-6.27907 0,-3.46782 2.81124,-6.27907 6.27907,-6.27907 z m -58.60466,58.60466 c 3.46783,0 6.27907,2.81124 6.27907,6.27907 0,3.46782 -2.81124,6.27907 -6.27907,6.27907 -3.46782,0 -6.27907,-2.81125 -6.27907,-6.27907 0,-3.46783 2.81125,-6.27907 6.27907,-6.27907 z" id="path5387-6-5" style="marker:none" color="#000000" fill="#7092ff" fill-opacity="1" fill-rule="nonzero" stroke="none" stroke-width="1" visibility="visible" display="inline" overflow="visible" enable-background="accumulate"/><path d="m 250,557.36218 c -20.7105,0 -37.5,16.78935 -37.5,37.5 0,20.71072 37.5,52.5 37.5,52.5 0,0 37.5,-31.78928 37.5,-52.5 0,-20.71065 -16.7895,-37.5 -37.5,-37.5 z m 1.1715,22.5 c 8.2845,0 15,6.71572 15,15 0,8.28427 -6.7155,15 -15,15 -8.28375,0 -15,-6.71573 -15,-15 0,-8.28428 6.71625,-15 15,-15 z" id="path8139-4-6-3-5" style="marker:none" color="#000000" fill="#7092ff" fill-opacity="1" fill-rule="nonzero" stroke="none" stroke-width="1" visibility="visible" display="inline" overflow="visible" enable-background="accumulate"/><path id="path12963" d="m 31,598.36218 -2,0 -3,3 0,2 14,14 5,5 5,-5 25,-25 0,-2 -3,-3 -2,0 -25,25 z" style="marker:none" color="#000000" fill="#ffffff" fill-opacity="1" fill-rule="nonzero" stroke="none" stroke-width="0.99999994" visibility="visible" display="inline" overflow="visible" enable-background="accumulate"/><g id="g12979"><path transform="matrix(1.0666649,0,0,1.0666649,-20.332779,546.02902)" d="m 335,80 c 0,8.284271 -6.71573,15 -15,15 -8.28427,0 -15,-6.715729 -15,-15 0,-8.284271 6.71573,-15 15,-15 8.28427,0 15,6.715729 15,15 z" id="path12975" style="marker:none" color="#000000" fill="#7092ff" fill-opacity="1" fill-rule="nonzero" stroke="none" stroke-width="16" visibility="visible" display="inline" overflow="visible" enable-background="accumulate"/><path style="marker:none" id="path12977" d="m 335,80 c 0,8.284271 -6.71573,15 -15,15 -8.28427,0 -15,-6.715729 -15,-15 0,-8.284271 6.71573,-15 15,-15 8.28427,0 15,6.715729 15,15 z" transform="matrix(0.46666693,0,0,0.46666693,171.66658,594.02886)" color="#000000" fill="#ffffff" fill-opacity="1" fill-rule="nonzero" stroke="none" stroke-width="16" visibility="visible" display="inline" overflow="visible" enable-background="accumulate"/></g><path transform="matrix(1.0588235,0,0,1.0588235,605,557.36218)" d="M 85,42.5 C 85,65.972102 65.972102,85 42.5,85 19.027898,85 0,65.972102 0,42.5 0,19.027898 19.027898,0 42.5,0 65.972102,0 85,19.027898 85,42.5 z" id="path16825" style="marker:none" color="#000000" fill="#7092ff" fill-opacity="1" fill-rule="nonzero" stroke="none" stroke-width="0.99999994" visibility="visible" display="inline" overflow="visible" enable-background="accumulate"/><text xml:space="preserve" style="text-indent:0;text-align:start;line-height:125%;text-transform:none;block-progression:tb;marker:none;-inkscape-font-specification:Helvetica Neue Bold" x="633.32" y="624.292" id="text16827" font-size="60px" font-style="normal" font-variant="normal" font-weight="bold" font-stretch="normal" text-decoration="none" letter-spacing="0px" word-spacing="0px" direction="ltr" writing-mode="lr-tb" text-anchor="start" baseline-shift="baseline" color="#000000" fill="#ffffff" fill-opacity="1" fill-rule="nonzero" stroke="none" stroke-width="1" visibility="visible" display="inline" overflow="visible" enable-background="accumulate" font-family="Helvetica Neue"><tspan id="tspan16829" x="633.32" y="624.292">?</tspan></text><rect style="marker:none" id="rect3053" width="10" height="15" x="415" y="597.362" rx="3" ry="2.25" color="#000000" fill="#ffffff" fill-opacity="1" fill-rule="nonzero" stroke="none" stroke-width="1" visibility="visible" display="inline" overflow="visible" enable-background="accumulate"/><path transform="matrix(1.0588235,0,0,1.0588235,705,557.36218)" d="m 85,42.5 a 42.5,42.5 0 1 1 -85,0 42.5,42.5 0 1 1 85,0 z" id="path16825-7" style="marker:none" color="#000000" fill="#7092ff" fill-opacity="1" fill-rule="nonzero" stroke="none" stroke-width="0.99999994" visibility="visible" display="inline" overflow="visible" enable-background="accumulate"/><text xml:space="preserve" style="line-height:125%" x="736.805" y="614.784" id="text3795" font-size="48px" font-style="normal" font-weight="normal" letter-spacing="0px" word-spacing="0px" fill="#000000" fill-opacity="1" stroke="#ffffff" font-family="Sans" stroke-opacity="1"><tspan id="tspan3797" x="736.805" y="614.784" style="-inkscape-font-specification:Sans" font-weight="normal" fill="#ffffff" fill-opacity="1" stroke="#ffffff" stroke-opacity="1">ยง</tspan></text></g></svg>