<svg xmlns="http://www.w3.org/2000/svg" xmlns:xlink="http://www.w3.org/1999/xlink" width="1000" height="500">
  <g transform="translate(0 -552.362)">
    <g fill="#70cd8f">
      <path d="M-153 412.862v-2l10-4h2v2l-4 10h-2v-6z" filter="url(#filter6591-2)"/>
      <use xlink:href="#B"/>
    </g>
    <use xlink:href="#B" x="100" fill="#cd7070"/>
    <path d="M135 582.362h-2l-3 3v2l15 15-15 15v2l3 3h2l15-15 15 15h2l3-3v-2l-15-15 15-15v-2l-3-3h-2l-15 15zm130 20c0 8.284-6.716 15-15 15s-15-6.716-15-15 6.716-15 15-15 15 6.716 15 15z" fill="#fff"/>
    <g fill="#7092ff">
      <path d="M519.728 582.914l19.834-15.219L580 617.362l-19.834 15.219z" opacity=".5"/>
      <path d="M510.597 571.013l19.834-15.219 6.088 7.934-19.834 15.219zm52.613 65.535l19.834-15.219 1.198 17.988-3.967 3.044z"/>
    </g>
    <path d="M425 639.362l-20-20v-29l20-20h68l2 2v65l-2 2zm-45.698-82a15.7 15.7 0 0 0-15.698 15.698c0 1.581.284 3.074.719 4.513l-39.113 39.113c-1.44-.435-2.932-.719-4.513-.719A15.7 15.7 0 0 0 305 631.665a15.7 15.7 0 0 0 15.698 15.698 15.7 15.7 0 0 0 15.698-15.698c0-1.581-.284-3.074-.719-4.513l39.113-39.113c1.44.435 2.932.719 4.513.719A15.7 15.7 0 0 0 395 573.06a15.7 15.7 0 0 0-15.698-15.698zM250 557.362c-20.71 0-37.5 16.789-37.5 37.5s37.5 52.5 37.5 52.5 37.5-31.789 37.5-52.5-16.789-37.5-37.5-37.5z" fill="#7092ff"/>
    <path d="M31 598.362h-2l-3 3v2l14 14 5 5 5-5 25-25v-2l-3-3h-2l-25 25z" fill="#fff"/>
    <circle cx="251.172" cy="594.862" r="15" fill="#fff"/>
    <circle cx="321" cy="631.362" r="7" fill="#fff"/>
    <circle cx="380" cy="573.362" r="7" fill="#fff"/>
    <use xlink:href="#B" x="600" fill="#7092ff"/>
    <g fill="#fff">
      <path d="M644.42 607.312q0-3 1.26-5.04 1.26-2.04 4.32-4.26 2.7-1.92 3.84-3.3 1.2-1.44 1.2-3.36 0-1.92-1.44-2.88-1.38-1.02-3.9-1.02-2.52 0-4.98.78-2.46.78-5.04 2.1l-3.18-6.42q2.94-1.62 6.36-2.64 3.42-1.02 7.5-1.02 6.24 0 9.66 3 3.48 3 3.48 7.62 0 2.46-.78 4.26-.78 1.8-2.34 3.36-1.56 1.5-3.9 3.24-1.74 1.26-2.7 2.16-.96.9-1.32 1.74-.3.84-.3 2.1v1.74h-7.74zm-.96 12.18q0-2.76 1.5-3.84 1.5-1.14 3.66-1.14 2.1 0 3.6 1.14 1.5 1.08 1.5 3.84 0 2.64-1.5 3.84-1.5 1.14-3.6 1.14-2.16 0-3.66-1.14-1.5-1.2-1.5-3.84z"/>
      <rect width="10" height="15" x="415" y="597.362" rx="3" ry="2.25"/>
    </g>
    <use xlink:href="#B" x="700" fill="#7092ff"/>
    <path d="M741.072 601.642q0-2.4 1.152-3.84 1.152-1.488 2.64-2.208-1.728-.96-2.688-2.256-.96-1.344-.96-3.264 0-2.88 2.448-4.512 2.448-1.68 7.008-1.68 2.688 0 4.56.48 1.872.432 3.648 1.152l-1.296 3.216q-1.632-.672-3.264-1.104-1.632-.48-3.936-.48-2.88 0-4.08.768-1.152.72-1.152 2.064 0 1.344 1.344 2.304 1.344.912 4.992 2.256 3.696 1.344 5.76 3.072 2.064 1.728 2.064 4.608 0 2.448-1.104 4.032-1.104 1.536-2.496 2.352 1.68.912 2.592 2.208.96 1.248.96 3.072 0 3.312-2.784 5.136-2.736 1.824-7.68 1.824-2.64 0-4.608-.384-1.968-.432-3.504-1.2v-3.6q1.536.72 3.792 1.344 2.256.624 4.512.624 3.552 0 4.896-1.008 1.344-1.056 1.344-2.4 0-.912-.48-1.584-.432-.672-1.776-1.392-1.296-.768-3.936-1.728-2.496-.96-4.32-1.968-1.776-1.008-2.736-2.4-.912-1.392-.912-3.504zm3.6-.48q0 1.776 1.488 3.024 1.536 1.2 5.376 2.64l1.056.384q1.104-.672 2.064-1.68 1.008-1.056 1.008-2.688 0-1.2-.672-2.16-.624-.96-2.256-1.824-1.632-.912-4.608-1.824-1.344.336-2.4 1.44-1.056 1.104-1.056 2.688z" fill="#fff" stroke="#fff"/>
  </g>
  <defs>
    <path id="B" d="M95 602.362c0 24.853-20.147 45-45 45s-45-20.147-45-45 20.147-45 45-45 45 20.147 45 45z"/>
  </defs>
</svg>
