<svg xmlns="http://www.w3.org/2000/svg" width="36" height="36" viewBox="0 0 36 36"><defs><style>.a{fill:#fff;}.b{fill-rule:evenodd;}</style></defs><rect class="a" width="36" height="36"/><path class="b" d="M33,8.82a.47.47,0,0,1-.1.3.31.31,0,0,1-.22.13,2.81,2.81,0,0,0-1.62.63,5.89,5.89,0,0,0-1.29,2.06L23,27.28c0,.15-.17.22-.37.22a.41.41,0,0,1-.38-.22l-3.82-8-4.39,8a.41.41,0,0,1-.37.22.37.37,0,0,1-.39-.22L6.55,11.94a5.41,5.41,0,0,0-1.32-2,3.6,3.6,0,0,0-1.93-.7.27.27,0,0,1-.21-.12A.38.38,0,0,1,3,8.88c0-.25.07-.38.21-.38.6,0,1.22,0,1.87.08s1.18.08,1.71.08,1.19,0,1.93-.08,1.45-.08,2-.08c.14,0,.21.13.21.38s0,.37-.13.37a2.71,2.71,0,0,0-1.41.45,1.22,1.22,0,0,0-.51,1,2.11,2.11,0,0,0,.21.8L14.67,24l3.14-5.93-2.93-6.13a7.84,7.84,0,0,0-1.29-2.11,2.56,2.56,0,0,0-1.54-.58.24.24,0,0,1-.18-.12.44.44,0,0,1-.08-.25c0-.25.06-.38.18-.38a16.22,16.22,0,0,1,1.64.08,12.58,12.58,0,0,0,1.54.08,16.71,16.71,0,0,0,1.69-.08c.62-.05,1.22-.08,1.82-.08.14,0,.21.13.21.38s0,.37-.13.37c-1.19.08-1.79.42-1.79,1a3.21,3.21,0,0,0,.42,1.24l1.93,3.93,1.92-3.59a2.88,2.88,0,0,0,.41-1.28c0-.82-.6-1.26-1.79-1.31-.11,0-.16-.13-.16-.37a.48.48,0,0,1,.07-.26c.06-.08.11-.12.17-.12.42,0,.95,0,1.57.08s1.09.08,1.47.08.68,0,1.21-.07,1.25-.09,1.7-.09c.11,0,.16.11.16.32s-.1.43-.29.43a3.35,3.35,0,0,0-1.68.57,7.38,7.38,0,0,0-1.58,2.12l-2.56,4.75,3.47,7.07,5.12-11.92a3.2,3.2,0,0,0,.27-1.2c0-.87-.6-1.34-1.79-1.39-.11,0-.16-.13-.16-.37s.08-.38.24-.38c.44,0,.95,0,1.55.08A12.92,12.92,0,0,0,30,8.66a11.78,11.78,0,0,0,1.36-.08c.54-.05,1-.08,1.44-.08C32.94,8.5,33,8.61,33,8.82Z"/></svg>