<svg xmlns="http://www.w3.org/2000/svg" width="36" height="36" viewBox="0 0 36 36"><defs><style>.a{fill:#32373c;}.b{fill:#fff;}</style></defs><rect class="a" width="36" height="36"/><path class="b" d="M6,18a12,12,0,0,0,6.76,10.8L7,13.12A11.89,11.89,0,0,0,6,18Zm20.09-.6a6.38,6.38,0,0,0-1-3.32,5.48,5.48,0,0,1-1.21-2.8,2.08,2.08,0,0,1,2-2.13h.16A12,12,0,0,0,9.16,9.9,12.18,12.18,0,0,0,8,11.41h.76c1.26,0,3.2-.16,3.2-.16a.49.49,0,0,1,.39.59.48.48,0,0,1-.32.37s-.65.08-1.37.12l4.37,13,2.63-7.88-1.88-5.11a7.37,7.37,0,0,1-1.25-.12.5.5,0,0,1-.3-.64.52.52,0,0,1,.38-.32s2,.16,3.15.16,3.2-.13,3.2-.13a.5.5,0,0,1,.39.59.48.48,0,0,1-.32.37s-.64.08-1.37.12L24,25.26l1.23-3.93A14,14,0,0,0,26.1,17.4Zm-7.89,1.65-3.6,10.47a12,12,0,0,0,7.37-.2l-.09-.16Zm10.34-6.81a10.32,10.32,0,0,1,.08,1.24,11.35,11.35,0,0,1-.91,4.3L24.05,28.34A12,12,0,0,0,28.55,12.24Z"/><path class="b" d="M32.49,18A14.49,14.49,0,1,1,18,3.51,14.49,14.49,0,0,1,32.49,18ZM18,4.38A13.62,13.62,0,1,0,31.62,18h0A13.62,13.62,0,0,0,18,4.38Z"/></svg>