<svg xmlns="http://www.w3.org/2000/svg" id="icon" width="14" height="14" viewBox="0 0 14 14">
  <path d="M 7.7613518,9.6777548 Q 7.2808871,10.223493 6.6821541,10.558212 6.090813,10.885655 5.4920802,10.885655 q -0.6578671,0 -1.2787752,-0.378379 Q 3.5923967,10.128898 3.2006332,9.3430354 2.8162615,8.5571727 2.8162615,7.6185033 q 0,-1.1569647 0.5987329,-2.3139293 Q 4.021119,4.1403329 4.9155225,3.5582124 5.809926,2.9760918 6.6525871,2.9760918 q 0.6430835,0 1.2270328,0.3347193 0.5839494,0.3274428 1.00528,1.0041579 l 0.25132,-1.1278585 H 10.459346 L 9.3949316,8.0696467 q -0.2217529,1.018711 -0.2217529,1.1278586 0,0.1964656 0.1478353,0.3419958 0.155227,0.1382537 0.3695882,0.1382537 0.3917628,0 1.0274558,-0.443867 0.84266,-0.5821205 1.330517,-1.5571725 0.495248,-0.9823285 0.495248,-2.022869 0,-1.2151766 -0.635692,-2.2702701 Q 11.279832,2.3284826 10.023232,1.6954265 8.7740234,1.0623704 7.2587118,1.0623704 q -1.7296729,0 -3.1636751,0.8004158 -1.4266104,0.7931393 -2.2175292,2.2848232 -0.7835271,1.4844074 -0.7835271,3.18711 0,1.7827443 0.7835271,3.0706866 0.7909188,1.287941 2.2766633,1.899168 1.4931364,0.618503 3.3041186,0.618503 1.9366422,0 3.2449846,-0.640333 1.308342,-0.640332 1.958818,-1.557172 H 14 q -0.376979,0.764033 -1.293558,1.557172 -0.916579,0.793139 -2.18057,1.251559 Q 9.2618798,14 7.4804647,14 5.8394931,14 4.4498414,13.585239 3.0675815,13.170478 2.0918686,12.333679 1.1161557,11.504158 0.62090754,10.419958 -6.5049796e-7,9.0446986 -6.5049796e-7,7.4511436 -6.5049796e-7,5.6756759 0.73917577,4.0675678 1.640971,2.0956344 3.2967261,1.0478174 4.9598731,4.0565056e-7 7.3252376,4.0565056e-7 q 1.8331576,0 3.2893354,0.74220371434944 1.463569,0.73492728 2.306231,2.19750508 0.717,1.2588358 0.717,2.7359667 0,2.110187 -1.50792,3.7474011 -1.345301,1.469854 -2.9419218,1.469854 -0.5100317,0 -0.8278776,-0.152807 Q 8.0496305,10.587318 7.9017952,10.303535 7.8057023,10.121622 7.7613518,9.6777548 Z M 4.1837378,7.7058213 q 0,0.9968815 0.4804647,1.5498961 0.4804647,0.5530145 1.1013729,0.5530145 0.4139388,0 0.8722282,-0.2401247 Q 7.0960929,9.3212059 7.5100318,8.8409564 7.9313623,8.3607069 8.1974658,7.6257798 8.4635693,6.8835761 8.4635693,6.1413723 q 0,-0.9896049 -0.50264,-1.535343 -0.4952481,-0.545738 -1.2122493,-0.545738 -0.4730729,0 -0.8944034,0.2401247 Q 5.4403378,4.5332643 5.0485743,5.0571728 4.6568108,5.5810813 4.4202743,6.3305615 4.1837378,7.0800417 4.1837378,7.7058213 Z"/>
</svg>
