<svg xmlns="http://www.w3.org/2000/svg" id="icon" width="14" height="14" viewBox="0 0 14 14">
<path d="M 7 0.4375 C 3.375 0.4375 0.4375 3.375 0.4375 7 C 0.4375 10.625 3.375 13.5625 7 13.5625 C 10.625 13.5625 13.5625 10.625 13.5625 7 C 13.5625 3.375 10.625 0.4375 7 0.4375 Z M 7 1.3125 C 10.140625 1.3125 12.6875 3.859375 12.6875 7 C 12.6875 10.140625 10.140625 12.6875 7 12.6875 C 3.859375 12.6875 1.3125 10.140625 1.3125 7 C 1.3125 3.859375 3.859375 1.3125 7 1.3125 Z M 4.375 2.625 L 3.71875 3.28125 L 3.71875 10.71875 L 4.375 11.375 L 5.25 11.375 L 5.25 7.875 L 8.75 7.875 L 8.75 11.375 L 9.625 11.375 L 10.28125 10.71875 L 10.28125 3.28125 L 9.625 2.625 L 8.75 2.625 L 8.75 6.125 L 5.25 6.125 L 5.25 2.625 Z M 4.375 2.625 "/>
</svg>
