<svg xmlns="http://www.w3.org/2000/svg" id="icon" width="14" height="14" viewBox="0 0 14 14">
  <path d="M 0,0 C 0,1 0,2 0,3 H 1 V 1 h 12 v 2 h 1 V 0 C 9.3333333,0 4.6666667,0 0,0 Z m 2,2 v 10 l -1,2 c 4,0 8,0 12,0 L 12,12 V 2 C 8.6666667,2 5.3333333,2 2,2 Z m 1,1 h 8 V 4 H 3 Z m 0,2 h 8 c 0,2.5 0,5 0,7.5 0,0.277 -0.223,0.5 -0.5,0.5 h -7 C 3.223,13 3,12.777 3,12.5 3,10 3,7.5 3,5 Z M 7,6 C 7,7 6.7426357,7.5622251 6,8 5.4460001,8 5,8.4460001 5,9 5,9.5539999 5.4460001,10 6,10 H 5 c -0.554,0 -1,0.446 -1,1 0,0.554 0.446,1 1,1 h 4 c 0.554,0 1,-0.446 1,-1 0,-0.554 -0.446,-1 -1,-1 H 8 C 8.5539999,10 9,9.5539999 9,9 9,8.4460001 8.5539999,8 8,8 8.000334,7 7.7168863,6.4764131 7,6 Z"/>
</svg>
