<svg xmlns="http://www.w3.org/2000/svg" id="icon" width="14" height="14" viewBox="0 0 14 14">
  <path d="M 3.8671777,1.0634361 C 3.2272339,1.1084121 2.6197181,1.4636089 2.2734031,2.0634145 L 0.27344635,5.532158 C -0.2805518,6.4917336 0.03263971,7.6967117 0.99219263,8.2508989 L 4.4609362,10.250856 c 0.1411074,0.08088 0.2881145,0.174525 0.4374764,0.218745 V 6.969677 c 0,-1.6446466 1.3552885,-2.9999351 2.9999351,-2.9999351 H 9.117121 C 8.9518853,3.7233151 8.7361858,3.5037681 8.4608875,3.3447648 L 4.992144,1.344808 C 4.6323135,1.1369435 4.2511365,1.036734 3.8671777,1.0635646 Z M 4.1718616,1.7723935 C 4.7329274,1.7777452 5.2216537,2.1562766 5.3671264,2.6981426 5.5460741,3.3647319 5.1508827,4.0502186 4.4843501,4.229291 3.8177609,4.4082387 3.1322741,4.0130473 2.9532017,3.3465147 2.7742541,2.6799255 3.1694455,1.9944387 3.835978,1.8153663 3.9454851,1.7858712 4.0585033,1.7714146 4.1719108,1.7723973 Z M 2.0508099,5.446099 C 2.6124048,5.4516926 3.1012823,5.8311538 3.2460747,6.3738134 3.4236391,7.0403649 3.027688,7.7247934 2.3613331,7.9030721 1.6953863,8.0807763 1.0112602,7.6858457 0.83207439,7.0202958 0.65312671,6.3537065 1.0483181,5.6682198 1.7148507,5.4891474 1.8243577,5.4596674 1.9373759,5.4451954 2.0507834,5.4461784 Z M 7.8983855,4.969656 c -1.1079585,0 -1.9999568,0.8919605 -1.9999568,1.9999568 v 3.9998382 c 0,1.107958 0.8919605,1.999957 1.9999568,1.999957 h 3.9998375 c 1.107959,0 1.999957,-0.891961 1.999957,-1.999957 V 6.9696128 c 0,-1.1079585 -0.89196,-1.9999568 -1.999957,-1.9999568 z M 11.898223,5.7196587 A 1.2499541,1.2499541 0 0 1 13.148178,6.9696128 1.2499541,1.2499541 0 0 1 11.898223,8.2195669 1.2499541,1.2499541 0 0 1 10.648269,6.9696128 1.2499541,1.2499541 0 0 1 11.898223,5.7196587 Z M 7.8983855,9.7194967 A 1.2499541,1.2499541 0 0 1 9.1483396,10.969451 1.2499541,1.2499541 0 0 1 7.8983855,12.219405 1.2499541,1.2499541 0 0 1 6.6484314,10.969451 1.2499541,1.2499541 0 0 1 7.8983855,9.7194967 Z"/>
</svg>
