<svg width="12" height="12" version="1.1" viewBox="0 0 12 12" id="icon" xmlns="http://www.w3.org/2000/svg">
 <path d="m1,7 c-0.98818,0.98818 -1.44,2.5736 -0.45127,3.553 l0.45127,0.44703 3,-3 v-1.5 l2.5,-2.5 h1.5 l3,-3 -0.51059,-0.48729 c-0.97553,-0.93101 -2.5086,-0.49348 -3.4894,0.48729 z m0.54515,4.5376 0.33879,0.35289 s0.85017,0.07591 1.2889,-0.35617 l1.3937,-1.3725 c0.38187,-0.40198 0.30732,-1.3046 0.30732,-1.3046 l-0.33879,-0.35289 z m7.0079,-7.0172 0.33879,0.35289 s0.85017,0.07591 1.2889,-0.35617 l1.3937,-1.3725 c0.38187,-0.40198 0.30732,-1.3046 0.30732,-1.3046 l-0.33879,-0.35289 z"/>
</svg>
