<svg xmlns="http://www.w3.org/2000/svg" id="icon" width="14" height="14" viewBox="0 0 14 14">
  <path d="m1.0586 9.998c-0.03552 0.16696-0.053837 0.33712-0.054688 0.50781 9.901e-4 1.3405 1.0591 2.4416 2.3984 2.4961v0.99805l2.5977-1.5-2.5977-1.5v1c-0.78627-0.05336-1.3972-0.70606-1.3984-1.4941 4.082e-4 -0.17319 0.030805-0.345 0.089844-0.50781z"/>
  <path d="m12.07 5c-0.79765 0-1.5275 0.1732-2.1895 0.52148-1.0731 0.56201-1.5826 1.2435-1.9922 2.4785h-0.7168l-0.17188 1h0.80859c2.362e-4 0.33875-0.015931 0.65968 0.011719 1h-0.64844l-0.17188 1h0.94336c0.094567 0.42744 0.1028 0.49413 0.23438 0.79492 0.65374 1.4881 2.0146 2.2051 3.873 2.2051 0.62085 0 1.1892-0.1142 1.7031-0.34375v-1.2227c-0.43172 0.38786-1.0319 0.58008-1.8008 0.58008-0.55096 0-1.0643-0.13512-1.5371-0.4082-0.65786-0.37995-1.0715-0.69914-1.2441-1.6055h3.668l0.17383-1h-3.9727c-0.00279-0.33314-0.012641-0.6668 0-1h4.1387l0.16602-1h-4.2051c0.041116-0.32454 0.099828-0.39961 0.33008-0.75977 0.22614-0.34828 0.55635-0.58346 0.83594-0.77344 0.46872-0.32058 1.0475-0.48047 1.7383-0.48047 0.6373 0 1.2074 0.19987 1.709 0.59961l0.24609-1.1055c-0.52217-0.32058-1.1649-0.48047-1.9297-0.48047z"/>
  <path d="m10.598 0-2.5977 1.5 2.5977 1.5v-1.002c0.78627 0.053358 1.3972 0.70606 1.3984 1.4941-4.08e-4 0.17319-0.030804 0.345-0.089844 0.50781h1.0352c0.03552-0.16696 0.05384-0.33712 0.05469-0.50781-9.92e-4 -1.3405-1.0591-2.4416-2.3984-2.4961z"/>
  <path d="m3 0v1.0293c-0.42067 0.029208-0.82096 0.086442-1.1816 0.20117-0.48386 0.15391-0.85354 0.38109-1.1055 0.67969-0.25193 0.29551-0.37695 0.61339-0.37695 0.95508 0 0.31091 0.1027 0.59328 0.30664 0.8457 0.20794 0.24934 0.52153 0.45765 0.94141 0.62695 0.27973 0.11431 0.77542 0.23715 1.416 0.36523v2.4453c-0.23113-0.033071-0.44941-0.082571-0.6543-0.15039-0.39989-0.13544-0.69673-0.31186-0.88867-0.52734-0.18795-0.21856-0.30739-0.49537-0.35938-0.83398l-1.0977 0.072266c0.015995 0.45251 0.17656 0.86054 0.48047 1.2207 0.30791 0.35708 0.72978 0.62419 1.2656 0.80273 0.3559 0.1177 0.78677 0.18255 1.2539 0.22266v1.0449h1v-1.0195c0.5239-0.021235 1.012-0.093395 1.4414-0.24414 0.50386-0.17854 0.88833-0.42512 1.1562-0.74219 0.26792-0.32014 0.40234-0.66133 0.40234-1.0215 0-0.36324-0.1213-0.68389-0.36523-0.96094-0.24393-0.28012-0.62291-0.50979-1.1348-0.69141-0.286-0.10007-0.82043-0.21724-1.5-0.34375v-2.1387c0.4092 0.045257 0.76461 0.12473 1.0078 0.2793 0.3479 0.21856 0.5533 0.54282 0.61328 0.9707l1.1152-0.066406c-0.019994-0.3971-0.16372-0.75242-0.43164-1.0664-0.26792-0.31398-0.65249-0.55087-1.1523-0.71094-0.34236-0.11264-0.73564-0.17216-1.1523-0.20703v-1.0371zm0 1.8281v1.9434c-0.58505-0.12453-1.0311-0.24603-1.2012-0.36523-0.22793-0.15699-0.3418-0.35838-0.3418-0.60156 0-0.28012 0.16056-0.51783 0.48047-0.71484 0.23896-0.14761 0.61679-0.223 1.0625-0.26172zm1 3.0859c0.29468 0.060768 0.71815 0.13946 0.8457 0.17773 0.36789 0.10774 0.63301 0.24032 0.79297 0.40039 0.15995 0.15699 0.24023 0.34229 0.24023 0.55469 1e-7 0.20932-0.084001 0.40349-0.25195 0.58203-0.16395 0.17546-0.41596 0.31443-0.75586 0.41602-0.2573 0.076897-0.55422 0.11413-0.87109 0.13281z"/>
</svg>
