<svg xmlns="http://www.w3.org/2000/svg" id="icon" width="14" height="14" viewBox="0 0 14 14">
  <path d="m1.4 0c-.775 0-1.4.625-1.4 1.4v11.2c0 .775.625 1.4 1.4 1.4h11.2c.775 0 1.4-.625 1.4-1.4v-11.2c0-.775-.625-1.4-1.4-1.4zm5.6.463c1.205.009 2.84.351 3.521.635.692.288 1.151.574 1.295 1.295l.52 3.994v5.502h-.895v.861c0 1.052-1.539 1.052-1.539 0v-.861h-2.955-.008-2.843v.861c0 1.052-1.537 1.052-1.537 0v-.861h-.895v-5.502l.52-3.994c.144-.721.603-1.007 1.295-1.295.681-.284 2.316-.626 3.521-.635zm-2.195 1.008c-.432 0-.432.648 0 .648h2.138 2.252c.432 0 .432-.648 0-.648h-2.248zm-1.166 1.302c-.457 0-.576.235-.631.586l-.403 2.897c-.037.277.043.551.426.551h3.916 4.022c.383 0 .463-.274.426-.551l-.403-2.897c-.055-.351-.176-.586-.633-.586h-3.416zm-.311 5.915c-.408 0-.738.33-.738.738s.33.736.738.736.738-.328.738-.736-.33-.738-.738-.738zm7.344 0c-.408 0-.738.33-.738.738s.33.736.738.736.738-.328.738-.736-.33-.738-.738-.738z"/>
</svg>
