<svg xmlns="http://www.w3.org/2000/svg" id="icon" width="14" height="14" viewBox="0 0 14 14">
  <path d="M 2,1 C 0.8344723,1 0,1.7955215 0,3 L 0,14 7,14 7,6.125 C 7,6.125 7.875,6 7.875,7 l 0,4 c 0,2 1.864698,2.125 2.125,2.125 0.275652,0 2.125,-0.124975 2.125,-2.125 l 0,-4 c 0,0 1.387558,0.017377 1.375,-2.96875 l -0.75,0 0,-2 C 12.75,1.4640917 12,1.4675079 12,2 l 0,2 -1,0 0,-2 C 11,1.4538157 10.25,1.4548128 10.25,2 l 0,2 -0.75,0 c 0.01252,2.9863904 1.375,3 1.375,3 l 0,4 c 0,0.874159 -0.767136,0.875 -0.875,0.875 -0.107864,0 -0.875,-0.04279 -0.875,-0.875 l 0,-4 C 9.125,5.7190916 8,4.875 7,4.875 L 7,3 C 7,1.7775442 6.1835046,1 5,1 Z m 0.96875,2 2.75,0 L 4,5.6666667 l 2.0625,0 L 2.28125,11 1.59375,11 2.96875,7 1.25,7 Z"/>
</svg>
