<svg xmlns="http://www.w3.org/2000/svg" id="icon" width="14" height="14" viewBox="0 0 14 14"><circle cx="7.074" cy="2.489" r="1.766"/><path d="m8.649 4.745c-.031-.001-.183-.008-.212-.002-.006 0-.011 0-.017 0h-2.702c-.071 0-.276-.014-.338.004-.164-.017-.219.09-.363.255l-2.15 2.473c-.206.237-.23.551-.055.703l.22.191c.176.153.483.085.689-.152l1.43-1.646v1.071c0 .232.253.419.567.419h2.702c.314.001.567-.186.567-.419v-.935l1.284 1.477c.206.237.513.305.688.153l.22-.191c.175-.153.15-.466-.056-.703l-2.069-2.393c-.129-.148-.254-.301-.405-.305z"/><path d="m8.937 8.906c-.151-.005-.323.068-.46.209l-.574.592c-.218.226-.26.537-.093.699l.792.768-1.115 1.124c-.221.223-.266.534-.101.698l.251.249c.165.164.476.116.697-.107l1.395-1.407c.05-.031.099-.07.143-.116l.574-.592c.219-.226.26-.537.094-.699l-1.367-1.324c-.063-.061-.145-.091-.236-.094z"/><path d="m5.202 8.906c.151-.005.323.068.46.209l.574.592c.219.226.26.537.093.699l-.792.768 1.115 1.124c.221.223.266.534.101.698l-.251.249c-.165.164-.476.116-.697-.107l-1.395-1.407c-.05-.031-.099-.07-.143-.116l-.574-.591c-.218-.226-.26-.538-.093-.699l1.366-1.325c.063-.061.146-.091.236-.094z"/></svg>
