<svg xmlns="http://www.w3.org/2000/svg" id="icon" width="14" height="14" viewBox="0 0 14 14">
  <rect width="14" height="14" rx="1.4" fill="#0092da"/>
  <path d="m 7.0000055,0.4619362 c -1.205409,0.00954 -2.839825,0.350732 -3.521484,0.6347656 -0.691424,0.288102 -1.150891,0.574682 -1.294922,1.294922 l -0.519531,3.994141 v 5.5019532 h 0.894531 v 0.861328 c 0,1.052024 1.537109,1.052024 1.537109,0 v -0.861328 h 2.84375 0.0078 2.955079 v 0.861328 c 0,1.052024 1.5390625,1.052024 1.5390625,0 v -0.861328 h 0.894532 V 6.3857648 l -0.51953,-3.994141 C 11.672344,1.6713838 11.21292,1.3848038 10.521489,1.0967018 9.8397675,0.8126426 8.2054405,0.4714262 7.0000055,0.4619362 Z m -2.195312,1.0078126 h 2.142578 2.248047 c 0.432157,6e-6 0.432157,0.648437 0,0.648437 h -2.251953 -2.138672 c -0.432157,0 -0.432157,-0.648437 0,-0.648437 z m -1.166016,1.302734 h 3.304688 3.4160155 c 0.456506,0 0.577387,0.23408 0.632812,0.585938 l 0.402343,2.896484 c 0.03761,0.277582 -0.04227,0.550781 -0.425781,0.550781 H 6.9472715 3.0312555 c -0.383494,0 -0.463418,-0.273199 -0.425781,-0.550781 l 0.402344,-2.896484 c 0.05542,-0.351858 0.174355,-0.585938 0.630859,-0.585938 z m -0.310547,5.914063 c 0.40781,0 0.738281,0.330461 0.738281,0.738281 1e-6,0.407828 -0.330471,0.7363282 -0.738281,0.7363282 -0.407815,0 -0.738281,-0.3285002 -0.738281,-0.7363282 0,-0.40782 0.330466,-0.738281 0.738281,-0.738281 z m 7.3437505,0 c 0.407808,0 0.738281,0.330461 0.738281,0.738281 0,0.407828 -0.330473,0.7363282 -0.738281,0.7363282 -0.407815,0 -0.7382815,-0.3285002 -0.7382815,-0.7363282 0,-0.40782 0.3304665,-0.738281 0.7382815,-0.738281 z" fill="#ffffff"/>
</svg>
