<svg xmlns="http://www.w3.org/2000/svg" id="icon" width="14" height="14" viewBox="0 0 14 14">
  <path d="m 9.515,0.365 c -0.483,0 -0.874,0.38 -0.874,0.849 0,0.469 0.391,0.85 0.874,0.85 0.483,0 0.875,-0.381 0.874,-0.85 0,-0.469 -0.391,-0.849 -0.874,-0.849 z m 0,2.307 c -1.313,0 -1.313,0.583 -1.313,1.166 v 1.748 h 2.627 V 3.838 c 0,-0.583 0,-1.166 -1.313,-1.166 z M 4.538,0.365 c -0.483,0 -0.874,0.38 -0.874,0.849 0,0.469 0.391,0.85 0.874,0.85 0.483,0 0.875,-0.381 0.874,-0.85 0,-0.469 -0.391,-0.849 -0.874,-0.849 z m 0,2.307 c -1.313,0 -1.313,0.583 -1.313,1.166 V 5.586 H 5.851 V 3.838 c 0,-0.583 0,-1.166 -1.313,-1.166 z M 4,6 3,9 C 2.527,9 2,9.384 2,10 v 3 h 1 c 0,0 0,1 1,1 1,0 1,-1 1,-1 h 4 c 0,0 0,1 1,1 1,0 1,-1 1,-1 h 1 V 10 C 12,9.479 11.545,9 11,9 L 10,6 Z m 1,1 h 4 l 0.625,2 h -5.25 z m -1,3.25 c 0.414,0 0.75,0.336 0.75,0.75 0,0.414 -0.336,0.75 -0.75,0.75 -0.414,0 -0.75,-0.336 -0.75,-0.75 0,-0.414 0.336,-0.75 0.75,-0.75 z m 6,0 c 0.414,0 0.75,0.336 0.75,0.75 0,0.414 -0.336,0.75 -0.75,0.75 -0.414,0 -0.75,-0.336 -0.75,-0.75 0,-0.414 0.336,-0.75 0.75,-0.75 z" />
</svg>
