<svg xmlns="http://www.w3.org/2000/svg" id="icon" width="14" height="14" viewBox="0 0 14 14">
  <path d="M 7.0000175,2.8645328 1.6239134,5.759358 7.0000175,8.6541832 10.721936,6.7157255 V 9.662244 c 0,1.473218 1.24064,1.266445 1.24064,1.266445 v -0.62032 c 0,0 -0.646167,0 -0.646167,-0.646125 V 6.3796777 L 12.376081,5.759358 Z m -2.8948252,5.376104 v 1.188946 c 0,0.2967609 0.423943,0.6771412 0.8270929,0.8787862 l 2.0677323,0.827093 2.0677327,-0.827093 C 9.4709001,10.106724 9.8948432,9.7263437 9.8948432,9.4295828 V 8.2406368 L 7.0000175,9.4812761 Z"/>
  <path d="m 7.0000206,2.8645354 -5.376104,2.8948252 5.376104,2.8948252 3.7219184,-1.9384577 v 2.9465186 c 0,1.4732183 1.240639,1.2664443 1.240639,1.2664443 v -0.620319 c 0,0 -0.646166,0 -0.646166,-0.6461253 V 6.3796803 l 1.059671,-0.6203197 z m -2.8948252,5.376104 v 1.188946 c 0,0.296761 0.423943,0.6771406 0.8270929,0.8787866 l 2.0677323,0.827093 2.0677328,-0.827093 C 9.4709033,10.106726 9.8948461,9.7263464 9.8948461,9.4295854 V 8.2406394 L 7.0000206,9.4812787 Z"/>
</svg>
