<svg xmlns="http://www.w3.org/2000/svg" id="icon" width="14" height="14" viewBox="0 0 14 14">
  <path d="m6.933.466c-.125 0-.238.076-.285.191l-.958 2.316h-4.999v7.728h1.802l-.967 2.337c-.065.158.01.338.168.403s.338-.01.403-.167l1.064-2.573h7.544l1.065 2.574c.065.158.246.232.403.167s.232-.246.167-.403l-.967-2.337h1.808v-7.729h-5.005l-.958-2.316c-.048-.116-.16-.191-.285-.191zm0 1.115.575 1.392h-1.151zm-4.336 2.023c.273 0 .5.031.682.093s.326.151.434.266c.112.116.19.256.236.422.045.165.068.349.068.551v1.921c-.132.029-.316.062-.551.099-.236.041-.521.062-.855.062-.211 0-.403-.019-.576-.056-.171-.036-.318-.096-.442-.179-.124-.087-.219-.198-.285-.335-.066-.136-.099-.303-.099-.502 0-.19.038-.351.112-.484.078-.131.181-.237.309-.315.128-.079.275-.135.44-.168.165-.037.337-.056.514-.056.12 0 .225.006.316.019.095.008.171.02.229.037v-.087c0-.157-.047-.283-.142-.378s-.26-.142-.496-.142c-.157 0-.312.012-.465.037-.153.02-.285.052-.397.093l-.118-.743c.054-.017.12-.033.198-.05.082-.02.171-.037.266-.049.095-.017.194-.029.298-.037.107-.012.215-.019.322-.019zm9.113 0c.174 0 .332.017.477.05.144.029.285.072.422.13l-.192.738c-.087-.033-.182-.062-.285-.087s-.219-.037-.347-.037c-.273 0-.477.085-.614.254-.132.169-.198.392-.198.669 0 .293.062.521.186.682.128.161.349.242.663.242.112 0 .231-.01.359-.031.128-.02.246-.054.353-.099l.13.755c-.107.045-.241.085-.402.118s-.34.049-.533.049c-.298 0-.554-.043-.769-.13-.215-.091-.393-.213-.533-.365-.136-.153-.237-.333-.303-.54-.062-.21-.094-.437-.094-.681 0-.236.038-.457.112-.663.079-.211.19-.392.335-.545.144-.157.32-.281.527-.372.206-.091.442-.137.707-.137zm-4.806 1.833v1.624c.103-.045.211-.081.322-.105.112-.025.231-.037.359-.037.231 0 .436.041.613.124.178.079.326.192.447.341.12.149.211.328.273.539.062.206.093.438.093.694 0 .26-.039.496-.118.707-.074.211-.184.39-.328.539s-.322.264-.533.347c-.211.079-.45.118-.719.118-.112 0-.229-.006-.353-.019-.12-.008-.24-.021-.359-.037-.116-.017-.227-.035-.335-.056-.107-.025-.203-.05-.285-.074v-4.556zm-4.146.106c-.087 0-.169.006-.248.019-.074.008-.141.027-.198.056-.058.029-.103.068-.137.118-.033.05-.049.111-.049.186 0 .144.047.246.142.304.099.054.233.081.403.081.091 0 .178-.002.261-.006.082-.004.149-.01.198-.019v-.701c-.037-.008-.093-.017-.167-.025s-.142-.012-.204-.012zm4.654 2.155c-.095 0-.19.013-.285.037-.091.025-.165.056-.223.093v1.68c.045.008.103.017.174.025.07.004.146.006.229.006.252 0 .442-.087.57-.26.128-.174.192-.403.192-.688 0-.595-.219-.893-.657-.893z"/>
</svg>
