<svg xmlns="http://www.w3.org/2000/svg" id="icon" width="14" height="14" viewBox="0 0 14 14">
  <path d="M 3,0 3,1 4,1 C 4.5988688,1 4.8411383,2.0430706 4.9375,2.90625 3.9652283,2.1499026 3.0249855,1.8795933 2.21875,2.03125 1.1884439,2.2250555 0.5,3.1743045 0.5,4.25 c 0,0.8419164 0.31211643,1.5788561 0.84375,2.34375 0.464621,0.6684787 1.1198438,1.4400576 1.9375,2.375 C 3.6476993,10.327756 4.3223039,11.572304 5,12.25 L 5,13 4,13.5 4,14 10,14 10,13.5 9,13 9,12.25 c 0.6776961,-0.677696 1.352301,-1.922244 1.71875,-3.28125 0.817656,-0.9349424 1.472879,-1.7065213 1.9375,-2.375 C 13.187884,5.8288561 13.5,5.0919164 13.5,4.25 13.5,3.1743045 12.811556,2.2250555 11.78125,2.03125 10.975015,1.8795933 10.034772,2.1499026 9.0625,2.90625 9.1588617,2.0430706 9.4011312,1 10,1 L 11,1 11,0 3,0 z M 2.375,3.03125 c 0.5098367,-0.095903 1.3604039,0.1012462 2.34375,1 C 3.603741,4.1696287 3,5.1495633 3,7 3,7.0311958 2.9995172,7.0624382 3,7.09375 2.6594765,6.6981019 2.3761871,6.3476871 2.15625,6.03125 1.6878836,5.3573824 1.5,4.8627724 1.5,4.25 1.5,3.5496757 1.8109254,3.1373551 2.375,3.03125 z m 8.75,0 c 0.188111,-0.027114 0.358981,-0.026526 0.5,0 C 12.189075,3.1373551 12.5,3.5496757 12.5,4.25 12.5,4.8627724 12.312116,5.3573824 11.84375,6.03125 11.623813,6.3476871 11.340524,6.6981019 11,7.09375 11.000483,7.0624382 11,7.0311958 11,7 11,5.1495633 10.396259,4.1696287 9.28125,4.03125 c 0.7113567,-0.6501623 1.351767,-0.9290858 1.84375,-1 z"/>
</svg>
