<svg xmlns="http://www.w3.org/2000/svg" id="icon" width="20" height="20" viewBox="0 0 20 20">
  <path d="m3.0956 17.663 1.2291-8.0762 0.96362-0.57698 0.94261 0.59237s1.0687 8.1587 0.96838 8.1098c-0.10033-0.04893-4.0837 0.02447-4.1038-0.04893z" fill-opacity=".33333"/>
  <path d="m2.4462 6.1308c-0.052923 0.00317-0.10306 0.024801-0.14168 0.061119l-1.1196 1.0474c-0.099372 0.092638-0.09547 0.2513 0.00833 0.33893l3.2977 2.8198-3.2977 2.8226c-0.10381 0.08764-0.10771 0.24629-0.00833 0.33893l1.1196 1.0474c0.099888 0.09345 0.25916 0.07778 0.33893-0.03334l2.6393-3.5977 2.6393 3.5977c0.079709 0.1091 0.23657 0.12466 0.33616 0.03334l1.1196-1.0474c0.099372-0.09264 0.09547-0.2513-0.00834-0.33893l-3.2977-2.8226 3.2977-2.8198c0.10381-0.087641 0.10771-0.24629 0.0083353-0.33893l-1.1196-1.0474c-0.044255-0.041488-0.10329-0.063503-0.1639-0.061119-0.068786 0.00367-0.13217 0.03843-0.17224 0.094456l-2.6393 3.5977-2.6393-3.5977c-0.045202-0.063226-0.11965-0.098877-0.19724-0.094456zm2.8364 4.1311 0.14168 0.13613-0.14446 0.13891-0.14168-0.13613z"/>
  <path d="m13.578 5.4759c-1e-5 -0.35889-0.12958-0.6613-0.3887-0.90726-0.25915-0.24595-0.56815-0.36891-0.92704-0.36893-0.3585 1.12e-5 -0.66406 0.12299-0.91669 0.36893-0.25265 0.24596-0.37897 0.54839-0.37897 0.90726-7e-6 0.3585 0.12632 0.66072 0.37897 0.90667 0.25263 0.24596 0.55821 0.36894 0.91669 0.36893 0.35889 8.2e-6 0.6679-0.12297 0.92704-0.36893 0.25912-0.24595 0.38868-0.54816 0.3887-0.90667zm-3.4283 13.275c0.27899-3e-6 0.50488-0.13281 0.67763-0.39843l3.747-5.6412 0.19952 0.7774-0.55781 4.2258c-0.02678 0.21249 0.01966 0.40187 0.1393 0.56815 0.11962 0.16626 0.28569 0.26926 0.4982 0.30902 0.21289 0.03974 0.40897-0.0034 0.58822-0.12957 0.17922-0.12612 0.28223-0.29563 0.30902-0.50854l0.57788-4.325c0.01337-0.14639 1.37e-4 -0.29927-0.03954-0.45865l-1.2762-5.0829 3.3291-0.59795c0.17274-0.026351 0.31224-0.11597 0.4185-0.26886 0.10624-0.15288 0.14598-0.31569 0.11922-0.48845-0.039756-0.17275-0.13931-0.31894-0.29868-0.43858l-7.6541-5.0427-0.69772 1.0165c-0.17276 0.23928-0.13282 0.44528 0.11983 0.61802 0.23885 0.14601 0.44466 0.10606 0.61742-0.11983l0.39904-0.59795 6.2186 4.0866-5.0822 0.91669c-0.18615 0.039752-0.33569 0.13606-0.44861 0.28895-0.11295 0.15289-0.14285 0.31572-0.08972 0.48845l1.0961 4.2854-3.5877 5.3622c-0.066513 0.11923-0.099767 0.24534-0.099761 0.37836-5.6e-6 0.21249 0.076437 0.39518 0.22932 0.54808 0.15288 0.15288 0.33557 0.22932 0.54808 0.22932z"/>
</svg>
