<svg xmlns="http://www.w3.org/2000/svg" id="icon" width="14" height="14" viewBox="0 0 14 14">
<g stroke-width=".772198"><path d="m1.668 12.917.949-6.237.744-.445.728.457s.825 6.3.748 6.262-3.153.019-3.169-.038z" fill-opacity=".33333"/><path d="m1.167 4.012c-.041.002-.08.019-.109.047l-.865.809c-.077.072-.074.194.006.262l2.547 2.177-2.547 2.179c-.08.068-.083.19-.006.262l.864.809c.077.072.2.06.262-.026l2.038-2.778 2.038 2.778c.062.084.183.096.26.026l.864-.809c.077-.072.074-.194-.006-.262l-2.547-2.179 2.547-2.178c.08-.067.083-.19.006-.261l-.864-.809c-.034-.032-.08-.049-.127-.047-.053.003-.102.03-.133.073l-2.038 2.778-2.038-2.778c-.035-.049-.092-.077-.152-.073zm2.19 3.19.109.105-.111.107-.11-.105z"/><path d="m9.763 3.506c0-.277-.1-.511-.3-.701-.201-.19-.439-.285-.716-.285s-.513.095-.708.285-.293.423-.293.701c0 .277.098.51.293.7s.431.285.708.285.516-.095.716-.285.3-.423.3-.7zm-2.648 10.251c.215 0 .39-.103.523-.308l2.893-4.356.154.6-.431 3.263c-.021.164.015.31.108.439.092.128.221.208.385.239s.316-.003.454-.1.218-.228.239-.393l.446-3.34c.01-.113 0-.231-.031-.354l-.985-3.925 2.571-.462c.133-.02.241-.09.323-.208s.113-.244.092-.377c-.031-.133-.108-.246-.231-.339l-5.909-3.893-.539.785c-.134.185-.103.344.092.477.185.113.344.082.477-.092l.308-.462 4.802 3.156-3.924.707c-.144.031-.259.105-.347.224-.087.118-.11.243-.069.377l.846 3.309-2.77 4.141c-.051.092-.077.189-.077.292 0 .164.059.305.177.423s.259.177.423.177z"/></g></svg>
