<svg xmlns="http://www.w3.org/2000/svg" id="icon" width="14" height="14" viewBox="0 0 14 14">
<path d="m7.192.417-.526.765c-.13.18-.098.334.092.464.18.11.334.08.464-.09l.301-.449 4.686 3.074-3.829.69c-.14.03-.253.102-.339.217-.085.115-.107.236-.067.366l.826 3.225-2.705 4.034c-.05.09-.075.184-.075.284 0 .16.058.299.173.414s.254.171.414.171c.21 0 .38-.099.51-.299l2.824-4.244.15.585-.42 3.179c-.02.16.014.303.105.428.09.125.216.202.376.232s.308-.003.443-.098.212-.222.232-.382l.437-3.254c.01-.11-.002-.225-.031-.345l-.961-3.823 2.51-.451c.13-.02.236-.086.316-.201s.11-.238.09-.368c-.031-.13-.107-.24-.227-.33zm-6.385.301v.27 12.329h.847v-9.025l4.18-1.697-4.18-1.553v-.324zm7.391 1.917c-.27 0-.5.093-.69.278s-.286.413-.286.683.096.497.286.682.42.278.69.278.505-.093.7-.278.293-.412.293-.682-.098-.498-.293-.683-.43-.278-.7-.278z"/>
</svg>
