<svg xmlns="http://www.w3.org/2000/svg" id="icon" width="14" height="14" viewBox="0 0 14 14">
  <path d="m0.82924 10.095h3.3722l-0.44665 3.9051h-2.5459z"/>
  <path d="m1.3678 0.069465c-3.9978 2.6001 3.2253 3.0269-1.2178 6.1111l0.87772-0.01179c4.1676-3.2915-3.0949-3.5323 1.3044-6.1262z"/>
  <path d="m4.4017 0.070365c-3.9978 2.6001 3.2253 3.0269-1.2178 6.1111l0.87772-0.01179c4.1676-3.2915-3.0949-3.5323 1.3044-6.1262z"/>
  <circle cx="10.209" cy="2.2245" r="1.3921"/>
  <rect x="10.591" y="12.1" width="3.409" height=".7292"/>
  <path d="m 12.012084,4.5000232 1.948347,5.4212786 c 0.124144,0.3454322 -0.05394,0.7236182 -0.399293,0.8479502 -0.345352,0.124332 -0.723323,-0.05367 -0.847467,-0.399099 L 10.765324,4.9488743 c -0.124145,-0.3454327 0.05394,-0.7236185 0.399292,-0.8479503 0.345353,-0.1243317 0.723323,0.053667 0.847468,0.3990992 z m -2.6535202,5.0144122 3.9987192,0.00719 c 0.3563,6.409e-4 0.642957,0.2879967 0.642729,0.6442966 v 2e-5 c -2.28e-4,0.356299 -0.287252,0.642624 -0.643552,0.641983 l -3.9987191,-0.0072 C 9.0014412,10.800095 8.7147843,10.512738 8.7150121,10.156439 v -2e-5 C 8.7152403,9.8001198 9.002264,9.5137944 9.3585638,9.5144354 Z M 11.60604,4.9131212 10.35726,7.3715539 C 10.237924,7.6064871 9.953429,7.6981661 9.7193796,7.577116 9.4853291,7.4560631 9.3929781,7.1694754 9.5123143,6.9345424 L 10.761094,4.4761077 c 0.119336,-0.2349327 0.40383,-0.3266124 0.637881,-0.2055595 0.23405,0.1210529 0.326401,0.4076403 0.207065,0.642573 z M 7.076307,7.6922509 9.7187228,6.7883867 c 0.2522056,-0.08627 0.5250372,0.047198 0.6117292,0.299255 0.0867,0.2520547 -0.04655,0.5244277 -0.29876,0.6106975 L 7.3892755,8.6022015 C 7.1370564,8.6884338 6.8642382,8.555003 6.777546,8.3029468 6.6908493,8.0508913 6.8241008,7.7785191 7.0763065,7.6922497 Z M 6.3566408,12.803778 8.8589656,9.7803838 C 9.1022707,9.4864144 9.5167363,9.4656079 9.7882602,9.7337316 10.059784,10.001855 10.082502,10.454371 9.8391969,10.74834 L 7.336872,13.771735 c -0.2433051,0.293969 -0.6577707,0.314776 -0.9292945,0.04665 -0.2715239,-0.268124 -0.294242,-0.72064 -0.050937,-1.014609 z"/>
</svg>
