<svg xmlns="http://www.w3.org/2000/svg" id="icon" width="14.933333" height="14.933333" viewBox="0 0 14 14">
  <path d="M 8.5372267,1.2755905 A 1.2677165,1.2598426 0 0 0 9.8049431,2.5354332 1.2677165,1.2598426 0 0 0 11.07266,1.2755905 1.2677165,1.2598426 0 0 0 9.8049431,0.01574798 1.2677165,1.2598426 0 0 0 8.5372267,1.2755905 Z m -6.8521549,8.5590563 2.681077,0.6891092 c 0.1095105,0.02815 0.3520751,0.0033 0.4439037,-0.01932 0.2353372,-0.04563 0.3030067,-0.154948 0.3951006,-0.269256 L 6.4744703,8.1436871 8.0702194,9.8565596 7.4259242,13.059105 c -0.020606,0.06867 -0.030908,0.125809 -0.030908,0.171443 0,0.205576 0.06647,0.382584 0.1994435,0.531025 0.1329742,0.148441 0.2915382,0.222679 0.4757602,0.222679 0.3477057,0 0.5626041,-0.199862 0.6447278,-0.59955 L 9.4973678,9.4969405 C 9.589462,9.0857519 9.5485828,8.7831202 9.3746971,8.589009 L 7.9784575,7.0302906 9.4974007,5.0607914 10.479298,6.1568624 c 0.102364,0.1139368 0.22005,0.1709239 0.353057,0.1709239 0.173852,0 0.342553,-0.085555 0.506136,-0.256627 l 1.59575,-1.7813601 C 13.016,4.1754915 13.056846,4.0498678 13.056912,3.9129284 13.056828,3.7418565 13.003204,3.5991666 12.895788,3.4848589 12.788439,3.3705882 12.663076,3.3134163 12.519833,3.3134163 c -0.14331,0 -0.255844,0.045634 -0.337602,0.1369386 l -1.3195,1.4734604 -1.5957491,-1.781323 C 9.1443112,3.0051817 8.9868819,2.8964026 8.8067089,2.9365084 L 5.3328033,3.7097878 C 5.1825403,3.7432359 5.0725688,3.8848954 4.960201,4.0222057 L 4.1885612,5.3519223 c -0.1226707,0.1139369 -0.184056,0.2566264 -0.1840228,0.4280696 -2.45e-5,0.1599419 0.051082,0.2969925 0.1533468,0.4111144 0.1021978,0.1140852 0.2249683,0.1711462 0.3682777,0.1711462 0.1532472,0 0.2862541,-0.068488 0.3989206,-0.2054272 l 0.8959802,-1.50064 1.45563,-0.246662 L 4.2570354,9.0973169 1.7965727,8.3909191 c -0.1944583,0 -0.3718955,0.039275 -0.5049023,0.1763999 C 1.1587305,8.7044064 1.023622,8.8259892 1.023622,9.0427316 c 0,0.2055763 0.084747,0.3840352 0.2176873,0.5267625 0.1329734,0.1427266 0.2647139,0.2191324 0.4437625,0.2651527 z"/>
</svg>
