<svg xmlns="http://www.w3.org/2000/svg" id="icon" width="14" height="14" viewBox="0 0 14 14">
  <path id="water" d="M 4.1219331,13.626631 C 3.9041098,13.56795 3.7043745,13.480474 3.043201,13.154183 2.3936171,12.833614 2.1711099,12.749242 1.9125179,12.725438 c -0.2427544,-0.02235 -0.5196116,0.06876 -1.14937063,0.378208 -0.26989319,0.132619 -0.49218946,0.237405 -0.49399252,0.232857 -0.00182,-0.0045 7.8464e-4,-0.433243 0.005749,-0.952658 l 0.009006,-0.944389 0.38017662,-0.185017 c 1.15315213,-0.561185 1.19548523,-0.560485 2.43880113,0.04037 0.8838929,0.42716 1.0026169,0.470972 1.2795678,0.472194 0.2818461,0.0012 0.3448758,-0.02131 1.2435659,-0.444869 1.1260299,-0.530712 1.2555358,-0.561327 1.7184309,-0.406244 0.1552075,0.052 0.5768071,0.235762 0.936884,0.408357 0.8200156,0.39306 1.0515942,0.474216 1.2955255,0.454014 0.2646417,-0.0219 0.4915744,-0.108543 1.2724044,-0.485714 0.38696,-0.186918 0.802843,-0.369632 0.924181,-0.406031 0.388711,-0.116607 0.656592,-0.0544 1.492087,0.346521 L 13.7208,11.4515 13.7067,12.075507 c -0.01779,0.787184 -0.03672,1.241291 -0.05247,1.257018 -0.0067,0.0067 -0.233062,-0.09626 -0.502957,-0.228881 -0.537206,-0.263973 -0.887158,-0.389157 -1.087879,-0.389157 -0.214721,0 -0.504309,0.107863 -1.244075,0.463394 -0.38696,0.185971 -0.818081,0.374552 -0.9580454,0.419069 C 9.450256,13.727681 9.327195,13.699966 8.4391821,13.276656 7.1925745,12.682408 7.0230904,12.63995 6.5417987,12.80136 6.387424,12.853135 5.9563033,13.042152 5.5837526,13.221405 4.650768,13.670312 4.4700271,13.720414 4.1219083,13.626632 Z"/>
  <path id="umberella" d="M 6.016584,6.0236978 C 5.932851,5.9378471 3.6378765,6.9862878 2.6954763,7.54092 2.3320484,7.7548096 1.9622319,7.9298097 1.8736625,7.9298097 c -0.3712658,0 -0.5631356,-0.466656 -0.5631356,-1.369629 0,-1.2413424 0.4715626,-2.5062381 1.3248694,-3.5537599 C 2.9552391,2.6137791 3.8490947,1.901672 4.2094811,1.752395 4.4083272,1.6700224 4.427748,1.6355879 4.427748,1.3652619 c 0,-0.57579519 0.4995253,-0.77136879 0.8590791,-0.3363459 0.1844817,0.2232084 0.2021353,0.2293406 0.4962343,0.1723666 0.56587,-0.1096231 1.6331075,-0.075006 2.2084841,0.071633 1.423478,0.3627823 2.6680185,1.2677261 3.3659235,2.4474707 0.290568,0.4911787 0.304338,0.5856862 0.119537,0.8206211 C 11.360975,4.6885149 11.241145,4.7266698 10.579112,4.826878 9.3184207,5.0177079 7.1177258,5.5455436 7.0367873,5.6765064 7.7998478,8.049374 8.316546,9.5526837 9.1731183,11.887264 L 7.8557307,11.350409 C 7.1233116,9.1319033 6.7915691,8.1461674 6.016584,6.0236978 Z"/>
</svg>
