<svg xmlns="http://www.w3.org/2000/svg" id="icon" width="14" height="14" viewBox="0 0 14 14">
  <path d="m 8.7083337,0.54178023 c -0.1252548,0.009961 -0.2461931,0.0506323 -0.375,0.12499897 L 4.2916666,2.8334275 C 3.77896,3.0760921 3.5785334,3.8362857 3.9166666,4.2917486 L 5,6.0000675 0.3333334,8.6667117 0.375,9.5000379 c 0,0 0.6238766,-0.4999957 1.2916666,-0.4999957 0.6317149,0 1.8976382,0.9999918 2.6666668,0.9999918 0.6711521,0 1.9949321,-0.9999918 2.6666666,-0.9999918 0.6991169,0 1.9675497,0.9999918 2.666666,0.9999918 H 10.125 L 6.3333334,4.0000843 9.125,2.5417633 C 9.722322,2.1969018 9.915373,1.5975422 9.666666,1.166775 9.437251,0.76941954 9.084096,0.51189611 8.7083337,0.54178023 Z M 11,4.0000843 c -1.104574,0 -2,0.8954591 -2,1.9999832 0,1.104524 0.895426,1.9999831 2,1.9999831 1.104574,0 2,-0.8954591 2,-1.9999831 C 13,4.8955434 12.104574,4.0000843 11,4.0000843 Z M 1.6666666,11.000025 c -0.4285893,0 -1.06233914,0.362481 -1.64659015,0.650968 L 0.00386128,13.67779 C 0.61690291,13.385497 1.2737936,13.000008 1.6666666,13.000008 2.3389826,13.000008 3.6214694,14 4.3333334,14 4.967336,14 6.3230466,13.000008 7,13.000008 7.672316,13.000008 9.028974,14 9.666666,14 c 0.672317,0 2.0339,-0.999992 2.666668,-0.999992 0.396039,0 1.077576,0.391727 1.696931,0.68483 l 0.04637,-2.023556 c -0.602924,-0.299517 -1.304223,-0.685649 -1.743298,-0.661257 -0.637694,0 -1.953704,0.999992 -2.666668,0.999992 -0.593219,0 -1.99435,-0.999992 -2.666666,-0.999992 -0.672316,0 -2.0721294,0.999992 -2.6666666,0.999992 -0.6340028,0 -1.9548028,-0.999992 -2.6666668,-0.999992 z"/>
</svg>
