<svg xmlns="http://www.w3.org/2000/svg" id="icon" width="14" height="14" viewBox="0 0 14 14">
  <path d="M 0 0 L 0 5 A 3 3 0 0 0 3 8 A 3 3 0 0 0 6 5 L 6 3 L 4 5 L 5 5 A 2 2 0 0 1 3 7 A 2 2 0 0 1 1 5 L 1 0 L 0 0 z M 5.5 9 C 3.1428576 8.9999999 0.78571479 10.25 0 11.5 C 0.78571457 12.75 3.142857 14 5.5 14 C 7.8571441 14.000001 10.214284 12.75 11 11.5 C 10.214286 10.25 7.8571436 9.0000001 5.5 9 z M 11 11.5 L 14 14 L 14 9 L 11 11.5 z M 3 10 A 1 1 0 0 1 4 11 A 1 1 0 0 1 3 12 A 1 1 0 0 1 2 11 A 1 1 0 0 1 3 10 z"/>
</svg>
