<svg xmlns="http://www.w3.org/2000/svg" id="icon" width="20" height="20" viewBox="0 0 20 20">
  <path d="M 10.255722,1.25 9.5556113,2.2668282 C 9.3825471,2.5061111 9.4247604,2.7108452 9.6778523,2.8835927 9.9171215,3.0296005 10.121551,2.9900288 10.294617,2.7641298 L 10.694681,2.1668123 16.923447,6.2535722 11.83375,7.170384 c -0.186473,0.039757 -0.336941,0.1360572 -0.450071,0.2889348 -0.113146,0.1528975 -0.14213,0.3134364 -0.0889,0.4861884 l 1.097396,4.2867918 -3.5950144,5.361962 c -0.066629,0.11923 -0.1000208,0.244819 -0.1000151,0.377838 -5.6e-6,0.212502 0.077435,0.397196 0.230592,0.550087 0.1531469,0.152887 0.3372105,0.227811 0.5500874,0.227814 0.2794857,-3e-6 0.5048197,-0.131648 0.6778851,-0.397285 l 3.753373,-5.642563 0.200032,0.777901 -0.558422,4.225671 c -0.02682,0.212502 0.01906,0.403261 0.138911,0.569535 0.11983,0.16627 0.287197,0.268637 0.500079,0.308383 0.213264,0.03974 0.40941,-0.0044 0.588981,-0.130581 0.179546,-0.126128 0.281558,-0.295508 0.308382,-0.508414 l 0.580648,-4.325686 c 0.01337,-0.146398 -0.002,-0.299026 -0.04168,-0.458407 l -1.277981,-5.0813624 3.33664,-0.6000953 c 0.173044,-0.026358 0.313061,-0.11381 0.419512,-0.266709 0.106412,-0.152879 0.146266,-0.3161959 0.11947,-0.4889665 -0.03983,-0.1727463 -0.14041,-0.3193083 -0.30005,-0.4389532 z M 1.768264,1.6500635 V 2.0084538 18.397166 H 2.8934427 V 6.4008183 L 8.4498803,4.1449041 2.8934427,2.0806875 v -0.430624 z m 9.823781,2.5476266 c -0.359124,1.13e-5 -0.663732,0.1235539 -0.916812,0.3695032 -0.253095,0.245973 -0.380622,0.5495843 -0.380615,0.9084776 -7e-6,0.3585095 0.127521,0.6597485 0.380615,0.9056997 0.25308,0.2459697 0.557688,0.3695107 0.916812,0.3695022 0.359514,8.5e-6 0.671106,-0.1235396 0.930704,-0.3695022 0.259577,-0.2459512 0.38894,-0.5471902 0.38895,-0.9056997 -10e-6,-0.3588933 -0.129373,-0.6625046 -0.38895,-0.9084776 C 12.263151,4.321244 11.951559,4.1977014 11.592045,4.1976901 Z" />
</svg>
