<svg xmlns="http://www.w3.org/2000/svg" id="icon" width="14" height="14" viewBox="0 0 14 14">
  <path d="M 3.40625,1 C 2.65262,1.047193 1.998524,1.7448953 2,2.5 2.000287,3.2852156 2.714784,3.9994517 3.5,3.9994517 4.285216,3.9994517 4.999713,3.2852156 5,2.5 5.0016,1.6823545 4.222298,0.9488955 3.40625,1 z m 8,3 C 10.65262,4.0471927 9.998524,4.7448953 10,5.5 c 2.87e-4,0.7852156 0.714784,1.4994517 1.5,1.4994517 0.785216,0 1.499713,-0.7142361 1.5,-1.4994517 C 13.001599,4.6823545 12.222298,3.9488956 11.40625,4 z M 3,4.5 C 1.52901,4.5 1.134165,6.3734067 1.03125,7.375 L 0,7 0,8 5.96875,10.125 5,14 9,14 8.0625,10.875 14,13 14,12 13.0625,11.65625 C 13.226562,10.794922 13.75,7.5 12,7.5 c -1.638462,0 -1.915209,2.244501 -1.96875,3.09375 l -5.9375,-2.125 C 4.285012,7.337531 4.614,4.5 3,4.5 z"/>
</svg>
