<svg xmlns="http://www.w3.org/2000/svg" id="icon" width="14" height="14" viewBox="0 0 14 14">
  <path d="M 6.4726562 0 L 5.2011719 10 L 2.5996094 14 L 4 14 L 4.6660156 13 L 9.3339844 13 L 10 14 L 11.400391 14 L 8.8574219 9.9238281 C 9.0000453 9.9992881 7.5585937 0 7.5585938 0 L 6.4726562 0 z M 2.7148438 1.5449219 C 2.5475777 1.6291099 2.4854765 1.9211987 2.7148438 2.0136719 L 4.5898438 2.7636719 C 4.8962727 2.887214 5.0831658 2.4182195 4.7773438 2.2949219 L 2.9023438 1.5449219 C 2.8258838 1.5140979 2.7705987 1.5168599 2.7148438 1.5449219 z M 11 1.5957031 L 9.125 2.3457031 C 8.819178 2.4690007 9.006071 2.9379952 9.3125 2.8144531 L 11.1875 2.0644531 C 11.493323 1.9411555 11.305822 1.4724055 11 1.5957031 z M 2.7460938 3.3261719 C 2.4163518 3.3261719 2.4163518 3.8261719 2.7460938 3.8261719 L 4.7460938 3.8261719 C 5.0764898 3.8261719 5.0758357 3.3261719 4.7460938 3.3261719 L 2.7460938 3.3261719 z M 9.15625 3.3769531 C 8.826508 3.3769531 8.825854 3.8769531 9.15625 3.8769531 L 11.15625 3.8769531 C 11.485991 3.8769531 11.485991 3.3769531 11.15625 3.3769531 L 9.15625 3.3769531 z M 7 4 L 7.75 10 L 6.25 10 L 7 4 z M 4.5898438 4.4511719 L 2.7148438 5.2011719 C 2.4090217 5.3244695 2.5959147 5.793464 2.9023438 5.6699219 L 4.7773438 4.9199219 C 5.0831658 4.7966243 4.8956656 4.3278743 4.5898438 4.4511719 z M 9.125 4.5019531 C 8.957734 4.5861401 8.895633 4.8782299 9.125 4.9707031 L 11 5.7207031 C 11.306429 5.8442452 11.493322 5.3752507 11.1875 5.2519531 L 9.3125 4.5019531 C 9.23605 4.4711291 9.180755 4.4738911 9.125 4.5019531 z M 6 11 L 8 11 L 8.6660156 12 L 5.3339844 12 L 6 11 z"/>
</svg>
