<svg xmlns="http://www.w3.org/2000/svg" id="icon" width="14" height="14" viewBox="0 0 14 14">
  <path d="M 7 0 L 3 3 L 3 14 L 4 14 L 4 6 A 3 3 0 0 1 7 3 A 3 3 0 0 1 10 6 L 10 14 L 11 14 L 11 3 L 7 0 z M 6.6425781 4.5 C 5.1713456 5.5990112 5.6263833 6.1171551 5.125 8.0292969 C 5.0267045 8.1297436 4.5 8.4517303 4.5 8.7597656 L 4.5 9 L 9.5 9 L 9.5 8.7597656 C 9.5065855 8.4517303 8.9283731 8.1297433 8.8300781 8.0292969 C 8.3366263 6.1474042 8.7614816 5.3429388 7.3574219 4.5 L 6.6425781 4.5 z M 7 9.75 A 0.75 0.75 0 0 0 6.25 10.5 A 0.75 0.75 0 0 0 7 11.25 A 0.75 0.75 0 0 0 7.75 10.5 A 0.75 0.75 0 0 0 7 9.75 z"/>
</svg>
