<svg xmlns="http://www.w3.org/2000/svg" id="icon" width="14" height="14" viewBox="0 0 14 14">
  <path d="m 7.0003065,0 -3,1.5 c -0.465049,1.5 -0.465049,2.5 0,4.5 l 1,0 -1,8 6.0000005,0 -1,-8 1,0 c 0.530187,-2 0.530187,-3 0,-4.5 L 7.0003065,0 Z m -6.28125,1.46875 c -0.167266,0.084188 -0.229367,0.3762768 0,0.46875 l 1.875,0.75 c 0.306429,0.1235421 0.493322,-0.3454524 0.1875,-0.46875 l -1.875,-0.75 c -0.07646,-0.030824 -0.131745,-0.028062 -0.1875,0 z m 12.3750005,0 -1.875,0.75 c -0.305822,0.1232976 -0.118929,0.5922921 0.1875,0.46875 l 1.875,-0.75 C 13.58738,1.8142024 13.399879,1.3454524 13.094057,1.46875 Z M 4.5003065,2 9.500307,2 c 0.259083,1 0.259083,2 0,3 L 4.5003065,5 c -0.259083,-1 -0.259083,-2 0,-3 z m -3.75,1.25 c -0.329742,0 -0.329742,0.5 0,0.5 l 2,0 c 0.330396,0 0.329742,-0.5 0,-0.5 l -2,0 z m 10.5000005,0 c -0.329742,0 -0.330396,0.5 0,0.5 l 2,0 c 0.329741,0 0.329741,-0.5 0,-0.5 l -2,0 z m -8.6562505,1.125 -1.875,0.75 c -0.305822,0.1232976 -0.118929,0.5922921 0.1875,0.46875 l 1.875,-0.75 C 3.0873785,4.7204524 2.8998785,4.2517024 2.5940565,4.375 Z m 8.6250005,0 c -0.167266,0.084187 -0.229367,0.3762768 0,0.46875 l 1.875,0.75 c 0.306429,0.1235421 0.493322,-0.3454524 0.1875,-0.46875 l -1.875,-0.75 c -0.07645,-0.030824 -0.131745,-0.028062 -0.1875,0 z"/>
</svg>
