<svg xmlns="http://www.w3.org/2000/svg" id="icon" width="14" height="14" viewBox="0 0 14 14">
  <path d="M 8.0685044,0.05217521 C 7.5102106,0.08185002 6.9559019,0.19918572 6.4298325,0.40262664 L 7.2794418,1.2495509 c 1.3855212,-0.36956358 2.9010802,-0.038252 3.9941402,1.0513543 1.09306,1.0896057 1.425423,2.6003758 1.054687,3.9815176 l 0.84961,0.8469243 C 13.903519,5.2647886 13.533641,3.0468811 12.029441,1.5474346 11.089316,0.61028076 9.8680989,0.11516028 8.6270981,0.05217521 c -0.1861501,-0.0094477 -0.3724959,-0.0098916 -0.5585937,0 z M 8.0470204,2.4021467 c -0.4702958,-0.00363 -0.9414804,0.098546 -1.375,0.3017777 L 7.4747548,3.5041217 C 8.1663982,3.3194652 8.9266412,3.4853662 9.4728016,4.0297989 10.01896,4.5742318 10.185386,5.3320738 10.000145,6.0215312 l 0.802734,0.8001974 C 11.346549,5.6693305 11.159591,4.2471506 10.207176,3.2977448 9.6119171,2.7043661 8.8308463,2.4081948 8.0470204,2.4021467 Z M 2.9981918,2.7545451 c -2.05459658,2.0481034 -2.05459658,5.3697857 0,7.4178879 2.0545969,2.048105 5.3848563,2.048105 7.4394532,0 L 7.2110825,6.9560684 8.5685044,5.6048834 7.8380356,4.8767231 6.4825668,6.2279081 Z M 2.3614731,10.933692 0.46303563,14.044922 H 7.7325668 V 12.615859 C 5.8397654,12.922925 3.836333,12.363904 2.3614731,10.933692 Z"/>
</svg>
