<svg xmlns="http://www.w3.org/2000/svg" id="icon" width="14" height="14" viewBox="0 0 14 14">
  <path d="M 7 0 L 2 2 L 2 6 L 12 6 L 12 2 L 7 0 z M 3 3 L 5 3 L 5 5 L 3 5 L 3 3 z M 6 3 L 8 3 L 8 5 L 6 5 L 6 3 z M 9 3 L 11 3 L 11 5 L 9 5 L 9 3 z M 3.90625 6.625 L 3 14 L 4.5 14 L 4.6875 12.53125 L 7 11 L 9.3125 12.5625 L 9.5 14 L 11 14 L 10.09375 6.65625 L 3.90625 6.625 z M 5.34375 7.1875 L 8.65625 7.21875 L 8.84375 8.78125 L 7 10 L 5.15625 8.78125 L 5.34375 7.1875 z M 5.03125 9.6875 L 6.25 10.5 L 4.8125 11.46875 L 5.03125 9.6875 z M 8.96875 9.6875 L 9.1875 11.46875 L 7.75 10.5 L 8.96875 9.6875 z"/>
</svg>
