<svg xmlns="http://www.w3.org/2000/svg" id="icon" width="14" height="14" viewBox="0 0 14 14">
  <path d="m 2.5,0 c -0.25,0 -0.5,0.221572 -0.5,0.666016 V 11.333984 c 0,0.888888 1,0.888888 1,0 V 0.66601587 C 3,0.22157187 2.75,0 2.5,0 Z m 6.1347661,0.0059 c -0.514161,-0.03826 -1.1535161,0.08454 -1.8847661,0.574219 -1.95,1.30581203 -3.25,0 -3.25,0 V 5.1504319 c 0,0 1.3,1.305811 3.25,0 1.9500001,-1.3058131 3.25,0 3.25,0 V 0.58011887 c 0,0 -0.508301,-0.510458 -1.3652339,-0.574219 z M 9.5,5.9999999 a 1.5,1.5 0 0 0 -1.5,1.5 1.5,1.5 0 0 0 1.5,1.5 1.5,1.5 0 0 0 1.5,-1.5 1.5,1.5 0 0 0 -1.5,-1.5 z m 0.828125,3.509766 c -0.129799,-0.01707 -0.26298,-0.0091 -0.3945311,0.02539 -0.1632798,0.0428 -0.2925939,0.13083 -0.4023439,0.236328 -0.01244,0.01053 -0.02745,0.0154 -0.03906,0.02734 L 7.833986,11.503902 6.025393,12.013668 c -0.266643,0.07505 -0.420754,0.348596 -0.345703,0.615234 0.07505,0.266643 0.350549,0.420753 0.617187,0.345703 L 8.220705,12.43359 c 0.01754,-0.0049 0.03034,-0.01684 0.04687,-0.02344 0.03211,-0.01089 0.06004,-0.02927 0.08984,-0.04687 0.01916,-0.01265 0.03963,-0.02215 0.05664,-0.03711 0.01708,-0.01352 0.03712,-0.02105 0.05273,-0.03711 L 9.4843631,11.242186 10,14 h 2 L 11.201172,10.214844 C 11.068723,9.8289579 10.717524,9.5609659 10.328125,9.5097659 Z"/>
</svg>
