<svg xmlns="http://www.w3.org/2000/svg" id="icon" width="14" height="14" viewBox="0 0 14 14">
  <path d="M 3.219845,3.8253628 C 2.7468854,3.9379881 2.4597076,4.1012638 2.0993258,4.467284 1.6882935,4.8783163 1.3786096,5.351276 1.1477682,5.9425466 0.84111673,6.5927121 0.62936992,7.3021042 0.47770254,7.9583345 0.13418848,9.4730183 0.05292964,10.990119 0.13418848,11.70278 c 0.18582926,0.844618 0.39980299,1.317578 0.79396761,1.706104 0.40539401,0.405441 0.70384851,0.534934 1.29507171,0.563079 0.5799465,0.02814 1.0134849,-0.07884 1.430203,-0.354744 0.3209606,-0.213973 1.159893,-1.086736 1.6554535,-1.734248 l 0.33219,-0.439224 1.4696242,-0.01123 c 0.8108353,-0.0057 1.4696242,0 1.4696242,0.01687 0.3103472,0.452538 0.6896815,0.884513 1.0416768,1.306348 0.7432695,0.867125 1.4076965,1.227506 2.2579535,1.227506 0.608138,0 0.979749,-0.157684 1.407697,-0.591223 0.630644,-0.641921 0.782643,-1.148663 0.777052,-2.561999 0,-1.0473149 -0.05634,-1.5878875 -0.275948,-2.6746239 C 13.499112,7.0047868 13.103716,5.7716424 12.443032,4.8783163 12.274118,4.6530659 12.020723,4.3659355 11.868676,4.2420335 11.012829,3.5381851 9.2673035,3.588883 8.366349,4.3490204 8.2039735,4.4645359 7.9621869,4.5992882 7.814547,4.669981 7.6785628,4.7346564 7.5304964,4.798242 7.4710329,4.816389 7.3753228,4.8895931 6.9192782,4.8951841 6.7615934,4.8220274 6.6940278,4.7882446 6.5223181,4.7432798 6.3674288,4.6643426 5.8230183,4.3509156 5.2578547,3.9712497 4.7683116,3.8422779 4.2727985,3.718376 3.6815753,3.7127376 3.2198924,3.8253628 Z m 1.3457696,2.2297616 c 0.1182636,0.1126253 0.129493,0.1689142 0.129493,0.6644273 0,0.3435141 0.016678,0.6479386 0.016678,0.6479386 0,0 0.3098734,0.027765 0.6365197,0.027765 0.4335385,0 0.5349343,0.016915 0.6644273,0.1182636 0.078795,0.061927 0.1351313,0.1351313 0.1182162,0.1632758 0.030703,0.1988117 0.020469,0.37308 -0.1238546,0.5180192 -0.1182636,0.1126252 -0.2141159,0.089077 -0.7152673,0.1116302 l -0.5968143,0.016584 9.48e-5,0.6657065 C 4.6726015,9.5180305 4.5810136,9.6253016 4.485256,9.6928199 4.1981257,9.8665196 3.9293318,9.8277617 3.7829238,9.5293546 3.7097197,9.3885375 3.6842286,9.2027083 3.6815753,8.8423265 l -0.00403,-0.5508544 c 0,0 -0.7570103,-0.00426 -1.1164918,-0.029708 C 2.26824,8.1603681 2.1838066,7.8119264 2.3865036,7.5472548 2.4991288,7.4065325 2.53855,7.4008467 3.0790753,7.383979 L 3.6929942,7.3671113 3.711615,6.7958829 C 3.751036,6.1483707 3.734405,6.1412162 3.9575237,5.9594143 4.1433056,5.8524275 4.3967005,5.8918483 4.5656146,6.0551244 Z M 10.682624,6.2280281 C 11.233621,6.917141 10.207423,7.7473221 9.6401892,7.0868606 9.0335812,6.4394954 10.04301,5.4923726 10.682624,6.2280281 Z M 9.5167042,7.3269035 C 10.109946,8.0225645 9.1347449,8.9637267 8.4824283,8.2860659 7.766834,7.542673 8.892442,6.5948585 9.5167042,7.3269035 Z M 11.871372,7.215586 C 12.583143,7.8898686 11.624824,8.8827901 10.940501,8.2142169 10.212033,7.5025174 11.228882,6.6069407 11.871372,7.215586 Z m -0.895197,1.7417869 c 0.01476,1.005378 -1.3811259,0.9279333 -1.3992967,-0.00761 -0.021852,-0.9213758 1.3475557,-0.9150741 1.3992967,0.00761 z"/>
  <path d="M 1.3323441,-0.05994706 C 1.3037034,0.46829033 1.5988154,0.8602857 1.9556111,1.2257321 2.3124068,1.5911784 2.7809586,1.9232693 3.3052364,2.1771513 3.8295142,2.4310332 4.4091673,2.6077204 4.9971727,2.6144098 5.5851781,2.6210994 6.2019586,2.4353176 6.6548686,1.9642133 7.3006205,1.2925201 7.8716641,1.2713612 8.1749553,1.392862 8.3266009,1.453612 8.4115592,1.547706 8.4475827,1.637079 8.4828147,1.724488 8.4913537,1.8183987 8.4071417,1.9753182 8.1290121,2.420017 7.7222881,2.8532272 7.354205,3.3345678 6.9826914,3.820394 6.632027,4.3898033 6.6354349,5.0970206 l 1.0423878,-0.005 C 7.6761122,4.7373326 7.8597454,4.3893747 8.1821738,3.9677368 8.5046018,3.546099 8.9465262,3.085291 9.3017406,2.512059 l 0.00676,-0.01092 0.0062,-0.011197 C 9.5361011,2.0899957 9.5677338,1.6278949 9.414364,1.2473868 9.2609937,0.86687861 8.9450953,0.57851102 8.5625192,0.42524805 7.7973675,0.11872205 6.7667406,0.3436558 5.9033391,1.2417417 5.6729949,1.4813394 5.3878508,1.5764247 5.009018,1.5721149 4.6301852,1.5678051 4.1780433,1.4416345 3.7595226,1.2389655 3.3410019,1.0362965 2.9557429,0.75802938 2.7014031,0.49752296 2.4470633,0.23701656 2.3737406,-0.01252926 2.3732509,-0.00349674 Z"/>
</svg>
