<svg xmlns="http://www.w3.org/2000/svg" id="icon" width="14" height="14" viewBox="0 0 14 14">
  <path d="m4.58513,2.8263c1.46072,-0.10333 3.13452,1.23444 3.63246,2.94008c0.49794,1.70564 -0.04394,3.40863 -0.66342,4.27188c-0.61948,0.86325 -1.33674,0.77076 -1.94384,1.21188c-0.60709,0.44112 -0.53931,1.8297 -1.50273,2.36063c-0.96343,0.53093 -2.82327,0.24927 -2.42665,-1.47846c0.39662,-1.72773 0.63357,-2.3001 -0.76858,-2.96611l0.51491,-0.72984c1.43113,0.08965 1.44162,0.87832 1.71334,1.57934c0.27172,0.70101 0.36715,1.51445 0.98562,1.051c0.30924,-0.23173 0.32183,-0.74699 0.63097,-0.96843c0.30914,-0.22143 0.91483,-0.14903 1.20458,-0.25906c0.57949,-0.22006 0.84928,-1.23319 0.6778,-3.40324c-0.17148,-2.17005 -1.62807,-2.25618 -2.39611,-2.20584c-0.76804,0.05034 -0.63737,0.58252 -1.4715,1.18749l-0.40457,-0.99381c0.9105,-0.69673 0.75702,-1.49416 2.21773,-1.59749l0,-0.00001l-0.00001,-0.00001z M4.34019,9.30065c-0.91236,0 -1.65137,-0.73901 -1.65137,-1.65137c0,-0.91236 0.73901,-1.65137 1.65137,-1.65137c0.91236,0 1.65137,0.73901 1.65137,1.65137c0,0.91236 -0.73901,1.65137 -1.65137,1.65137z M12.57809,0.02714c-1.7687,0.80156 -2.99609,2.63198 -2.99609,4.73828c0,2.1063 1.22749,3.96022 2.99609,4.76172l0,-1.22461c-1.1965,-0.7105 -1.96484,-2.07868 -1.96484,-3.60938c0,-1.5306 0.76829,-2.72504 1.96484,-3.43554l0,-1.23047z M13.49371,1.90885c-1.158,0.42876 -2,1.54921 -2,2.88281c0,1.3337 0.84197,2.46573 2,2.89453l0,-1.14453c-0.5974,-0.35456 -0.92773,-1.02046 -0.92773,-1.78516c0,-0.76479 0.33033,-1.34081 0.92773,-1.69531l0,-1.15234z M9.36082,0.55115l-0.96154,2.37629l-4.84258,-0.8755c-1.08525,0.31007 -1.84219,1.08525 -1.83307,2.16138c0.07296,1.04877 0.61102,1.74187 1.31324,2.62649l-0.30095,0.95757c-1.25852,-1.21293 -1.86043,-2.50793 -1.77835,-3.83029c0.20975,-1.58684 1.15821,-2.0793 2.43497,-2.70856l0.38303,-1.01229" />
</svg>
