<svg xmlns="http://www.w3.org/2000/svg" id="icon" width="14" height="14" viewBox="0 0 14 14">
  <path d="M 13.990234,0.01757813 C 10.129073,0.01746474 6.9994428,3.1455756 6.9999999,7.0039062 7.0005082,10.861481 10.139592,14.000113 14,14 c 0.01008,-0.988687 -0.02305,-0.01498 0,-1 -3.308167,7.56e-4 -5.9668722,-2.672792 -5.966797,-5.9902344 -7.97e-5,-3.3128692 2.674918,-5.9983003 5.978516,-6.0058594 V 0.02148438 l -0.02149,-0.0019531 z M -6.5301839e-8,1 V 14 H 0.99999993 1.9999999 h 1 5.6640625 V 13 H 2.9999999 V 8 h 3 V 7 h -3 V 2 h 5 V 1 h -5 -1 -0.99999997 z M 0.99999993,2 H 1.9999999 V 3 H 0.99999993 Z m 0,2 H 1.9999999 V 5 H 0.99999993 Z M 14.011719,5 c -1.099332,0.00699 -1.986185,0.9003465 -1.986328,2 1.22e-4,1.0996535 0.886981,1.9924409 1.986328,2 V 7.9980469 c -0.0059,7.181e-4 -0.01172,0.00135 -0.01758,0.00195 -0.570726,1.89e-4 -1.033214,-0.4475843 -1.033203,-1 1.1e-5,-0.5524157 0.462492,-1.000189 1.033203,-1 0.0059,-3.78e-5 0.01172,-3.78e-5 0.01758,0 z M 0.99999993,6 H 1.9999999 V 7 H 0.99999993 Z m 0,2 H 1.9999999 V 9 H 0.99999993 Z m 0,2 H 1.9999999 v 1 H 0.99999993 Z m 0,2 H 1.9999999 v 1 H 0.99999993 Z"/>
</svg>
