<svg xmlns="http://www.w3.org/2000/svg" id="icon" width="14" height="14" viewBox="0 0 14 14">
  <path d="M 5 0 C 4 0 4 0 4 1 L 4.0097656 4 L 1 4 L 1 13 C 1 14 1 14 2 14 L 12 14 C 13 14 13 14 13 13 L 13 4 L 10.039062 4 L 10 1 C 10 0 10 0 9 0 L 5 0 z M 5 1 L 9 1 L 9 4 L 5 4 L 5 1 z M 7.5058594 5 L 7.7089844 5.0371094 C 9.127416 5.2898435 10.312583 6.2814255 10.802734 7.6289062 C 10.92386 7.9618667 10.997929 8.3050881 11.027344 8.6464844 C 11.10874 9.5911796 10.79949 10.505123 10.261719 11.275391 L 10.628906 11.275391 C 10.896171 11.275879 11.117833 11.495542 11.117188 11.761719 L 11.115234 12.134766 C 11.114596 12.400627 10.894277 12.619637 10.626953 12.619141 L 8.2871094 12.615234 C 8.1229556 12.614907 7.985863 12.478206 7.9863281 12.314453 L 7.9902344 9.9863281 C 7.9907095 9.7203155 8.2131374 9.5014573 8.4804688 9.5019531 L 8.8554688 9.5039062 C 9.1227401 9.5043956 9.3422952 9.7241955 9.3417969 9.9902344 L 9.3417969 10.115234 C 9.6441071 9.4824952 9.7864932 8.7764922 9.5351562 8.0859375 C 9.2090275 7.1890315 8.4157004 6.5277685 7.4707031 6.359375 L 7.2675781 6.3242188 L 7.5058594 5 z M 3.3730469 5.3808594 L 5.7128906 5.3867188 C 5.8768459 5.3871794 6.0140065 5.522003 6.0136719 5.6855469 L 6.0078125 8.0136719 C 6.0073128 8.2796454 5.7867778 8.5003236 5.5195312 8.5 L 5.1445312 8.4980469 C 4.8772592 8.4975502 4.6598241 8.2775935 4.6601562 8.0117188 L 4.6582031 7.8828125 C 4.3544146 8.5162943 4.2131087 9.2202828 4.4648438 9.9121094 C 4.7911367 10.80884 5.5824543 11.474181 6.5273438 11.642578 L 6.7324219 11.677734 L 6.4941406 13 L 6.2890625 12.962891 C 4.8704482 12.71008 3.687413 11.716612 3.1972656 10.369141 C 2.7403868 9.112724 3.0285796 7.7766811 3.7636719 6.7265625 L 3.3691406 6.7265625 C 3.101876 6.7260652 2.8823236 6.5062597 2.8828125 6.2402344 L 2.8828125 5.8671875 C 2.8834574 5.6013473 3.1058056 5.3805353 3.3730469 5.3808594 z"/>
</svg>
