<svg xmlns="http://www.w3.org/2000/svg" id="icon" width="14" height="14" viewBox="0 0 14 14">
  <path d="m 11,6 c 1,0 2,1 2,2 l 0,2 c 0.0034,0.946601 -1,2 -2,2 L 6,12 C 5,12 4,11 4,10 L 4,8 C 4,7 5,6 6,6 L 7,6 C 5,7 5,7 5,9 5,9.558061 5.5149841,9.961494 6,10 l 5,0 c 0.605412,0 1,-0.441939 1,-1 0,-2 0,-2 -2,-3.0047349 z M 7,3 7,4.9882812 5,5 5,6 7,6 7,8 8,8 8,6 l 1,0 0,2 1,0 0,-2 3,0 c 0,1 1,1 1,1 l 0,-3 c 0,0 -1,4.76e-4 -1,0.953125 L 10,4.9707031 10,3 9,3 9,4.9765625 8,4.9824219 8,3 7,3 Z M 0,10 0,1 C 3,1 3,5 5,5 L 5,6 C 3,6 3,10 0,10 Z"/>
</svg>
