<svg xmlns="http://www.w3.org/2000/svg" id="icon" width="14" height="14" viewBox="0 0 14 14">
  <path d="m 11.656176,5.8256161 c 0.298589,0.2100571 0.472688,0.4414767 0.557618,0.7348004 0.02791,0.096441 0.02967,0.116247 0.03043,0.3145082 6.72e-4,0.1824775 -0.0013,0.2303319 -0.02282,0.331662 -0.04231,0.1988789 -0.12061,0.4210966 -0.212909,0.6147172 l -0.04055,0.088638 -0.139406,0.00864 C 11.321401,7.9483119 10.913322,8.0512522 10.558686,8.241664 9.7980817,8.6500367 9.3203179,9.4172822 9.0835261,10.60618 l -0.020273,0.09435 -0.098852,0.102933 c -0.054816,0.05578 -0.1286446,0.122894 -0.1647515,0.148676 -0.3281323,0.234183 -0.7990935,0.374318 -1.4675559,0.440309 -0.3000935,0.02968 -0.501193,0.0355 -1.4700912,0.04575 -0.5680876,0.0061 -1.0359562,0.0139 -1.0392018,0.01717 -0.00311,0.0032 -0.025085,0.0058 -0.048159,0.0058 -0.0503,0 -0.046861,0.02197 -0.01774,-0.240169 0.04498,-0.405175 0.039971,-0.875322 -0.012732,-1.215165 C 4.592715,9.0282302 4.0568749,8.3864584 3.1473456,8.0929715 2.7477326,7.9640179 2.3961554,7.9175192 1.7963837,7.9071256 L 1.413653,7.8984856 1.3883094,7.8698956 C 1.2604682,7.7126881 1.1949808,7.4722832 1.2311615,7.2894908 1.2482657,7.2031656 1.3073257,7.0781645 1.3578983,7.0235909 L 2.4352965,5.7884036 c 2.3360181,-0.00835 2.9594838,0.00427 5.1909411,0.026406 0.1239596,0.032996 0.6885446,1.3087067 0.747585,1.4146142 0.031912,0.057253 0.076189,0.1835844 0.086182,0.2458858 0.00402,0.02531 0.00844,0.045746 0.010125,0.045746 0.015029,0 0.2232482,-0.093484 0.3295027,-0.1486753 C 9.083967,7.2246893 9.4406996,6.645953 9.6210797,6.4088852 9.7928469,4.1278438 6.9779187,-1.927108 11.656179,5.8256163 Z M 11.54719,8.1786966 c 0.679982,-0.052948 1.349382,0.2215749 1.824941,0.7490968 0.661149,0.7333838 0.816608,1.8298176 0.387799,2.7333476 -0.356552,0.751284 -1.061293,1.258429 -1.850286,1.332365 -0.296082,0.02774 -0.651004,-0.01504 -0.930213,-0.114375 C 10.288966,12.633514 9.7515777,12.064052 9.5270851,11.340909 9.3199378,10.673656 9.3993216,9.9309859 9.7399919,9.3423632 10.133078,8.6631724 10.793349,8.2373763 11.54719,8.1786966 Z m -9.2539672,0.0057 c 0.2777804,3.059e-4 0.3564089,0.00923 0.5576214,0.062902 0.9073154,0.2421499 1.5833539,1.0369036 1.7134153,2.0128424 0.023943,0.180069 0.024164,0.495889 0,0.66618 C 4.448839,11.739795 3.9762622,12.413657 3.2766624,12.767615 3.0547002,12.879911 2.7757949,12.964519 2.5238745,12.99349 2.379068,13.01014 2.067452,12.99789 1.9155611,12.97061 0.93994444,12.794509 0.20022497,12.0164 0.02725513,10.983501 -0.00555125,10.788179 -0.00952264,10.429781 0.01960008,10.234405 0.09804804,9.7090502 0.32013721,9.2525892 0.67353649,8.8820232 1.0161487,8.5227701 1.4205438,8.3002792 1.9155078,8.2044093 2.0029748,8.1873113 2.0788745,8.1841203 2.2931694,8.1843983 Z m 9.3401452,0.8262966 c -0.449661,0.02271 -0.856262,0.251053 -1.130448,0.631871 -0.08549,0.118735 -0.200319,0.3597628 -0.238257,0.5003518 -0.15436,0.572038 -0.0045,1.164114 0.39794,1.575392 0.101934,0.104152 0.253337,0.22211 0.36245,0.280195 0.08522,0.04538 0.260896,0.110084 0.364989,0.134384 0.128891,0.03029 0.422462,0.03938 0.550017,0.01717 0.612901,-0.106658 1.090689,-0.583466 1.231835,-1.223717 0.0324,-0.147014 0.03963,-0.43524 0.01522,-0.586123 C 13.056417,9.5328412 12.401435,8.9719187 11.633381,9.0107062 Z m -9.3350763,0.0057 c -0.2702636,-5.9e-4 -0.4663422,0.04823 -0.6919562,0.171548 -0.1571065,0.08587 -0.2721182,0.173637 -0.395403,0.308784 -0.202478,0.22197 -0.32486473,0.4650867 -0.39033542,0.7719708 -0.0270196,0.126684 -0.0318593,0.427329 -0.0101253,0.571829 0.055867,0.371448 0.25530728,0.736403 0.52973938,0.969251 0.2112195,0.179213 0.4522764,0.294282 0.7046301,0.33738 0.1249849,0.02141 0.3869133,0.02154 0.4993231,0 C 3.4339761,11.976684 3.9780205,11.057329 3.7303788,10.142882 3.602617,9.6711542 3.2393018,9.2681502 2.7925629,9.1021892 2.6215096,9.0386622 2.494743,9.0168752 2.2983073,9.0164162 Z"/>
</svg>
