<svg xmlns="http://www.w3.org/2000/svg" id="icon" width="14" height="14" viewBox="0 0 14 14">
  <path d="m 8.7688269,0.02678201 c 2.2520171,0 4.0755221,3.12883669 4.0755221,6.98660949 C 12.844349,10.868834 11.020844,14 8.7688269,14 6.5179742,14 4.6933047,10.868834 4.6933047,7.0133915 c 0,-3.8577728 1.8246695,-6.98660949 4.0755222,-6.98660949 z M 7.0221746,7.0133915 c 0,2.2124262 0.9129168,3.9893535 2.037761,3.9893535 1.1644354,0 2.0377604,-1.787408 2.0377604,-3.9916833 0,-2.2054397 -0.911752,-3.9928473 -2.0377604,-3.9928473 -1.1644349,0 -2.037761,1.7874076 -2.037761,3.9928473 z m 2.037761,-3.4933048 c -0.3272062,0 -0.6276304,0.2701489 -0.8709973,0.7103054 0.358646,0.7196207 0.5798886,1.6989105 0.5798886,2.7829994 0,1.1644348 -0.2224071,2.0610497 -0.5822175,2.7829994 0.2456958,0.4424851 0.5449556,0.7103051 0.8733262,0.7103051 0.8046246,0 1.4555434,-1.5603427 1.4555434,-3.4933045 0,-1.930633 -0.6520834,-3.4933048 -1.4555434,-3.4933048 z M 4.1110873,7.0133915 c 0,-3.6796143 1.5417118,-6.69550077 3.4933047,-6.98660949 V 0 H 5.8577397 v 0 c 0,0 0,0 0,0 C 3.2831741,0.02678201 1.2,3.1474676 1.2,7.0133915 1.2,10.869999 3.2831741,14 5.8577397,14 c 0,0 0,0 0,0 h 1.7245281 v 0 C 5.6527991,13.703069 4.1110873,10.693006 4.1110873,7.0133915 Z"/>
</svg>
