<svg xmlns="http://www.w3.org/2000/svg" id="icon" width="14" height="14" viewBox="0 0 14 14">
  <path d="M 13.819407,1.9040845e-7 10.474988,0.24220688 v 0.006858 l -0.0092,-0.002289 L 9.9343609,4.6453386 H 4.6153841 V 6.0620208 H 6.9518954 A 4.232613,4.2103869 0 0 0 4.9818957,8.2441653 H 2.0429309 v 0.052555 L 1.4244427,10.350905 A 1.8668557,1.8570526 0 0 0 0.04773353,12.14232 1.8668557,1.8570526 0 0 0 1.9146519,14 1.8668557,1.8570526 0 0 0 3.7815703,12.14232 1.8668557,1.8570526 0 0 0 2.8538379,10.540559 L 2.9752447,10.133834 H 4.6978492 A 4.232613,4.2103869 0 0 0 8.9150232,14 4.232613,4.2103869 0 0 0 13.148232,9.7888039 4.232613,4.2103869 0 0 0 11.615755,6.5510039 L 12.222791,1.5354988 13.952267,1.4098255 Z M 8.9425117,7.2387792 A 2.6226422,2.6160828 0 0 1 11.56536,9.8550673 2.6226422,2.6160828 0 0 1 8.9425117,12.471356 2.6226422,2.6160828 0 0 1 6.3196629,9.8550673 2.6226422,2.6160828 0 0 1 8.9425117,7.2387792 Z"/>
</svg>
