<svg xmlns="http://www.w3.org/2000/svg" id="icon" width="14" height="14" viewBox="0 0 14 14">
  <path d="m0 0v3h.01953c.5707-.0002268.9805.4476.9805 1-3.235e-5.5524-.4293 1-1 1v3h2v-1h-1v-1.283c.5935-.348.9999-.983 1-1.717-.0001081-.7339-.4063-1.369-1-1.717v-1.283h12v1.283c-.5937.3479-.9999.9829-1 1.717 8.3e-5.7436.4024 1.386 1 1.73v1.27h-1v1h2v-3h-.03126c-.5707.000189-.9687-.4476-.9688-1-6e-6-.5524.3804-1 .9512-1 .0076.0006047.01757.00195.01757.00195v-.00195h.03126v-3z" stroke-width="3.78"/>
  <path d="m7 3c-1.178 0-2.134 1.176-2.134 2.624 0 1.031.4844 1.924 1.189 2.352.2121.1288-.01935.4621-.1751.2461-.3911-.5426-.9616-.8849-1.597-.8849-1.178 0-2.134 1.176-2.134 2.624 0 1.448.9564 2.622 2.134 2.622 1.169 0 2.122-1.156 2.134-2.589.00215-.2542.3194-.2805.3194.06153 0 .5386-.4211 3.399-.6465 3.944.2461-.0763.6562-.1396.9102-.1396.2539 0 .6641.06329.9102.1396-.2255-.5454-.6465-3.406-.6465-3.944 0-.342.3172-.3157.3194-.06153.01232 1.433.9654 2.589 2.134 2.589 1.178 0 2.134-1.174 2.134-2.622 0-1.448-.9564-2.624-2.134-2.624-.6356 0-1.206.3424-1.597.8849-.1557.216-.3872-.1173-.1751-.2461.7048-.4279 1.189-1.32 1.189-2.352 0-1.448-.9564-2.624-2.134-2.624z" stroke-width="3.78"/>
</svg>
