<svg xmlns="http://www.w3.org/2000/svg" id="icon" width="14" height="14" viewBox="0 0 14 14">
  <path d="M 4.46875 1 C 4.4340322 1.0022386 4.3999788 1.0179371 4.3652344 1.0273438 C 4.3418638 1.0339809 4.316744 1.0351181 4.2949219 1.0449219 C 4.2885174 1.047763 4.2817055 1.0476262 4.2753906 1.0507812 L 0.26953125 3.0527344 L 0.26953125 3.0625 C 0.11092462 3.1461425 1.7200928e-017 3.3075506 0 3.5 L 0 12.5 C 0 12.506925 0.0036301406 12.512676 0.00390625 12.519531 C 0.0049226003 12.548659 0.015193262 12.576414 0.021484375 12.605469 C 0.029297893 12.640912 0.033967723 12.676843 0.048828125 12.708984 C 0.051160273 12.714062 0.05021735 12.719572 0.052734375 12.724609 C 0.057548363 12.734245 0.068889393 12.736913 0.07421875 12.746094 C 0.11252692 12.812404 0.16311445 12.867716 0.2265625 12.910156 C 0.24394949 12.921797 0.25873495 12.934044 0.27734375 12.943359 C 0.34493696 12.977339 0.4189124 13 0.5 13 C 0.50559327 13 0.51007716 12.996274 0.515625 12.996094 C 0.52112479 12.995922 0.52574277 13.000355 0.53125 13 C 0.56458184 12.99784 0.59746685 12.983341 0.63085938 12.974609 C 0.65568191 12.967785 0.68198201 12.965459 0.70507812 12.955078 C 0.71148258 12.952237 0.71829451 12.952374 0.72460938 12.949219 L 4.4804688 11.072266 L 9.2949219 12.957031 C 9.3575728 12.98518 9.4266323 13.001953 9.5 13.001953 C 9.5034625 13.001953 9.5082735 13.000069 9.5117188 13 C 9.5159353 12.999892 9.5192334 12.996309 9.5234375 12.996094 C 9.5234375 12.996094 9.5253906 12.996094 9.5253906 12.996094 C 9.5274954 12.995985 9.5291443 12.998183 9.53125 12.998047 C 9.5436937 12.997241 9.5558318 12.989957 9.5683594 12.988281 C 9.6199239 12.980974 9.6696667 12.970917 9.7148438 12.949219 C 9.7179464 12.947755 9.7215288 12.948805 9.7246094 12.947266 L 13.730469 10.945312 L 13.730469 10.939453 C 13.889075 10.855811 14 10.694403 14 10.501953 L 14 1.5019531 C 14 1.4950281 13.99637 1.4892767 13.996094 1.4824219 C 13.995111 1.4506304 13.983837 1.4203589 13.976562 1.3886719 C 13.968805 1.3559969 13.964963 1.3227753 13.951172 1.2929688 C 13.94859 1.2872909 13.950078 1.281019 13.947266 1.2753906 C 13.940914 1.2626773 13.927164 1.2580133 13.919922 1.2460938 C 13.883967 1.1871805 13.837653 1.1390577 13.78125 1.0996094 C 13.759186 1.0840303 13.740911 1.0683639 13.716797 1.0566406 C 13.650587 1.0243878 13.578865 1.0019531 13.5 1.0019531 C 13.495872 1.0019531 13.492385 1.0038077 13.488281 1.0039062 C 13.481483 1.0040656 13.475561 0.99956083 13.46875 1 C 13.42481 1.0028331 13.381452 1.0205924 13.337891 1.0351562 C 13.325152 1.0395525 13.31107 1.0395515 13.298828 1.0449219 C 13.291219 1.0482218 13.282876 1.0470413 13.275391 1.0507812 L 9.515625 2.9296875 L 4.7480469 1.0644531 L 4.7460938 1.0625 C 4.7442842 1.0614801 4.7420557 1.0615436 4.7402344 1.0605469 L 4.7089844 1.0488281 C 4.6450389 1.0192405 4.5753327 1 4.5 1 C 4.4945399 1 4.4897918 1.0017811 4.484375 1.0019531 C 4.4835103 1.0019754 4.4832861 1.0038795 4.4824219 1.0039062 C 4.4775719 1.0040769 4.4736055 0.9996869 4.46875 1 z M 5 2.2363281 L 9 3.8027344 L 9 11.767578 L 5 10.201172 L 5 2.2363281 z M 4 2.3066406 L 4 10.195312 L 1 11.693359 L 1 3.8046875 L 4 2.3066406 z M 13 2.3066406 L 13 10.193359 L 10 11.691406 L 10 3.8046875 L 13 2.3066406 z"/>
</svg>
