<svg xmlns="http://www.w3.org/2000/svg" id="icon" width="14" height="14" viewBox="0 0 14 14">
  <path d="M7,0.85331316 1,5 h 2 v 8 H 6 V 8 h 2 v 5 h 3 V 5 h 2 z" opacity="0.27"/>
  <path d="m 0.5,6 c -0.277,0 -0.5,0.223 -0.5,0.5 v 0.5 V 11 12 12.5 14 H 1 V 12.5 12 H 13 V 13.5 14 H 13.5 14 V 13.5 12 11 9 v -0.5 c 0,-0.277 -0.223,-0.5 -0.5,-0.5 -0.277,0 -0.5,0.223 -0.5,0.5 v 0.5 V 11 H 1 v -4 -0.5 c 0,-0.277 -0.223,-0.5 -0.5,-0.5 z m 3,1 c -0.828427,0 -1.5,0.671573 -1.5,1.5 C 2,9.3284274 2.671573,10 3.5,10 4.328427,10 5,9.3284274 5,8.5 c 0,-0.828427 -0.671573,-1.5 -1.5,-1.5 z m 2.5,1 V 10 h 6 C 12,9 10.963825,8 10,8 Z"/>
</svg>
