<svg xmlns="http://www.w3.org/2000/svg" id="icon" width="14" height="14" viewBox="0 0 14 14">
  <path d="M 3 0 L 3 1 L 3 11 L 3 14 L 11 14 L 11 11 L 11 1 L 11 0 L 10 0 L 4 0 L 3 0 z M 4 1 L 10 1 L 10 11 L 4 11 L 4 1 z M 7 1.9941406 A 1.0112764 1.0072076 0 0 0 5.9882812 3.0019531 A 1.0112764 1.0072076 0 0 0 7 4.0097656 A 1.0112764 1.0072076 0 0 0 8.0117188 3.0019531 A 1.0112764 1.0072076 0 0 0 7 1.9941406 z M 7.6679688 4.6738281 L 5.6640625 5.3378906 L 5.6640625 6.0019531 L 6.2792969 6.0019531 L 6.3320312 9.3300781 L 5.6640625 9.3300781 L 5.6640625 9.9941406 L 8.3359375 9.9941406 L 8.3359375 9.3300781 L 7.6679688 9.3300781 L 7.6679688 4.6738281 z"/>
</svg>
