<svg xmlns="http://www.w3.org/2000/svg" id="icon" width="14" height="14" viewBox="0 0 14 14">
<path d="m7.478 6.965-1.176-2.801 1.189-.5-.307-.728-.796.335s-.159.067-.392.165l-.589-1.404-.727.306.589 1.405c-.623.26-1.273.533-1.273.533l.308.729 1.27-.534 1.176 2.798c-2.419 1.014-4.777 2.018-4.633 2.018.294 0 .575.068.825.183.243.108.519.173.803.173.282 0 .558-.063.803-.173.247-.115.529-.183.823-.183s.574.068.826.183c.242.108.516.173.8.173.285 0 .559-.063.803-.173.25-.115.531-.183.829-.183.293 0 .574.068.823.183.243.108.519.173.803.173.081 0 .157-.016.234-.025.145-.031.29-.046.43-.101l.009-.005c.256-1.443.852-4.332.852-4.332s-2.074.855-4.3 1.784m6.028 5.003c-.285 0-.559-.063-.8-.173-.252-.116-.535-.184-.826-.184-.294 0-.579.068-.825.184-.247.108-.519.173-.803.173-.282 0-.558-.063-.801-.173-.251-.116-.531-.184-.825-.184-.295 0-.576.068-.826.184-.244.108-.519.173-.803.173-.285 0-.559-.063-.8-.173-.252-.115-.535-.183-.826-.183-.294 0-.579.068-.825.184-.243.108-.519.173-.803.173-.282 0-.558-.063-.803-.173-.25-.116-.529-.184-.823-.184s-.576.068-.826.184c-.244.108-.516.173-.8.173v-1.201c.282 0 .554-.065.8-.174.25-.115.532-.183.826-.183s.574.068.823.183c.244.108.52.174.803.174.285 0 .559-.065.803-.174.247-.115.531-.183.825-.183.293 0 .574.068.826.183.24.108.515.174.8.174s.558-.065.803-.174c.25-.115.531-.183.826-.183.294 0 .574.068.825.183.243.108.519.174.801.174.285 0 .557-.065.803-.174.247-.115.531-.183.825-.183.293 0 .574.068.826.183.24.108.515.174.8.174z"/>
</svg>
