<svg xmlns="http://www.w3.org/2000/svg" id="icon" width="14" height="14" viewBox="0 0 14 14">
  <path d="M 4.2421875,0.73339625 0,4.5927712 H 0.49023438 V 11.221678 H 3.0859375 V 7.5068337 h 2.3125 v 2.7402343 l -2.2519531,2.587891 c -0.1403231,0.161407 -0.026373,0.413047 0.1875,0.414063 l 10.4140626,0.01758 c 0.1788,10e-4 0.300849,-0.180512 0.232422,-0.345703 l -3.375,-8.1074226 c -0.03944,-0.095231 -0.133278,-0.1564947 -0.236328,-0.1542969 -0.07059,0.00144 -0.137274,0.032655 -0.183594,0.085937 L 7.9941406,7.2626931 V 4.5927712 H 8.484375 Z M 10.296875,5.3779275 13.373047,12.7666 3.8828125,12.74902 5.3984375,11.006832 v 0.214844 H 7.9941406 V 8.0244118 Z"/>
  <path d="M 10.296875,5.3779275 7.9941406,8.0244118 V 11.221678 H 5.3984375 v -0.214844 l -1.515625,1.742188 9.4902345,0.01758 z" opacity=".2"/>
</svg>
