<svg xmlns="http://www.w3.org/2000/svg" id="icon" width="14" height="14" viewBox="0 0 14 14">
  <path d="M 0.5,0 C 0.223,0 0,0.223 0,0.5 V 1 6 H 1 V 5 h 12 v 1 h 1 V 2 1.5 C 14,1.223 13.777,1 13.5,1 13.223,1 13,1.223 13,1.5 V 2 4 H 1 V 1 0.5 C 1,0.223 0.777,0 0.5,0 Z m 3,0 C 2.671573,0 2,0.671573 2,1.5 2,2.328427 2.671573,3 3.5,3 4.328427,3 5,2.328427 5,1.5 5,0.671573 4.328427,0 3.5,0 Z M 6,1 v 2 h 6 C 12,2 10.963825,1 10,1 Z M 4,6 3,9 C 2.527334,9 2,9.384295 2,10 v 3 h 1 c 0,0 0,1 1,1 1,0 1,-1 1,-1 h 4 c 0,0 0,1 1,1 1,0 1,-1 1,-1 h 1 V 10 C 12,9.479394 11.544575,9 11,9 L 10,6 Z m 1,1 h 4 l 0.625,2 h -5.25 z m -1,3.25 c 0.414214,0 0.75,0.335786 0.75,0.75 0,0.414214 -0.335786,0.75 -0.75,0.75 -0.414214,0 -0.75,-0.335786 -0.75,-0.75 0,-0.414214 0.335786,-0.75 0.75,-0.75 z m 6,0 c 0.414214,0 0.75,0.335786 0.75,0.75 0,0.414214 -0.335786,0.75 -0.75,0.75 -0.414214,0 -0.75,-0.335786 -0.75,-0.75 0,-0.414214 0.335786,-0.75 0.75,-0.75 z"/>
</svg>
