<svg xmlns="http://www.w3.org/2000/svg" id="icon" width="14" height="14" viewBox="0 0 14 14">
  <path d="M 7 0 A 7 7 0 0 0 0 7 A 7 7 0 0 0 7 14 A 7 7 0 0 0 14 7 A 7 7 0 0 0 7 0 z M 7 1.5 A 5.5 5.5 0 0 1 12.5 7 A 5.5 5.5 0 0 1 7 12.5 A 5.5 5.5 0 0 1 1.5 7 A 5.5 5.5 0 0 1 7 1.5 z M 7 2.8691406 A 1.0399773 1.0399773 0 0 0 5.9609375 3.9101562 A 1.0399773 1.0399773 0 0 0 7 4.9492188 A 1.0399773 1.0399773 0 0 0 8.0390625 3.9101562 A 1.0399773 1.0399773 0 0 0 7 2.8691406 z M 7.6875 5.6347656 L 5.6269531 6.3222656 L 5.6269531 7.0078125 L 6.2597656 7.0078125 L 6.3125 10.443359 L 5.6269531 10.443359 L 5.6269531 11.130859 L 8.3730469 11.130859 L 8.3730469 10.443359 L 7.6875 10.443359 L 7.6875 5.6347656 z"/>
</svg>
