<svg xmlns="http://www.w3.org/2000/svg" id="icon" width="14" height="14" viewBox="0 0 14 14">
  <path d="M 2,2 C 1,2 0,3 0,4 l 0,4 c 0,1 1,2 2,2 l 1.0625,0 C 3.295616,8.860792 4.291877,8 5.5,8 6.708123,8 7.704384,8.860792 7.9375,10 L 14,10 c 0,0 0,-1 -1,-1 l -1.5,0 0,-5 c 0,-0.9606645 -1.024338,-2 -2,-2 z M 2.84375,4 C 2.9375,3.984375 3,4 3,4 L 5,4 C 5,4 6,4 6,5 6,6 5,6 5,6 L 3,6 C 3,6 2,6 2,5 2,4.25 2.5625,4.046875 2.84375,4 z M 8,4 8.5,4 c 0,0 1,0 1,1 0,1 -1,1 -1,1 L 8,6 C 8,6 7,6 7,5 7,4 8,4 8,4 z M 5.5,9 C 4.671573,9 4,9.671573 4,10.5 4,11.328427 4.671573,12 5.5,12 6.328427,12 7,11.328427 7,10.5 7,9.671573 6.328427,9 5.5,9 z"/>
</svg>
