<svg xmlns="http://www.w3.org/2000/svg" id="icon" width="14" height="14" viewBox="0 0 14 14">
  <path d="M 0.5,3 C 0.223,3 0,3.223 0,3.5 V 4 8 9 9.5 11 H 1 V 9.5 9 H 13 V 10.5 11 H 13.5 14 V 10.5 9 8 6 5.5 C 14,5.223 13.777,5 13.5,5 13.223,5 13,5.223 13,5.5 V 6 8 H 1 V 4 3.5 C 1,3.223 0.777,3 0.5,3 Z m 3,1 C 2.671573,4 2,4.671573 2,5.5 2,6.328427 2.671573,7 3.5,7 4.328427,7 5,6.328427 5,5.5 5,4.671573 4.328427,4 3.5,4 Z M 6,5 v 2 h 6 C 12,6 10.963825,5 10,5 Z" />
  <rect width="14" height="2" opacity="0.5"/>
  <rect y="12" width="14" height="2" opacity="0.5"/>
</svg>
