<?xml version="1.0" encoding="UTF-8" standalone="no"?>
<!-- Created with Inkscape (http://www.inkscape.org/) -->

<svg
   xmlns:dc="http://purl.org/dc/elements/1.1/"
   xmlns:cc="http://creativecommons.org/ns#"
   xmlns:rdf="http://www.w3.org/1999/02/22-rdf-syntax-ns#"
   xmlns:svg="http://www.w3.org/2000/svg"
   xmlns="http://www.w3.org/2000/svg"
   xmlns:sodipodi="http://sodipodi.sourceforge.net/DTD/sodipodi-0.dtd"
   xmlns:inkscape="http://www.inkscape.org/namespaces/inkscape"
   id="svg6042"
   version="1.1"
   inkscape:version="0.91 r13725"
   width="20"
   height="20"
   sodipodi:docname="blank_moderator.svg"
   inkscape:export-filename="/Users/saman/work_repos/openstreetmap-website/app/assets/images/roles/blank_moderator.png"
   inkscape:export-xdpi="90"
   inkscape:export-ydpi="90">
  <metadata
     id="metadata6048">
    <rdf:RDF>
      <cc:Work
         rdf:about="">
        <dc:format>image/svg+xml</dc:format>
        <dc:type
           rdf:resource="http://purl.org/dc/dcmitype/StillImage" />
        <dc:title />
      </cc:Work>
    </rdf:RDF>
  </metadata>
  <defs
     id="defs6046" />
  <sodipodi:namedview
     pagecolor="#ffffff"
     bordercolor="#666666"
     borderopacity="1"
     objecttolerance="10"
     gridtolerance="10"
     guidetolerance="10"
     inkscape:pageopacity="0"
     inkscape:pageshadow="2"
     inkscape:window-width="1945"
     inkscape:window-height="1361"
     id="namedview6044"
     showgrid="false"
     inkscape:zoom="16"
     inkscape:cx="19.109134"
     inkscape:cy="12.228091"
     inkscape:window-x="0"
     inkscape:window-y="27"
     inkscape:window-maximized="0"
     inkscape:current-layer="svg6042" />
  <path
     inkscape:connector-curvature="0"
     style="color:#000000;fill:#ffffff;fill-opacity:1;fill-rule:nonzero;stroke:none;stroke-width:2;marker:none;visibility:visible;display:inline;overflow:visible;enable-background:accumulate"
     d="M 10,2 8.125,8 2,8 6.96875,11.71875 5,18 10,14 15,18 13.03125,11.71875 18,8 11.875,8 10,2 z"
     id="path5684" />
  <g
     transform="matrix(0.06756019,0,0,0.06756019,-0.19621975,-4.4790224)"
     id="g18"
     style="fill:#1313ff;fill-opacity:1">
    <g
       id="g20"
       style="fill:#1313ff;fill-opacity:1">
      <path
         style="stroke:none;fill:#1313ff;fill-opacity:1"
         inkscape:connector-curvature="0"
         d="m 101.5312,140.7656 42.6094,29.8125 -10.8281,15.6094 -42.6094,-29.9531 10.8281,-15.4688 z m 70.0313,61.0313 q 0,-8.2969 5.7656,-13.9922 5.7657,-5.6953 13.9219,-5.6953 8.1562,0 13.9922,5.6953 5.8359,5.6953 5.8359,13.9922 0,8.1562 -5.8359,13.9922 -5.836,5.8359 -13.9922,5.8359 -8.2969,0 -13.9922,-5.8359 -5.6953,-5.836 -5.6953,-13.9922 z m -81.2813,0 q 0,-8.2969 5.6954,-13.9922 5.6953,-5.6953 13.9922,-5.6953 8.1562,0 13.9218,5.6953 5.7656,5.6953 5.7656,13.9922 0,8.2969 -5.7656,14.0625 -5.7656,5.7656 -13.9218,5.7656 -8.2969,0 -13.9922,-5.8359 -5.6954,-5.836 -5.6954,-13.9922 z m 108.5626,-61.0313 10.8281,15.4688 -42.6094,29.9531 -10.8281,-15.6094 42.6094,-29.8125 z M 76.0781,269.8594 92.25,259.875 q 3.9375,6.1875 9.5625,11.5312 19.9687,19.9688 48.375,19.9688 28.4063,0 48.375,-19.9688 5.4844,-5.4843 9.5625,-11.6718 l 16.1719,10.125 q -5.2031,8.0156 -12.2344,15.0468 -25.5937,25.4532 -61.875,25.4532 -36.2813,0 -61.875,-25.4532 -7.0313,-7.1718 -12.2344,-15.0468 z M 42.8906,230.3438 q 0,44.4374 31.4297,75.7265 31.4297,31.2891 75.8672,31.2891 44.5781,0 75.8672,-31.2891 31.2891,-31.2891 31.2891,-75.7265 0,-44.5782 -31.2891,-76.0782 -31.2891,-31.5 -75.8672,-31.5 -44.4375,0 -75.8672,31.5 -31.4297,31.5 -31.4297,76.0782 z m 67.7813,-120.6563 q 18.5625,-5.9063 39.5156,-5.9063 20.9531,0 39.5156,5.9063 L 252,76.5 l 0,78.75 q 24.3281,32.4844 24.3281,75.0938 0,52.3124 -36.8437,89.1562 -36.8438,36.8438 -89.2969,36.8438 -52.3125,0 -89.2969,-36.8438 -36.9844,-36.8438 -36.9844,-89.1562 0,-42.6094 24.4688,-75.0938 l 0,-78.75 62.2969,33.1875 z"
         id="path22" />
    </g>
  </g>
</svg>
