<?xml version="1.0" encoding="UTF-8" standalone="no"?>
<!-- Created with Inkscape (http://www.inkscape.org/) -->

<svg
   xmlns:dc="http://purl.org/dc/elements/1.1/"
   xmlns:cc="http://creativecommons.org/ns#"
   xmlns:rdf="http://www.w3.org/1999/02/22-rdf-syntax-ns#"
   xmlns:svg="http://www.w3.org/2000/svg"
   xmlns="http://www.w3.org/2000/svg"
   xmlns:sodipodi="http://sodipodi.sourceforge.net/DTD/sodipodi-0.dtd"
   xmlns:inkscape="http://www.inkscape.org/namespaces/inkscape"
   width="72"
   height="48"
   id="svg2"
   version="1.1"
   inkscape:version="0.48.2 r9819"
   sodipodi:docname="byosm.svg"
   inkscape:export-filename="./byosm.png"
   inkscape:export-xdpi="90"
   inkscape:export-ydpi="90">
  <defs
     id="defs4">
    <clipPath
       clipPathUnits="userSpaceOnUse"
       id="clipPath3009">
      <rect
         style="color:#000000;fill:#5789ad;fill-opacity:1;fill-rule:nonzero;stroke:none;stroke-width:1.5;marker:none;visibility:visible;display:inline;overflow:visible;enable-background:accumulate"
         id="rect3011"
         width="200"
         height="99.999962"
         x="0"
         y="952.36218" />
    </clipPath>
  </defs>
  <sodipodi:namedview
     id="base"
     pagecolor="#ffffff"
     bordercolor="#666666"
     borderopacity="1.0"
     inkscape:pageopacity="0.0"
     inkscape:pageshadow="2"
     inkscape:zoom="1"
     inkscape:cx="41.179057"
     inkscape:cy="10.971473"
     inkscape:document-units="px"
     inkscape:current-layer="layer8"
     showgrid="false"
     inkscape:snap-midpoints="false"
     inkscape:snap-bbox="true"
     showguides="true"
     inkscape:guide-bbox="true">
    <inkscape:grid
       type="xygrid"
       id="grid2985"
       empspacing="5"
       visible="true"
       enabled="true"
       snapvisiblegridlinesonly="true"
       spacingx="0.5px"
       spacingy="0.5px" />
  </sodipodi:namedview>
  <metadata
     id="metadata7">
    <rdf:RDF>
      <cc:Work
         rdf:about="">
        <dc:format>image/svg+xml</dc:format>
        <dc:type
           rdf:resource="http://purl.org/dc/dcmitype/StillImage" />
        <dc:title></dc:title>
      </cc:Work>
    </rdf:RDF>
  </metadata>
  <g
     inkscape:groupmode="layer"
     id="layer8"
     inkscape:label="By OSM"
     style="opacity:0.98000004;display:inline"
     transform="translate(0,-152)">
    <g
       id="g4219"
       transform="translate(-128,0)">
      <rect
         y="176"
         x="176"
         height="24"
         width="24"
         id="rect4212"
         style="color:#000000;fill:#000000;fill-opacity:0;fill-rule:nonzero;stroke:none;stroke-width:1.5;marker:none;visibility:visible;display:inline;overflow:visible;enable-background:accumulate" />
      <path
         style="color:#000000;fill:#000000;fill-opacity:0.25098039;fill-rule:nonzero;stroke:none;stroke-width:1.5;marker:none;visibility:visible;display:inline;overflow:visible;enable-background:accumulate"
         d="m 188,177.5 c -4.69442,0 -8.5,3.8056 -8.5,8.5 0,2.34723 0.96181,4.4618 2.5,6 l 6,6.03125 L 194,192 c 1.53819,-1.5382 2.5,-3.65277 2.5,-6 0,-4.6944 -3.80558,-8.5 -8.5,-8.5 z m 0,1.5 c 3.86599,0 7,3.13402 7,7 0,1.28867 -0.35764,2.49784 -0.96875,3.53125 L 189.5,185 l 0.5,-0.5 0,-0.5 c 0,-0.5522 0.44772,-1 1,-1 l 1.5,0 -0.5,-1 -4.5,0 -2.5,2.5 0,1 -0.5,0.5 -0.5,-0.5 -1.5,1 3,3 1,-1.5 -0.5,-0.5 0.5,-0.5 1,0 0.5,-0.5 4.6875,4.6875 -4.6875,4.71875 -4.9375,-4.96875 C 181.79575,189.67075 181,187.93301 181,186 c 0,-3.86598 3.13401,-7 7,-7 z"
         id="path4206"
         inkscape:connector-curvature="0"
         sodipodi:nodetypes="sscccsssscccsscccccccccccccccccss" />
      <path
         style="color:#000000;fill:#ffffff;fill-opacity:0.50196078;fill-rule:nonzero;stroke:none;stroke-width:1.5;marker:none;visibility:visible;display:inline;overflow:visible;enable-background:accumulate"
         d="m 188,179 c -3.86599,0 -7,3.13402 -7,7 0,1.93301 0.79575,3.67075 2.0625,4.9375 L 188,195.90625 192.6875,191.1875 188,186.5 l -0.5,0.5 -1,0 -0.5,0.5 0.5,0.5 -1,1.5 -3,-3 1.5,-1 0.5,0.5 0.5,-0.5 0,-1 2.5,-2.5 4.5,0 0.5,1 -1.5,0 c -0.55228,0 -1,0.4478 -1,1 l 0,0.5 -0.5,0.5 4.53125,4.53125 C 194.64236,188.49784 195,187.28867 195,186 c 0,-3.86598 -3.13401,-7 -7,-7 z"
         id="path4189"
         inkscape:connector-curvature="0"
         sodipodi:nodetypes="sscccccccccccccccccsscccss" />
    </g>
    <g
       transform="matrix(2,0,0,2,-352,-200)"
       id="g2989">
      <rect
         style="color:#000000;fill:#000000;fill-opacity:0;fill-rule:nonzero;stroke:none;stroke-width:1.5;marker:none;visibility:visible;display:inline;overflow:visible;enable-background:accumulate"
         id="rect2991"
         width="24"
         height="24"
         x="176"
         y="176" />
      <path
         sodipodi:nodetypes="sscccsssscccsscccccccccccccccccss"
         inkscape:connector-curvature="0"
         id="path2993"
         d="m 188,177.5 c -4.69442,0 -8.5,3.8056 -8.5,8.5 0,2.34723 0.96181,4.4618 2.5,6 l 6,6.03125 L 194,192 c 1.53819,-1.5382 2.5,-3.65277 2.5,-6 0,-4.6944 -3.80558,-8.5 -8.5,-8.5 z m 0,1.5 c 3.86599,0 7,3.13402 7,7 0,1.28867 -0.35764,2.49784 -0.96875,3.53125 L 189.5,185 l 0.5,-0.5 0,-0.5 c 0,-0.5522 0.44772,-1 1,-1 l 1.5,0 -0.5,-1 -4.5,0 -2.5,2.5 0,1 -0.5,0.5 -0.5,-0.5 -1.5,1 3,3 1,-1.5 -0.5,-0.5 0.5,-0.5 1,0 0.5,-0.5 4.6875,4.6875 -4.6875,4.71875 -4.9375,-4.96875 C 181.79575,189.67075 181,187.93301 181,186 c 0,-3.86598 3.13401,-7 7,-7 z"
         style="color:#000000;fill:#000000;fill-opacity:0.25098039;fill-rule:nonzero;stroke:none;stroke-width:1.5;marker:none;visibility:visible;display:inline;overflow:visible;enable-background:accumulate" />
      <path
         sodipodi:nodetypes="sscccccccccccccccccsscccss"
         inkscape:connector-curvature="0"
         id="path2995"
         d="m 188,179 c -3.86599,0 -7,3.13402 -7,7 0,1.93301 0.79575,3.67075 2.0625,4.9375 L 188,195.90625 192.6875,191.1875 188,186.5 l -0.5,0.5 -1,0 -0.5,0.5 0.5,0.5 -1,1.5 -3,-3 1.5,-1 0.5,0.5 0.5,-0.5 0,-1 2.5,-2.5 4.5,0 0.5,1 -1.5,0 c -0.55228,0 -1,0.4478 -1,1 l 0,0.5 -0.5,0.5 4.53125,4.53125 C 194.64236,188.49784 195,187.28867 195,186 c 0,-3.86598 -3.13401,-7 -7,-7 z"
         style="color:#000000;fill:#ffffff;fill-opacity:0.50196078;fill-rule:nonzero;stroke:none;stroke-width:1.5;marker:none;visibility:visible;display:inline;overflow:visible;enable-background:accumulate" />
    </g>
  </g>
</svg>
