<?xml version="1.0" encoding="UTF-8" standalone="no"?>
<!-- Created with Inkscape (http://www.inkscape.org/) -->

<svg
   xmlns:dc="http://purl.org/dc/elements/1.1/"
   xmlns:cc="http://creativecommons.org/ns#"
   xmlns:rdf="http://www.w3.org/1999/02/22-rdf-syntax-ns#"
   xmlns:svg="http://www.w3.org/2000/svg"
   xmlns="http://www.w3.org/2000/svg"
   xmlns:sodipodi="http://sodipodi.sourceforge.net/DTD/sodipodi-0.dtd"
   xmlns:inkscape="http://www.inkscape.org/namespaces/inkscape"
   id="svg5873"
   version="1.1"
   inkscape:version="0.92.1 r15371"
   width="20"
   height="20"
   sodipodi:docname="OSMF.svg"
   inkscape:export-filename="/home/osmwebsite/openstreetmap-website/app/assets/images/membership/OSMF.png"
   inkscape:export-xdpi="96"
   inkscape:export-ydpi="96">
  <metadata
     id="metadata5879">
    <rdf:RDF>
      <cc:Work
         rdf:about="">
        <dc:format>image/svg+xml</dc:format>
        <dc:type
           rdf:resource="http://purl.org/dc/dcmitype/StillImage" />
        <dc:title></dc:title>
      </cc:Work>
    </rdf:RDF>
  </metadata>
  <defs
     id="defs5877">
    <linearGradient
       id="linearGradient5745">
      <stop
         style="stop-color:#d0e9f2;stop-opacity:0;"
         offset="0"
         id="stop5747" />
      <stop
         id="stop5753"
         offset="0.83932751"
         style="stop-color:#d0e9f2;stop-opacity:0;" />
      <stop
         style="stop-color:#d0e9f2;stop-opacity:0.28185329;"
         offset="0.94308507"
         id="stop5755" />
      <stop
         style="stop-color:#d0e9f2;stop-opacity:1;"
         offset="1"
         id="stop5749" />
    </linearGradient>
    <linearGradient
       id="linearGradient5762">
      <stop
         style="stop-color:#2d3335;stop-opacity:1;"
         offset="0"
         id="stop5764" />
      <stop
         id="stop5770"
         offset="0.5"
         style="stop-color:#4c464a;stop-opacity:1;" />
      <stop
         style="stop-color:#384042;stop-opacity:1;"
         offset="1"
         id="stop5766" />
    </linearGradient>
    <linearGradient
       id="linearGradient5862">
      <stop
         style="stop-color:#f9e295;stop-opacity:1;"
         offset="0"
         id="stop5864" />
      <stop
         id="stop5876"
         offset="0.125"
         style="stop-color:#f7dd84;stop-opacity:1;" />
      <stop
         id="stop5874"
         offset="0.20580582"
         style="stop-color:#ffffff;stop-opacity:1;" />
      <stop
         id="stop5870"
         offset="0.30112621"
         style="stop-color:#f4ce51;stop-opacity:1;" />
      <stop
         style="stop-color:#f9e7aa;stop-opacity:1;"
         offset="0.3412039"
         id="stop5872" />
      <stop
         style="stop-color:#efbb0e;stop-opacity:1;"
         offset="1"
         id="stop5866" />
    </linearGradient>
  </defs>
  <sodipodi:namedview
     pagecolor="#ffffff"
     bordercolor="#666666"
     borderopacity="1"
     objecttolerance="10"
     gridtolerance="10"
     guidetolerance="10"
     inkscape:pageopacity="0"
     inkscape:pageshadow="2"
     inkscape:window-width="1920"
     inkscape:window-height="1016"
     id="namedview5875"
     showgrid="false"
     inkscape:zoom="11.313709"
     inkscape:cx="-9.0497434"
     inkscape:cy="1.314849"
     inkscape:window-x="0"
     inkscape:window-y="27"
     inkscape:window-maximized="1"
     inkscape:current-layer="svg5873"
     units="px" />
  <path
     style="display:inline;fill:#b6ffc3;fill-opacity:1;stroke:#000000;stroke-width:0.5;stroke-linecap:butt;stroke-linejoin:miter;stroke-miterlimit:4;stroke-dasharray:none;stroke-opacity:1"
     d="M 0.59497971,0.84916772 2.0968484,5.2921975 0.92872892,9.2763224 2.0134119,13.802791 0.97044656,18.391836 6.0392544,18.996752 9.3976016,17.932936 13.715475,19.163632 18.095927,18.016369 19.18061,13.635917 18.033349,9.5057736 19.451783,5.2921975 18.137645,0.66143486 13.736336,1.9755694 9.4184603,0.80744942 5.2883208,1.9547108 Z"
     id="path7004"
     inkscape:connector-curvature="0" />
  <g
     transform="matrix(0.07948193,0.0789355,-0.0789355,0.07948193,27.240102,7.7303228)"
     style="display:inline;opacity:0.3;stroke:none;fill:#010202;fill-opacity:1"
     id="g6060">
    <path
       sodipodi:nodetypes="csssccsssc"
       id="path5604"
       d="m -82,136 c -27.61424,0 -50,-22.38576 -50,-50 0,-27.61424 22.38576,-50 50,-50 27.61424,0 50,22.38576 50,50 0,27.61424 -22.38576,50 -50,50 z m 0,-3 c 26.50967,0 48,-20.49033 48,-47 0,-26.50967 -21.49033,-47 -48,-47 -26.50967,0 -48,20.49033 -48,47 0,26.50967 21.49033,47 48,47 z"
       style="fill:#010202;fill-opacity:1;stroke:none"
       inkscape:connector-curvature="0" />
    <path
       id="path5604-2"
       d="m -82.00007,136 c -27.61424,0 -50,-22.38576 -50,-50 0,-0.168279 -0.002,-0.332113 0,-0.5 0.27054,27.38199 22.55404,49.5 50,49.5 27.44596,0 49.72946,-22.11801 50,-49.5 0.002,0.167887 0,0.331721 0,0.5 0,27.61424 -22.38576,50 -50,50 z m -48,-50.5 c -0.002,-0.16719 0,-0.332325 0,-0.5 0,-26.50967 21.49033,-47 48,-47 26.50967,0 48,20.49033 48,47 0,0.167675 0.002,0.33281 0,0.5 -0.26948,-26.26576 -21.65801,-46.5 -48,-46.5 -26.34199,0 -47.73051,20.23424 -48,46.5 z"
       style="fill:#010202;fill-opacity:1;stroke:none"
       inkscape:connector-curvature="0" />
    <path
       sodipodi:nodetypes="csssc"
       id="path5604-9"
       d="m -82,134 c 26.50967,0 48,-21.49033 48,-48 0,-26.50967 -21.49033,-48 -48,-48 -26.50967,0 -48,21.49033 -48,48 0,26.50967 21.49033,48 48,48 z"
       style="fill:#010202;fill-opacity:1;stroke:none"
       inkscape:connector-curvature="0" />
    <path
       sodipodi:nodetypes="csssc"
       id="path5604-9-1"
       d="m -82,134 c 26.50967,0 48,-21.49034 48,-48 0,-26.509675 -21.49033,-48 -48,-48 -26.50967,0 -48,21.490325 -48,48 0,26.50966 21.49033,48 48,48 z"
       style="fill:#010202;fill-opacity:1;stroke:none"
       inkscape:connector-curvature="0" />
    <path
       id="path5604-9-1-8-8"
       d="m -96.4375,130.71875 -0.84375,5 C -92.45117,137.2009 -87.31584,138 -82,138 c 5.31584,0 10.45117,-0.7991 15.28125,-2.28125 l -0.84375,-5 C -72.11472,132.1879 -76.95892,133 -82,133 c -5.04108,0 -9.88528,-0.8121 -14.4375,-2.28125 z"
       style="fill:#010202;fill-opacity:1;stroke:none"
       inkscape:connector-curvature="0" />
    <path
       id="rect5757"
       d="m -82,136.25 c 1.75679,0 3.4314,0.29816 5,0.8125 v 26.625 c -1.5686,0.51434 -3.24321,0.8125 -5,0.8125 -1.75679,0 -3.4314,-0.29816 -5,-0.8125 v -26.625 c 1.5686,-0.51434 3.24321,-0.8125 5,-0.8125 z"
       style="fill:#010202;fill-opacity:1;stroke:none"
       inkscape:connector-curvature="0" />
    <path
       sodipodi:nodetypes="cccsccc"
       id="rect5757-8-7"
       d="m -82,150.5 c 3.51358,0 5.6128,0.65272 8,2.43805 v 67.1239 c -3.1372,0.91033 -4.48642,1.43805 -8,1.43805 -3.51358,0 -4.8628,-0.52772 -8,-1.43805 v -67.1239 c 2.6372,-1.78533 4.48642,-2.43805 8,-2.43805 z"
       style="fill:#010202;fill-opacity:1;stroke:none"
       inkscape:connector-curvature="0" />
    <path
       sodipodi:nodetypes="cccsccc"
       id="rect5757-8"
       d="m -82,154.5 c 3.51358,0 7.2378,0.77772 10,2.43805 v 65.1239 c -2.0122,1.78533 -6.48642,2.43805 -10,2.43805 -3.51358,0 -7.8628,-0.15272 -10,-2.43805 v -65.1239 c 1.8872,-1.66033 6.48642,-2.43805 10,-2.43805 z"
       style="fill:#010202;fill-opacity:1;stroke:none"
       inkscape:connector-curvature="0" />
    <path
       sodipodi:nodetypes="cccsccc"
       id="rect5757-8-7-7"
       d="m -82,217.5 c 3.51358,0 5.8628,0.77772 8,2.43805 v 5.1239 c -2.3872,1.53533 -4.48642,2.43805 -8,2.43805 -3.51358,0 -5.7378,-0.90272 -8,-2.43805 v -5.1239 c 2.3872,-1.91033 4.48642,-2.43805 8,-2.43805 z"
       style="fill:#010202;fill-opacity:1;stroke:none"
       inkscape:connector-curvature="0" />
    <path
       id="rect5757-8-7-7-0"
       d="m -82,221.5 c -3.51358,0 -5.6128,0.27717 -8,2.4375 v 1.125 c 2.2622,1.53533 4.48642,2.4375 8,2.4375 3.51358,0 5.6128,-0.90217 8,-2.4375 v -1.125 c -2.5122,-2.03533 -4.48642,-2.4375 -8,-2.4375 z"
       style="fill:#010202;fill-opacity:1;stroke:none"
       inkscape:connector-curvature="0" />
  </g>
  <text
     xml:space="preserve"
     style="font-style:normal;font-weight:normal;font-size:51.64279938px;line-height:32.27674866px;font-family:sans-serif;letter-spacing:0px;word-spacing:0px;fill:#000000;fill-opacity:1;stroke:none;stroke-width:1.29106998"
     x="2.8661711"
     y="16.288464"
     id="text4622"><tspan
       sodipodi:role="line"
       x="2.8661711"
       y="16.288464"
       style="font-style:normal;font-variant:normal;font-weight:normal;font-stretch:normal;font-size:17.21426582px;line-height:12.91069984px;font-family:'DejaVu Sans';-inkscape-font-specification:'DejaVu Sans';stroke-width:1.29106998"
       id="tspan4640">M</tspan><tspan
       sodipodi:role="line"
       x="2.8661711"
       y="48.565212"
       style="font-style:normal;font-variant:normal;font-weight:normal;font-stretch:normal;font-size:17.21426582px;line-height:12.91069984px;font-family:FreeSans;-inkscape-font-specification:FreeSans;stroke-width:1.29106998"
       id="tspan4644" /></text>
</svg>
