<svg xmlns="http://www.w3.org/2000/svg" width="430" height="165">
  <defs>
    <clipPath id="H">
      <path id="B" d="M1071-406c-4.566 0-8.428 3.068-9.625 7.25L1049-361h22l9.563-32v-.062c.019-.062.046-.125.063-.187.251-.876.375-1.793.375-2.75a10 10 0 0 0-10-10zm40 0a10 10 0 0 0-10 10c0 .957.124 1.874.375 2.75l.063.188c.01.019-.01.044 0 .063L1111-361h20l-10.375-37.75c-1.197-4.182-5.059-7.25-9.625-7.25z"/>
    </clipPath>
    <linearGradient id="X" x1="1156.096" x2="1144.038" y1="942.612" y2="897.612" href="#U">
      <stop offset="0"/>
      <stop offset="1" stop-opacity="0"/>
    </linearGradient>
    <linearGradient id="Y" x1="1103.75" x2="1103.75" y1="883.112" y2="905.884" href="#U">
      <stop offset="0" stop-color="#fff"/>
      <stop offset="1" stop-color="#ebf2fd"/>
    </linearGradient>
    <linearGradient id="Z" x1="284" x2="284" y1="-395" y2="-358.875" href="#U">
      <stop offset="0" stop-color="#a2c9ed"/>
      <stop offset="1" stop-color="#7a9dfc"/>
    </linearGradient>
    <linearGradient id="U" gradientUnits="userSpaceOnUse"/>
    <linearGradient id="W" x1="1226" x2="1226" y1="36.5" y2="119" href="#U">
      <stop offset="0" stop-color="#b2dbea"/>
      <stop offset="1" stop-color="#7092ff"/>
    </linearGradient>
    <linearGradient id="L" x1="1108" x2="1108" y1="-361" y2="-500.732" href="#U">
      <stop offset="0" stop-color="#cbeea7"/>
      <stop offset="1" stop-color="#cee8c1"/>
    </linearGradient>
    <linearGradient id="T" x1="1184" x2="1184" y1="-405" y2="-533.035" href="#U">
      <stop offset="0" stop-color="#fff" stop-opacity="0.25"/>
      <stop offset="1" stop-color="#fff" stop-opacity="0"/>
    </linearGradient>
    <linearGradient id="S" x1="1254.219" x2="1254.219" y1="789.359" y2="942.362" href="#U">
      <stop offset="0" stop-color="#222"/>
      <stop offset="1" stop-color="#adadc6" stop-opacity="0"/>
    </linearGradient>
    <radialGradient id="A" cx="1218.2" cy="124.603" r="110" fx="1218.2" fy="124.603" gradientTransform="matrix(0,-1.09375,1.0937499,0,1099.715,1451.4055)" href="#U">
      <stop offset=".857" stop-color="#ccf1ff" stop-opacity="0"/>
      <stop offset="1" stop-color="#789afb"/>
    </radialGradient>
    <clipPath id="K">
      <use href="#G" transform="matrix(1.454546 0 0 1.454546 -611.81823 -534.09093)"/>
    </clipPath>
    <mask id="M">
      <rect width="550" height="200" x="900" y="-550" fill="url(#T)"/>
    </mask>
    <path id="G" d="M 1126,119 A 110,110 0 0 1 1346,119"/>
    <path id="C" d="M1241-511v-.281a110 110 0 00-15.75-4.875l-.031.156 7.781 9h5Zm-19 5 6 8h7l-8-8Zm33.5.875-2.375 4.125H1241l-5.781 10 5.781 10-10 .313-4.437 4.688v5l8.656 5H1246l8.656-15H1261l10 8 1.344 5H1276v-8l5 3 5 2h5l5 5h10v10h-15v5h-10l-10-10h-35l-5 5v10h-5l-10 20v5l5 5v15l20 20h20l5-5h10l10 10v10l3.344 5H1346A110 110 0 001255.503-505.122Zm-39.5 4.125 3 5h5l-3-5Zm-85.75-10A110 110 0 001041-428.719v12.719l15 15v10h5l5 5v5l-5 5v15h105l-10-10h-20l-5-5v-5l-40-25h-10l-10 10h-10v-15l-5-5 5-5v-5h-15l10-20 15-5v15h5l5-5v-10l25-30h5l40-15v-10l-5-5zm54.75-10a110 110 0 00-19 1.25v8.75l5 5h10z"/>
    <path id="I" d="M0-6.266h4.834v-14.194l-4.497 1.113v-3.896l4.526-1.084h4.175v18.062h4.834v3.809h-13.872z"/>
    <path id="O" d="M0-13.37q0-5.684 1.802-8.511 1.802-2.842 5.42-2.842 3.633 0 5.435 2.827 1.802 2.827 1.802 8.525 0 5.684-1.802 8.511-1.802 2.827-5.435 2.827-3.618 0-5.42-2.827-1.802-2.842-1.802-8.511zm5.039 5.845q.688 1.831 2.183 1.831 1.509 0 2.197-1.831.688-1.831.688-5.845 0-1.523-.102-2.725l-5.112 8.145q.073.234.147.425zm2.183-13.535q-1.494 0-2.183 1.831-.688 1.831-.688 5.859 0 1.245.059 2.271l5.039-8.042q-.015-.044-.029-.088-.688-1.831-2.197-1.831z"/>
  </defs>
  <g transform="translate(-940 -777.362)">
    <use fill="url(#A)" href="#G" transform="matrix(1.5 0 0 1.5 -649.00018 763.86218)"/>
    <use fill="url(#W)" href="#G" transform="matrix(1.454546 0 0 1.454546 -592.81822 769.27127)"/>
    <g fill="#fff" clip-path="url(#K)" mask="url(#M)" transform="translate(19 1303.362)">
      <use x="1113.109" y="-500" href="#O"/><use x="1132.123" y="-500" href="#I"/><use x="1149.232" y="-500" href="#O"/><use x="1168.246" y="-500" href="#I"/><use x="1185.356" y="-500" href="#O"/><use x="1204.369" y="-500" href="#I"/><use x="1221.479" y="-500" href="#O"/><use x="1240.492" y="-500" href="#I"/><use x="1058.925" y="-462.5" href="#O"/><use x="1076.986" y="-462.5" href="#O"/><use x="1096" y="-462.5" href="#I"/><use x="1113.109" y="-462.5" href="#O"/><use x="1132.123" y="-462.5" href="#I"/><use x="1149.232" y="-462.5" href="#O"/><use x="1168.246" y="-462.5" href="#I"/><use x="1185.356" y="-462.5" href="#O"/><use x="1204.369" y="-462.5" href="#I"/><use x="1221.479" y="-462.5" href="#O"/><use x="1239.54" y="-462.5" href="#O"/><use x="1258.554" y="-462.5" href="#I"/><use x="1276.615" y="-462.5" href="#I"/><use x="1293.725" y="-462.5" href="#O"/><use x="1040.863" y="-425" href="#O"/><use x="1059.877" y="-425" href="#I"/><use x="1076.986" y="-425" href="#O"/><use x="1096" y="-425" href="#I"/><use x="1113.109" y="-425" href="#O"/><use x="1132.123" y="-425" href="#I"/><use x="1149.232" y="-425" href="#O"/><use x="1168.246" y="-425" href="#I"/><use x="1185.356" y="-425" href="#O"/><use x="1203.417" y="-425" href="#O"/><use x="1222.431" y="-425" href="#I"/><use x="1239.54" y="-425" href="#O"/><use x="1258.554" y="-425" href="#I"/><use x="1275.663" y="-425" href="#O"/><use x="1294.677" y="-425" href="#I"/><use x="1312.738" y="-425" href="#I"/><use x="1022.802" y="-387.5" href="#O"/><use x="1041.815" y="-387.5" href="#I"/><use x="1058.925" y="-387.5" href="#O"/><use x="1077.939" y="-387.5" href="#I"/><use x="1096" y="-387.5" href="#I"/><use x="1114.062" y="-387.5" href="#I"/><use x="1131.171" y="-387.5" href="#O"/><use x="1150.185" y="-387.5" href="#I"/><use x="1167.294" y="-387.5" href="#O"/><use x="1186.308" y="-387.5" href="#I"/><use x="1203.417" y="-387.5" href="#O"/><use x="1222.431" y="-387.5" href="#I"/><use x="1239.54" y="-387.5" href="#O"/><use x="1258.554" y="-387.5" href="#I"/><use x="1276.615" y="-387.5" href="#I"/><use x="1293.725" y="-387.5" href="#O"/><use x="1312.738" y="-387.5" href="#I"/><use x="1329.848" y="-387.5" href="#O"/><use x="1022.802" y="-350" href="#O"/><use x="1040.863" y="-350" href="#O"/><use x="1058.925" y="-350" href="#O"/><use x="1077.939" y="-350" href="#I"/><use x="1095.048" y="-350" href="#O"/><use x="1114.062" y="-350" href="#I"/><use x="1131.171" y="-350" href="#O"/><use x="1150.185" y="-350" href="#I"/><use x="1167.294" y="-350" href="#O"/><use x="1185.356" y="-350" href="#O"/><use x="1203.417" y="-350" href="#O"/><use x="1221.479" y="-350" href="#O"/><use x="1240.492" y="-350" href="#I"/><use x="1258.554" y="-350" href="#I"/><use x="1275.663" y="-350" href="#O"/><use x="1293.725" y="-350" href="#O"/><use x="1311.786" y="-350" href="#O"/><use x="1330.8" y="-350" href="#I"/>
    </g>
    <use fill="#222" href="#C" clip-path="url(#K)" filter="blur(5.813px)" opacity=".25" transform="translate(19 1303.362)"/>
    <use fill="url(#L)" href="#C" clip-path="url(#K)" transform="translate(19 1303.362)"/>
    <path fill="#9ed184" d="M1285 897.362l-15 15h-20l10 10h20l5-5h10l10 10v10h5l10-10h15.969v-15l-25.969-15z" opacity=".15"/>
    <path fill="#9ed184" d="M1149.25 792.362c-5.877 2.186-11.597 4.729-17.125 7.563l12.875 7.438v9.375l25-9.375v-10l-5-5h-15.75zM1115 810.081a160.81 160.81 0 0 0-34.906 32.281H1095l20-20z" opacity=".15"/>
    <path fill="url(#S)" d="M1260.469 792.268c13.31 49.672-.454 112.826-27.688 150.094H1365c0-68.857-43.516-127.532-104.531-150.094z" opacity=".25"/>
    <path fill="#222" d="M1169 867.362a5 5 0 1 1-10 0 5 5 0 1 1 10 0zm-26 0a5 5 0 1 1-10 0 5 5 0 1 1 10 0z" opacity=".5"/>
    <path fill="#9ed184" d="M1100 927.362h5l15 5v10h-30zm30-17.5v7.5l10 5v10l-10 10h55l-10-10h-20l-5-5v-5z" opacity=".15"/>
    <path fill="url(#X)" d="M1100.75 887.362v10.031l-.75-.031c-4.566 0-8.428 3.068-9.625 7.25L1078 942.362h22l8.375-28h28.25l8.375 28h20l-9.031-32.75c-.956-3.339-5.755-9.136-9.969-11.344v-10.906z" opacity=".25"/>
    <path fill="url(#Y)" d="M1085 877.362h50v30h-50z"/>
    <use fill="url(#Z)" href="#B" transform="translate(19 1303.362)"/>
    <path fill="none" stroke="#222" stroke-linejoin="round" stroke-width="4" d="M1142 882.362s3 4 8 4 8-4 8-4z" opacity=".5"/>
    <path fill="#ebf2fd" d="M1135 877.362l-20-10h-10l-20 10z"/>
    <g fill="#fff" clip-path="url(#H)" mask="url(#M)" opacity=".4" transform="translate(19 1303.362)">
      <use x="1058.925" y="-387.5" href="#O"/><use x="1077.939" y="-387.5" href="#I"/><use x="1096" y="-387.5" href="#I"/><use x="1114.062" y="-387.5" href="#I"/><use x="1040.863" y="-350" href="#O"/><use x="1058.925" y="-350" href="#O"/><use x="1095.048" y="-350" href="#O"/><use x="1114.062" y="-350" href="#I"/>
    </g>
  </g>
</svg>
