<svg xmlns="http://www.w3.org/2000/svg" width="430" height="165">
  <defs>
    <clipPath id="H">
      <path d="M933.625-440.562a4 4 0 0 0-3.781 4.906s.545 2.183 2.188 5.188c1.41 2.58 3.707 6.05 7.375 10.281.112.129.198.276.313.406.113.137.224.285.344.406l.406.406.844.938a4.003 4.003 0 0 0 .656.562c5.987 6.043 9.082 9.019 11.688 10.906 5.068 3.672 10.794 9.231 29.469 15.594s46.943 9.604 85.469-.719a10.11 10.11 0 0 0 6.219-4.625c1.352-2.285 1.751-8.092 1.063-10.656a10.11 10.11 0 0 0-4.75-6.125c-2.315-1.301-5.17-1.652-7.719-.906-35.195 9.431-57.917 6.169-72.812 1.094s-18.163-6.308-22.25-11.219l-2.564-2.966c-1.972-5.698-3.812-17.531-3.812-17.531a4 4 0 0 0-3.844-3.469 4 4 0 0 0-4.094 4.656 195.62 195.62 0 0 0 1.313 7.469c-2.087-2.643-3.459-4.782-4.312-6.344-1.295-2.37-1.375-3.062-1.375-3.062a4 4 0 0 0-4.031-3.187l-.003-.003a4 4 0 0 0-3.844 3.563 4 4 0 0 0-5.937 4.344z"/>
    </clipPath>
    <linearGradient id="U" gradientUnits="userSpaceOnUse"/>
    <linearGradient id="W" x1="1226" x2="1226" y1="36.5" y2="119" href="#U">
      <stop offset="0" stop-color="#b2dbea"/>
      <stop offset="1" stop-color="#7092ff"/>
    </linearGradient>
    <linearGradient id="L" x1="1108" x2="1108" y1="-361" y2="-500.732" href="#U">
      <stop offset="0" stop-color="#cbeea7"/>
      <stop offset="1" stop-color="#cee8c1"/>
    </linearGradient>
    <linearGradient id="T" x1="1184" x2="1184" y1="-405" y2="-533.035" href="#U">
      <stop offset="0" stop-color="#fff" stop-opacity="0.25"/>
      <stop offset="1" stop-color="#fff" stop-opacity="0"/>
    </linearGradient>
    <linearGradient id="S" x1="1254.219" x2="1254.219" y1="789.359" y2="942.362" href="#U">
      <stop offset="0" stop-color="#222"/>
      <stop offset="1" stop-color="#adadc6" stop-opacity="0"/>
    </linearGradient>
    <radialGradient id="A" cx="1218.2" cy="124.603" r="110" fx="1218.2" fy="124.603" gradientTransform="matrix(0,-1.09375,1.0937499,0,1099.715,1451.4055)" href="#U">
      <stop offset=".857" stop-color="#ccf1ff" stop-opacity="0"/>
      <stop offset="1" stop-color="#789afb"/>
    </radialGradient>
    <clipPath id="K">
      <use href="#G" transform="matrix(1.454546 0 0 1.454546 -611.81823 -534.09093)"/>
    </clipPath>
    <mask id="M">
      <rect width="550" height="200" x="900" y="-550" fill="url(#T)"/>
    </mask>
    <path id="G" d="M 1126,119 A 110,110 0 0 1 1346,119"/>
    <path id="C" d="M1241-511v-.281a110 110 0 00-15.75-4.875l-.031.156 7.781 9h5Zm-19 5 6 8h7l-8-8Zm33.5.875-2.375 4.125H1241l-5.781 10 5.781 10-10 .313-4.437 4.688v5l8.656 5H1246l8.656-15H1261l10 8 1.344 5H1276v-8l5 3 5 2h5l5 5h10v10h-15v5h-10l-10-10h-35l-5 5v10h-5l-10 20v5l5 5v15l20 20h20l5-5h10l10 10v10l3.344 5H1346A110 110 0 001255.503-505.122Zm-39.5 4.125 3 5h5l-3-5Zm-85.75-10A110 110 0 001041-428.719v12.719l15 15v10h5l5 5v5l-5 5v15h105l-10-10h-20l-5-5v-5l-40-25h-10l-10 10h-10v-15l-5-5 5-5v-5h-15l10-20 15-5v15h5l5-5v-10l25-30h5l40-15v-10l-5-5zm54.75-10a110 110 0 00-19 1.25v8.75l5 5h10z"/>
    <path id="I" d="M0-6.266h4.834v-14.194l-4.497 1.113v-3.896l4.526-1.084h4.175v18.062h4.834v3.809h-13.872z"/>
    <path id="O" d="M0-13.37q0-5.684 1.802-8.511 1.802-2.842 5.42-2.842 3.633 0 5.435 2.827 1.802 2.827 1.802 8.525 0 5.684-1.802 8.511-1.802 2.827-5.435 2.827-3.618 0-5.42-2.827-1.802-2.842-1.802-8.511zm5.039 5.845q.688 1.831 2.183 1.831 1.509 0 2.197-1.831.688-1.831.688-5.845 0-1.523-.102-2.725l-5.112 8.145q.073.234.147.425zm2.183-13.535q-1.494 0-2.183 1.831-.688 1.831-.688 5.859 0 1.245.059 2.271l5.039-8.042q-.015-.044-.029-.088-.688-1.831-2.197-1.831z"/>
  </defs>
  <g transform="translate(-940 -777.362)">
    <path fill="#5e74ac" d="M964.625 854.8a4 4 0 0 0-3.844 3.563 4 4 0 0 0-5.937 4.344s.545 2.183 2.188 5.188 4.458 7.223 9.281 12.438a4.003 4.003 0 0 0 6.938-2.25 4.003 4.003 0 0 0 3.75.125l.219.688a4.003 4.003 0 1 0 7.563-2.625c-1.972-5.698-3.812-17.531-3.812-17.531a4 4 0 0 0-3.844-3.469 4 4 0 0 0-4.094 4.656 195.62 195.62 0 0 0 1.313 7.469c-2.087-2.643-3.459-4.782-4.312-6.344-1.295-2.37-1.375-3.062-1.375-3.062a4 4 0 0 0-4.031-3.187z"/>
    <path fill="#7693dc" d="M952.625 862.8a4 4 0 0 0-3.781 4.906s.545 2.183 2.188 5.188c1.41 2.58 3.707 6.05 7.375 10.281.112.129.198.276.313.406.113.137.224.285.344.406l.406.406.844.938a4.003 4.003 0 0 0 .656.562c5.987 6.043 9.082 9.019 11.688 10.906 5.068 3.672 10.794 9.231 29.469 15.594s46.943 9.604 85.469-.719a10.11 10.11 0 0 0 6.219-4.625c1.352-2.285 1.751-8.092 1.063-10.656a10.11 10.11 0 0 0-4.75-6.125c-2.315-1.301-5.17-1.652-7.719-.906-35.195 9.431-57.917 6.169-72.812 1.094s-18.163-6.308-22.25-11.219c-5.443-6.541-8.45-10.875-14.781-10.875h-8.125c-2.537 0-4.359.782-5.625 2l-.781-1.312c-1.295-2.37-1.375-3.062-1.375-3.062a4 4 0 0 0-4.031-3.187z"/>
    <g fill="#fff" clip-path="url(#H)" mask="url(#M)" opacity=".4" transform="translate(19 1303.362)">
      <use x="933.448" y="-425" href="#I"/><use x="950.558" y="-425" href="#O"/><use x="951.508" y="-387.5" href="#I"/><use x="968.618" y="-387.5" href="#O"/><use x="987.635" y="-387.5" href="#I"/><use x="1004.743" y="-387.5" href="#O"/><use x="1022.802" y="-387.5" href="#O"/><use x="1041.815" y="-387.5" href="#I"/><use x="1058.925" y="-387.5" href="#O"/>
    </g>
    <ellipse cx="945" cy="25" fill="#3f4767" fill-opacity=".392" filter="blur(1.306px)" rx="10" ry="5" transform="matrix(.75 0 0 .5 258.75 862.36218)"/>
    <path fill="#222" d="M975.266 833.362a7.5 7.5 0 0 0-7.5 7.5c0 4.142 7.5 10.5 7.5 10.5s7.5-6.358 7.5-10.5a7.5 7.5 0 0 0-7.5-7.5zm.234 4.5a3 3 0 1 1 0 6 3 3 0 1 1 0-6z"/>
    <path fill="#222" d="M983.25 851.862a3.75 3.75 0 0 0-3.75 3.75c0 .378.068.734.172 1.078l-9.344 9.344a3.7 3.7 0 0 0-1.078-.172 3.75 3.75 0 1 0 3.75 3.75 3.7 3.7 0 0 0-.172-1.078l9.344-9.344a3.7 3.7 0 0 0 1.078.172 3.75 3.75 0 1 0 0-7.5zm0 2.25a1.5 1.5 0 1 1 0 3 1.5 1.5 0 1 1 0-3zm-14 14a1.5 1.5 0 1 1 0 3 1.5 1.5 0 1 1 0-3zm-23.846-18.968a3.75 3.75 0 0 0-1.373 5.123c.718 1.244 2.046 1.916 3.388 1.869l3.438 5.954c-.712 1.138-.794 2.625-.076 3.869a3.75 3.75 0 0 0 5.123 1.373c1.244-.718 1.916-2.046 1.869-3.388l5.954-3.437c1.138.712 2.625.794 3.869.076a3.75 3.75 0 0 0 1.373-5.123c-.718-1.244-2.046-1.916-3.388-1.869l-3.437-5.954c.712-1.138.794-2.625.076-3.869a3.75 3.75 0 0 0-5.123-1.373c-1.259.727-1.925 2.078-1.859 3.437l-.105.006-5.859 3.383c-1.138-.712-2.625-.794-3.869-.076zm1.125 1.949a1.5 1.5 0 1 1 1.5 2.598 1.5 1.5 0 0 1-1.5-2.598zm11.691-6.75a1.5 1.5 0 1 1 1.5 2.598 1.5 1.5 0 1 1-1.5-2.598zm-7.198 7.908l5.954-3.437a3.8 3.8 0 0 0 2.134.572l3.438 5.954a3.79 3.79 0 0 0-.572 2.134l-5.954 3.437a3.79 3.79 0 0 0-2.134-.572l-3.438-5.954a3.8 3.8 0 0 0 .572-2.134zm2.256 10.533a1.5 1.5 0 0 1 1.5 2.598 1.5 1.5 0 1 1-1.5-2.598zm11.691-6.75a1.5 1.5 0 0 1 1.5 2.598 1.5 1.5 0 0 1-1.5-2.598z"/>
    <use fill="url(#A)" href="#G" transform="matrix(1.5 0 0 1.5 -649.00018 763.86218)"/>
    <use fill="url(#W)" href="#G" transform="matrix(1.454546 0 0 1.454546 -592.81822 769.27127)"/>
    <g fill="#fff" clip-path="url(#K)" mask="url(#M)" transform="translate(19 1303.362)">
      <use x="1113.109" y="-500" href="#O"/><use x="1132.123" y="-500" href="#I"/><use x="1149.232" y="-500" href="#O"/><use x="1168.246" y="-500" href="#I"/><use x="1185.356" y="-500" href="#O"/><use x="1204.369" y="-500" href="#I"/><use x="1221.479" y="-500" href="#O"/><use x="1240.492" y="-500" href="#I"/><use x="1058.925" y="-462.5" href="#O"/><use x="1076.986" y="-462.5" href="#O"/><use x="1096" y="-462.5" href="#I"/><use x="1113.109" y="-462.5" href="#O"/><use x="1132.123" y="-462.5" href="#I"/><use x="1149.232" y="-462.5" href="#O"/><use x="1168.246" y="-462.5" href="#I"/><use x="1185.356" y="-462.5" href="#O"/><use x="1204.369" y="-462.5" href="#I"/><use x="1221.479" y="-462.5" href="#O"/><use x="1239.54" y="-462.5" href="#O"/><use x="1258.554" y="-462.5" href="#I"/><use x="1276.615" y="-462.5" href="#I"/><use x="1293.725" y="-462.5" href="#O"/><use x="1040.863" y="-425" href="#O"/><use x="1059.877" y="-425" href="#I"/><use x="1076.986" y="-425" href="#O"/><use x="1096" y="-425" href="#I"/><use x="1113.109" y="-425" href="#O"/><use x="1132.123" y="-425" href="#I"/><use x="1149.232" y="-425" href="#O"/><use x="1168.246" y="-425" href="#I"/><use x="1185.356" y="-425" href="#O"/><use x="1203.417" y="-425" href="#O"/><use x="1222.431" y="-425" href="#I"/><use x="1239.54" y="-425" href="#O"/><use x="1258.554" y="-425" href="#I"/><use x="1275.663" y="-425" href="#O"/><use x="1294.677" y="-425" href="#I"/><use x="1312.738" y="-425" href="#I"/><use x="1022.802" y="-387.5" href="#O"/><use x="1041.815" y="-387.5" href="#I"/><use x="1058.925" y="-387.5" href="#O"/><use x="1077.939" y="-387.5" href="#I"/><use x="1096" y="-387.5" href="#I"/><use x="1114.062" y="-387.5" href="#I"/><use x="1131.171" y="-387.5" href="#O"/><use x="1150.185" y="-387.5" href="#I"/><use x="1167.294" y="-387.5" href="#O"/><use x="1186.308" y="-387.5" href="#I"/><use x="1203.417" y="-387.5" href="#O"/><use x="1222.431" y="-387.5" href="#I"/><use x="1239.54" y="-387.5" href="#O"/><use x="1258.554" y="-387.5" href="#I"/><use x="1276.615" y="-387.5" href="#I"/><use x="1293.725" y="-387.5" href="#O"/><use x="1312.738" y="-387.5" href="#I"/><use x="1329.848" y="-387.5" href="#O"/><use x="1022.802" y="-350" href="#O"/><use x="1040.863" y="-350" href="#O"/><use x="1058.925" y="-350" href="#O"/><use x="1077.939" y="-350" href="#I"/><use x="1095.048" y="-350" href="#O"/><use x="1114.062" y="-350" href="#I"/><use x="1131.171" y="-350" href="#O"/><use x="1150.185" y="-350" href="#I"/><use x="1167.294" y="-350" href="#O"/><use x="1185.356" y="-350" href="#O"/><use x="1203.417" y="-350" href="#O"/><use x="1221.479" y="-350" href="#O"/><use x="1240.492" y="-350" href="#I"/><use x="1258.554" y="-350" href="#I"/><use x="1275.663" y="-350" href="#O"/><use x="1293.725" y="-350" href="#O"/><use x="1311.786" y="-350" href="#O"/><use x="1330.8" y="-350" href="#I"/>
    </g>
    <use fill="#222" href="#C" clip-path="url(#K)" filter="blur(5.813px)" opacity=".25" transform="translate(19 1303.362)"/>
    <use fill="url(#L)" href="#C" clip-path="url(#K)" transform="translate(19 1303.362)"/>
    <path fill="#9ed184" d="M1285 897.362l-15 15h-20l10 10h20l5-5h10l10 10v10h5l10-10h15.969v-15l-25.969-15z" opacity=".15"/>
    <path fill="#9ed184" d="M1149.25 792.362c-5.877 2.186-11.597 4.729-17.125 7.563l12.875 7.438v9.375l25-9.375v-10l-5-5h-15.75zM1115 810.081a160.81 160.81 0 0 0-34.906 32.281H1095l20-20z" opacity=".15"/>
    <path fill="#9ed184" d="M1100 927.362h5l15 5v10h-30zm30-17.5v7.5l10 5v10l-10 10h55l-10-10h-20l-5-5v-5z" opacity=".15"/>
    <path fill="url(#S)" d="M1260.469 792.268c13.31 49.672-.454 112.826-27.688 150.094H1365c0-68.857-43.516-127.532-104.531-150.094z" opacity=".25"/>
    <path fill="none" stroke="#222" stroke-linecap="round" stroke-linejoin="round" stroke-width="4" d="M1142 882.362s3 2 8 2 8-2 8-2" opacity=".5"/>
    <path fill="#222" d="M1169 867.362a5 5 0 1 1-10 0 5 5 0 1 1 10 0zm-26 0a5 5 0 1 1-10 0 5 5 0 1 1 10 0z" opacity=".5"/>
  </g>
</svg>
