<?xml version="1.0" encoding="UTF-8" standalone="no"?>
<!-- Created with Inkscape (http://www.inkscape.org/) -->
<svg
   xmlns:dc="http://purl.org/dc/elements/1.1/"
   xmlns:cc="http://creativecommons.org/ns#"
   xmlns:rdf="http://www.w3.org/1999/02/22-rdf-syntax-ns#"
   xmlns:svg="http://www.w3.org/2000/svg"
   xmlns="http://www.w3.org/2000/svg"
   xmlns:sodipodi="http://sodipodi.sourceforge.net/DTD/sodipodi-0.dtd"
   xmlns:inkscape="http://www.inkscape.org/namespaces/inkscape"
   width="64px"
   height="64px"
   id="svg2383"
   sodipodi:version="0.32"
   inkscape:version="0.46"
   sodipodi:docname="subway.svg"
   inkscape:output_extension="org.inkscape.output.svg.inkscape">
  <sodipodi:namedview
     id="base"
     pagecolor="#ffffff"
     bordercolor="#666666"
     borderopacity="1.0"
     inkscape:pageopacity="0.0"
     inkscape:pageshadow="2"
     inkscape:zoom="7.75"
     inkscape:cx="32"
     inkscape:cy="32"
     inkscape:current-layer="layer1"
     showgrid="true"
     inkscape:document-units="px"
     inkscape:grid-bbox="true"
     inkscape:window-width="1280"
     inkscape:window-height="725"
     inkscape:window-x="0"
     inkscape:window-y="25" />
  <defs
     id="defs2385">
    <inkscape:perspective
       id="perspective2391"
       inkscape:persp3d-origin="32 : 21.333333 : 1"
       inkscape:vp_z="64 : 32 : 1"
       inkscape:vp_y="0 : 1000 : 0"
       inkscape:vp_x="0 : 32 : 1"
       sodipodi:type="inkscape:persp3d" />
    <inkscape:perspective
       sodipodi:type="inkscape:persp3d"
       inkscape:vp_x="0 : 8 : 1"
       inkscape:vp_y="0 : 1000 : 0"
       inkscape:vp_z="16 : 8 : 1"
       inkscape:persp3d-origin="8 : 5.3333333 : 1"
       id="perspective3435" />
  </defs>
  <metadata
     id="metadata2388">
    <rdf:RDF>
      <cc:Work
         rdf:about="">
        <dc:format>image/svg+xml</dc:format>
        <dc:type
           rdf:resource="http://purl.org/dc/dcmitype/StillImage" />
      </cc:Work>
    </rdf:RDF>
  </metadata>
  <g
     inkscape:groupmode="layer"
     inkscape:label="Layer 1"
     id="layer1">
    <path
       style="fill:#000000;fill-opacity:1;stroke:none;stroke-width:1;stroke-linejoin:round;stroke-miterlimit:4;stroke-opacity:1"
       d="M 25.46875,18.3125 L 21.9375,18.3125 C 17.624757,18.3125 14.1875,21.843505 14.1875,26.15625 L 14.1875,42.125 C 14.1875,45.575195 16.403044,48.473161 19.5,49.5 L 19.5,51.96875 L 22.25,51.96875 L 22.25,50 L 41.46875,50 L 41.46875,51.96875 L 44.21875,51.96875 L 44.21875,49.59375 C 47.45359,48.639973 49.812506,45.679434 49.8125,42.125 L 49.8125,26.15625 C 49.8125,21.843508 46.375238,18.3125 42.0625,18.3125 L 38.03125,18.3125 L 25.46875,18.3125 z M 34.90625,18.3125 L 28.625,18.3125 L 34.90625,18.3125 z M 20.1875,22.125 L 43.21875,22.125 C 44.859176,22.125001 46.28125,23.422081 46.28125,25.0625 L 46.28125,35.9375 C 46.281243,37.577922 44.859168,38.875 43.21875,38.875 L 20.1875,38.875 C 18.547082,38.875006 17.15625,37.577923 17.15625,35.9375 L 17.15625,25.0625 C 17.15625,23.422081 18.547081,22.125 20.1875,22.125 z M 21.03125,41.09375 C 22.38454,41.093751 23.46875,42.20921 23.46875,43.5625 C 23.46875,44.91579 22.38454,46 21.03125,46 C 19.67796,45.999999 18.59375,44.91579 18.59375,43.5625 C 18.59375,42.20921 19.67796,41.09375 21.03125,41.09375 z M 42.375,41.09375 C 43.728289,41.093751 44.84375,42.20921 44.84375,43.5625 C 44.843751,44.91579 43.72829,46 42.375,46 C 41.021708,45.999999 39.9375,44.91579 39.9375,43.5625 C 39.9375,42.20921 41.02171,41.09375 42.375,41.09375 z"
       id="rect4085"
       sodipodi:nodetypes="ccccccccccccccccccccccccccccccsssccsssc" />
    <path
       sodipodi:type="arc"
       style="opacity:1;fill:none;fill-opacity:1;fill-rule:evenodd;stroke:#7f7f7f;stroke-width:5;stroke-linecap:round;stroke-linejoin:round;stroke-miterlimit:4;stroke-dasharray:none;stroke-dashoffset:0;stroke-opacity:1"
       id="path3478"
       sodipodi:cx="31.870968"
       sodipodi:cy="29.290323"
       sodipodi:rx="24.774193"
       sodipodi:ry="24.774193"
       d="M 56.645161,29.290323 A 24.774193,24.774193 0 1 1 7.0967751,29.290323 A 24.774193,24.774193 0 1 1 56.645161,29.290323 z"
       transform="translate(0.1290321,6)" />
    <rect
       style="opacity:1;fill:#7f7f7f;fill-opacity:1;fill-rule:evenodd;stroke:none;stroke-width:5;stroke-linecap:round;stroke-linejoin:round;stroke-miterlimit:4;stroke-dasharray:none;stroke-dashoffset:0;stroke-opacity:1"
       id="rect3480"
       width="60"
       height="5"
       x="2"
       y="1.2903225" />
  </g>
</svg>
