<?xml version="1.0" encoding="UTF-8" standalone="no"?>
<!-- Created with Inkscape (http://www.inkscape.org/) -->
<svg
   xmlns:dc="http://purl.org/dc/elements/1.1/"
   xmlns:cc="http://creativecommons.org/ns#"
   xmlns:rdf="http://www.w3.org/1999/02/22-rdf-syntax-ns#"
   xmlns:svg="http://www.w3.org/2000/svg"
   xmlns="http://www.w3.org/2000/svg"
   xmlns:sodipodi="http://sodipodi.sourceforge.net/DTD/sodipodi-0.dtd"
   xmlns:inkscape="http://www.inkscape.org/namespaces/inkscape"
   width="64px"
   height="64px"
   id="svg2383"
   sodipodi:version="0.32"
   inkscape:version="0.46"
   sodipodi:docname="tram.svg"
   inkscape:output_extension="org.inkscape.output.svg.inkscape">
  <sodipodi:namedview
     id="base"
     pagecolor="#ffffff"
     bordercolor="#666666"
     borderopacity="1.0"
     inkscape:pageopacity="0.0"
     inkscape:pageshadow="2"
     inkscape:zoom="7.75"
     inkscape:cx="32"
     inkscape:cy="32"
     inkscape:current-layer="layer1"
     showgrid="true"
     inkscape:document-units="px"
     inkscape:grid-bbox="true"
     inkscape:window-width="1280"
     inkscape:window-height="725"
     inkscape:window-x="0"
     inkscape:window-y="25" />
  <defs
     id="defs2385">
    <inkscape:perspective
       id="perspective2391"
       inkscape:persp3d-origin="32 : 21.333333 : 1"
       inkscape:vp_z="64 : 32 : 1"
       inkscape:vp_y="0 : 1000 : 0"
       inkscape:vp_x="0 : 32 : 1"
       sodipodi:type="inkscape:persp3d" />
    <inkscape:perspective
       sodipodi:type="inkscape:persp3d"
       inkscape:vp_x="0 : 8 : 1"
       inkscape:vp_y="0 : 1000 : 0"
       inkscape:vp_z="16 : 8 : 1"
       inkscape:persp3d-origin="8 : 5.3333333 : 1"
       id="perspective3435" />
  </defs>
  <metadata
     id="metadata2388">
    <rdf:RDF>
      <cc:Work
         rdf:about="">
        <dc:format>image/svg+xml</dc:format>
        <dc:type
           rdf:resource="http://purl.org/dc/dcmitype/StillImage" />
      </cc:Work>
    </rdf:RDF>
  </metadata>
  <g
     inkscape:groupmode="layer"
     inkscape:label="Layer 1"
     id="layer1">
    <path
       sodipodi:nodetypes="ccccc"
       id="path3446"
       d="M 51.618364,66.685745 L 45.651403,65.483871 L 40.59365,44.351457 L 42.98465,44.817898 L 51.618364,66.685745 z"
       style="opacity:1;fill:#7f7f7f;fill-opacity:1;fill-rule:nonzero;stroke:none;stroke-width:0.2342611;stroke-linecap:round;stroke-linejoin:round;marker:none;marker-start:none;marker-mid:none;marker-end:none;stroke-miterlimit:4;stroke-dasharray:none;stroke-dashoffset:0;stroke-opacity:1;visibility:visible;display:inline;overflow:visible;enable-background:accumulate" />
    <path
       style="opacity:1;fill:#7f7f7f;fill-opacity:1;fill-rule:nonzero;stroke:none;stroke-width:0.2342611;stroke-linecap:round;stroke-linejoin:round;marker:none;marker-start:none;marker-mid:none;marker-end:none;stroke-miterlimit:4;stroke-dasharray:none;stroke-dashoffset:0;stroke-opacity:1;visibility:visible;display:inline;overflow:visible;enable-background:accumulate"
       d="M 11.968523,65.395422 L 17.677419,64.83871 L 23.037461,44.860302 L 20.816077,44.902706 L 11.968523,65.395422 z"
       id="path3444"
       sodipodi:nodetypes="ccccc" />
    <path
       style="opacity:1;fill:#7f7f7f;fill-opacity:1;fill-rule:nonzero;stroke:none;stroke-width:0.2342611;stroke-linecap:round;stroke-linejoin:round;marker:none;marker-start:none;marker-mid:none;marker-end:none;stroke-miterlimit:4;stroke-dasharray:none;stroke-dashoffset:0;stroke-opacity:1;visibility:visible;display:inline;overflow:visible;enable-background:accumulate"
       d="M 30.53125 44.875 L 30.34375 49.28125 L 33.375 49.28125 L 32.90625 45.34375 L 30.53125 44.875 z M 30.25 51.21875 L 29.96875 57.28125 L 34.34375 57.28125 L 33.625 51.21875 L 30.25 51.21875 z M 29.8125 60.90625 L 29.59375 66 L 35.5625 67.1875 L 34.8125 60.90625 L 29.8125 60.90625 z "
       id="path3448" />
    <path
       style="fill:#000000;fill-opacity:1;stroke:none;stroke-width:1;stroke-linejoin:round;stroke-miterlimit:4;stroke-opacity:1"
       d="M 25.359198,4.6875 L 25.375,7.03125 L 25.59375,7.03125 L 19.53125,10.6875 L 25.46875,14.3125 L 21.9375,14.3125 C 17.624757,14.3125 14.1875,17.843505 14.1875,22.15625 L 14.1875,38.125 C 14.1875,41.575195 16.403044,44.473161 19.5,45.5 L 19.5,47.96875 L 22.25,47.96875 L 22.25,46 L 41.46875,46 L 41.46875,47.96875 L 44.21875,47.96875 L 44.21875,45.59375 C 47.45359,44.639973 49.812506,41.679434 49.8125,38.125 L 49.8125,22.15625 C 49.8125,17.843508 46.375238,14.3125 42.0625,14.3125 L 38.03125,14.3125 L 44.09375,10.6875 L 38.15625,7.03125 L 38.424619,7.03125 L 38.408817,4.6875 L 25.359198,4.6875 z M 28.75,7.03125 L 35.03125,7.03125 L 40.96875,10.6875 L 34.90625,14.3125 L 28.625,14.3125 L 22.6875,10.6875 L 28.75,7.03125 z M 20.1875,18.125 L 43.21875,18.125 C 44.859176,18.125001 46.28125,19.422081 46.28125,21.0625 L 46.28125,31.9375 C 46.281243,33.577922 44.859168,34.875 43.21875,34.875 L 20.1875,34.875 C 18.547082,34.875006 17.15625,33.577923 17.15625,31.9375 L 17.15625,21.0625 C 17.15625,19.422081 18.547081,18.125 20.1875,18.125 z M 21.03125,37.09375 C 22.38454,37.093751 23.46875,38.20921 23.46875,39.5625 C 23.46875,40.91579 22.38454,42 21.03125,42 C 19.67796,41.999999 18.59375,40.91579 18.59375,39.5625 C 18.59375,38.20921 19.67796,37.09375 21.03125,37.09375 z M 42.375,37.09375 C 43.728289,37.093751 44.84375,38.20921 44.84375,39.5625 C 44.843751,40.91579 43.72829,42 42.375,42 C 41.021708,41.999999 39.9375,40.91579 39.9375,39.5625 C 39.9375,38.20921 41.02171,37.09375 42.375,37.09375 z"
       id="rect4085"
       sodipodi:nodetypes="ccccccccccccccccccccccccccccccccccccccccccsssccsssc" />
  </g>
</svg>
