<?xml version="1.0" encoding="UTF-8" standalone="no"?>
<!-- Created with Inkscape (http://www.inkscape.org/) -->
<svg
   xmlns:dc="http://purl.org/dc/elements/1.1/"
   xmlns:cc="http://creativecommons.org/ns#"
   xmlns:rdf="http://www.w3.org/1999/02/22-rdf-syntax-ns#"
   xmlns:svg="http://www.w3.org/2000/svg"
   xmlns="http://www.w3.org/2000/svg"
   xmlns:sodipodi="http://sodipodi.sourceforge.net/DTD/sodipodi-0.dtd"
   xmlns:inkscape="http://www.inkscape.org/namespaces/inkscape"
   width="64px"
   height="64px"
   id="svg2383"
   sodipodi:version="0.32"
   inkscape:version="0.46"
   sodipodi:docname="railway.svg"
   inkscape:output_extension="org.inkscape.output.svg.inkscape">
  <sodipodi:namedview
     id="base"
     pagecolor="#ffffff"
     bordercolor="#666666"
     borderopacity="1.0"
     inkscape:pageopacity="0.0"
     inkscape:pageshadow="2"
     inkscape:zoom="7.75"
     inkscape:cx="32"
     inkscape:cy="37.16129"
     inkscape:current-layer="layer1"
     showgrid="true"
     inkscape:document-units="px"
     inkscape:grid-bbox="true"
     inkscape:window-width="1280"
     inkscape:window-height="725"
     inkscape:window-x="0"
     inkscape:window-y="25" />
  <defs
     id="defs2385">
    <inkscape:perspective
       id="perspective2391"
       inkscape:persp3d-origin="32 : 21.333333 : 1"
       inkscape:vp_z="64 : 32 : 1"
       inkscape:vp_y="0 : 1000 : 0"
       inkscape:vp_x="0 : 32 : 1"
       sodipodi:type="inkscape:persp3d" />
    <inkscape:perspective
       sodipodi:type="inkscape:persp3d"
       inkscape:vp_x="0 : 8 : 1"
       inkscape:vp_y="0 : 1000 : 0"
       inkscape:vp_z="16 : 8 : 1"
       inkscape:persp3d-origin="8 : 5.3333333 : 1"
       id="perspective3435" />
  </defs>
  <metadata
     id="metadata2388">
    <rdf:RDF>
      <cc:Work
         rdf:about="">
        <dc:format>image/svg+xml</dc:format>
        <dc:type
           rdf:resource="http://purl.org/dc/dcmitype/StillImage" />
      </cc:Work>
    </rdf:RDF>
  </metadata>
  <g
     inkscape:groupmode="layer"
     inkscape:label="Layer 1"
     id="layer1">
    <path
       id="rect3379"
       d="M 23.571591,39.957736 C 23.571591,39.957736 22.991727,41.082003 22.991727,41.082003 C 22.991727,41.082003 18.939671,41.098329 18.939671,41.098329 C 18.939671,41.098329 18.472115,41.721646 18.472115,41.721646 C 18.472115,41.721646 22.670357,41.705088 22.670357,41.705088 C 22.670357,41.705088 21.97468,43.053896 21.97468,43.053896 C 21.97468,43.053896 17.460053,43.070868 17.460053,43.070868 C 17.460053,43.070868 16.877085,43.848045 16.877085,43.848045 C 16.877085,43.848045 21.573929,43.830888 21.573929,43.830888 C 21.573929,43.830888 20.694917,45.535159 20.694917,45.535159 C 20.694917,45.535159 15.598495,45.552586 15.598495,45.552586 C 15.598495,45.552586 14.851436,46.548521 14.851436,46.548521 C 14.851436,46.548521 20.181279,46.531023 20.181279,46.531023 C 20.181279,46.531023 19.035543,48.752427 19.035543,48.752427 C 19.035543,48.752427 13.185195,48.769855 13.185195,48.769855 C 13.185195,48.769855 12.193568,50.091833 12.193568,50.091833 C 12.193568,50.091833 18.353605,50.074599 18.353605,50.074599 C 18.353605,50.074599 16.798242,53.090207 16.798242,53.090207 C 16.798242,53.090207 9.9321837,53.10658 9.9321837,53.10658 C 9.9321837,53.10658 8.552778,54.945523 8.552778,54.945523 C 8.552778,54.945523 15.849349,54.929964 15.849349,54.929964 C 15.849349,54.929964 13.617428,59.257309 13.617428,59.257309 C 13.617428,59.257309 5.30888,59.270095 5.30888,59.270095 C 5.30888,59.270095 3.2601077,62.001395 3.2601077,62.001395 C 3.2601077,62.001395 12.207481,61.990982 12.207481,61.990982 C 12.207481,61.990982 8.736787,68.72012 8.736787,68.72012 C 8.736787,68.72012 -1.7815572,68.722644 -1.7815572,68.722644 C -1.7815572,68.722644 -5.138518,73.197946 -5.138518,73.197946 C -5.138518,73.197946 6.425013,73.202294 6.425013,73.202294 C 6.425013,73.202294 -0.25238634,86.148731 -0.25238634,86.148731 C -0.25238634,86.148731 6.816882,86.163981 6.816882,86.163981 C 6.816882,86.163981 12.02938,73.204401 12.02938,73.204401 C 12.02938,73.204401 51.374154,73.219196 51.374154,73.219196 C 51.374154,73.219196 56.526317,86.271215 56.526317,86.271215 C 56.526317,86.271215 63.706495,86.286704 63.706495,86.286704 C 63.706495,86.286704 57.048006,73.221329 57.048006,73.221329 C 57.048006,73.221329 67.063135,73.225095 67.063135,73.225095 C 67.063135,73.225095 63.844385,68.706901 63.844385,68.706901 C 63.844385,68.706901 54.748436,68.709083 54.748436,68.709083 C 54.748436,68.709083 51.30151,61.945483 51.30151,61.945483 C 51.30151,61.945483 59.021167,61.936499 59.021167,61.936499 C 59.021167,61.936499 57.064887,59.190447 57.064887,59.190447 C 57.064887,59.190447 49.903082,59.201469 49.903082,59.201469 C 49.903082,59.201469 47.691599,54.862065 47.691599,54.862065 C 47.691599,54.862065 53.971816,54.848673 53.971816,54.848673 C 53.971816,54.848673 52.658173,53.004697 52.658173,53.004697 C 52.658173,53.004697 46.752207,53.01878 46.752207,53.01878 C 46.752207,53.01878 45.21347,49.99945 45.21347,49.99945 C 45.21347,49.99945 50.506692,49.98464 50.506692,49.98464 C 50.506692,49.98464 49.56408,48.661485 49.56408,48.661485 C 49.56408,48.661485 44.539234,48.676454 44.539234,48.676454 C 44.539234,48.676454 43.406998,46.454768 43.406998,46.454768 C 43.406998,46.454768 47.981321,46.43975 47.981321,46.43975 C 47.981321,46.43975 47.272147,45.444277 47.272147,45.444277 C 47.272147,45.444277 42.899644,45.459229 42.899644,45.459229 C 42.899644,45.459229 42.03171,43.756159 42.03171,43.756159 C 42.03171,43.756159 46.059057,43.741448 46.059057,43.741448 C 46.059057,43.741448 45.50623,42.965436 45.50623,42.965436 C 45.50623,42.965436 41.636149,42.979985 41.636149,42.979985 C 41.636149,42.979985 40.949688,41.632998 40.949688,41.632998 C 40.949688,41.632998 44.546895,41.618812 44.546895,41.618812 C 44.546895,41.618812 44.103877,40.99694 44.103877,40.99694 C 44.103877,40.99694 40.632662,41.010926 40.632662,41.010926 C 40.632662,41.010926 40.060774,39.888763 40.060774,39.888763 C 40.060774,39.888763 38.220316,39.896462 38.220316,39.896462 C 38.220316,39.896462 38.663374,41.018861 38.663374,41.018861 C 38.663374,41.018861 24.952577,41.074102 24.952577,41.074102 C 24.952577,41.074102 25.404679,39.950068 25.404679,39.950068 C 25.404679,39.950068 23.571591,39.957736 23.571591,39.957736 C 23.571591,39.957736 23.571591,39.957736 23.571591,39.957736 M 24.702011,41.697076 C 24.702011,41.697076 38.908974,41.641047 38.908974,41.641047 C 38.908974,41.641047 39.440765,42.988238 39.440765,42.988238 C 39.440765,42.988238 24.159583,43.045683 24.159583,43.045683 C 24.159583,43.045683 24.702011,41.697076 24.702011,41.697076 C 24.702011,41.697076 24.702011,41.697076 24.702011,41.697076 M 23.847105,43.822585 C 23.847105,43.822585 39.74719,43.764504 39.74719,43.764504 C 39.74719,43.764504 40.419515,45.46771 40.419515,45.46771 C 40.419515,45.46771 23.161679,45.526724 23.161679,45.526724 C 23.161679,45.526724 23.847105,43.822585 23.847105,43.822585 C 23.847105,43.822585 23.847105,43.822585 23.847105,43.822585 M 22.761145,46.522553 C 22.761145,46.522553 40.812508,46.463287 40.812508,46.463287 C 40.812508,46.463287 41.689487,48.684943 41.689487,48.684943 C 41.689487,48.684943 21.867655,48.743991 21.867655,48.743991 C 21.867655,48.743991 22.761145,46.522553 22.761145,46.522553 C 22.761145,46.522553 22.761145,46.522553 22.761145,46.522553 M 21.335824,50.066255 C 21.335824,50.066255 42.211691,50.007848 42.211691,50.007848 C 42.211691,50.007848 43.403381,53.026766 43.403381,53.026766 C 43.403381,53.026766 20.122743,53.08228 20.122743,53.08228 C 20.122743,53.08228 21.335824,50.066255 21.335824,50.066255 C 21.335824,50.066255 21.335824,50.066255 21.335824,50.066255 M 19.382612,54.92243 C 19.382612,54.92243 44.130844,54.869658 44.130844,54.869658 C 44.130844,54.869658 45.843253,59.207716 45.843253,59.207716 C 45.843253,59.207716 17.641561,59.251116 17.641561,59.251116 C 17.641561,59.251116 19.382612,54.92243 19.382612,54.92243 C 19.382612,54.92243 19.382612,54.92243 19.382612,54.92243 M 16.541581,61.985937 C 16.541581,61.985937 46.92597,61.950576 46.92597,61.950576 C 46.92597,61.950576 49.594317,68.710319 49.594317,68.710319 C 49.594317,68.710319 13.833504,68.718898 13.833504,68.718898 C 13.833504,68.718898 16.541581,61.985937 16.541581,61.985937 C 16.541581,61.985937 16.541581,61.985937 16.541581,61.985937"
       style="opacity:1;fill:#7f7f7f;fill-opacity:1;fill-rule:evenodd;stroke:none;stroke-width:5;stroke-linecap:round;stroke-linejoin:round;stroke-miterlimit:4;stroke-dasharray:none;stroke-dashoffset:0;stroke-opacity:1" />
    <path
       sodipodi:nodetypes="ccccccccccccccccccccccccccccccccccccccsssccsssc"
       id="rect4085"
       d="M 21.261305,4.032258 L 21.261305,7.170507 L 25.478326,7.170507 L 25.478326,10.308756 L 21.947797,10.308756 C 17.635055,10.308756 14.200245,13.841633 14.200245,18.154378 L 14.200245,34.139833 C 14.200245,37.590027 16.399084,40.468265 19.49604,41.495104 L 19.49604,47.967742 L 22.242007,47.967742 L 22.242007,41.985455 L 41.465189,41.985455 L 41.465189,47.967742 L 44.209749,47.967742 L 44.209749,41.593174 C 47.444587,40.639397 49.799761,37.694267 49.799755,34.139833 L 49.799755,18.154378 C 49.799755,13.841637 46.364941,10.308756 42.052203,10.308756 L 38.031322,10.308756 L 38.031322,7.170507 L 42.738695,7.170507 L 42.738695,4.032258 L 21.261305,4.032258 z M 28.616575,7.170507 L 34.893074,7.170507 L 34.893074,10.308756 L 28.616575,10.308756 L 28.616575,7.170507 z M 20.182532,14.133496 L 43.229047,14.133496 C 44.869472,14.133496 46.269225,15.435186 46.269225,17.075605 L 46.269225,23.940524 C 46.269219,25.580947 44.869465,26.882632 43.229047,26.882632 L 20.182532,26.882632 C 18.542113,26.882639 17.142353,25.580947 17.142353,23.940524 L 17.142353,17.075605 C 17.142353,15.435186 18.542113,14.133496 20.182532,14.133496 z M 42.542555,31.491935 C 44.292382,31.491939 45.680803,32.880354 45.680803,34.630184 C 45.680801,36.380025 44.292389,37.768434 42.542555,37.768434 C 40.792717,37.76843 39.306236,36.380019 39.306236,34.630184 C 39.306242,32.880356 40.792721,31.491935 42.542555,31.491935 z M 21.359375,31.590005 C 23.109206,31.589999 24.595694,32.978424 24.595694,34.728254 C 24.595694,36.478086 23.109209,37.866504 21.359375,37.866504 C 19.609541,37.866504 18.221126,36.478089 18.221126,34.728254 C 18.221123,32.97842 19.609541,31.590005 21.359375,31.590005 z"
       style="fill:#000000;fill-opacity:1;stroke:none;stroke-width:1;stroke-linejoin:round;stroke-miterlimit:4;stroke-opacity:1" />
  </g>
</svg>
