<?xml version="1.0" encoding="UTF-8" standalone="no"?>
<!-- Created with Inkscape (http://www.inkscape.org/) -->

<svg
   xmlns:dc="http://purl.org/dc/elements/1.1/"
   xmlns:cc="http://creativecommons.org/ns#"
   xmlns:rdf="http://www.w3.org/1999/02/22-rdf-syntax-ns#"
   xmlns:svg="http://www.w3.org/2000/svg"
   xmlns="http://www.w3.org/2000/svg"
   xmlns:xlink="http://www.w3.org/1999/xlink"
   xmlns:sodipodi="http://sodipodi.sourceforge.net/DTD/sodipodi-0.dtd"
   xmlns:inkscape="http://www.inkscape.org/namespaces/inkscape"
   width="343pt"
   height="340pt"
   id="svg2816"
   version="1.1"
   inkscape:version="0.47pre4 r22446"
   sodipodi:docname="waterway__stream.svg"
   inkscape:export-filename="/home/andy/src/potlatch2/resources/features/waterway__stream.png"
   inkscape:export-xdpi="8.3623695"
   inkscape:export-ydpi="8.3623695">
  <defs
     id="defs2818">
    <linearGradient
       inkscape:collect="always"
       id="linearGradient3619">
      <stop
         style="stop-color:#00ffff;stop-opacity:1;"
         offset="0"
         id="stop3621" />
      <stop
         style="stop-color:#00ffff;stop-opacity:0;"
         offset="1"
         id="stop3623" />
    </linearGradient>
    <linearGradient
       inkscape:collect="always"
       id="linearGradient3609">
      <stop
         style="stop-color:#008000;stop-opacity:1;"
         offset="0"
         id="stop3611" />
      <stop
         style="stop-color:#008000;stop-opacity:0;"
         offset="1"
         id="stop3613" />
    </linearGradient>
    <inkscape:perspective
       sodipodi:type="inkscape:persp3d"
       inkscape:vp_x="0 : 212.5 : 1"
       inkscape:vp_y="0 : 1000 : 0"
       inkscape:vp_z="428.75 : 212.5 : 1"
       inkscape:persp3d-origin="214.375 : 141.66667 : 1"
       id="perspective2825" />
    <linearGradient
       inkscape:collect="always"
       xlink:href="#linearGradient3609"
       id="linearGradient3615"
       x1="215"
       y1="188.25"
       x2="215"
       y2="430.5"
       gradientUnits="userSpaceOnUse" />
    <linearGradient
       inkscape:collect="always"
       xlink:href="#linearGradient3619"
       id="linearGradient3625"
       x1="215"
       y1="188.75"
       x2="215"
       y2="0"
       gradientUnits="userSpaceOnUse"
       gradientTransform="matrix(1.001462,0,0,1,-1.2518275,0)" />
  </defs>
  <sodipodi:namedview
     pagecolor="#ffffff"
     bordercolor="#666666"
     borderopacity="1.0"
     inkscape:pageopacity="0.0"
     inkscape:pageshadow="2"
     inkscape:zoom="1.6"
     inkscape:cx="187.35182"
     inkscape:cy="219.75636"
     inkscape:document-units="pt"
     inkscape:current-layer="layer1"
     id="namedview2820"
     showgrid="false"
     inkscape:window-width="1680"
     inkscape:window-height="1026"
     inkscape:window-x="1280"
     inkscape:window-y="0"
     inkscape:window-maximized="1" />
  <metadata
     id="metadata2822">
    <rdf:RDF>
      <cc:Work
         rdf:about="">
        <dc:format>image/svg+xml</dc:format>
        <dc:type
           rdf:resource="http://purl.org/dc/dcmitype/StillImage" />
        <dc:title></dc:title>
      </cc:Work>
    </rdf:RDF>
  </metadata>
  <g
     inkscape:label="Layer 1"
     inkscape:groupmode="layer"
     id="layer1">
    <rect
       style="fill:url(#linearGradient3615);fill-rule:evenodd;stroke:#000000;stroke-width:1px;stroke-linecap:butt;stroke-linejoin:miter;stroke-opacity:1;fill-opacity:1.0"
       id="rect2827"
       width="430"
       height="241.25"
       x="0"
       y="188.75" />
    <rect
       style="fill:url(#linearGradient3625);fill-opacity:1"
       id="rect3617"
       width="428.125"
       height="188.75"
       x="0"
       y="-6.5955419e-10" />
    <path
       style="fill:#3144d6;stroke:#000000;stroke-width:1px;stroke-linecap:butt;stroke-linejoin:miter;stroke-opacity:1;fill-opacity:1"
       d="m 125,193.125 137.5,230.625 130.625,0 -226.875,-230.625 -41.25,0 z"
       id="path2904"
       sodipodi:nodetypes="ccccc" />
    <path
       style="fill:#ffffff;fill-opacity:1;stroke:#000000;stroke-width:1.39884067px;stroke-linecap:butt;stroke-linejoin:miter;stroke-opacity:1"
       d="m 289.73421,231.54044 c -0.27683,0.61358 -0.27683,1.53394 -0.8305,1.84073 -2.99595,1.66007 -1.83405,-1.64894 -4.15247,0.92036 -0.43771,0.48507 -0.39279,1.35566 -0.8305,1.84073 -0.4377,0.48507 -1.10732,0.61358 -1.66099,0.92036 -0.55367,0.30679 -1.07374,0.70344 -1.66099,0.92037 -0.46856,0.17308 -1.94576,0 -2.49148,0 -0.27683,0 -0.63475,0.21692 -0.8305,0 -0.3915,-0.43387 0.3915,-1.40686 0,-1.84073 -0.3915,-0.43387 -1.26949,0.43387 -1.66099,0 -0.3915,-0.43387 0.3915,-1.40686 0,-1.84073 -0.19574,-0.21693 -0.63475,0.21693 -0.83049,0 -0.3915,-0.43387 0.2476,-1.29192 0,-1.84073 -0.17508,-0.38805 -0.65542,-0.53231 -0.8305,-0.92036 -0.16464,-0.36492 0.16978,-2.57294 0,-2.76109 -0.19574,-0.21693 -0.63475,0.21692 -0.83049,0 -0.3915,-0.43387 0.3915,-1.40686 0,-1.84073 -0.19575,-0.21693 -0.63475,0.21693 -0.8305,0 -0.19574,-0.21693 0.12385,-0.64596 0,-0.92036 -0.17508,-0.38806 -0.65541,-0.53231 -0.83049,-0.92037 -0.12637,-0.2801 0,-2.3466 0,-2.76109 0,-0.30678 0,-0.61358 0,-0.92036 0,-0.30679 -0.12385,-0.64597 0,-0.92037 0.17508,-0.38805 0.48033,-0.72633 0.83049,-0.92036 0.30034,-0.16642 3.57484,0 4.15248,0 0.55366,0 1.10732,0 1.66099,0 0.27682,0 0.83049,-0.30678 0.83049,0 0,0.30678 -0.63475,0.21693 -0.83049,0 -0.19575,-0.21693 0.12384,-0.64596 0,-0.92036 -0.17508,-0.38806 -0.65542,-0.53231 -0.8305,-0.92037 -0.12384,-0.2744 0.12385,-0.64596 0,-0.92036 -0.17508,-0.38806 -0.70669,-0.50876 -0.83049,-0.92037 -0.17508,-0.58208 0.13428,-1.24546 0,-1.84072 -0.15013,-0.66552 -0.63475,-1.18994 -0.8305,-1.84073 -0.0876,-0.29104 0,-0.61358 0,-0.92036 0,-0.61359 0,-1.22715 0,-1.84073 0,-3.37467 0,-6.74933 0,-10.124 0,-0.38716 -0.12358,-5.2484 0,-5.52219 0.17508,-0.38805 0.65542,-0.53231 0.8305,-0.92036 0.12384,-0.2744 -0.12385,-0.64596 0,-0.92036 0.17508,-0.38806 0.55366,-0.61359 0.83049,-0.92037 0.27683,-0.30678 0.48033,-0.72633 0.8305,-0.92036 0.2476,-0.13725 0.56787,0.097 0.83049,0 0.58725,-0.21693 1.06046,-0.75399 1.66099,-0.92037 1.07426,-0.29762 2.24772,0.29763 3.32198,0 0.60054,-0.16637 1.06046,-0.75399 1.66099,-0.92036 0.74145,-0.20543 3.19116,0 4.15248,0 0.27682,0 0.63475,-0.21693 0.83049,0 0.19575,0.21693 -0.12384,0.64596 0,0.92036 1.72816,3.83034 -0.0574,-0.9839 1.66099,0.92037 0.19575,0.21692 -0.19574,0.70344 0,0.92036 0.19575,0.21693 0.63475,-0.21692 0.8305,0 0.3915,0.43387 -0.39151,1.40686 0,1.84073 0.19574,0.21693 0.63475,-0.21693 0.83049,0 0.49483,0.54837 -0.82889,2.76109 0.8305,2.76109 0.0764,0 -0.0954,-2.60241 0,-2.76109 0.43433,-0.72199 1.19119,-1.14655 1.66099,-1.84073 0.37141,-0.5488 0.48712,-1.26994 0.83049,-1.84073 0.47776,-0.79417 1.8428,-2.0422 2.49149,-2.76109 0.27682,-0.30678 0.55366,-0.61358 0.83049,-0.92036 0.27683,-0.30678 0.48033,-0.72634 0.8305,-0.92037 0.25275,-0.14004 2.11747,0 2.49148,0 0.66858,0 2.80072,-0.19255 3.32198,0 0.58725,0.21693 1.06046,0.754 1.66099,0.92037 1.34284,0.37203 2.79519,-0.30084 4.15248,0 0.60699,0.13459 1.05039,0.80759 1.66099,0.92036 1.09225,0.20175 2.21465,0 3.32198,0 0.83049,0 1.66099,0 2.49148,0 0.55367,0 1.12385,-0.14882 1.66099,0 1.20107,0.33276 2.12091,1.50797 3.32198,1.84073 0.53714,0.14882 1.10732,0 1.66099,0 0.27683,0 0.58289,-0.13724 0.8305,0 0.35016,0.19403 0.48033,0.72634 0.83049,0.92036 0.24761,0.13725 0.58289,-0.13724 0.8305,0 0.35016,0.19403 0.55366,0.61358 0.83049,0.92037 0.27683,0.30678 0.65541,0.53231 0.8305,0.92036 0.12384,0.2744 0,0.61358 0,0.92037 0,0.61358 0.17508,1.25864 0,1.84072 -0.19575,0.6508 -0.63476,1.18994 -0.8305,1.84073 -0.0876,0.29104 0.12384,0.64596 0,0.92036 -0.17508,0.38806 -0.65541,0.53231 -0.83049,0.92037 -0.12385,0.2744 0,0.61358 0,0.92036 0,0.30679 0,0.61358 0,0.92037 0,0.30678 -0.19575,1.13729 0,0.92036 0.4377,-0.48507 0.39279,-1.35566 0.83049,-1.84073 0.4377,-0.48507 1.10732,-0.61358 1.66099,-0.92036 1.10732,-0.61358 2.1725,-1.33119 3.32198,-1.84073 0.81281,-0.36031 1.66099,-0.61358 2.49149,-0.92036 0.83049,-0.30679 1.67867,-0.56006 2.49148,-0.92037 0.57474,-0.25477 1.06046,-0.75399 1.66099,-0.92036 0.75288,-0.20859 3.18772,0 4.15248,0 0.55366,0 1.10732,0 1.66099,0 0.55366,0 1.13574,-0.19403 1.66098,0 0.74283,0.2744 1.0095,1.3594 1.66099,1.84073 0.51506,0.38053 1.06046,0.75399 1.66099,0.92036 0.53714,0.14882 1.20032,-0.34036 1.66099,0 0.51506,0.38053 0.31545,1.4602 0.8305,1.84073 3.94716,2.9162 -0.69816,-3.5348 3.32198,0.92036 0.4377,0.48507 0.45908,1.29193 0.83049,1.84073 0.4698,0.69417 1.0346,1.3201 1.66099,1.84073 1.79866,1.49496 1.93502,0.19933 3.32198,2.76109 1.58792,5.27926 -0.24452,0.55905 2.49149,4.60182 0.37141,0.5488 0.45908,1.29192 0.83049,1.84073 0.4698,0.69417 1.31083,1.0646 1.66099,1.84072 0.24761,0.54881 -0.2476,1.29193 0,1.84073 0.12385,0.2744 0.63476,-0.21693 0.8305,0 0.19574,0.21693 0.19574,0.70344 0,0.92036 -0.19574,0.21693 -1.0781,0.13725 -0.8305,0 0.78301,-0.43386 1.67868,-0.56005 2.49149,-0.92036 1.14948,-0.50954 2.12091,-1.50797 3.32198,-1.84073 0.53714,-0.14882 1.12385,0.14882 1.66099,0 1.20107,-0.33276 2.17249,-1.33118 3.32198,-1.84072 2.63425,-1.16773 3.29688,-0.92037 5.81346,-0.92037 0.37402,0 2.23874,-0.14004 2.49149,0 0.35016,0.19403 0.50474,0.6797 0.83049,0.92037 0.51506,0.38053 1.14594,0.53983 1.66099,0.92036 0.6515,0.48133 0.96065,1.45267 1.66099,1.84073 0.24761,0.13724 0.58289,-0.13725 0.8305,0 0.35016,0.19402 0.55367,0.61358 0.83049,0.92036 0.27683,0.30678 0.65542,0.53231 0.8305,0.92036 0.12384,0.27441 -0.12384,0.64597 0,0.92037 0.17508,0.38805 0.70669,0.50876 0.83049,0.92036 0.0756,0.25139 0.0645,5.23647 0,5.52219 -0.15012,0.66551 -0.48712,1.26994 -0.83049,1.84072 -0.43433,0.722 -1.22666,1.11874 -1.66099,1.84073 -0.34337,0.57079 -0.48712,1.26994 -0.8305,1.84073 -0.76167,1.26614 -1.28122,0.94657 -2.49148,1.84073 -0.32575,0.24066 -0.45069,0.81513 -0.8305,0.92036 -6.22099,1.72354 0.56976,-1.69625 -4.15247,0.92036 -0.55367,0.30679 -1.07374,0.70344 -1.66099,0.92037 -0.49824,0.18406 -3.48978,0 -4.15248,0 -0.27682,0 -0.55366,0 -0.83049,0 -0.27683,0 -0.63475,-0.21693 -0.8305,0 -0.19574,0.21692 0.19575,0.70343 0,0.92036 -0.19574,0.21693 -0.83049,0.30678 -0.83049,0 0,-0.30678 0.63475,-0.21693 0.83049,0 1.71833,1.90427 -2.62582,-0.0744 0.8305,1.84073 2.04856,1.13511 -0.4983,-2.57702 0.83049,1.84073 0.24761,0.8232 1.41339,1.01752 1.66099,1.84072 0.17509,0.58209 -0.17508,1.25865 0,1.84073 0.12385,0.4116 0.65542,0.53231 0.8305,0.92037 0.10737,0.23807 0.10232,5.18178 0,5.52218 -0.19575,0.65079 -0.48712,1.26994 -0.8305,1.84073 -0.43432,0.72199 -1.10732,1.22714 -1.66099,1.84072 -0.55366,0.61358 -1.10732,1.22715 -1.66099,1.84073 -0.27682,0.30678 -0.50474,0.6797 -0.83049,0.92036 -0.51505,0.38053 -1.14594,0.53984 -1.66099,0.92037 -0.32575,0.24066 -0.45909,0.78316 -0.8305,0.92036 -0.52524,0.19403 -1.14692,-0.22788 -1.66099,0 -0.92674,0.41081 -1.54457,1.49093 -2.49148,1.84073 -0.13685,0.0505 -4.71659,-0.0492 -4.98297,0 -6.55872,1.21141 1.49501,0.92036 -4.98297,0.92036 -0.53443,0 -5.25143,0.15571 -5.81347,0 -0.60053,-0.16637 -1.10732,-0.61358 -1.66099,-0.92036 -0.83049,-0.30678 -1.63307,-0.73011 -2.49148,-0.92036 -0.54292,-0.12031 -1.13575,0.19402 -1.66099,0 -0.37141,-0.13725 -0.50474,-0.6797 -0.83049,-0.92037 -0.51506,-0.38053 -1.14594,-0.53983 -1.66099,-0.92036 -0.32576,-0.24067 -0.48034,-0.72634 -0.8305,-0.92037 -0.24761,-0.13724 -0.58289,0.13725 -0.83049,0 -0.43089,-0.23874 -2.23373,-2.76109 -2.49149,-2.76109 -0.27683,0 -0.12384,0.64597 0,0.92037 0.17508,0.38805 0.65541,0.53231 0.8305,0.92036 0.12384,0.2744 0,0.61358 0,0.92036 0,0.30679 0.12384,0.64597 0,0.92037 -0.38009,0.84243 -1.88458,1.61653 -2.49149,1.84073 -0.26262,0.097 -0.58289,-0.13725 -0.83049,0 -2.53266,1.40335 1.51892,0.72963 -2.49149,1.84072 -0.53714,0.14882 -1.10732,0 -1.66099,0 -1.93782,0 -3.87565,0 -5.81346,0 -0.72343,0 -4.67644,0.16985 -4.98297,0 -0.35017,-0.19402 -0.50475,-0.6797 -0.8305,-0.92036 -1.03011,-0.76104 -2.33155,-1.01752 -3.32198,-1.84073 -0.0818,-0.068 -3.0258,-3.18912 -3.32198,-3.68145 -0.34337,-0.57079 -0.39279,-1.35566 -0.83049,-1.84073 -0.43771,-0.48507 -1.31762,-0.34958 -1.66099,-0.92036 -0.30713,-0.51053 0.13428,-1.24547 0,-1.84073 1.5039,-3.85058 -1.31083,-1.06461 -1.66099,-1.84073 -0.24761,-0.5488 0.2476,-1.29193 0,-1.84073 -0.12385,-0.2744 -0.55367,0 -0.8305,0 0,-0.61358 0,-1.22714 0,-1.84072 0,-0.30679 0,0.61358 0,0.92036 0,0.30678 0,0.61358 0,0.92036 0,0.30679 0.12384,0.64597 0,0.92037 -0.17181,0.38079 -2.13947,2.50102 -2.49148,2.76109 -0.51506,0.38053 -1.07375,0.70344 -1.66099,0.92036 -0.4901,0.18104 -3.68846,0 -4.15248,0 -0.70314,0 -2.8755,0.16493 -3.32198,0 -0.37141,-0.13724 -0.55367,-0.61358 -0.83049,-0.92036 -0.27683,-0.30678 -0.50475,-0.6797 -0.8305,-0.92037 -0.51505,-0.38053 -1.22328,-0.43529 -1.66099,-0.92036 -4.24415,-4.70341 3.48225,1.28367 -2.49148,-3.68145 -0.49522,-0.41161 -1.31762,-0.34958 -1.66099,-0.92037 -0.30713,-0.51053 0.17508,-1.25864 0,-1.84073 -0.24761,-0.8232 -1.41339,-1.01752 -1.66099,-1.84072 -0.17508,-0.58209 0.17508,-1.25865 0,-1.84073 -0.12385,-0.4116 -0.70669,-0.50876 -0.8305,-0.92037 -0.17508,-0.58208 0.24761,-1.29192 0,-1.84072 -0.12384,-0.2744 -0.97293,0.26306 -0.83049,0 0.91199,-1.68446 2.21465,-3.06788 0,-1.84073 z"
       id="path2906" />
    <path
       style="fill:none;stroke:#000000;stroke-width:1px;stroke-linecap:butt;stroke-linejoin:miter;stroke-opacity:1"
       d="m 288.125,250.625 c 0,0.83333 0,1.66667 0,2.5 0,4.14573 0.29463,-0.88388 -0.625,1.875 -0.19764,0.59293 0,1.25 0,1.875 0,1.45833 0,2.91667 0,4.375 0,0.15158 0.0201,1.8549 0,1.875 -0.14731,0.14731 -0.47769,-0.14731 -0.625,0 -0.14731,0.14731 0,0.41667 0,0.625 0,1.25 0,2.5 0,3.75 0,0.20833 -0.14731,0.47769 0,0.625 0.14731,0.14731 0.47769,-0.14731 0.625,0 0.14731,0.14731 0,0.41667 0,0.625 0,0.20833 0,0.41667 0,0.625"
       id="path2908" />
    <path
       style="fill:none;stroke:#000000;stroke-width:1px;stroke-linecap:butt;stroke-linejoin:miter;stroke-opacity:1"
       d="m 298.125,253.75 c 0,0.20833 -0.0932,0.43866 0,0.625 0.13176,0.26352 0.49324,0.36148 0.625,0.625 0.13906,0.27811 -0.0953,2.21413 0,2.5 0.0932,0.27951 0.53183,0.34549 0.625,0.625 0.11521,0.34564 0,3.12059 0,3.75 0,2.70833 0,5.41667 0,8.125"
       id="path2910" />
    <path
       style="fill:none;stroke:#000000;stroke-width:1px;stroke-linecap:butt;stroke-linejoin:miter;stroke-opacity:1"
       d="m 345,261.25 c 0,1.25 0,2.5 0,3.75 0,0.20833 0,0.41667 0,0.625 0,0.20833 0.0932,0.43866 0,0.625 -0.13176,0.26352 -0.49324,0.36148 -0.625,0.625 -0.0932,0.18634 0,0.41667 0,0.625 0,0.20833 0,0.41667 0,0.625 0,0.43471 0.11301,2.89898 0,3.125 -0.13176,0.26352 -0.49324,0.36148 -0.625,0.625 -0.25,0.5 0.25,1.375 0,1.875 -0.13176,0.26352 -0.49324,0.36148 -0.625,0.625 -0.0951,0.19021 0,1.59353 0,1.875"
       id="path2912" />
    <path
       style="fill:none;stroke:#000000;stroke-width:1px;stroke-linecap:butt;stroke-linejoin:miter;stroke-opacity:1"
       d="m 337.5,262.5 c 0,1.04167 0,2.08333 0,3.125 0,1.25 0,2.5 0,3.75 0,0.20833 0,0.41667 0,0.625 0,0.20833 0.0932,0.43866 0,0.625 -0.13176,0.26352 -0.49324,0.36148 -0.625,0.625 -0.21585,0.43171 0.21939,2.90561 0,3.125 -0.14731,0.14731 -0.47769,-0.14731 -0.625,0 -0.14964,0.14964 0.14208,2.5 0,2.5 -0.20833,0 0,-0.41667 0,-0.625"
       id="path2914" />
    <path
       style="fill:#000000;fill-opacity:1;stroke:#000000;stroke-width:1px;stroke-linecap:butt;stroke-linejoin:miter;stroke-opacity:1"
       d="m 275.625,194.375 c -0.64657,0 -0.86384,0.14731 -1.25,-0.625 -0.0932,-0.18634 0.14731,-0.47769 0,-0.625 -0.14731,-0.14731 -0.43866,0.0932 -0.625,0 -0.26352,-0.13176 -0.36148,-0.49324 -0.625,-0.625 -0.5,-0.25 -1.375,0.25 -1.875,0 -0.26352,-0.13176 -0.36148,-0.49324 -0.625,-0.625 -0.39283,-0.19641 -2.10717,0.19641 -2.5,0 -0.26352,-0.13176 -0.34549,-0.53183 -0.625,-0.625 -0.59293,-0.19764 -1.25,0 -1.875,0 -1.66667,0 -3.33333,0 -5,0 -1.25,0 -2.5,0 -3.75,0 -0.41667,0 -0.87732,-0.18634 -1.25,0 -0.18634,0.0932 0.14731,0.47769 0,0.625 -0.14731,0.14731 -0.43866,-0.0932 -0.625,0 -0.26352,0.13176 -0.36148,0.49324 -0.625,0.625 -0.24781,0.1239 -1.74723,-0.12777 -1.875,0 -0.14731,0.14731 0.14731,0.47769 0,0.625 -0.14731,0.14731 -0.47769,-0.14731 -0.625,0 -0.14731,0.14731 0.14731,0.47769 0,0.625 -1.29315,1.29315 0.0505,-1.9761 -1.25,0.625 -0.0932,0.18634 0.0932,0.43866 0,0.625 -0.13176,0.26352 -0.49324,0.36148 -0.625,0.625 -0.0932,0.18634 0.0932,0.43866 0,0.625 -0.13176,0.26352 -0.49324,0.36148 -0.625,0.625 -0.0932,0.18634 0,0.41667 0,0.625 0,0.20833 0,0.41667 0,0.625 0,1.04167 0,2.08333 0,3.125 0,0.20833 0,0.41667 0,0.625 0,0.20833 0.0932,0.43866 0,0.625 -0.13176,0.26352 -0.49324,0.36148 -0.625,0.625 -0.11301,0.22602 0,2.69029 0,3.125 0,0.32683 -0.0822,2.33566 0,2.5 1.30055,2.6011 -0.0431,-0.66815 1.25,0.625 0.29463,0.29463 -0.29463,0.95537 0,1.25 0.14731,0.14731 0.53183,-0.18634 0.625,0 0.18634,0.37268 -0.18634,0.87732 0,1.25 0.0932,0.18634 0.47769,-0.14731 0.625,0 0.14731,0.14731 -0.0932,0.43866 0,0.625 0.13176,0.26352 0.49324,0.36148 0.625,0.625 0.0932,0.18634 -0.0932,0.43866 0,0.625 0.1669,0.3338 1.54596,1.54596 1.875,1.875 0.32904,0.32904 1.5412,1.7081 1.875,1.875 0.37268,0.18634 0.87732,-0.18634 1.25,0 2.6011,1.30055 -0.66815,-0.0431 0.625,1.25 0.14731,0.14731 0.43866,-0.0932 0.625,0 0.26352,0.13176 0.36148,0.49324 0.625,0.625 0.18634,0.0932 0.47769,-0.14731 0.625,0 0.14731,0.14731 -0.14731,0.47769 0,0.625 0.14731,0.14731 0.43866,-0.0932 0.625,0 0.26352,0.13176 0.36148,0.49324 0.625,0.625 0.24781,0.1239 1.74723,-0.12777 1.875,0 0.14731,0.14731 -0.14731,0.47769 0,0.625 0.14731,0.14731 0.47769,-0.14731 0.625,0 0.14731,0.14731 -0.14731,0.47769 0,0.625 0.29463,0.29463 0.85472,-0.13176 1.25,0 0.44194,0.14731 0.80806,0.47769 1.25,0.625 0.19764,0.0659 0.43866,-0.0932 0.625,0 0.26352,0.13176 0.36148,0.49324 0.625,0.625 0.22602,0.11301 2.69029,0 3.125,0 1.04167,0 2.08333,0 3.125,0 0.41667,0 0.83333,0 1.25,0 0.20833,0 0.625,-0.20833 0.625,0 0,0.0575 -2.07286,0.0659 0,-0.625 0.39528,-0.13176 0.83333,0 1.25,0 0.20833,0 0.43866,0.0932 0.625,0 1.54463,-0.77231 -0.21574,-0.625 1.25,-0.625"
       id="path2916" />
    <path
       style="fill:#7a4904;stroke:#000000;stroke-width:1px;stroke-linecap:butt;stroke-linejoin:miter;stroke-opacity:1;fill-opacity:1"
       d="m 103.125,287.5 c -31.25,-75 -31.25,-75 -31.25,-75 L 67.5,1.25 0,0 l 0.625,290 102.5,-2.5 z"
       id="path3694" />
    <path
       style="fill:#2ada1d;stroke:#000000;stroke-width:1px;stroke-linecap:butt;stroke-linejoin:miter;stroke-opacity:1;fill-opacity:1"
       d="M 35.625,1.25 C 18.861084,20.183648 10.032426,37.353905 52.5,43.125 c 21.065323,49.350537 40.568025,31.508402 60,10.625 35.92323,16.036466 62.33024,20.272833 56.875,-15 58.2311,-0.685821 44.48212,-18.308128 18.75,-38.75"
       id="path3698"
       sodipodi:nodetypes="ccccc" />
  </g>
</svg>
