<?xml version="1.0" encoding="UTF-8" standalone="no"?>
<!-- Created with Inkscape (http://www.inkscape.org/) -->

<svg
   xmlns:dc="http://purl.org/dc/elements/1.1/"
   xmlns:cc="http://creativecommons.org/ns#"
   xmlns:rdf="http://www.w3.org/1999/02/22-rdf-syntax-ns#"
   xmlns:svg="http://www.w3.org/2000/svg"
   xmlns="http://www.w3.org/2000/svg"
   xmlns:xlink="http://www.w3.org/1999/xlink"
   xmlns:sodipodi="http://sodipodi.sourceforge.net/DTD/sodipodi-0.dtd"
   xmlns:inkscape="http://www.inkscape.org/namespaces/inkscape"
   width="343pt"
   height="340pt"
   id="svg2816"
   version="1.1"
   inkscape:version="0.47pre4 r22446"
   sodipodi:docname="waterway__river.svg"
   inkscape:export-filename="/home/andy/src/potlatch2/resources/features/waterway__river.png"
   inkscape:export-xdpi="8.3623695"
   inkscape:export-ydpi="8.3623695">
  <defs
     id="defs2818">
    <linearGradient
       inkscape:collect="always"
       id="linearGradient3619">
      <stop
         style="stop-color:#00ffff;stop-opacity:1;"
         offset="0"
         id="stop3621" />
      <stop
         style="stop-color:#00ffff;stop-opacity:0;"
         offset="1"
         id="stop3623" />
    </linearGradient>
    <linearGradient
       inkscape:collect="always"
       id="linearGradient3609">
      <stop
         style="stop-color:#008000;stop-opacity:1;"
         offset="0"
         id="stop3611" />
      <stop
         style="stop-color:#008000;stop-opacity:0;"
         offset="1"
         id="stop3613" />
    </linearGradient>
    <inkscape:perspective
       sodipodi:type="inkscape:persp3d"
       inkscape:vp_x="0 : 212.5 : 1"
       inkscape:vp_y="0 : 1000 : 0"
       inkscape:vp_z="428.75 : 212.5 : 1"
       inkscape:persp3d-origin="214.375 : 141.66667 : 1"
       id="perspective2825" />
    <linearGradient
       inkscape:collect="always"
       xlink:href="#linearGradient3609"
       id="linearGradient3615"
       x1="215"
       y1="188.25"
       x2="215"
       y2="430.5"
       gradientUnits="userSpaceOnUse"
       gradientTransform="translate(0,-2.5)" />
    <linearGradient
       inkscape:collect="always"
       xlink:href="#linearGradient3619"
       id="linearGradient3625"
       x1="215"
       y1="188.75"
       x2="215"
       y2="0"
       gradientUnits="userSpaceOnUse"
       gradientTransform="matrix(1.001462,0,0,1,-0.0018275,-0.625)" />
    <inkscape:perspective
       id="perspective3729"
       inkscape:persp3d-origin="0.5 : 0.33333333 : 1"
       inkscape:vp_z="1 : 0.5 : 1"
       inkscape:vp_y="0 : 1000 : 0"
       inkscape:vp_x="0 : 0.5 : 1"
       sodipodi:type="inkscape:persp3d" />
    <inkscape:perspective
       id="perspective3729-4"
       inkscape:persp3d-origin="0.5 : 0.33333333 : 1"
       inkscape:vp_z="1 : 0.5 : 1"
       inkscape:vp_y="0 : 1000 : 0"
       inkscape:vp_x="0 : 0.5 : 1"
       sodipodi:type="inkscape:persp3d" />
    <inkscape:perspective
       id="perspective3729-8"
       inkscape:persp3d-origin="0.5 : 0.33333333 : 1"
       inkscape:vp_z="1 : 0.5 : 1"
       inkscape:vp_y="0 : 1000 : 0"
       inkscape:vp_x="0 : 0.5 : 1"
       sodipodi:type="inkscape:persp3d" />
    <inkscape:perspective
       id="perspective3729-0"
       inkscape:persp3d-origin="0.5 : 0.33333333 : 1"
       inkscape:vp_z="1 : 0.5 : 1"
       inkscape:vp_y="0 : 1000 : 0"
       inkscape:vp_x="0 : 0.5 : 1"
       sodipodi:type="inkscape:persp3d" />
    <inkscape:perspective
       id="perspective3729-2"
       inkscape:persp3d-origin="0.5 : 0.33333333 : 1"
       inkscape:vp_z="1 : 0.5 : 1"
       inkscape:vp_y="0 : 1000 : 0"
       inkscape:vp_x="0 : 0.5 : 1"
       sodipodi:type="inkscape:persp3d" />
    <inkscape:perspective
       id="perspective3729-48"
       inkscape:persp3d-origin="0.5 : 0.33333333 : 1"
       inkscape:vp_z="1 : 0.5 : 1"
       inkscape:vp_y="0 : 1000 : 0"
       inkscape:vp_x="0 : 0.5 : 1"
       sodipodi:type="inkscape:persp3d" />
    <inkscape:perspective
       id="perspective3729-44"
       inkscape:persp3d-origin="0.5 : 0.33333333 : 1"
       inkscape:vp_z="1 : 0.5 : 1"
       inkscape:vp_y="0 : 1000 : 0"
       inkscape:vp_x="0 : 0.5 : 1"
       sodipodi:type="inkscape:persp3d" />
    <inkscape:perspective
       id="perspective3729-6"
       inkscape:persp3d-origin="0.5 : 0.33333333 : 1"
       inkscape:vp_z="1 : 0.5 : 1"
       inkscape:vp_y="0 : 1000 : 0"
       inkscape:vp_x="0 : 0.5 : 1"
       sodipodi:type="inkscape:persp3d" />
    <inkscape:perspective
       id="perspective3729-05"
       inkscape:persp3d-origin="0.5 : 0.33333333 : 1"
       inkscape:vp_z="1 : 0.5 : 1"
       inkscape:vp_y="0 : 1000 : 0"
       inkscape:vp_x="0 : 0.5 : 1"
       sodipodi:type="inkscape:persp3d" />
    <inkscape:perspective
       id="perspective3729-85"
       inkscape:persp3d-origin="0.5 : 0.33333333 : 1"
       inkscape:vp_z="1 : 0.5 : 1"
       inkscape:vp_y="0 : 1000 : 0"
       inkscape:vp_x="0 : 0.5 : 1"
       sodipodi:type="inkscape:persp3d" />
  </defs>
  <sodipodi:namedview
     pagecolor="#ffffff"
     bordercolor="#666666"
     borderopacity="1.0"
     inkscape:pageopacity="0.0"
     inkscape:pageshadow="2"
     inkscape:zoom="1.6"
     inkscape:cx="91.10182"
     inkscape:cy="194.75636"
     inkscape:document-units="pt"
     inkscape:current-layer="layer1"
     id="namedview2820"
     showgrid="false"
     inkscape:window-width="1680"
     inkscape:window-height="1026"
     inkscape:window-x="1280"
     inkscape:window-y="0"
     inkscape:window-maximized="1" />
  <metadata
     id="metadata2822">
    <rdf:RDF>
      <cc:Work
         rdf:about="">
        <dc:format>image/svg+xml</dc:format>
        <dc:type
           rdf:resource="http://purl.org/dc/dcmitype/StillImage" />
        <dc:title />
      </cc:Work>
    </rdf:RDF>
  </metadata>
  <g
     inkscape:label="Layer 1"
     inkscape:groupmode="layer"
     id="layer1">
    <rect
       style="fill:url(#linearGradient3615);fill-opacity:1;fill-rule:evenodd;stroke:#000000;stroke-width:1px;stroke-linecap:butt;stroke-linejoin:miter;stroke-opacity:1"
       id="rect2827"
       width="430"
       height="241.25"
       x="0"
       y="186.25" />
    <rect
       style="fill:url(#linearGradient3625);fill-opacity:1"
       id="rect3617"
       width="428.125"
       height="188.75"
       x="1.25"
       y="-0.625" />
    <path
       style="fill:#3144d6;stroke:#000000;stroke-width:1px;stroke-linecap:butt;stroke-linejoin:miter;stroke-opacity:1;fill-opacity:1"
       d="m 41.875,191.875 85,232.5 266.25,-0.625 L 166.25,193.125 41.875,191.875 z"
       id="path2904"
       sodipodi:nodetypes="ccccc" />
    <path
       style="fill:#7a4904;fill-opacity:1;stroke:#000000;stroke-width:0.38667664px;stroke-linecap:butt;stroke-linejoin:miter;stroke-opacity:1"
       d="M 40.291649,266.84233 C 28.178526,237.91216 28.178526,237.91216 28.178526,237.91216 L 26.482688,156.42551 0.31833832,155.94334 0.56060088,267.80666 40.291649,266.84233 z"
       id="path3694" />
    <path
       style="fill:#2ada1d;fill-opacity:1;stroke:#000000;stroke-width:0.38667664px;stroke-linecap:butt;stroke-linejoin:miter;stroke-opacity:1"
       d="m 0.3773,157.67551 c -6.4980285,7.30337 3.8298071,12.67656 20.291087,14.90267 8.165341,19.03627 15.724976,12.15392 23.257199,4.09845 13.924562,6.18583 31.035446,-15.30505 28.920887,-28.91104 3.970801,-12.24305 -60.648305,-54.218797 -73.357125,-21.19725"
       id="path3698"
       sodipodi:nodetypes="ccccc" />
    <path
       style="fill:#ffffff;fill-opacity:1;stroke:#000000;stroke-width:0.47905955px;stroke-linecap:butt;stroke-linejoin:miter;stroke-opacity:1"
       d="m 320.09905,232.13448 c -0.0909,0.21902 -0.0909,0.54774 -0.27279,0.65731 -0.98403,0.59277 -0.6024,-0.58881 -1.36388,0.32864 -0.14369,0.17309 -0.12902,0.48408 -0.27278,0.65728 -0.1437,0.17309 -0.36371,0.21902 -0.54555,0.32867 -0.18194,0.10951 -0.35268,0.25108 -0.54557,0.32864 -0.15382,0.0617 -0.63909,0 -0.81833,0 -0.0909,0 -0.20849,0.0775 -0.27278,0 -0.12859,-0.1549 0.12861,-0.50236 0,-0.65731 -0.12859,-0.15489 -0.41698,0.15489 -0.54555,0 -0.12861,-0.15489 0.12859,-0.50236 0,-0.65728 -0.0643,-0.0775 -0.2085,0.0775 -0.27278,0 -0.1286,-0.15489 0.0813,-0.46133 0,-0.65728 -0.0575,-0.13859 -0.21529,-0.19022 -0.27279,-0.32867 -0.0541,-0.13016 0.0558,-0.91875 0,-0.98592 -0.0643,-0.0775 -0.2085,0.0775 -0.27278,0 -0.12859,-0.1549 0.12861,-0.50236 0,-0.65731 -0.0643,-0.0775 -0.20849,0.0775 -0.27278,0 -0.0643,-0.0775 0.0408,-0.23071 0,-0.32864 -0.0575,-0.13859 -0.21526,-0.19022 -0.27277,-0.32864 -0.0416,-0.1 0,-0.83793 0,-0.98595 0,-0.10951 0,-0.21902 0,-0.32864 0,-0.10951 -0.0408,-0.23071 0,-0.32864 0.0575,-0.13859 0.15775,-0.25924 0.27277,-0.32864 0.0986,-0.0595 1.17418,0 1.36389,0 0.18195,0 0.36371,0 0.54557,0 0.091,0 0.27277,-0.10951 0.27277,0 0,0.10951 -0.20849,0.0775 -0.27277,0 -0.0643,-0.0775 0.0408,-0.23071 0,-0.32864 -0.0575,-0.13859 -0.21527,-0.19022 -0.27278,-0.32867 -0.0408,-0.0981 0.0408,-0.23071 0,-0.32864 -0.0575,-0.13859 -0.23212,-0.18152 -0.27279,-0.32864 -0.0575,-0.20788 0.044,-0.44473 0,-0.65728 -0.0494,-0.23777 -0.20847,-0.42492 -0.27276,-0.65731 -0.0288,-0.1038 0,-0.21902 0,-0.32864 0,-0.21902 0,-0.43821 0,-0.65728 0,-1.20505 0,-2.41008 0,-3.61513 0,-0.13831 -0.0405,-1.87409 0,-1.97187 0.0574,-0.13858 0.21527,-0.18994 0.27276,-0.32864 0.0408,-0.0981 -0.0408,-0.2307 0,-0.32864 0.0575,-0.13859 0.18195,-0.21902 0.27279,-0.32867 0.091,-0.10951 0.15776,-0.25924 0.27278,-0.32864 0.0813,-0.0489 0.18649,0.0348 0.27277,0 0.1929,-0.0775 0.34832,-0.26929 0.54556,-0.32864 0.35286,-0.10625 0.73826,0.10625 1.09112,0 0.19724,-0.0595 0.34831,-0.26929 0.54555,-0.32864 0.24354,-0.0734 1.04815,0 1.3639,0 0.091,0 0.20847,-0.0775 0.27278,0 0.0643,0.0775 -0.0408,0.23071 0,0.32864 0.56762,1.36775 -0.0186,-0.35133 0.54556,0.32864 0.0643,0.0775 -0.0643,0.25109 0,0.32864 0.0643,0.0775 0.20848,-0.0775 0.27277,0 0.12861,0.15489 -0.1286,0.50237 0,0.65731 0.0643,0.0775 0.20849,-0.0775 0.27277,0 0.16251,0.19593 -0.27224,0.98592 0.2728,0.98592 0.025,0 -0.0314,-0.92926 0,-0.98592 0.14266,-0.25788 0.39124,-0.40942 0.54556,-0.65731 0.12199,-0.19592 0.16003,-0.45347 0.27277,-0.65728 0.15693,-0.28358 0.60527,-0.72924 0.81834,-0.98595 0.0909,-0.10951 0.18194,-0.21902 0.27276,-0.32864 0.091,-0.10951 0.15776,-0.25924 0.2728,-0.32864 0.0831,-0.05 0.69549,0 0.81834,0 0.21959,0 0.91989,-0.0688 1.09111,0 0.1929,0.0775 0.34831,0.2693 0.54556,0.32864 0.44105,0.13289 0.91808,-0.10734 1.36387,0 0.19932,0.0481 0.34502,0.28837 0.54557,0.32864 0.35876,0.072 0.72741,0 1.09111,0 0.27279,0 0.54557,0 0.81834,0 0.18194,0 0.36914,-0.0533 0.54556,0 0.39449,0.11875 0.69662,0.53849 1.0911,0.65731 0.17637,0.0533 0.36374,0 0.54557,0 0.0909,0 0.19146,-0.0489 0.2728,0 0.11494,0.0693 0.15774,0.25924 0.27276,0.32864 0.0813,0.0489 0.19146,-0.0489 0.27277,0 0.11494,0.0693 0.18196,0.21902 0.2728,0.32864 0.091,0.10951 0.21525,0.19022 0.27277,0.32864 0.0408,0.0981 0,0.21902 0,0.32867 0,0.21902 0.0575,0.44943 0,0.65728 -0.0643,0.23234 -0.20849,0.42492 -0.27277,0.65728 -0.0288,0.10408 0.0408,0.23071 0,0.32867 -0.0575,0.13858 -0.21527,0.18995 -0.2728,0.32864 -0.0408,0.0981 0,0.21902 0,0.32864 0,0.10951 0,0.21902 0,0.32864 0,0.10951 -0.0643,0.40611 0,0.32864 0.1437,-0.17309 0.12902,-0.48407 0.2728,-0.65728 0.1437,-0.1731 0.3637,-0.21902 0.54555,-0.32864 0.36369,-0.21902 0.71357,-0.47535 1.09112,-0.65731 0.26697,-0.12853 0.54554,-0.21902 0.81834,-0.32864 0.27277,-0.10951 0.55135,-0.19999 0.81834,-0.32864 0.18876,-0.0911 0.34829,-0.26929 0.54553,-0.32864 0.24731,-0.0745 1.04703,0 1.3639,0 0.18195,0 0.36371,0 0.54557,0 0.18174,0 0.37303,-0.0693 0.54554,0 0.244,0.0981 0.33158,0.48541 0.54557,0.65728 0.16912,0.13588 0.34831,0.2693 0.54556,0.32864 0.17636,0.0533 0.39424,-0.12146 0.54554,0 0.16914,0.13588 0.10364,0.52142 0.2728,0.65731 1.29645,1.04133 -0.22931,-1.26222 1.0911,0.32864 0.1437,0.1731 0.15073,0.46134 0.2728,0.65728 0.15424,0.24782 0.3398,0.47138 0.54555,0.65731 0.59077,0.53384 0.63556,0.0712 1.09112,0.98592 0.52154,1.88517 -0.0805,0.19973 0.81834,1.64326 0.12198,0.19592 0.15072,0.46131 0.27277,0.65728 0.15424,0.24782 0.43054,0.38017 0.54556,0.65728 0.0813,0.19593 -0.0813,0.46134 0,0.65731 0.0408,0.0981 0.20849,-0.0775 0.27277,0 0.0643,0.0775 0.0643,0.25108 0,0.32864 -0.0643,0.0775 -0.3541,0.0489 -0.27277,0 0.25719,-0.15489 0.55135,-0.2 0.81834,-0.32864 0.37755,-0.18207 0.69662,-0.53848 1.0911,-0.65731 0.17637,-0.0533 0.36914,0.0533 0.54557,0 0.39449,-0.11875 0.71355,-0.47533 1.09111,-0.65728 0.86522,-0.41698 1.08287,-0.32864 1.90946,-0.32864 0.12282,0 0.7353,-0.05 0.81834,0 0.11494,0.0693 0.16581,0.24267 0.27276,0.32864 0.16913,0.13587 0.37638,0.19266 0.54557,0.32864 0.21397,0.17174 0.31553,0.51872 0.54555,0.65731 0.0813,0.0489 0.19145,-0.0489 0.27278,0 0.11494,0.0693 0.18196,0.21902 0.27278,0.32864 0.0909,0.10951 0.21528,0.18995 0.27277,0.32864 0.0408,0.0981 -0.0408,0.23071 0,0.32864 0.0575,0.13858 0.23212,0.18179 0.2728,0.32864 0.0248,0.0897 0.0211,1.86986 0,1.9719 -0.0493,0.2375 -0.16003,0.45348 -0.2728,0.65728 -0.14266,0.25788 -0.40288,0.39948 -0.54555,0.65728 -0.11284,0.20381 -0.16002,0.45348 -0.27278,0.65731 -0.25018,0.45212 -0.42082,0.33799 -0.81835,0.65728 -0.1069,0.0859 -0.14803,0.29109 -0.27277,0.32864 -2.04329,0.61546 0.18713,-0.60567 -1.36389,0.32867 -0.18195,0.10951 -0.35267,0.25108 -0.54554,0.32864 -0.16376,0.0658 -1.14624,0 -1.36391,0 -0.0909,0 -0.18194,0 -0.27277,0 -0.0909,0 -0.20849,-0.0775 -0.27279,0 -0.0643,0.0775 0.0643,0.25108 0,0.32864 -0.0643,0.0775 -0.27277,0.10951 -0.27277,0 0,-0.10951 0.20848,-0.0775 0.27277,0 0.56439,0.67997 -0.86246,-0.0272 0.27279,0.65728 0.67284,0.40535 -0.16375,-0.92019 0.27277,0.65731 0.0813,0.29394 0.46423,0.36334 0.54555,0.65728 0.0575,0.20788 -0.0575,0.44946 0,0.65731 0.0408,0.14701 0.21529,0.19022 0.27279,0.32864 0.0354,0.0851 0.0337,1.85032 0,1.97187 -0.0643,0.23234 -0.16003,0.45348 -0.27279,0.65731 -0.14266,0.25788 -0.36371,0.43817 -0.54555,0.65728 -0.18194,0.21902 -0.36369,0.4382 -0.54556,0.65728 -0.091,0.10951 -0.16582,0.24266 -0.27277,0.32867 -0.16913,0.13586 -0.3764,0.19266 -0.54557,0.32864 -0.1069,0.0859 -0.15072,0.27964 -0.27277,0.32864 -0.17243,0.0693 -0.3767,-0.0813 -0.54556,0 -0.30439,0.14674 -0.50731,0.53238 -0.81834,0.65728 -0.0448,0.019 -1.54917,-0.0163 -1.63667,0 -2.15424,0.43258 0.49104,0.32867 -1.63667,0.32867 -0.17553,0 -1.72486,0.0557 -1.90947,0 -0.19724,-0.0595 -0.36369,-0.21902 -0.54554,-0.32867 -0.27277,-0.10951 -0.53639,-0.2606 -0.81833,-0.32864 -0.17843,-0.043 -0.37305,0.0693 -0.54556,0 -0.122,-0.0489 -0.16583,-0.24266 -0.27278,-0.32864 -0.16913,-0.13587 -0.3764,-0.19267 -0.54557,-0.32864 -0.10713,-0.0859 -0.15775,-0.25924 -0.27277,-0.32864 -0.0813,-0.0489 -0.19145,0.0489 -0.27278,0 -0.14163,-0.0853 -0.73368,-0.98595 -0.81835,-0.98595 -0.0909,0 -0.0408,0.23071 0,0.32864 0.0575,0.13858 0.21528,0.19022 0.2728,0.32864 0.0408,0.0981 0,0.21902 0,0.32867 0,0.10951 0.0408,0.23071 0,0.32864 -0.12488,0.30081 -0.619,0.57722 -0.81833,0.65728 -0.0862,0.0348 -0.19146,-0.0489 -0.2728,0 -0.83186,0.50111 0.4989,0.2606 -0.81834,0.65731 -0.17635,0.0533 -0.3637,0 -0.54554,0 -0.63649,0 -1.27297,0 -1.90947,0 -0.23759,0 -1.53598,0.0606 -1.63666,0 -0.11494,-0.0693 -0.16582,-0.24266 -0.27277,-0.32867 -0.33836,-0.27174 -0.7658,-0.36332 -1.09113,-0.65728 -0.0269,-0.0245 -0.99383,-1.13878 -1.09112,-1.31459 -0.11284,-0.2038 -0.12901,-0.48408 -0.27277,-0.65728 -0.14369,-0.1731 -0.43277,-0.12474 -0.54556,-0.32864 -0.10084,-0.18234 0.044,-0.44476 0,-0.65731 0.49396,-1.37497 -0.43055,-0.38017 -0.54557,-0.65728 -0.0813,-0.19593 0.0813,-0.46133 0,-0.65731 -0.0407,-0.0981 -0.18173,0 -0.27276,0 0,-0.21902 0,-0.43818 0,-0.65728 0,-0.10951 0,0.21902 0,0.32864 0,0.10951 0,0.21902 0,0.32864 0,0.10951 0.0408,0.23071 0,0.32867 -0.0565,0.13586 -0.70272,0.89307 -0.81834,0.98592 -0.16912,0.13586 -0.35268,0.25108 -0.54556,0.32864 -0.16106,0.0647 -1.21148,0 -1.36388,0 -0.23096,0 -0.94448,0.059 -1.09114,0 -0.12198,-0.0489 -0.18194,-0.21902 -0.27276,-0.32864 -0.091,-0.10951 -0.16582,-0.24266 -0.27279,-0.32864 -0.16912,-0.13587 -0.40179,-0.15544 -0.54555,-0.32864 -1.394,-1.67951 1.14375,0.45836 -0.81833,-1.31459 -0.16272,-0.14701 -0.43278,-0.12473 -0.54557,-0.32864 -0.10085,-0.18234 0.0575,-0.44946 0,-0.65731 -0.0813,-0.29394 -0.46422,-0.36334 -0.54556,-0.65728 -0.0575,-0.20788 0.0575,-0.44946 0,-0.65731 -0.0408,-0.14701 -0.23211,-0.18152 -0.27277,-0.32864 -0.0575,-0.20788 0.0813,-0.4613 0,-0.65728 -0.0408,-0.0981 -0.31957,0.0941 -0.27278,0 0.29955,-0.60149 0.72741,-1.09549 0,-0.65731 z"
       id="path2906-6" />
    <path
       style="fill:none;stroke:#000000;stroke-width:0.34246901px;stroke-linecap:butt;stroke-linejoin:miter;stroke-opacity:1"
       d="m 319.57051,238.94927 c 0,0.29756 0,0.59514 0,0.89269 0,1.48038 0.0968,-0.31562 -0.20531,0.66954 -0.065,0.21168 0,0.44635 0,0.66953 0,0.52074 0,1.0415 0,1.56222 0,0.0541 0.006,0.66237 0,0.66954 -0.0483,0.0527 -0.15693,-0.0527 -0.20531,0 -0.0483,0.0527 0,0.14892 0,0.2231 0,0.44636 0,0.89271 0,1.33907 0,0.0745 -0.0483,0.17066 0,0.2231 0.0483,0.0527 0.15693,-0.0527 0.20531,0 0.0483,0.0527 0,0.14891 0,0.2231 0,0.0745 0,0.14891 0,0.2231"
       id="path2908-8" />
    <path
       style="fill:none;stroke:#000000;stroke-width:0.34246901px;stroke-linecap:butt;stroke-linejoin:miter;stroke-opacity:1"
       d="m 322.85504,240.06514 c 0,0.0745 -0.0306,0.15652 0,0.2231 0.0432,0.094 0.1621,0.12907 0.2053,0.2231 0.0457,0.0995 -0.0312,0.79062 0,0.89271 0.0306,0.0998 0.17471,0.12337 0.20531,0.2231 0.0378,0.12337 0,1.11428 0,1.33904 0,0.9671 0,1.93421 0,2.9013"
       id="path2910-7" />
    <path
       style="fill:none;stroke:#000000;stroke-width:0.34246901px;stroke-linecap:butt;stroke-linejoin:miter;stroke-opacity:1"
       d="m 338.25128,242.74325 c 0,0.44636 0,0.89272 0,1.33908 0,0.0745 0,0.14865 0,0.2231 0,0.0745 0.0306,0.15652 0,0.22309 -0.0432,0.0941 -0.16209,0.12908 -0.2053,0.2231 -0.0306,0.0666 0,0.14891 0,0.2231 0,0.0745 0,0.14864 0,0.2231 0,0.15516 0.037,1.03519 0,1.1159 -0.0432,0.094 -0.1621,0.12907 -0.20531,0.22308 -0.0821,0.17855 0.0821,0.49099 0,0.66954 -0.0432,0.0941 -0.16209,0.12909 -0.20531,0.2231 -0.0312,0.068 0,0.56902 0,0.66952"
       id="path2912-8" />
    <path
       style="fill:none;stroke:#000000;stroke-width:0.34246901px;stroke-linecap:butt;stroke-linejoin:miter;stroke-opacity:1"
       d="m 335.78788,243.18961 c 0,0.37196 0,0.74392 0,1.1159 0,0.44635 0,0.89269 0,1.33905 0,0.0745 0,0.14891 0,0.2231 0,0.0745 0.0306,0.15651 0,0.22309 -0.0432,0.094 -0.16209,0.12908 -0.2053,0.2231 -0.0709,0.15407 0.0722,1.03755 0,1.11589 -0.0483,0.0527 -0.15693,-0.0527 -0.20532,0 -0.0491,0.0536 0.0467,0.89269 0,0.89269 -0.0685,0 0,-0.14891 0,-0.22309"
       id="path2914-4" />
    <path
       style="fill:#000000;fill-opacity:1;stroke:#000000;stroke-width:0.34246901px;stroke-linecap:butt;stroke-linejoin:miter;stroke-opacity:1"
       d="m 315.46483,218.86335 c -0.21236,0 -0.28373,0.0527 -0.41058,-0.2231 -0.0306,-0.0666 0.0485,-0.17065 0,-0.2231 -0.0483,-0.0527 -0.1441,0.0332 -0.2053,0 -0.0866,-0.047 -0.11867,-0.17608 -0.20531,-0.2231 -0.16416,-0.0894 -0.45163,0.0892 -0.61586,0 -0.0866,-0.047 -0.11868,-0.17608 -0.2053,-0.2231 -0.12902,-0.0701 -0.69211,0.0701 -0.82115,0 -0.0866,-0.047 -0.11354,-0.18994 -0.20532,-0.22309 -0.19476,-0.0707 -0.41054,0 -0.61583,0 -0.54742,0 -1.09486,0 -1.64228,0 -0.41056,0 -0.82112,0 -1.23169,0 -0.13688,0 -0.28816,-0.0666 -0.41056,0 -0.0611,0.0332 0.0484,0.17065 0,0.22309 -0.0483,0.0527 -0.14411,-0.0332 -0.20531,0 -0.0866,0.047 -0.11868,0.17609 -0.20531,0.2231 -0.0815,0.0443 -0.57389,-0.0457 -0.61583,0 -0.0483,0.0527 0.0483,0.17065 0,0.2231 -0.0483,0.0527 -0.15693,-0.0527 -0.20531,0 -0.0483,0.0527 0.0483,0.17065 0,0.2231 -0.42475,0.46176 0.0165,-0.70563 -0.41057,0.2231 -0.0306,0.0666 0.0306,0.15651 0,0.2231 -0.0432,0.094 -0.1621,0.12907 -0.20532,0.22308 -0.0306,0.0666 0.0306,0.15653 0,0.2231 -0.0432,0.094 -0.1621,0.12908 -0.2053,0.2231 -0.0306,0.0666 0,0.14864 0,0.2231 0,0.0745 0,0.14864 0,0.2231 0,0.37196 0,0.74391 0,1.11586 0,0.0745 0,0.14891 0,0.2231 0,0.0745 0.0306,0.15652 0,0.2231 -0.0432,0.094 -0.1621,0.12908 -0.20531,0.2231 -0.0373,0.0807 0,0.96068 0,1.1159 0,0.11683 -0.0271,0.83401 0,0.89271 0.42716,0.9288 -0.0144,-0.23859 0.41055,0.22309 0.0968,0.10517 -0.0968,0.34115 0,0.44634 0.0483,0.0527 0.17472,-0.0666 0.20531,0 0.0613,0.13314 -0.0611,0.31328 0,0.44636 0.0306,0.0666 0.15692,-0.0527 0.20531,0 0.0483,0.0527 -0.0306,0.15678 0,0.22308 0.0432,0.0941 0.1621,0.12909 0.2053,0.2231 0.0306,0.0666 -0.0306,0.15653 0,0.2231 0.0548,0.1193 0.50777,0.55204 0.61585,0.66954 0.10807,0.11739 0.50621,0.60992 0.61586,0.66953 0.1224,0.0666 0.28815,-0.0666 0.41054,0 0.85436,0.46441 -0.21943,-0.0163 0.20532,0.44633 0.0484,0.0527 0.1441,-0.0332 0.2053,0 0.0866,0.047 0.11869,0.17609 0.20531,0.2231 0.0611,0.0332 0.15693,-0.0527 0.2053,0 0.0485,0.0527 -0.0483,0.17065 0,0.2231 0.0485,0.0527 0.14412,-0.0332 0.20532,0 0.0866,0.047 0.11867,0.17609 0.2053,0.2231 0.0815,0.0443 0.57389,-0.0457 0.61587,0 0.0483,0.0527 -0.0483,0.17065 0,0.2231 0.0483,0.0527 0.15692,-0.0527 0.2053,0 0.0483,0.0527 -0.0484,0.17065 0,0.2231 0.0968,0.10516 0.28073,-0.047 0.41056,0 0.14514,0.0527 0.26541,0.17064 0.41057,0.22309 0.0649,0.0245 0.14411,-0.0332 0.20531,0 0.0866,0.047 0.11868,0.17609 0.2053,0.22309 0.0742,0.0402 0.88363,0 1.02642,0 0.34214,0 0.68427,0 1.02642,0 0.13686,0 0.27369,0 0.41054,0 0.0685,0 0.20532,-0.0745 0.20532,0 0,0.0217 -0.68083,0.0245 0,-0.22309 0.12984,-0.047 0.27371,0 0.41056,0 0.0685,0 0.14411,0.0332 0.20532,0 0.50733,-0.27579 -0.0709,-0.22309 0.41054,-0.22309"
       id="path2916-88" />
    <path
       style="fill:#ffffff;fill-opacity:1;stroke:#000000;stroke-width:0.47905955px;stroke-linecap:butt;stroke-linejoin:miter;stroke-opacity:1"
       d="m 386.00217,296.67237 c -0.0909,0.21902 -0.0909,0.54774 -0.2728,0.65731 -0.98402,0.59276 -0.60239,-0.58881 -1.36387,0.32864 -0.14369,0.17309 -0.12902,0.48407 -0.27279,0.65728 -0.1437,0.17309 -0.36371,0.21902 -0.54554,0.32867 -0.18195,0.10951 -0.35269,0.25108 -0.54557,0.32864 -0.15382,0.0617 -0.63911,0 -0.81833,0 -0.091,0 -0.2085,0.0775 -0.27278,0 -0.12859,-0.1549 0.1286,-0.50237 0,-0.65731 -0.12859,-0.15489 -0.41698,0.15488 -0.54557,0 -0.12859,-0.15489 0.12861,-0.50237 0,-0.65728 -0.0643,-0.0775 -0.20848,0.0775 -0.27276,0 -0.12861,-0.1549 0.0813,-0.46134 0,-0.65728 -0.0575,-0.1386 -0.21529,-0.19022 -0.2728,-0.32867 -0.0541,-0.13017 0.0558,-0.91875 0,-0.98592 -0.0643,-0.0775 -0.20849,0.0775 -0.27277,0 -0.1286,-0.1549 0.12861,-0.50237 0,-0.65731 -0.0643,-0.0775 -0.20849,0.0775 -0.2728,0 -0.0643,-0.0775 0.0408,-0.23071 0,-0.32864 -0.0575,-0.1386 -0.21524,-0.19022 -0.27276,-0.32864 -0.0416,-0.10001 0,-0.83793 0,-0.98595 0,-0.10951 0,-0.21902 0,-0.32864 0,-0.10951 -0.0408,-0.23071 0,-0.32864 0.0575,-0.13859 0.15775,-0.25924 0.27276,-0.32864 0.0986,-0.0595 1.1742,0 1.36391,0 0.18195,0 0.3637,0 0.54557,0 0.0909,0 0.27277,-0.10951 0.27277,0 0,0.10951 -0.20849,0.0775 -0.27277,0 -0.0643,-0.0775 0.0408,-0.23071 0,-0.32864 -0.0575,-0.13859 -0.21528,-0.19022 -0.27278,-0.32867 -0.0408,-0.0981 0.0408,-0.23071 0,-0.32864 -0.0575,-0.13859 -0.23212,-0.18152 -0.27279,-0.32864 -0.0575,-0.20789 0.044,-0.44473 0,-0.65728 -0.0494,-0.23778 -0.20847,-0.42493 -0.27278,-0.65731 -0.0288,-0.1038 0,-0.21902 0,-0.32864 0,-0.21902 0,-0.43821 0,-0.65728 0,-1.20505 0,-2.41008 0,-3.61513 0,-0.13831 -0.0405,-1.8741 0,-1.97187 0.0575,-0.13859 0.21528,-0.18995 0.27278,-0.32864 0.0408,-0.0981 -0.0408,-0.23071 0,-0.32864 0.0575,-0.13859 0.18195,-0.21902 0.27279,-0.32867 0.091,-0.10951 0.15776,-0.25924 0.27278,-0.32864 0.0813,-0.0489 0.18649,0.0348 0.27277,0 0.1929,-0.0775 0.34831,-0.2693 0.54556,-0.32864 0.35285,-0.10625 0.73826,0.10625 1.09111,0 0.19725,-0.0595 0.34832,-0.2693 0.54556,-0.32864 0.24353,-0.0734 1.04815,0 1.3639,0 0.091,0 0.20847,-0.0775 0.27277,0 0.0643,0.0775 -0.0408,0.23071 0,0.32864 0.56763,1.36773 -0.0186,-0.35133 0.54556,0.32864 0.0643,0.0775 -0.0643,0.25108 0,0.32864 0.0643,0.0775 0.20847,-0.0775 0.27278,0 0.1286,0.15489 -0.1286,0.50236 0,0.65731 0.0643,0.0775 0.20849,-0.0775 0.27277,0 0.16251,0.19593 -0.27224,0.98592 0.2728,0.98592 0.025,0 -0.0315,-0.92927 0,-0.98592 0.14266,-0.25788 0.39123,-0.40943 0.54555,-0.65731 0.122,-0.19593 0.16003,-0.45348 0.27278,-0.65728 0.15693,-0.28359 0.60527,-0.72924 0.81834,-0.98595 0.091,-0.10951 0.18194,-0.21902 0.27276,-0.32864 0.091,-0.10951 0.15776,-0.25924 0.2728,-0.32864 0.0831,-0.05 0.69549,0 0.81833,0 0.2196,0 0.9199,-0.0688 1.09111,0 0.1929,0.0775 0.34832,0.2693 0.54556,0.32864 0.44106,0.13288 0.91809,-0.10734 1.36388,0 0.19932,0.0481 0.34502,0.28837 0.54557,0.32864 0.35876,0.072 0.72741,0 1.0911,0 0.2728,0 0.54557,0 0.81835,0 0.18194,0 0.36913,-0.0533 0.54556,0 0.39448,0.11875 0.69661,0.53847 1.0911,0.65731 0.17636,0.0533 0.36372,0 0.54557,0 0.0909,0 0.19146,-0.0489 0.27278,0 0.11494,0.0693 0.15776,0.25924 0.27278,0.32864 0.0813,0.0489 0.19145,-0.0489 0.27277,0 0.11494,0.0693 0.18194,0.21902 0.2728,0.32864 0.0909,0.10951 0.21524,0.19022 0.27277,0.32864 0.0408,0.0981 0,0.21902 0,0.32867 0,0.21902 0.0575,0.44943 0,0.65728 -0.0643,0.23234 -0.20849,0.42491 -0.27277,0.65728 -0.0288,0.10407 0.0408,0.23071 0,0.32867 -0.0575,0.13858 -0.21527,0.18994 -0.2728,0.32864 -0.0408,0.0981 0,0.21902 0,0.32864 0,0.10951 0,0.21902 0,0.32864 0,0.10951 -0.0643,0.40611 0,0.32864 0.1437,-0.17309 0.12902,-0.48408 0.2728,-0.65728 0.14369,-0.1731 0.36369,-0.21902 0.54554,-0.32864 0.3637,-0.21902 0.71358,-0.47535 1.09113,-0.65731 0.26696,-0.12854 0.54554,-0.21902 0.81833,-0.32864 0.27278,-0.10951 0.55136,-0.2 0.81833,-0.32864 0.18878,-0.0911 0.34831,-0.2693 0.54555,-0.32864 0.24731,-0.0745 1.04703,0 1.3639,0 0.18194,0 0.36371,0 0.54557,0 0.18173,0 0.37303,-0.0693 0.54554,0 0.24399,0.0981 0.33158,0.48541 0.54557,0.65728 0.16912,0.13587 0.34831,0.26929 0.54555,0.32864 0.17637,0.0533 0.39425,-0.12147 0.54555,0 0.16913,0.13587 0.10364,0.52141 0.2728,0.65731 1.29645,1.04132 -0.22932,-1.26223 1.0911,0.32864 0.1437,0.17309 0.15072,0.46133 0.2728,0.65728 0.15424,0.24782 0.3398,0.47138 0.54553,0.65731 0.59079,0.53382 0.63558,0.0712 1.09113,0.98592 0.52155,1.88515 -0.0805,0.19972 0.81834,1.64326 0.12198,0.19591 0.15072,0.4613 0.27278,0.65728 0.15423,0.24782 0.43054,0.38015 0.54555,0.65728 0.0813,0.19592 -0.0813,0.46133 0,0.65731 0.0408,0.0981 0.2085,-0.0775 0.27278,0 0.0643,0.0775 0.0643,0.25108 0,0.32864 -0.0643,0.0775 -0.35411,0.0489 -0.27278,0 0.25718,-0.1549 0.55136,-0.20001 0.81835,-0.32864 0.37755,-0.18207 0.69661,-0.53848 1.0911,-0.65731 0.17636,-0.0533 0.36914,0.0533 0.54556,0 0.3945,-0.11875 0.71356,-0.47533 1.09111,-0.65728 0.86523,-0.41699 1.08288,-0.32864 1.90946,-0.32864 0.12281,0 0.73531,-0.05 0.81835,0 0.11493,0.0693 0.16581,0.24266 0.27276,0.32864 0.16913,0.13586 0.37638,0.19265 0.54557,0.32864 0.21396,0.17173 0.31552,0.51872 0.54554,0.65731 0.0813,0.0489 0.19146,-0.0489 0.27279,0 0.11494,0.0693 0.18194,0.21902 0.27277,0.32864 0.0909,0.10951 0.21527,0.18994 0.27278,0.32864 0.0408,0.0981 -0.0408,0.2307 0,0.32864 0.0575,0.13858 0.23212,0.18179 0.27279,0.32864 0.0248,0.0897 0.0211,1.86985 0,1.9719 -0.0493,0.23749 -0.16004,0.45347 -0.27279,0.65728 -0.14267,0.25788 -0.40289,0.39948 -0.54555,0.65728 -0.11284,0.2038 -0.16003,0.45347 -0.27279,0.65731 -0.25018,0.45211 -0.42081,0.33798 -0.81834,0.65728 -0.1069,0.0859 -0.14803,0.29108 -0.27277,0.32864 -2.0433,0.61546 0.18711,-0.60569 -1.3639,0.32867 -0.18194,0.10951 -0.35266,0.25108 -0.54554,0.32864 -0.16375,0.0658 -1.14623,0 -1.3639,0 -0.091,0 -0.18194,0 -0.27277,0 -0.0909,0 -0.20849,-0.0775 -0.2728,0 -0.0643,0.0775 0.0643,0.25108 0,0.32864 -0.0643,0.0775 -0.27277,0.10951 -0.27277,0 0,-0.10951 0.20849,-0.0775 0.27277,0 0.5644,0.67997 -0.86245,-0.0272 0.2728,0.65728 0.67284,0.40535 -0.16375,-0.92019 0.27277,0.65731 0.0813,0.29394 0.46423,0.36334 0.54555,0.65728 0.0575,0.20787 -0.0575,0.44945 0,0.65731 0.0408,0.14701 0.21529,0.19021 0.27278,0.32864 0.0354,0.0851 0.0337,1.85032 0,1.97187 -0.0643,0.23233 -0.16002,0.45347 -0.27278,0.65731 -0.14267,0.25787 -0.36371,0.43817 -0.54555,0.65728 -0.18194,0.21902 -0.36371,0.4382 -0.54557,0.65728 -0.091,0.10951 -0.16581,0.24266 -0.27277,0.32867 -0.16912,0.13586 -0.37639,0.19265 -0.54556,0.32864 -0.1069,0.0859 -0.15072,0.27964 -0.27277,0.32864 -0.17243,0.0693 -0.37671,-0.0813 -0.54556,0 -0.30439,0.14673 -0.50732,0.53238 -0.81834,0.65727 -0.0448,0.019 -1.54918,-0.0163 -1.63668,0 -2.15423,0.43259 0.49105,0.32867 -1.63666,0.32867 -0.17554,0 -1.72486,0.0557 -1.90947,0 -0.19724,-0.0595 -0.3637,-0.21903 -0.54555,-0.32867 -0.27276,-0.10951 -0.53638,-0.26059 -0.81833,-0.32864 -0.17842,-0.043 -0.37305,0.0693 -0.54557,0 -0.12198,-0.0489 -0.16581,-0.24266 -0.27276,-0.32863 -0.16913,-0.13588 -0.3764,-0.19267 -0.54557,-0.32864 -0.10713,-0.0859 -0.15775,-0.25924 -0.27277,-0.32864 -0.0813,-0.0489 -0.19146,0.0489 -0.27279,0 -0.14162,-0.0853 -0.73367,-0.98595 -0.81834,-0.98595 -0.091,0 -0.0408,0.2307 0,0.32864 0.0575,0.13858 0.21527,0.19021 0.2728,0.32864 0.0408,0.0981 0,0.21902 0,0.32867 0,0.10951 0.0408,0.23069 0,0.32864 -0.12488,0.3008 -0.61901,0.57722 -0.81835,0.65727 -0.0862,0.0348 -0.19144,-0.0489 -0.27278,0 -0.83186,0.50112 0.4989,0.2606 -0.81834,0.65731 -0.17636,0.0533 -0.3637,0 -0.54554,0 -0.63649,0 -1.27298,0 -1.90947,0 -0.2376,0 -1.53598,0.0606 -1.63667,0 -0.11494,-0.0693 -0.16582,-0.24266 -0.27276,-0.32867 -0.33836,-0.27174 -0.76581,-0.36332 -1.09113,-0.65727 -0.0269,-0.0245 -0.99384,-1.13878 -1.09112,-1.31459 -0.11284,-0.20381 -0.12901,-0.48408 -0.27277,-0.65728 -0.14369,-0.17311 -0.43278,-0.12474 -0.54556,-0.32864 -0.10085,-0.18234 0.044,-0.44476 0,-0.65731 0.49396,-1.37498 -0.43055,-0.38017 -0.54557,-0.65728 -0.0813,-0.19593 0.0813,-0.46134 0,-0.65731 -0.0408,-0.0981 -0.18173,0 -0.27277,0 0,-0.21902 0,-0.43818 0,-0.65728 0,-0.10951 0,0.21902 0,0.32864 0,0.10951 0,0.21902 0,0.32864 0,0.10951 0.0408,0.2307 0,0.32867 -0.0565,0.13586 -0.70271,0.89306 -0.81833,0.98592 -0.16912,0.13586 -0.35269,0.25108 -0.54556,0.32864 -0.16106,0.0647 -1.21149,0 -1.36389,0 -0.23096,0 -0.94447,0.059 -1.09113,0 -0.12198,-0.0489 -0.18194,-0.21902 -0.27276,-0.32864 -0.0909,-0.10951 -0.16583,-0.24267 -0.2728,-0.32864 -0.16913,-0.13588 -0.40179,-0.15544 -0.54554,-0.32864 -1.39401,-1.67951 1.14375,0.45836 -0.81833,-1.31459 -0.16272,-0.14701 -0.43279,-0.12474 -0.54557,-0.32864 -0.10085,-0.18234 0.0575,-0.44946 0,-0.65731 -0.0813,-0.29394 -0.46423,-0.36334 -0.54556,-0.65728 -0.0575,-0.20789 0.0575,-0.44946 0,-0.65731 -0.0408,-0.14701 -0.23211,-0.18152 -0.27278,-0.32864 -0.0575,-0.20789 0.0813,-0.46131 0,-0.65728 -0.0408,-0.0981 -0.31956,0.094 -0.27277,0 0.29955,-0.6015 0.72741,-1.09549 0,-0.65731 z"
       id="path2906-9" />
    <path
       style="fill:none;stroke:#000000;stroke-width:0.34246901px;stroke-linecap:butt;stroke-linejoin:miter;stroke-opacity:1"
       d="m 385.47363,303.48716 c 0,0.29755 0,0.59514 0,0.89268 0,1.48038 0.0968,-0.31562 -0.20532,0.66954 -0.0649,0.21168 0,0.44636 0,0.66954 0,0.52073 0,1.04149 0,1.56222 0,0.0541 0.006,0.66237 0,0.66954 -0.0483,0.0527 -0.15693,-0.0527 -0.2053,0 -0.0484,0.0527 0,0.14892 0,0.22309 0,0.44636 0,0.89272 0,1.33908 0,0.0745 -0.0484,0.17065 0,0.2231 0.0483,0.0527 0.15693,-0.0527 0.2053,0 0.0485,0.0527 0,0.14891 0,0.2231 0,0.0745 0,0.1489 0,0.22309"
       id="path2908-9" />
    <path
       style="fill:none;stroke:#000000;stroke-width:0.34246901px;stroke-linecap:butt;stroke-linejoin:miter;stroke-opacity:1"
       d="m 388.75815,304.60302 c 0,0.0745 -0.0306,0.15653 0,0.2231 0.0432,0.094 0.16209,0.12908 0.20531,0.2231 0.0456,0.0995 -0.0312,0.79062 0,0.89272 0.0306,0.0997 0.17471,0.12336 0.20531,0.2231 0.0378,0.12336 0,1.11428 0,1.33904 0,0.96708 0,1.93421 0,2.90129"
       id="path2910-4" />
    <path
       style="fill:none;stroke:#000000;stroke-width:0.34246901px;stroke-linecap:butt;stroke-linejoin:miter;stroke-opacity:1"
       d="m 404.1544,307.28114 c 0,0.44636 0,0.89271 0,1.33907 0,0.0745 0,0.14865 0,0.2231 0,0.0745 0.0306,0.15653 0,0.2231 -0.0432,0.0941 -0.1621,0.12907 -0.2053,0.2231 -0.0306,0.0666 0,0.14891 0,0.2231 0,0.0745 0,0.14864 0,0.2231 0,0.15515 0.037,1.03518 0,1.11589 -0.0432,0.094 -0.1621,0.12908 -0.20532,0.22309 -0.0821,0.17854 0.0821,0.49099 0,0.66954 -0.0432,0.094 -0.16208,0.12907 -0.2053,0.2231 -0.0312,0.068 0,0.56902 0,0.6695"
       id="path2912-4" />
    <path
       style="fill:none;stroke:#000000;stroke-width:0.34246901px;stroke-linecap:butt;stroke-linejoin:miter;stroke-opacity:1"
       d="m 401.691,307.7275 c 0,0.37196 0,0.74391 0,1.11589 0,0.44636 0,0.8927 0,1.33905 0,0.0745 0,0.14891 0,0.22309 0,0.0745 0.0306,0.15653 0,0.2231 -0.0432,0.094 -0.1621,0.12908 -0.20531,0.2231 -0.0709,0.15408 0.0722,1.03756 0,1.1159 -0.0483,0.0527 -0.15692,-0.0527 -0.20531,0 -0.0491,0.0535 0.0467,0.89268 0,0.89268 -0.0685,0 0,-0.14891 0,-0.22309"
       id="path2914-40" />
    <path
       style="fill:#000000;fill-opacity:1;stroke:#000000;stroke-width:0.34246901px;stroke-linecap:butt;stroke-linejoin:miter;stroke-opacity:1"
       d="m 381.36795,283.40123 c -0.21236,0 -0.28373,0.0527 -0.41058,-0.2231 -0.0306,-0.0666 0.0484,-0.17065 0,-0.22309 -0.0483,-0.0527 -0.14411,0.0332 -0.2053,0 -0.0866,-0.047 -0.11868,-0.1761 -0.20532,-0.2231 -0.16416,-0.0894 -0.45163,0.0892 -0.61586,0 -0.0866,-0.047 -0.11867,-0.17609 -0.2053,-0.2231 -0.12901,-0.0701 -0.69211,0.0701 -0.82115,0 -0.0866,-0.047 -0.11354,-0.18994 -0.20531,-0.2231 -0.19476,-0.0707 -0.41055,0 -0.61584,0 -0.54742,0 -1.09485,0 -1.64227,0 -0.41056,0 -0.82113,0 -1.23171,0 -0.13686,0 -0.28814,-0.0666 -0.41054,0 -0.0613,0.0332 0.0483,0.17065 0,0.2231 -0.0483,0.0527 -0.14411,-0.0332 -0.20532,0 -0.0866,0.047 -0.11867,0.17609 -0.2053,0.2231 -0.0815,0.0443 -0.57389,-0.0457 -0.61585,0 -0.0483,0.0527 0.0485,0.17065 0,0.2231 -0.0483,0.0527 -0.15691,-0.0527 -0.2053,0 -0.0484,0.0527 0.0483,0.17065 0,0.22309 -0.42474,0.46177 0.0165,-0.70562 -0.41057,0.2231 -0.0306,0.0666 0.0306,0.15652 0,0.22309 -0.0432,0.094 -0.1621,0.12909 -0.20531,0.2231 -0.0306,0.0666 0.0306,0.15653 0,0.2231 -0.0432,0.094 -0.1621,0.12907 -0.2053,0.2231 -0.0306,0.0666 0,0.14864 0,0.2231 0,0.0745 0,0.14864 0,0.2231 0,0.37194 0,0.7439 0,1.11586 0,0.0745 0,0.14891 0,0.2231 0,0.0745 0.0306,0.15652 0,0.2231 -0.0432,0.094 -0.1621,0.12907 -0.20532,0.22309 -0.0373,0.0807 0,0.96067 0,1.11589 0,0.11685 -0.0271,0.83402 0,0.89272 0.42716,0.9288 -0.0144,-0.23859 0.41056,0.2231 0.0968,0.10516 -0.0968,0.34114 0,0.44633 0.0483,0.0527 0.17471,-0.0666 0.2053,0 0.0613,0.13315 -0.0611,0.31329 0,0.44636 0.0306,0.0666 0.15693,-0.0527 0.20532,0 0.0483,0.0527 -0.0306,0.15679 0,0.22309 0.0432,0.0941 0.16208,0.12907 0.2053,0.2231 0.0306,0.0666 -0.0306,0.15653 0,0.2231 0.0548,0.11929 0.50777,0.55204 0.61585,0.66953 0.10806,0.11739 0.50621,0.60992 0.61586,0.66954 0.1224,0.0666 0.28815,-0.0666 0.41054,0 0.85436,0.4644 -0.21945,-0.0163 0.20531,0.44633 0.0483,0.0527 0.14411,-0.0332 0.20531,0 0.0866,0.047 0.11868,0.17609 0.20531,0.2231 0.0611,0.0332 0.15693,-0.0527 0.2053,0 0.0485,0.0527 -0.0483,0.17065 0,0.2231 0.0485,0.0527 0.14411,-0.0332 0.20532,0 0.0866,0.047 0.11867,0.17608 0.2053,0.22309 0.0815,0.0443 0.57389,-0.0457 0.61586,0 0.0484,0.0527 -0.0483,0.17066 0,0.2231 0.0484,0.0527 0.15692,-0.0527 0.20531,0 0.0484,0.0527 -0.0483,0.17066 0,0.2231 0.0968,0.10516 0.28073,-0.047 0.41056,0 0.14513,0.0527 0.2654,0.17065 0.41057,0.22309 0.065,0.0245 0.1441,-0.0332 0.20531,0 0.0866,0.047 0.11867,0.17609 0.2053,0.2231 0.0742,0.0402 0.88363,0 1.02642,0 0.34213,0 0.68427,0 1.02641,0 0.13687,0 0.2737,0 0.41055,0 0.0685,0 0.20531,-0.0745 0.20531,0 0,0.0217 -0.68082,0.0245 0,-0.2231 0.12984,-0.047 0.27372,0 0.41057,0 0.0685,0 0.14411,0.0332 0.20532,0 0.50732,-0.27578 -0.0709,-0.22309 0.41054,-0.22309"
       id="path2916-76" />
    <path
       style="fill:#ffffff;fill-opacity:1;stroke:#000000;stroke-width:0.47905955px;stroke-linecap:butt;stroke-linejoin:miter;stroke-opacity:1"
       d="m 239.98155,252.51487 c -0.0909,0.21902 -0.0909,0.54774 -0.2728,0.65731 -0.98403,0.59276 -0.6024,-0.58881 -1.36388,0.32864 -0.1437,0.17309 -0.12901,0.48407 -0.27279,0.65728 -0.14369,0.17309 -0.3637,0.21902 -0.54555,0.32867 -0.18194,0.10951 -0.35268,0.25108 -0.54556,0.32864 -0.15383,0.0617 -0.6391,0 -0.81834,0 -0.091,0 -0.20848,0.0775 -0.27276,0 -0.12861,-0.1549 0.12859,-0.50237 0,-0.65731 -0.12861,-0.15489 -0.41699,0.15488 -0.54557,0 -0.1286,-0.15489 0.12861,-0.50237 0,-0.65728 -0.0643,-0.0775 -0.20849,0.0775 -0.27277,0 -0.1286,-0.1549 0.0813,-0.46134 0,-0.65728 -0.0575,-0.1386 -0.2153,-0.19022 -0.27279,-0.32867 -0.0542,-0.13017 0.0558,-0.91875 0,-0.98592 -0.0643,-0.0775 -0.20849,0.0775 -0.27277,0 -0.12861,-0.1549 0.12859,-0.50237 0,-0.65731 -0.0643,-0.0775 -0.2085,0.0775 -0.2728,0 -0.0643,-0.0775 0.0408,-0.23071 0,-0.32864 -0.0575,-0.1386 -0.21525,-0.19022 -0.27277,-0.32864 -0.0416,-0.10001 0,-0.83793 0,-0.98595 0,-0.10951 0,-0.21902 0,-0.32864 0,-0.10951 -0.0408,-0.23071 0,-0.32864 0.0575,-0.1386 0.15775,-0.25924 0.27277,-0.32864 0.0986,-0.0595 1.17418,0 1.3639,0 0.18194,0 0.3637,0 0.54556,0 0.0909,0 0.27277,-0.10951 0.27277,0 0,0.10951 -0.20849,0.0775 -0.27277,0 -0.0643,-0.0775 0.0408,-0.23071 0,-0.32864 -0.0575,-0.1386 -0.21527,-0.19022 -0.27276,-0.32867 -0.0408,-0.0981 0.0408,-0.23071 0,-0.32864 -0.0575,-0.13859 -0.23213,-0.18152 -0.2728,-0.32864 -0.0575,-0.20789 0.044,-0.44473 0,-0.65728 -0.0494,-0.23778 -0.20847,-0.42493 -0.27277,-0.65731 -0.0288,-0.1038 0,-0.21902 0,-0.32864 0,-0.21902 0,-0.43821 0,-0.65728 0,-1.20505 0,-2.41008 0,-3.61513 0,-0.13831 -0.0405,-1.8741 0,-1.97187 0.0575,-0.13859 0.21527,-0.18995 0.27277,-0.32864 0.0408,-0.0981 -0.0408,-0.23071 0,-0.32864 0.0575,-0.13859 0.18194,-0.21902 0.2728,-0.32867 0.0909,-0.10951 0.15774,-0.25924 0.27276,-0.32864 0.0813,-0.0489 0.18649,0.0348 0.27277,0 0.19291,-0.0775 0.34833,-0.2693 0.54557,-0.32864 0.35285,-0.10625 0.73826,0.10625 1.09111,0 0.19724,-0.0595 0.34832,-0.2693 0.54557,-0.32864 0.24353,-0.0734 1.04813,0 1.3639,0 0.0909,0 0.20847,-0.0775 0.27276,0 0.0643,0.0775 -0.0408,0.23071 0,0.32864 0.56762,1.36773 -0.0186,-0.35133 0.54557,0.32864 0.0643,0.0775 -0.0643,0.25108 0,0.32864 0.0643,0.0775 0.20847,-0.0775 0.27277,0 0.1286,0.15489 -0.12861,0.50236 0,0.65731 0.0643,0.0775 0.20849,-0.0775 0.27278,0 0.1625,0.19592 -0.27224,0.98592 0.27278,0.98592 0.025,0 -0.0314,-0.92927 0,-0.98592 0.14266,-0.25788 0.39125,-0.40943 0.54557,-0.65731 0.12198,-0.19593 0.16003,-0.45348 0.27277,-0.65728 0.15693,-0.28358 0.60528,-0.72924 0.81833,-0.98595 0.0909,-0.10951 0.18195,-0.21902 0.27278,-0.32864 0.0909,-0.10951 0.15775,-0.25924 0.27279,-0.32864 0.0831,-0.05 0.69548,0 0.81833,0 0.2196,0 0.9199,-0.0688 1.09111,0 0.1929,0.0775 0.34833,0.2693 0.54557,0.32864 0.44104,0.13288 0.91807,-0.10734 1.36388,0 0.19931,0.0481 0.345,0.28837 0.54555,0.32864 0.35878,0.072 0.72741,0 1.09112,0 0.27279,0 0.54556,0 0.81833,0 0.18194,0 0.36914,-0.0533 0.54557,0 0.39449,0.11875 0.69662,0.53847 1.09111,0.65731 0.17636,0.0533 0.36372,0 0.54555,0 0.0909,0 0.19146,-0.0489 0.2728,0 0.11494,0.0693 0.15776,0.25924 0.27277,0.32864 0.0813,0.0489 0.19146,-0.0489 0.27278,0 0.11493,0.0693 0.18194,0.21902 0.27278,0.32864 0.0909,0.10951 0.21526,0.19022 0.27277,0.32864 0.0408,0.0981 0,0.21902 0,0.32867 0,0.21902 0.0575,0.44943 0,0.65728 -0.0643,0.23233 -0.20849,0.42491 -0.27277,0.65728 -0.0288,0.10407 0.0408,0.23071 0,0.32867 -0.0575,0.13858 -0.21527,0.18994 -0.27278,0.32864 -0.0408,0.0981 0,0.21902 0,0.32864 0,0.10951 0,0.21902 0,0.32864 0,0.10951 -0.0643,0.40611 0,0.32864 0.14368,-0.17309 0.12901,-0.48408 0.27278,-0.65728 0.1437,-0.1731 0.36371,-0.21902 0.54555,-0.32864 0.36371,-0.21902 0.71357,-0.47535 1.09113,-0.65731 0.26696,-0.12854 0.54554,-0.21902 0.81834,-0.32864 0.27276,-0.10951 0.55134,-0.2 0.81833,-0.32864 0.18877,-0.0911 0.3483,-0.2693 0.54555,-0.32864 0.24729,-0.0745 1.04702,0 1.3639,0 0.18194,0 0.36369,0 0.54556,0 0.18174,0 0.37302,-0.0693 0.54554,0 0.24399,0.0981 0.33157,0.48541 0.54556,0.65728 0.16913,0.13587 0.34833,0.26929 0.54557,0.32864 0.17636,0.0533 0.39424,-0.12147 0.54555,0 0.16912,0.13587 0.10364,0.52141 0.27278,0.65731 1.29647,1.04132 -0.2293,-1.26223 1.09112,0.32864 0.14368,0.17309 0.15072,0.46133 0.27278,0.65728 0.15424,0.24782 0.3398,0.47138 0.54555,0.65731 0.59077,0.53382 0.63556,0.0712 1.09113,0.98592 0.52153,1.88515 -0.0805,0.19972 0.81833,1.64326 0.12199,0.19591 0.15073,0.4613 0.27277,0.65728 0.15424,0.24782 0.43055,0.38015 0.54557,0.65728 0.0813,0.19592 -0.0813,0.46133 0,0.65731 0.0408,0.0981 0.20849,-0.0775 0.27277,0 0.0643,0.0775 0.0643,0.25108 0,0.32864 -0.0643,0.0775 -0.35411,0.0489 -0.27277,0 0.25718,-0.1549 0.55135,-0.20001 0.81833,-0.32864 0.37756,-0.18207 0.69662,-0.53849 1.09111,-0.65731 0.17636,-0.0533 0.36914,0.0533 0.54557,0 0.39448,-0.11875 0.71354,-0.47533 1.0911,-0.65728 0.86523,-0.41699 1.08288,-0.32864 1.90947,-0.32864 0.12281,0 0.7353,-0.05 0.81833,0 0.11494,0.0693 0.16581,0.24266 0.27277,0.32864 0.16913,0.13586 0.37638,0.19265 0.54556,0.32864 0.21398,0.17173 0.31554,0.51872 0.54555,0.65731 0.0813,0.0489 0.19145,-0.0489 0.2728,0 0.11493,0.0693 0.18194,0.21902 0.27277,0.32864 0.0909,0.10951 0.21527,0.18994 0.27277,0.32864 0.0408,0.0981 -0.0408,0.2307 0,0.32864 0.0575,0.13858 0.23212,0.18179 0.27279,0.32864 0.0248,0.0897 0.0211,1.86985 0,1.9719 -0.0491,0.23749 -0.16003,0.45347 -0.27279,0.65728 -0.14266,0.25788 -0.40288,0.39948 -0.54554,0.65728 -0.11284,0.2038 -0.16003,0.45347 -0.2728,0.65731 -0.25017,0.45211 -0.42081,0.33798 -0.81833,0.65728 -0.1069,0.0859 -0.14805,0.29108 -0.27278,0.32864 -2.04329,0.61546 0.18712,-0.60568 -1.3639,0.32867 -0.18194,0.10951 -0.35265,0.25108 -0.54554,0.32864 -0.16374,0.0658 -1.14622,0 -1.3639,0 -0.0909,0 -0.18195,0 -0.27277,0 -0.0909,0 -0.20849,-0.0775 -0.27279,0 -0.0643,0.0775 0.0643,0.25108 0,0.32864 -0.0643,0.0775 -0.27277,0.10951 -0.27277,0 0,-0.10951 0.20849,-0.0775 0.27277,0 0.5644,0.67997 -0.86246,-0.0272 0.27279,0.65728 0.67284,0.40534 -0.16375,-0.92019 0.27277,0.65731 0.0813,0.29394 0.46423,0.36334 0.54554,0.65728 0.0575,0.20788 -0.0575,0.44945 0,0.65731 0.0408,0.14701 0.2153,0.19021 0.2728,0.32864 0.0354,0.0851 0.0336,1.85032 0,1.97187 -0.0643,0.23233 -0.16003,0.45347 -0.2728,0.65731 -0.14266,0.25787 -0.36369,0.43817 -0.54554,0.65728 -0.18195,0.21902 -0.3637,0.4382 -0.54556,0.65727 -0.091,0.10951 -0.16582,0.24267 -0.27277,0.32867 -0.16913,0.13587 -0.37641,0.19266 -0.54557,0.32864 -0.10691,0.0859 -0.15073,0.27965 -0.27277,0.32864 -0.17244,0.0693 -0.37671,-0.0813 -0.54557,0 -0.30437,0.14674 -0.50731,0.53239 -0.81833,0.65728 -0.0448,0.019 -1.54917,-0.0163 -1.63667,0 -2.15424,0.43259 0.49103,0.32867 -1.63668,0.32867 -0.17553,0 -1.72485,0.0557 -1.90945,0 -0.19725,-0.0595 -0.36371,-0.21903 -0.54555,-0.32867 -0.27277,-0.10951 -0.53638,-0.26059 -0.81833,-0.32864 -0.17844,-0.043 -0.37305,0.0693 -0.54557,0 -0.12198,-0.0489 -0.16582,-0.24266 -0.27277,-0.32864 -0.16913,-0.13587 -0.3764,-0.19266 -0.54556,-0.32864 -0.10714,-0.0859 -0.15776,-0.25923 -0.27278,-0.32864 -0.0813,-0.0489 -0.19145,0.0489 -0.27279,0 -0.14163,-0.0853 -0.73367,-0.98594 -0.81833,-0.98594 -0.091,0 -0.0408,0.2307 0,0.32864 0.0575,0.13858 0.21527,0.19021 0.27278,0.32863 0.0408,0.0981 0,0.21902 0,0.32867 0,0.10951 0.0408,0.2307 0,0.32864 -0.12487,0.30081 -0.619,0.57723 -0.81833,0.65728 -0.0862,0.0348 -0.19146,-0.0489 -0.2728,0 -0.83185,0.50112 0.49891,0.2606 -0.81833,0.65731 -0.17636,0.0533 -0.3637,0 -0.54554,0 -0.6365,0 -1.27297,0 -1.90946,0 -0.23761,0 -1.53598,0.0606 -1.63668,0 -0.11493,-0.0693 -0.16581,-0.24266 -0.27277,-0.32867 -0.33836,-0.27174 -0.7658,-0.36332 -1.09113,-0.65728 -0.0269,-0.0245 -0.99383,-1.13877 -1.0911,-1.31458 -0.11284,-0.20381 -0.12902,-0.48408 -0.27278,-0.65728 -0.1437,-0.17311 -0.43277,-0.12474 -0.54557,-0.32864 -0.10084,-0.18234 0.044,-0.44476 0,-0.65731 0.49396,-1.37498 -0.43054,-0.38017 -0.54555,-0.65728 -0.0813,-0.19593 0.0813,-0.46134 0,-0.65731 -0.0408,-0.0981 -0.18175,0 -0.27278,0 0,-0.21902 0,-0.43818 0,-0.65728 0,-0.10951 0,0.21902 0,0.32864 0,0.10951 0,0.21902 0,0.32864 0,0.10951 0.0408,0.2307 0,0.32867 -0.0565,0.13586 -0.70272,0.89306 -0.81833,0.98592 -0.16913,0.13586 -0.35268,0.25108 -0.54557,0.32864 -0.16106,0.0647 -1.21148,0 -1.36388,0 -0.23096,0 -0.94448,0.059 -1.09112,0 -0.12198,-0.0489 -0.18194,-0.21902 -0.27278,-0.32864 -0.0909,-0.10951 -0.16581,-0.24267 -0.27279,-0.32864 -0.16912,-0.13588 -0.40178,-0.15544 -0.54554,-0.32864 -1.394,-1.67951 1.14374,0.45836 -0.81834,-1.31459 -0.16272,-0.14701 -0.43278,-0.12474 -0.54556,-0.32864 -0.10096,-0.18234 0.0575,-0.44946 0,-0.65731 -0.0813,-0.29394 -0.46423,-0.36334 -0.54557,-0.65728 -0.0575,-0.20789 0.0575,-0.44946 0,-0.65731 -0.0408,-0.14701 -0.23209,-0.18152 -0.27277,-0.32864 -0.0575,-0.20789 0.0813,-0.46131 0,-0.65728 -0.0408,-0.0981 -0.31955,0.094 -0.27276,0 0.29954,-0.6015 0.72739,-1.09549 0,-0.65731 z"
       id="path2906-0" />
    <path
       style="fill:none;stroke:#000000;stroke-width:0.34246901px;stroke-linecap:butt;stroke-linejoin:miter;stroke-opacity:1"
       d="m 239.45299,259.32966 c 0,0.29755 0,0.59514 0,0.89268 0,1.48038 0.0968,-0.31562 -0.2053,0.66954 -0.065,0.21168 0,0.44636 0,0.66954 0,0.52073 0,1.04149 0,1.56222 0,0.0541 0.006,0.66237 0,0.66954 -0.0484,0.0527 -0.15693,-0.0527 -0.20531,0 -0.0483,0.0527 0,0.14892 0,0.22309 0,0.44636 0,0.89272 0,1.33908 0,0.0745 -0.0483,0.17065 0,0.2231 0.0484,0.0527 0.15692,-0.0527 0.20531,0 0.0483,0.0527 0,0.14891 0,0.2231 0,0.0745 0,0.1489 0,0.22309"
       id="path2908-80" />
    <path
       style="fill:none;stroke:#000000;stroke-width:0.34246901px;stroke-linecap:butt;stroke-linejoin:miter;stroke-opacity:1"
       d="m 242.73752,260.44552 c 0,0.0745 -0.0306,0.15653 0,0.2231 0.0432,0.094 0.1621,0.12908 0.20531,0.2231 0.0457,0.0995 -0.0312,0.79062 0,0.89272 0.0306,0.0997 0.17471,0.12336 0.2053,0.2231 0.0378,0.12336 0,1.11428 0,1.33904 0,0.96708 0,1.93421 0,2.90129"
       id="path2910-9" />
    <path
       style="fill:none;stroke:#000000;stroke-width:0.34246901px;stroke-linecap:butt;stroke-linejoin:miter;stroke-opacity:1"
       d="m 258.13377,263.12364 c 0,0.44636 0,0.89271 0,1.33907 0,0.0745 0,0.14865 0,0.2231 0,0.0745 0.0306,0.15653 0,0.2231 -0.0432,0.0941 -0.16209,0.12907 -0.20531,0.2231 -0.0306,0.0666 0,0.14891 0,0.2231 0,0.0745 0,0.14864 0,0.2231 0,0.15515 0.037,1.03518 0,1.11589 -0.0432,0.094 -0.16209,0.12908 -0.2053,0.22309 -0.0821,0.17854 0.0821,0.49099 0,0.66954 -0.0432,0.094 -0.1621,0.12908 -0.20531,0.2231 -0.0312,0.068 0,0.56902 0,0.6695"
       id="path2912-84" />
    <path
       style="fill:none;stroke:#000000;stroke-width:0.34246901px;stroke-linecap:butt;stroke-linejoin:miter;stroke-opacity:1"
       d="m 255.67037,263.57 c 0,0.37196 0,0.74391 0,1.11589 0,0.44636 0,0.8927 0,1.33905 0,0.0745 0,0.14891 0,0.22309 0,0.0745 0.0306,0.15653 0,0.2231 -0.0432,0.094 -0.1621,0.12908 -0.20531,0.2231 -0.0709,0.15408 0.0722,1.03756 0,1.1159 -0.0483,0.0527 -0.15693,-0.0527 -0.2053,0 -0.0493,0.0536 0.0467,0.89268 0,0.89268 -0.0685,0 0,-0.14891 0,-0.22309"
       id="path2914-8" />
    <path
       style="fill:#000000;fill-opacity:1;stroke:#000000;stroke-width:0.34246901px;stroke-linecap:butt;stroke-linejoin:miter;stroke-opacity:1"
       d="m 235.34731,239.24373 c -0.21235,0 -0.28373,0.0527 -0.41056,-0.2231 -0.0306,-0.0666 0.0483,-0.17065 0,-0.22309 -0.0485,-0.0527 -0.14411,0.0332 -0.20532,0 -0.0866,-0.047 -0.11867,-0.1761 -0.2053,-0.2231 -0.16416,-0.0894 -0.45164,0.0892 -0.61586,0 -0.0866,-0.047 -0.11869,-0.17609 -0.20531,-0.2231 -0.12902,-0.0701 -0.69211,0.0701 -0.82115,0 -0.0866,-0.047 -0.11354,-0.18994 -0.2053,-0.2231 -0.19477,-0.0707 -0.41056,0 -0.61584,0 -0.54743,0 -1.09485,0 -1.64227,0 -0.41056,0 -0.82114,0 -1.23171,0 -0.13688,0 -0.28816,-0.0666 -0.41056,0 -0.0613,0.0332 0.0484,0.17065 0,0.2231 -0.0483,0.0527 -0.14411,-0.0332 -0.2053,0 -0.0866,0.047 -0.11867,0.17609 -0.20531,0.2231 -0.0815,0.0443 -0.57388,-0.0457 -0.61584,0 -0.0484,0.0527 0.0484,0.17065 0,0.2231 -0.0484,0.0527 -0.15693,-0.0527 -0.2053,0 -0.0485,0.0527 0.0483,0.17065 0,0.22309 -0.42474,0.46177 0.0165,-0.70562 -0.41058,0.2231 -0.0306,0.0666 0.0306,0.15652 0,0.22309 -0.0432,0.094 -0.1621,0.12909 -0.2053,0.2231 -0.0306,0.0666 0.0306,0.15653 0,0.2231 -0.0432,0.0941 -0.1621,0.12907 -0.20532,0.2231 -0.0306,0.0666 0,0.14864 0,0.2231 0,0.0745 0,0.14864 0,0.2231 0,0.37194 0,0.7439 0,1.11586 0,0.0745 0,0.14891 0,0.2231 0,0.0745 0.0306,0.15652 0,0.2231 -0.0432,0.094 -0.1621,0.12907 -0.2053,0.22309 -0.0373,0.0807 0,0.96068 0,1.11589 0,0.11685 -0.0271,0.83402 0,0.89272 0.42715,0.9288 -0.0144,-0.23859 0.41055,0.2231 0.0968,0.10516 -0.0968,0.34114 0,0.44633 0.0484,0.0527 0.17471,-0.0666 0.20531,0 0.0611,0.13315 -0.0613,0.31329 0,0.44636 0.0306,0.0666 0.15693,-0.0527 0.2053,0 0.0484,0.0527 -0.0306,0.15679 0,0.22309 0.0432,0.094 0.1621,0.12907 0.20532,0.2231 0.0306,0.0666 -0.0306,0.15653 0,0.2231 0.0547,0.11929 0.50776,0.55204 0.61583,0.66953 0.10818,0.11739 0.50622,0.60992 0.61586,0.66954 0.1224,0.0666 0.28816,-0.0666 0.41056,0 0.85435,0.4644 -0.21945,-0.0163 0.2053,0.44633 0.0484,0.0527 0.14412,-0.0332 0.20531,0 0.0866,0.047 0.11868,0.17609 0.2053,0.2231 0.0613,0.0332 0.15693,-0.0527 0.20532,0 0.0484,0.0527 -0.0485,0.17065 0,0.2231 0.0484,0.0527 0.14411,-0.0332 0.2053,0 0.0866,0.047 0.11869,0.17608 0.20531,0.22309 0.0815,0.0443 0.57389,-0.0457 0.61586,0 0.0485,0.0527 -0.0484,0.17066 0,0.2231 0.0485,0.0527 0.15693,-0.0527 0.20532,0 0.0483,0.0527 -0.0484,0.17066 0,0.2231 0.0968,0.10516 0.28072,-0.047 0.41054,0 0.14515,0.0527 0.26542,0.17065 0.41058,0.22309 0.0649,0.0245 0.14411,-0.0332 0.2053,0 0.0866,0.047 0.11868,0.17609 0.20532,0.2231 0.0742,0.0402 0.88362,0 1.0264,0 0.34214,0 0.68429,0 1.02642,0 0.13687,0 0.2737,0 0.41056,0 0.0685,0 0.2053,-0.0745 0.2053,0 0,0.0217 -0.68082,0.0245 0,-0.2231 0.12984,-0.047 0.27373,0 0.41058,0 0.0685,0 0.14411,0.0332 0.2053,0 0.50734,-0.27578 -0.0709,-0.22309 0.41056,-0.22309"
       id="path2916-3" />
  </g>
</svg>
