<svg xmlns="http://www.w3.org/2000/svg" width="50" height="50" viewBox="0 0 100 100">
  <circle fill="#7092ff" cx="50" cy="50" r="45" />
  <path fill="#fff" stroke="#fff" d="M41.072 49.28q0-2.4 1.152-3.84 1.152-1.488 2.64-2.208-1.728-.96-2.688-2.256-.96-1.344-.96-3.264 0-2.88 2.448-4.512 2.448-1.68 7.008-1.68 2.688 0 4.56.48 1.872.432 3.648 1.152l-1.296 3.216q-1.632-.672-3.264-1.104-1.632-.48-3.936-.48-2.88 0-4.08.768-1.152.72-1.152 2.064 0 1.344 1.344 2.304 1.344.912 4.992 2.256 3.696 1.344 5.76 3.072 2.064 1.728 2.064 4.608 0 2.448-1.104 4.032-1.104 1.536-2.496 2.352 1.68.912 2.592 2.208.96 1.248.96 3.072 0 3.312-2.784 5.136-2.736 1.824-7.68 1.824-2.64 0-4.608-.384-1.968-.432-3.504-1.2v-3.6q1.536.72 3.792 1.344 2.256.624 4.512.624 3.552 0 4.896-1.008 1.344-1.056 1.344-2.4 0-.912-.48-1.584-.432-.672-1.776-1.392-1.296-.768-3.936-1.728-2.496-.96-4.32-1.968-1.776-1.008-2.736-2.4-.912-1.392-.912-3.504zm3.6-.48q0 1.776 1.488 3.024 1.536 1.2 5.376 2.64l1.056.384q1.104-.672 2.064-1.68 1.008-1.056 1.008-2.688 0-1.2-.672-2.16-.624-.96-2.256-1.824-1.632-.912-4.608-1.824-1.344.336-2.4 1.44-1.056 1.104-1.056 2.688z" />
</svg>
